%TF.GenerationSoftware,KiCad,Pcbnew,10.0.3+dfsg-1*%
%TF.CreationDate,2026-09-06T21:22:59-03:00*%
%TF.ProjectId,bitaxeGamma,62697461-7865-4476-916d-6d612e6b6963,rev?*%
%TF.SameCoordinates,Original*%
%TF.FileFunction,Copper,L4,Bot*%
%TF.FilePolarity,Positive*%
%FSLAX46Y46*%
G04 Gerber Fmt 4.6, Leading zero omitted, Abs format (unit mm)*
G04 Created by KiCad (PCBNEW 10.0.3+dfsg-1) date 2026-09-06 21:22:59*
%MOMM*%
%LPD*%
G01*
G04 APERTURE LIST*
G04 Aperture macros list*
%AMRoundRect*
0 Rectangle with rounded corners*
0 $1 Rounding radius*
0 $2 $3 $4 $5 $6 $7 $8 $9 X,Y pos of 4 corners*
0 Add a 4 corners polygon primitive as box body*
4,1,4,$2,$3,$4,$5,$6,$7,$8,$9,$2,$3,0*
0 Add four circle primitives for the rounded corners*
1,1,$1+$1,$2,$3*
1,1,$1+$1,$4,$5*
1,1,$1+$1,$6,$7*
1,1,$1+$1,$8,$9*
0 Add four rect primitives between the rounded corners*
20,1,$1+$1,$2,$3,$4,$5,0*
20,1,$1+$1,$4,$5,$6,$7,0*
20,1,$1+$1,$6,$7,$8,$9,0*
20,1,$1+$1,$8,$9,$2,$3,0*%
G04 Aperture macros list end*
%TA.AperFunction,EtchedComponent*%
%ADD10C,0.000000*%
%TD*%
%TA.AperFunction,ComponentPad*%
%ADD11C,0.800000*%
%TD*%
%TA.AperFunction,ComponentPad*%
%ADD12C,6.000000*%
%TD*%
%TA.AperFunction,ComponentPad*%
%ADD13R,1.700000X1.700000*%
%TD*%
%TA.AperFunction,ComponentPad*%
%ADD14O,1.700000X1.700000*%
%TD*%
%TA.AperFunction,ComponentPad*%
%ADD15C,0.400000*%
%TD*%
%TA.AperFunction,SMDPad,CuDef*%
%ADD16RoundRect,0.250000X0.312500X0.625000X-0.312500X0.625000X-0.312500X-0.625000X0.312500X-0.625000X0*%
%TD*%
%TA.AperFunction,ComponentPad*%
%ADD17C,1.574800*%
%TD*%
%TA.AperFunction,ComponentPad*%
%ADD18C,1.700000*%
%TD*%
%TA.AperFunction,SMDPad,CuDef*%
%ADD19RoundRect,0.135000X0.135000X0.185000X-0.135000X0.185000X-0.135000X-0.185000X0.135000X-0.185000X0*%
%TD*%
%TA.AperFunction,SMDPad,CuDef*%
%ADD20RoundRect,0.250000X-0.250000X-0.300000X0.250000X-0.300000X0.250000X0.300000X-0.250000X0.300000X0*%
%TD*%
%TA.AperFunction,SMDPad,CuDef*%
%ADD21C,1.000000*%
%TD*%
%TA.AperFunction,SMDPad,CuDef*%
%ADD22RoundRect,0.400000X-0.500000X-0.900000X0.500000X-0.900000X0.500000X0.900000X-0.500000X0.900000X0*%
%TD*%
%TA.AperFunction,SMDPad,CuDef*%
%ADD23RoundRect,0.150000X0.425000X-0.150000X0.425000X0.150000X-0.425000X0.150000X-0.425000X-0.150000X0*%
%TD*%
%TA.AperFunction,SMDPad,CuDef*%
%ADD24RoundRect,0.075000X0.500000X-0.075000X0.500000X0.075000X-0.500000X0.075000X-0.500000X-0.075000X0*%
%TD*%
%TA.AperFunction,ComponentPad*%
%ADD25O,1.800000X1.000000*%
%TD*%
%TA.AperFunction,ComponentPad*%
%ADD26O,2.100000X1.000000*%
%TD*%
%TA.AperFunction,SMDPad,CuDef*%
%ADD27R,0.900000X1.500000*%
%TD*%
%TA.AperFunction,SMDPad,CuDef*%
%ADD28R,1.500000X0.900000*%
%TD*%
%TA.AperFunction,SMDPad,CuDef*%
%ADD29R,0.900000X0.900000*%
%TD*%
%TA.AperFunction,ConnectorPad*%
%ADD30C,0.787400*%
%TD*%
%TA.AperFunction,SMDPad,CuDef*%
%ADD31RoundRect,0.055250X0.340750X0.055250X-0.340750X0.055250X-0.340750X-0.055250X0.340750X-0.055250X0*%
%TD*%
%TA.AperFunction,SMDPad,CuDef*%
%ADD32R,6.330000X2.000000*%
%TD*%
%TA.AperFunction,SMDPad,CuDef*%
%ADD33R,6.330000X5.300000*%
%TD*%
%TA.AperFunction,SMDPad,CuDef*%
%ADD34R,2.000000X2.000000*%
%TD*%
%TA.AperFunction,SMDPad,CuDef*%
%ADD35R,0.900000X1.800000*%
%TD*%
%TA.AperFunction,SMDPad,CuDef*%
%ADD36RoundRect,0.150000X-0.150000X-0.625000X0.150000X-0.625000X0.150000X0.625000X-0.150000X0.625000X0*%
%TD*%
%TA.AperFunction,SMDPad,CuDef*%
%ADD37RoundRect,0.250000X-0.350000X-0.650000X0.350000X-0.650000X0.350000X0.650000X-0.350000X0.650000X0*%
%TD*%
%TA.AperFunction,ViaPad*%
%ADD38C,0.800000*%
%TD*%
%TA.AperFunction,ViaPad*%
%ADD39C,0.400000*%
%TD*%
%TA.AperFunction,ViaPad*%
%ADD40C,1.000000*%
%TD*%
%TA.AperFunction,ViaPad*%
%ADD41C,0.500000*%
%TD*%
%TA.AperFunction,ViaPad*%
%ADD42C,1.200000*%
%TD*%
%TA.AperFunction,Conductor*%
%ADD43C,0.508000*%
%TD*%
%TA.AperFunction,Conductor*%
%ADD44C,0.254000*%
%TD*%
%TA.AperFunction,Conductor*%
%ADD45C,0.200000*%
%TD*%
%TA.AperFunction,Conductor*%
%ADD46C,1.000000*%
%TD*%
%TA.AperFunction,Conductor*%
%ADD47C,0.300000*%
%TD*%
%TA.AperFunction,Conductor*%
%ADD48C,0.500000*%
%TD*%
G04 APERTURE END LIST*
D10*
%TA.AperFunction,EtchedComponent*%
%TO.C,G\u002A\u002A\u002A*%
G36*
X110835225Y-83669191D02*
G01*
X111225774Y-84059740D01*
X110840646Y-84445290D01*
X110743775Y-84541920D01*
X110649131Y-84635592D01*
X110567917Y-84715197D01*
X110504115Y-84776859D01*
X110461707Y-84816699D01*
X110444677Y-84830841D01*
X110429633Y-84818501D01*
X110388808Y-84780268D01*
X110326321Y-84719953D01*
X110246154Y-84641434D01*
X110152289Y-84548587D01*
X110048708Y-84445290D01*
X109663579Y-84059740D01*
X110054128Y-83669191D01*
X110444677Y-83278642D01*
X110835225Y-83669191D01*
G37*
%TD.AperFunction*%
%TA.AperFunction,EtchedComponent*%
G36*
X106952962Y-84218195D02*
G01*
X107012788Y-84384727D01*
X107130174Y-84656382D01*
X107260097Y-84893409D01*
X107401616Y-85094547D01*
X107553792Y-85258537D01*
X107715685Y-85384116D01*
X107886356Y-85470027D01*
X107916657Y-85479077D01*
X107996489Y-85494470D01*
X108098933Y-85507422D01*
X108211773Y-85516200D01*
X108448024Y-85528872D01*
X108633717Y-85851383D01*
X108687239Y-85945026D01*
X108740061Y-86039000D01*
X108781920Y-86115205D01*
X108809482Y-86167559D01*
X108819410Y-86189981D01*
X108812654Y-86193248D01*
X108772106Y-86198329D01*
X108701063Y-86202393D01*
X108606604Y-86205090D01*
X108495806Y-86206067D01*
X108172203Y-86206067D01*
X108178046Y-87763614D01*
X108179056Y-88029567D01*
X108180108Y-88286071D01*
X108181182Y-88506491D01*
X108182369Y-88693760D01*
X108183761Y-88850811D01*
X108185446Y-88980576D01*
X108187518Y-89085988D01*
X108190065Y-89169980D01*
X108193180Y-89235484D01*
X108196952Y-89285434D01*
X108201474Y-89322762D01*
X108206835Y-89350400D01*
X108213126Y-89371282D01*
X108220439Y-89388341D01*
X108228864Y-89404508D01*
X108261787Y-89457864D01*
X108349332Y-89557893D01*
X108450475Y-89629877D01*
X108508694Y-89659932D01*
X108417585Y-89713326D01*
X108319765Y-89792653D01*
X108242377Y-89900266D01*
X108195128Y-90023485D01*
X108193591Y-90033321D01*
X108189824Y-90086905D01*
X108186397Y-90179408D01*
X108183334Y-90308844D01*
X108180661Y-90473224D01*
X108178401Y-90670562D01*
X108176578Y-90898870D01*
X108175218Y-91156162D01*
X108174344Y-91440449D01*
X108173980Y-91749745D01*
X108173471Y-93386531D01*
X107742630Y-93787538D01*
X107311790Y-94188545D01*
X107277386Y-94097910D01*
X107247290Y-94032073D01*
X107177868Y-93916154D01*
X107082976Y-93783702D01*
X106967059Y-93640128D01*
X106834561Y-93490847D01*
X106689927Y-93341272D01*
X106537600Y-93196816D01*
X106483754Y-93146978D01*
X106402109Y-93067371D01*
X106327474Y-92990122D01*
X106262576Y-92918696D01*
X106210143Y-92856560D01*
X106172904Y-92807181D01*
X106153586Y-92774024D01*
X106154918Y-92760556D01*
X106179628Y-92770243D01*
X106230444Y-92806551D01*
X106299366Y-92857410D01*
X106369454Y-92896819D01*
X106436950Y-92916253D01*
X106516137Y-92921454D01*
X106532152Y-92921097D01*
X106642284Y-92901731D01*
X106745371Y-92857661D01*
X106824867Y-92795630D01*
X106826684Y-92793536D01*
X106833773Y-92782700D01*
X106839814Y-92766544D01*
X106844873Y-92742039D01*
X106849018Y-92706155D01*
X106852314Y-92655863D01*
X106854829Y-92588133D01*
X106856628Y-92499937D01*
X106857778Y-92388244D01*
X106858346Y-92250025D01*
X106858398Y-92082251D01*
X106858000Y-91881892D01*
X106857219Y-91645920D01*
X106856122Y-91371304D01*
X106850337Y-89987937D01*
X106790861Y-89886750D01*
X106733692Y-89809469D01*
X106627929Y-89721251D01*
X106524473Y-89656939D01*
X106595168Y-89620671D01*
X106660367Y-89577358D01*
X106737556Y-89503287D01*
X106800898Y-89418954D01*
X106838416Y-89338263D01*
X106840403Y-89327806D01*
X106845101Y-89272011D01*
X106849184Y-89174805D01*
X106852651Y-89036374D01*
X106855498Y-88856905D01*
X106857723Y-88636583D01*
X106859323Y-88375593D01*
X106860296Y-88074124D01*
X106860639Y-87732359D01*
X106860755Y-86206067D01*
X106708307Y-86206067D01*
X106555859Y-86206067D01*
X106282673Y-85867470D01*
X106009487Y-85528872D01*
X106435121Y-85523240D01*
X106860755Y-85517608D01*
X106861024Y-84731444D01*
X106861292Y-83945279D01*
X106952962Y-84218195D01*
G37*
%TD.AperFunction*%
%TA.AperFunction,EtchedComponent*%
G36*
X110875684Y-85508401D02*
G01*
X110901173Y-85546235D01*
X110945271Y-85612062D01*
X111005209Y-85701741D01*
X111078222Y-85811131D01*
X111161542Y-85936090D01*
X111252402Y-86072478D01*
X111628268Y-86636921D01*
X111578013Y-86701135D01*
X111533263Y-86747758D01*
X111443903Y-86815237D01*
X111334780Y-86877924D01*
X111218190Y-86928062D01*
X111111453Y-86965971D01*
X111111453Y-88107771D01*
X111111446Y-88275760D01*
X111111559Y-88507622D01*
X111112114Y-88703489D01*
X111113445Y-88866832D01*
X111115885Y-89001120D01*
X111119767Y-89109823D01*
X111125425Y-89196412D01*
X111133192Y-89264355D01*
X111143400Y-89317123D01*
X111156384Y-89358185D01*
X111172477Y-89391011D01*
X111192011Y-89419071D01*
X111215321Y-89445835D01*
X111242739Y-89474772D01*
X111256864Y-89488805D01*
X111322178Y-89541654D01*
X111387734Y-89580913D01*
X111466066Y-89616790D01*
X111381498Y-89654924D01*
X111375494Y-89657712D01*
X111281872Y-89720387D01*
X111198671Y-89808646D01*
X111140101Y-89907615D01*
X111138050Y-89913353D01*
X111132956Y-89936914D01*
X111128511Y-89974168D01*
X111124674Y-90027659D01*
X111121401Y-90099929D01*
X111118649Y-90193524D01*
X111116374Y-90310985D01*
X111114534Y-90454858D01*
X111113085Y-90627686D01*
X111111983Y-90832012D01*
X111111187Y-91070380D01*
X111110652Y-91345334D01*
X111110335Y-91659417D01*
X111109217Y-93342654D01*
X110688391Y-93742728D01*
X110674494Y-93755934D01*
X110565705Y-93858938D01*
X110467267Y-93951493D01*
X110383136Y-94029930D01*
X110317265Y-94090579D01*
X110273609Y-94129771D01*
X110256123Y-94143836D01*
X110253726Y-94142893D01*
X110237968Y-94118544D01*
X110218096Y-94071351D01*
X110201334Y-94030446D01*
X110153397Y-93941437D01*
X110083781Y-93838666D01*
X109990413Y-93719559D01*
X109871219Y-93581541D01*
X109724123Y-93422036D01*
X109547051Y-93238470D01*
X109543132Y-93234475D01*
X109396872Y-93084228D01*
X109277197Y-92958886D01*
X109184596Y-92859026D01*
X109119552Y-92785223D01*
X109082554Y-92738053D01*
X109074086Y-92718092D01*
X109094636Y-92725916D01*
X109144690Y-92762100D01*
X109161332Y-92775007D01*
X109222126Y-92820072D01*
X109267670Y-92847117D01*
X109311821Y-92863145D01*
X109368432Y-92875156D01*
X109424247Y-92880245D01*
X109532354Y-92868158D01*
X109635541Y-92832791D01*
X109716601Y-92778902D01*
X109777901Y-92720173D01*
X109777784Y-91364474D01*
X109777450Y-91061641D01*
X109776407Y-90777058D01*
X109774652Y-90533703D01*
X109772182Y-90331350D01*
X109768993Y-90169770D01*
X109765081Y-90048738D01*
X109760444Y-89968026D01*
X109755076Y-89927406D01*
X109729641Y-89873164D01*
X109684106Y-89807892D01*
X109627056Y-89741021D01*
X109567001Y-89681715D01*
X109512452Y-89639140D01*
X109471918Y-89622460D01*
X109461738Y-89621456D01*
X109460241Y-89611288D01*
X109496605Y-89588775D01*
X109590651Y-89524440D01*
X109677420Y-89436473D01*
X109738314Y-89341998D01*
X109739156Y-89340168D01*
X109746794Y-89321373D01*
X109753334Y-89298885D01*
X109758862Y-89269539D01*
X109763465Y-89230169D01*
X109767229Y-89177612D01*
X109770239Y-89108701D01*
X109772582Y-89020272D01*
X109774344Y-88909160D01*
X109775610Y-88772200D01*
X109776467Y-88606226D01*
X109777001Y-88408073D01*
X109777298Y-88174578D01*
X109777443Y-87902574D01*
X109777901Y-86546497D01*
X109723429Y-86517344D01*
X109717003Y-86513566D01*
X109670874Y-86477206D01*
X109611948Y-86421367D01*
X109551012Y-86357292D01*
X109498855Y-86296221D01*
X109466268Y-86249396D01*
X109462396Y-86239552D01*
X109467939Y-86227474D01*
X109494743Y-86220368D01*
X109549610Y-86216913D01*
X109639339Y-86215787D01*
X109644743Y-86215764D01*
X109745420Y-86213103D01*
X109821565Y-86204306D01*
X109889472Y-86186406D01*
X109965431Y-86156439D01*
X110083913Y-86098122D01*
X110261573Y-85989272D01*
X110451696Y-85850389D01*
X110649303Y-85684906D01*
X110675153Y-85662002D01*
X110750198Y-85596617D01*
X110811604Y-85544759D01*
X110853607Y-85511228D01*
X110870442Y-85500822D01*
X110875684Y-85508401D01*
G37*
%TD.AperFunction*%
%TA.AperFunction,EtchedComponent*%
G36*
X94321726Y-88203688D02*
G01*
X94327450Y-89345307D01*
X94390708Y-89447836D01*
X94449755Y-89524977D01*
X94562645Y-89615543D01*
X94671323Y-89680721D01*
X94606011Y-89707774D01*
X94543402Y-89739855D01*
X94442182Y-89826730D01*
X94366349Y-89945412D01*
X94317438Y-90050447D01*
X94317235Y-91492995D01*
X94317031Y-92935544D01*
X94374332Y-92949316D01*
X94504813Y-92999651D01*
X94623731Y-93085425D01*
X94720321Y-93199404D01*
X94789662Y-93335721D01*
X94826830Y-93488511D01*
X94839564Y-93592695D01*
X94798954Y-93519767D01*
X94767864Y-93468659D01*
X94696223Y-93385706D01*
X94612548Y-93336540D01*
X94509179Y-93315767D01*
X94396328Y-93317778D01*
X94279739Y-93339423D01*
X94277012Y-93340249D01*
X94230067Y-93356189D01*
X94151537Y-93384567D01*
X94045832Y-93423686D01*
X93917364Y-93471846D01*
X93770541Y-93527347D01*
X93609773Y-93588491D01*
X93439472Y-93653579D01*
X93264047Y-93720910D01*
X93087908Y-93788787D01*
X92915465Y-93855510D01*
X92751128Y-93919380D01*
X92599308Y-93978697D01*
X92464414Y-94031763D01*
X92350857Y-94076879D01*
X92263046Y-94112345D01*
X92205393Y-94136462D01*
X92182306Y-94147531D01*
X92156950Y-94162429D01*
X92123410Y-94161789D01*
X92108335Y-94137849D01*
X92107708Y-94130648D01*
X92092011Y-94080784D01*
X92058316Y-94005401D01*
X92010789Y-93911903D01*
X91953592Y-93807696D01*
X91890888Y-93700184D01*
X91826843Y-93596772D01*
X91765618Y-93504865D01*
X91711378Y-93431868D01*
X91633746Y-93341345D01*
X91428675Y-93144290D01*
X91199837Y-92976294D01*
X90952588Y-92840495D01*
X90692285Y-92740029D01*
X90424283Y-92678034D01*
X90264283Y-92653320D01*
X90251592Y-91883221D01*
X90250405Y-91812732D01*
X90246370Y-91603183D01*
X90241813Y-91429431D01*
X90236204Y-91286956D01*
X90229012Y-91171235D01*
X90219709Y-91077750D01*
X90207764Y-91001978D01*
X90192648Y-90939400D01*
X90173831Y-90885494D01*
X90150784Y-90835740D01*
X90122975Y-90785617D01*
X90120847Y-90782042D01*
X90055158Y-90699440D01*
X89968535Y-90624924D01*
X89878803Y-90573944D01*
X89873811Y-90570360D01*
X89893019Y-90568784D01*
X89941313Y-90573315D01*
X90042375Y-90597494D01*
X90160102Y-90644707D01*
X90275032Y-90706919D01*
X90371015Y-90776491D01*
X90398820Y-90803695D01*
X90454315Y-90864996D01*
X90523987Y-90947126D01*
X90601656Y-91042752D01*
X90681141Y-91144537D01*
X90734840Y-91213508D01*
X90818912Y-91317242D01*
X90899591Y-91412229D01*
X90969785Y-91490190D01*
X91022398Y-91542845D01*
X91062638Y-91577211D01*
X91215232Y-91682141D01*
X91381116Y-91762486D01*
X91549910Y-91813887D01*
X91711234Y-91831990D01*
X91805458Y-91831990D01*
X91727919Y-91884679D01*
X91726511Y-91885637D01*
X91680191Y-91919536D01*
X91644507Y-91954123D01*
X91617967Y-91995254D01*
X91599082Y-92048782D01*
X91586361Y-92120563D01*
X91578314Y-92216452D01*
X91573451Y-92342305D01*
X91570280Y-92503975D01*
X91570271Y-92504579D01*
X91568454Y-92654882D01*
X91568425Y-92767967D01*
X91570389Y-92848244D01*
X91574549Y-92900125D01*
X91581111Y-92928019D01*
X91590277Y-92936337D01*
X91591076Y-92936279D01*
X91620124Y-92927830D01*
X91682001Y-92906515D01*
X91771195Y-92874430D01*
X91882191Y-92833666D01*
X92009476Y-92786318D01*
X92147538Y-92734478D01*
X92290864Y-92680241D01*
X92433940Y-92625699D01*
X92571254Y-92572945D01*
X92697292Y-92524073D01*
X92806541Y-92481175D01*
X92893488Y-92446347D01*
X92952621Y-92421679D01*
X92978425Y-92409267D01*
X92980554Y-92406582D01*
X92985763Y-92388149D01*
X92990120Y-92351420D01*
X92993668Y-92293796D01*
X92996447Y-92212681D01*
X92998497Y-92105477D01*
X92999861Y-91969587D01*
X93000578Y-91802416D01*
X93000690Y-91601364D01*
X93000238Y-91363836D01*
X92999262Y-91087234D01*
X92993897Y-89785247D01*
X92845552Y-89747576D01*
X92795197Y-89733623D01*
X92584188Y-89650458D01*
X92373511Y-89528486D01*
X92166508Y-89369879D01*
X91966522Y-89176806D01*
X91954304Y-89163562D01*
X91894802Y-89097043D01*
X91816697Y-89007551D01*
X91726200Y-88902295D01*
X91629520Y-88788485D01*
X91532865Y-88673329D01*
X91411974Y-88529984D01*
X91249584Y-88344170D01*
X91104594Y-88187826D01*
X90973619Y-88057822D01*
X90853274Y-87951029D01*
X90740175Y-87864315D01*
X90630938Y-87794552D01*
X90522177Y-87738608D01*
X90514875Y-87735308D01*
X90404294Y-87692014D01*
X90286919Y-87656257D01*
X90177336Y-87631939D01*
X90090130Y-87622966D01*
X90018498Y-87622966D01*
X90056588Y-87597653D01*
X91567307Y-87597653D01*
X91567708Y-87650108D01*
X91576720Y-87862890D01*
X91599702Y-88047668D01*
X91639589Y-88214539D01*
X91699311Y-88373600D01*
X91781803Y-88534948D01*
X91889995Y-88708680D01*
X91917006Y-88748242D01*
X92050892Y-88921724D01*
X92203075Y-89088150D01*
X92366516Y-89241311D01*
X92534179Y-89374999D01*
X92699026Y-89483007D01*
X92854021Y-89559125D01*
X92900901Y-89576869D01*
X92955065Y-89595307D01*
X92984250Y-89602457D01*
X92987222Y-89592193D01*
X92991070Y-89543051D01*
X92994468Y-89454586D01*
X92997396Y-89328175D01*
X92999836Y-89165195D01*
X93001767Y-88967024D01*
X93003170Y-88735040D01*
X93004026Y-88470619D01*
X93004316Y-88175140D01*
X93004259Y-88026074D01*
X93003937Y-87793751D01*
X93003352Y-87576138D01*
X93002527Y-87376604D01*
X93001489Y-87198520D01*
X93000260Y-87045257D01*
X92998866Y-86920185D01*
X92997331Y-86826675D01*
X92995680Y-86768097D01*
X92993937Y-86747822D01*
X92991503Y-86748422D01*
X92959821Y-86759684D01*
X92896275Y-86783599D01*
X92806237Y-86818064D01*
X92695077Y-86860979D01*
X92568166Y-86910239D01*
X92430874Y-86963742D01*
X92288571Y-87019386D01*
X92146628Y-87075069D01*
X92010417Y-87128688D01*
X91885306Y-87178140D01*
X91776668Y-87221323D01*
X91689872Y-87256135D01*
X91630289Y-87280473D01*
X91603290Y-87292234D01*
X91594124Y-87298428D01*
X91582050Y-87315882D01*
X91574136Y-87347708D01*
X91569576Y-87400731D01*
X91567568Y-87481772D01*
X91567307Y-87597653D01*
X90056588Y-87597653D01*
X90089298Y-87575915D01*
X90109228Y-87560563D01*
X90163325Y-87502836D01*
X90206982Y-87436061D01*
X90217845Y-87413574D01*
X90233814Y-87371933D01*
X90244274Y-87324765D01*
X90250353Y-87263036D01*
X90253174Y-87177714D01*
X90253865Y-87059764D01*
X90253865Y-86776270D01*
X90143230Y-86741395D01*
X90058403Y-86706242D01*
X89939051Y-86622638D01*
X89843108Y-86510508D01*
X89775444Y-86376095D01*
X89740927Y-86225641D01*
X89729100Y-86112301D01*
X89775716Y-86202561D01*
X89838802Y-86289077D01*
X89932429Y-86361967D01*
X90039340Y-86403558D01*
X90070304Y-86406574D01*
X90146405Y-86401553D01*
X90233759Y-86384628D01*
X90243350Y-86381914D01*
X90296052Y-86364473D01*
X90379854Y-86334744D01*
X90490374Y-86294407D01*
X90623228Y-86245146D01*
X90774034Y-86188642D01*
X90938409Y-86126576D01*
X91111969Y-86060630D01*
X91290333Y-85992487D01*
X91469118Y-85923827D01*
X91643940Y-85856333D01*
X91810416Y-85791686D01*
X91964165Y-85731569D01*
X92100803Y-85677662D01*
X92215947Y-85631648D01*
X92305215Y-85595208D01*
X92364223Y-85570025D01*
X92388590Y-85557779D01*
X92414471Y-85541528D01*
X92448806Y-85549415D01*
X92472066Y-85595165D01*
X92475889Y-85607757D01*
X92497208Y-85662159D01*
X92530356Y-85736720D01*
X92569968Y-85819160D01*
X92595756Y-85869606D01*
X92758633Y-86140535D01*
X92945653Y-86377530D01*
X93156687Y-86580498D01*
X93391607Y-86749341D01*
X93650281Y-86883965D01*
X93932582Y-86984274D01*
X94238379Y-87050172D01*
X94316002Y-87062069D01*
X94321583Y-88175140D01*
X94321726Y-88203688D01*
G37*
%TD.AperFunction*%
%TA.AperFunction,EtchedComponent*%
G36*
X105245907Y-92057041D02*
G01*
X105245907Y-92917613D01*
X105370928Y-92967812D01*
X105430008Y-92995089D01*
X105554364Y-93083226D01*
X105649593Y-93200838D01*
X105714408Y-93346505D01*
X105734620Y-93417897D01*
X105750000Y-93484787D01*
X105755573Y-93527171D01*
X105753328Y-93550543D01*
X105743744Y-93547509D01*
X105721785Y-93509348D01*
X105693905Y-93462287D01*
X105611304Y-93368746D01*
X105512841Y-93310573D01*
X105402588Y-93290562D01*
X105354520Y-93295517D01*
X105280084Y-93309868D01*
X105198761Y-93330325D01*
X105196858Y-93330871D01*
X105147588Y-93346997D01*
X105066904Y-93375570D01*
X104959208Y-93414896D01*
X104828901Y-93463281D01*
X104680384Y-93519031D01*
X104518060Y-93580452D01*
X104346329Y-93645850D01*
X104169594Y-93713530D01*
X103992255Y-93781799D01*
X103818714Y-93848961D01*
X103653373Y-93913324D01*
X103500633Y-93973193D01*
X103364896Y-94026874D01*
X103250563Y-94072673D01*
X103162036Y-94108895D01*
X103103716Y-94133846D01*
X103080005Y-94145833D01*
X103066191Y-94157840D01*
X103049936Y-94160477D01*
X103033194Y-94141356D01*
X103011533Y-94094620D01*
X102980518Y-94014414D01*
X102957215Y-93956363D01*
X102865871Y-93771175D01*
X102749948Y-93583181D01*
X102617823Y-93406421D01*
X102498437Y-93261820D01*
X102054938Y-93718972D01*
X102010996Y-93764104D01*
X101902447Y-93874102D01*
X101806275Y-93969421D01*
X101725747Y-94046955D01*
X101664126Y-94103597D01*
X101624678Y-94136240D01*
X101610667Y-94141776D01*
X101610188Y-94135996D01*
X101594021Y-94084945D01*
X101558675Y-94011146D01*
X101509185Y-93923607D01*
X101450586Y-93831333D01*
X101387913Y-93743331D01*
X101356524Y-93704912D01*
X101294815Y-93634712D01*
X101213091Y-93545222D01*
X101116602Y-93442104D01*
X101010600Y-93331021D01*
X100900335Y-93217634D01*
X100861484Y-93178017D01*
X100728732Y-93041405D01*
X100625077Y-92932341D01*
X100549720Y-92849813D01*
X100501860Y-92792811D01*
X100480696Y-92760325D01*
X100485428Y-92751343D01*
X100515255Y-92764856D01*
X100569376Y-92799853D01*
X100621986Y-92833797D01*
X100684304Y-92868648D01*
X100728345Y-92887115D01*
X100754000Y-92891983D01*
X100854280Y-92890795D01*
X100963060Y-92865032D01*
X101063798Y-92818099D01*
X101161904Y-92757447D01*
X101167267Y-91417164D01*
X101167527Y-91347696D01*
X101168186Y-91059654D01*
X101168058Y-90802734D01*
X101167160Y-90578444D01*
X101165509Y-90388289D01*
X101163121Y-90233776D01*
X101160012Y-90116412D01*
X101156200Y-90037703D01*
X101151701Y-89999156D01*
X101146978Y-89983090D01*
X101093056Y-89872002D01*
X101011135Y-89775451D01*
X100912147Y-89706778D01*
X100814920Y-89659712D01*
X100895809Y-89623496D01*
X100952938Y-89589809D01*
X101035424Y-89515822D01*
X101065003Y-89477437D01*
X102485038Y-89477437D01*
X102485038Y-91206887D01*
X102485101Y-91363235D01*
X102485493Y-91620762D01*
X102486217Y-91864144D01*
X102487246Y-92090323D01*
X102488553Y-92296239D01*
X102490109Y-92478834D01*
X102491887Y-92635049D01*
X102493859Y-92761825D01*
X102495998Y-92856105D01*
X102498276Y-92914828D01*
X102500665Y-92934936D01*
X102519082Y-92928771D01*
X102572479Y-92909080D01*
X102656175Y-92877532D01*
X102765668Y-92835843D01*
X102896456Y-92785727D01*
X103044036Y-92728899D01*
X103203906Y-92667074D01*
X103891518Y-92400612D01*
X103896970Y-91570235D01*
X103898110Y-91398476D01*
X103899062Y-91211383D01*
X103898896Y-91057340D01*
X103897027Y-90931497D01*
X103892866Y-90829007D01*
X103885829Y-90745021D01*
X103875328Y-90674692D01*
X103860777Y-90613171D01*
X103841589Y-90555610D01*
X103817178Y-90497162D01*
X103786957Y-90432977D01*
X103750340Y-90358209D01*
X103710480Y-90281669D01*
X103588173Y-90089899D01*
X103445758Y-89917878D01*
X103287874Y-89769139D01*
X103119161Y-89647217D01*
X102944256Y-89555645D01*
X102767800Y-89497956D01*
X102594431Y-89477684D01*
X102485038Y-89477437D01*
X101065003Y-89477437D01*
X101104781Y-89425817D01*
X101148140Y-89334529D01*
X101150874Y-89322142D01*
X101156156Y-89274719D01*
X101160633Y-89197578D01*
X101164335Y-89089011D01*
X101167294Y-88947312D01*
X101169541Y-88770773D01*
X101171107Y-88557687D01*
X101172024Y-88306346D01*
X101172322Y-88015043D01*
X101172322Y-86776270D01*
X101061688Y-86741395D01*
X100976861Y-86706242D01*
X100857509Y-86622638D01*
X100761566Y-86510508D01*
X100693901Y-86376095D01*
X100659385Y-86225641D01*
X100647558Y-86112301D01*
X100694174Y-86202561D01*
X100757393Y-86289208D01*
X100850913Y-86361994D01*
X100957591Y-86403513D01*
X100983192Y-86406375D01*
X101061203Y-86401151D01*
X101155540Y-86381207D01*
X101170133Y-86376746D01*
X101228147Y-86356820D01*
X101318109Y-86324409D01*
X101435294Y-86281315D01*
X101574974Y-86229342D01*
X101732423Y-86170292D01*
X101902914Y-86105966D01*
X102081721Y-86038168D01*
X102264115Y-85968700D01*
X102445372Y-85899364D01*
X102620763Y-85831963D01*
X102785563Y-85768298D01*
X102935043Y-85710173D01*
X103064479Y-85659390D01*
X103169142Y-85617751D01*
X103244306Y-85587059D01*
X103285245Y-85569115D01*
X103316302Y-85554335D01*
X103356014Y-85542142D01*
X103376900Y-85554798D01*
X103390524Y-85595165D01*
X103408235Y-85646507D01*
X103445078Y-85729953D01*
X103494694Y-85830182D01*
X103551983Y-85937350D01*
X103611849Y-86041616D01*
X103669192Y-86133138D01*
X103677407Y-86145375D01*
X103819863Y-86327650D01*
X103991568Y-86501823D01*
X104182778Y-86659787D01*
X104383750Y-86793439D01*
X104584739Y-86894673D01*
X104686352Y-86932559D01*
X104838590Y-86979085D01*
X105001368Y-87019755D01*
X105157351Y-87049874D01*
X105235489Y-87062262D01*
X105235832Y-87212384D01*
X105238365Y-87275518D01*
X105263321Y-87400449D01*
X105316628Y-87498900D01*
X105400372Y-87575467D01*
X105470856Y-87622966D01*
X105389637Y-87623274D01*
X105342452Y-87626378D01*
X105260955Y-87637788D01*
X105176626Y-87654651D01*
X105168801Y-87656518D01*
X105045374Y-87693013D01*
X104931246Y-87742438D01*
X104821443Y-87808680D01*
X104710993Y-87895628D01*
X104594922Y-88007171D01*
X104468254Y-88147195D01*
X104326018Y-88319590D01*
X104282507Y-88373427D01*
X104152540Y-88524765D01*
X104035793Y-88643604D01*
X103927727Y-88733388D01*
X103823802Y-88797564D01*
X103719480Y-88839575D01*
X103610222Y-88862866D01*
X103516457Y-88875353D01*
X103578967Y-88840531D01*
X103614314Y-88819059D01*
X103722445Y-88727057D01*
X103801212Y-88615712D01*
X103817538Y-88582297D01*
X103839986Y-88527551D01*
X103858492Y-88466967D01*
X103873521Y-88396066D01*
X103885538Y-88310368D01*
X103895008Y-88205395D01*
X103902396Y-88076666D01*
X103908168Y-87919703D01*
X103912789Y-87730026D01*
X103916722Y-87503155D01*
X103918938Y-87331049D01*
X103920220Y-87172141D01*
X103920579Y-87031738D01*
X103920037Y-86914473D01*
X103918615Y-86824977D01*
X103916334Y-86767883D01*
X103913217Y-86747822D01*
X103911509Y-86748169D01*
X103881561Y-86758513D01*
X103819409Y-86781673D01*
X103730439Y-86815544D01*
X103620033Y-86858017D01*
X103493574Y-86906988D01*
X103356446Y-86960350D01*
X103214031Y-87015995D01*
X103071713Y-87071817D01*
X102934875Y-87125710D01*
X102808900Y-87175568D01*
X102699172Y-87219283D01*
X102611073Y-87254749D01*
X102549987Y-87279860D01*
X102521297Y-87292509D01*
X102520880Y-87292735D01*
X102512403Y-87299608D01*
X102505397Y-87312441D01*
X102499752Y-87334805D01*
X102495353Y-87370271D01*
X102492090Y-87422410D01*
X102489848Y-87494794D01*
X102488517Y-87590994D01*
X102487983Y-87714581D01*
X102488134Y-87869126D01*
X102488858Y-88058200D01*
X102490041Y-88285376D01*
X102495456Y-89258651D01*
X102682987Y-89271588D01*
X102787792Y-89282177D01*
X102905062Y-89304056D01*
X103019997Y-89338459D01*
X103137092Y-89387853D01*
X103260844Y-89454704D01*
X103395750Y-89541480D01*
X103546306Y-89650647D01*
X103717009Y-89784672D01*
X103912355Y-89946021D01*
X104063378Y-90070861D01*
X104258942Y-90224002D01*
X104436714Y-90350755D01*
X104602421Y-90453993D01*
X104761789Y-90536591D01*
X104920541Y-90601423D01*
X105084404Y-90651362D01*
X105259103Y-90689283D01*
X105450363Y-90718060D01*
X105550635Y-90730584D01*
X105464210Y-90824345D01*
X105416622Y-90883718D01*
X105359239Y-90970458D01*
X105311846Y-91057287D01*
X105245907Y-91196469D01*
X105245907Y-91211383D01*
X105245907Y-92057041D01*
G37*
%TD.AperFunction*%
%TA.AperFunction,EtchedComponent*%
G36*
X96706501Y-85545981D02*
G01*
X96733746Y-85582419D01*
X96779421Y-85646962D01*
X96840714Y-85735534D01*
X96914811Y-85844058D01*
X96998900Y-85968457D01*
X97090168Y-86104653D01*
X97097526Y-86115680D01*
X97199815Y-86269346D01*
X97281048Y-86392518D01*
X97343387Y-86488969D01*
X97388996Y-86562474D01*
X97420041Y-86616805D01*
X97438685Y-86655736D01*
X97447092Y-86683040D01*
X97447426Y-86702490D01*
X97441852Y-86717861D01*
X97403760Y-86765286D01*
X97336242Y-86823661D01*
X97250643Y-86883879D01*
X97157364Y-86938652D01*
X97066802Y-86980692D01*
X96942462Y-87028906D01*
X96942462Y-88190661D01*
X96942504Y-88337706D01*
X96942711Y-88545010D01*
X96943077Y-88736786D01*
X96943586Y-88909299D01*
X96944219Y-89058812D01*
X96944961Y-89181593D01*
X96945795Y-89273905D01*
X96946704Y-89332013D01*
X96947671Y-89352183D01*
X96947698Y-89352180D01*
X96968225Y-89344530D01*
X97023120Y-89323347D01*
X97108047Y-89290323D01*
X97218668Y-89247151D01*
X97350647Y-89195523D01*
X97499647Y-89137132D01*
X97661330Y-89073671D01*
X98369779Y-88795393D01*
X98362012Y-87708027D01*
X98354244Y-86620662D01*
X98177209Y-86443627D01*
X98175209Y-86441626D01*
X98107799Y-86372952D01*
X98053813Y-86315646D01*
X98018693Y-86275644D01*
X98007881Y-86258886D01*
X98016822Y-86257395D01*
X98057030Y-86260608D01*
X98116841Y-86270096D01*
X98188347Y-86277931D01*
X98338102Y-86265427D01*
X98503088Y-86218008D01*
X98680623Y-86136997D01*
X98868029Y-86023716D01*
X99062626Y-85879484D01*
X99261732Y-85705624D01*
X99334897Y-85639603D01*
X99396864Y-85588785D01*
X99441359Y-85558013D01*
X99462319Y-85551933D01*
X99463756Y-85553759D01*
X99483075Y-85581451D01*
X99521185Y-85637535D01*
X99574657Y-85716869D01*
X99640060Y-85814309D01*
X99713966Y-85924713D01*
X99792943Y-86042938D01*
X99873563Y-86163841D01*
X99952394Y-86282279D01*
X100026007Y-86393110D01*
X100090971Y-86491190D01*
X100143858Y-86571378D01*
X100181237Y-86628529D01*
X100199677Y-86657502D01*
X100202687Y-86677535D01*
X100181029Y-86721509D01*
X100132175Y-86775372D01*
X100062480Y-86833989D01*
X99978298Y-86892226D01*
X99885982Y-86944948D01*
X99791888Y-86987021D01*
X99692913Y-87024362D01*
X99692913Y-88177971D01*
X99692913Y-88202922D01*
X99692989Y-88447975D01*
X99693264Y-88654867D01*
X99693841Y-88826811D01*
X99694822Y-88967021D01*
X99696308Y-89078709D01*
X99698400Y-89165087D01*
X99701201Y-89229369D01*
X99704811Y-89274768D01*
X99709332Y-89304496D01*
X99714866Y-89321766D01*
X99721514Y-89329790D01*
X99729377Y-89331783D01*
X99758104Y-89335512D01*
X99830765Y-89361581D01*
X99912972Y-89406164D01*
X99991721Y-89461696D01*
X100054008Y-89520613D01*
X100062167Y-89530468D01*
X100125193Y-89629410D01*
X100172661Y-89744429D01*
X100175591Y-89753963D01*
X100202672Y-89850092D01*
X100213384Y-89908414D01*
X100207608Y-89929456D01*
X100185224Y-89913747D01*
X100146112Y-89861816D01*
X100099776Y-89801503D01*
X100017517Y-89730768D01*
X99923233Y-89694737D01*
X99811097Y-89691652D01*
X99675283Y-89719754D01*
X99658101Y-89724970D01*
X99592826Y-89746835D01*
X99504354Y-89778285D01*
X99399613Y-89816671D01*
X99285531Y-89859345D01*
X99169038Y-89903657D01*
X99057061Y-89946958D01*
X98956530Y-89986601D01*
X98874373Y-90019936D01*
X98817519Y-90044314D01*
X98792896Y-90057087D01*
X98794223Y-90064982D01*
X98820552Y-90093977D01*
X98871986Y-90138478D01*
X98942306Y-90193903D01*
X99025294Y-90255672D01*
X99114729Y-90319201D01*
X99204392Y-90379909D01*
X99288064Y-90433214D01*
X99359525Y-90474534D01*
X99365144Y-90477509D01*
X99462868Y-90523448D01*
X99569044Y-90565033D01*
X99661658Y-90593591D01*
X99666067Y-90594667D01*
X99741312Y-90613106D01*
X99801360Y-90627954D01*
X99833561Y-90636083D01*
X99836707Y-90639436D01*
X99841704Y-90658717D01*
X99845973Y-90697180D01*
X99849559Y-90757325D01*
X99852512Y-90841650D01*
X99854880Y-90952654D01*
X99856709Y-91092836D01*
X99858049Y-91264694D01*
X99858946Y-91470729D01*
X99859450Y-91713438D01*
X99859607Y-91995320D01*
X99859607Y-93347654D01*
X99427244Y-93755422D01*
X99404238Y-93777116D01*
X99294849Y-93880180D01*
X99196559Y-93972643D01*
X99113209Y-94050904D01*
X99048639Y-94111360D01*
X99006690Y-94150408D01*
X98991200Y-94164448D01*
X98983944Y-94152795D01*
X98963748Y-94112367D01*
X98935831Y-94052805D01*
X98927664Y-94035265D01*
X98883562Y-93950046D01*
X98830779Y-93864455D01*
X98765619Y-93773887D01*
X98684386Y-93673735D01*
X98583382Y-93559395D01*
X98458911Y-93426260D01*
X98307276Y-93269726D01*
X98305399Y-93267810D01*
X98157582Y-93115980D01*
X98038670Y-92991444D01*
X97947409Y-92892768D01*
X97882544Y-92818517D01*
X97842823Y-92767257D01*
X97826990Y-92737553D01*
X97833794Y-92727970D01*
X97857596Y-92740102D01*
X97892514Y-92772586D01*
X97916248Y-92795183D01*
X97994394Y-92844432D01*
X98087213Y-92880163D01*
X98175683Y-92894206D01*
X98247284Y-92888511D01*
X98343301Y-92858010D01*
X98447917Y-92796900D01*
X98526055Y-92743139D01*
X98526055Y-91452690D01*
X98526019Y-91221891D01*
X98525836Y-90991437D01*
X98525421Y-90797043D01*
X98524687Y-90635699D01*
X98523549Y-90504396D01*
X98521921Y-90400123D01*
X98519717Y-90319872D01*
X98516852Y-90260631D01*
X98513238Y-90219392D01*
X98508791Y-90193146D01*
X98503425Y-90178881D01*
X98497053Y-90173589D01*
X98489591Y-90174259D01*
X98471920Y-90180672D01*
X98417968Y-90200893D01*
X98333520Y-90232837D01*
X98223354Y-90274688D01*
X98092251Y-90324627D01*
X97944990Y-90380840D01*
X97786350Y-90441511D01*
X97119574Y-90696744D01*
X97109156Y-92030574D01*
X97098737Y-93364404D01*
X96673016Y-93762351D01*
X96247294Y-94160299D01*
X96170263Y-94006964D01*
X96142674Y-93954637D01*
X96093816Y-93872976D01*
X96034864Y-93787659D01*
X95962404Y-93694573D01*
X95873024Y-93589607D01*
X95763314Y-93468650D01*
X95629859Y-93327592D01*
X95469249Y-93162319D01*
X95374914Y-93065374D01*
X95281923Y-92968131D01*
X95202872Y-92883678D01*
X95141624Y-92816203D01*
X95102043Y-92769895D01*
X95087991Y-92748941D01*
X95090868Y-92744264D01*
X95115019Y-92752041D01*
X95155710Y-92781367D01*
X95165367Y-92789255D01*
X95229267Y-92833723D01*
X95290480Y-92866566D01*
X95316736Y-92876166D01*
X95430229Y-92892950D01*
X95549155Y-92878166D01*
X95660118Y-92834757D01*
X95749721Y-92765667D01*
X95796766Y-92714519D01*
X95791394Y-91446728D01*
X95786022Y-90178937D01*
X95692257Y-90148066D01*
X95630330Y-90124001D01*
X95501543Y-90046464D01*
X95397330Y-89943431D01*
X95323210Y-89821157D01*
X95284699Y-89685901D01*
X95281411Y-89662346D01*
X95271258Y-89596642D01*
X95262743Y-89550365D01*
X95263870Y-89541935D01*
X95278975Y-89560050D01*
X95305553Y-89605670D01*
X95324570Y-89638094D01*
X95370170Y-89701605D01*
X95413066Y-89746248D01*
X95430694Y-89758928D01*
X95514043Y-89799520D01*
X95605620Y-89821644D01*
X95686267Y-89820117D01*
X95709181Y-89813143D01*
X95766534Y-89793254D01*
X95849794Y-89763222D01*
X95952460Y-89725498D01*
X96068028Y-89682535D01*
X96189997Y-89636783D01*
X96311864Y-89590693D01*
X96427125Y-89546717D01*
X96529280Y-89507305D01*
X96611824Y-89474909D01*
X96668255Y-89451981D01*
X96692072Y-89440971D01*
X96687231Y-89429777D01*
X96658014Y-89398671D01*
X96610349Y-89356238D01*
X96489318Y-89256395D01*
X96336170Y-89135564D01*
X96203754Y-89039220D01*
X96087095Y-88964239D01*
X95981218Y-88907500D01*
X95881149Y-88865880D01*
X95781913Y-88836256D01*
X95636105Y-88800461D01*
X95624307Y-87697840D01*
X95621954Y-87482338D01*
X95619482Y-87273333D01*
X95617086Y-87099696D01*
X95614616Y-86958072D01*
X95611923Y-86845104D01*
X95608856Y-86757438D01*
X95605267Y-86691718D01*
X95601005Y-86644589D01*
X95595922Y-86612695D01*
X95589867Y-86592680D01*
X95582692Y-86581189D01*
X95574245Y-86574866D01*
X95550190Y-86558265D01*
X95498780Y-86513511D01*
X95437647Y-86453974D01*
X95376874Y-86389999D01*
X95326543Y-86331933D01*
X95296738Y-86290123D01*
X95284758Y-86266055D01*
X95286841Y-86251655D01*
X95320616Y-86260230D01*
X95353148Y-86266914D01*
X95419803Y-86272800D01*
X95496967Y-86274010D01*
X95607121Y-86261676D01*
X95768216Y-86214805D01*
X95941656Y-86135294D01*
X96123220Y-86025472D01*
X96308692Y-85887663D01*
X96493853Y-85724195D01*
X96505163Y-85713404D01*
X96577511Y-85645392D01*
X96638159Y-85590075D01*
X96681035Y-85552894D01*
X96700072Y-85539291D01*
X96706501Y-85545981D01*
G37*
%TD.AperFunction*%
%TA.AperFunction,EtchedComponent*%
G36*
X117551978Y-84631446D02*
G01*
X117408593Y-84753929D01*
X117357351Y-84798345D01*
X117250367Y-84892961D01*
X117152838Y-84981656D01*
X117070371Y-85059203D01*
X117008573Y-85120373D01*
X116973054Y-85159940D01*
X116961784Y-85174683D01*
X116941173Y-85201915D01*
X116923062Y-85228277D01*
X116907287Y-85256429D01*
X116893689Y-85289028D01*
X116882106Y-85328734D01*
X116872377Y-85378206D01*
X116864340Y-85440103D01*
X116857834Y-85517083D01*
X116852698Y-85611806D01*
X116848770Y-85726931D01*
X116845889Y-85865117D01*
X116843894Y-86029022D01*
X116842623Y-86221306D01*
X116841916Y-86444627D01*
X116841610Y-86701645D01*
X116841545Y-86995019D01*
X116841559Y-87327407D01*
X116841619Y-87555697D01*
X116841952Y-87873173D01*
X116842603Y-88152341D01*
X116843599Y-88395236D01*
X116844965Y-88603897D01*
X116846729Y-88780360D01*
X116848918Y-88926663D01*
X116851559Y-89044842D01*
X116854677Y-89136935D01*
X116858300Y-89204980D01*
X116862455Y-89251012D01*
X116867168Y-89277070D01*
X116878577Y-89308226D01*
X116935759Y-89402897D01*
X117019252Y-89492370D01*
X117118220Y-89566337D01*
X117221830Y-89614491D01*
X117276108Y-89632921D01*
X117323429Y-89652795D01*
X117341641Y-89665981D01*
X117325794Y-89678653D01*
X117280349Y-89700535D01*
X117215681Y-89726148D01*
X117101531Y-89779032D01*
X116983060Y-89869944D01*
X116897633Y-89985964D01*
X116893671Y-89993444D01*
X116883481Y-90014628D01*
X116875060Y-90038148D01*
X116868209Y-90067938D01*
X116862729Y-90107931D01*
X116858418Y-90162062D01*
X116855079Y-90234262D01*
X116852511Y-90328468D01*
X116850515Y-90448611D01*
X116848994Y-90589040D01*
X116848890Y-90598626D01*
X116847437Y-90782446D01*
X116845957Y-91004006D01*
X116839937Y-91936728D01*
X116950141Y-91926665D01*
X117072216Y-91915969D01*
X117188994Y-91907519D01*
X117286335Y-91903508D01*
X117376162Y-91903737D01*
X117470400Y-91908007D01*
X117580972Y-91916118D01*
X117886215Y-91956593D01*
X118179448Y-92030141D01*
X118445953Y-92135300D01*
X118685313Y-92271739D01*
X118897113Y-92439128D01*
X119080939Y-92637137D01*
X119236373Y-92865434D01*
X119363001Y-93123689D01*
X119460407Y-93411572D01*
X119479871Y-93486304D01*
X119495620Y-93559932D01*
X119506130Y-93633392D01*
X119512487Y-93717140D01*
X119515776Y-93821636D01*
X119517084Y-93957338D01*
X119517347Y-94044669D01*
X119516676Y-94151474D01*
X119513804Y-94231084D01*
X119507717Y-94292299D01*
X119497406Y-94343924D01*
X119481858Y-94394760D01*
X119460062Y-94453611D01*
X119458056Y-94458814D01*
X119352858Y-94684259D01*
X119223392Y-94882650D01*
X119072458Y-95050860D01*
X118902851Y-95185758D01*
X118717371Y-95284216D01*
X118674960Y-95301063D01*
X118605462Y-95324716D01*
X118569462Y-95330995D01*
X118568476Y-95320967D01*
X118604019Y-95295695D01*
X118677603Y-95256245D01*
X118824002Y-95166551D01*
X118973098Y-95038521D01*
X119101549Y-94888943D01*
X119199002Y-94728298D01*
X119267605Y-94567329D01*
X119314489Y-94406662D01*
X119340790Y-94235974D01*
X119349703Y-94040685D01*
X119349743Y-94030300D01*
X119339393Y-93825340D01*
X119305883Y-93649759D01*
X119246700Y-93496975D01*
X119159327Y-93360409D01*
X119041250Y-93233477D01*
X119023281Y-93217159D01*
X118875488Y-93105835D01*
X118713447Y-93024332D01*
X118532150Y-92971121D01*
X118326592Y-92944673D01*
X118091765Y-92943460D01*
X118068218Y-92944554D01*
X117887016Y-92958833D01*
X117716957Y-92984480D01*
X117548962Y-93023967D01*
X117373953Y-93079772D01*
X117182852Y-93154369D01*
X116966580Y-93250233D01*
X116915321Y-93273712D01*
X116816728Y-93318283D01*
X116689159Y-93375511D01*
X116537890Y-93443046D01*
X116368196Y-93518537D01*
X116185351Y-93599636D01*
X115994633Y-93683993D01*
X115801314Y-93769257D01*
X115715367Y-93807098D01*
X115519969Y-93892974D01*
X115358064Y-93963733D01*
X115226339Y-94020646D01*
X115121482Y-94064987D01*
X115040177Y-94098029D01*
X114979112Y-94121043D01*
X114934973Y-94135304D01*
X114904446Y-94142082D01*
X114884218Y-94142652D01*
X114870975Y-94138285D01*
X114861403Y-94130255D01*
X114857136Y-94125659D01*
X114824653Y-94090072D01*
X114772177Y-94032128D01*
X114705973Y-93958756D01*
X114632308Y-93876886D01*
X114619370Y-93862541D01*
X114403144Y-93637346D01*
X114177034Y-93427318D01*
X113945951Y-93236060D01*
X113714805Y-93067176D01*
X113488508Y-92924267D01*
X113271972Y-92810938D01*
X113070107Y-92730792D01*
X112994020Y-92709415D01*
X112892415Y-92686191D01*
X112785939Y-92665823D01*
X112689578Y-92651157D01*
X112618317Y-92645036D01*
X112615148Y-92632226D01*
X112631373Y-92594018D01*
X112664519Y-92539357D01*
X112693873Y-92492129D01*
X112732736Y-92417950D01*
X112756759Y-92357035D01*
X112761033Y-92321246D01*
X112764958Y-92244264D01*
X112768400Y-92127437D01*
X112771349Y-91971690D01*
X112773792Y-91777948D01*
X112775718Y-91547136D01*
X112777115Y-91280180D01*
X112777972Y-90978004D01*
X112778277Y-90641533D01*
X112778371Y-89317528D01*
X114091108Y-89317528D01*
X114091108Y-91137351D01*
X114091124Y-91268340D01*
X114091324Y-91581884D01*
X114091779Y-91856758D01*
X114092519Y-92095135D01*
X114093575Y-92299186D01*
X114094980Y-92471082D01*
X114096762Y-92612993D01*
X114098955Y-92727092D01*
X114101589Y-92815549D01*
X114104694Y-92880536D01*
X114108303Y-92924224D01*
X114112446Y-92948784D01*
X114117154Y-92956388D01*
X114136965Y-92950668D01*
X114191269Y-92931808D01*
X114274070Y-92901812D01*
X114379852Y-92862775D01*
X114503093Y-92816792D01*
X114638277Y-92765959D01*
X114779885Y-92712370D01*
X114922397Y-92658122D01*
X115060296Y-92605309D01*
X115188063Y-92556027D01*
X115300178Y-92512371D01*
X115391125Y-92476437D01*
X115455383Y-92450319D01*
X115487435Y-92436114D01*
X115494519Y-92431631D01*
X115500849Y-92424433D01*
X115506348Y-92411990D01*
X115511076Y-92391701D01*
X115515090Y-92360964D01*
X115518450Y-92317175D01*
X115521212Y-92257733D01*
X115523436Y-92180037D01*
X115525180Y-92081483D01*
X115526502Y-91959471D01*
X115527461Y-91811397D01*
X115528114Y-91634660D01*
X115528521Y-91426658D01*
X115528739Y-91184789D01*
X115528828Y-90906450D01*
X115528844Y-90589040D01*
X115528840Y-90460198D01*
X115528776Y-90158027D01*
X115528595Y-89893991D01*
X115528244Y-89665545D01*
X115527672Y-89470144D01*
X115526826Y-89305242D01*
X115525657Y-89168294D01*
X115524111Y-89056756D01*
X115522138Y-88968081D01*
X115519685Y-88899726D01*
X115516701Y-88849144D01*
X115513134Y-88813791D01*
X115508933Y-88791121D01*
X115504046Y-88778589D01*
X115498421Y-88773650D01*
X115492007Y-88773760D01*
X115470968Y-88781043D01*
X115414240Y-88802215D01*
X115327417Y-88835290D01*
X115215197Y-88878461D01*
X115082278Y-88929919D01*
X114933359Y-88987855D01*
X114773139Y-89050461D01*
X114091108Y-89317528D01*
X112778371Y-89317528D01*
X112778393Y-89003086D01*
X112643473Y-88915183D01*
X112527772Y-88831449D01*
X112404602Y-88711659D01*
X112317738Y-88580371D01*
X112264153Y-88432683D01*
X112240816Y-88263696D01*
X112239716Y-88240355D01*
X112238183Y-88150258D01*
X112243184Y-88098152D01*
X112254925Y-88081374D01*
X112269582Y-88091671D01*
X112278654Y-88128257D01*
X112290888Y-88185580D01*
X112328977Y-88260788D01*
X112383353Y-88331148D01*
X112444186Y-88381612D01*
X112486931Y-88403560D01*
X112533134Y-88418511D01*
X112585147Y-88424138D01*
X112647631Y-88419476D01*
X112725247Y-88403554D01*
X112822656Y-88375404D01*
X112944519Y-88334058D01*
X113095497Y-88278548D01*
X113280252Y-88207905D01*
X113303820Y-88198788D01*
X113444874Y-88143878D01*
X113572402Y-88093658D01*
X113681326Y-88050170D01*
X113766567Y-88015458D01*
X113823047Y-87991562D01*
X113845688Y-87980525D01*
X113844242Y-87977111D01*
X113817290Y-87954885D01*
X113760567Y-87915053D01*
X113678252Y-87860362D01*
X113574525Y-87793561D01*
X113453568Y-87717399D01*
X113319560Y-87634624D01*
X112778393Y-87303381D01*
X112778393Y-87233852D01*
X114094728Y-87233852D01*
X114095256Y-87409474D01*
X114096355Y-87553321D01*
X114098061Y-87667880D01*
X114100411Y-87755637D01*
X114103444Y-87819078D01*
X114107196Y-87860688D01*
X114111705Y-87882955D01*
X114117007Y-87888363D01*
X114262233Y-87832146D01*
X114386130Y-87782699D01*
X114481383Y-87742340D01*
X114553484Y-87708481D01*
X114607922Y-87678530D01*
X114650188Y-87649896D01*
X114685770Y-87619991D01*
X114772779Y-87539788D01*
X114872189Y-87701188D01*
X114916197Y-87770400D01*
X115021938Y-87924834D01*
X115140367Y-88085443D01*
X115260738Y-88237900D01*
X115372304Y-88367880D01*
X115392519Y-88389821D01*
X115446260Y-88445129D01*
X115487900Y-88483651D01*
X115509756Y-88498109D01*
X115511868Y-88488801D01*
X115514834Y-88441409D01*
X115517569Y-88355667D01*
X115520054Y-88233562D01*
X115522271Y-88077083D01*
X115524199Y-87888216D01*
X115525820Y-87668949D01*
X115527114Y-87421270D01*
X115528062Y-87147165D01*
X115528645Y-86848624D01*
X115528844Y-86527632D01*
X115528844Y-84557155D01*
X115484563Y-84571210D01*
X115465311Y-84578039D01*
X115409382Y-84598753D01*
X115323073Y-84631132D01*
X115211229Y-84673347D01*
X115078690Y-84723570D01*
X114930301Y-84779972D01*
X114770904Y-84840723D01*
X114101527Y-85096181D01*
X114096170Y-86497298D01*
X114095233Y-86777342D01*
X114094733Y-87023970D01*
X114094728Y-87233852D01*
X112778393Y-87233852D01*
X112778393Y-86051385D01*
X112778393Y-84799388D01*
X112575235Y-84702943D01*
X112534971Y-84683348D01*
X112333589Y-84568325D01*
X112165903Y-84441727D01*
X112033497Y-84305436D01*
X111937957Y-84161337D01*
X111880865Y-84011311D01*
X111863807Y-83857244D01*
X111866039Y-83757748D01*
X111885274Y-83843290D01*
X111912186Y-83913965D01*
X111970707Y-84003415D01*
X112046917Y-84083886D01*
X112129483Y-84141535D01*
X112162363Y-84156770D01*
X112296824Y-84198360D01*
X112450116Y-84219893D01*
X112607273Y-84218945D01*
X112618600Y-84217883D01*
X112659234Y-84212254D01*
X112706208Y-84202533D01*
X112763128Y-84187481D01*
X112833598Y-84165860D01*
X112921224Y-84136431D01*
X113029611Y-84097956D01*
X113162365Y-84049195D01*
X113323090Y-83988912D01*
X113515392Y-83915866D01*
X113742876Y-83828820D01*
X113787007Y-83811888D01*
X113977978Y-83738480D01*
X114157028Y-83669439D01*
X114320299Y-83606268D01*
X114463933Y-83550467D01*
X114584071Y-83503538D01*
X114676857Y-83466984D01*
X114738431Y-83442305D01*
X114764937Y-83431003D01*
X114781695Y-83420441D01*
X114828931Y-83384605D01*
X114882887Y-83338551D01*
X114962529Y-83266599D01*
X114988091Y-83345480D01*
X115021363Y-83432013D01*
X115078387Y-83552397D01*
X115147859Y-83679540D01*
X115222538Y-83799422D01*
X115222784Y-83799788D01*
X115261756Y-83851812D01*
X115318549Y-83920112D01*
X115387535Y-83998707D01*
X115463084Y-84081617D01*
X115539568Y-84162863D01*
X115611358Y-84236464D01*
X115672826Y-84296439D01*
X115718342Y-84336810D01*
X115742277Y-84351596D01*
X115749996Y-84346973D01*
X115784807Y-84318442D01*
X115843198Y-84267222D01*
X115921015Y-84197196D01*
X116014105Y-84112249D01*
X116118312Y-84016262D01*
X116229484Y-83913121D01*
X116343465Y-83806707D01*
X116456103Y-83700905D01*
X116563241Y-83599597D01*
X116660727Y-83506668D01*
X116744406Y-83426000D01*
X116810124Y-83361477D01*
X116853727Y-83316982D01*
X116871060Y-83296398D01*
X116877313Y-83284520D01*
X116900186Y-83268085D01*
X116917181Y-83277171D01*
X116962723Y-83308058D01*
X117030607Y-83356899D01*
X117115160Y-83419603D01*
X117210714Y-83492080D01*
X117503641Y-83724937D01*
X117823871Y-84000189D01*
X118123327Y-84280259D01*
X118399804Y-84562525D01*
X118651096Y-84844368D01*
X118874998Y-85123167D01*
X119069304Y-85396302D01*
X119231808Y-85661151D01*
X119360305Y-85915096D01*
X119452589Y-86155515D01*
X119465998Y-86199403D01*
X119508569Y-86360083D01*
X119541800Y-86519815D01*
X119563356Y-86666138D01*
X119570900Y-86786588D01*
X119570535Y-86807598D01*
X119560238Y-86925507D01*
X119538121Y-87057196D01*
X119507334Y-87188802D01*
X119471026Y-87306466D01*
X119432349Y-87396324D01*
X119378625Y-87484073D01*
X119253776Y-87632008D01*
X119105723Y-87748677D01*
X118939196Y-87831999D01*
X118758925Y-87879893D01*
X118569639Y-87890277D01*
X118376068Y-87861072D01*
X118230183Y-87813654D01*
X118061294Y-87734545D01*
X117905553Y-87636336D01*
X117772466Y-87525151D01*
X117671541Y-87407115D01*
X117664517Y-87395947D01*
X117666383Y-87389774D01*
X117692609Y-87411296D01*
X117740430Y-87458453D01*
X117887268Y-87591817D01*
X118063551Y-87708259D01*
X118251886Y-87787365D01*
X118456518Y-87831347D01*
X118468758Y-87832826D01*
X118659030Y-87836881D01*
X118839370Y-87806261D01*
X119004713Y-87743455D01*
X119149994Y-87650957D01*
X119270148Y-87531257D01*
X119360110Y-87386846D01*
X119383617Y-87334660D01*
X119428818Y-87212465D01*
X119457419Y-87089823D01*
X119472006Y-86953309D01*
X119475165Y-86789496D01*
X119475032Y-86776292D01*
X119472403Y-86669770D01*
X119465586Y-86583831D01*
X119452152Y-86503506D01*
X119429671Y-86413828D01*
X119395717Y-86299832D01*
X119350948Y-86167154D01*
X119255893Y-85940595D01*
X119136407Y-85714759D01*
X118989922Y-85485773D01*
X118813871Y-85249761D01*
X118605686Y-85002851D01*
X118362800Y-84741167D01*
X118252875Y-84628358D01*
X118155394Y-84534493D01*
X118072142Y-84467404D01*
X117997416Y-84427167D01*
X117925509Y-84413860D01*
X117850717Y-84427558D01*
X117767335Y-84468337D01*
X117669657Y-84536275D01*
X117643839Y-84557155D01*
X117551978Y-84631446D01*
G37*
%TD.AperFunction*%
%TD*%
D11*
%TO.P,H1,1,1*%
%TO.N,GND*%
X127985010Y-51120990D03*
X128644020Y-49530000D03*
X128644020Y-52711980D03*
X130235010Y-48870990D03*
D12*
X130235010Y-51120990D03*
D11*
X130235010Y-53370990D03*
X131826000Y-49530000D03*
X131826000Y-52711980D03*
X132485010Y-51120990D03*
%TD*%
%TO.P,H3,1,1*%
%TO.N,GND*%
X128052000Y-143728000D03*
X128711010Y-142137010D03*
X128711010Y-145318990D03*
X130302000Y-141478000D03*
D12*
X130302000Y-143728000D03*
D11*
X130302000Y-145978000D03*
X131892990Y-142137010D03*
X131892990Y-145318990D03*
X132552000Y-143728000D03*
%TD*%
D13*
%TO.P,J4,1,Pin_1*%
%TO.N,/5V*%
X99171505Y-51054000D03*
D14*
%TO.P,J4,2,Pin_2*%
%TO.N,GND*%
X101711505Y-51054000D03*
%TO.P,J4,3,Pin_3*%
%TO.N,Net-(J4-Pin_3)*%
X104251505Y-51054000D03*
%TO.P,J4,4,Pin_4*%
%TO.N,Net-(J4-Pin_4)*%
X106791505Y-51054000D03*
%TO.P,J4,5,Pin_5*%
%TO.N,Net-(J4-Pin_5)*%
X109331505Y-51054000D03*
%TO.P,J4,6,Pin_6*%
%TO.N,Net-(J4-Pin_6)*%
X111871505Y-51054000D03*
%TD*%
D11*
%TO.P,H4,1,1*%
%TO.N,GND*%
X78455010Y-143830990D03*
X79114020Y-142240000D03*
X79114020Y-145421980D03*
X80705010Y-141580990D03*
D12*
X80705010Y-143830990D03*
D11*
X80705010Y-146080990D03*
X82296000Y-142240000D03*
X82296000Y-145421980D03*
X82955010Y-143830990D03*
%TD*%
%TO.P,H2,1,1*%
%TO.N,GND*%
X78558000Y-51054000D03*
X79217010Y-49463010D03*
X79217010Y-52644990D03*
X80808000Y-48804000D03*
D12*
X80808000Y-51054000D03*
D11*
X80808000Y-53304000D03*
X82398990Y-49463010D03*
X82398990Y-52644990D03*
X83058000Y-51054000D03*
%TD*%
D15*
%TO.P,U2,41,PAD*%
%TO.N,GND*%
X92180000Y-78870000D03*
X93580000Y-78870000D03*
X94980000Y-78870000D03*
X91180000Y-77590000D03*
X92180000Y-77590000D03*
X93580000Y-77590000D03*
X94980000Y-77590000D03*
X95980000Y-77590000D03*
X92180000Y-76310000D03*
X93580000Y-76310000D03*
X94980000Y-76310000D03*
%TD*%
D16*
%TO.P,F1,1*%
%TO.N,Net-(F1-Pad1)*%
X97462500Y-69000000D03*
%TO.P,F1,2*%
%TO.N,/5V*%
X94537500Y-69000000D03*
%TD*%
D17*
%TO.P,J6,1,Pin_1*%
%TO.N,GND*%
X89621000Y-143622000D03*
%TO.P,J6,2,Pin_2*%
%TO.N,/5V*%
X92161000Y-143622000D03*
%TO.P,J6,3,Pin_3*%
%TO.N,/Fan/FAN_TACH*%
X94701000Y-143622000D03*
%TO.P,J6,4,Pin_4*%
%TO.N,/Fan/FAN_PWM*%
X97241000Y-143622000D03*
%TD*%
D18*
%TO.P,J3,1,Pin_1*%
%TO.N,GND*%
X87005000Y-50292000D03*
D14*
%TO.P,J3,2,Pin_2*%
%TO.N,/3V3*%
X87405000Y-52832000D03*
%TO.P,J3,3,Pin_3*%
%TO.N,/SCL*%
X87005000Y-55372000D03*
%TO.P,J3,4,Pin_4*%
%TO.N,/SDA*%
X87405000Y-57912000D03*
%TD*%
D19*
%TO.P,C62,1*%
%TO.N,/5V*%
X98810000Y-73000000D03*
%TO.P,C62,2*%
%TO.N,GND*%
X97790000Y-73000000D03*
%TD*%
D20*
%TO.P,D2,1*%
%TO.N,/ESP32/USB_D+*%
X102250000Y-79500000D03*
%TO.P,D2,2*%
%TO.N,GND*%
X100350000Y-79500000D03*
%TD*%
D21*
%TO.P,FID7,*%
%TO.N,*%
X132260000Y-139060000D03*
%TD*%
D19*
%TO.P,R32,1*%
%TO.N,/Power/PMB_ALRT*%
X106010000Y-77600000D03*
%TO.P,R32,2*%
%TO.N,/3V3*%
X104990000Y-77600000D03*
%TD*%
D22*
%TO.P,D1,1*%
%TO.N,/5V*%
X94000000Y-71900000D03*
%TO.P,D1,2*%
%TO.N,GND*%
X94000000Y-76500000D03*
%TD*%
D23*
%TO.P,J5,A1,GND*%
%TO.N,GND*%
X84545000Y-86460000D03*
%TO.P,J5,A4,VBUS*%
%TO.N,unconnected-(J5-VBUS-PadA4)*%
X84545000Y-85660000D03*
D24*
%TO.P,J5,A5,CC1*%
%TO.N,unconnected-(J5-CC1-PadA5)*%
X84545000Y-84510000D03*
%TO.P,J5,A6,D+*%
%TO.N,/ESP32/USB_D+*%
X84545000Y-83510000D03*
%TO.P,J5,A7,D-*%
%TO.N,/ESP32/USB_D-*%
X84545000Y-83010000D03*
%TO.P,J5,A8,SBU1*%
%TO.N,unconnected-(J5-SBU1-PadA8)*%
X84545000Y-82010000D03*
D23*
%TO.P,J5,B1,GND*%
%TO.N,GND*%
X84545000Y-80060000D03*
%TO.P,J5,B4,VBUS*%
%TO.N,unconnected-(J5-VBUS-PadB4)*%
X84545000Y-80860000D03*
D24*
%TO.P,J5,B5,CC2*%
%TO.N,unconnected-(J5-CC2-PadB5)*%
X84545000Y-81510000D03*
%TO.P,J5,B6,D+*%
%TO.N,/ESP32/USB_D+*%
X84545000Y-82510000D03*
%TO.P,J5,B7,D-*%
%TO.N,/ESP32/USB_D-*%
X84545000Y-84010000D03*
%TO.P,J5,B8,SBU2*%
%TO.N,unconnected-(J5-SBU2-PadB8)*%
X84545000Y-85010000D03*
D25*
%TO.P,J5,S1,SHIELD*%
%TO.N,GND*%
X79790000Y-87580000D03*
D26*
X83970000Y-87580000D03*
D25*
X79790000Y-78940000D03*
D26*
X83970000Y-78940000D03*
%TD*%
D27*
%TO.P,U4,1,GND*%
%TO.N,GND*%
X125690000Y-81360000D03*
%TO.P,U4,2,3V3*%
%TO.N,/3V3*%
X124420000Y-81360000D03*
%TO.P,U4,3,EN*%
%TO.N,/ESP32/EN*%
X123150000Y-81360000D03*
%TO.P,U4,4,GPIO4/TOUCH4/ADC1_CH3*%
%TO.N,unconnected-(U4-GPIO4{slash}TOUCH4{slash}ADC1_CH3-Pad4)*%
X121880000Y-81360000D03*
%TO.P,U4,5,GPIO5/TOUCH5/ADC1_CH4*%
%TO.N,unconnected-(U4-GPIO5{slash}TOUCH5{slash}ADC1_CH4-Pad5)*%
X120610000Y-81360000D03*
%TO.P,U4,6,GPIO6/TOUCH6/ADC1_CH5*%
%TO.N,unconnected-(U4-GPIO6{slash}TOUCH6{slash}ADC1_CH5-Pad6)*%
X119340000Y-81360000D03*
%TO.P,U4,7,GPIO7/TOUCH7/ADC1_CH6*%
%TO.N,unconnected-(U4-GPIO7{slash}TOUCH7{slash}ADC1_CH6-Pad7)*%
X118070000Y-81360000D03*
%TO.P,U4,8,GPIO15/U0RTS/ADC2_CH4/XTAL_32K_P*%
%TO.N,unconnected-(U4-GPIO15{slash}U0RTS{slash}ADC2_CH4{slash}XTAL_32K_P-Pad8)*%
X116800000Y-81360000D03*
%TO.P,U4,9,GPIO16/U0CTS/ADC2_CH5/XTAL_32K_NH5*%
%TO.N,unconnected-(U4-GPIO16{slash}U0CTS{slash}ADC2_CH5{slash}XTAL_32K_NH5-Pad9)*%
X115530000Y-81360000D03*
%TO.P,U4,10,GPIO17/U1TXD/ADC2_CH6*%
%TO.N,/TX*%
X114260000Y-81360000D03*
%TO.P,U4,11,GPIO18/U1RXD/ADC2_CH7/CLK_OUT3*%
%TO.N,/RX*%
X112990000Y-81360000D03*
%TO.P,U4,12,GPIO8/TOUCH8/ADC1_CH7/SUBSPICS1*%
%TO.N,unconnected-(U4-GPIO8{slash}TOUCH8{slash}ADC1_CH7{slash}SUBSPICS1-Pad12)*%
X111720000Y-81360000D03*
%TO.P,U4,13,GPIO19/U1RTS/ADC2_CH8/CLK_OUT2/USB_D-*%
%TO.N,/ESP32/USB_D-*%
X110450000Y-81360000D03*
%TO.P,U4,14,GPIO20/U1CTS/ADC2_CH9/CLK_OUT1/USB_D+*%
%TO.N,/ESP32/USB_D+*%
X109180000Y-81360000D03*
D28*
%TO.P,U4,15,GPIO3/TOUCH3/ADC1_CH2\u002A*%
%TO.N,/3V3*%
X107930000Y-79595000D03*
%TO.P,U4,16,\u002AGPIO46*%
%TO.N,unconnected-(U4-\u002AGPIO46-Pad16)*%
X107930000Y-78325000D03*
%TO.P,U4,17,GPIO9/TOUCH9/ADC1_CH8/FSPIHD/SUBSPIHD*%
%TO.N,unconnected-(U4-GPIO9{slash}TOUCH9{slash}ADC1_CH8{slash}FSPIHD{slash}SUBSPIHD-Pad17)*%
X107930000Y-77055000D03*
%TO.P,U4,18,GPIO10/TOUCH10/ADC1_CH9/FSPICS0/FSPIIO4/SUBSPICS0*%
%TO.N,unconnected-(U4-GPIO10{slash}TOUCH10{slash}ADC1_CH9{slash}FSPICS0{slash}FSPIIO4{slash}SUBSPICS0-Pad18)*%
X107930000Y-75785000D03*
%TO.P,U4,19,GPIO11/TOUCH11/ADC2_CH0/FSPID/FSPIIO5/SUBSPID*%
%TO.N,/Power/PGOOD*%
X107930000Y-74515000D03*
%TO.P,U4,20,GPIO12/TOUCH12/ADC2_CH1/FSPICLK/FSPIIO6/SUBSPICLK*%
%TO.N,unconnected-(U4-GPIO12{slash}TOUCH12{slash}ADC2_CH1{slash}FSPICLK{slash}FSPIIO6{slash}SUBSPICLK-Pad20)*%
X107930000Y-73245000D03*
%TO.P,U4,21,GPIO13/TOUCH13/ADC2_CH2/FSPIQ/FSPIIO7/SUBSPIQ*%
%TO.N,/Power/PMB_ALRT*%
X107930000Y-71975000D03*
%TO.P,U4,22,GPIO14/TOUCH14/ADC2_CH3/FSPIWP/FSPIDQS/SUBSPIWP*%
%TO.N,unconnected-(U4-GPIO14{slash}TOUCH14{slash}ADC2_CH3{slash}FSPIWP{slash}FSPIDQS{slash}SUBSPIWP-Pad22)*%
X107930000Y-70705000D03*
%TO.P,U4,23,GPIO21*%
%TO.N,unconnected-(U4-GPIO21-Pad23)*%
X107930000Y-69435000D03*
%TO.P,U4,24,GPIO47/SPICLK_P/SUBSPICLK_P_DIFF*%
%TO.N,/SDA*%
X107930000Y-68165000D03*
%TO.P,U4,25,GPIO48/SPICLK_N/SUBSPICLK_N_DIFF*%
%TO.N,/SCL*%
X107930000Y-66895000D03*
%TO.P,U4,26,\u002AGPIO45*%
%TO.N,unconnected-(U4-\u002AGPIO45-Pad26)*%
X107930000Y-65625000D03*
D27*
%TO.P,U4,27,GPIO0/BOOT\u002A*%
%TO.N,/ESP32/IO0*%
X109180000Y-63860000D03*
%TO.P,U4,28,SPIIO6/GPIO35/FSPID/SUBSPID*%
%TO.N,unconnected-(U4-SPIIO6{slash}GPIO35{slash}FSPID{slash}SUBSPID-Pad28)*%
X110450000Y-63860000D03*
%TO.P,U4,29,SPIIO7/GPIO36/FSPICLK/SUBSPICLK*%
%TO.N,unconnected-(U4-SPIIO7{slash}GPIO36{slash}FSPICLK{slash}SUBSPICLK-Pad29)*%
X111720000Y-63860000D03*
%TO.P,U4,30,SPIDQS/GPIO37/FSPIQ/SUBSPIQ*%
%TO.N,unconnected-(U4-SPIDQS{slash}GPIO37{slash}FSPIQ{slash}SUBSPIQ-Pad30)*%
X112990000Y-63860000D03*
%TO.P,U4,31,GPIO38/FSPIWP/SUBSPIWP*%
%TO.N,unconnected-(U4-GPIO38{slash}FSPIWP{slash}SUBSPIWP-Pad31)*%
X114260000Y-63860000D03*
%TO.P,U4,32,MTCK/GPIO39/CLK_OUT3/SUBSPICS1*%
%TO.N,Net-(J4-Pin_3)*%
X115530000Y-63860000D03*
%TO.P,U4,33,MTDO/GPIO40/CLK_OUT2*%
%TO.N,Net-(J4-Pin_4)*%
X116800000Y-63860000D03*
%TO.P,U4,34,MTDI/GPIO41/CLK_OUT1*%
%TO.N,Net-(J4-Pin_5)*%
X118070000Y-63860000D03*
%TO.P,U4,35,MTMS/GPIO42*%
%TO.N,Net-(J4-Pin_6)*%
X119340000Y-63860000D03*
%TO.P,U4,36,U0RXD/GPIO44/CLK_OUT2*%
%TO.N,/ESP32/P_RX*%
X120610000Y-63860000D03*
%TO.P,U4,37,U0TXD/GPIO43/CLK_OUT1*%
%TO.N,/ESP32/P_TX*%
X121880000Y-63860000D03*
%TO.P,U4,38,GPIO2/TOUCH2/ADC1_CH1*%
%TO.N,/VDD*%
X123150000Y-63860000D03*
%TO.P,U4,39,GPIO1/TOUCH1/ADC1_CH0*%
%TO.N,/RST*%
X124420000Y-63860000D03*
%TO.P,U4,40,GND*%
%TO.N,GND*%
X125690000Y-63860000D03*
D29*
%TO.P,U4,41,GND*%
X116570000Y-75510000D03*
X117970000Y-75510000D03*
X119370000Y-75510000D03*
X116570000Y-74110000D03*
X117970000Y-74110000D03*
X119370000Y-74110000D03*
X116570000Y-72710000D03*
X117970000Y-72710000D03*
X119370000Y-72710000D03*
%TD*%
D19*
%TO.P,R31,1*%
%TO.N,/SCL*%
X103490000Y-74490000D03*
%TO.P,R31,2*%
%TO.N,/3V3*%
X104510000Y-74490000D03*
%TD*%
D30*
%TO.P,J2,1,Pin_1*%
%TO.N,/ESP32/EN*%
X129400000Y-58365000D03*
%TO.P,J2,2,Pin_2*%
%TO.N,/3V3*%
X129400000Y-57095000D03*
%TO.P,J2,3,Pin_3*%
%TO.N,/ESP32/P_TX*%
X128130000Y-58365000D03*
%TO.P,J2,4,Pin_4*%
%TO.N,GND*%
X128130000Y-57095000D03*
%TO.P,J2,5,Pin_5*%
%TO.N,/ESP32/P_RX*%
X126860000Y-58365000D03*
%TO.P,J2,6,Pin_6*%
%TO.N,/ESP32/IO0*%
X126860000Y-57095000D03*
%TD*%
D31*
%TO.P,U8,1,VDD3_0*%
%TO.N,/BM1370/VDD1_0*%
X109526562Y-113032000D03*
%TO.P,U8,2,VDD2_0*%
%TO.N,/BM1370/VDD2_0*%
X109526562Y-113534000D03*
%TO.P,U8,3,VDD1_0*%
%TO.N,/BM1370/VDD3_0*%
X109526562Y-114036000D03*
%TO.P,U8,4,VSS*%
%TO.N,GND*%
X109526562Y-114538000D03*
%TO.P,U8,5,NRSTI*%
%TO.N,/BM1370/RST_N*%
X109526562Y-115040000D03*
%TO.P,U8,6,CI*%
%TO.N,/BM1370/CI*%
X109526562Y-115542000D03*
%TO.P,U8,7,RO*%
%TO.N,/BM1370/RO*%
X109526562Y-116044000D03*
%TO.P,U8,8,CLKI*%
%TO.N,/BM1370/CLKI*%
X109526562Y-116546000D03*
%TO.P,U8,9,BI*%
%TO.N,/BM1370/BI*%
X109526562Y-117048000D03*
%TO.P,U8,10,ROSC_SEL*%
%TO.N,Net-(U8-ROSC_SEL)*%
X109526562Y-117550000D03*
%TO.P,U8,11,LITE_PAD*%
%TO.N,Net-(U8-LITE_PAD)*%
X109526562Y-118052000D03*
%TO.P,U8,12,INV_CLKO*%
%TO.N,Net-(U8-INV_CLKO)*%
X109526562Y-118554000D03*
%TO.P,U8,13,PLL_VSS*%
%TO.N,GND*%
X109526562Y-119056000D03*
%TO.P,U8,14,VDDIO_08_0*%
%TO.N,/BM1370/0V8*%
X109526562Y-119558000D03*
%TO.P,U8,15,VDDIO_12_0*%
%TO.N,/BM1370/1V2*%
X109526562Y-120060000D03*
%TO.P,U8,16,VDDIO_12_1*%
%TO.N,Net-(U8-VDDIO_12_1)*%
X101694562Y-120060000D03*
%TO.P,U8,17,VDDIO_08_1*%
%TO.N,Net-(U8-VDDIO_08_1)*%
X101694562Y-119558000D03*
%TO.P,U8,18,VSS*%
%TO.N,GND*%
X101694562Y-119056000D03*
%TO.P,U8,19,PIN_MODE*%
%TO.N,/BM1370/PIN_MODE*%
X101694562Y-118554000D03*
%TO.P,U8,20,TEMP_P*%
%TO.N,/Fan/TEMP_P*%
X101694562Y-118052000D03*
%TO.P,U8,21,TEMP_N*%
%TO.N,/Fan/TEMP_N*%
X101694562Y-117550000D03*
%TO.P,U8,22,BO*%
%TO.N,/BM1370/BO*%
X101694562Y-117048000D03*
%TO.P,U8,23,CLKO*%
%TO.N,/BM1370/CLKO*%
X101694562Y-116546000D03*
%TO.P,U8,24,RI*%
%TO.N,/BM1370/RI*%
X101694562Y-116044000D03*
%TO.P,U8,25,CO*%
%TO.N,/BM1370/CO*%
X101694562Y-115542000D03*
%TO.P,U8,26,NRSTO*%
%TO.N,/BM1370/NRSTO*%
X101694562Y-115040000D03*
%TO.P,U8,27,VSS*%
%TO.N,GND*%
X101694562Y-114538000D03*
%TO.P,U8,28,VDD1_1*%
%TO.N,/BM1370/VDD3_1*%
X101694562Y-114036000D03*
%TO.P,U8,29,VDD2_1*%
%TO.N,/BM1370/VDD2_1*%
X101694562Y-113534000D03*
%TO.P,U8,30,VDD3_1*%
%TO.N,/BM1370/VDD1_1*%
X101694562Y-113032000D03*
D32*
%TO.P,U8,31,VDD*%
%TO.N,/VDD*%
X105610562Y-113676000D03*
D33*
%TO.P,U8,32,VSS*%
%TO.N,GND*%
X105610562Y-117786000D03*
%TD*%
D20*
%TO.P,D5,1*%
%TO.N,/ESP32/USB_D-*%
X105450000Y-79300000D03*
%TO.P,D5,2*%
%TO.N,GND*%
X103550000Y-79300000D03*
%TD*%
D19*
%TO.P,R30,1*%
%TO.N,/SDA*%
X96490000Y-80300000D03*
%TO.P,R30,2*%
%TO.N,/3V3*%
X97510000Y-80300000D03*
%TD*%
D21*
%TO.P,FID8,*%
%TO.N,*%
X78850000Y-139070000D03*
%TD*%
D20*
%TO.P,D4,1*%
%TO.N,/SCL*%
X101550000Y-77000000D03*
%TO.P,D4,2*%
%TO.N,GND*%
X103450000Y-77000000D03*
%TD*%
D19*
%TO.P,R33,1*%
%TO.N,unconnected-(J5-CC1-PadA5)*%
X86990000Y-84510000D03*
%TO.P,R33,2*%
%TO.N,GND*%
X88010000Y-84510000D03*
%TD*%
D34*
%TO.P,J1,1*%
%TO.N,Net-(F1-Pad1)*%
X82330000Y-72120000D03*
X88530000Y-72120000D03*
%TO.P,J1,2*%
%TO.N,GND*%
X82330000Y-61120000D03*
%TO.P,J1,3*%
X88530000Y-61120000D03*
%TD*%
D35*
%TO.P,SW1,1*%
%TO.N,GND*%
X132246000Y-104448000D03*
%TO.P,SW1,2*%
%TO.N,/ESP32/EN*%
X128136000Y-104448000D03*
%TD*%
D20*
%TO.P,D3,1*%
%TO.N,/SDA*%
X95850000Y-79000000D03*
%TO.P,D3,2*%
%TO.N,GND*%
X97750000Y-79000000D03*
%TD*%
D19*
%TO.P,R34,1*%
%TO.N,unconnected-(J5-CC2-PadB5)*%
X86600000Y-81510000D03*
%TO.P,R34,2*%
%TO.N,GND*%
X86600000Y-80490000D03*
%TD*%
D21*
%TO.P,FID5,*%
%TO.N,*%
X125270000Y-50310000D03*
%TD*%
D35*
%TO.P,SW2,1*%
%TO.N,GND*%
X132142000Y-113155000D03*
%TO.P,SW2,2*%
%TO.N,/ESP32/IO0*%
X128032000Y-113155000D03*
%TD*%
D21*
%TO.P,FID6,*%
%TO.N,*%
X78750000Y-55900000D03*
%TD*%
D36*
%TO.P,J7,1,Pin_1*%
%TO.N,GND*%
X102000000Y-141675000D03*
%TO.P,J7,2,Pin_2*%
%TO.N,/5V*%
X103000000Y-141675000D03*
%TO.P,J7,3,Pin_3*%
%TO.N,/Fan/FAN_TACH*%
X104000000Y-141675000D03*
%TO.P,J7,4,Pin_4*%
%TO.N,/Fan/FAN_PWM*%
X105000000Y-141675000D03*
D37*
%TO.P,J7,MP,MountPin*%
%TO.N,unconnected-(J7-MountPin-PadMP)*%
X100700000Y-144200000D03*
X106300000Y-144200000D03*
%TD*%
D38*
%TO.N,GND*%
X105610000Y-116830000D03*
X112180000Y-119260000D03*
X113580000Y-132650000D03*
X98050000Y-114260000D03*
X104490000Y-118700000D03*
X100050000Y-61700000D03*
X112180000Y-120800000D03*
X101350000Y-62800000D03*
X106740000Y-119930000D03*
X97450000Y-60200000D03*
X111900000Y-87400000D03*
X106740000Y-118720000D03*
X104640000Y-130470000D03*
D39*
X103900000Y-78650000D03*
D38*
X105540000Y-132550000D03*
X100050000Y-65750000D03*
D40*
X116540000Y-70920000D03*
D38*
X125600000Y-65940000D03*
X116770000Y-124080000D03*
X106740000Y-117780000D03*
D41*
X95080000Y-91220000D03*
D38*
X104490000Y-117760000D03*
D41*
X98300000Y-72200000D03*
D38*
X105630000Y-118700000D03*
X115260000Y-109040000D03*
X123750000Y-117530000D03*
X111900000Y-89050000D03*
X101400000Y-60700000D03*
X100050000Y-63800000D03*
X100100000Y-60700000D03*
X106740000Y-116860000D03*
X98450000Y-78230000D03*
X96070000Y-137650000D03*
X116050000Y-128010000D03*
X104490000Y-119910000D03*
X119270000Y-54220000D03*
X128130000Y-56090000D03*
X112980000Y-114270000D03*
D40*
X80680000Y-61050000D03*
X104600000Y-143100000D03*
D38*
X99550000Y-67970000D03*
X101350000Y-63800000D03*
X91790000Y-89910000D03*
X112000000Y-86150000D03*
X117090000Y-100360000D03*
X121580000Y-112400000D03*
X101350000Y-61700000D03*
X111860000Y-83000000D03*
X111850000Y-85100000D03*
X98750000Y-61100000D03*
X122640000Y-102460000D03*
X96070000Y-141200000D03*
X113180000Y-130220000D03*
D40*
X117910000Y-70950000D03*
D38*
X119280000Y-102930000D03*
X99370000Y-119240000D03*
X111900000Y-90200000D03*
X97450000Y-61100000D03*
X123710000Y-120230000D03*
X111900000Y-91400000D03*
X100050000Y-64750000D03*
X96600000Y-108920000D03*
X104490000Y-115746000D03*
X100490000Y-76620000D03*
X100050000Y-62800000D03*
X98460000Y-76630000D03*
X99490000Y-70390000D03*
X98440000Y-121490000D03*
X92680000Y-133370000D03*
D41*
X102950000Y-76000000D03*
D38*
X128690000Y-107620000D03*
X112512000Y-61250000D03*
X104490000Y-116840000D03*
X104560000Y-76600000D03*
D41*
X94200000Y-61300000D03*
D40*
X119454234Y-70914234D03*
X128020000Y-84450000D03*
D38*
X101350000Y-64750000D03*
D41*
X95800000Y-76500000D03*
D38*
X106740000Y-115766000D03*
X116990000Y-98200000D03*
X98750000Y-60200000D03*
X102570000Y-76600000D03*
X101350000Y-65750000D03*
X132297000Y-108743000D03*
X117550000Y-103000000D03*
X98460000Y-74920000D03*
%TO.N,/VDD*%
X102500000Y-101300000D03*
X103750000Y-100100000D03*
D41*
X120850000Y-69510000D03*
D38*
X105000000Y-99000000D03*
X106250000Y-99000000D03*
X102500000Y-97900000D03*
X107500000Y-101300000D03*
X84500000Y-76160000D03*
X107500000Y-97900000D03*
X108750000Y-97880000D03*
X102500000Y-99000000D03*
X106250000Y-100100000D03*
X103750000Y-99000000D03*
X108750000Y-101280000D03*
X107500000Y-99000000D03*
X108750000Y-102380000D03*
X103750000Y-101300000D03*
X103750000Y-97900000D03*
X102500000Y-100100000D03*
X106250000Y-97900000D03*
D41*
X99780000Y-81020000D03*
D38*
X107500000Y-100100000D03*
X106250000Y-101300000D03*
X108750000Y-98980000D03*
X105000000Y-97900000D03*
X105000000Y-101300000D03*
X108750000Y-100080000D03*
X102500000Y-102400000D03*
X107500000Y-102400000D03*
X103750000Y-102400000D03*
X105000000Y-100100000D03*
D41*
%TO.N,/ESP32/EN*%
X122101300Y-70905000D03*
X127228000Y-104448000D03*
D38*
%TO.N,/5V*%
X93620000Y-68280000D03*
X92350000Y-66250000D03*
X93600000Y-69250000D03*
D41*
X92900000Y-61300000D03*
D38*
X93600000Y-71200000D03*
X92350000Y-68300000D03*
D42*
X109280000Y-61185155D03*
D38*
X108290000Y-131179000D03*
X93600000Y-67250000D03*
X92350000Y-70250000D03*
X99710000Y-131420000D03*
D41*
X97300000Y-75090000D03*
D38*
X93620000Y-70230000D03*
X92330000Y-71220000D03*
X92330000Y-69270000D03*
X98770000Y-138720000D03*
X93620000Y-66230000D03*
D41*
X82390000Y-70700000D03*
D38*
X92330000Y-67270000D03*
D41*
X104700000Y-139400000D03*
D38*
%TO.N,/3V3*%
X129830000Y-56090000D03*
D40*
X126000000Y-84500000D03*
D38*
X123394000Y-86260000D03*
X112160000Y-74520000D03*
X95550000Y-135970000D03*
D42*
X111440000Y-55180000D03*
D41*
X108500000Y-79595000D03*
D38*
X122930000Y-99700000D03*
X118711400Y-59800000D03*
X127250000Y-107630000D03*
D39*
X105500000Y-75000000D03*
D40*
X115370000Y-61560000D03*
D38*
X95560000Y-126330000D03*
D41*
%TO.N,/TX*%
X116380000Y-79250000D03*
%TO.N,/RX*%
X115580000Y-78420000D03*
%TO.N,/RST*%
X121476817Y-70170000D03*
%TO.N,/SCL*%
X94317599Y-134229617D03*
X88970000Y-81220000D03*
D39*
X91750000Y-80980000D03*
D41*
%TO.N,/Fan/FAN_PWM*%
X90900000Y-132800000D03*
D39*
%TO.N,/ESP32/USB_D+*%
X103430000Y-83400000D03*
X102700000Y-79050000D03*
%TO.N,/ESP32/USB_D-*%
X105650000Y-79800000D03*
X105650000Y-83450000D03*
D41*
%TO.N,Net-(U2-BP1V5)*%
X91690000Y-82980000D03*
X83660000Y-76570000D03*
%TO.N,/ESP32/P_TX*%
X123105000Y-61285000D03*
%TO.N,/ESP32/P_RX*%
X123040000Y-59730000D03*
%TO.N,/ESP32/IO0*%
X121244400Y-66945600D03*
X124830000Y-55100000D03*
X126520000Y-102640000D03*
%TO.N,Net-(U2-VDD5)*%
X92570000Y-74110000D03*
X102820000Y-73740000D03*
%TO.N,/Power/PGOOD*%
X89020000Y-82280000D03*
X109410000Y-74490000D03*
%TO.N,/SDA*%
X82130000Y-73910000D03*
D39*
X91270000Y-80450000D03*
D41*
X94340000Y-133580000D03*
X88990000Y-80510000D03*
X82390000Y-75900000D03*
D38*
%TO.N,Net-(U8-VDDIO_12_1)*%
X100770000Y-123700000D03*
%TO.N,Net-(U8-VDDIO_08_1)*%
X99180000Y-123710000D03*
D41*
%TO.N,Net-(U8-ROSC_SEL)*%
X119430000Y-116250000D03*
%TO.N,Net-(U8-LITE_PAD)*%
X119420000Y-118020000D03*
%TO.N,Net-(U8-INV_CLKO)*%
X124540000Y-121820000D03*
%TO.N,/Fan/TEMP_N*%
X92180000Y-119960000D03*
%TO.N,/Fan/TEMP_P*%
X92940000Y-119930000D03*
%TO.N,/Power/AGND*%
X89340000Y-73770000D03*
X89170000Y-77830000D03*
X90680000Y-72940000D03*
X89340000Y-74960000D03*
%TO.N,/Power/PMB_ALRT*%
X93330000Y-81550000D03*
D38*
%TO.N,/BM1370/VDD3_0*%
X113470000Y-111290000D03*
%TO.N,/BM1370/1V2*%
X110950000Y-124990000D03*
X124600000Y-101830000D03*
X117120000Y-101750000D03*
%TO.N,/BM1370/0V8*%
X110970000Y-123700000D03*
%TO.N,/BM1370/VDD2_0*%
X112390000Y-109350000D03*
%TO.N,/BM1370/VDD1_0*%
X111030000Y-107870000D03*
%TO.N,/BM1370/VDD1_1*%
X100553800Y-107457400D03*
%TO.N,/BM1370/VDD2_1*%
X99360000Y-109210000D03*
%TO.N,/BM1370/VDD3_1*%
X98140000Y-111060000D03*
D41*
%TO.N,/BM1370/BI*%
X119420000Y-114790000D03*
%TO.N,/BM1370/RST_N*%
X113800000Y-98950000D03*
%TO.N,/BM1370/CI*%
X113770000Y-99770000D03*
%TO.N,/BM1370/RO*%
X113830000Y-100500000D03*
X118320000Y-108370000D03*
%TO.N,/BM1370/CLKI*%
X118740000Y-113660000D03*
%TO.N,/BM1370/NRSTO*%
X92480000Y-112210000D03*
%TO.N,/BM1370/CO*%
X92480000Y-113611428D03*
%TO.N,/BM1370/RI*%
X92480000Y-115012856D03*
%TO.N,/BM1370/CLKO*%
X92480000Y-116414284D03*
%TO.N,/BM1370/BO*%
X92480000Y-117815712D03*
%TO.N,/BM1370/PIN_MODE*%
X91400000Y-120430000D03*
%TO.N,/Fan/FAN_TACH*%
X93570000Y-136700000D03*
%TD*%
%TO.N,GND*%
D43*
X102930816Y-143100000D02*
X102000000Y-142169184D01*
D44*
X112712000Y-114538000D02*
X109526562Y-114538000D01*
X132345000Y-104448000D02*
X132345000Y-108695000D01*
D45*
X84545000Y-80300000D02*
X84545000Y-80060000D01*
D44*
X100051000Y-114541000D02*
X100054000Y-114538000D01*
D43*
X125690000Y-82480000D02*
X125690000Y-81360000D01*
D45*
X88010000Y-86460000D02*
X84545000Y-86460000D01*
D44*
X132241000Y-108799000D02*
X132297000Y-108743000D01*
X125600000Y-65940000D02*
X125600000Y-63950000D01*
D46*
X80680000Y-61050000D02*
X80750000Y-61120000D01*
D44*
X112980000Y-114270000D02*
X112712000Y-114538000D01*
X117910000Y-70950000D02*
X117970000Y-71010000D01*
D45*
X88010000Y-84510000D02*
X88010000Y-86460000D01*
D44*
X132345000Y-108695000D02*
X132297000Y-108743000D01*
D47*
X94000000Y-76500000D02*
X95800000Y-76500000D01*
D43*
X104600000Y-143100000D02*
X102930816Y-143100000D01*
D44*
X99370000Y-119240000D02*
X99554000Y-119056000D01*
D43*
X128020000Y-84450000D02*
X127660000Y-84450000D01*
X128130000Y-56090000D02*
X128130000Y-57095000D01*
D44*
X100054000Y-114538000D02*
X101694562Y-114538000D01*
D43*
X127660000Y-84450000D02*
X125690000Y-82480000D01*
D45*
X97790000Y-73000000D02*
X98300000Y-73000000D01*
D44*
X112180000Y-119260000D02*
X111976000Y-119056000D01*
D46*
X80750000Y-61120000D02*
X82330000Y-61120000D01*
D45*
X100350000Y-78600000D02*
X103900000Y-78600000D01*
X103550000Y-79300000D02*
X103550000Y-78600000D01*
D43*
X84545000Y-79515000D02*
X83970000Y-78940000D01*
D45*
X97750000Y-78230000D02*
X98450000Y-78230000D01*
D43*
X84545000Y-80060000D02*
X84545000Y-79515000D01*
D45*
X98300000Y-73000000D02*
X98300000Y-72200000D01*
D44*
X98331000Y-114541000D02*
X100051000Y-114541000D01*
D45*
X102950000Y-77000000D02*
X102950000Y-76000000D01*
D44*
X125600000Y-63950000D02*
X125690000Y-63860000D01*
X132241000Y-113155000D02*
X132241000Y-108799000D01*
D45*
X86600000Y-80300000D02*
X84545000Y-80300000D01*
D44*
X111976000Y-119056000D02*
X108526562Y-119056000D01*
D45*
X100350000Y-79500000D02*
X100350000Y-78600000D01*
D43*
X84545000Y-86460000D02*
X84545000Y-87005000D01*
D45*
X97750000Y-79000000D02*
X97750000Y-78230000D01*
X86600000Y-80490000D02*
X86600000Y-80300000D01*
D44*
X98050000Y-114260000D02*
X98331000Y-114541000D01*
D43*
X102000000Y-142169184D02*
X102000000Y-141675000D01*
D44*
X119454234Y-70914234D02*
X119370000Y-70998468D01*
X99554000Y-119056000D02*
X102683562Y-119056000D01*
D43*
X84545000Y-87005000D02*
X83970000Y-87580000D01*
%TO.N,/VDD*%
D45*
X92270000Y-81770000D02*
X93040000Y-81000000D01*
D44*
X120870000Y-69510000D02*
X123150000Y-67230000D01*
X102690562Y-114040000D02*
X102694562Y-114036000D01*
D45*
X99760000Y-81000000D02*
X99780000Y-81020000D01*
X87900000Y-80960000D02*
X88710000Y-81770000D01*
D44*
X123150000Y-67230000D02*
X123150000Y-63860000D01*
D45*
X84750000Y-76160000D02*
X87900000Y-79310000D01*
D44*
X120850000Y-69510000D02*
X120870000Y-69510000D01*
D45*
X84500000Y-76160000D02*
X84750000Y-76160000D01*
X87900000Y-79310000D02*
X87900000Y-80960000D01*
X88710000Y-81770000D02*
X92270000Y-81770000D01*
X93040000Y-81000000D02*
X99760000Y-81000000D01*
%TO.N,/ESP32/EN*%
D44*
X127675000Y-61485000D02*
X129400000Y-59760000D01*
X122101300Y-70898700D02*
X126540000Y-66460000D01*
X123160000Y-71963700D02*
X122101300Y-70905000D01*
X127228000Y-104448000D02*
X128027000Y-104448000D01*
X126540000Y-66460000D02*
X126540000Y-62620000D01*
X129400000Y-59760000D02*
X129400000Y-58365000D01*
X126540000Y-62620000D02*
X127675000Y-61485000D01*
X122101300Y-70905000D02*
X122101300Y-70898700D01*
X123160000Y-81133600D02*
X123160000Y-71963700D01*
%TO.N,/5V*%
D45*
X97300000Y-74600000D02*
X97300000Y-75090000D01*
D43*
X103000000Y-141675000D02*
X103000000Y-141100000D01*
D45*
X98810000Y-73000000D02*
X98810000Y-73600000D01*
D43*
X103000000Y-141100000D02*
X104700000Y-139400000D01*
D47*
X94537500Y-69000000D02*
X94537500Y-70600000D01*
X94537500Y-70600000D02*
X94000000Y-70600000D01*
D45*
X94000000Y-70600000D02*
X81500000Y-70600000D01*
X98810000Y-73600000D02*
X91500000Y-73600000D01*
X91500000Y-73600000D02*
X91500000Y-74600000D01*
X91500000Y-74600000D02*
X97300000Y-74600000D01*
%TO.N,/3V3*%
D43*
X129830000Y-56090000D02*
X129400000Y-56520000D01*
X129400000Y-56520000D02*
X129400000Y-57095000D01*
D45*
X104510000Y-74490000D02*
X104510000Y-74150000D01*
X99100000Y-80300000D02*
X99100000Y-78200000D01*
D43*
X124420000Y-82860000D02*
X124420000Y-81360000D01*
D44*
X107930000Y-79595000D02*
X110115000Y-79595000D01*
D45*
X104990000Y-77600000D02*
X105500000Y-77600000D01*
X105500000Y-74150000D02*
X105500000Y-78200000D01*
X97510000Y-80300000D02*
X99100000Y-80300000D01*
X105500000Y-74150000D02*
X104510000Y-74150000D01*
D44*
X112160000Y-77550000D02*
X112160000Y-74520000D01*
D43*
X126000000Y-84500000D02*
X126000000Y-84440000D01*
D45*
X99100000Y-78200000D02*
X105500000Y-78200000D01*
D43*
X126000000Y-84440000D02*
X124420000Y-82860000D01*
D44*
X110115000Y-79595000D02*
X112160000Y-77550000D01*
%TO.N,/TX*%
X116380000Y-79250000D02*
X114840000Y-79250000D01*
X114260000Y-79830000D02*
X114260000Y-81360000D01*
X114840000Y-79250000D02*
X114260000Y-79830000D01*
%TO.N,/RX*%
X114280000Y-78420000D02*
X112990000Y-79710000D01*
X112990000Y-79710000D02*
X112990000Y-81360000D01*
X115580000Y-78420000D02*
X114280000Y-78420000D01*
%TO.N,/RST*%
X121476817Y-70170000D02*
X124420000Y-67226817D01*
X124420000Y-67226817D02*
X124420000Y-63860000D01*
%TO.N,/SCL*%
D45*
X81430000Y-74660000D02*
X79560000Y-72790000D01*
X79560000Y-72790000D02*
X79560000Y-58130000D01*
X79560000Y-58130000D02*
X82318000Y-55372000D01*
X90600000Y-80980000D02*
X90600000Y-78600000D01*
X89900000Y-78600000D02*
X89900000Y-78100000D01*
X96400000Y-78100000D02*
X96400000Y-75600000D01*
D44*
X106885000Y-66895000D02*
X106610000Y-66620000D01*
D45*
X101550000Y-75600000D02*
X101550000Y-77000000D01*
X88970000Y-81220000D02*
X88360000Y-80610000D01*
X88360000Y-80610000D02*
X88360000Y-78750000D01*
X88360000Y-78750000D02*
X84270000Y-74660000D01*
X91750000Y-80980000D02*
X90600000Y-80980000D01*
X94027216Y-134520000D02*
X90490000Y-134520000D01*
X90600000Y-78600000D02*
X89900000Y-78600000D01*
X82318000Y-55372000D02*
X87005000Y-55372000D01*
D44*
X107930000Y-66895000D02*
X106885000Y-66895000D01*
D45*
X99100000Y-75600000D02*
X101550000Y-75600000D01*
X89900000Y-78100000D02*
X96400000Y-78100000D01*
X94317599Y-134229617D02*
X94027216Y-134520000D01*
X101550000Y-75600000D02*
X101550000Y-77000000D01*
X81890000Y-125920000D02*
X81890000Y-74660000D01*
X97700000Y-75600000D02*
X99100000Y-75600000D01*
X96400000Y-75600000D02*
X97700000Y-75600000D01*
X99100000Y-74490000D02*
X103490000Y-74490000D01*
D44*
X106610000Y-66620000D02*
X106610000Y-59449183D01*
D45*
X81890000Y-74660000D02*
X81430000Y-74660000D01*
X84270000Y-74660000D02*
X81890000Y-74660000D01*
X90490000Y-134520000D02*
X81890000Y-125920000D01*
D44*
X106610000Y-59449183D02*
X102532817Y-55372000D01*
D45*
X99100000Y-75600000D02*
X99100000Y-74490000D01*
D44*
X102532817Y-55372000D02*
X87355000Y-55372000D01*
%TO.N,/Fan/FAN_PWM*%
D45*
X105501600Y-138975074D02*
X99226526Y-132700000D01*
X99226526Y-132700000D02*
X91000000Y-132700000D01*
X105000000Y-141675000D02*
X105501600Y-141173400D01*
X91000000Y-132700000D02*
X90900000Y-132800000D01*
X105501600Y-141173400D02*
X105501600Y-138975074D01*
%TO.N,/ESP32/USB_D+*%
X85320000Y-82510000D02*
X85450000Y-82640000D01*
X103530000Y-83510000D02*
X104080000Y-82960000D01*
X84545000Y-82510000D02*
X85320000Y-82510000D01*
X104080000Y-82960000D02*
X109271632Y-82960000D01*
X102700000Y-79500000D02*
X102700000Y-79050000D01*
X84545000Y-83510000D02*
X85450000Y-83510000D01*
X109530000Y-82701632D02*
X109530000Y-81710000D01*
X109271632Y-82960000D02*
X109530000Y-82701632D01*
X109530000Y-81710000D02*
X109180000Y-81360000D01*
X85450000Y-83510000D02*
X103530000Y-83510000D01*
X85450000Y-82640000D02*
X85450000Y-83510000D01*
X102250000Y-79500000D02*
X102700000Y-79500000D01*
%TO.N,/ESP32/USB_D-*%
X110100000Y-82630000D02*
X110100000Y-81710000D01*
X84545000Y-84010000D02*
X85690000Y-84010000D01*
X110100000Y-81710000D02*
X110450000Y-81360000D01*
X83770000Y-83010000D02*
X83690000Y-83090000D01*
X104240000Y-83320000D02*
X109410000Y-83320000D01*
X83810000Y-84010000D02*
X84545000Y-84010000D01*
X105650000Y-79300000D02*
X105650000Y-79800000D01*
X83690000Y-83090000D02*
X83690000Y-83890000D01*
X83690000Y-83890000D02*
X83810000Y-84010000D01*
X84545000Y-83010000D02*
X83770000Y-83010000D01*
X85690000Y-84010000D02*
X85837600Y-83862400D01*
X103697600Y-83862400D02*
X104240000Y-83320000D01*
X105450000Y-79300000D02*
X105650000Y-79300000D01*
X85837600Y-83862400D02*
X103697600Y-83862400D01*
X109410000Y-83320000D02*
X110100000Y-82630000D01*
%TO.N,Net-(U2-BP1V5)*%
X83990000Y-76900000D02*
X83660000Y-76570000D01*
X88880000Y-82980000D02*
X87420000Y-81520000D01*
X91690000Y-82980000D02*
X88880000Y-82980000D01*
X87420000Y-79290000D02*
X85030000Y-76900000D01*
X87420000Y-81520000D02*
X87420000Y-79290000D01*
X85030000Y-76900000D02*
X83990000Y-76900000D01*
%TO.N,/ESP32/P_TX*%
D44*
X121880000Y-62510000D02*
X121880000Y-63860000D01*
X126005000Y-61285000D02*
X128230000Y-59060000D01*
X128230000Y-59060000D02*
X128230000Y-58355000D01*
X123105000Y-61285000D02*
X121880000Y-62510000D01*
X123105000Y-61285000D02*
X126005000Y-61285000D01*
%TO.N,/ESP32/P_RX*%
X123040000Y-59730000D02*
X120610000Y-62160000D01*
X123040000Y-59730000D02*
X125050000Y-57720000D01*
X126325000Y-57720000D02*
X126960000Y-58355000D01*
X125050000Y-57720000D02*
X126325000Y-57720000D01*
X120610000Y-62160000D02*
X120610000Y-63860000D01*
%TO.N,/ESP32/IO0*%
X126830000Y-56955000D02*
X126960000Y-57085000D01*
D45*
X109180000Y-63860000D02*
X109180000Y-65190000D01*
D44*
X125830000Y-111062000D02*
X127923000Y-113155000D01*
X126520000Y-102640000D02*
X125830000Y-103330000D01*
D45*
X109180000Y-65190000D02*
X110935600Y-66945600D01*
D44*
X126310000Y-55100000D02*
X126830000Y-55620000D01*
X124830000Y-55100000D02*
X126310000Y-55100000D01*
D45*
X110935600Y-66945600D02*
X121244400Y-66945600D01*
D44*
X126830000Y-55620000D02*
X126830000Y-56955000D01*
X125830000Y-103330000D02*
X125830000Y-111062000D01*
%TO.N,Net-(U2-VDD5)*%
D45*
X92630000Y-74170000D02*
X92570000Y-74110000D01*
X102390000Y-74170000D02*
X92630000Y-74170000D01*
X102820000Y-73740000D02*
X102390000Y-74170000D01*
%TO.N,/Power/PGOOD*%
X106610000Y-80190000D02*
X106610000Y-74840000D01*
X106610000Y-74840000D02*
X106935000Y-74515000D01*
X93720000Y-81950000D02*
X104850000Y-81950000D01*
X93390000Y-82280000D02*
X93720000Y-81950000D01*
X106935000Y-74515000D02*
X107930000Y-74515000D01*
X89020000Y-82280000D02*
X93390000Y-82280000D01*
X109385000Y-74515000D02*
X109410000Y-74490000D01*
X104850000Y-81950000D02*
X106610000Y-80190000D01*
X107930000Y-74515000D02*
X109385000Y-74515000D01*
%TO.N,/SDA*%
X90650000Y-134200000D02*
X82230000Y-125780000D01*
D44*
X107180000Y-68165000D02*
X107930000Y-68165000D01*
D45*
X93280000Y-134200000D02*
X90650000Y-134200000D01*
X82130000Y-73910000D02*
X82130000Y-74280000D01*
X88990000Y-80510000D02*
X88670000Y-80190000D01*
X82230000Y-125780000D02*
X82230000Y-76060000D01*
X93900000Y-133580000D02*
X93280000Y-134200000D01*
X88670000Y-80190000D02*
X88670000Y-78633474D01*
X82230000Y-76060000D02*
X82390000Y-75900000D01*
X81540000Y-74320000D02*
X79861600Y-72641600D01*
D44*
X106150000Y-67135000D02*
X107180000Y-68165000D01*
D45*
X81298000Y-57912000D02*
X87405000Y-57912000D01*
X82130000Y-74280000D02*
X82090000Y-74320000D01*
X94340000Y-133580000D02*
X93900000Y-133580000D01*
D44*
X87087000Y-57880000D02*
X104300000Y-57880000D01*
X87055000Y-57912000D02*
X87087000Y-57880000D01*
D45*
X96220000Y-80050000D02*
X96220000Y-79000000D01*
X91270000Y-80450000D02*
X91270000Y-80050000D01*
X82090000Y-74320000D02*
X81540000Y-74320000D01*
X96220000Y-79000000D02*
X95850000Y-79000000D01*
X88670000Y-78633474D02*
X84356526Y-74320000D01*
D44*
X104300000Y-57880000D02*
X106150000Y-59730000D01*
D45*
X79861600Y-72641600D02*
X79861600Y-59348400D01*
X82491600Y-75900000D02*
X82390000Y-75900000D01*
X84356526Y-74320000D02*
X82090000Y-74320000D01*
X79861600Y-59348400D02*
X81298000Y-57912000D01*
D44*
X106150000Y-59730000D02*
X106150000Y-67135000D01*
D45*
X91270000Y-80050000D02*
X96220000Y-80050000D01*
%TO.N,Net-(U8-VDDIO_12_1)*%
D44*
X100760000Y-123690000D02*
X100760000Y-120410000D01*
X100760000Y-120410000D02*
X101110000Y-120060000D01*
X100770000Y-123700000D02*
X100760000Y-123690000D01*
X101110000Y-120060000D02*
X101694562Y-120060000D01*
%TO.N,Net-(U8-VDDIO_08_1)*%
X99180000Y-123710000D02*
X99180000Y-120670000D01*
X100292000Y-119558000D02*
X101697438Y-119558000D01*
X99180000Y-120670000D02*
X100292000Y-119558000D01*
%TO.N,Net-(J4-Pin_3)*%
X115530000Y-63020000D02*
X116380000Y-62170000D01*
X112780000Y-54210000D02*
X107407505Y-54210000D01*
X115530000Y-63860000D02*
X115530000Y-63020000D01*
X107407505Y-54210000D02*
X104251505Y-51054000D01*
X116380000Y-62170000D02*
X116380000Y-57810000D01*
X116380000Y-57810000D02*
X112780000Y-54210000D01*
%TO.N,Net-(J4-Pin_6)*%
X119340000Y-63860000D02*
X119340000Y-55550000D01*
X119340000Y-55550000D02*
X114844000Y-51054000D01*
X114844000Y-51054000D02*
X111871505Y-51054000D01*
%TO.N,Net-(J4-Pin_5)*%
X110777505Y-52500000D02*
X109331505Y-51054000D01*
X118070000Y-63860000D02*
X118070000Y-56010000D01*
X114560000Y-52500000D02*
X110777505Y-52500000D01*
X118070000Y-56010000D02*
X114560000Y-52500000D01*
%TO.N,Net-(J4-Pin_4)*%
X113650000Y-53350000D02*
X109087505Y-53350000D01*
X116800000Y-63860000D02*
X116800000Y-62820000D01*
X117220000Y-56920000D02*
X113650000Y-53350000D01*
X116800000Y-62820000D02*
X117220000Y-62400000D01*
X109087505Y-53350000D02*
X106791505Y-51054000D01*
X117220000Y-62400000D02*
X117220000Y-56920000D01*
%TO.N,unconnected-(J5-CC2-PadB5)*%
D45*
X86600000Y-81510000D02*
X84545000Y-81510000D01*
%TO.N,unconnected-(J5-CC1-PadA5)*%
X86990000Y-84510000D02*
X84545000Y-84510000D01*
%TO.N,Net-(U8-ROSC_SEL)*%
D44*
X116820000Y-117550000D02*
X109526562Y-117550000D01*
X118120000Y-116250000D02*
X116820000Y-117550000D01*
X119430000Y-116250000D02*
X118120000Y-116250000D01*
%TO.N,Net-(U8-LITE_PAD)*%
X118772000Y-118052000D02*
X109526562Y-118052000D01*
X118804000Y-118020000D02*
X118772000Y-118052000D01*
X119420000Y-118020000D02*
X118804000Y-118020000D01*
%TO.N,Net-(U8-INV_CLKO)*%
X116834000Y-118554000D02*
X109526562Y-118554000D01*
X124540000Y-121820000D02*
X124250000Y-121530000D01*
X124250000Y-121530000D02*
X119810000Y-121530000D01*
X119810000Y-121530000D02*
X116834000Y-118554000D01*
%TO.N,/Fan/TEMP_N*%
X92180000Y-119960000D02*
X92180000Y-119640000D01*
X94280000Y-117550000D02*
X101694562Y-117550000D01*
X94275000Y-117545000D02*
X94280000Y-117550000D01*
X92180000Y-119640000D02*
X94275000Y-117545000D01*
%TO.N,/Fan/TEMP_P*%
X92940000Y-119930000D02*
X94825000Y-118045000D01*
X94825000Y-118045000D02*
X94832000Y-118052000D01*
X94832000Y-118052000D02*
X101694562Y-118052000D01*
%TO.N,/Power/AGND*%
D45*
X89340000Y-74960000D02*
X89340000Y-77660000D01*
X89850000Y-73770000D02*
X90680000Y-72940000D01*
X89340000Y-73770000D02*
X89850000Y-73770000D01*
X89340000Y-77660000D02*
X89170000Y-77830000D01*
X89340000Y-73770000D02*
X89340000Y-74960000D01*
%TO.N,/Power/PMB_ALRT*%
X106665000Y-71975000D02*
X107930000Y-71975000D01*
X106230000Y-80040000D02*
X106230000Y-72410000D01*
X104720000Y-81550000D02*
X106230000Y-80040000D01*
X93330000Y-81550000D02*
X104720000Y-81550000D01*
X106230000Y-77600000D02*
X106230000Y-80040000D01*
X106230000Y-72410000D02*
X106665000Y-71975000D01*
X106010000Y-77600000D02*
X106230000Y-77600000D01*
%TO.N,/BM1370/VDD3_0*%
D44*
X110571000Y-114039000D02*
X110568000Y-114036000D01*
X113470000Y-112590000D02*
X112021000Y-114039000D01*
X110568000Y-114036000D02*
X109526562Y-114036000D01*
X112021000Y-114039000D02*
X110571000Y-114039000D01*
X113470000Y-111290000D02*
X113470000Y-112590000D01*
%TO.N,/BM1370/1V2*%
X110200000Y-120330000D02*
X109930000Y-120060000D01*
X110200000Y-124240000D02*
X110200000Y-120330000D01*
X124520000Y-101750000D02*
X124600000Y-101830000D01*
X109930000Y-120060000D02*
X109526562Y-120060000D01*
X110950000Y-124990000D02*
X110200000Y-124240000D01*
X117120000Y-101750000D02*
X124520000Y-101750000D01*
%TO.N,/BM1370/0V8*%
X110970000Y-123700000D02*
X110970000Y-120070000D01*
X110970000Y-120070000D02*
X110458000Y-119558000D01*
X110458000Y-119558000D02*
X109526562Y-119558000D01*
%TO.N,/BM1370/VDD2_0*%
X112380000Y-109360000D02*
X112380000Y-112680000D01*
X111526000Y-113534000D02*
X109526562Y-113534000D01*
X112390000Y-109350000D02*
X112380000Y-109360000D01*
X112380000Y-112680000D02*
X111526000Y-113534000D01*
%TO.N,/BM1370/VDD1_0*%
X111030000Y-107870000D02*
X111000000Y-107900000D01*
X110528000Y-113032000D02*
X109526562Y-113032000D01*
X111000000Y-112560000D02*
X110528000Y-113032000D01*
X111000000Y-107900000D02*
X111000000Y-112560000D01*
%TO.N,/BM1370/VDD1_1*%
X100540000Y-112750000D02*
X100822000Y-113032000D01*
X100553800Y-107457400D02*
X100540000Y-107471200D01*
X100822000Y-113032000D02*
X101522000Y-113032000D01*
X100540000Y-107471200D02*
X100540000Y-112750000D01*
%TO.N,/BM1370/VDD2_1*%
X99360000Y-109210000D02*
X99360000Y-112970000D01*
X99927000Y-113537000D02*
X99930000Y-113534000D01*
X99360000Y-112970000D02*
X99927000Y-113537000D01*
X99930000Y-113534000D02*
X101694562Y-113534000D01*
%TO.N,/BM1370/VDD3_1*%
X100704000Y-114036000D02*
X101694562Y-114036000D01*
X100700000Y-114040000D02*
X100704000Y-114036000D01*
X99150000Y-114040000D02*
X100700000Y-114040000D01*
X98140000Y-111060000D02*
X98140000Y-113030000D01*
X98140000Y-113030000D02*
X99150000Y-114040000D01*
%TO.N,/BM1370/BI*%
X119420000Y-114790000D02*
X118310000Y-114790000D01*
X116052000Y-117048000D02*
X109526562Y-117048000D01*
X118310000Y-114790000D02*
X116052000Y-117048000D01*
%TO.N,/BM1370/RST_N*%
X113800000Y-98950000D02*
X113420000Y-98950000D01*
X113840000Y-115040000D02*
X109526562Y-115040000D01*
X117140000Y-108980000D02*
X117140000Y-111740000D01*
X117140000Y-111740000D02*
X113840000Y-115040000D01*
X112400000Y-99970000D02*
X112400000Y-104240000D01*
X113420000Y-98950000D02*
X112400000Y-99970000D01*
X112400000Y-104240000D02*
X117140000Y-108980000D01*
%TO.N,/BM1370/CI*%
X117710000Y-108640000D02*
X117710000Y-112030000D01*
X113520000Y-99770000D02*
X113110000Y-100180000D01*
X113770000Y-99770000D02*
X113520000Y-99770000D01*
X117710000Y-112030000D02*
X114198000Y-115542000D01*
X113110000Y-104040000D02*
X117710000Y-108640000D01*
X114198000Y-115542000D02*
X109526562Y-115542000D01*
X113110000Y-100180000D02*
X113110000Y-104040000D01*
%TO.N,/BM1370/RO*%
X113830000Y-103880000D02*
X113830000Y-100500000D01*
X114636000Y-116044000D02*
X109526562Y-116044000D01*
X118320000Y-108370000D02*
X113830000Y-103880000D01*
X114636000Y-116044000D02*
X118320000Y-112360000D01*
X118320000Y-112360000D02*
X118320000Y-108370000D01*
%TO.N,/BM1370/CLKI*%
X118740000Y-113660000D02*
X118220000Y-113660000D01*
X115334000Y-116546000D02*
X109526562Y-116546000D01*
X118220000Y-113660000D02*
X115334000Y-116546000D01*
%TO.N,/BM1370/NRSTO*%
X95310000Y-115040000D02*
X101694562Y-115040000D01*
X92480000Y-112210000D02*
X95310000Y-115040000D01*
%TO.N,/BM1370/CO*%
X92480000Y-113611428D02*
X92480000Y-113930000D01*
X92480000Y-113930000D02*
X94092000Y-115542000D01*
X94092000Y-115542000D02*
X101694562Y-115542000D01*
%TO.N,/BM1370/RI*%
X93511144Y-116044000D02*
X101694562Y-116044000D01*
X92480000Y-115012856D02*
X93511144Y-116044000D01*
%TO.N,/BM1370/CLKO*%
X92611716Y-116546000D02*
X101694562Y-116546000D01*
X92480000Y-116414284D02*
X92611716Y-116546000D01*
%TO.N,/BM1370/BO*%
X92480000Y-117815712D02*
X92974288Y-117815712D01*
X92974288Y-117815712D02*
X93742000Y-117048000D01*
X93742000Y-117048000D02*
X101694562Y-117048000D01*
%TO.N,/BM1370/PIN_MODE*%
X91650000Y-120680000D02*
X93610000Y-120680000D01*
X93610000Y-120680000D02*
X95736000Y-118554000D01*
X91400000Y-120430000D02*
X91650000Y-120680000D01*
X95736000Y-118554000D02*
X101694562Y-118554000D01*
%TO.N,/Fan/FAN_TACH*%
D45*
X105200000Y-140198606D02*
X104000000Y-141398606D01*
X93918400Y-137048400D02*
X103148400Y-137048400D01*
X105200000Y-139100000D02*
X105200000Y-140198606D01*
X103148400Y-137048400D02*
X105200000Y-139100000D01*
X104000000Y-141398606D02*
X104000000Y-141675000D01*
X93570000Y-136700000D02*
X93918400Y-137048400D01*
%TO.N,Net-(F1-Pad1)*%
D48*
X97462500Y-72120000D02*
X95500000Y-72120000D01*
X97462500Y-69000000D02*
X97462500Y-72120000D01*
X80900000Y-72120000D02*
X88530000Y-72120000D01*
X95500000Y-65400000D02*
X80900000Y-65400000D01*
X80900000Y-65400000D02*
X80900000Y-72120000D01*
X95500000Y-72120000D02*
X95500000Y-65400000D01*
%TD*%
%TA.AperFunction,Conductor*%
%TO.N,GND*%
G36*
X105209539Y-78421785D02*
G01*
X105255294Y-78474589D01*
X105265238Y-78543747D01*
X105236213Y-78607303D01*
X105177435Y-78645077D01*
X105160377Y-78648805D01*
X105098143Y-78657871D01*
X104992571Y-78709482D01*
X104909479Y-78792574D01*
X104857872Y-78898140D01*
X104857871Y-78898142D01*
X104857871Y-78898144D01*
X104847900Y-78966581D01*
X104847900Y-78966585D01*
X104847900Y-78966586D01*
X104847900Y-79633417D01*
X104857871Y-79701856D01*
X104909482Y-79807428D01*
X104992574Y-79890520D01*
X105084621Y-79935518D01*
X105098144Y-79942129D01*
X105166581Y-79952100D01*
X105203764Y-79952099D01*
X105270802Y-79971782D01*
X105311151Y-80014097D01*
X105329520Y-80045913D01*
X105404087Y-80120480D01*
X105495413Y-80173207D01*
X105536835Y-80184306D01*
X105596496Y-80220669D01*
X105627026Y-80283515D01*
X105618732Y-80352891D01*
X105592424Y-80391761D01*
X104903127Y-81081058D01*
X104841804Y-81114543D01*
X104815222Y-81117377D01*
X100304276Y-81109243D01*
X100237273Y-81089437D01*
X100191613Y-81036551D01*
X100180500Y-80985243D01*
X100180500Y-80967275D01*
X100180500Y-80967273D01*
X100153207Y-80865413D01*
X100100480Y-80774087D01*
X100025913Y-80699520D01*
X99934587Y-80646793D01*
X99832727Y-80619500D01*
X99727273Y-80619500D01*
X99625413Y-80646793D01*
X99625410Y-80646794D01*
X99534085Y-80699521D01*
X99472026Y-80761581D01*
X99410703Y-80795066D01*
X99384345Y-80797900D01*
X97953072Y-80797900D01*
X97945606Y-80795707D01*
X97937927Y-80796972D01*
X97912551Y-80786001D01*
X97886033Y-80778215D01*
X97880937Y-80772334D01*
X97873793Y-80769246D01*
X97858376Y-80746297D01*
X97840278Y-80725411D01*
X97839170Y-80717708D01*
X97834831Y-80711249D01*
X97834268Y-80683613D01*
X97830334Y-80656253D01*
X97833530Y-80647409D01*
X97833408Y-80641394D01*
X97844559Y-80616894D01*
X97847414Y-80608998D01*
X97848655Y-80606977D01*
X97868343Y-80577512D01*
X97869103Y-80573688D01*
X97876776Y-80561198D01*
X97895707Y-80544106D01*
X97911714Y-80524244D01*
X97921209Y-80521083D01*
X97928638Y-80514377D01*
X97953808Y-80510233D01*
X97978008Y-80502179D01*
X97982434Y-80502100D01*
X99140199Y-80502100D01*
X99140200Y-80502100D01*
X99214480Y-80471332D01*
X99271332Y-80414480D01*
X99302100Y-80340200D01*
X99302100Y-79166581D01*
X101647900Y-79166581D01*
X101647900Y-79166585D01*
X101647900Y-79166586D01*
X101647900Y-79833417D01*
X101657871Y-79901856D01*
X101709482Y-80007428D01*
X101792574Y-80090520D01*
X101887229Y-80136793D01*
X101898144Y-80142129D01*
X101966581Y-80152100D01*
X102533418Y-80152099D01*
X102601856Y-80142129D01*
X102707426Y-80090519D01*
X102790519Y-80007426D01*
X102790520Y-80007425D01*
X102824913Y-79937072D01*
X102842129Y-79901856D01*
X102852100Y-79833419D01*
X102852099Y-79680877D01*
X102855304Y-79652869D01*
X102862054Y-79623756D01*
X102871332Y-79614480D01*
X102902100Y-79540200D01*
X102902100Y-79451059D01*
X102905305Y-79437238D01*
X102915778Y-79418664D01*
X102921785Y-79398209D01*
X102936064Y-79382689D01*
X102939624Y-79376378D01*
X102940453Y-79375939D01*
X102945910Y-79370481D01*
X102945913Y-79370480D01*
X103020480Y-79295913D01*
X103073207Y-79204587D01*
X103100500Y-79102727D01*
X103100500Y-78997273D01*
X103073207Y-78895413D01*
X103020480Y-78804087D01*
X102945913Y-78729520D01*
X102854587Y-78676793D01*
X102752727Y-78649500D01*
X102647273Y-78649500D01*
X102545413Y-78676793D01*
X102545410Y-78676794D01*
X102454087Y-78729520D01*
X102373773Y-78809834D01*
X102371685Y-78807746D01*
X102326668Y-78840600D01*
X102284750Y-78847900D01*
X101966582Y-78847900D01*
X101898143Y-78857871D01*
X101792571Y-78909482D01*
X101709479Y-78992574D01*
X101657872Y-79098140D01*
X101657871Y-79098142D01*
X101657871Y-79098144D01*
X101647900Y-79166581D01*
X99302100Y-79166581D01*
X99302100Y-78526100D01*
X99321785Y-78459061D01*
X99374589Y-78413306D01*
X99426100Y-78402100D01*
X105142500Y-78402100D01*
X105209539Y-78421785D01*
G37*
%TD.AperFunction*%
%TA.AperFunction,Conductor*%
G36*
X104014128Y-74526153D02*
G01*
X104081131Y-74545961D01*
X104126789Y-74598849D01*
X104137900Y-74650153D01*
X104137900Y-74698352D01*
X104137900Y-74698354D01*
X104137899Y-74698354D01*
X104151656Y-74767510D01*
X104151656Y-74767511D01*
X104151657Y-74767512D01*
X104204060Y-74845940D01*
X104282488Y-74898343D01*
X104299778Y-74901782D01*
X104351645Y-74912100D01*
X104351648Y-74912100D01*
X104668354Y-74912100D01*
X104702932Y-74905221D01*
X104737512Y-74898343D01*
X104815940Y-74845940D01*
X104868343Y-74767512D01*
X104878970Y-74714087D01*
X104882100Y-74698354D01*
X104882100Y-74651947D01*
X104884682Y-74643153D01*
X104883394Y-74634077D01*
X104894371Y-74610155D01*
X104901785Y-74584908D01*
X104908711Y-74578906D01*
X104912535Y-74570574D01*
X104934703Y-74556383D01*
X104954589Y-74539153D01*
X104965219Y-74536850D01*
X104971382Y-74532906D01*
X105006314Y-74527948D01*
X105106343Y-74528129D01*
X105173344Y-74547936D01*
X105219003Y-74600823D01*
X105228821Y-74669999D01*
X105199680Y-74733502D01*
X105193798Y-74739808D01*
X105179521Y-74754084D01*
X105126794Y-74845410D01*
X105126793Y-74845413D01*
X105099500Y-74947273D01*
X105099500Y-75052727D01*
X105126793Y-75154587D01*
X105178754Y-75244587D01*
X105179521Y-75245914D01*
X105259834Y-75326227D01*
X105257740Y-75328320D01*
X105290581Y-75373278D01*
X105297900Y-75415248D01*
X105297900Y-77056552D01*
X105278215Y-77123591D01*
X105225411Y-77169346D01*
X105156253Y-77179290D01*
X105149712Y-77178170D01*
X105148354Y-77177900D01*
X105148352Y-77177900D01*
X104831648Y-77177900D01*
X104831646Y-77177900D01*
X104762489Y-77191656D01*
X104684060Y-77244060D01*
X104631656Y-77322489D01*
X104617900Y-77391645D01*
X104617900Y-77391648D01*
X104617900Y-77808352D01*
X104617900Y-77808354D01*
X104617899Y-77808354D01*
X104626126Y-77849708D01*
X104619899Y-77919300D01*
X104577036Y-77974477D01*
X104511147Y-77997722D01*
X104504509Y-77997900D01*
X99059799Y-77997900D01*
X99007273Y-78019657D01*
X99001377Y-78022100D01*
X98985518Y-78028669D01*
X98928669Y-78085518D01*
X98928668Y-78085519D01*
X98928668Y-78085520D01*
X98921766Y-78102182D01*
X98897900Y-78159799D01*
X98897900Y-79973900D01*
X98878215Y-80040939D01*
X98825411Y-80086694D01*
X98773900Y-80097900D01*
X97982434Y-80097900D01*
X97915395Y-80078215D01*
X97875621Y-80032313D01*
X97875128Y-80032643D01*
X97872505Y-80028717D01*
X97869640Y-80025411D01*
X97868413Y-80022593D01*
X97859865Y-80009800D01*
X97815940Y-79944060D01*
X97737512Y-79891657D01*
X97737511Y-79891656D01*
X97737510Y-79891656D01*
X97668354Y-79877900D01*
X97668352Y-79877900D01*
X97351648Y-79877900D01*
X97351646Y-79877900D01*
X97282489Y-79891656D01*
X97204060Y-79944060D01*
X97151656Y-80022489D01*
X97137900Y-80091645D01*
X97137900Y-80091648D01*
X97137900Y-80508352D01*
X97137900Y-80508354D01*
X97137899Y-80508354D01*
X97151656Y-80577511D01*
X97151657Y-80577512D01*
X97162116Y-80593166D01*
X97170030Y-80605009D01*
X97173067Y-80614709D01*
X97179722Y-80622389D01*
X97183330Y-80647488D01*
X97190908Y-80671687D01*
X97188219Y-80681486D01*
X97189666Y-80691547D01*
X97179131Y-80714615D01*
X97172423Y-80739067D01*
X97164863Y-80745857D01*
X97160641Y-80755103D01*
X97139309Y-80768812D01*
X97120445Y-80785757D01*
X97108847Y-80788388D01*
X97101863Y-80792877D01*
X97066928Y-80797900D01*
X96933072Y-80797900D01*
X96866033Y-80778215D01*
X96820278Y-80725411D01*
X96810334Y-80656253D01*
X96829970Y-80605009D01*
X96830252Y-80604587D01*
X96848343Y-80577512D01*
X96862100Y-80508352D01*
X96862100Y-80091648D01*
X96862100Y-80091645D01*
X96848343Y-80022489D01*
X96848343Y-80022488D01*
X96795940Y-79944060D01*
X96717512Y-79891657D01*
X96717511Y-79891656D01*
X96717510Y-79891656D01*
X96648354Y-79877900D01*
X96648352Y-79877900D01*
X96546100Y-79877900D01*
X96479061Y-79858215D01*
X96433306Y-79805411D01*
X96422100Y-79753900D01*
X96422100Y-79471513D01*
X96434701Y-79417049D01*
X96442129Y-79401856D01*
X96452100Y-79333419D01*
X96452099Y-78666582D01*
X96442129Y-78598144D01*
X96390519Y-78492574D01*
X96390516Y-78492571D01*
X96390516Y-78492570D01*
X96387528Y-78488384D01*
X96364594Y-78422386D01*
X96380982Y-78354465D01*
X96431489Y-78306187D01*
X96440982Y-78301775D01*
X96514480Y-78271332D01*
X96571332Y-78214480D01*
X96602100Y-78140200D01*
X96602100Y-75926100D01*
X96621785Y-75859061D01*
X96674589Y-75813306D01*
X96726100Y-75802100D01*
X97659800Y-75802100D01*
X99059800Y-75802100D01*
X99140200Y-75802100D01*
X101223900Y-75802100D01*
X101290939Y-75821785D01*
X101336694Y-75874589D01*
X101347900Y-75926100D01*
X101347900Y-76228810D01*
X101328215Y-76295849D01*
X101275411Y-76341604D01*
X101241777Y-76351514D01*
X101198151Y-76357870D01*
X101198144Y-76357871D01*
X101092571Y-76409482D01*
X101009479Y-76492574D01*
X100957872Y-76598140D01*
X100957871Y-76598142D01*
X100957871Y-76598144D01*
X100947900Y-76666581D01*
X100947900Y-76666585D01*
X100947900Y-76666586D01*
X100947900Y-77333417D01*
X100957871Y-77401856D01*
X101009482Y-77507428D01*
X101092574Y-77590520D01*
X101193640Y-77639927D01*
X101198144Y-77642129D01*
X101266581Y-77652100D01*
X101833418Y-77652099D01*
X101901856Y-77642129D01*
X102007426Y-77590519D01*
X102090519Y-77507426D01*
X102090520Y-77507425D01*
X102115773Y-77455766D01*
X102142129Y-77401856D01*
X102152100Y-77333419D01*
X102152099Y-76666582D01*
X102142129Y-76598144D01*
X102090519Y-76492574D01*
X102090517Y-76492572D01*
X102090517Y-76492571D01*
X102007425Y-76409479D01*
X101901858Y-76357871D01*
X101901855Y-76357870D01*
X101858222Y-76351513D01*
X101794721Y-76322369D01*
X101757057Y-76263519D01*
X101752100Y-76228809D01*
X101752100Y-75559801D01*
X101752100Y-75559800D01*
X101721332Y-75485520D01*
X101664480Y-75428668D01*
X101590200Y-75397900D01*
X99426100Y-75397900D01*
X99359061Y-75378215D01*
X99313306Y-75325411D01*
X99302100Y-75273900D01*
X99302100Y-74816100D01*
X99321785Y-74749061D01*
X99374589Y-74703306D01*
X99426100Y-74692100D01*
X103017566Y-74692100D01*
X103084605Y-74711785D01*
X103124378Y-74757686D01*
X103124872Y-74757357D01*
X103127494Y-74761282D01*
X103130360Y-74764589D01*
X103131586Y-74767406D01*
X103131657Y-74767512D01*
X103184060Y-74845940D01*
X103262488Y-74898343D01*
X103279778Y-74901782D01*
X103331645Y-74912100D01*
X103331648Y-74912100D01*
X103648354Y-74912100D01*
X103682932Y-74905221D01*
X103717512Y-74898343D01*
X103795940Y-74845940D01*
X103848343Y-74767512D01*
X103858970Y-74714087D01*
X103862100Y-74698354D01*
X103862100Y-74650102D01*
X103881785Y-74583063D01*
X103934589Y-74537308D01*
X103986321Y-74526103D01*
X104014128Y-74526153D01*
G37*
%TD.AperFunction*%
%TA.AperFunction,Conductor*%
G36*
X95271619Y-78321785D02*
G01*
X95317374Y-78374589D01*
X95327318Y-78443747D01*
X95311856Y-78482298D01*
X95313993Y-78483343D01*
X95257872Y-78598140D01*
X95257871Y-78598142D01*
X95257871Y-78598144D01*
X95247900Y-78666581D01*
X95247900Y-78666585D01*
X95247900Y-78666586D01*
X95247900Y-79333417D01*
X95257871Y-79401856D01*
X95309482Y-79507428D01*
X95392572Y-79590518D01*
X95437536Y-79612500D01*
X95489118Y-79659628D01*
X95507032Y-79727162D01*
X95485591Y-79793660D01*
X95431602Y-79838010D01*
X95383075Y-79847900D01*
X91229799Y-79847900D01*
X91155518Y-79878669D01*
X91098669Y-79935518D01*
X91098668Y-79935519D01*
X91098668Y-79935520D01*
X91095131Y-79944060D01*
X91067900Y-80009799D01*
X91067900Y-80034750D01*
X91059061Y-80064851D01*
X91052039Y-80095428D01*
X91049079Y-80098846D01*
X91048215Y-80101789D01*
X91030564Y-80123437D01*
X91024702Y-80129164D01*
X91024087Y-80129520D01*
X91013290Y-80140316D01*
X91012764Y-80140831D01*
X90982490Y-80156910D01*
X90952458Y-80173310D01*
X90951716Y-80173256D01*
X90951059Y-80173606D01*
X90916947Y-80170770D01*
X90882766Y-80168326D01*
X90882169Y-80167879D01*
X90881429Y-80167818D01*
X90854257Y-80146984D01*
X90826833Y-80126454D01*
X90826573Y-80125757D01*
X90825982Y-80125304D01*
X90814374Y-80093051D01*
X90802416Y-80060990D01*
X90802369Y-80059695D01*
X90802322Y-80059563D01*
X90802359Y-80059400D01*
X90802100Y-80052144D01*
X90802100Y-78559801D01*
X90802100Y-78559800D01*
X90771332Y-78485520D01*
X90771330Y-78485518D01*
X90766658Y-78474238D01*
X90770644Y-78472586D01*
X90756782Y-78428309D01*
X90775269Y-78360930D01*
X90827249Y-78314241D01*
X90880762Y-78302100D01*
X95204580Y-78302100D01*
X95271619Y-78321785D01*
G37*
%TD.AperFunction*%
%TA.AperFunction,Conductor*%
G36*
X91174126Y-74502920D02*
G01*
X91241128Y-74522726D01*
X91286787Y-74575613D01*
X91297900Y-74626920D01*
X91297900Y-74640200D01*
X91328668Y-74714480D01*
X91385520Y-74771332D01*
X91459800Y-74802100D01*
X96800915Y-74802100D01*
X96867954Y-74821785D01*
X96913709Y-74874589D01*
X96923653Y-74943747D01*
X96920693Y-74958176D01*
X96899500Y-75037273D01*
X96899500Y-75142727D01*
X96916430Y-75205911D01*
X96926048Y-75241807D01*
X96924385Y-75311657D01*
X96885222Y-75369519D01*
X96820993Y-75397023D01*
X96806273Y-75397900D01*
X96359799Y-75397900D01*
X96285518Y-75428669D01*
X96228669Y-75485518D01*
X96197900Y-75559799D01*
X96197900Y-77773900D01*
X96178215Y-77840939D01*
X96125411Y-77886694D01*
X96073900Y-77897900D01*
X89859799Y-77897900D01*
X89830841Y-77909894D01*
X89785520Y-77928668D01*
X89785518Y-77928669D01*
X89774238Y-77933342D01*
X89773470Y-77931489D01*
X89721518Y-77947753D01*
X89654139Y-77929265D01*
X89607452Y-77877283D01*
X89595319Y-77825092D01*
X89569029Y-75350045D01*
X89587999Y-75282805D01*
X89605332Y-75261060D01*
X89660480Y-75205913D01*
X89713207Y-75114587D01*
X89740500Y-75012727D01*
X89740500Y-74907273D01*
X89713207Y-74805413D01*
X89660480Y-74714087D01*
X89658411Y-74712018D01*
X89657222Y-74709841D01*
X89655531Y-74707637D01*
X89655874Y-74707373D01*
X89624926Y-74650695D01*
X89629910Y-74581003D01*
X89671782Y-74525070D01*
X89737246Y-74500653D01*
X89746312Y-74500337D01*
X91174126Y-74502920D01*
G37*
%TD.AperFunction*%
%TA.AperFunction,Conductor*%
G36*
X98774124Y-74516672D02*
G01*
X98841128Y-74536478D01*
X98886787Y-74589365D01*
X98897900Y-74640672D01*
X98897900Y-75273900D01*
X98878215Y-75340939D01*
X98825411Y-75386694D01*
X98773900Y-75397900D01*
X97793727Y-75397900D01*
X97726688Y-75378215D01*
X97680933Y-75325411D01*
X97670989Y-75256253D01*
X97673952Y-75241807D01*
X97680682Y-75216689D01*
X97700500Y-75142727D01*
X97700500Y-75037273D01*
X97673207Y-74935413D01*
X97620480Y-74844087D01*
X97545913Y-74769520D01*
X97545912Y-74769519D01*
X97540166Y-74763773D01*
X97541211Y-74762727D01*
X97527914Y-74742038D01*
X97509400Y-74716668D01*
X97508578Y-74711949D01*
X97507123Y-74709685D01*
X97502100Y-74674750D01*
X97502100Y-74638594D01*
X97521785Y-74571555D01*
X97574589Y-74525800D01*
X97626318Y-74514595D01*
X98774124Y-74516672D01*
G37*
%TD.AperFunction*%
%TD*%
%TA.AperFunction,Conductor*%
%TO.N,GND*%
G36*
X119916378Y-70319418D02*
G01*
X119983324Y-70339418D01*
X120028830Y-70392437D01*
X120039794Y-70443623D01*
X120037810Y-71640434D01*
X120018014Y-71707440D01*
X119965134Y-71753108D01*
X119900557Y-71763518D01*
X119867833Y-71760000D01*
X119620000Y-71760000D01*
X119620000Y-75386000D01*
X119600315Y-75453039D01*
X119547511Y-75498794D01*
X119496000Y-75510000D01*
X119370000Y-75510000D01*
X119370000Y-75636000D01*
X119350315Y-75703039D01*
X119297511Y-75748794D01*
X119246000Y-75760000D01*
X116694000Y-75760000D01*
X116626961Y-75740315D01*
X116581206Y-75687511D01*
X116570000Y-75636000D01*
X116570000Y-75510000D01*
X116444000Y-75510000D01*
X116376961Y-75490315D01*
X116331206Y-75437511D01*
X116320000Y-75386000D01*
X116320000Y-75260000D01*
X116820000Y-75260000D01*
X117720000Y-75260000D01*
X118220000Y-75260000D01*
X119120000Y-75260000D01*
X119120000Y-74360000D01*
X118220000Y-74360000D01*
X118220000Y-75260000D01*
X117720000Y-75260000D01*
X117720000Y-74360000D01*
X116820000Y-74360000D01*
X116820000Y-75260000D01*
X116320000Y-75260000D01*
X116320000Y-73860000D01*
X116820000Y-73860000D01*
X117720000Y-73860000D01*
X118220000Y-73860000D01*
X119120000Y-73860000D01*
X119120000Y-72960000D01*
X118220000Y-72960000D01*
X118220000Y-73860000D01*
X117720000Y-73860000D01*
X117720000Y-72960000D01*
X116820000Y-72960000D01*
X116820000Y-73860000D01*
X116320000Y-73860000D01*
X116320000Y-72460000D01*
X116820000Y-72460000D01*
X117720000Y-72460000D01*
X118220000Y-72460000D01*
X119120000Y-72460000D01*
X119120000Y-71760000D01*
X118872155Y-71760000D01*
X118812627Y-71766401D01*
X118812616Y-71766403D01*
X118713332Y-71803434D01*
X118643640Y-71808418D01*
X118626668Y-71803434D01*
X118527383Y-71766403D01*
X118527372Y-71766401D01*
X118467844Y-71760000D01*
X118220000Y-71760000D01*
X118220000Y-72460000D01*
X117720000Y-72460000D01*
X117720000Y-71760000D01*
X117472155Y-71760000D01*
X117412627Y-71766401D01*
X117412616Y-71766403D01*
X117313332Y-71803434D01*
X117243640Y-71808418D01*
X117226668Y-71803434D01*
X117127383Y-71766403D01*
X117127372Y-71766401D01*
X117067844Y-71760000D01*
X116820000Y-71760000D01*
X116820000Y-72460000D01*
X116320000Y-72460000D01*
X116320000Y-71760000D01*
X116072155Y-71760000D01*
X116012627Y-71766401D01*
X116012621Y-71766402D01*
X115955052Y-71787874D01*
X115885361Y-71792857D01*
X115824038Y-71759371D01*
X115790554Y-71698047D01*
X115787721Y-71671492D01*
X115789793Y-70424376D01*
X115809589Y-70357371D01*
X115862469Y-70311704D01*
X115914375Y-70300585D01*
X119916378Y-70319418D01*
G37*
%TD.AperFunction*%
%TD*%
%TA.AperFunction,Conductor*%
%TO.N,/5V*%
G36*
X85812210Y-65757123D02*
G01*
X85824634Y-65760771D01*
X85837436Y-65768998D01*
X85852209Y-65772657D01*
X85866231Y-65787503D01*
X85883412Y-65798545D01*
X85889734Y-65812388D01*
X85900184Y-65823453D01*
X85903953Y-65843524D01*
X85912437Y-65862101D01*
X85910470Y-65878225D01*
X85913080Y-65892122D01*
X85904596Y-65926381D01*
X85901110Y-65934970D01*
X85886532Y-65961221D01*
X85846006Y-66017000D01*
X85845999Y-66017012D01*
X85763790Y-66178353D01*
X85763786Y-66178363D01*
X85763778Y-66178386D01*
X85707829Y-66350585D01*
X85695980Y-66425397D01*
X85679500Y-66529448D01*
X85679500Y-66710551D01*
X85681546Y-66723466D01*
X85707829Y-66889413D01*
X85763778Y-67061612D01*
X85763786Y-67061635D01*
X85763788Y-67061639D01*
X85846006Y-67222997D01*
X85952441Y-67369494D01*
X85952445Y-67369499D01*
X85952452Y-67369507D01*
X86080493Y-67497548D01*
X86080497Y-67497551D01*
X86080500Y-67497554D01*
X86080505Y-67497558D01*
X86080522Y-67497570D01*
X86202979Y-67586540D01*
X86202981Y-67586541D01*
X86208287Y-67590396D01*
X86227006Y-67603996D01*
X86278299Y-67630131D01*
X86388360Y-67686211D01*
X86388363Y-67686212D01*
X86474476Y-67714191D01*
X86560591Y-67742171D01*
X86643429Y-67755291D01*
X86739449Y-67770500D01*
X86739454Y-67770500D01*
X86920548Y-67770500D01*
X86920551Y-67770500D01*
X87007259Y-67756765D01*
X87099409Y-67742171D01*
X87271639Y-67686211D01*
X87432994Y-67603996D01*
X87579501Y-67497553D01*
X87707553Y-67369501D01*
X87813996Y-67222994D01*
X87896211Y-67061639D01*
X87952171Y-66889409D01*
X87966765Y-66797259D01*
X87980500Y-66710551D01*
X87980500Y-66529448D01*
X87964019Y-66425397D01*
X87952171Y-66350591D01*
X87896211Y-66178361D01*
X87896211Y-66178360D01*
X87867698Y-66122402D01*
X87813996Y-66017006D01*
X87809262Y-66010490D01*
X87775051Y-65963402D01*
X87758586Y-65932195D01*
X87754232Y-65919994D01*
X87753215Y-65902197D01*
X87751575Y-65897600D01*
X87752680Y-65892845D01*
X87750245Y-65850240D01*
X87784603Y-65789402D01*
X87841225Y-65757961D01*
X87850225Y-65755733D01*
X87880019Y-65752100D01*
X94446786Y-65752100D01*
X94481721Y-65757123D01*
X94496719Y-65761527D01*
X94555455Y-65799254D01*
X94556580Y-65800551D01*
X94584113Y-65855623D01*
X94585781Y-65863346D01*
X94588575Y-65889877D01*
X94580000Y-68899646D01*
X94580000Y-72217514D01*
X94579999Y-72217520D01*
X94580000Y-72217523D01*
X94574975Y-72252458D01*
X94570570Y-72267456D01*
X94532809Y-72326215D01*
X94531571Y-72327288D01*
X94476394Y-72354821D01*
X94468539Y-72356508D01*
X94441848Y-72359270D01*
X89773275Y-72334662D01*
X89738374Y-72329457D01*
X89723396Y-72324974D01*
X89664816Y-72286894D01*
X89663490Y-72285346D01*
X89636424Y-72230709D01*
X89634863Y-72223440D01*
X89632099Y-72197405D01*
X89632099Y-71109949D01*
X89632098Y-71109941D01*
X89626176Y-71080165D01*
X89626176Y-71080163D01*
X89603610Y-71046390D01*
X89569837Y-71023824D01*
X89569836Y-71023823D01*
X89569835Y-71023823D01*
X89540057Y-71017900D01*
X89540056Y-71017900D01*
X87519947Y-71017900D01*
X87519927Y-71017903D01*
X87514122Y-71019058D01*
X87514120Y-71019058D01*
X87490165Y-71023823D01*
X87490163Y-71023823D01*
X87490163Y-71023824D01*
X87469856Y-71037392D01*
X87469852Y-71037394D01*
X87456389Y-71046390D01*
X87433823Y-71080163D01*
X87433821Y-71080168D01*
X87427900Y-71109935D01*
X87427900Y-71626070D01*
X87427899Y-71626076D01*
X87427900Y-71626079D01*
X87422875Y-71661014D01*
X87418470Y-71676012D01*
X87380727Y-71734755D01*
X87380692Y-71734785D01*
X87380691Y-71734787D01*
X87380689Y-71734787D01*
X87379358Y-71735942D01*
X87324497Y-71763418D01*
X87316939Y-71765063D01*
X87290568Y-71767900D01*
X83573929Y-71767900D01*
X83573924Y-71767899D01*
X83573922Y-71767900D01*
X83538988Y-71762875D01*
X83523989Y-71758470D01*
X83465243Y-71720727D01*
X83465214Y-71720693D01*
X83465213Y-71720693D01*
X83465212Y-71720691D01*
X83464056Y-71719358D01*
X83436576Y-71664483D01*
X83434931Y-71656921D01*
X83432099Y-71630568D01*
X83432099Y-71116217D01*
X83432099Y-71109949D01*
X83432098Y-71109941D01*
X83426176Y-71080165D01*
X83426176Y-71080163D01*
X83403610Y-71046390D01*
X83369837Y-71023824D01*
X83369836Y-71023823D01*
X83369835Y-71023823D01*
X83364727Y-71022807D01*
X83364192Y-71022064D01*
X83357855Y-71021440D01*
X83340060Y-71017900D01*
X83340059Y-71017900D01*
X81441830Y-71017900D01*
X81441825Y-71017899D01*
X81441823Y-71017900D01*
X81406889Y-71012875D01*
X81391890Y-71008470D01*
X81333144Y-70970727D01*
X81333115Y-70970693D01*
X81333114Y-70970693D01*
X81333113Y-70970691D01*
X81331957Y-70969358D01*
X81304477Y-70914483D01*
X81302832Y-70906921D01*
X81300000Y-70880568D01*
X81300000Y-67392824D01*
X81305021Y-67357897D01*
X81308207Y-67347044D01*
X81345977Y-67288263D01*
X81409531Y-67259234D01*
X81478686Y-67269172D01*
X81485672Y-67272362D01*
X81521839Y-67297472D01*
X81660342Y-67435975D01*
X81660345Y-67435977D01*
X81660349Y-67435980D01*
X81660348Y-67435980D01*
X81660411Y-67436032D01*
X81660448Y-67436046D01*
X81832402Y-67550941D01*
X82023580Y-67630130D01*
X82214540Y-67668114D01*
X82223559Y-67669908D01*
X82225794Y-67670409D01*
X82226532Y-67670500D01*
X82433466Y-67670500D01*
X82437586Y-67670500D01*
X82445435Y-67668118D01*
X82636420Y-67630130D01*
X82827598Y-67550941D01*
X82999655Y-67435977D01*
X83145977Y-67289655D01*
X83260941Y-67117598D01*
X83340130Y-66926420D01*
X83380500Y-66723465D01*
X83380500Y-66516535D01*
X83340130Y-66313580D01*
X83260941Y-66122402D01*
X83157224Y-65967178D01*
X83146177Y-65946721D01*
X83144908Y-65943730D01*
X83144909Y-65943730D01*
X83137980Y-65927400D01*
X83129918Y-65858000D01*
X83160658Y-65795255D01*
X83218817Y-65759531D01*
X83227451Y-65757123D01*
X83229115Y-65756659D01*
X83262429Y-65752100D01*
X85777275Y-65752100D01*
X85812210Y-65757123D01*
G37*
%TD.AperFunction*%
%TD*%
%TA.AperFunction,Conductor*%
%TO.N,/VDD*%
G36*
X109395630Y-96993391D02*
G01*
X109463486Y-97014272D01*
X109509281Y-97068525D01*
X109520000Y-97119380D01*
X109520000Y-112281949D01*
X109510909Y-112312907D01*
X109503492Y-112344299D01*
X109500981Y-112346721D01*
X109499998Y-112350070D01*
X109475618Y-112371195D01*
X109452402Y-112393597D01*
X109447954Y-112395166D01*
X109446342Y-112396563D01*
X109418581Y-112405528D01*
X109393188Y-112410579D01*
X109368608Y-112413000D01*
X109148860Y-112413000D01*
X109148851Y-112413001D01*
X109049665Y-112426059D01*
X109038644Y-112427510D01*
X109038642Y-112427510D01*
X109038641Y-112427511D01*
X108901507Y-112484312D01*
X108783740Y-112574678D01*
X108693374Y-112692445D01*
X108636572Y-112829581D01*
X108622062Y-112939795D01*
X108622062Y-113124201D01*
X108622063Y-113124210D01*
X108634959Y-113222171D01*
X108636382Y-113232978D01*
X108636572Y-113234417D01*
X108636724Y-113234784D01*
X108636760Y-113235119D01*
X108638709Y-113242393D01*
X108637574Y-113242697D01*
X108644311Y-113305374D01*
X108636726Y-113331209D01*
X108636572Y-113331580D01*
X108622062Y-113441795D01*
X108622062Y-113626201D01*
X108622063Y-113626210D01*
X108636572Y-113736417D01*
X108636724Y-113736784D01*
X108636760Y-113737119D01*
X108638709Y-113744393D01*
X108637574Y-113744697D01*
X108644311Y-113807374D01*
X108636726Y-113833209D01*
X108636572Y-113833580D01*
X108622062Y-113943795D01*
X108622062Y-114128201D01*
X108622063Y-114128210D01*
X108634854Y-114225369D01*
X108636382Y-114236978D01*
X108636572Y-114238417D01*
X108636724Y-114238784D01*
X108636783Y-114239208D01*
X108638709Y-114246393D01*
X108637829Y-114246628D01*
X108645516Y-114301155D01*
X108643520Y-114318807D01*
X108636572Y-114335582D01*
X108622062Y-114445797D01*
X108622062Y-114508594D01*
X108621264Y-114515656D01*
X108610141Y-114542096D01*
X108602060Y-114569621D01*
X108596558Y-114574388D01*
X108593736Y-114581098D01*
X108570083Y-114597328D01*
X108548404Y-114616114D01*
X108540064Y-114617928D01*
X108535196Y-114621269D01*
X108523014Y-114621637D01*
X108496062Y-114627500D01*
X102725061Y-114627500D01*
X102656940Y-114607498D01*
X102610447Y-114553842D01*
X102599061Y-114501500D01*
X102599061Y-114445798D01*
X102599060Y-114445789D01*
X102586796Y-114352631D01*
X102584552Y-114335582D01*
X102584401Y-114335219D01*
X102584366Y-114334887D01*
X102582414Y-114327601D01*
X102583550Y-114327296D01*
X102576812Y-114264631D01*
X102584402Y-114238780D01*
X102584552Y-114238418D01*
X102599062Y-114128203D01*
X102599061Y-113943798D01*
X102584552Y-113833582D01*
X102584401Y-113833219D01*
X102584366Y-113832887D01*
X102582414Y-113825601D01*
X102583550Y-113825296D01*
X102576812Y-113762631D01*
X102584402Y-113736780D01*
X102584552Y-113736418D01*
X102599062Y-113626203D01*
X102599061Y-113441798D01*
X102584552Y-113331582D01*
X102584401Y-113331219D01*
X102584366Y-113330887D01*
X102582414Y-113323601D01*
X102583550Y-113323296D01*
X102576812Y-113260631D01*
X102584402Y-113234780D01*
X102584552Y-113234418D01*
X102599062Y-113124203D01*
X102599061Y-112939798D01*
X102584552Y-112829582D01*
X102549670Y-112745369D01*
X102527749Y-112692445D01*
X102523885Y-112687409D01*
X102437384Y-112574678D01*
X102319620Y-112484315D01*
X102319619Y-112484314D01*
X102319616Y-112484312D01*
X102182480Y-112427510D01*
X102072267Y-112413000D01*
X102072265Y-112413000D01*
X101916000Y-112413000D01*
X101847879Y-112392998D01*
X101801386Y-112339342D01*
X101790000Y-112287000D01*
X101790000Y-97022640D01*
X101810002Y-96954519D01*
X101863658Y-96908026D01*
X101917629Y-96896651D01*
X109395630Y-96993391D01*
G37*
%TD.AperFunction*%
%TD*%
%TA.AperFunction,Conductor*%
%TO.N,unconnected-(J7-MountPin-PadMP)*%
G36*
X102754205Y-140419685D02*
G01*
X102799960Y-140472489D01*
X102809904Y-140541647D01*
X102780879Y-140605203D01*
X102774846Y-140611682D01*
X102733442Y-140653085D01*
X102724424Y-140659636D01*
X102712378Y-140669990D01*
X102707358Y-140673186D01*
X102611658Y-140721950D01*
X102578074Y-140755533D01*
X102566616Y-140762832D01*
X102499497Y-140782244D01*
X102432538Y-140762288D01*
X102412319Y-140745926D01*
X102388347Y-140721954D01*
X102388344Y-140721952D01*
X102388342Y-140721950D01*
X102311517Y-140682805D01*
X102275301Y-140664352D01*
X102181524Y-140649500D01*
X101818482Y-140649500D01*
X101737519Y-140662323D01*
X101724696Y-140664354D01*
X101611658Y-140721950D01*
X101611657Y-140721951D01*
X101611652Y-140721954D01*
X101521954Y-140811652D01*
X101521951Y-140811657D01*
X101464352Y-140924698D01*
X101449500Y-141018475D01*
X101449500Y-142331517D01*
X101460292Y-142399657D01*
X101464354Y-142425304D01*
X101521950Y-142538342D01*
X101521952Y-142538344D01*
X101521954Y-142538347D01*
X101611652Y-142628045D01*
X101611654Y-142628046D01*
X101611658Y-142628050D01*
X101724696Y-142685646D01*
X101777932Y-142694077D01*
X101841064Y-142724005D01*
X101846214Y-142728869D01*
X102621046Y-143503701D01*
X102736087Y-143570120D01*
X102830013Y-143595286D01*
X102830015Y-143595287D01*
X102830016Y-143595287D01*
X102839229Y-143597755D01*
X102864397Y-143604500D01*
X102864398Y-143604500D01*
X102997235Y-143604500D01*
X103991771Y-143604500D01*
X104058810Y-143624185D01*
X104079453Y-143640820D01*
X104121580Y-143682948D01*
X104121584Y-143682951D01*
X104244498Y-143765080D01*
X104244511Y-143765087D01*
X104381082Y-143821656D01*
X104381087Y-143821658D01*
X104381091Y-143821658D01*
X104381092Y-143821659D01*
X104526079Y-143850500D01*
X104526082Y-143850500D01*
X104673920Y-143850500D01*
X104771462Y-143831096D01*
X104818913Y-143821658D01*
X104955495Y-143765084D01*
X105078416Y-143682951D01*
X105182951Y-143578416D01*
X105265084Y-143455495D01*
X105321658Y-143318913D01*
X105350500Y-143173918D01*
X105350500Y-143026082D01*
X105350500Y-143026079D01*
X105321659Y-142881092D01*
X105321658Y-142881091D01*
X105321658Y-142881087D01*
X105290597Y-142806101D01*
X105283129Y-142736632D01*
X105314404Y-142674153D01*
X105348862Y-142648165D01*
X105388342Y-142628050D01*
X105478050Y-142538342D01*
X105535646Y-142425304D01*
X105535646Y-142425302D01*
X105535647Y-142425301D01*
X105550499Y-142331524D01*
X105550500Y-142331519D01*
X105550499Y-141671543D01*
X105570183Y-141604505D01*
X105586818Y-141583863D01*
X105782070Y-141388612D01*
X105828214Y-141308688D01*
X105852100Y-141219543D01*
X105852100Y-141127256D01*
X105852100Y-140524000D01*
X105871785Y-140456961D01*
X105924589Y-140411206D01*
X105976100Y-140400000D01*
X108476000Y-140400000D01*
X108543039Y-140419685D01*
X108588794Y-140472489D01*
X108600000Y-140524000D01*
X108600000Y-147076000D01*
X108580315Y-147143039D01*
X108527511Y-147188794D01*
X108476000Y-147200000D01*
X99024000Y-147200000D01*
X98956961Y-147180315D01*
X98911206Y-147127511D01*
X98900000Y-147076000D01*
X98900000Y-140524000D01*
X98919685Y-140456961D01*
X98972489Y-140411206D01*
X99024000Y-140400000D01*
X102687166Y-140400000D01*
X102754205Y-140419685D01*
G37*
%TD.AperFunction*%
%TD*%
%TA.AperFunction,Conductor*%
%TO.N,GND*%
G36*
X102026226Y-59639591D02*
G01*
X102093200Y-59659496D01*
X102138780Y-59712451D01*
X102149816Y-59763773D01*
X102140183Y-66276273D01*
X102120399Y-66343284D01*
X102067528Y-66388960D01*
X102016274Y-66400090D01*
X95976191Y-66404501D01*
X95909137Y-66384865D01*
X95863343Y-66332095D01*
X95852100Y-66280501D01*
X95852100Y-65353647D01*
X95852100Y-65353645D01*
X95828105Y-65264095D01*
X95781750Y-65183806D01*
X95716194Y-65118250D01*
X95635905Y-65071895D01*
X95546355Y-65047900D01*
X95334000Y-65047900D01*
X95266961Y-65028215D01*
X95221206Y-64975411D01*
X95210000Y-64923900D01*
X95210000Y-64784721D01*
X81093308Y-64760214D01*
X81026303Y-64740413D01*
X80980639Y-64687530D01*
X80969524Y-64636695D01*
X80956463Y-61247273D01*
X92499500Y-61247273D01*
X92499500Y-61352727D01*
X92526793Y-61454587D01*
X92579520Y-61545913D01*
X92654087Y-61620480D01*
X92745413Y-61673207D01*
X92847273Y-61700500D01*
X92847275Y-61700500D01*
X92952725Y-61700500D01*
X92952727Y-61700500D01*
X93054587Y-61673207D01*
X93145913Y-61620480D01*
X93220480Y-61545913D01*
X93273207Y-61454587D01*
X93300500Y-61352727D01*
X93300500Y-61247273D01*
X93273207Y-61145413D01*
X93220480Y-61054087D01*
X93145913Y-60979520D01*
X93054587Y-60926793D01*
X92952727Y-60899500D01*
X92847273Y-60899500D01*
X92745413Y-60926793D01*
X92745410Y-60926794D01*
X92654085Y-60979521D01*
X92579521Y-61054085D01*
X92526794Y-61145410D01*
X92526793Y-61145413D01*
X92499500Y-61247273D01*
X80956463Y-61247273D01*
X80950481Y-59694888D01*
X80969907Y-59627774D01*
X81022534Y-59581816D01*
X81074887Y-59570412D01*
X102026226Y-59639591D01*
G37*
%TD.AperFunction*%
%TD*%
M02*
