M48
; DRILL file KiCad 10.0.3+dfsg-1 date 2026-09-06T21:22:59
; FORMAT={-:-/ absolute / metric / decimal}
; #@! TF.CreationDate,2026-09-06T21:22:59-03:00
; #@! TF.GenerationSoftware,Kicad,Pcbnew,10.0.3+dfsg-1
; #@! TF.FileFunction,Plated,1,4,PTH
FMAT,2
METRIC
; #@! TA.AperFunction,Plated,PTH,ViaDrill
T1C0.300
; #@! TA.AperFunction,Plated,PTH,ComponentDrill
T2C0.300
; #@! TA.AperFunction,Plated,PTH,ViaDrill
T3C0.400
; #@! TA.AperFunction,Plated,PTH,ComponentDrill
T4C0.500
; #@! TA.AperFunction,Plated,PTH,ViaDrill
T5C0.600
; #@! TA.AperFunction,Plated,PTH,ComponentDrill
T6C0.600
; #@! TA.AperFunction,Plated,PTH,ViaDrill
T7C0.800
; #@! TA.AperFunction,Plated,PTH,ComponentDrill
T8C1.000
; #@! TA.AperFunction,Plated,PTH,ComponentDrill
T9C1.067
; #@! TA.AperFunction,Plated,PTH,ComponentDrill
T10C3.000
%
G90
G05
T1
X82.13Y-73.91
X82.39Y-70.7
X82.39Y-75.9
X83.66Y-76.57
X88.97Y-81.22
X88.99Y-80.51
X89.02Y-82.28
X89.17Y-77.83
X89.34Y-73.77
X89.34Y-74.96
X90.68Y-72.94
X90.9Y-132.8
X91.27Y-80.45
X91.4Y-120.43
X91.69Y-82.98
X91.75Y-80.98
X92.18Y-119.96
X92.48Y-112.21
X92.48Y-113.611
X92.48Y-115.013
X92.48Y-116.414
X92.48Y-117.816
X92.57Y-74.11
X92.9Y-61.3
X92.94Y-119.93
X93.33Y-81.55
X93.57Y-136.7
X94.2Y-61.3
X94.318Y-134.23
X94.34Y-133.58
X95.08Y-91.22
X95.8Y-76.5
X97.3Y-75.09
X98.3Y-72.2
X99.78Y-81.02
X102.7Y-79.05
X102.82Y-73.74
X102.95Y-76.0
X103.43Y-83.4
X103.9Y-78.65
X104.7Y-139.4
X105.5Y-75.0
X105.65Y-79.8
X105.65Y-83.45
X108.5Y-79.595
X109.41Y-74.49
X113.77Y-99.77
X113.8Y-98.95
X113.83Y-100.5
X115.58Y-78.42
X116.38Y-79.25
X118.32Y-108.37
X118.74Y-113.66
X119.42Y-114.79
X119.42Y-118.02
X119.43Y-116.25
X120.85Y-69.51
X121.244Y-66.946
X121.477Y-70.17
X122.101Y-70.905
X123.04Y-59.73
X123.105Y-61.285
X124.54Y-121.82
X124.83Y-55.1
X126.52Y-102.64
X127.228Y-104.448
T2
X91.18Y-77.59
X92.18Y-76.31
X92.18Y-77.59
X92.18Y-78.87
X93.58Y-76.31
X93.58Y-77.59
X93.58Y-78.87
X94.98Y-76.31
X94.98Y-77.59
X94.98Y-78.87
X95.98Y-77.59
T3
X84.5Y-76.16
X91.79Y-89.91
X92.33Y-67.27
X92.33Y-69.27
X92.33Y-71.22
X92.35Y-66.25
X92.35Y-68.3
X92.35Y-70.25
X92.68Y-133.37
X93.6Y-67.25
X93.6Y-69.25
X93.6Y-71.2
X93.62Y-66.23
X93.62Y-68.28
X93.62Y-70.23
X95.55Y-135.97
X95.56Y-126.33
X96.07Y-137.65
X96.07Y-141.2
X96.6Y-108.92
X97.45Y-60.2
X97.45Y-61.1
X98.05Y-114.26
X98.14Y-111.06
X98.44Y-121.49
X98.45Y-78.23
X98.46Y-74.92
X98.46Y-76.63
X98.75Y-60.2
X98.75Y-61.1
X98.77Y-138.72
X99.18Y-123.71
X99.36Y-109.21
X99.37Y-119.24
X99.49Y-70.39
X99.55Y-67.97
X99.71Y-131.42
X100.05Y-61.7
X100.05Y-62.8
X100.05Y-63.8
X100.05Y-64.75
X100.05Y-65.75
X100.1Y-60.7
X100.49Y-76.62
X100.554Y-107.457
X100.77Y-123.7
X101.35Y-61.7
X101.35Y-62.8
X101.35Y-63.8
X101.35Y-64.75
X101.35Y-65.75
X101.4Y-60.7
X102.5Y-97.9
X102.5Y-99.0
X102.5Y-100.1
X102.5Y-101.3
X102.5Y-102.4
X102.57Y-76.6
X103.75Y-97.9
X103.75Y-99.0
X103.75Y-100.1
X103.75Y-101.3
X103.75Y-102.4
X104.49Y-115.746
X104.49Y-116.84
X104.49Y-117.76
X104.49Y-118.7
X104.49Y-119.91
X104.56Y-76.6
X104.64Y-130.47
X105.0Y-97.9
X105.0Y-99.0
X105.0Y-100.1
X105.0Y-101.3
X105.54Y-132.55
X105.61Y-116.83
X105.63Y-118.7
X106.25Y-97.9
X106.25Y-99.0
X106.25Y-100.1
X106.25Y-101.3
X106.74Y-115.766
X106.74Y-116.86
X106.74Y-117.78
X106.74Y-118.72
X106.74Y-119.93
X107.5Y-97.9
X107.5Y-99.0
X107.5Y-100.1
X107.5Y-101.3
X107.5Y-102.4
X108.29Y-131.179
X108.75Y-97.88
X108.75Y-98.98
X108.75Y-100.08
X108.75Y-101.28
X108.75Y-102.38
X110.95Y-124.99
X110.97Y-123.7
X111.03Y-107.87
X111.85Y-85.1
X111.86Y-83.0
X111.9Y-87.4
X111.9Y-89.05
X111.9Y-90.2
X111.9Y-91.4
X112.0Y-86.15
X112.16Y-74.52
X112.18Y-119.26
X112.18Y-120.8
X112.39Y-109.35
X112.512Y-61.25
X112.98Y-114.27
X113.18Y-130.22
X113.47Y-111.29
X113.58Y-132.65
X115.26Y-109.04
X116.05Y-128.01
X116.77Y-124.08
X116.99Y-98.2
X117.09Y-100.36
X117.12Y-101.75
X117.55Y-103.0
X118.711Y-59.8
X119.27Y-54.22
X119.28Y-102.93
X121.58Y-112.4
X122.64Y-102.46
X122.93Y-99.7
X123.394Y-86.26
X123.71Y-120.23
X123.75Y-117.53
X124.6Y-101.83
X125.6Y-65.94
X127.25Y-107.63
X128.13Y-56.09
X128.69Y-107.62
X129.83Y-56.09
X132.297Y-108.743
T4
X78.455Y-143.831
X78.558Y-51.054
X79.114Y-142.24
X79.114Y-145.422
X79.217Y-49.463
X79.217Y-52.645
X80.705Y-141.581
X80.705Y-146.081
X80.808Y-48.804
X80.808Y-53.304
X82.296Y-142.24
X82.296Y-145.422
X82.399Y-49.463
X82.399Y-52.645
X82.955Y-143.831
X83.058Y-51.054
X127.985Y-51.121
X128.052Y-143.728
X128.644Y-49.53
X128.644Y-52.712
X128.711Y-142.137
X128.711Y-145.319
X130.235Y-48.871
X130.235Y-53.371
X130.302Y-141.478
X130.302Y-145.978
X131.826Y-49.53
X131.826Y-52.712
X131.893Y-142.137
X131.893Y-145.319
X132.485Y-51.121
X132.552Y-143.728
T5
X80.68Y-61.05
X104.6Y-143.1
X115.37Y-61.56
X116.54Y-70.92
X117.91Y-70.95
X119.454Y-70.914
X126.0Y-84.5
X128.02Y-84.45
T7
X109.28Y-61.185
X111.44Y-55.18
T8
X87.005Y-50.292
X87.005Y-55.372
X87.405Y-52.832
X87.405Y-57.912
X99.172Y-51.054
X101.712Y-51.054
X104.252Y-51.054
X106.792Y-51.054
X109.332Y-51.054
X111.872Y-51.054
T9
X89.621Y-143.622
X92.161Y-143.622
X94.701Y-143.622
X97.241Y-143.622
T10
X80.705Y-143.831
X80.808Y-51.054
X130.235Y-51.121
X130.302Y-143.728
T6
X79.39Y-78.94G85X80.19Y-78.94
G05
X79.39Y-87.58G85X80.19Y-87.58
G05
X83.42Y-78.94G85X84.52Y-78.94
G05
X83.42Y-87.58G85X84.52Y-87.58
G05
M30
