%TF.GenerationSoftware,KiCad,Pcbnew,8.0.7*%
%TF.CreationDate,2025-01-27T23:16:30-05:00*%
%TF.ProjectId,bitaxeGamma,62697461-7865-4476-916d-6d612e6b6963,rev?*%
%TF.SameCoordinates,Original*%
%TF.FileFunction,Copper,L3,Inr*%
%TF.FilePolarity,Positive*%
%FSLAX46Y46*%
G04 Gerber Fmt 4.6, Leading zero omitted, Abs format (unit mm)*
G04 Created by KiCad (PCBNEW 8.0.7) date 2025-01-27 23:16:30*
%MOMM*%
%LPD*%
G01*
G04 APERTURE LIST*
%TA.AperFunction,ComponentPad*%
%ADD10C,6.000000*%
%TD*%
%TA.AperFunction,ComponentPad*%
%ADD11C,0.800000*%
%TD*%
%TA.AperFunction,ComponentPad*%
%ADD12R,1.700000X1.700000*%
%TD*%
%TA.AperFunction,ComponentPad*%
%ADD13O,1.700000X1.700000*%
%TD*%
%TA.AperFunction,ComponentPad*%
%ADD14C,0.400000*%
%TD*%
%TA.AperFunction,ComponentPad*%
%ADD15C,1.574800*%
%TD*%
%TA.AperFunction,ComponentPad*%
%ADD16C,1.700000*%
%TD*%
%TA.AperFunction,ComponentPad*%
%ADD17O,1.800000X1.000000*%
%TD*%
%TA.AperFunction,ComponentPad*%
%ADD18O,2.100000X1.000000*%
%TD*%
%TA.AperFunction,ViaPad*%
%ADD19C,0.800000*%
%TD*%
%TA.AperFunction,ViaPad*%
%ADD20C,1.000000*%
%TD*%
%TA.AperFunction,ViaPad*%
%ADD21C,0.500000*%
%TD*%
%TA.AperFunction,ViaPad*%
%ADD22C,1.200000*%
%TD*%
%TA.AperFunction,Conductor*%
%ADD23C,1.500000*%
%TD*%
%TA.AperFunction,Conductor*%
%ADD24C,0.508000*%
%TD*%
%TA.AperFunction,Profile*%
%ADD25C,0.001000*%
%TD*%
G04 APERTURE END LIST*
D10*
%TO.N,GND*%
%TO.C,H6*%
X84710000Y-94910000D03*
%TD*%
%TO.N,GND*%
%TO.C,H5*%
X126060000Y-136260000D03*
%TD*%
D11*
%TO.N,GND*%
%TO.C,H1*%
X127985010Y-51120990D03*
X128644020Y-49530000D03*
X128644020Y-52711980D03*
X130235010Y-48870990D03*
D10*
X130235010Y-51120990D03*
D11*
X130235010Y-53370990D03*
X131826000Y-49530000D03*
X131826000Y-52711980D03*
X132485010Y-51120990D03*
%TD*%
%TO.N,GND*%
%TO.C,H3*%
X128052000Y-143728000D03*
X128711010Y-142137010D03*
X128711010Y-145318990D03*
X130302000Y-141478000D03*
D10*
X130302000Y-143728000D03*
D11*
X130302000Y-145978000D03*
X131892990Y-142137010D03*
X131892990Y-145318990D03*
X132552000Y-143728000D03*
%TD*%
D12*
%TO.N,/5V*%
%TO.C,J4*%
X99171505Y-51054000D03*
D13*
%TO.N,GND*%
X101711505Y-51054000D03*
%TO.N,Net-(J4-Pin_3)*%
X104251505Y-51054000D03*
%TO.N,Net-(J4-Pin_4)*%
X106791505Y-51054000D03*
%TO.N,Net-(J4-Pin_5)*%
X109331505Y-51054000D03*
%TO.N,Net-(J4-Pin_6)*%
X111871505Y-51054000D03*
%TD*%
D11*
%TO.N,GND*%
%TO.C,H4*%
X78455010Y-143830990D03*
X79114020Y-142240000D03*
X79114020Y-145421980D03*
X80705010Y-141580990D03*
D10*
X80705010Y-143830990D03*
D11*
X80705010Y-146080990D03*
X82296000Y-142240000D03*
X82296000Y-145421980D03*
X82955010Y-143830990D03*
%TD*%
D10*
%TO.N,GND*%
%TO.C,H8*%
X84710000Y-136260000D03*
%TD*%
D11*
%TO.N,GND*%
%TO.C,H2*%
X78558000Y-51054000D03*
X79217010Y-49463010D03*
X79217010Y-52644990D03*
X80808000Y-48804000D03*
D10*
X80808000Y-51054000D03*
D11*
X80808000Y-53304000D03*
X82398990Y-49463010D03*
X82398990Y-52644990D03*
X83058000Y-51054000D03*
%TD*%
D10*
%TO.N,GND*%
%TO.C,H7*%
X126060000Y-94910000D03*
%TD*%
D14*
%TO.N,GND*%
%TO.C,U2*%
X92180000Y-78870000D03*
X93580000Y-78870000D03*
X94980000Y-78870000D03*
X91180000Y-77590000D03*
X92180000Y-77590000D03*
X93580000Y-77590000D03*
X94980000Y-77590000D03*
X95980000Y-77590000D03*
X92180000Y-76310000D03*
X93580000Y-76310000D03*
X94980000Y-76310000D03*
%TD*%
D15*
%TO.N,GND*%
%TO.C,J6*%
X89621000Y-143622000D03*
%TO.N,/5V*%
X92161000Y-143622000D03*
%TO.N,/Fan/FAN_TACH*%
X94701000Y-143622000D03*
%TO.N,/Fan/FAN_PWM*%
X97241000Y-143622000D03*
%TD*%
D16*
%TO.N,GND*%
%TO.C,J3*%
X87005000Y-50292000D03*
D13*
%TO.N,/3V3*%
X87405000Y-52832000D03*
%TO.N,/SCL*%
X87005000Y-55372000D03*
%TO.N,/SDA*%
X87405000Y-57912000D03*
%TD*%
D17*
%TO.N,GND*%
%TO.C,J5*%
X79790000Y-87580000D03*
D18*
X83970000Y-87580000D03*
D17*
X79790000Y-78940000D03*
D18*
X83970000Y-78940000D03*
%TD*%
D19*
%TO.N,/VDD*%
X105683334Y-107750000D03*
X108350000Y-107750000D03*
X103016668Y-107750000D03*
X103000000Y-109550000D03*
X108333332Y-109550000D03*
X105666666Y-109550000D03*
X105683334Y-105900000D03*
X100016668Y-105900000D03*
X103016668Y-105900000D03*
X108350000Y-105900000D03*
X111016668Y-105900000D03*
X105633334Y-103750000D03*
X99966668Y-103750000D03*
X102966668Y-103750000D03*
X108300000Y-103750000D03*
X110966668Y-103750000D03*
X105633334Y-101400000D03*
X99966668Y-101400000D03*
X102966668Y-101400000D03*
X108300000Y-101400000D03*
X110966668Y-101400000D03*
X105633334Y-99400000D03*
X99966668Y-99400000D03*
X102966668Y-99400000D03*
X108300000Y-99400000D03*
X110966668Y-99400000D03*
%TO.N,GND*%
X103575000Y-118425000D03*
X104983333Y-119600000D03*
X107800000Y-119600000D03*
X106391666Y-118425000D03*
X107783333Y-117300000D03*
X104966666Y-117300000D03*
X106391666Y-119600000D03*
X104983333Y-118425000D03*
X103558333Y-117300000D03*
X106374999Y-116125000D03*
X106374999Y-117300000D03*
X107783333Y-116125000D03*
X104966666Y-116125000D03*
X107800000Y-118425000D03*
X103558333Y-116125000D03*
X103575000Y-119600000D03*
%TO.N,/VDD*%
X100000000Y-97500000D03*
X108333332Y-97500000D03*
X111000000Y-97500000D03*
X103000000Y-97500000D03*
X105666666Y-97500000D03*
X103100000Y-112000000D03*
X106850000Y-111980000D03*
X108125000Y-110875000D03*
X103100000Y-110900000D03*
X104350000Y-110900000D03*
X106850000Y-110880000D03*
X108125000Y-111975000D03*
X105600000Y-112000000D03*
X105600000Y-110900000D03*
X104350000Y-112000000D03*
X108125000Y-114175000D03*
X103100000Y-113100000D03*
X106850000Y-113080000D03*
X103100000Y-114200000D03*
X108125000Y-113075000D03*
X104350000Y-114200000D03*
X106850000Y-114180000D03*
X104350000Y-113100000D03*
X105600000Y-113100000D03*
X105600000Y-114200000D03*
%TO.N,GND*%
X112180000Y-119260000D03*
X98800000Y-61660000D03*
X113580000Y-132650000D03*
X99800000Y-75550000D03*
X98050000Y-114260000D03*
X98800000Y-65700000D03*
X103500000Y-123700000D03*
X100050000Y-65750000D03*
X112180000Y-120800000D03*
X106316666Y-123700000D03*
X107725000Y-124875000D03*
X101350000Y-62720000D03*
X104908333Y-124875000D03*
X100050000Y-61710000D03*
X111900000Y-87400000D03*
X98800000Y-63680000D03*
X104640000Y-130470000D03*
X105540000Y-132550000D03*
D20*
X116540000Y-70920000D03*
D19*
X103500000Y-124875000D03*
X125600000Y-65940000D03*
X116770000Y-124080000D03*
D21*
X92400000Y-90600000D03*
D19*
X102550000Y-76750000D03*
X103483333Y-121400000D03*
X100050000Y-62720000D03*
X98800000Y-60650000D03*
X107725000Y-123700000D03*
X115350000Y-112400000D03*
X123750000Y-117530000D03*
X111900000Y-89050000D03*
X101350000Y-60700000D03*
X97600000Y-64640000D03*
X99800000Y-76700000D03*
X107708333Y-121400000D03*
X101100000Y-77950000D03*
X98954400Y-134128017D03*
X116050000Y-128010000D03*
X98800000Y-62670000D03*
X120175000Y-53550000D03*
X128130000Y-56090000D03*
X112980000Y-114270000D03*
D20*
X80680000Y-61050000D03*
X102100000Y-140255600D03*
D19*
X101350000Y-63730000D03*
X104891666Y-121400000D03*
X91790000Y-89910000D03*
X112000000Y-86150000D03*
X117090000Y-100360000D03*
X121580000Y-112400000D03*
X101350000Y-61710000D03*
X111860000Y-83000000D03*
X106299999Y-122575000D03*
X111850000Y-85100000D03*
X122640000Y-102460000D03*
X98331421Y-137649999D03*
X100050000Y-60700000D03*
X113180000Y-130220000D03*
D20*
X117910000Y-70950000D03*
D19*
X119440000Y-103510000D03*
X99370000Y-119240000D03*
X111900000Y-90200000D03*
X100050000Y-64740000D03*
X123710000Y-120230000D03*
X111900000Y-91400000D03*
X96125000Y-112350000D03*
X101100000Y-75550000D03*
X98500000Y-77950000D03*
X98800000Y-64690000D03*
X106299999Y-121400000D03*
X103483333Y-122575000D03*
X97600000Y-62620000D03*
X98440000Y-121490000D03*
X92680000Y-133370000D03*
X100050000Y-63730000D03*
X128690000Y-107620000D03*
X104908333Y-123700000D03*
X97600000Y-60600000D03*
X112512000Y-61250000D03*
X98500000Y-76700000D03*
X104560000Y-75650000D03*
X97600000Y-63630000D03*
X99800000Y-77950000D03*
X101100000Y-76700000D03*
D20*
X119454234Y-70914234D03*
D19*
X97600000Y-61610000D03*
D20*
X125800000Y-82625000D03*
D19*
X101350000Y-64740000D03*
X97600000Y-65650000D03*
X102550000Y-78000000D03*
X115440000Y-96940000D03*
X106316666Y-124875000D03*
X104891666Y-122575000D03*
X107708333Y-122575000D03*
X102550000Y-75600000D03*
X101350000Y-65750000D03*
X132297000Y-108743000D03*
X98500000Y-75550000D03*
%TO.N,/VDD*%
X102375000Y-83225000D03*
D21*
X120250000Y-76450000D03*
D19*
X104775000Y-83225000D03*
D21*
X84500000Y-76160000D03*
D19*
X101425000Y-85250000D03*
X103900000Y-85250000D03*
X102650000Y-85250000D03*
X102375000Y-82125000D03*
X104775000Y-82125000D03*
X103625000Y-83225000D03*
X103625000Y-82125000D03*
X106025000Y-82125000D03*
X105050000Y-85250000D03*
X101150000Y-82125000D03*
X101150000Y-83225000D03*
D21*
%TO.N,/ESP32/EN*%
X122101300Y-70905000D03*
X127228000Y-104448000D03*
D19*
%TO.N,/5V*%
X93620000Y-68280000D03*
X94750000Y-68300000D03*
X92350000Y-66250000D03*
X93600000Y-69250000D03*
X93600000Y-71200000D03*
X92350000Y-68300000D03*
X96020000Y-66230000D03*
D22*
X109280000Y-61185155D03*
D19*
X108290000Y-131179000D03*
X93600000Y-67250000D03*
X92350000Y-70250000D03*
X99710000Y-131420000D03*
X96000000Y-67250000D03*
X94730000Y-67270000D03*
X94750000Y-66250000D03*
D20*
X80680000Y-70950000D03*
D19*
X93620000Y-70230000D03*
X92330000Y-71220000D03*
X96020000Y-68280000D03*
X92330000Y-69270000D03*
X100900000Y-136150000D03*
X93620000Y-66230000D03*
X92330000Y-67270000D03*
D21*
X104700000Y-139400000D03*
D19*
X96000000Y-69250000D03*
X94730000Y-69270000D03*
%TO.N,/3V3*%
X129830000Y-56090000D03*
D20*
X124375000Y-82650000D03*
D19*
X123394000Y-86260000D03*
X112800000Y-73300000D03*
X96380000Y-133670000D03*
D22*
X111440000Y-55180000D03*
D19*
X122930000Y-99700000D03*
X120300000Y-56925000D03*
X127250000Y-107630000D03*
D20*
X115370000Y-61560000D03*
D19*
X95560000Y-126330000D03*
D21*
%TO.N,/TX*%
X120850000Y-78875000D03*
%TO.N,/RX*%
X120750000Y-77650000D03*
%TO.N,/RST*%
X121476817Y-70170000D03*
%TO.N,/SCL*%
X94317599Y-134229617D03*
X88970000Y-81220000D03*
%TO.N,/Fan/FAN_PWM*%
X92755000Y-129945000D03*
%TO.N,/Power/SW*%
X94825000Y-85195000D03*
X96210000Y-80950000D03*
X97018750Y-85195000D03*
X97870000Y-80950000D03*
X98700000Y-80950000D03*
X95380000Y-80950000D03*
X96287500Y-85195000D03*
X97750000Y-85195000D03*
X94550000Y-80950000D03*
X97040000Y-80950000D03*
X95556250Y-85195000D03*
%TO.N,Net-(U2-BP1V5)*%
X91690000Y-82980000D03*
X83660000Y-76570000D03*
%TO.N,/ESP32/P_TX*%
X124125000Y-61850000D03*
%TO.N,/ESP32/P_RX*%
X124125000Y-60375000D03*
%TO.N,/ESP32/IO0*%
X121244400Y-66945600D03*
X124830000Y-55100000D03*
X126520000Y-102640000D03*
%TO.N,Net-(U2-VDD5)*%
X92570000Y-74110000D03*
X102820000Y-73740000D03*
%TO.N,/Power/PGOOD*%
X89020000Y-82280000D03*
X109600000Y-73150000D03*
%TO.N,/SDA*%
X82130000Y-73910000D03*
X94340000Y-133580000D03*
X88990000Y-80510000D03*
X82390000Y-75900000D03*
D19*
%TO.N,Net-(U8-VDDIO_12_1)*%
X100770000Y-123700000D03*
%TO.N,Net-(U8-VDDIO_08_1)*%
X99180000Y-123710000D03*
D21*
%TO.N,Net-(U8-ROSC_SEL)*%
X119430000Y-116250000D03*
%TO.N,Net-(U8-LITE_PAD)*%
X119420000Y-118020000D03*
%TO.N,Net-(U8-INV_CLKO)*%
X124540000Y-121820000D03*
%TO.N,/Fan/TEMP_N*%
X92180000Y-119960000D03*
%TO.N,/Fan/TEMP_P*%
X92940000Y-119930000D03*
%TO.N,/Power/AGND*%
X89170000Y-77830000D03*
X90050000Y-73300000D03*
X89550000Y-74800000D03*
%TO.N,/Power/PMB_ALRT*%
X93330000Y-81550000D03*
D19*
%TO.N,/BM1370/VDD3_0*%
X113125000Y-113200000D03*
%TO.N,/BM1370/1V2*%
X110950000Y-124990000D03*
X124600000Y-101830000D03*
X115430000Y-103510000D03*
%TO.N,/BM1370/0V8*%
X110970000Y-123700000D03*
%TO.N,/BM1370/VDD2_0*%
X112017500Y-113042500D03*
%TO.N,/BM1370/VDD1_0*%
X110892500Y-112667500D03*
%TO.N,/BM1370/VDD1_1*%
X100540000Y-112125000D03*
%TO.N,/BM1370/VDD2_1*%
X99360000Y-112350000D03*
%TO.N,/BM1370/VDD3_1*%
X98767500Y-113657500D03*
D21*
%TO.N,/BM1370/BI*%
X119420000Y-114790000D03*
%TO.N,/BM1370/RST_N*%
X114380000Y-106220000D03*
%TO.N,/BM1370/CI*%
X115000536Y-105929128D03*
%TO.N,/BM1370/RO*%
X115575000Y-105625000D03*
X118320000Y-108370000D03*
%TO.N,/BM1370/CLKI*%
X118740000Y-113660000D03*
%TO.N,/BM1370/NRSTO*%
X92480000Y-112210000D03*
%TO.N,/BM1370/CO*%
X92480000Y-113611428D03*
%TO.N,/BM1370/RI*%
X92480000Y-115012856D03*
%TO.N,/BM1370/CLKO*%
X92480000Y-116414284D03*
%TO.N,/BM1370/BO*%
X92480000Y-117815712D03*
%TO.N,/BM1370/PIN_MODE*%
X91400000Y-120430000D03*
%TO.N,/Fan/FAN_TACH*%
X95170000Y-136070000D03*
%TD*%
D23*
%TO.N,/5V*%
X92322400Y-55317600D02*
X96586000Y-51054000D01*
X92322400Y-67442400D02*
X92322400Y-55317600D01*
D24*
X106784599Y-134883617D02*
X108290000Y-133378216D01*
X104700000Y-139400000D02*
X98800000Y-139400000D01*
D23*
X92207000Y-143576000D02*
X92161000Y-143622000D01*
D24*
X98800000Y-139400000D02*
X93060000Y-139400000D01*
D23*
X92161000Y-143622000D02*
X92161000Y-138501000D01*
X79950000Y-92140000D02*
X81900000Y-90190000D01*
X92161000Y-136761000D02*
X90645000Y-135245000D01*
D24*
X98800000Y-138250000D02*
X98800000Y-139400000D01*
X93060000Y-139400000D02*
X92161000Y-138501000D01*
D23*
X79950000Y-124550000D02*
X79950000Y-92140000D01*
X106895155Y-61185155D02*
X99171505Y-53461505D01*
X87190000Y-88540000D02*
X87190000Y-72574800D01*
X109280000Y-61185155D02*
X106895155Y-61185155D01*
D24*
X100900000Y-136150000D02*
X98800000Y-138250000D01*
D23*
X85540000Y-90190000D02*
X87190000Y-88540000D01*
D24*
X90645000Y-135515000D02*
X91276383Y-134883617D01*
D23*
X96586000Y-51054000D02*
X99171505Y-51054000D01*
X92161000Y-138501000D02*
X92161000Y-136761000D01*
D24*
X91276383Y-134883617D02*
X106784599Y-134883617D01*
D23*
X99171505Y-53461505D02*
X99171505Y-51054000D01*
D24*
X108290000Y-133378216D02*
X108290000Y-131179000D01*
D23*
X87190000Y-72574800D02*
X92322400Y-67442400D01*
D24*
X99710000Y-131420000D02*
X99710000Y-134883617D01*
D23*
X90645000Y-135245000D02*
X79950000Y-124550000D01*
X81900000Y-90190000D02*
X85540000Y-90190000D01*
%TD*%
%TA.AperFunction,Conductor*%
%TO.N,/VDD*%
G36*
X110599304Y-79474697D02*
G01*
X110667376Y-79494864D01*
X110713739Y-79548631D01*
X110725000Y-79600697D01*
X110725000Y-92300000D01*
X111687575Y-92271620D01*
X111756254Y-92289605D01*
X111789266Y-92318343D01*
X112272032Y-92915410D01*
X112299309Y-92980958D01*
X112300053Y-92994480D01*
X112323268Y-112286917D01*
X112303348Y-112355062D01*
X112249748Y-112401620D01*
X112179486Y-112411808D01*
X112167115Y-112409408D01*
X112096488Y-112392000D01*
X112096485Y-112392000D01*
X111938515Y-112392000D01*
X111938512Y-112392000D01*
X111785138Y-112429802D01*
X111785130Y-112429806D01*
X111671652Y-112489364D01*
X111602039Y-112503311D01*
X111535936Y-112477407D01*
X111495285Y-112422477D01*
X111472719Y-112362975D01*
X111472716Y-112362970D01*
X111382983Y-112232970D01*
X111382981Y-112232968D01*
X111264740Y-112128217D01*
X111124865Y-112054804D01*
X111124861Y-112054802D01*
X110971487Y-112017000D01*
X110971485Y-112017000D01*
X110813515Y-112017000D01*
X110813512Y-112017000D01*
X110660138Y-112054802D01*
X110660134Y-112054804D01*
X110520259Y-112128217D01*
X110402018Y-112232968D01*
X110402016Y-112232970D01*
X110312283Y-112362970D01*
X110312282Y-112362973D01*
X110256261Y-112510684D01*
X110237222Y-112667496D01*
X110237222Y-112667503D01*
X110256261Y-112824315D01*
X110280901Y-112889283D01*
X110312280Y-112972023D01*
X110312281Y-112972025D01*
X110312282Y-112972026D01*
X110312283Y-112972029D01*
X110402016Y-113102029D01*
X110402018Y-113102031D01*
X110461138Y-113154406D01*
X110520260Y-113206783D01*
X110660135Y-113280196D01*
X110660136Y-113280196D01*
X110660138Y-113280197D01*
X110689854Y-113287521D01*
X110813515Y-113318000D01*
X110813517Y-113318000D01*
X110971483Y-113318000D01*
X110971485Y-113318000D01*
X111124865Y-113280196D01*
X111238348Y-113220634D01*
X111307959Y-113206688D01*
X111374062Y-113232591D01*
X111414714Y-113287521D01*
X111437281Y-113347026D01*
X111437283Y-113347029D01*
X111527016Y-113477029D01*
X111527018Y-113477031D01*
X111586138Y-113529406D01*
X111645260Y-113581783D01*
X111785135Y-113655196D01*
X111785136Y-113655196D01*
X111785138Y-113655197D01*
X111861825Y-113674098D01*
X111938515Y-113693000D01*
X111938517Y-113693000D01*
X112104106Y-113693000D01*
X112104106Y-113695389D01*
X112162612Y-113705112D01*
X112215238Y-113752767D01*
X112233746Y-113821309D01*
X112212259Y-113888976D01*
X112211605Y-113889937D01*
X111537646Y-114870241D01*
X111482571Y-114915043D01*
X111433549Y-114924858D01*
X99799220Y-114900104D01*
X99731142Y-114879957D01*
X99713883Y-114866558D01*
X99165563Y-114358854D01*
X99129168Y-114297895D01*
X99131507Y-114226937D01*
X99167616Y-114172087D01*
X99257978Y-114092035D01*
X99257979Y-114092032D01*
X99257983Y-114092030D01*
X99347720Y-113962023D01*
X99403737Y-113814318D01*
X99403737Y-113814317D01*
X99403738Y-113814315D01*
X99422778Y-113657503D01*
X99422778Y-113657496D01*
X99403738Y-113500684D01*
X99385416Y-113452373D01*
X99347720Y-113352977D01*
X99347716Y-113352972D01*
X99347716Y-113352970D01*
X99257983Y-113222970D01*
X99255550Y-113220815D01*
X99254279Y-113218789D01*
X99252927Y-113217263D01*
X99253180Y-113217038D01*
X99217823Y-113160672D01*
X99218601Y-113089679D01*
X99257637Y-113030377D01*
X99322537Y-113001594D01*
X99339101Y-113000500D01*
X99438983Y-113000500D01*
X99438985Y-113000500D01*
X99592365Y-112962696D01*
X99732240Y-112889283D01*
X99850483Y-112784530D01*
X99940220Y-112654523D01*
X99940220Y-112654521D01*
X99941589Y-112652539D01*
X99996747Y-112607839D01*
X100067316Y-112600056D01*
X100128837Y-112629802D01*
X100167756Y-112664280D01*
X100167757Y-112664281D01*
X100167758Y-112664281D01*
X100167760Y-112664283D01*
X100307635Y-112737696D01*
X100307636Y-112737696D01*
X100307638Y-112737697D01*
X100384325Y-112756598D01*
X100461015Y-112775500D01*
X100461017Y-112775500D01*
X100618983Y-112775500D01*
X100618985Y-112775500D01*
X100772365Y-112737696D01*
X100912240Y-112664283D01*
X101030483Y-112559530D01*
X101120026Y-112429804D01*
X101120216Y-112429529D01*
X101120216Y-112429528D01*
X101120220Y-112429523D01*
X101176237Y-112281818D01*
X101176237Y-112281817D01*
X101176238Y-112281815D01*
X101195278Y-112125003D01*
X101195278Y-112124996D01*
X101176238Y-111968184D01*
X101156246Y-111915470D01*
X101120220Y-111820477D01*
X101120216Y-111820472D01*
X101120216Y-111820470D01*
X101030483Y-111690470D01*
X101030481Y-111690468D01*
X100912240Y-111585717D01*
X100772365Y-111512304D01*
X100772361Y-111512302D01*
X100618987Y-111474500D01*
X100618985Y-111474500D01*
X100461015Y-111474500D01*
X100461012Y-111474500D01*
X100307638Y-111512302D01*
X100307634Y-111512304D01*
X100167759Y-111585717D01*
X100060878Y-111680405D01*
X100049517Y-111690470D01*
X100017190Y-111737304D01*
X99958410Y-111822461D01*
X99903251Y-111867160D01*
X99832682Y-111874943D01*
X99771162Y-111845198D01*
X99732240Y-111810717D01*
X99592365Y-111737304D01*
X99592361Y-111737302D01*
X99438987Y-111699500D01*
X99438985Y-111699500D01*
X99281015Y-111699500D01*
X99281009Y-111699500D01*
X99179599Y-111724495D01*
X99108671Y-111721376D01*
X99050689Y-111680405D01*
X99024062Y-111614591D01*
X99023471Y-111604612D01*
X98650394Y-92270433D01*
X98656086Y-92230487D01*
X100350000Y-86800000D01*
X100350000Y-79576304D01*
X100370002Y-79508183D01*
X100423658Y-79461690D01*
X100476302Y-79450304D01*
X110599304Y-79474697D01*
G37*
%TD.AperFunction*%
%TD*%
%TA.AperFunction,Conductor*%
%TO.N,/Power/SW*%
G36*
X100037539Y-79469685D02*
G01*
X100083294Y-79522489D01*
X100094500Y-79574000D01*
X100094500Y-86742186D01*
X100088875Y-86779110D01*
X98412177Y-92154403D01*
X98411533Y-92156806D01*
X98411436Y-92156780D01*
X98411435Y-92156784D01*
X98411336Y-92156753D01*
X98410617Y-92156560D01*
X98378454Y-92214372D01*
X98316868Y-92247371D01*
X98291469Y-92250000D01*
X94099243Y-92250000D01*
X94032204Y-92230315D01*
X93986449Y-92177511D01*
X93975243Y-92125758D01*
X93999758Y-79573758D01*
X94019574Y-79506757D01*
X94072467Y-79461105D01*
X94123758Y-79450000D01*
X99970500Y-79450000D01*
X100037539Y-79469685D01*
G37*
%TD.AperFunction*%
%TD*%
%TA.AperFunction,Conductor*%
%TO.N,/3V3*%
G36*
X119781752Y-54078002D02*
G01*
X119797182Y-54089685D01*
X119800471Y-54092599D01*
X119800472Y-54092599D01*
X119800474Y-54092601D01*
X119843402Y-54115131D01*
X119941207Y-54166463D01*
X120095529Y-54204500D01*
X120095530Y-54204500D01*
X120254470Y-54204500D01*
X120254471Y-54204500D01*
X120408793Y-54166463D01*
X120549529Y-54092599D01*
X120552817Y-54089685D01*
X120555736Y-54088313D01*
X120555803Y-54088268D01*
X120555810Y-54088279D01*
X120617071Y-54059487D01*
X120636369Y-54058000D01*
X128804664Y-54058000D01*
X128857570Y-54069646D01*
X129028614Y-54148780D01*
X129028626Y-54148785D01*
X129363060Y-54261469D01*
X129707717Y-54337334D01*
X130058556Y-54375490D01*
X130058564Y-54375490D01*
X130411456Y-54375490D01*
X130411464Y-54375490D01*
X130762303Y-54337334D01*
X131106960Y-54261469D01*
X131441394Y-54148785D01*
X131478414Y-54131658D01*
X131612450Y-54069646D01*
X131665356Y-54058000D01*
X133606000Y-54058000D01*
X133674121Y-54078002D01*
X133720614Y-54131658D01*
X133732000Y-54184000D01*
X133732000Y-62672096D01*
X133711998Y-62740217D01*
X133658342Y-62786710D01*
X133606621Y-62798094D01*
X127129999Y-62829999D01*
X127239999Y-82460000D01*
X127240000Y-82460000D01*
X133605387Y-82428835D01*
X133673601Y-82448502D01*
X133720356Y-82501929D01*
X133732000Y-82554832D01*
X133732000Y-141759470D01*
X133711998Y-141827591D01*
X133707193Y-141834543D01*
X133403080Y-142244469D01*
X133346429Y-142287260D01*
X133275636Y-142292631D01*
X133213177Y-142258875D01*
X133190564Y-142228415D01*
X133094739Y-142047670D01*
X133094737Y-142047666D01*
X132950236Y-141834543D01*
X132896690Y-141755568D01*
X132668223Y-141486595D01*
X132668222Y-141486594D01*
X132412027Y-141243912D01*
X132412012Y-141243899D01*
X132131070Y-141030333D01*
X132131064Y-141030329D01*
X132073738Y-140995837D01*
X131828674Y-140848387D01*
X131828668Y-140848384D01*
X131508395Y-140700209D01*
X131508383Y-140700204D01*
X131173959Y-140587524D01*
X131173958Y-140587523D01*
X131173950Y-140587521D01*
X131123836Y-140576490D01*
X130829305Y-140511658D01*
X130829281Y-140511654D01*
X130478461Y-140473500D01*
X130478454Y-140473500D01*
X130125546Y-140473500D01*
X130125538Y-140473500D01*
X129774718Y-140511654D01*
X129774694Y-140511658D01*
X129430054Y-140587520D01*
X129430040Y-140587524D01*
X129095616Y-140700204D01*
X129095604Y-140700209D01*
X128775331Y-140848384D01*
X128775324Y-140848388D01*
X128472935Y-141030329D01*
X128472929Y-141030333D01*
X128191987Y-141243899D01*
X128191972Y-141243912D01*
X127935777Y-141486594D01*
X127707308Y-141755570D01*
X127509262Y-142047666D01*
X127509260Y-142047670D01*
X127343957Y-142359466D01*
X127343953Y-142359475D01*
X127213332Y-142687308D01*
X127118918Y-143027355D01*
X127061826Y-143375609D01*
X127042720Y-143727996D01*
X127042720Y-143728003D01*
X127061826Y-144080390D01*
X127118918Y-144428644D01*
X127213332Y-144768691D01*
X127299926Y-144986026D01*
X127343958Y-145096536D01*
X127398560Y-145199526D01*
X127509260Y-145408329D01*
X127509262Y-145408333D01*
X127584978Y-145520006D01*
X127707310Y-145700432D01*
X127935777Y-145969405D01*
X128191972Y-146212087D01*
X128191987Y-146212100D01*
X128472934Y-146425670D01*
X128775326Y-146607613D01*
X128857609Y-146645681D01*
X129095604Y-146755790D01*
X129095616Y-146755795D01*
X129430050Y-146868479D01*
X129684817Y-146924557D01*
X129706434Y-146929316D01*
X129768662Y-146963494D01*
X129802533Y-147025890D01*
X129797294Y-147096693D01*
X129780541Y-147127441D01*
X129702175Y-147233073D01*
X129645527Y-147275864D01*
X129600984Y-147284000D01*
X92284603Y-147284000D01*
X92216482Y-147263998D01*
X92169989Y-147210342D01*
X92158604Y-147158475D01*
X92149689Y-144784723D01*
X92169434Y-144716532D01*
X92222915Y-144669838D01*
X92263335Y-144658861D01*
X92331186Y-144652178D01*
X92365240Y-144648825D01*
X92365241Y-144648824D01*
X92365248Y-144648824D01*
X92561647Y-144589247D01*
X92742649Y-144492500D01*
X92901299Y-144362299D01*
X93031500Y-144203649D01*
X93128247Y-144022647D01*
X93187824Y-143826248D01*
X93193518Y-143768426D01*
X93195325Y-143756247D01*
X93211500Y-143674935D01*
X93211500Y-143621997D01*
X93654059Y-143621997D01*
X93654059Y-143622002D01*
X93674174Y-143826241D01*
X93674175Y-143826247D01*
X93674176Y-143826248D01*
X93733753Y-144022647D01*
X93830500Y-144203649D01*
X93960701Y-144362299D01*
X94119351Y-144492500D01*
X94300353Y-144589247D01*
X94496752Y-144648824D01*
X94496756Y-144648824D01*
X94496758Y-144648825D01*
X94518950Y-144651011D01*
X94584782Y-144677593D01*
X94625792Y-144735548D01*
X94628959Y-144806474D01*
X94593278Y-144867853D01*
X94531182Y-144899983D01*
X94439004Y-144918318D01*
X94438999Y-144918320D01*
X94275543Y-144986026D01*
X94128431Y-145084323D01*
X94128425Y-145084328D01*
X94003327Y-145209426D01*
X94003322Y-145209432D01*
X93905025Y-145356544D01*
X93837319Y-145520000D01*
X93837317Y-145520005D01*
X93802800Y-145693533D01*
X93802800Y-145693536D01*
X93802800Y-145870466D01*
X93837317Y-146043996D01*
X93905025Y-146207458D01*
X93908127Y-146212100D01*
X94003322Y-146354569D01*
X94003327Y-146354575D01*
X94128425Y-146479673D01*
X94128431Y-146479678D01*
X94275543Y-146577976D01*
X94439005Y-146645684D01*
X94612535Y-146680201D01*
X94612536Y-146680201D01*
X94789464Y-146680201D01*
X94789465Y-146680201D01*
X94962995Y-146645684D01*
X95126457Y-146577976D01*
X95273569Y-146479678D01*
X95398677Y-146354570D01*
X95496975Y-146207458D01*
X95564683Y-146043996D01*
X95599200Y-145870466D01*
X95599200Y-145693536D01*
X95564683Y-145520006D01*
X95496975Y-145356544D01*
X95398677Y-145209432D01*
X95398672Y-145209426D01*
X95273574Y-145084328D01*
X95273568Y-145084323D01*
X95224754Y-145051706D01*
X95126457Y-144986026D01*
X94962995Y-144918318D01*
X94870816Y-144899982D01*
X94807908Y-144867075D01*
X94772776Y-144805380D01*
X94776576Y-144734485D01*
X94818102Y-144676899D01*
X94883049Y-144651011D01*
X94905241Y-144648825D01*
X94905242Y-144648824D01*
X94905248Y-144648824D01*
X95101647Y-144589247D01*
X95282649Y-144492500D01*
X95441299Y-144362299D01*
X95571500Y-144203649D01*
X95668247Y-144022647D01*
X95727824Y-143826248D01*
X95737501Y-143728003D01*
X95747941Y-143622002D01*
X95747941Y-143621997D01*
X96194059Y-143621997D01*
X96194059Y-143622002D01*
X96214174Y-143826241D01*
X96214175Y-143826247D01*
X96214176Y-143826248D01*
X96273753Y-144022647D01*
X96370500Y-144203649D01*
X96500701Y-144362299D01*
X96659351Y-144492500D01*
X96840353Y-144589247D01*
X97036752Y-144648824D01*
X97036756Y-144648824D01*
X97036758Y-144648825D01*
X97240997Y-144668941D01*
X97241000Y-144668941D01*
X97241003Y-144668941D01*
X97445241Y-144648825D01*
X97445242Y-144648824D01*
X97445248Y-144648824D01*
X97641647Y-144589247D01*
X97822649Y-144492500D01*
X97981299Y-144362299D01*
X98111500Y-144203649D01*
X98208247Y-144022647D01*
X98267824Y-143826248D01*
X98277501Y-143728003D01*
X98287941Y-143622002D01*
X98287941Y-143621997D01*
X98267825Y-143417758D01*
X98267824Y-143417756D01*
X98267824Y-143417752D01*
X98208247Y-143221353D01*
X98111500Y-143040351D01*
X97981299Y-142881701D01*
X97822649Y-142751500D01*
X97641647Y-142654753D01*
X97445248Y-142595176D01*
X97445247Y-142595175D01*
X97445241Y-142595174D01*
X97241003Y-142575059D01*
X97240997Y-142575059D01*
X97036758Y-142595174D01*
X96840352Y-142654753D01*
X96659350Y-142751500D01*
X96500701Y-142881701D01*
X96370500Y-143040350D01*
X96273753Y-143221352D01*
X96214174Y-143417758D01*
X96194059Y-143621997D01*
X95747941Y-143621997D01*
X95727825Y-143417758D01*
X95727824Y-143417756D01*
X95727824Y-143417752D01*
X95668247Y-143221353D01*
X95571500Y-143040351D01*
X95441299Y-142881701D01*
X95282649Y-142751500D01*
X95101647Y-142654753D01*
X94905248Y-142595176D01*
X94905247Y-142595175D01*
X94905241Y-142595174D01*
X94701003Y-142575059D01*
X94700997Y-142575059D01*
X94496758Y-142595174D01*
X94300352Y-142654753D01*
X94119350Y-142751500D01*
X93960701Y-142881701D01*
X93830500Y-143040350D01*
X93733753Y-143221352D01*
X93674174Y-143417758D01*
X93654059Y-143621997D01*
X93211500Y-143621997D01*
X93211500Y-143477065D01*
X93172897Y-143282998D01*
X93172894Y-143282991D01*
X93171099Y-143277071D01*
X93172751Y-143276569D01*
X93165500Y-143240076D01*
X93165500Y-140034500D01*
X93185502Y-139966379D01*
X93239158Y-139919886D01*
X93291500Y-139908500D01*
X98733055Y-139908500D01*
X98866945Y-139908500D01*
X101244519Y-139908500D01*
X101312640Y-139928502D01*
X101359133Y-139982158D01*
X101369237Y-140052432D01*
X101363448Y-140076114D01*
X101359763Y-140086646D01*
X101340726Y-140255600D01*
X101359763Y-140424554D01*
X101390241Y-140511656D01*
X101415918Y-140585037D01*
X101415919Y-140585039D01*
X101506375Y-140728999D01*
X101506377Y-140729002D01*
X101626597Y-140849222D01*
X101626600Y-140849224D01*
X101770563Y-140939682D01*
X101931046Y-140995837D01*
X102100000Y-141014874D01*
X102268954Y-140995837D01*
X102429437Y-140939682D01*
X102573400Y-140849224D01*
X102693624Y-140729000D01*
X102784082Y-140585037D01*
X102840237Y-140424554D01*
X102859274Y-140255600D01*
X102840237Y-140086646D01*
X102836551Y-140076114D01*
X102832933Y-140005211D01*
X102868222Y-139943605D01*
X102931215Y-139910859D01*
X102955481Y-139908500D01*
X104766943Y-139908500D01*
X104766945Y-139908500D01*
X104896274Y-139873847D01*
X105012226Y-139806901D01*
X105106901Y-139712226D01*
X105120648Y-139688414D01*
X105124251Y-139683369D01*
X105123901Y-139683144D01*
X105128770Y-139675565D01*
X105128777Y-139675558D01*
X105128949Y-139675180D01*
X105134444Y-139664518D01*
X105173847Y-139596274D01*
X105183705Y-139559480D01*
X105187375Y-139549274D01*
X105189040Y-139543603D01*
X105189040Y-139543599D01*
X105189042Y-139543596D01*
X105189223Y-139542329D01*
X105192229Y-139527664D01*
X105208500Y-139466945D01*
X105208500Y-139417273D01*
X105209688Y-139400664D01*
X105209688Y-139399336D01*
X105208500Y-139382724D01*
X105208500Y-139333055D01*
X105192235Y-139272353D01*
X105189223Y-139257662D01*
X105189170Y-139257296D01*
X105189042Y-139256404D01*
X105189041Y-139256401D01*
X105187379Y-139250738D01*
X105183705Y-139240519D01*
X105173847Y-139203726D01*
X105136832Y-139139615D01*
X105134447Y-139135484D01*
X105128946Y-139124813D01*
X105128776Y-139124440D01*
X105123906Y-139116862D01*
X105124251Y-139116639D01*
X105120652Y-139111592D01*
X105106901Y-139087774D01*
X105106897Y-139087770D01*
X105106894Y-139087766D01*
X105012227Y-138993099D01*
X105012224Y-138993097D01*
X104896278Y-138926155D01*
X104896276Y-138926154D01*
X104896274Y-138926153D01*
X104896271Y-138926152D01*
X104888643Y-138922993D01*
X104889872Y-138920025D01*
X104842166Y-138890935D01*
X104811156Y-138827068D01*
X104819597Y-138756575D01*
X104830199Y-138736873D01*
X106462249Y-136259996D01*
X122800720Y-136259996D01*
X122800720Y-136260003D01*
X122819826Y-136612390D01*
X122876918Y-136960644D01*
X122937011Y-137177077D01*
X122971333Y-137300693D01*
X123101958Y-137628536D01*
X123267263Y-137940334D01*
X123465310Y-138232432D01*
X123514738Y-138290623D01*
X123693777Y-138501405D01*
X123949972Y-138744087D01*
X123949987Y-138744100D01*
X124230934Y-138957670D01*
X124533326Y-139139613D01*
X124649307Y-139193271D01*
X124853604Y-139287790D01*
X124853616Y-139287795D01*
X125188050Y-139400479D01*
X125532707Y-139476344D01*
X125883546Y-139514500D01*
X125883554Y-139514500D01*
X126236446Y-139514500D01*
X126236454Y-139514500D01*
X126587293Y-139476344D01*
X126931950Y-139400479D01*
X127266384Y-139287795D01*
X127586674Y-139139613D01*
X127889066Y-138957670D01*
X128170013Y-138744100D01*
X128180484Y-138734182D01*
X128414174Y-138512818D01*
X128426223Y-138501405D01*
X128654690Y-138232432D01*
X128852737Y-137940334D01*
X129018042Y-137628536D01*
X129148667Y-137300693D01*
X129243080Y-136960649D01*
X129300174Y-136612390D01*
X129319280Y-136260000D01*
X129300174Y-135907610D01*
X129259731Y-135660923D01*
X129243081Y-135559355D01*
X129235913Y-135533537D01*
X129148667Y-135219307D01*
X129018042Y-134891464D01*
X128852737Y-134579666D01*
X128654690Y-134287568D01*
X128426223Y-134018595D01*
X128392302Y-133986463D01*
X128170027Y-133775912D01*
X128170012Y-133775899D01*
X127889070Y-133562333D01*
X127889064Y-133562329D01*
X127586674Y-133380387D01*
X127586668Y-133380384D01*
X127266395Y-133232209D01*
X127266383Y-133232204D01*
X126931959Y-133119524D01*
X126931958Y-133119523D01*
X126931950Y-133119521D01*
X126809643Y-133092599D01*
X126587305Y-133043658D01*
X126587281Y-133043654D01*
X126236461Y-133005500D01*
X126236454Y-133005500D01*
X125883546Y-133005500D01*
X125883538Y-133005500D01*
X125532718Y-133043654D01*
X125532694Y-133043658D01*
X125188054Y-133119520D01*
X125188040Y-133119524D01*
X124853616Y-133232204D01*
X124853604Y-133232209D01*
X124533331Y-133380384D01*
X124533324Y-133380388D01*
X124230935Y-133562329D01*
X124230929Y-133562333D01*
X123949987Y-133775899D01*
X123949972Y-133775912D01*
X123693777Y-134018594D01*
X123465308Y-134287570D01*
X123267262Y-134579666D01*
X123267260Y-134579670D01*
X123101957Y-134891466D01*
X123101953Y-134891475D01*
X122971332Y-135219308D01*
X122876918Y-135559355D01*
X122819826Y-135907609D01*
X122800720Y-136259996D01*
X106462249Y-136259996D01*
X107102173Y-135288816D01*
X107118278Y-135269064D01*
X108696901Y-133690442D01*
X108738583Y-133618248D01*
X108763847Y-133574490D01*
X108798500Y-133445161D01*
X108798500Y-132649996D01*
X112920693Y-132649996D01*
X112920693Y-132650003D01*
X112939849Y-132807779D01*
X112988447Y-132935919D01*
X112996213Y-132956395D01*
X113086502Y-133087201D01*
X113205471Y-133192599D01*
X113205472Y-133192599D01*
X113205474Y-133192601D01*
X113280200Y-133231820D01*
X113346207Y-133266463D01*
X113500529Y-133304500D01*
X113500530Y-133304500D01*
X113659470Y-133304500D01*
X113659471Y-133304500D01*
X113813793Y-133266463D01*
X113954529Y-133192599D01*
X114073498Y-133087201D01*
X114163787Y-132956395D01*
X114220149Y-132807782D01*
X114220149Y-132807781D01*
X114220150Y-132807779D01*
X114239307Y-132650003D01*
X114239307Y-132649996D01*
X114220150Y-132492220D01*
X114182224Y-132392220D01*
X114163787Y-132343605D01*
X114073498Y-132212799D01*
X113954529Y-132107401D01*
X113954528Y-132107400D01*
X113954525Y-132107398D01*
X113813797Y-132033539D01*
X113813795Y-132033538D01*
X113813793Y-132033537D01*
X113813791Y-132033536D01*
X113813790Y-132033536D01*
X113659472Y-131995500D01*
X113659471Y-131995500D01*
X113500529Y-131995500D01*
X113500527Y-131995500D01*
X113346209Y-132033536D01*
X113346202Y-132033539D01*
X113205474Y-132107398D01*
X113205469Y-132107402D01*
X113086501Y-132212800D01*
X112996215Y-132343601D01*
X112996212Y-132343607D01*
X112939849Y-132492220D01*
X112920693Y-132649996D01*
X108798500Y-132649996D01*
X108798500Y-131633729D01*
X108818502Y-131565608D01*
X108820777Y-131562191D01*
X108873787Y-131485395D01*
X108930149Y-131336782D01*
X108930149Y-131336781D01*
X108930150Y-131336779D01*
X108949307Y-131179003D01*
X108949307Y-131178996D01*
X108930150Y-131021220D01*
X108915578Y-130982799D01*
X108873787Y-130872605D01*
X108783498Y-130741799D01*
X108664529Y-130636401D01*
X108664528Y-130636400D01*
X108664525Y-130636398D01*
X108523797Y-130562539D01*
X108523795Y-130562538D01*
X108523793Y-130562537D01*
X108523791Y-130562536D01*
X108523790Y-130562536D01*
X108369472Y-130524500D01*
X108369471Y-130524500D01*
X108210529Y-130524500D01*
X108210527Y-130524500D01*
X108056209Y-130562536D01*
X108056202Y-130562539D01*
X107915474Y-130636398D01*
X107915469Y-130636402D01*
X107796501Y-130741800D01*
X107706215Y-130872601D01*
X107706212Y-130872607D01*
X107649849Y-131021220D01*
X107630693Y-131178996D01*
X107630693Y-131179003D01*
X107649849Y-131336779D01*
X107681413Y-131420003D01*
X107706213Y-131485395D01*
X107759196Y-131562154D01*
X107781432Y-131629577D01*
X107781500Y-131633729D01*
X107781500Y-133115398D01*
X107761498Y-133183519D01*
X107744595Y-133204493D01*
X106610876Y-134338212D01*
X106548564Y-134372238D01*
X106521781Y-134375117D01*
X100344500Y-134375117D01*
X100276379Y-134355115D01*
X100229886Y-134301459D01*
X100218500Y-134249117D01*
X100218500Y-132549996D01*
X104880693Y-132549996D01*
X104880693Y-132550003D01*
X104899849Y-132707779D01*
X104937775Y-132807779D01*
X104956213Y-132856395D01*
X105046502Y-132987201D01*
X105165471Y-133092599D01*
X105165472Y-133092599D01*
X105165474Y-133092601D01*
X105216772Y-133119524D01*
X105306207Y-133166463D01*
X105460529Y-133204500D01*
X105460530Y-133204500D01*
X105619470Y-133204500D01*
X105619471Y-133204500D01*
X105773793Y-133166463D01*
X105914529Y-133092599D01*
X106033498Y-132987201D01*
X106123787Y-132856395D01*
X106180149Y-132707782D01*
X106180149Y-132707781D01*
X106180150Y-132707779D01*
X106199307Y-132550003D01*
X106199307Y-132549996D01*
X106180150Y-132392220D01*
X106161711Y-132343601D01*
X106123787Y-132243605D01*
X106033498Y-132112799D01*
X105914529Y-132007401D01*
X105914528Y-132007400D01*
X105914525Y-132007398D01*
X105773797Y-131933539D01*
X105773795Y-131933538D01*
X105773793Y-131933537D01*
X105773791Y-131933536D01*
X105773790Y-131933536D01*
X105619472Y-131895500D01*
X105619471Y-131895500D01*
X105460529Y-131895500D01*
X105460527Y-131895500D01*
X105306209Y-131933536D01*
X105306202Y-131933539D01*
X105165474Y-132007398D01*
X105165469Y-132007402D01*
X105135967Y-132033539D01*
X105052599Y-132107398D01*
X105046501Y-132112800D01*
X104956215Y-132243601D01*
X104956212Y-132243607D01*
X104899849Y-132392220D01*
X104880693Y-132549996D01*
X100218500Y-132549996D01*
X100218500Y-131874729D01*
X100238502Y-131806608D01*
X100240777Y-131803191D01*
X100293787Y-131726395D01*
X100350149Y-131577782D01*
X100350149Y-131577781D01*
X100350150Y-131577779D01*
X100369307Y-131420003D01*
X100369307Y-131419996D01*
X100350150Y-131262220D01*
X100318588Y-131179000D01*
X100293787Y-131113605D01*
X100203498Y-130982799D01*
X100084529Y-130877401D01*
X100084528Y-130877400D01*
X100084525Y-130877398D01*
X99943797Y-130803539D01*
X99943795Y-130803538D01*
X99943793Y-130803537D01*
X99943791Y-130803536D01*
X99943790Y-130803536D01*
X99789472Y-130765500D01*
X99789471Y-130765500D01*
X99630529Y-130765500D01*
X99630527Y-130765500D01*
X99476209Y-130803536D01*
X99476202Y-130803539D01*
X99335474Y-130877398D01*
X99335469Y-130877402D01*
X99216501Y-130982800D01*
X99126215Y-131113601D01*
X99126212Y-131113607D01*
X99069849Y-131262220D01*
X99050693Y-131419996D01*
X99050693Y-131420003D01*
X99069849Y-131577779D01*
X99076178Y-131594466D01*
X99126213Y-131726395D01*
X99179196Y-131803154D01*
X99201432Y-131870577D01*
X99201500Y-131874729D01*
X99201500Y-133354006D01*
X99181498Y-133422127D01*
X99127842Y-133468620D01*
X99057568Y-133478724D01*
X99045348Y-133476345D01*
X99033877Y-133473517D01*
X99033871Y-133473517D01*
X98874929Y-133473517D01*
X98874927Y-133473517D01*
X98720609Y-133511553D01*
X98720602Y-133511556D01*
X98579874Y-133585415D01*
X98579869Y-133585419D01*
X98460901Y-133690817D01*
X98370615Y-133821618D01*
X98370612Y-133821624D01*
X98314249Y-133970237D01*
X98295093Y-134128013D01*
X98295093Y-134128021D01*
X98307952Y-134233930D01*
X98296307Y-134303965D01*
X98248646Y-134356586D01*
X98182871Y-134375117D01*
X94951779Y-134375117D01*
X94883658Y-134355115D01*
X94837165Y-134301459D01*
X94828131Y-134238629D01*
X94827287Y-134238629D01*
X94827287Y-134232756D01*
X94827061Y-134231186D01*
X94827287Y-134229617D01*
X94806641Y-134086021D01*
X94757964Y-133979435D01*
X94747862Y-133909162D01*
X94766587Y-133858964D01*
X94768770Y-133855565D01*
X94768777Y-133855558D01*
X94829042Y-133723596D01*
X94849688Y-133580000D01*
X94829042Y-133436404D01*
X94768777Y-133304442D01*
X94673775Y-133194804D01*
X94673774Y-133194803D01*
X94556633Y-133119521D01*
X94551732Y-133116371D01*
X94551731Y-133116370D01*
X94551730Y-133116370D01*
X94412536Y-133075500D01*
X94267464Y-133075500D01*
X94128269Y-133116370D01*
X94128266Y-133116372D01*
X94006225Y-133194803D01*
X93911223Y-133304441D01*
X93850958Y-133436403D01*
X93830312Y-133580000D01*
X93850958Y-133723596D01*
X93899633Y-133830180D01*
X93909736Y-133900454D01*
X93891021Y-133950636D01*
X93888825Y-133954053D01*
X93828557Y-134086020D01*
X93807911Y-134229620D01*
X93808136Y-134231185D01*
X93807911Y-134232750D01*
X93807911Y-134238629D01*
X93807066Y-134238629D01*
X93798033Y-134301459D01*
X93751540Y-134355115D01*
X93683420Y-134375117D01*
X91247884Y-134375117D01*
X91179763Y-134355115D01*
X91158789Y-134338212D01*
X90190573Y-133369996D01*
X92020693Y-133369996D01*
X92020693Y-133370003D01*
X92039849Y-133527779D01*
X92088447Y-133655919D01*
X92096213Y-133676395D01*
X92186502Y-133807201D01*
X92305471Y-133912599D01*
X92305472Y-133912599D01*
X92305474Y-133912601D01*
X92377944Y-133950636D01*
X92446207Y-133986463D01*
X92600529Y-134024500D01*
X92600530Y-134024500D01*
X92759470Y-134024500D01*
X92759471Y-134024500D01*
X92913793Y-133986463D01*
X93054529Y-133912599D01*
X93173498Y-133807201D01*
X93263787Y-133676395D01*
X93320149Y-133527782D01*
X93320149Y-133527781D01*
X93320150Y-133527779D01*
X93339307Y-133370003D01*
X93339307Y-133369996D01*
X93320150Y-133212220D01*
X93283799Y-133116372D01*
X93263787Y-133063605D01*
X93173498Y-132932799D01*
X93054529Y-132827401D01*
X93054528Y-132827400D01*
X93054525Y-132827398D01*
X92913797Y-132753539D01*
X92913795Y-132753538D01*
X92913793Y-132753537D01*
X92913791Y-132753536D01*
X92913790Y-132753536D01*
X92759472Y-132715500D01*
X92759471Y-132715500D01*
X92600529Y-132715500D01*
X92600527Y-132715500D01*
X92446209Y-132753536D01*
X92446202Y-132753539D01*
X92305474Y-132827398D01*
X92305469Y-132827402D01*
X92186501Y-132932800D01*
X92096215Y-133063601D01*
X92096212Y-133063607D01*
X92039849Y-133212220D01*
X92020693Y-133369996D01*
X90190573Y-133369996D01*
X87290573Y-130469996D01*
X103980693Y-130469996D01*
X103980693Y-130470003D01*
X103999849Y-130627779D01*
X104011008Y-130657201D01*
X104056213Y-130776395D01*
X104146502Y-130907201D01*
X104265471Y-131012599D01*
X104265472Y-131012599D01*
X104265474Y-131012601D01*
X104340200Y-131051820D01*
X104406207Y-131086463D01*
X104560529Y-131124500D01*
X104560530Y-131124500D01*
X104719470Y-131124500D01*
X104719471Y-131124500D01*
X104873793Y-131086463D01*
X105014529Y-131012599D01*
X105133498Y-130907201D01*
X105223787Y-130776395D01*
X105280149Y-130627782D01*
X105280149Y-130627781D01*
X105280150Y-130627779D01*
X105299307Y-130470003D01*
X105299307Y-130469996D01*
X105280150Y-130312220D01*
X105266538Y-130276331D01*
X105245173Y-130219996D01*
X112520693Y-130219996D01*
X112520693Y-130220003D01*
X112539849Y-130377779D01*
X112567050Y-130449500D01*
X112596213Y-130526395D01*
X112686502Y-130657201D01*
X112805471Y-130762599D01*
X112805472Y-130762599D01*
X112805474Y-130762601D01*
X112880200Y-130801820D01*
X112946207Y-130836463D01*
X113100529Y-130874500D01*
X113100530Y-130874500D01*
X113259470Y-130874500D01*
X113259471Y-130874500D01*
X113413793Y-130836463D01*
X113554529Y-130762599D01*
X113673498Y-130657201D01*
X113763787Y-130526395D01*
X113820149Y-130377782D01*
X113820149Y-130377781D01*
X113820150Y-130377779D01*
X113839307Y-130220003D01*
X113839307Y-130219996D01*
X113820150Y-130062220D01*
X113806538Y-130026331D01*
X113763787Y-129913605D01*
X113673498Y-129782799D01*
X113554529Y-129677401D01*
X113554528Y-129677400D01*
X113554525Y-129677398D01*
X113413797Y-129603539D01*
X113413795Y-129603538D01*
X113413793Y-129603537D01*
X113413791Y-129603536D01*
X113413790Y-129603536D01*
X113259472Y-129565500D01*
X113259471Y-129565500D01*
X113100529Y-129565500D01*
X113100527Y-129565500D01*
X112946209Y-129603536D01*
X112946202Y-129603539D01*
X112805474Y-129677398D01*
X112805469Y-129677402D01*
X112686501Y-129782800D01*
X112596215Y-129913601D01*
X112596212Y-129913607D01*
X112539849Y-130062220D01*
X112520693Y-130219996D01*
X105245173Y-130219996D01*
X105223787Y-130163605D01*
X105133498Y-130032799D01*
X105014529Y-129927401D01*
X105014528Y-129927400D01*
X105014525Y-129927398D01*
X104873797Y-129853539D01*
X104873795Y-129853538D01*
X104873793Y-129853537D01*
X104873791Y-129853536D01*
X104873790Y-129853536D01*
X104719472Y-129815500D01*
X104719471Y-129815500D01*
X104560529Y-129815500D01*
X104560527Y-129815500D01*
X104406209Y-129853536D01*
X104406202Y-129853539D01*
X104265474Y-129927398D01*
X104265469Y-129927402D01*
X104146501Y-130032800D01*
X104056215Y-130163601D01*
X104056212Y-130163607D01*
X103999849Y-130312220D01*
X103980693Y-130469996D01*
X87290573Y-130469996D01*
X86765577Y-129945000D01*
X92245312Y-129945000D01*
X92265958Y-130088596D01*
X92326223Y-130220558D01*
X92421225Y-130330196D01*
X92543268Y-130408629D01*
X92682464Y-130449500D01*
X92827536Y-130449500D01*
X92966732Y-130408629D01*
X93088775Y-130330196D01*
X93183777Y-130220558D01*
X93244042Y-130088596D01*
X93264688Y-129945000D01*
X93244042Y-129801404D01*
X93183777Y-129669442D01*
X93088775Y-129559804D01*
X93088774Y-129559803D01*
X93027753Y-129520587D01*
X92966732Y-129481371D01*
X92966731Y-129481370D01*
X92966730Y-129481370D01*
X92827536Y-129440500D01*
X92682464Y-129440500D01*
X92543269Y-129481370D01*
X92543266Y-129481372D01*
X92421225Y-129559803D01*
X92326223Y-129669441D01*
X92265958Y-129801403D01*
X92258462Y-129853537D01*
X92245312Y-129945000D01*
X86765577Y-129945000D01*
X84830573Y-128009996D01*
X115390693Y-128009996D01*
X115390693Y-128010003D01*
X115409849Y-128167779D01*
X115458447Y-128295919D01*
X115466213Y-128316395D01*
X115556502Y-128447201D01*
X115675471Y-128552599D01*
X115675472Y-128552599D01*
X115675474Y-128552601D01*
X115750200Y-128591820D01*
X115816207Y-128626463D01*
X115970529Y-128664500D01*
X115970530Y-128664500D01*
X116129470Y-128664500D01*
X116129471Y-128664500D01*
X116283793Y-128626463D01*
X116424529Y-128552599D01*
X116543498Y-128447201D01*
X116633787Y-128316395D01*
X116690149Y-128167782D01*
X116690149Y-128167781D01*
X116690150Y-128167779D01*
X116709307Y-128010003D01*
X116709307Y-128009996D01*
X116690150Y-127852220D01*
X116676538Y-127816331D01*
X116633787Y-127703605D01*
X116543498Y-127572799D01*
X116424529Y-127467401D01*
X116424528Y-127467400D01*
X116424525Y-127467398D01*
X116283797Y-127393539D01*
X116283795Y-127393538D01*
X116283793Y-127393537D01*
X116283791Y-127393536D01*
X116283790Y-127393536D01*
X116129472Y-127355500D01*
X116129471Y-127355500D01*
X115970529Y-127355500D01*
X115970527Y-127355500D01*
X115816209Y-127393536D01*
X115816202Y-127393539D01*
X115675474Y-127467398D01*
X115675469Y-127467402D01*
X115556501Y-127572800D01*
X115466215Y-127703601D01*
X115466212Y-127703607D01*
X115409849Y-127852220D01*
X115390693Y-128009996D01*
X84830573Y-128009996D01*
X80991405Y-124170828D01*
X80957379Y-124108516D01*
X80954500Y-124081733D01*
X80954500Y-123709996D01*
X98520693Y-123709996D01*
X98520693Y-123710003D01*
X98539849Y-123867779D01*
X98584126Y-123984525D01*
X98596213Y-124016395D01*
X98686502Y-124147201D01*
X98805471Y-124252599D01*
X98805472Y-124252599D01*
X98805474Y-124252601D01*
X98871969Y-124287500D01*
X98946207Y-124326463D01*
X99100529Y-124364500D01*
X99100530Y-124364500D01*
X99259470Y-124364500D01*
X99259471Y-124364500D01*
X99413793Y-124326463D01*
X99554529Y-124252599D01*
X99673498Y-124147201D01*
X99763787Y-124016395D01*
X99820149Y-123867782D01*
X99820149Y-123867781D01*
X99820150Y-123867779D01*
X99839307Y-123710003D01*
X99839307Y-123709996D01*
X99838093Y-123699996D01*
X100110693Y-123699996D01*
X100110693Y-123700003D01*
X100129849Y-123857779D01*
X100186212Y-124006392D01*
X100186215Y-124006398D01*
X100193118Y-124016398D01*
X100276502Y-124137201D01*
X100395471Y-124242599D01*
X100395472Y-124242599D01*
X100395474Y-124242601D01*
X100420987Y-124255991D01*
X100536207Y-124316463D01*
X100690529Y-124354500D01*
X100690530Y-124354500D01*
X100849470Y-124354500D01*
X100849471Y-124354500D01*
X101003793Y-124316463D01*
X101144529Y-124242599D01*
X101263498Y-124137201D01*
X101353787Y-124006395D01*
X101410149Y-123857782D01*
X101410149Y-123857781D01*
X101410150Y-123857779D01*
X101429307Y-123700003D01*
X101429307Y-123699996D01*
X101410150Y-123542220D01*
X101387092Y-123481423D01*
X101353787Y-123393605D01*
X101263498Y-123262799D01*
X101144529Y-123157401D01*
X101144528Y-123157400D01*
X101144525Y-123157398D01*
X101003797Y-123083539D01*
X101003795Y-123083538D01*
X101003793Y-123083537D01*
X101003791Y-123083536D01*
X101003790Y-123083536D01*
X100849472Y-123045500D01*
X100849471Y-123045500D01*
X100690529Y-123045500D01*
X100690527Y-123045500D01*
X100536209Y-123083536D01*
X100536202Y-123083539D01*
X100395474Y-123157398D01*
X100395469Y-123157402D01*
X100276501Y-123262800D01*
X100186215Y-123393601D01*
X100186212Y-123393607D01*
X100129849Y-123542220D01*
X100110693Y-123699996D01*
X99838093Y-123699996D01*
X99820150Y-123552220D01*
X99793299Y-123481421D01*
X99763787Y-123403605D01*
X99673498Y-123272799D01*
X99554529Y-123167401D01*
X99554528Y-123167400D01*
X99554525Y-123167398D01*
X99413797Y-123093539D01*
X99413795Y-123093538D01*
X99413793Y-123093537D01*
X99413791Y-123093536D01*
X99413790Y-123093536D01*
X99259472Y-123055500D01*
X99259471Y-123055500D01*
X99100529Y-123055500D01*
X99100527Y-123055500D01*
X98946209Y-123093536D01*
X98946202Y-123093539D01*
X98805474Y-123167398D01*
X98805469Y-123167402D01*
X98741100Y-123224429D01*
X98697789Y-123262800D01*
X98686501Y-123272800D01*
X98596215Y-123403601D01*
X98596212Y-123403607D01*
X98539849Y-123552220D01*
X98520693Y-123709996D01*
X80954500Y-123709996D01*
X80954500Y-121489996D01*
X97780693Y-121489996D01*
X97780693Y-121490003D01*
X97799849Y-121647779D01*
X97822076Y-121706384D01*
X97856213Y-121796395D01*
X97946502Y-121927201D01*
X98065471Y-122032599D01*
X98065472Y-122032599D01*
X98065474Y-122032601D01*
X98140200Y-122071820D01*
X98206207Y-122106463D01*
X98360529Y-122144500D01*
X98360530Y-122144500D01*
X98519470Y-122144500D01*
X98519471Y-122144500D01*
X98673793Y-122106463D01*
X98814529Y-122032599D01*
X98933498Y-121927201D01*
X99023787Y-121796395D01*
X99080149Y-121647782D01*
X99080149Y-121647781D01*
X99080150Y-121647779D01*
X99099307Y-121490003D01*
X99099307Y-121489996D01*
X99088379Y-121399996D01*
X102824026Y-121399996D01*
X102824026Y-121400003D01*
X102843182Y-121557779D01*
X102877317Y-121647782D01*
X102899546Y-121706395D01*
X102989835Y-121837201D01*
X103053031Y-121893188D01*
X103090756Y-121953333D01*
X103089976Y-122024325D01*
X103053031Y-122081812D01*
X102989834Y-122137800D01*
X102899548Y-122268601D01*
X102899545Y-122268607D01*
X102843182Y-122417220D01*
X102824026Y-122574996D01*
X102824026Y-122575003D01*
X102843182Y-122732779D01*
X102875512Y-122818023D01*
X102899546Y-122881395D01*
X102989835Y-123012201D01*
X103033145Y-123050571D01*
X103070870Y-123110714D01*
X103070090Y-123181707D01*
X103033148Y-123239191D01*
X103006503Y-123262798D01*
X103006501Y-123262799D01*
X102916215Y-123393601D01*
X102916212Y-123393607D01*
X102859849Y-123542220D01*
X102840693Y-123699996D01*
X102840693Y-123700003D01*
X102859849Y-123857779D01*
X102916212Y-124006392D01*
X102916215Y-124006398D01*
X102923118Y-124016398D01*
X103006502Y-124137201D01*
X103044459Y-124170828D01*
X103069698Y-124193188D01*
X103107423Y-124253333D01*
X103106643Y-124324325D01*
X103069698Y-124381811D01*
X103010781Y-124434008D01*
X103006501Y-124437800D01*
X102916215Y-124568601D01*
X102916212Y-124568607D01*
X102859849Y-124717220D01*
X102840693Y-124874996D01*
X102840693Y-124875003D01*
X102859849Y-125032779D01*
X102892179Y-125118023D01*
X102916213Y-125181395D01*
X103006502Y-125312201D01*
X103125471Y-125417599D01*
X103125472Y-125417599D01*
X103125474Y-125417601D01*
X103200200Y-125456820D01*
X103266207Y-125491463D01*
X103420529Y-125529500D01*
X103420530Y-125529500D01*
X103579470Y-125529500D01*
X103579471Y-125529500D01*
X103733793Y-125491463D01*
X103874529Y-125417599D01*
X103993498Y-125312201D01*
X104083787Y-125181395D01*
X104086353Y-125174626D01*
X104129209Y-125118026D01*
X104195864Y-125093579D01*
X104265155Y-125109049D01*
X104315082Y-125159525D01*
X104321976Y-125174621D01*
X104324541Y-125181384D01*
X104324544Y-125181390D01*
X104324546Y-125181395D01*
X104414835Y-125312201D01*
X104533804Y-125417599D01*
X104533805Y-125417599D01*
X104533807Y-125417601D01*
X104608533Y-125456820D01*
X104674540Y-125491463D01*
X104828862Y-125529500D01*
X104828863Y-125529500D01*
X104987803Y-125529500D01*
X104987804Y-125529500D01*
X105142126Y-125491463D01*
X105282862Y-125417599D01*
X105401831Y-125312201D01*
X105492120Y-125181395D01*
X105494686Y-125174626D01*
X105537542Y-125118026D01*
X105604197Y-125093579D01*
X105673488Y-125109049D01*
X105723415Y-125159525D01*
X105730309Y-125174621D01*
X105732874Y-125181384D01*
X105732877Y-125181390D01*
X105732879Y-125181395D01*
X105823168Y-125312201D01*
X105942137Y-125417599D01*
X105942138Y-125417599D01*
X105942140Y-125417601D01*
X106016866Y-125456820D01*
X106082873Y-125491463D01*
X106237195Y-125529500D01*
X106237196Y-125529500D01*
X106396136Y-125529500D01*
X106396137Y-125529500D01*
X106550459Y-125491463D01*
X106691195Y-125417599D01*
X106810164Y-125312201D01*
X106900453Y-125181395D01*
X106903021Y-125174621D01*
X106945878Y-125118023D01*
X107012533Y-125093577D01*
X107081823Y-125109048D01*
X107131750Y-125159525D01*
X107138640Y-125174612D01*
X107141213Y-125181395D01*
X107231502Y-125312201D01*
X107350471Y-125417599D01*
X107350472Y-125417599D01*
X107350474Y-125417601D01*
X107425200Y-125456820D01*
X107491207Y-125491463D01*
X107645529Y-125529500D01*
X107645530Y-125529500D01*
X107804470Y-125529500D01*
X107804471Y-125529500D01*
X107958793Y-125491463D01*
X108099529Y-125417599D01*
X108218498Y-125312201D01*
X108308787Y-125181395D01*
X108365149Y-125032782D01*
X108365149Y-125032781D01*
X108365150Y-125032779D01*
X108370345Y-124989996D01*
X110290693Y-124989996D01*
X110290693Y-124990003D01*
X110309849Y-125147779D01*
X110358447Y-125275919D01*
X110366213Y-125296395D01*
X110456502Y-125427201D01*
X110575471Y-125532599D01*
X110575472Y-125532599D01*
X110575474Y-125532601D01*
X110650200Y-125571820D01*
X110716207Y-125606463D01*
X110870529Y-125644500D01*
X110870530Y-125644500D01*
X111029470Y-125644500D01*
X111029471Y-125644500D01*
X111183793Y-125606463D01*
X111324529Y-125532599D01*
X111443498Y-125427201D01*
X111533787Y-125296395D01*
X111590149Y-125147782D01*
X111590149Y-125147781D01*
X111590150Y-125147779D01*
X111609307Y-124990003D01*
X111609307Y-124989996D01*
X111590150Y-124832220D01*
X111553089Y-124734500D01*
X111533787Y-124683605D01*
X111443498Y-124552799D01*
X111324529Y-124447401D01*
X111323432Y-124446429D01*
X111285707Y-124386284D01*
X111286487Y-124315292D01*
X111325525Y-124255991D01*
X111338485Y-124247256D01*
X111338258Y-124246927D01*
X111344521Y-124242603D01*
X111344529Y-124242599D01*
X111463498Y-124137201D01*
X111502984Y-124079996D01*
X116110693Y-124079996D01*
X116110693Y-124080003D01*
X116129849Y-124237779D01*
X116169579Y-124342535D01*
X116186213Y-124386395D01*
X116276502Y-124517201D01*
X116395471Y-124622599D01*
X116395472Y-124622599D01*
X116395474Y-124622601D01*
X116445650Y-124648935D01*
X116536207Y-124696463D01*
X116690529Y-124734500D01*
X116690530Y-124734500D01*
X116849470Y-124734500D01*
X116849471Y-124734500D01*
X117003793Y-124696463D01*
X117144529Y-124622599D01*
X117263498Y-124517201D01*
X117353787Y-124386395D01*
X117410149Y-124237782D01*
X117410149Y-124237781D01*
X117410150Y-124237779D01*
X117429307Y-124080003D01*
X117429307Y-124079996D01*
X117410150Y-123922220D01*
X117385710Y-123857779D01*
X117353787Y-123773605D01*
X117263498Y-123642799D01*
X117144529Y-123537401D01*
X117144528Y-123537400D01*
X117144525Y-123537398D01*
X117003797Y-123463539D01*
X117003795Y-123463538D01*
X117003793Y-123463537D01*
X117003791Y-123463536D01*
X117003790Y-123463536D01*
X116849472Y-123425500D01*
X116849471Y-123425500D01*
X116690529Y-123425500D01*
X116690527Y-123425500D01*
X116536209Y-123463536D01*
X116536202Y-123463539D01*
X116395474Y-123537398D01*
X116395469Y-123537402D01*
X116276501Y-123642800D01*
X116186215Y-123773601D01*
X116186212Y-123773607D01*
X116129849Y-123922220D01*
X116110693Y-124079996D01*
X111502984Y-124079996D01*
X111553787Y-124006395D01*
X111610149Y-123857782D01*
X111610149Y-123857781D01*
X111610150Y-123857779D01*
X111629307Y-123700003D01*
X111629307Y-123699996D01*
X111610150Y-123542220D01*
X111587092Y-123481423D01*
X111553787Y-123393605D01*
X111463498Y-123262799D01*
X111344529Y-123157401D01*
X111344528Y-123157400D01*
X111344525Y-123157398D01*
X111203797Y-123083539D01*
X111203795Y-123083538D01*
X111203793Y-123083537D01*
X111203791Y-123083536D01*
X111203790Y-123083536D01*
X111049472Y-123045500D01*
X111049471Y-123045500D01*
X110890529Y-123045500D01*
X110890527Y-123045500D01*
X110736209Y-123083536D01*
X110736202Y-123083539D01*
X110595474Y-123157398D01*
X110595469Y-123157402D01*
X110476501Y-123262800D01*
X110386215Y-123393601D01*
X110386212Y-123393607D01*
X110329849Y-123542220D01*
X110310693Y-123699996D01*
X110310693Y-123700003D01*
X110329849Y-123857779D01*
X110386212Y-124006392D01*
X110386215Y-124006398D01*
X110393118Y-124016398D01*
X110476502Y-124137201D01*
X110539698Y-124193188D01*
X110596567Y-124243570D01*
X110634292Y-124303715D01*
X110633512Y-124374707D01*
X110594474Y-124434008D01*
X110581515Y-124442744D01*
X110581742Y-124443073D01*
X110575469Y-124447402D01*
X110456501Y-124552800D01*
X110366215Y-124683601D01*
X110366212Y-124683607D01*
X110309849Y-124832220D01*
X110290693Y-124989996D01*
X108370345Y-124989996D01*
X108384307Y-124875003D01*
X108384307Y-124874996D01*
X108365150Y-124717220D01*
X108342092Y-124656423D01*
X108308787Y-124568605D01*
X108218498Y-124437799D01*
X108155301Y-124381811D01*
X108117576Y-124321668D01*
X108118356Y-124250676D01*
X108155302Y-124193188D01*
X108207210Y-124147201D01*
X108218498Y-124137201D01*
X108308787Y-124006395D01*
X108365149Y-123857782D01*
X108365149Y-123857781D01*
X108365150Y-123857779D01*
X108384307Y-123700003D01*
X108384307Y-123699996D01*
X108365150Y-123542220D01*
X108342092Y-123481423D01*
X108308787Y-123393605D01*
X108218498Y-123262799D01*
X108175186Y-123224428D01*
X108137462Y-123164285D01*
X108138242Y-123093292D01*
X108175185Y-123035806D01*
X108201831Y-123012201D01*
X108292120Y-122881395D01*
X108348482Y-122732782D01*
X108348482Y-122732781D01*
X108348483Y-122732779D01*
X108367640Y-122575003D01*
X108367640Y-122574996D01*
X108348483Y-122417220D01*
X108325425Y-122356423D01*
X108292120Y-122268605D01*
X108201831Y-122137799D01*
X108138634Y-122081811D01*
X108100909Y-122021668D01*
X108101689Y-121950676D01*
X108138635Y-121893188D01*
X108201831Y-121837201D01*
X108213704Y-121820000D01*
X124030312Y-121820000D01*
X124050958Y-121963596D01*
X124111223Y-122095558D01*
X124206225Y-122205196D01*
X124328268Y-122283629D01*
X124467464Y-122324500D01*
X124612536Y-122324500D01*
X124751732Y-122283629D01*
X124873775Y-122205196D01*
X124968777Y-122095558D01*
X125029042Y-121963596D01*
X125049688Y-121820000D01*
X125029042Y-121676404D01*
X124968777Y-121544442D01*
X124873775Y-121434804D01*
X124873774Y-121434803D01*
X124812753Y-121395587D01*
X124751732Y-121356371D01*
X124751731Y-121356370D01*
X124751730Y-121356370D01*
X124612536Y-121315500D01*
X124467464Y-121315500D01*
X124328269Y-121356370D01*
X124328266Y-121356372D01*
X124206225Y-121434803D01*
X124111223Y-121544441D01*
X124050958Y-121676403D01*
X124033706Y-121796392D01*
X124030312Y-121820000D01*
X108213704Y-121820000D01*
X108292120Y-121706395D01*
X108348482Y-121557782D01*
X108348482Y-121557781D01*
X108348483Y-121557779D01*
X108367640Y-121400003D01*
X108367640Y-121399996D01*
X108348483Y-121242220D01*
X108334871Y-121206331D01*
X108292120Y-121093605D01*
X108201831Y-120962799D01*
X108082862Y-120857401D01*
X108082861Y-120857400D01*
X108082858Y-120857398D01*
X107942130Y-120783539D01*
X107942128Y-120783538D01*
X107942126Y-120783537D01*
X107942124Y-120783536D01*
X107942123Y-120783536D01*
X107787805Y-120745500D01*
X107787804Y-120745500D01*
X107628862Y-120745500D01*
X107628860Y-120745500D01*
X107474542Y-120783536D01*
X107474535Y-120783539D01*
X107333807Y-120857398D01*
X107333802Y-120857402D01*
X107214834Y-120962800D01*
X107124548Y-121093601D01*
X107124546Y-121093605D01*
X107121976Y-121100379D01*
X107079119Y-121156978D01*
X107012463Y-121181423D01*
X106943173Y-121165950D01*
X106893248Y-121115472D01*
X106886358Y-121100386D01*
X106883786Y-121093605D01*
X106793497Y-120962799D01*
X106674528Y-120857401D01*
X106674527Y-120857400D01*
X106674524Y-120857398D01*
X106533796Y-120783539D01*
X106533794Y-120783538D01*
X106533792Y-120783537D01*
X106533790Y-120783536D01*
X106533789Y-120783536D01*
X106379471Y-120745500D01*
X106379470Y-120745500D01*
X106220528Y-120745500D01*
X106220526Y-120745500D01*
X106066208Y-120783536D01*
X106066201Y-120783539D01*
X105925473Y-120857398D01*
X105925468Y-120857402D01*
X105806500Y-120962800D01*
X105716214Y-121093601D01*
X105716207Y-121093615D01*
X105713641Y-121100381D01*
X105670780Y-121156980D01*
X105604123Y-121181421D01*
X105534834Y-121165945D01*
X105484911Y-121115465D01*
X105478020Y-121100374D01*
X105475453Y-121093605D01*
X105385164Y-120962799D01*
X105266195Y-120857401D01*
X105266194Y-120857400D01*
X105266191Y-120857398D01*
X105125463Y-120783539D01*
X105125461Y-120783538D01*
X105125459Y-120783537D01*
X105125457Y-120783536D01*
X105125456Y-120783536D01*
X104971138Y-120745500D01*
X104971137Y-120745500D01*
X104812195Y-120745500D01*
X104812193Y-120745500D01*
X104657875Y-120783536D01*
X104657868Y-120783539D01*
X104517140Y-120857398D01*
X104517135Y-120857402D01*
X104398167Y-120962800D01*
X104307881Y-121093601D01*
X104307874Y-121093615D01*
X104305308Y-121100381D01*
X104262447Y-121156980D01*
X104195790Y-121181421D01*
X104126501Y-121165945D01*
X104076578Y-121115465D01*
X104069687Y-121100374D01*
X104067120Y-121093605D01*
X103976831Y-120962799D01*
X103857862Y-120857401D01*
X103857861Y-120857400D01*
X103857858Y-120857398D01*
X103717130Y-120783539D01*
X103717128Y-120783538D01*
X103717126Y-120783537D01*
X103717124Y-120783536D01*
X103717123Y-120783536D01*
X103562805Y-120745500D01*
X103562804Y-120745500D01*
X103403862Y-120745500D01*
X103403860Y-120745500D01*
X103249542Y-120783536D01*
X103249535Y-120783539D01*
X103108807Y-120857398D01*
X103108802Y-120857402D01*
X102989834Y-120962800D01*
X102899548Y-121093601D01*
X102899545Y-121093607D01*
X102843182Y-121242220D01*
X102824026Y-121399996D01*
X99088379Y-121399996D01*
X99080150Y-121332220D01*
X99044113Y-121237201D01*
X99023787Y-121183605D01*
X98933498Y-121052799D01*
X98814529Y-120947401D01*
X98814528Y-120947400D01*
X98814525Y-120947398D01*
X98673797Y-120873539D01*
X98673795Y-120873538D01*
X98673793Y-120873537D01*
X98673791Y-120873536D01*
X98673790Y-120873536D01*
X98519472Y-120835500D01*
X98519471Y-120835500D01*
X98360529Y-120835500D01*
X98360527Y-120835500D01*
X98206209Y-120873536D01*
X98206202Y-120873539D01*
X98065474Y-120947398D01*
X98065469Y-120947402D01*
X97946501Y-121052800D01*
X97856215Y-121183601D01*
X97856212Y-121183607D01*
X97799849Y-121332220D01*
X97780693Y-121489996D01*
X80954500Y-121489996D01*
X80954500Y-120430000D01*
X90890312Y-120430000D01*
X90910958Y-120573596D01*
X90971223Y-120705558D01*
X91066225Y-120815196D01*
X91188268Y-120893629D01*
X91327464Y-120934500D01*
X91472536Y-120934500D01*
X91611732Y-120893629D01*
X91733775Y-120815196D01*
X91828777Y-120705558D01*
X91889042Y-120573596D01*
X91892245Y-120551313D01*
X91921738Y-120486733D01*
X91981464Y-120448349D01*
X92052458Y-120448349D01*
X92107464Y-120464500D01*
X92107465Y-120464500D01*
X92252536Y-120464500D01*
X92391732Y-120423629D01*
X92513775Y-120345196D01*
X92513777Y-120345193D01*
X92515217Y-120344268D01*
X92583337Y-120324265D01*
X92651458Y-120344266D01*
X92728268Y-120393629D01*
X92867464Y-120434500D01*
X93012536Y-120434500D01*
X93151732Y-120393629D01*
X93273775Y-120315196D01*
X93368777Y-120205558D01*
X93429042Y-120073596D01*
X93449688Y-119930000D01*
X93429042Y-119786404D01*
X93368777Y-119654442D01*
X93273775Y-119544804D01*
X93273774Y-119544803D01*
X93198411Y-119496370D01*
X93151732Y-119466371D01*
X93151731Y-119466370D01*
X93151730Y-119466370D01*
X93012536Y-119425500D01*
X92867464Y-119425500D01*
X92728269Y-119466370D01*
X92728266Y-119466372D01*
X92604780Y-119545732D01*
X92536659Y-119565734D01*
X92468538Y-119545732D01*
X92391732Y-119496371D01*
X92391731Y-119496370D01*
X92391730Y-119496370D01*
X92252536Y-119455500D01*
X92107464Y-119455500D01*
X91968269Y-119496370D01*
X91968266Y-119496372D01*
X91846225Y-119574803D01*
X91751223Y-119684441D01*
X91690958Y-119816403D01*
X91690956Y-119816408D01*
X91687753Y-119838689D01*
X91658258Y-119903269D01*
X91598531Y-119941651D01*
X91527538Y-119941650D01*
X91472536Y-119925500D01*
X91327464Y-119925500D01*
X91188269Y-119966370D01*
X91188266Y-119966372D01*
X91066225Y-120044803D01*
X90971223Y-120154441D01*
X90910958Y-120286403D01*
X90902638Y-120344268D01*
X90890312Y-120430000D01*
X80954500Y-120430000D01*
X80954500Y-119239996D01*
X98710693Y-119239996D01*
X98710693Y-119240003D01*
X98729849Y-119397779D01*
X98778447Y-119525919D01*
X98786213Y-119546395D01*
X98876502Y-119677201D01*
X98995471Y-119782599D01*
X98995472Y-119782599D01*
X98995474Y-119782601D01*
X99059879Y-119816403D01*
X99136207Y-119856463D01*
X99290529Y-119894500D01*
X99290530Y-119894500D01*
X99449470Y-119894500D01*
X99449471Y-119894500D01*
X99603793Y-119856463D01*
X99744529Y-119782599D01*
X99863498Y-119677201D01*
X99953787Y-119546395D01*
X100010149Y-119397782D01*
X100010149Y-119397781D01*
X100010150Y-119397779D01*
X100029307Y-119240003D01*
X100029307Y-119239996D01*
X100010150Y-119082220D01*
X99970750Y-118978333D01*
X99953787Y-118933605D01*
X99863498Y-118802799D01*
X99744529Y-118697401D01*
X99744528Y-118697400D01*
X99744525Y-118697398D01*
X99603797Y-118623539D01*
X99603795Y-118623538D01*
X99603793Y-118623537D01*
X99603791Y-118623536D01*
X99603790Y-118623536D01*
X99449472Y-118585500D01*
X99449471Y-118585500D01*
X99290529Y-118585500D01*
X99290527Y-118585500D01*
X99136209Y-118623536D01*
X99136202Y-118623539D01*
X98995474Y-118697398D01*
X98995469Y-118697402D01*
X98876501Y-118802800D01*
X98786215Y-118933601D01*
X98786212Y-118933607D01*
X98729849Y-119082220D01*
X98710693Y-119239996D01*
X80954500Y-119239996D01*
X80954500Y-117815712D01*
X91970312Y-117815712D01*
X91990958Y-117959308D01*
X92051223Y-118091270D01*
X92146225Y-118200908D01*
X92268268Y-118279341D01*
X92407464Y-118320212D01*
X92552536Y-118320212D01*
X92691732Y-118279341D01*
X92813775Y-118200908D01*
X92908777Y-118091270D01*
X92969042Y-117959308D01*
X92989688Y-117815712D01*
X92969042Y-117672116D01*
X92908777Y-117540154D01*
X92813775Y-117430516D01*
X92813774Y-117430515D01*
X92723062Y-117372218D01*
X92691732Y-117352083D01*
X92691731Y-117352082D01*
X92691730Y-117352082D01*
X92552536Y-117311212D01*
X92407464Y-117311212D01*
X92268269Y-117352082D01*
X92268266Y-117352084D01*
X92146225Y-117430515D01*
X92051223Y-117540153D01*
X91990958Y-117672115D01*
X91981600Y-117737199D01*
X91970312Y-117815712D01*
X80954500Y-117815712D01*
X80954500Y-116414284D01*
X91970312Y-116414284D01*
X91990958Y-116557880D01*
X92051223Y-116689842D01*
X92146225Y-116799480D01*
X92268268Y-116877913D01*
X92407464Y-116918784D01*
X92552536Y-116918784D01*
X92691732Y-116877913D01*
X92813775Y-116799480D01*
X92908777Y-116689842D01*
X92969042Y-116557880D01*
X92989688Y-116414284D01*
X92969042Y-116270688D01*
X92908777Y-116138726D01*
X92896880Y-116124996D01*
X102899026Y-116124996D01*
X102899026Y-116125003D01*
X102918182Y-116282779D01*
X102966252Y-116409525D01*
X102974546Y-116431395D01*
X103064835Y-116562201D01*
X103128031Y-116618188D01*
X103165756Y-116678333D01*
X103164976Y-116749325D01*
X103128031Y-116806812D01*
X103064834Y-116862800D01*
X102974548Y-116993601D01*
X102974545Y-116993607D01*
X102918182Y-117142220D01*
X102899026Y-117299996D01*
X102899026Y-117300003D01*
X102918182Y-117457779D01*
X102966252Y-117584525D01*
X102974546Y-117606395D01*
X103064835Y-117737201D01*
X103108145Y-117775571D01*
X103145870Y-117835714D01*
X103145090Y-117906707D01*
X103108148Y-117964191D01*
X103081503Y-117987798D01*
X103081501Y-117987799D01*
X102991215Y-118118601D01*
X102991212Y-118118607D01*
X102934849Y-118267220D01*
X102915693Y-118424996D01*
X102915693Y-118425003D01*
X102934849Y-118582779D01*
X102978321Y-118697401D01*
X102991213Y-118731395D01*
X103081502Y-118862201D01*
X103144698Y-118918188D01*
X103182423Y-118978333D01*
X103181643Y-119049325D01*
X103144698Y-119106812D01*
X103081501Y-119162800D01*
X102991215Y-119293601D01*
X102991212Y-119293607D01*
X102934849Y-119442220D01*
X102915693Y-119599996D01*
X102915693Y-119600003D01*
X102934849Y-119757779D01*
X102965535Y-119838689D01*
X102991213Y-119906395D01*
X103081502Y-120037201D01*
X103200471Y-120142599D01*
X103200472Y-120142599D01*
X103200474Y-120142601D01*
X103275200Y-120181820D01*
X103341207Y-120216463D01*
X103495529Y-120254500D01*
X103495530Y-120254500D01*
X103654470Y-120254500D01*
X103654471Y-120254500D01*
X103808793Y-120216463D01*
X103949529Y-120142599D01*
X104068498Y-120037201D01*
X104158787Y-119906395D01*
X104161353Y-119899626D01*
X104204209Y-119843026D01*
X104270864Y-119818579D01*
X104340155Y-119834049D01*
X104390082Y-119884525D01*
X104396976Y-119899621D01*
X104399541Y-119906384D01*
X104399544Y-119906390D01*
X104399546Y-119906395D01*
X104489835Y-120037201D01*
X104608804Y-120142599D01*
X104608805Y-120142599D01*
X104608807Y-120142601D01*
X104683533Y-120181820D01*
X104749540Y-120216463D01*
X104903862Y-120254500D01*
X104903863Y-120254500D01*
X105062803Y-120254500D01*
X105062804Y-120254500D01*
X105217126Y-120216463D01*
X105357862Y-120142599D01*
X105476831Y-120037201D01*
X105567120Y-119906395D01*
X105569686Y-119899626D01*
X105612542Y-119843026D01*
X105679197Y-119818579D01*
X105748488Y-119834049D01*
X105798415Y-119884525D01*
X105805309Y-119899621D01*
X105807874Y-119906384D01*
X105807877Y-119906390D01*
X105807879Y-119906395D01*
X105898168Y-120037201D01*
X106017137Y-120142599D01*
X106017138Y-120142599D01*
X106017140Y-120142601D01*
X106091866Y-120181820D01*
X106157873Y-120216463D01*
X106312195Y-120254500D01*
X106312196Y-120254500D01*
X106471136Y-120254500D01*
X106471137Y-120254500D01*
X106625459Y-120216463D01*
X106766195Y-120142599D01*
X106885164Y-120037201D01*
X106975453Y-119906395D01*
X106978021Y-119899621D01*
X107020878Y-119843023D01*
X107087533Y-119818577D01*
X107156823Y-119834048D01*
X107206750Y-119884525D01*
X107213640Y-119899612D01*
X107216213Y-119906395D01*
X107306502Y-120037201D01*
X107425471Y-120142599D01*
X107425472Y-120142599D01*
X107425474Y-120142601D01*
X107500200Y-120181820D01*
X107566207Y-120216463D01*
X107720529Y-120254500D01*
X107720530Y-120254500D01*
X107879470Y-120254500D01*
X107879471Y-120254500D01*
X108033793Y-120216463D01*
X108174529Y-120142599D01*
X108293498Y-120037201D01*
X108383787Y-119906395D01*
X108440149Y-119757782D01*
X108440149Y-119757781D01*
X108440150Y-119757779D01*
X108459307Y-119600003D01*
X108459307Y-119599996D01*
X108440150Y-119442220D01*
X108417092Y-119381423D01*
X108383787Y-119293605D01*
X108360588Y-119259996D01*
X111520693Y-119259996D01*
X111520693Y-119260003D01*
X111539849Y-119417779D01*
X111588024Y-119544803D01*
X111596213Y-119566395D01*
X111686502Y-119697201D01*
X111805471Y-119802599D01*
X111805472Y-119802599D01*
X111805474Y-119802601D01*
X111835918Y-119818579D01*
X111946207Y-119876463D01*
X112019382Y-119894499D01*
X112072781Y-119907661D01*
X112134135Y-119943385D01*
X112166437Y-120006608D01*
X112159429Y-120077258D01*
X112115338Y-120132904D01*
X112072781Y-120152339D01*
X111946209Y-120183536D01*
X111946202Y-120183539D01*
X111805474Y-120257398D01*
X111805469Y-120257402D01*
X111686501Y-120362800D01*
X111596215Y-120493601D01*
X111596212Y-120493607D01*
X111539849Y-120642220D01*
X111520693Y-120799996D01*
X111520693Y-120800003D01*
X111539849Y-120957779D01*
X111575887Y-121052800D01*
X111596213Y-121106395D01*
X111686502Y-121237201D01*
X111805471Y-121342599D01*
X111805472Y-121342599D01*
X111805474Y-121342601D01*
X111831709Y-121356370D01*
X111946207Y-121416463D01*
X112100529Y-121454500D01*
X112100530Y-121454500D01*
X112259470Y-121454500D01*
X112259471Y-121454500D01*
X112413793Y-121416463D01*
X112554529Y-121342599D01*
X112673498Y-121237201D01*
X112763787Y-121106395D01*
X112820149Y-120957782D01*
X112820149Y-120957781D01*
X112820150Y-120957779D01*
X112839307Y-120800003D01*
X112839307Y-120799996D01*
X112820150Y-120642220D01*
X112794123Y-120573595D01*
X112763787Y-120493605D01*
X112673498Y-120362799D01*
X112554529Y-120257401D01*
X112554528Y-120257400D01*
X112554525Y-120257398D01*
X112502314Y-120229996D01*
X123050693Y-120229996D01*
X123050693Y-120230003D01*
X123069849Y-120387779D01*
X123118447Y-120515919D01*
X123126213Y-120536395D01*
X123216502Y-120667201D01*
X123335471Y-120772599D01*
X123335472Y-120772599D01*
X123335474Y-120772601D01*
X123387679Y-120800000D01*
X123476207Y-120846463D01*
X123630529Y-120884500D01*
X123630530Y-120884500D01*
X123789470Y-120884500D01*
X123789471Y-120884500D01*
X123943793Y-120846463D01*
X124084529Y-120772599D01*
X124203498Y-120667201D01*
X124293787Y-120536395D01*
X124350149Y-120387782D01*
X124350149Y-120387781D01*
X124350150Y-120387779D01*
X124369307Y-120230003D01*
X124369307Y-120229996D01*
X124350150Y-120072220D01*
X124316215Y-119982742D01*
X124293787Y-119923605D01*
X124203498Y-119792799D01*
X124084529Y-119687401D01*
X124084528Y-119687400D01*
X124084525Y-119687398D01*
X123943797Y-119613539D01*
X123943795Y-119613538D01*
X123943793Y-119613537D01*
X123943791Y-119613536D01*
X123943790Y-119613536D01*
X123789472Y-119575500D01*
X123789471Y-119575500D01*
X123630529Y-119575500D01*
X123630527Y-119575500D01*
X123476209Y-119613536D01*
X123476202Y-119613539D01*
X123335474Y-119687398D01*
X123335469Y-119687402D01*
X123216501Y-119792800D01*
X123126215Y-119923601D01*
X123126212Y-119923607D01*
X123069849Y-120072220D01*
X123050693Y-120229996D01*
X112502314Y-120229996D01*
X112413797Y-120183539D01*
X112413795Y-120183538D01*
X112413793Y-120183537D01*
X112413791Y-120183536D01*
X112413790Y-120183536D01*
X112287218Y-120152339D01*
X112225864Y-120116615D01*
X112193562Y-120053392D01*
X112200570Y-119982742D01*
X112244661Y-119927096D01*
X112287218Y-119907661D01*
X112305037Y-119903269D01*
X112413793Y-119876463D01*
X112554529Y-119802599D01*
X112673498Y-119697201D01*
X112763787Y-119566395D01*
X112820149Y-119417782D01*
X112820149Y-119417781D01*
X112820150Y-119417779D01*
X112839307Y-119260003D01*
X112839307Y-119259996D01*
X112820150Y-119102220D01*
X112773165Y-118978333D01*
X112763787Y-118953605D01*
X112673498Y-118822799D01*
X112554529Y-118717401D01*
X112554528Y-118717400D01*
X112554525Y-118717398D01*
X112413797Y-118643539D01*
X112413795Y-118643538D01*
X112413793Y-118643537D01*
X112413791Y-118643536D01*
X112413790Y-118643536D01*
X112259472Y-118605500D01*
X112259471Y-118605500D01*
X112100529Y-118605500D01*
X112100527Y-118605500D01*
X111946209Y-118643536D01*
X111946202Y-118643539D01*
X111805474Y-118717398D01*
X111805469Y-118717402D01*
X111686501Y-118822800D01*
X111596215Y-118953601D01*
X111596212Y-118953607D01*
X111539849Y-119102220D01*
X111520693Y-119259996D01*
X108360588Y-119259996D01*
X108293498Y-119162799D01*
X108230301Y-119106811D01*
X108192576Y-119046668D01*
X108193356Y-118975676D01*
X108230302Y-118918188D01*
X108293498Y-118862201D01*
X108383787Y-118731395D01*
X108440149Y-118582782D01*
X108440149Y-118582781D01*
X108440150Y-118582779D01*
X108459307Y-118425003D01*
X108459307Y-118424996D01*
X108440150Y-118267220D01*
X108417092Y-118206423D01*
X108383787Y-118118605D01*
X108315725Y-118020000D01*
X118910312Y-118020000D01*
X118930958Y-118163596D01*
X118991223Y-118295558D01*
X119086225Y-118405196D01*
X119208268Y-118483629D01*
X119347464Y-118524500D01*
X119492536Y-118524500D01*
X119631732Y-118483629D01*
X119753775Y-118405196D01*
X119848777Y-118295558D01*
X119909042Y-118163596D01*
X119929688Y-118020000D01*
X119909042Y-117876404D01*
X119848777Y-117744442D01*
X119753775Y-117634804D01*
X119753774Y-117634803D01*
X119675540Y-117584525D01*
X119631732Y-117556371D01*
X119631731Y-117556370D01*
X119631730Y-117556370D01*
X119541906Y-117529996D01*
X123090693Y-117529996D01*
X123090693Y-117530003D01*
X123109849Y-117687779D01*
X123137545Y-117760805D01*
X123166213Y-117836395D01*
X123256502Y-117967201D01*
X123375471Y-118072599D01*
X123375472Y-118072599D01*
X123375474Y-118072601D01*
X123450200Y-118111820D01*
X123516207Y-118146463D01*
X123670529Y-118184500D01*
X123670530Y-118184500D01*
X123829470Y-118184500D01*
X123829471Y-118184500D01*
X123983793Y-118146463D01*
X124124529Y-118072599D01*
X124243498Y-117967201D01*
X124333787Y-117836395D01*
X124390149Y-117687782D01*
X124390149Y-117687781D01*
X124390150Y-117687779D01*
X124409307Y-117530003D01*
X124409307Y-117529996D01*
X124390150Y-117372220D01*
X124362760Y-117300000D01*
X124333787Y-117223605D01*
X124243498Y-117092799D01*
X124124529Y-116987401D01*
X124124528Y-116987400D01*
X124124525Y-116987398D01*
X123983797Y-116913539D01*
X123983795Y-116913538D01*
X123983793Y-116913537D01*
X123983791Y-116913536D01*
X123983790Y-116913536D01*
X123829472Y-116875500D01*
X123829471Y-116875500D01*
X123670529Y-116875500D01*
X123670527Y-116875500D01*
X123516209Y-116913536D01*
X123516202Y-116913539D01*
X123375474Y-116987398D01*
X123375469Y-116987402D01*
X123256501Y-117092800D01*
X123166215Y-117223601D01*
X123166212Y-117223607D01*
X123109849Y-117372220D01*
X123090693Y-117529996D01*
X119541906Y-117529996D01*
X119492536Y-117515500D01*
X119347464Y-117515500D01*
X119208269Y-117556370D01*
X119208266Y-117556372D01*
X119086225Y-117634803D01*
X118991223Y-117744441D01*
X118935311Y-117866873D01*
X118930958Y-117876404D01*
X118910312Y-118020000D01*
X108315725Y-118020000D01*
X108293498Y-117987799D01*
X108250186Y-117949428D01*
X108212462Y-117889285D01*
X108213242Y-117818292D01*
X108250185Y-117760806D01*
X108276831Y-117737201D01*
X108367120Y-117606395D01*
X108423482Y-117457782D01*
X108423482Y-117457781D01*
X108423483Y-117457779D01*
X108442640Y-117300003D01*
X108442640Y-117299996D01*
X108423483Y-117142220D01*
X108400425Y-117081423D01*
X108367120Y-116993605D01*
X108276831Y-116862799D01*
X108213634Y-116806811D01*
X108175909Y-116746668D01*
X108176689Y-116675676D01*
X108213635Y-116618188D01*
X108276831Y-116562201D01*
X108367120Y-116431395D01*
X108423482Y-116282782D01*
X108423482Y-116282781D01*
X108423483Y-116282779D01*
X108427463Y-116250000D01*
X118920312Y-116250000D01*
X118940958Y-116393596D01*
X119001223Y-116525558D01*
X119096225Y-116635196D01*
X119218268Y-116713629D01*
X119357464Y-116754500D01*
X119502536Y-116754500D01*
X119641732Y-116713629D01*
X119763775Y-116635196D01*
X119858777Y-116525558D01*
X119919042Y-116393596D01*
X119939688Y-116250000D01*
X119919042Y-116106404D01*
X119858777Y-115974442D01*
X119763775Y-115864804D01*
X119763774Y-115864803D01*
X119691882Y-115818601D01*
X119641732Y-115786371D01*
X119641731Y-115786370D01*
X119641730Y-115786370D01*
X119502536Y-115745500D01*
X119357464Y-115745500D01*
X119218269Y-115786370D01*
X119218266Y-115786372D01*
X119096225Y-115864803D01*
X119001223Y-115974441D01*
X119001223Y-115974442D01*
X118940958Y-116106404D01*
X118920312Y-116250000D01*
X108427463Y-116250000D01*
X108442640Y-116125003D01*
X108442640Y-116124996D01*
X108423483Y-115967220D01*
X108400425Y-115906423D01*
X108367120Y-115818605D01*
X108276831Y-115687799D01*
X108157862Y-115582401D01*
X108157861Y-115582400D01*
X108157858Y-115582398D01*
X108017130Y-115508539D01*
X108017128Y-115508538D01*
X108017126Y-115508537D01*
X108017124Y-115508536D01*
X108017123Y-115508536D01*
X107862805Y-115470500D01*
X107862804Y-115470500D01*
X107703862Y-115470500D01*
X107703860Y-115470500D01*
X107549542Y-115508536D01*
X107549535Y-115508539D01*
X107408807Y-115582398D01*
X107408802Y-115582402D01*
X107289834Y-115687800D01*
X107199548Y-115818601D01*
X107199546Y-115818605D01*
X107196976Y-115825379D01*
X107154119Y-115881978D01*
X107087463Y-115906423D01*
X107018173Y-115890950D01*
X106968248Y-115840472D01*
X106961358Y-115825386D01*
X106958786Y-115818605D01*
X106868497Y-115687799D01*
X106749528Y-115582401D01*
X106749527Y-115582400D01*
X106749524Y-115582398D01*
X106608796Y-115508539D01*
X106608794Y-115508538D01*
X106608792Y-115508537D01*
X106608790Y-115508536D01*
X106608789Y-115508536D01*
X106454471Y-115470500D01*
X106454470Y-115470500D01*
X106295528Y-115470500D01*
X106295526Y-115470500D01*
X106141208Y-115508536D01*
X106141201Y-115508539D01*
X106000473Y-115582398D01*
X106000468Y-115582402D01*
X105881500Y-115687800D01*
X105791214Y-115818601D01*
X105791207Y-115818615D01*
X105788641Y-115825381D01*
X105745780Y-115881980D01*
X105679123Y-115906421D01*
X105609834Y-115890945D01*
X105559911Y-115840465D01*
X105553020Y-115825374D01*
X105550453Y-115818605D01*
X105460164Y-115687799D01*
X105341195Y-115582401D01*
X105341194Y-115582400D01*
X105341191Y-115582398D01*
X105200463Y-115508539D01*
X105200461Y-115508538D01*
X105200459Y-115508537D01*
X105200457Y-115508536D01*
X105200456Y-115508536D01*
X105046138Y-115470500D01*
X105046137Y-115470500D01*
X104887195Y-115470500D01*
X104887193Y-115470500D01*
X104732875Y-115508536D01*
X104732868Y-115508539D01*
X104592140Y-115582398D01*
X104592135Y-115582402D01*
X104473167Y-115687800D01*
X104382881Y-115818601D01*
X104382874Y-115818615D01*
X104380308Y-115825381D01*
X104337447Y-115881980D01*
X104270790Y-115906421D01*
X104201501Y-115890945D01*
X104151578Y-115840465D01*
X104144687Y-115825374D01*
X104142120Y-115818605D01*
X104051831Y-115687799D01*
X103932862Y-115582401D01*
X103932861Y-115582400D01*
X103932858Y-115582398D01*
X103792130Y-115508539D01*
X103792128Y-115508538D01*
X103792126Y-115508537D01*
X103792124Y-115508536D01*
X103792123Y-115508536D01*
X103637805Y-115470500D01*
X103637804Y-115470500D01*
X103478862Y-115470500D01*
X103478860Y-115470500D01*
X103324542Y-115508536D01*
X103324535Y-115508539D01*
X103183807Y-115582398D01*
X103183802Y-115582402D01*
X103064834Y-115687800D01*
X102974548Y-115818601D01*
X102974545Y-115818607D01*
X102918182Y-115967220D01*
X102899026Y-116124996D01*
X92896880Y-116124996D01*
X92813775Y-116029088D01*
X92813774Y-116029087D01*
X92717504Y-115967218D01*
X92691732Y-115950655D01*
X92691731Y-115950654D01*
X92691730Y-115950654D01*
X92552536Y-115909784D01*
X92407464Y-115909784D01*
X92268269Y-115950654D01*
X92268266Y-115950656D01*
X92146225Y-116029087D01*
X92051223Y-116138725D01*
X91990958Y-116270687D01*
X91989219Y-116282782D01*
X91970312Y-116414284D01*
X80954500Y-116414284D01*
X80954500Y-115012856D01*
X91970312Y-115012856D01*
X91990958Y-115156452D01*
X92051223Y-115288414D01*
X92146225Y-115398052D01*
X92268268Y-115476485D01*
X92407464Y-115517356D01*
X92552536Y-115517356D01*
X92691732Y-115476485D01*
X92813775Y-115398052D01*
X92908777Y-115288414D01*
X92969042Y-115156452D01*
X92989688Y-115012856D01*
X92969042Y-114869260D01*
X92908777Y-114737298D01*
X92813775Y-114627660D01*
X92813774Y-114627659D01*
X92752753Y-114588443D01*
X92691732Y-114549227D01*
X92691731Y-114549226D01*
X92691730Y-114549226D01*
X92552536Y-114508356D01*
X92407464Y-114508356D01*
X92268269Y-114549226D01*
X92268266Y-114549228D01*
X92146225Y-114627659D01*
X92051223Y-114737297D01*
X91990958Y-114869259D01*
X91984454Y-114914499D01*
X91970312Y-115012856D01*
X80954500Y-115012856D01*
X80954500Y-113611428D01*
X91970312Y-113611428D01*
X91990958Y-113755024D01*
X92051223Y-113886986D01*
X92146225Y-113996624D01*
X92268268Y-114075057D01*
X92407464Y-114115928D01*
X92552536Y-114115928D01*
X92691732Y-114075057D01*
X92813775Y-113996624D01*
X92908777Y-113886986D01*
X92969042Y-113755024D01*
X92989688Y-113611428D01*
X92969042Y-113467832D01*
X92908777Y-113335870D01*
X92813775Y-113226232D01*
X92813774Y-113226231D01*
X92752753Y-113187015D01*
X92691732Y-113147799D01*
X92691731Y-113147798D01*
X92691730Y-113147798D01*
X92552536Y-113106928D01*
X92407464Y-113106928D01*
X92268269Y-113147798D01*
X92268266Y-113147800D01*
X92146225Y-113226231D01*
X92051223Y-113335869D01*
X91990958Y-113467831D01*
X91983974Y-113516404D01*
X91970312Y-113611428D01*
X80954500Y-113611428D01*
X80954500Y-112210000D01*
X91970312Y-112210000D01*
X91990958Y-112353596D01*
X92051223Y-112485558D01*
X92146225Y-112595196D01*
X92268268Y-112673629D01*
X92407464Y-112714500D01*
X92552536Y-112714500D01*
X92691732Y-112673629D01*
X92813775Y-112595196D01*
X92908777Y-112485558D01*
X92969042Y-112353596D01*
X92969560Y-112349996D01*
X95465693Y-112349996D01*
X95465693Y-112350003D01*
X95484849Y-112507779D01*
X95529543Y-112625623D01*
X95541213Y-112656395D01*
X95631502Y-112787201D01*
X95750471Y-112892599D01*
X95750472Y-112892599D01*
X95750474Y-112892601D01*
X95789254Y-112912954D01*
X95891207Y-112966463D01*
X96045529Y-113004500D01*
X96045530Y-113004500D01*
X96204470Y-113004500D01*
X96204471Y-113004500D01*
X96358793Y-112966463D01*
X96499529Y-112892599D01*
X96618498Y-112787201D01*
X96708787Y-112656395D01*
X96765149Y-112507782D01*
X96765149Y-112507781D01*
X96765150Y-112507779D01*
X96784307Y-112350003D01*
X96784307Y-112349996D01*
X96765150Y-112192220D01*
X96727750Y-112093607D01*
X96708787Y-112043605D01*
X96618498Y-111912799D01*
X96499529Y-111807401D01*
X96499528Y-111807400D01*
X96499525Y-111807398D01*
X96358797Y-111733539D01*
X96358795Y-111733538D01*
X96358793Y-111733537D01*
X96358791Y-111733536D01*
X96358790Y-111733536D01*
X96204472Y-111695500D01*
X96204471Y-111695500D01*
X96045529Y-111695500D01*
X96045527Y-111695500D01*
X95891209Y-111733536D01*
X95891202Y-111733539D01*
X95750474Y-111807398D01*
X95750469Y-111807402D01*
X95631501Y-111912800D01*
X95541215Y-112043601D01*
X95541212Y-112043607D01*
X95484849Y-112192220D01*
X95465693Y-112349996D01*
X92969560Y-112349996D01*
X92989688Y-112210000D01*
X92969042Y-112066404D01*
X92908777Y-111934442D01*
X92813775Y-111824804D01*
X92813774Y-111824803D01*
X92740527Y-111777730D01*
X92691732Y-111746371D01*
X92691731Y-111746370D01*
X92691730Y-111746370D01*
X92552536Y-111705500D01*
X92407464Y-111705500D01*
X92268269Y-111746370D01*
X92268266Y-111746372D01*
X92146225Y-111824803D01*
X92051223Y-111934441D01*
X92001370Y-112043605D01*
X91990958Y-112066404D01*
X91970312Y-112210000D01*
X80954500Y-112210000D01*
X80954500Y-103046711D01*
X80974502Y-102978590D01*
X81007219Y-102944213D01*
X89297043Y-97017974D01*
X89364089Y-96994631D01*
X89370462Y-96994477D01*
X98358783Y-97005635D01*
X98426875Y-97025721D01*
X98473302Y-97079434D01*
X98484600Y-97129203D01*
X98698234Y-108200398D01*
X98721333Y-109397500D01*
X98764020Y-111609650D01*
X98764423Y-111619934D01*
X98765016Y-111629935D01*
X98783501Y-111711908D01*
X98783503Y-111711914D01*
X98783504Y-111711916D01*
X98797443Y-111746370D01*
X98810135Y-111777739D01*
X98835344Y-111826915D01*
X98834081Y-111827562D01*
X98854048Y-111885686D01*
X98837151Y-111954642D01*
X98831873Y-111962967D01*
X98776215Y-112043601D01*
X98776212Y-112043607D01*
X98719849Y-112192220D01*
X98700693Y-112349996D01*
X98700693Y-112350003D01*
X98719849Y-112507779D01*
X98764543Y-112625623D01*
X98774633Y-112652230D01*
X98776212Y-112656392D01*
X98776215Y-112656398D01*
X98866501Y-112787200D01*
X98871554Y-112792903D01*
X98869146Y-112795035D01*
X98899124Y-112842799D01*
X98898364Y-112913791D01*
X98859343Y-112973103D01*
X98794450Y-113001902D01*
X98777855Y-113003000D01*
X98688027Y-113003000D01*
X98533709Y-113041036D01*
X98533702Y-113041039D01*
X98392974Y-113114898D01*
X98392969Y-113114902D01*
X98274001Y-113220300D01*
X98183715Y-113351101D01*
X98183712Y-113351107D01*
X98127348Y-113499723D01*
X98125526Y-113507119D01*
X98122891Y-113506469D01*
X98099892Y-113559903D01*
X98041022Y-113599588D01*
X98002880Y-113605500D01*
X97970527Y-113605500D01*
X97816209Y-113643536D01*
X97816202Y-113643539D01*
X97675474Y-113717398D01*
X97675469Y-113717402D01*
X97556501Y-113822800D01*
X97466215Y-113953601D01*
X97466212Y-113953607D01*
X97409849Y-114102220D01*
X97390693Y-114259996D01*
X97390693Y-114260003D01*
X97409849Y-114417779D01*
X97466212Y-114566392D01*
X97466215Y-114566398D01*
X97473118Y-114576398D01*
X97556502Y-114697201D01*
X97675471Y-114802599D01*
X97675472Y-114802599D01*
X97675474Y-114802601D01*
X97694524Y-114812599D01*
X97816207Y-114876463D01*
X97970529Y-114914500D01*
X97970530Y-114914500D01*
X98129470Y-114914500D01*
X98129471Y-114914500D01*
X98283793Y-114876463D01*
X98424529Y-114802599D01*
X98543498Y-114697201D01*
X98633787Y-114566395D01*
X98678682Y-114448017D01*
X98721539Y-114391418D01*
X98788195Y-114366973D01*
X98857485Y-114382445D01*
X98904678Y-114428107D01*
X98906357Y-114430920D01*
X98906358Y-114430921D01*
X98942753Y-114491880D01*
X98942755Y-114491882D01*
X98989257Y-114549265D01*
X99537577Y-115056969D01*
X99554742Y-115071533D01*
X99562663Y-115077682D01*
X99572007Y-115084936D01*
X99657503Y-115128789D01*
X99725581Y-115148936D01*
X99798668Y-115159603D01*
X111432997Y-115184357D01*
X111484494Y-115179308D01*
X111509005Y-115174400D01*
X111533508Y-115169495D01*
X111533926Y-115169390D01*
X111556826Y-115163692D01*
X111646328Y-115116349D01*
X111701403Y-115071547D01*
X111751485Y-115017255D01*
X112138437Y-114454414D01*
X112193511Y-114409612D01*
X112264065Y-114401697D01*
X112327698Y-114433183D01*
X112360078Y-114481116D01*
X112396213Y-114576395D01*
X112486502Y-114707201D01*
X112605471Y-114812599D01*
X112605472Y-114812599D01*
X112605474Y-114812601D01*
X112680200Y-114851820D01*
X112746207Y-114886463D01*
X112900529Y-114924500D01*
X112900530Y-114924500D01*
X113059470Y-114924500D01*
X113059471Y-114924500D01*
X113213793Y-114886463D01*
X113354529Y-114812599D01*
X113380038Y-114790000D01*
X118910312Y-114790000D01*
X118930958Y-114933596D01*
X118991223Y-115065558D01*
X119086225Y-115175196D01*
X119208268Y-115253629D01*
X119347464Y-115294500D01*
X119492536Y-115294500D01*
X119631732Y-115253629D01*
X119753775Y-115175196D01*
X119848777Y-115065558D01*
X119909042Y-114933596D01*
X119929688Y-114790000D01*
X119909042Y-114646404D01*
X119848777Y-114514442D01*
X119753775Y-114404804D01*
X119753774Y-114404803D01*
X119692753Y-114365587D01*
X119631732Y-114326371D01*
X119631731Y-114326370D01*
X119631730Y-114326370D01*
X119492536Y-114285500D01*
X119347464Y-114285500D01*
X119208269Y-114326370D01*
X119208266Y-114326372D01*
X119086225Y-114404803D01*
X118991223Y-114514441D01*
X118930958Y-114646403D01*
X118917889Y-114737298D01*
X118910312Y-114790000D01*
X113380038Y-114790000D01*
X113473498Y-114707201D01*
X113563787Y-114576395D01*
X113620149Y-114427782D01*
X113620149Y-114427781D01*
X113620150Y-114427779D01*
X113639307Y-114270003D01*
X113639307Y-114269996D01*
X113620150Y-114112220D01*
X113606055Y-114075055D01*
X113563787Y-113963605D01*
X113508150Y-113883001D01*
X113485915Y-113815579D01*
X113503662Y-113746836D01*
X113528294Y-113717115D01*
X113592763Y-113660000D01*
X118230312Y-113660000D01*
X118250958Y-113803596D01*
X118311223Y-113935558D01*
X118406225Y-114045196D01*
X118528268Y-114123629D01*
X118667464Y-114164500D01*
X118812536Y-114164500D01*
X118951732Y-114123629D01*
X119073775Y-114045196D01*
X119168777Y-113935558D01*
X119229042Y-113803596D01*
X119249688Y-113660000D01*
X119229042Y-113516404D01*
X119168777Y-113384442D01*
X119073775Y-113274804D01*
X119073774Y-113274803D01*
X118957383Y-113200003D01*
X118951732Y-113196371D01*
X118951731Y-113196370D01*
X118951730Y-113196370D01*
X118812536Y-113155500D01*
X118667464Y-113155500D01*
X118528269Y-113196370D01*
X118528266Y-113196372D01*
X118406225Y-113274803D01*
X118311223Y-113384441D01*
X118255528Y-113506398D01*
X118250958Y-113516404D01*
X118230312Y-113660000D01*
X113592763Y-113660000D01*
X113618498Y-113637201D01*
X113708787Y-113506395D01*
X113765149Y-113357782D01*
X113765149Y-113357781D01*
X113765150Y-113357779D01*
X113784307Y-113200003D01*
X113784307Y-113199996D01*
X113765150Y-113042220D01*
X113738937Y-112973103D01*
X113708787Y-112893605D01*
X113618498Y-112762799D01*
X113499529Y-112657401D01*
X113499528Y-112657400D01*
X113499525Y-112657398D01*
X113358797Y-112583539D01*
X113358795Y-112583538D01*
X113358793Y-112583537D01*
X113358791Y-112583536D01*
X113358790Y-112583536D01*
X113204472Y-112545500D01*
X113204471Y-112545500D01*
X113045529Y-112545500D01*
X113045527Y-112545500D01*
X112891209Y-112583536D01*
X112891202Y-112583539D01*
X112750474Y-112657398D01*
X112750464Y-112657405D01*
X112730639Y-112674969D01*
X112666385Y-112705168D01*
X112596005Y-112695835D01*
X112543393Y-112652232D01*
X112525025Y-112625621D01*
X112502791Y-112558198D01*
X112517003Y-112495785D01*
X112552424Y-112427871D01*
X112560572Y-112399996D01*
X114690693Y-112399996D01*
X114690693Y-112400003D01*
X114709849Y-112557779D01*
X114735580Y-112625623D01*
X114766213Y-112706395D01*
X114856502Y-112837201D01*
X114975471Y-112942599D01*
X114975472Y-112942599D01*
X114975474Y-112942601D01*
X114983854Y-112946999D01*
X115116207Y-113016463D01*
X115270529Y-113054500D01*
X115270530Y-113054500D01*
X115429470Y-113054500D01*
X115429471Y-113054500D01*
X115583793Y-113016463D01*
X115724529Y-112942599D01*
X115843498Y-112837201D01*
X115933787Y-112706395D01*
X115990149Y-112557782D01*
X115990149Y-112557781D01*
X115990150Y-112557779D01*
X116009307Y-112400003D01*
X116009307Y-112399996D01*
X120920693Y-112399996D01*
X120920693Y-112400003D01*
X120939849Y-112557779D01*
X120965580Y-112625623D01*
X120996213Y-112706395D01*
X121086502Y-112837201D01*
X121205471Y-112942599D01*
X121205472Y-112942599D01*
X121205474Y-112942601D01*
X121213854Y-112946999D01*
X121346207Y-113016463D01*
X121500529Y-113054500D01*
X121500530Y-113054500D01*
X121659470Y-113054500D01*
X121659471Y-113054500D01*
X121813793Y-113016463D01*
X121954529Y-112942599D01*
X122073498Y-112837201D01*
X122163787Y-112706395D01*
X122220149Y-112557782D01*
X122220149Y-112557781D01*
X122220150Y-112557779D01*
X122239307Y-112400003D01*
X122239307Y-112399996D01*
X122220150Y-112242220D01*
X122201186Y-112192218D01*
X122163787Y-112093605D01*
X122073498Y-111962799D01*
X121954529Y-111857401D01*
X121954528Y-111857400D01*
X121954525Y-111857398D01*
X121813797Y-111783539D01*
X121813795Y-111783538D01*
X121813793Y-111783537D01*
X121813791Y-111783536D01*
X121813790Y-111783536D01*
X121659472Y-111745500D01*
X121659471Y-111745500D01*
X121500529Y-111745500D01*
X121500527Y-111745500D01*
X121346209Y-111783536D01*
X121346202Y-111783539D01*
X121205474Y-111857398D01*
X121205469Y-111857402D01*
X121086501Y-111962800D01*
X120996215Y-112093601D01*
X120996212Y-112093607D01*
X120939849Y-112242220D01*
X120920693Y-112399996D01*
X116009307Y-112399996D01*
X115990150Y-112242220D01*
X115971186Y-112192218D01*
X115933787Y-112093605D01*
X115843498Y-111962799D01*
X115724529Y-111857401D01*
X115724528Y-111857400D01*
X115724525Y-111857398D01*
X115583797Y-111783539D01*
X115583795Y-111783538D01*
X115583793Y-111783537D01*
X115583791Y-111783536D01*
X115583790Y-111783536D01*
X115429472Y-111745500D01*
X115429471Y-111745500D01*
X115270529Y-111745500D01*
X115270527Y-111745500D01*
X115116209Y-111783536D01*
X115116202Y-111783539D01*
X114975474Y-111857398D01*
X114975469Y-111857402D01*
X114856501Y-111962800D01*
X114766215Y-112093601D01*
X114766212Y-112093607D01*
X114709849Y-112242220D01*
X114690693Y-112399996D01*
X112560572Y-112399996D01*
X112572344Y-112359726D01*
X112582768Y-112286605D01*
X112578055Y-108370000D01*
X117810312Y-108370000D01*
X117830958Y-108513596D01*
X117891223Y-108645558D01*
X117986225Y-108755196D01*
X118108268Y-108833629D01*
X118247464Y-108874500D01*
X118392536Y-108874500D01*
X118531732Y-108833629D01*
X118653775Y-108755196D01*
X118664346Y-108742996D01*
X131637693Y-108742996D01*
X131637693Y-108743003D01*
X131656849Y-108900779D01*
X131705447Y-109028919D01*
X131713213Y-109049395D01*
X131803502Y-109180201D01*
X131922471Y-109285599D01*
X131922472Y-109285599D01*
X131922474Y-109285601D01*
X131997200Y-109324820D01*
X132063207Y-109359463D01*
X132217529Y-109397500D01*
X132217530Y-109397500D01*
X132376470Y-109397500D01*
X132376471Y-109397500D01*
X132530793Y-109359463D01*
X132671529Y-109285599D01*
X132790498Y-109180201D01*
X132880787Y-109049395D01*
X132937149Y-108900782D01*
X132937149Y-108900781D01*
X132937150Y-108900779D01*
X132956307Y-108743003D01*
X132956307Y-108742996D01*
X132937150Y-108585220D01*
X132909986Y-108513596D01*
X132880787Y-108436605D01*
X132790498Y-108305799D01*
X132671529Y-108200401D01*
X132671528Y-108200400D01*
X132671525Y-108200398D01*
X132530797Y-108126539D01*
X132530795Y-108126538D01*
X132530793Y-108126537D01*
X132530791Y-108126536D01*
X132530790Y-108126536D01*
X132376472Y-108088500D01*
X132376471Y-108088500D01*
X132217529Y-108088500D01*
X132217527Y-108088500D01*
X132063209Y-108126536D01*
X132063202Y-108126539D01*
X131922474Y-108200398D01*
X131922469Y-108200402D01*
X131803501Y-108305800D01*
X131713215Y-108436601D01*
X131713212Y-108436607D01*
X131656849Y-108585220D01*
X131637693Y-108742996D01*
X118664346Y-108742996D01*
X118748777Y-108645558D01*
X118809042Y-108513596D01*
X118829688Y-108370000D01*
X118809042Y-108226404D01*
X118748777Y-108094442D01*
X118653775Y-107984804D01*
X118653774Y-107984803D01*
X118562894Y-107926398D01*
X118531732Y-107906371D01*
X118531731Y-107906370D01*
X118531730Y-107906370D01*
X118392536Y-107865500D01*
X118247464Y-107865500D01*
X118108269Y-107906370D01*
X118108266Y-107906372D01*
X117986225Y-107984803D01*
X117891223Y-108094441D01*
X117842833Y-108200402D01*
X117830958Y-108226404D01*
X117810312Y-108370000D01*
X112578055Y-108370000D01*
X112577153Y-107619996D01*
X128030693Y-107619996D01*
X128030693Y-107620003D01*
X128049849Y-107777779D01*
X128083118Y-107865500D01*
X128106213Y-107926395D01*
X128196502Y-108057201D01*
X128315471Y-108162599D01*
X128315472Y-108162599D01*
X128315474Y-108162601D01*
X128387491Y-108200398D01*
X128456207Y-108236463D01*
X128610529Y-108274500D01*
X128610530Y-108274500D01*
X128769470Y-108274500D01*
X128769471Y-108274500D01*
X128923793Y-108236463D01*
X129064529Y-108162599D01*
X129183498Y-108057201D01*
X129273787Y-107926395D01*
X129330149Y-107777782D01*
X129330149Y-107777781D01*
X129330150Y-107777779D01*
X129349307Y-107620003D01*
X129349307Y-107619996D01*
X129330150Y-107462220D01*
X129316538Y-107426331D01*
X129273787Y-107313605D01*
X129183498Y-107182799D01*
X129064529Y-107077401D01*
X129064528Y-107077400D01*
X129064525Y-107077398D01*
X128923797Y-107003539D01*
X128923795Y-107003538D01*
X128923793Y-107003537D01*
X128923791Y-107003536D01*
X128923790Y-107003536D01*
X128769472Y-106965500D01*
X128769471Y-106965500D01*
X128610529Y-106965500D01*
X128610527Y-106965500D01*
X128456209Y-107003536D01*
X128456202Y-107003539D01*
X128315474Y-107077398D01*
X128315469Y-107077402D01*
X128196501Y-107182800D01*
X128106215Y-107313601D01*
X128106212Y-107313607D01*
X128049849Y-107462220D01*
X128030693Y-107619996D01*
X112577153Y-107619996D01*
X112575468Y-106220000D01*
X113870312Y-106220000D01*
X113890958Y-106363596D01*
X113951223Y-106495558D01*
X114046225Y-106605196D01*
X114168268Y-106683629D01*
X114307464Y-106724500D01*
X114452536Y-106724500D01*
X114591732Y-106683629D01*
X114713775Y-106605196D01*
X114808777Y-106495558D01*
X114808780Y-106495550D01*
X114811513Y-106491300D01*
X114865167Y-106444804D01*
X114918988Y-106437064D01*
X114918988Y-106433628D01*
X115073072Y-106433628D01*
X115212268Y-106392757D01*
X115334311Y-106314324D01*
X115429313Y-106204686D01*
X115430010Y-106203157D01*
X115431111Y-106201887D01*
X115434183Y-106197108D01*
X115434870Y-106197549D01*
X115476501Y-106149504D01*
X115544621Y-106129500D01*
X115647536Y-106129500D01*
X115786732Y-106088629D01*
X115908775Y-106010196D01*
X116003777Y-105900558D01*
X116064042Y-105768596D01*
X116084688Y-105625000D01*
X116064042Y-105481404D01*
X116003777Y-105349442D01*
X115908775Y-105239804D01*
X115908774Y-105239803D01*
X115847753Y-105200587D01*
X115786732Y-105161371D01*
X115786731Y-105161370D01*
X115786730Y-105161370D01*
X115647536Y-105120500D01*
X115502464Y-105120500D01*
X115363269Y-105161370D01*
X115363266Y-105161372D01*
X115241225Y-105239803D01*
X115146223Y-105349441D01*
X115146220Y-105349446D01*
X115145523Y-105350973D01*
X115144424Y-105352241D01*
X115141351Y-105357023D01*
X115140663Y-105356581D01*
X115099029Y-105404628D01*
X115030911Y-105424628D01*
X114928000Y-105424628D01*
X114788805Y-105465498D01*
X114788802Y-105465500D01*
X114666761Y-105543931D01*
X114571759Y-105653568D01*
X114569018Y-105657835D01*
X114515361Y-105704327D01*
X114461547Y-105712062D01*
X114461547Y-105715500D01*
X114307464Y-105715500D01*
X114168269Y-105756370D01*
X114168266Y-105756372D01*
X114046225Y-105834803D01*
X113951223Y-105944441D01*
X113890958Y-106076403D01*
X113889200Y-106088629D01*
X113870312Y-106220000D01*
X112575468Y-106220000D01*
X112573336Y-104448000D01*
X126718312Y-104448000D01*
X126738958Y-104591596D01*
X126799223Y-104723558D01*
X126894225Y-104833196D01*
X127016268Y-104911629D01*
X127155464Y-104952500D01*
X127300536Y-104952500D01*
X127439732Y-104911629D01*
X127561775Y-104833196D01*
X127656777Y-104723558D01*
X127717042Y-104591596D01*
X127737688Y-104448000D01*
X127717042Y-104304404D01*
X127656777Y-104172442D01*
X127561775Y-104062804D01*
X127561774Y-104062803D01*
X127500753Y-104023587D01*
X127439732Y-103984371D01*
X127439731Y-103984370D01*
X127439730Y-103984370D01*
X127300536Y-103943500D01*
X127155464Y-103943500D01*
X127016269Y-103984370D01*
X127016266Y-103984372D01*
X126894225Y-104062803D01*
X126799223Y-104172441D01*
X126799223Y-104172442D01*
X126738958Y-104304404D01*
X126718312Y-104448000D01*
X112573336Y-104448000D01*
X112572207Y-103509996D01*
X114770693Y-103509996D01*
X114770693Y-103510003D01*
X114789849Y-103667779D01*
X114838447Y-103795919D01*
X114846213Y-103816395D01*
X114936502Y-103947201D01*
X115055471Y-104052599D01*
X115055472Y-104052599D01*
X115055474Y-104052601D01*
X115130200Y-104091820D01*
X115196207Y-104126463D01*
X115350529Y-104164500D01*
X115350530Y-104164500D01*
X115509470Y-104164500D01*
X115509471Y-104164500D01*
X115663793Y-104126463D01*
X115804529Y-104052599D01*
X115923498Y-103947201D01*
X116013787Y-103816395D01*
X116070149Y-103667782D01*
X116070149Y-103667781D01*
X116070150Y-103667779D01*
X116089307Y-103510003D01*
X116089307Y-103509996D01*
X118780693Y-103509996D01*
X118780693Y-103510003D01*
X118799849Y-103667779D01*
X118848447Y-103795919D01*
X118856213Y-103816395D01*
X118946502Y-103947201D01*
X119065471Y-104052599D01*
X119065472Y-104052599D01*
X119065474Y-104052601D01*
X119140200Y-104091820D01*
X119206207Y-104126463D01*
X119360529Y-104164500D01*
X119360530Y-104164500D01*
X119519470Y-104164500D01*
X119519471Y-104164500D01*
X119673793Y-104126463D01*
X119814529Y-104052599D01*
X119933498Y-103947201D01*
X120023787Y-103816395D01*
X120080149Y-103667782D01*
X120080149Y-103667781D01*
X120080150Y-103667779D01*
X120099307Y-103510003D01*
X120099307Y-103509996D01*
X120080150Y-103352220D01*
X120066538Y-103316331D01*
X120023787Y-103203605D01*
X119933498Y-103072799D01*
X119814529Y-102967401D01*
X119814528Y-102967400D01*
X119814525Y-102967398D01*
X119673797Y-102893539D01*
X119673795Y-102893538D01*
X119673793Y-102893537D01*
X119673791Y-102893536D01*
X119673790Y-102893536D01*
X119519472Y-102855500D01*
X119519471Y-102855500D01*
X119360529Y-102855500D01*
X119360527Y-102855500D01*
X119206209Y-102893536D01*
X119206202Y-102893539D01*
X119065474Y-102967398D01*
X119065469Y-102967402D01*
X118946501Y-103072800D01*
X118856215Y-103203601D01*
X118856212Y-103203607D01*
X118799849Y-103352220D01*
X118780693Y-103509996D01*
X116089307Y-103509996D01*
X116070150Y-103352220D01*
X116056538Y-103316331D01*
X116013787Y-103203605D01*
X115923498Y-103072799D01*
X115804529Y-102967401D01*
X115804528Y-102967400D01*
X115804525Y-102967398D01*
X115663797Y-102893539D01*
X115663795Y-102893538D01*
X115663793Y-102893537D01*
X115663791Y-102893536D01*
X115663790Y-102893536D01*
X115509472Y-102855500D01*
X115509471Y-102855500D01*
X115350529Y-102855500D01*
X115350527Y-102855500D01*
X115196209Y-102893536D01*
X115196202Y-102893539D01*
X115055474Y-102967398D01*
X115055469Y-102967402D01*
X114936501Y-103072800D01*
X114846215Y-103203601D01*
X114846212Y-103203607D01*
X114789849Y-103352220D01*
X114770693Y-103509996D01*
X112572207Y-103509996D01*
X112570943Y-102459996D01*
X121980693Y-102459996D01*
X121980693Y-102460003D01*
X121999849Y-102617779D01*
X122008277Y-102640000D01*
X122056213Y-102766395D01*
X122146502Y-102897201D01*
X122265471Y-103002599D01*
X122265472Y-103002599D01*
X122265474Y-103002601D01*
X122308526Y-103025196D01*
X122406207Y-103076463D01*
X122560529Y-103114500D01*
X122560530Y-103114500D01*
X122719470Y-103114500D01*
X122719471Y-103114500D01*
X122873793Y-103076463D01*
X123014529Y-103002599D01*
X123133498Y-102897201D01*
X123223787Y-102766395D01*
X123271723Y-102640000D01*
X126010312Y-102640000D01*
X126030958Y-102783596D01*
X126091223Y-102915558D01*
X126186225Y-103025196D01*
X126308268Y-103103629D01*
X126447464Y-103144500D01*
X126592536Y-103144500D01*
X126731732Y-103103629D01*
X126853775Y-103025196D01*
X126948777Y-102915558D01*
X127009042Y-102783596D01*
X127029688Y-102640000D01*
X127009042Y-102496404D01*
X126948777Y-102364442D01*
X126853775Y-102254804D01*
X126853774Y-102254803D01*
X126792753Y-102215587D01*
X126731732Y-102176371D01*
X126731731Y-102176370D01*
X126731730Y-102176370D01*
X126592536Y-102135500D01*
X126447464Y-102135500D01*
X126308269Y-102176370D01*
X126308266Y-102176372D01*
X126186225Y-102254803D01*
X126091223Y-102364441D01*
X126036395Y-102484499D01*
X126030958Y-102496404D01*
X126010312Y-102640000D01*
X123271723Y-102640000D01*
X123280149Y-102617782D01*
X123280149Y-102617781D01*
X123280150Y-102617779D01*
X123299307Y-102460003D01*
X123299307Y-102459996D01*
X123280150Y-102302220D01*
X123232421Y-102176372D01*
X123223787Y-102153605D01*
X123133498Y-102022799D01*
X123014529Y-101917401D01*
X123014528Y-101917400D01*
X123014525Y-101917398D01*
X122873797Y-101843539D01*
X122873795Y-101843538D01*
X122873793Y-101843537D01*
X122873791Y-101843536D01*
X122873790Y-101843536D01*
X122818856Y-101829996D01*
X123940693Y-101829996D01*
X123940693Y-101830003D01*
X123959849Y-101987779D01*
X124008447Y-102115919D01*
X124016213Y-102136395D01*
X124106502Y-102267201D01*
X124225471Y-102372599D01*
X124225472Y-102372599D01*
X124225474Y-102372601D01*
X124300200Y-102411820D01*
X124366207Y-102446463D01*
X124520529Y-102484500D01*
X124520530Y-102484500D01*
X124679470Y-102484500D01*
X124679471Y-102484500D01*
X124833793Y-102446463D01*
X124974529Y-102372599D01*
X125093498Y-102267201D01*
X125183787Y-102136395D01*
X125240149Y-101987782D01*
X125240149Y-101987781D01*
X125240150Y-101987779D01*
X125259307Y-101830003D01*
X125259307Y-101829996D01*
X125240150Y-101672220D01*
X125226538Y-101636331D01*
X125183787Y-101523605D01*
X125093498Y-101392799D01*
X124974529Y-101287401D01*
X124974528Y-101287400D01*
X124974525Y-101287398D01*
X124833797Y-101213539D01*
X124833795Y-101213538D01*
X124833793Y-101213537D01*
X124833791Y-101213536D01*
X124833790Y-101213536D01*
X124679472Y-101175500D01*
X124679471Y-101175500D01*
X124520529Y-101175500D01*
X124520527Y-101175500D01*
X124366209Y-101213536D01*
X124366202Y-101213539D01*
X124225474Y-101287398D01*
X124225469Y-101287402D01*
X124106501Y-101392800D01*
X124016215Y-101523601D01*
X124016212Y-101523607D01*
X123959849Y-101672220D01*
X123940693Y-101829996D01*
X122818856Y-101829996D01*
X122719472Y-101805500D01*
X122719471Y-101805500D01*
X122560529Y-101805500D01*
X122560527Y-101805500D01*
X122406209Y-101843536D01*
X122406202Y-101843539D01*
X122265474Y-101917398D01*
X122265469Y-101917402D01*
X122146501Y-102022800D01*
X122056215Y-102153601D01*
X122056212Y-102153607D01*
X121999849Y-102302220D01*
X121980693Y-102459996D01*
X112570943Y-102459996D01*
X112568416Y-100359996D01*
X116430693Y-100359996D01*
X116430693Y-100360003D01*
X116449849Y-100517779D01*
X116498447Y-100645919D01*
X116506213Y-100666395D01*
X116596502Y-100797201D01*
X116715471Y-100902599D01*
X116715472Y-100902599D01*
X116715474Y-100902601D01*
X116790200Y-100941820D01*
X116856207Y-100976463D01*
X117010529Y-101014500D01*
X117010530Y-101014500D01*
X117169470Y-101014500D01*
X117169471Y-101014500D01*
X117323793Y-100976463D01*
X117464529Y-100902599D01*
X117583498Y-100797201D01*
X117673787Y-100666395D01*
X117730149Y-100517782D01*
X117730149Y-100517781D01*
X117730150Y-100517779D01*
X117749307Y-100360003D01*
X117749307Y-100359996D01*
X117730150Y-100202220D01*
X117716538Y-100166331D01*
X117673787Y-100053605D01*
X117583498Y-99922799D01*
X117464529Y-99817401D01*
X117464528Y-99817400D01*
X117464525Y-99817398D01*
X117323797Y-99743539D01*
X117323795Y-99743538D01*
X117323793Y-99743537D01*
X117323791Y-99743536D01*
X117323790Y-99743536D01*
X117169472Y-99705500D01*
X117169471Y-99705500D01*
X117010529Y-99705500D01*
X117010527Y-99705500D01*
X116856209Y-99743536D01*
X116856202Y-99743539D01*
X116715474Y-99817398D01*
X116715469Y-99817402D01*
X116596501Y-99922800D01*
X116506215Y-100053601D01*
X116506212Y-100053607D01*
X116449849Y-100202220D01*
X116430693Y-100359996D01*
X112568416Y-100359996D01*
X112564301Y-96939996D01*
X114780693Y-96939996D01*
X114780693Y-96940003D01*
X114799849Y-97097779D01*
X114848447Y-97225919D01*
X114856213Y-97246395D01*
X114946502Y-97377201D01*
X115065471Y-97482599D01*
X115065472Y-97482599D01*
X115065474Y-97482601D01*
X115140200Y-97521820D01*
X115206207Y-97556463D01*
X115360529Y-97594500D01*
X115360530Y-97594500D01*
X115519470Y-97594500D01*
X115519471Y-97594500D01*
X115673793Y-97556463D01*
X115814529Y-97482599D01*
X115933498Y-97377201D01*
X116023787Y-97246395D01*
X116080149Y-97097782D01*
X116080149Y-97097781D01*
X116080150Y-97097779D01*
X116099307Y-96940003D01*
X116099307Y-96939996D01*
X116080150Y-96782220D01*
X116066538Y-96746331D01*
X116023787Y-96633605D01*
X115933498Y-96502799D01*
X115814529Y-96397401D01*
X115814528Y-96397400D01*
X115814525Y-96397398D01*
X115673797Y-96323539D01*
X115673795Y-96323538D01*
X115673793Y-96323537D01*
X115673791Y-96323536D01*
X115673790Y-96323536D01*
X115519472Y-96285500D01*
X115519471Y-96285500D01*
X115360529Y-96285500D01*
X115360527Y-96285500D01*
X115206209Y-96323536D01*
X115206202Y-96323539D01*
X115065474Y-96397398D01*
X115065469Y-96397402D01*
X114946501Y-96502800D01*
X114856215Y-96633601D01*
X114856212Y-96633607D01*
X114799849Y-96782220D01*
X114780693Y-96939996D01*
X112564301Y-96939996D01*
X112561858Y-94909996D01*
X122800720Y-94909996D01*
X122800720Y-94910003D01*
X122819826Y-95262390D01*
X122876918Y-95610644D01*
X122971332Y-95950691D01*
X122971333Y-95950693D01*
X123101958Y-96278536D01*
X123164977Y-96397402D01*
X123267260Y-96590329D01*
X123267262Y-96590333D01*
X123397363Y-96782218D01*
X123465310Y-96882432D01*
X123648227Y-97097779D01*
X123693777Y-97151405D01*
X123949972Y-97394087D01*
X123949987Y-97394100D01*
X124230934Y-97607670D01*
X124533326Y-97789613D01*
X124649307Y-97843271D01*
X124853604Y-97937790D01*
X124853616Y-97937795D01*
X125188050Y-98050479D01*
X125532707Y-98126344D01*
X125883546Y-98164500D01*
X125883554Y-98164500D01*
X126236446Y-98164500D01*
X126236454Y-98164500D01*
X126587293Y-98126344D01*
X126931950Y-98050479D01*
X127266384Y-97937795D01*
X127586674Y-97789613D01*
X127889066Y-97607670D01*
X128170013Y-97394100D01*
X128426223Y-97151405D01*
X128654690Y-96882432D01*
X128852737Y-96590334D01*
X129018042Y-96278536D01*
X129148667Y-95950693D01*
X129243080Y-95610649D01*
X129300174Y-95262390D01*
X129319280Y-94910000D01*
X129300174Y-94557610D01*
X129243080Y-94209351D01*
X129148667Y-93869307D01*
X129018042Y-93541464D01*
X128852737Y-93229666D01*
X128654690Y-92937568D01*
X128426223Y-92668595D01*
X128426222Y-92668594D01*
X128170027Y-92425912D01*
X128170012Y-92425899D01*
X127889070Y-92212333D01*
X127889064Y-92212329D01*
X127586674Y-92030387D01*
X127583484Y-92028911D01*
X127266395Y-91882209D01*
X127266383Y-91882204D01*
X126931959Y-91769524D01*
X126931958Y-91769523D01*
X126931950Y-91769521D01*
X126885224Y-91759235D01*
X126587305Y-91693658D01*
X126587281Y-91693654D01*
X126236461Y-91655500D01*
X126236454Y-91655500D01*
X125883546Y-91655500D01*
X125883538Y-91655500D01*
X125532718Y-91693654D01*
X125532694Y-91693658D01*
X125188054Y-91769520D01*
X125188040Y-91769524D01*
X124853616Y-91882204D01*
X124853604Y-91882209D01*
X124533331Y-92030384D01*
X124533324Y-92030388D01*
X124230935Y-92212329D01*
X124230929Y-92212333D01*
X123949987Y-92425899D01*
X123949972Y-92425912D01*
X123693777Y-92668594D01*
X123465308Y-92937570D01*
X123267262Y-93229666D01*
X123267260Y-93229670D01*
X123101957Y-93541466D01*
X123101953Y-93541475D01*
X122971332Y-93869308D01*
X122876918Y-94209355D01*
X122819826Y-94557609D01*
X122800720Y-94909996D01*
X112561858Y-94909996D01*
X112559553Y-92994168D01*
X112559161Y-92980223D01*
X112558417Y-92966701D01*
X112538892Y-92881258D01*
X112511615Y-92815710D01*
X112473822Y-92752250D01*
X112315204Y-92556077D01*
X112045872Y-92222977D01*
X112018595Y-92157429D01*
X112031086Y-92087540D01*
X112079379Y-92035499D01*
X112113698Y-92021416D01*
X112133789Y-92016464D01*
X112133789Y-92016463D01*
X112133793Y-92016463D01*
X112274529Y-91942599D01*
X112393498Y-91837201D01*
X112483787Y-91706395D01*
X112540149Y-91557782D01*
X112540149Y-91557781D01*
X112540150Y-91557779D01*
X112559307Y-91400003D01*
X112559307Y-91399996D01*
X112540150Y-91242220D01*
X112507411Y-91155897D01*
X112483787Y-91093605D01*
X112408958Y-90985196D01*
X112393499Y-90962800D01*
X112393498Y-90962799D01*
X112316191Y-90894310D01*
X112278467Y-90834168D01*
X112279247Y-90763175D01*
X112316191Y-90705689D01*
X112393498Y-90637201D01*
X112483787Y-90506395D01*
X112540149Y-90357782D01*
X112540149Y-90357781D01*
X112540150Y-90357779D01*
X112559307Y-90200003D01*
X112559307Y-90199996D01*
X112540150Y-90042220D01*
X112526538Y-90006331D01*
X112483787Y-89893605D01*
X112393498Y-89762799D01*
X112344410Y-89719310D01*
X112306686Y-89659168D01*
X112307466Y-89588175D01*
X112344410Y-89530689D01*
X112393498Y-89487201D01*
X112483787Y-89356395D01*
X112540149Y-89207782D01*
X112540149Y-89207781D01*
X112540150Y-89207779D01*
X112559307Y-89050003D01*
X112559307Y-89049996D01*
X112540150Y-88892220D01*
X112517691Y-88833002D01*
X112483787Y-88743605D01*
X112393498Y-88612799D01*
X112274529Y-88507401D01*
X112274528Y-88507400D01*
X112274525Y-88507398D01*
X112133797Y-88433539D01*
X112133795Y-88433538D01*
X112133793Y-88433537D01*
X112133791Y-88433536D01*
X112133790Y-88433536D01*
X111979472Y-88395500D01*
X111979471Y-88395500D01*
X111820529Y-88395500D01*
X111820527Y-88395500D01*
X111666209Y-88433536D01*
X111666202Y-88433539D01*
X111525474Y-88507398D01*
X111525469Y-88507402D01*
X111406501Y-88612800D01*
X111316215Y-88743601D01*
X111316212Y-88743607D01*
X111259849Y-88892220D01*
X111240693Y-89049996D01*
X111240693Y-89050003D01*
X111259849Y-89207779D01*
X111277948Y-89255500D01*
X111316213Y-89356395D01*
X111406502Y-89487201D01*
X111441709Y-89518392D01*
X111455589Y-89530689D01*
X111493313Y-89590833D01*
X111492532Y-89661826D01*
X111455589Y-89719311D01*
X111406501Y-89762800D01*
X111316215Y-89893601D01*
X111316212Y-89893607D01*
X111259849Y-90042220D01*
X111240693Y-90199996D01*
X111240693Y-90200003D01*
X111259849Y-90357779D01*
X111297254Y-90456404D01*
X111316213Y-90506395D01*
X111406502Y-90637201D01*
X111466753Y-90690579D01*
X111483807Y-90705688D01*
X111521532Y-90765833D01*
X111520752Y-90836825D01*
X111483807Y-90894312D01*
X111406501Y-90962800D01*
X111316215Y-91093601D01*
X111316212Y-91093607D01*
X111259849Y-91242220D01*
X111240693Y-91399996D01*
X111240693Y-91400003D01*
X111259849Y-91557779D01*
X111296911Y-91655500D01*
X111311382Y-91693658D01*
X111316212Y-91706392D01*
X111316215Y-91706398D01*
X111398735Y-91825949D01*
X111420971Y-91893374D01*
X111403224Y-91962117D01*
X111351129Y-92010352D01*
X111298752Y-92023470D01*
X111114213Y-92028911D01*
X111045533Y-92010926D01*
X110997479Y-91958663D01*
X110984500Y-91902966D01*
X110984500Y-85351139D01*
X111004502Y-85283018D01*
X111058158Y-85236525D01*
X111128432Y-85226421D01*
X111193012Y-85255915D01*
X111228311Y-85306456D01*
X111266212Y-85406393D01*
X111266215Y-85406398D01*
X111356500Y-85537199D01*
X111356501Y-85537200D01*
X111356502Y-85537201D01*
X111441242Y-85612275D01*
X111478967Y-85672418D01*
X111478187Y-85743411D01*
X111461385Y-85778161D01*
X111416214Y-85843602D01*
X111416212Y-85843607D01*
X111359849Y-85992220D01*
X111340693Y-86149996D01*
X111340693Y-86150003D01*
X111359849Y-86307779D01*
X111384257Y-86372135D01*
X111416213Y-86456395D01*
X111506502Y-86587201D01*
X111568452Y-86642084D01*
X111606177Y-86702229D01*
X111605397Y-86773221D01*
X111566359Y-86832522D01*
X111543454Y-86847963D01*
X111525471Y-86857400D01*
X111525469Y-86857402D01*
X111406501Y-86962800D01*
X111316215Y-87093601D01*
X111316212Y-87093607D01*
X111259849Y-87242220D01*
X111240693Y-87399996D01*
X111240693Y-87400003D01*
X111259849Y-87557779D01*
X111296460Y-87654312D01*
X111316213Y-87706395D01*
X111406502Y-87837201D01*
X111525471Y-87942599D01*
X111525472Y-87942599D01*
X111525474Y-87942601D01*
X111600200Y-87981820D01*
X111666207Y-88016463D01*
X111820529Y-88054500D01*
X111820530Y-88054500D01*
X111979470Y-88054500D01*
X111979471Y-88054500D01*
X112133793Y-88016463D01*
X112274529Y-87942599D01*
X112393498Y-87837201D01*
X112483787Y-87706395D01*
X112540149Y-87557782D01*
X112540149Y-87557781D01*
X112540150Y-87557779D01*
X112559307Y-87400003D01*
X112559307Y-87399996D01*
X112540150Y-87242220D01*
X112526538Y-87206331D01*
X112483787Y-87093605D01*
X112393498Y-86962799D01*
X112331546Y-86907914D01*
X112293822Y-86847770D01*
X112294602Y-86776778D01*
X112333640Y-86717477D01*
X112356540Y-86702040D01*
X112374529Y-86692599D01*
X112493498Y-86587201D01*
X112583787Y-86456395D01*
X112640149Y-86307782D01*
X112640149Y-86307781D01*
X112640150Y-86307779D01*
X112659307Y-86150003D01*
X112659307Y-86149996D01*
X112640150Y-85992220D01*
X112615743Y-85927865D01*
X112583787Y-85843605D01*
X112493498Y-85712799D01*
X112408756Y-85637723D01*
X112371032Y-85577581D01*
X112371812Y-85506588D01*
X112388612Y-85471842D01*
X112433787Y-85406395D01*
X112490149Y-85257782D01*
X112490149Y-85257781D01*
X112490150Y-85257779D01*
X112509307Y-85100003D01*
X112509307Y-85099996D01*
X112490150Y-84942220D01*
X112471688Y-84893541D01*
X112433787Y-84793605D01*
X112343498Y-84662799D01*
X112224529Y-84557401D01*
X112224528Y-84557400D01*
X112224525Y-84557398D01*
X112083797Y-84483539D01*
X112083795Y-84483538D01*
X112083793Y-84483537D01*
X112083791Y-84483536D01*
X112083790Y-84483536D01*
X111929472Y-84445500D01*
X111929471Y-84445500D01*
X111770529Y-84445500D01*
X111770527Y-84445500D01*
X111616209Y-84483536D01*
X111616202Y-84483539D01*
X111475474Y-84557398D01*
X111475469Y-84557402D01*
X111356501Y-84662800D01*
X111266215Y-84793601D01*
X111266212Y-84793607D01*
X111228312Y-84893541D01*
X111185453Y-84950142D01*
X111118798Y-84974586D01*
X111049507Y-84959114D01*
X110999582Y-84908636D01*
X110984500Y-84848860D01*
X110984500Y-83224772D01*
X111004502Y-83156651D01*
X111058158Y-83110158D01*
X111128432Y-83100054D01*
X111193012Y-83129548D01*
X111228311Y-83180090D01*
X111276213Y-83306395D01*
X111366502Y-83437201D01*
X111485471Y-83542599D01*
X111485472Y-83542599D01*
X111485474Y-83542601D01*
X111560200Y-83581820D01*
X111626207Y-83616463D01*
X111780529Y-83654500D01*
X111780530Y-83654500D01*
X111939470Y-83654500D01*
X111939471Y-83654500D01*
X112093793Y-83616463D01*
X112234529Y-83542599D01*
X112353498Y-83437201D01*
X112443787Y-83306395D01*
X112500149Y-83157782D01*
X112500149Y-83157781D01*
X112500150Y-83157779D01*
X112519307Y-83000003D01*
X112519307Y-82999996D01*
X112500150Y-82842220D01*
X112474742Y-82775227D01*
X112443787Y-82693605D01*
X112396432Y-82625000D01*
X125040726Y-82625000D01*
X125059763Y-82793954D01*
X125097203Y-82900953D01*
X125115918Y-82954437D01*
X125115919Y-82954439D01*
X125206375Y-83098399D01*
X125206377Y-83098402D01*
X125326597Y-83218622D01*
X125326600Y-83218624D01*
X125470563Y-83309082D01*
X125631046Y-83365237D01*
X125800000Y-83384274D01*
X125968954Y-83365237D01*
X126129437Y-83309082D01*
X126273400Y-83218624D01*
X126393624Y-83098400D01*
X126484082Y-82954437D01*
X126540237Y-82793954D01*
X126559274Y-82625000D01*
X126540237Y-82456046D01*
X126484082Y-82295563D01*
X126393624Y-82151600D01*
X126393622Y-82151597D01*
X126273402Y-82031377D01*
X126273399Y-82031375D01*
X126129439Y-81940919D01*
X126129437Y-81940918D01*
X126113084Y-81935196D01*
X125968954Y-81884763D01*
X125800000Y-81865726D01*
X125631046Y-81884763D01*
X125631043Y-81884763D01*
X125631043Y-81884764D01*
X125470562Y-81940918D01*
X125470560Y-81940919D01*
X125326600Y-82031375D01*
X125326597Y-82031377D01*
X125206377Y-82151597D01*
X125206375Y-82151600D01*
X125115919Y-82295560D01*
X125115918Y-82295562D01*
X125115918Y-82295563D01*
X125059763Y-82456046D01*
X125040726Y-82625000D01*
X112396432Y-82625000D01*
X112353498Y-82562799D01*
X112234529Y-82457401D01*
X112234528Y-82457400D01*
X112234525Y-82457398D01*
X112093797Y-82383539D01*
X112093795Y-82383538D01*
X112093793Y-82383537D01*
X112093791Y-82383536D01*
X112093790Y-82383536D01*
X111939472Y-82345500D01*
X111939471Y-82345500D01*
X111780529Y-82345500D01*
X111780527Y-82345500D01*
X111626209Y-82383536D01*
X111626202Y-82383539D01*
X111485474Y-82457398D01*
X111485469Y-82457402D01*
X111366501Y-82562800D01*
X111276215Y-82693601D01*
X111276212Y-82693607D01*
X111228312Y-82819908D01*
X111185453Y-82876509D01*
X111118797Y-82900953D01*
X111049507Y-82885481D01*
X110999582Y-82835003D01*
X110984500Y-82775227D01*
X110984500Y-79600701D01*
X110984499Y-79600690D01*
X110978634Y-79545834D01*
X110978632Y-79545826D01*
X110967379Y-79493796D01*
X110967377Y-79493790D01*
X110967374Y-79493774D01*
X110960156Y-79467275D01*
X110910265Y-79379168D01*
X110863902Y-79325401D01*
X110863898Y-79325397D01*
X110863896Y-79325394D01*
X110830697Y-79293205D01*
X110830689Y-79293199D01*
X110741098Y-79246057D01*
X110741091Y-79246054D01*
X110741090Y-79246053D01*
X110741089Y-79246053D01*
X110673017Y-79225886D01*
X110673016Y-79225885D01*
X110673010Y-79225884D01*
X110599929Y-79215198D01*
X110182584Y-79214192D01*
X110114512Y-79194025D01*
X110068149Y-79140258D01*
X110056892Y-79087305D01*
X110067062Y-77650000D01*
X120240312Y-77650000D01*
X120260958Y-77793596D01*
X120321223Y-77925558D01*
X120416225Y-78035196D01*
X120538268Y-78113629D01*
X120677464Y-78154500D01*
X120683543Y-78156285D01*
X120743269Y-78194668D01*
X120772762Y-78259249D01*
X120762659Y-78329523D01*
X120716166Y-78383179D01*
X120683543Y-78398077D01*
X120638270Y-78411370D01*
X120638266Y-78411372D01*
X120516225Y-78489803D01*
X120421223Y-78599441D01*
X120366203Y-78719920D01*
X120360958Y-78731404D01*
X120340312Y-78875000D01*
X120360958Y-79018596D01*
X120421223Y-79150558D01*
X120516225Y-79260196D01*
X120638268Y-79338629D01*
X120777464Y-79379500D01*
X120922536Y-79379500D01*
X121061732Y-79338629D01*
X121183775Y-79260196D01*
X121278777Y-79150558D01*
X121339042Y-79018596D01*
X121359688Y-78875000D01*
X121339042Y-78731404D01*
X121278777Y-78599442D01*
X121183775Y-78489804D01*
X121183774Y-78489803D01*
X121101924Y-78437201D01*
X121061732Y-78411371D01*
X121061729Y-78411370D01*
X120916456Y-78368714D01*
X120856729Y-78330330D01*
X120827236Y-78265750D01*
X120837340Y-78195476D01*
X120883833Y-78141820D01*
X120916449Y-78126925D01*
X120961732Y-78113629D01*
X121083775Y-78035196D01*
X121178777Y-77925558D01*
X121239042Y-77793596D01*
X121259688Y-77650000D01*
X121239042Y-77506404D01*
X121178777Y-77374442D01*
X121083775Y-77264804D01*
X121083774Y-77264803D01*
X120963023Y-77187201D01*
X120961732Y-77186371D01*
X120961731Y-77186370D01*
X120961730Y-77186370D01*
X120822536Y-77145500D01*
X120677464Y-77145500D01*
X120538269Y-77186370D01*
X120538266Y-77186372D01*
X120416225Y-77264803D01*
X120321223Y-77374441D01*
X120260958Y-77506403D01*
X120254051Y-77554442D01*
X120240312Y-77650000D01*
X110067062Y-77650000D01*
X110075553Y-76450000D01*
X119740312Y-76450000D01*
X119760958Y-76593596D01*
X119821223Y-76725558D01*
X119916225Y-76835196D01*
X120038268Y-76913629D01*
X120177464Y-76954500D01*
X120322536Y-76954500D01*
X120461732Y-76913629D01*
X120583775Y-76835196D01*
X120678777Y-76725558D01*
X120739042Y-76593596D01*
X120759688Y-76450000D01*
X120739042Y-76306404D01*
X120678777Y-76174442D01*
X120583775Y-76064804D01*
X120583774Y-76064803D01*
X120463023Y-75987201D01*
X120461732Y-75986371D01*
X120461731Y-75986370D01*
X120461730Y-75986370D01*
X120322536Y-75945500D01*
X120177464Y-75945500D01*
X120038269Y-75986370D01*
X120038266Y-75986372D01*
X119916225Y-76064803D01*
X119821223Y-76174441D01*
X119760958Y-76306403D01*
X119752730Y-76363629D01*
X119740312Y-76450000D01*
X110075553Y-76450000D01*
X110098285Y-73237428D01*
X110099563Y-73220415D01*
X110109688Y-73150000D01*
X110100754Y-73087868D01*
X110099477Y-73069077D01*
X110114684Y-70920000D01*
X115780726Y-70920000D01*
X115799763Y-71088954D01*
X115838619Y-71200000D01*
X115855918Y-71249437D01*
X115855919Y-71249439D01*
X115946375Y-71393399D01*
X115946377Y-71393402D01*
X116066597Y-71513622D01*
X116066600Y-71513624D01*
X116210563Y-71604082D01*
X116371046Y-71660237D01*
X116540000Y-71679274D01*
X116708954Y-71660237D01*
X116869437Y-71604082D01*
X117013400Y-71513624D01*
X117122558Y-71404465D01*
X117184868Y-71370442D01*
X117255684Y-71375506D01*
X117312520Y-71418053D01*
X117315058Y-71421748D01*
X117316377Y-71423402D01*
X117436597Y-71543622D01*
X117436600Y-71543624D01*
X117580563Y-71634082D01*
X117741046Y-71690237D01*
X117910000Y-71709274D01*
X118078954Y-71690237D01*
X118239437Y-71634082D01*
X118383400Y-71543624D01*
X118503624Y-71423400D01*
X118586666Y-71291238D01*
X118639844Y-71244201D01*
X118710011Y-71233381D01*
X118774890Y-71262214D01*
X118800040Y-71291239D01*
X118860609Y-71387633D01*
X118860611Y-71387636D01*
X118980831Y-71507856D01*
X118980834Y-71507858D01*
X119124797Y-71598316D01*
X119285280Y-71654471D01*
X119454234Y-71673508D01*
X119623188Y-71654471D01*
X119783671Y-71598316D01*
X119927634Y-71507858D01*
X120047858Y-71387634D01*
X120138316Y-71243671D01*
X120194471Y-71083188D01*
X120213508Y-70914234D01*
X120194471Y-70745280D01*
X120138316Y-70584797D01*
X120047858Y-70440834D01*
X120047856Y-70440831D01*
X119927636Y-70320611D01*
X119927633Y-70320609D01*
X119783673Y-70230153D01*
X119783671Y-70230152D01*
X119725402Y-70209763D01*
X119623188Y-70173997D01*
X119587714Y-70170000D01*
X120967129Y-70170000D01*
X120987775Y-70313596D01*
X121048040Y-70445558D01*
X121143042Y-70555196D01*
X121265085Y-70633629D01*
X121404281Y-70674500D01*
X121479341Y-70674500D01*
X121547462Y-70694502D01*
X121593955Y-70748158D01*
X121604058Y-70818430D01*
X121591612Y-70905000D01*
X121612258Y-71048596D01*
X121672523Y-71180558D01*
X121767525Y-71290196D01*
X121889568Y-71368629D01*
X122028764Y-71409500D01*
X122173836Y-71409500D01*
X122313032Y-71368629D01*
X122435075Y-71290196D01*
X122530077Y-71180558D01*
X122590342Y-71048596D01*
X122610988Y-70905000D01*
X122590342Y-70761404D01*
X122530077Y-70629442D01*
X122435075Y-70519804D01*
X122435074Y-70519803D01*
X122350628Y-70465533D01*
X122313032Y-70441371D01*
X122313031Y-70441370D01*
X122313030Y-70441370D01*
X122173836Y-70400500D01*
X122098776Y-70400500D01*
X122030655Y-70380498D01*
X121984162Y-70326842D01*
X121974058Y-70256568D01*
X121986505Y-70170000D01*
X121965859Y-70026404D01*
X121905594Y-69894442D01*
X121810592Y-69784804D01*
X121810591Y-69784803D01*
X121689840Y-69707201D01*
X121688549Y-69706371D01*
X121688548Y-69706370D01*
X121688547Y-69706370D01*
X121549353Y-69665500D01*
X121404281Y-69665500D01*
X121265086Y-69706370D01*
X121265083Y-69706372D01*
X121143042Y-69784803D01*
X121048040Y-69894441D01*
X121034722Y-69923605D01*
X120987775Y-70026404D01*
X120967129Y-70170000D01*
X119587714Y-70170000D01*
X119454234Y-70154960D01*
X119285280Y-70173997D01*
X119285277Y-70173997D01*
X119285277Y-70173998D01*
X119124796Y-70230152D01*
X119124794Y-70230153D01*
X118980834Y-70320609D01*
X118980831Y-70320611D01*
X118860612Y-70440830D01*
X118777567Y-70572995D01*
X118724388Y-70620032D01*
X118654221Y-70630852D01*
X118589343Y-70602019D01*
X118564193Y-70572994D01*
X118503624Y-70476600D01*
X118503622Y-70476597D01*
X118383402Y-70356377D01*
X118383399Y-70356375D01*
X118239439Y-70265919D01*
X118239437Y-70265918D01*
X118212716Y-70256568D01*
X118078954Y-70209763D01*
X117910000Y-70190726D01*
X117741046Y-70209763D01*
X117741043Y-70209763D01*
X117741043Y-70209764D01*
X117580562Y-70265918D01*
X117580560Y-70265919D01*
X117436600Y-70356374D01*
X117327442Y-70465533D01*
X117265130Y-70499558D01*
X117194314Y-70494492D01*
X117137478Y-70451946D01*
X117134935Y-70448244D01*
X117133622Y-70446597D01*
X117013402Y-70326377D01*
X117013399Y-70326375D01*
X116869439Y-70235919D01*
X116869437Y-70235918D01*
X116852524Y-70230000D01*
X116708954Y-70179763D01*
X116540000Y-70160726D01*
X116371046Y-70179763D01*
X116371043Y-70179763D01*
X116371043Y-70179764D01*
X116210562Y-70235918D01*
X116210560Y-70235919D01*
X116066600Y-70326375D01*
X116066597Y-70326377D01*
X115946377Y-70446597D01*
X115946375Y-70446600D01*
X115855919Y-70590560D01*
X115855918Y-70590562D01*
X115799764Y-70751043D01*
X115799763Y-70751046D01*
X115780726Y-70920000D01*
X110114684Y-70920000D01*
X110142807Y-66945600D01*
X120734712Y-66945600D01*
X120755358Y-67089196D01*
X120815623Y-67221158D01*
X120910625Y-67330796D01*
X121032668Y-67409229D01*
X121171864Y-67450100D01*
X121316936Y-67450100D01*
X121456132Y-67409229D01*
X121578175Y-67330796D01*
X121673177Y-67221158D01*
X121733442Y-67089196D01*
X121754088Y-66945600D01*
X121733442Y-66802004D01*
X121673177Y-66670042D01*
X121578175Y-66560404D01*
X121578174Y-66560403D01*
X121457106Y-66482597D01*
X121456132Y-66481971D01*
X121456131Y-66481970D01*
X121456130Y-66481970D01*
X121316936Y-66441100D01*
X121171864Y-66441100D01*
X121032669Y-66481970D01*
X121032666Y-66481972D01*
X120910625Y-66560403D01*
X120815623Y-66670041D01*
X120770495Y-66768859D01*
X120755358Y-66802004D01*
X120734712Y-66945600D01*
X110142807Y-66945600D01*
X110149923Y-65939996D01*
X124940693Y-65939996D01*
X124940693Y-65940003D01*
X124959849Y-66097779D01*
X125008447Y-66225919D01*
X125016213Y-66246395D01*
X125106502Y-66377201D01*
X125225471Y-66482599D01*
X125225472Y-66482599D01*
X125225474Y-66482601D01*
X125300200Y-66521820D01*
X125366207Y-66556463D01*
X125520529Y-66594500D01*
X125520530Y-66594500D01*
X125679470Y-66594500D01*
X125679471Y-66594500D01*
X125833793Y-66556463D01*
X125974529Y-66482599D01*
X126093498Y-66377201D01*
X126183787Y-66246395D01*
X126240149Y-66097782D01*
X126240149Y-66097781D01*
X126240150Y-66097779D01*
X126259307Y-65940003D01*
X126259307Y-65939996D01*
X126240150Y-65782220D01*
X126198860Y-65673349D01*
X126183787Y-65633605D01*
X126093498Y-65502799D01*
X125974529Y-65397401D01*
X125974528Y-65397400D01*
X125974525Y-65397398D01*
X125833797Y-65323539D01*
X125833795Y-65323538D01*
X125833793Y-65323537D01*
X125833791Y-65323536D01*
X125833790Y-65323536D01*
X125679472Y-65285500D01*
X125679471Y-65285500D01*
X125520529Y-65285500D01*
X125520527Y-65285500D01*
X125366209Y-65323536D01*
X125366202Y-65323539D01*
X125225474Y-65397398D01*
X125225469Y-65397402D01*
X125106501Y-65502800D01*
X125016215Y-65633601D01*
X125016212Y-65633607D01*
X124959849Y-65782220D01*
X124940693Y-65939996D01*
X110149923Y-65939996D01*
X110180201Y-61660931D01*
X110189788Y-61613615D01*
X110227157Y-61523400D01*
X110245893Y-61478168D01*
X110245894Y-61478163D01*
X110245897Y-61478157D01*
X110284500Y-61284090D01*
X110284500Y-61249996D01*
X111852693Y-61249996D01*
X111852693Y-61250003D01*
X111871849Y-61407779D01*
X111920447Y-61535919D01*
X111928213Y-61556395D01*
X112018502Y-61687201D01*
X112137471Y-61792599D01*
X112137472Y-61792599D01*
X112137474Y-61792601D01*
X112200132Y-61825486D01*
X112278207Y-61866463D01*
X112432529Y-61904500D01*
X112432530Y-61904500D01*
X112591470Y-61904500D01*
X112591471Y-61904500D01*
X112745793Y-61866463D01*
X112777161Y-61850000D01*
X123615312Y-61850000D01*
X123635958Y-61993596D01*
X123696223Y-62125558D01*
X123791225Y-62235196D01*
X123913268Y-62313629D01*
X124052464Y-62354500D01*
X124197536Y-62354500D01*
X124336732Y-62313629D01*
X124458775Y-62235196D01*
X124553777Y-62125558D01*
X124614042Y-61993596D01*
X124634688Y-61850000D01*
X124614042Y-61706404D01*
X124553777Y-61574442D01*
X124458775Y-61464804D01*
X124458774Y-61464803D01*
X124363548Y-61403605D01*
X124336732Y-61386371D01*
X124336731Y-61386370D01*
X124336730Y-61386370D01*
X124197536Y-61345500D01*
X124052464Y-61345500D01*
X123913269Y-61386370D01*
X123913266Y-61386372D01*
X123791225Y-61464803D01*
X123696223Y-61574441D01*
X123635958Y-61706403D01*
X123618837Y-61825486D01*
X123615312Y-61850000D01*
X112777161Y-61850000D01*
X112886529Y-61792599D01*
X113005498Y-61687201D01*
X113095787Y-61556395D01*
X113152149Y-61407782D01*
X113152149Y-61407781D01*
X113152150Y-61407779D01*
X113171307Y-61250003D01*
X113171307Y-61249996D01*
X113152150Y-61092220D01*
X113136138Y-61050000D01*
X113095787Y-60943605D01*
X113005498Y-60812799D01*
X112886529Y-60707401D01*
X112886528Y-60707400D01*
X112886525Y-60707398D01*
X112745797Y-60633539D01*
X112745795Y-60633538D01*
X112745793Y-60633537D01*
X112745791Y-60633536D01*
X112745790Y-60633536D01*
X112591472Y-60595500D01*
X112591471Y-60595500D01*
X112432529Y-60595500D01*
X112432527Y-60595500D01*
X112278209Y-60633536D01*
X112278202Y-60633539D01*
X112137474Y-60707398D01*
X112137469Y-60707402D01*
X112018501Y-60812800D01*
X111928215Y-60943601D01*
X111928212Y-60943607D01*
X111871849Y-61092220D01*
X111852693Y-61249996D01*
X110284500Y-61249996D01*
X110284500Y-61086220D01*
X110245897Y-60892153D01*
X110245895Y-60892149D01*
X110245893Y-60892141D01*
X110196422Y-60772710D01*
X110186834Y-60723604D01*
X110189301Y-60375000D01*
X123615312Y-60375000D01*
X123635958Y-60518596D01*
X123696223Y-60650558D01*
X123791225Y-60760196D01*
X123913268Y-60838629D01*
X124052464Y-60879500D01*
X124197536Y-60879500D01*
X124336732Y-60838629D01*
X124458775Y-60760196D01*
X124553777Y-60650558D01*
X124614042Y-60518596D01*
X124634688Y-60375000D01*
X124614042Y-60231404D01*
X124553777Y-60099442D01*
X124458775Y-59989804D01*
X124458774Y-59989803D01*
X124389837Y-59945500D01*
X124336732Y-59911371D01*
X124336731Y-59911370D01*
X124336730Y-59911370D01*
X124197536Y-59870500D01*
X124052464Y-59870500D01*
X123913269Y-59911370D01*
X123913266Y-59911372D01*
X123791225Y-59989803D01*
X123696223Y-60099441D01*
X123641505Y-60219258D01*
X123635958Y-60231404D01*
X123615312Y-60375000D01*
X110189301Y-60375000D01*
X110201348Y-58672539D01*
X124844200Y-58672539D01*
X124844200Y-58819460D01*
X124861204Y-58904944D01*
X124872860Y-58963542D01*
X124929080Y-59099269D01*
X124983615Y-59180887D01*
X125010698Y-59221419D01*
X125010703Y-59221425D01*
X125114574Y-59325296D01*
X125114580Y-59325301D01*
X125236731Y-59406920D01*
X125372458Y-59463140D01*
X125496521Y-59487817D01*
X125516539Y-59491799D01*
X125516542Y-59491799D01*
X125516545Y-59491800D01*
X125516546Y-59491800D01*
X125663454Y-59491800D01*
X125663455Y-59491800D01*
X125807542Y-59463140D01*
X125943269Y-59406920D01*
X126065420Y-59325301D01*
X126169301Y-59221420D01*
X126250920Y-59099269D01*
X126307140Y-58963542D01*
X126335800Y-58819455D01*
X126335800Y-58672545D01*
X126333162Y-58659285D01*
X126331817Y-58652521D01*
X126307140Y-58528458D01*
X126250920Y-58392731D01*
X126169301Y-58270580D01*
X126169296Y-58270574D01*
X126065425Y-58166703D01*
X126065419Y-58166698D01*
X125989276Y-58115821D01*
X125943269Y-58085080D01*
X125807542Y-58028860D01*
X125766374Y-58020671D01*
X125663460Y-58000200D01*
X125663455Y-58000200D01*
X125516545Y-58000200D01*
X125516539Y-58000200D01*
X125393041Y-58024765D01*
X125372458Y-58028860D01*
X125372455Y-58028860D01*
X125372452Y-58028862D01*
X125236731Y-58085080D01*
X125114580Y-58166698D01*
X125114574Y-58166703D01*
X125010703Y-58270574D01*
X125010698Y-58270580D01*
X124929080Y-58392731D01*
X124872862Y-58528452D01*
X124872860Y-58528459D01*
X124844200Y-58672539D01*
X110201348Y-58672539D01*
X110208537Y-57656539D01*
X129924200Y-57656539D01*
X129924200Y-57803460D01*
X129944671Y-57906374D01*
X129952860Y-57947542D01*
X130009080Y-58083269D01*
X130030831Y-58115821D01*
X130090698Y-58205419D01*
X130090703Y-58205425D01*
X130194574Y-58309296D01*
X130194580Y-58309301D01*
X130316731Y-58390920D01*
X130452458Y-58447140D01*
X130576521Y-58471817D01*
X130596539Y-58475799D01*
X130596542Y-58475799D01*
X130596545Y-58475800D01*
X130596546Y-58475800D01*
X130743454Y-58475800D01*
X130743455Y-58475800D01*
X130887542Y-58447140D01*
X131023269Y-58390920D01*
X131145420Y-58309301D01*
X131249301Y-58205420D01*
X131330920Y-58083269D01*
X131387140Y-57947542D01*
X131415800Y-57803455D01*
X131415800Y-57656545D01*
X131387140Y-57512458D01*
X131330920Y-57376731D01*
X131249301Y-57254580D01*
X131249296Y-57254574D01*
X131145425Y-57150703D01*
X131145419Y-57150698D01*
X131104887Y-57123615D01*
X131023269Y-57069080D01*
X130887542Y-57012860D01*
X130846374Y-57004671D01*
X130743460Y-56984200D01*
X130743455Y-56984200D01*
X130596545Y-56984200D01*
X130596539Y-56984200D01*
X130473041Y-57008765D01*
X130452458Y-57012860D01*
X130452455Y-57012860D01*
X130452452Y-57012862D01*
X130316731Y-57069080D01*
X130194580Y-57150698D01*
X130194574Y-57150703D01*
X130090703Y-57254574D01*
X130090698Y-57254580D01*
X130009080Y-57376731D01*
X129952862Y-57512452D01*
X129952860Y-57512459D01*
X129924200Y-57656539D01*
X110208537Y-57656539D01*
X110215726Y-56640539D01*
X124844200Y-56640539D01*
X124844200Y-56787460D01*
X124855668Y-56845112D01*
X124872860Y-56931542D01*
X124929080Y-57067269D01*
X124983615Y-57148887D01*
X125010698Y-57189419D01*
X125010703Y-57189425D01*
X125114574Y-57293296D01*
X125114580Y-57293301D01*
X125236731Y-57374920D01*
X125372458Y-57431140D01*
X125496521Y-57455817D01*
X125516539Y-57459799D01*
X125516542Y-57459799D01*
X125516545Y-57459800D01*
X125516546Y-57459800D01*
X125663454Y-57459800D01*
X125663455Y-57459800D01*
X125807542Y-57431140D01*
X125943269Y-57374920D01*
X126065420Y-57293301D01*
X126169301Y-57189420D01*
X126250920Y-57067269D01*
X126307140Y-56931542D01*
X126335800Y-56787455D01*
X126335800Y-56640545D01*
X126334219Y-56632599D01*
X126331817Y-56620521D01*
X126307140Y-56496458D01*
X126250920Y-56360731D01*
X126169301Y-56238580D01*
X126169296Y-56238574D01*
X126065425Y-56134703D01*
X126065419Y-56134698D01*
X125998517Y-56089996D01*
X127470693Y-56089996D01*
X127470693Y-56090003D01*
X127489849Y-56247779D01*
X127493417Y-56257186D01*
X127546213Y-56396395D01*
X127636502Y-56527201D01*
X127755471Y-56632599D01*
X127755472Y-56632599D01*
X127755474Y-56632601D01*
X127830200Y-56671820D01*
X127896207Y-56706463D01*
X128050529Y-56744500D01*
X128050530Y-56744500D01*
X128209470Y-56744500D01*
X128209471Y-56744500D01*
X128363793Y-56706463D01*
X128504529Y-56632599D01*
X128623498Y-56527201D01*
X128713787Y-56396395D01*
X128770149Y-56247782D01*
X128770149Y-56247781D01*
X128770150Y-56247779D01*
X128789307Y-56090003D01*
X128789307Y-56089996D01*
X128770150Y-55932220D01*
X128756538Y-55896331D01*
X128713787Y-55783605D01*
X128623498Y-55652799D01*
X128504529Y-55547401D01*
X128504528Y-55547400D01*
X128504525Y-55547398D01*
X128363797Y-55473539D01*
X128363795Y-55473538D01*
X128363793Y-55473537D01*
X128363791Y-55473536D01*
X128363790Y-55473536D01*
X128209472Y-55435500D01*
X128209471Y-55435500D01*
X128050529Y-55435500D01*
X128050527Y-55435500D01*
X127896209Y-55473536D01*
X127896202Y-55473539D01*
X127755474Y-55547398D01*
X127755469Y-55547402D01*
X127636501Y-55652800D01*
X127546215Y-55783601D01*
X127546212Y-55783607D01*
X127489849Y-55932220D01*
X127470693Y-56089996D01*
X125998517Y-56089996D01*
X125943269Y-56053080D01*
X125807542Y-55996860D01*
X125766374Y-55988671D01*
X125663460Y-55968200D01*
X125663455Y-55968200D01*
X125516545Y-55968200D01*
X125516539Y-55968200D01*
X125393041Y-55992765D01*
X125372458Y-55996860D01*
X125372455Y-55996860D01*
X125372452Y-55996862D01*
X125236731Y-56053080D01*
X125114580Y-56134698D01*
X125114574Y-56134703D01*
X125010703Y-56238574D01*
X125010698Y-56238580D01*
X124929080Y-56360731D01*
X124872862Y-56496452D01*
X124872860Y-56496459D01*
X124844200Y-56640539D01*
X110215726Y-56640539D01*
X110226627Y-55100000D01*
X124320312Y-55100000D01*
X124340958Y-55243596D01*
X124401223Y-55375558D01*
X124496225Y-55485196D01*
X124618268Y-55563629D01*
X124757464Y-55604500D01*
X124902536Y-55604500D01*
X125041732Y-55563629D01*
X125163775Y-55485196D01*
X125258777Y-55375558D01*
X125319042Y-55243596D01*
X125339688Y-55100000D01*
X125319042Y-54956404D01*
X125258777Y-54824442D01*
X125163775Y-54714804D01*
X125163774Y-54714803D01*
X125102753Y-54675587D01*
X125041732Y-54636371D01*
X125041731Y-54636370D01*
X125041730Y-54636370D01*
X124902536Y-54595500D01*
X124757464Y-54595500D01*
X124618269Y-54636370D01*
X124618266Y-54636372D01*
X124496225Y-54714803D01*
X124401223Y-54824441D01*
X124401223Y-54824442D01*
X124340958Y-54956404D01*
X124320312Y-55100000D01*
X110226627Y-55100000D01*
X110228577Y-54824441D01*
X110233115Y-54183108D01*
X110253599Y-54115131D01*
X110307582Y-54069019D01*
X110359112Y-54058000D01*
X119713631Y-54058000D01*
X119781752Y-54078002D01*
G37*
%TD.AperFunction*%
%TD*%
D25*
X79729000Y-47522000D02*
X131192000Y-47522000D01*
X133732000Y-144744000D02*
G75*
G02*
X131192000Y-147284000I-2540000J0D01*
G01*
X131192000Y-47522000D02*
G75*
G02*
X133732000Y-50062000I0J-2540000D01*
G01*
X77189000Y-50062000D02*
G75*
G02*
X79729000Y-47522000I2540000J0D01*
G01*
X131192000Y-147284000D02*
X79729000Y-147284000D01*
X133732000Y-50062000D02*
X133732000Y-144744000D01*
X79729000Y-147284000D02*
G75*
G02*
X77189000Y-144744000I0J2540000D01*
G01*
X77189000Y-144744000D02*
X77189000Y-50062000D01*
M02*
