M48
; DRILL file {KiCad 8.0.7} date 2025-02-14T10:59:29-0500
; FORMAT={-:-/ absolute / inch / decimal}
; #@! TF.CreationDate,2025-02-14T10:59:29-05:00
; #@! TF.GenerationSoftware,Kicad,Pcbnew,8.0.7
; #@! TF.FileFunction,Plated,1,4,PTH
FMAT,2
INCH
; #@! TA.AperFunction,Plated,PTH,ViaDrill
T1C0.0118
; #@! TA.AperFunction,Plated,PTH,ComponentDrill
T2C0.0118
; #@! TA.AperFunction,Plated,PTH,ViaDrill
T3C0.0157
; #@! TA.AperFunction,Plated,PTH,ComponentDrill
T4C0.0197
; #@! TA.AperFunction,Plated,PTH,ViaDrill
T5C0.0236
; #@! TA.AperFunction,Plated,PTH,ComponentDrill
T6C0.0236
; #@! TA.AperFunction,Plated,PTH,ViaDrill
T7C0.0315
; #@! TA.AperFunction,Plated,PTH,ComponentDrill
T8C0.0394
; #@! TA.AperFunction,Plated,PTH,ComponentDrill
T9C0.0420
; #@! TA.AperFunction,Plated,PTH,ComponentDrill
T10C0.1181
%
G90
G05
T1
X3.2335Y-2.9098
X3.2437Y-2.9882
X3.2937Y-3.0146
X3.3268Y-2.9984
X3.5028Y-3.1976
X3.5035Y-3.1697
X3.5047Y-3.2394
X3.5106Y-3.0642
X3.5256Y-2.9449
X3.5453Y-2.8858
X3.5984Y-4.7413
X3.6098Y-3.2669
X3.6291Y-4.7228
X3.6378Y-3.5669
X3.6409Y-4.4177
X3.6409Y-4.4729
X3.6409Y-4.5281
X3.6409Y-4.5832
X3.6409Y-4.6384
X3.6445Y-2.9177
X3.6518Y-5.1159
X3.6591Y-4.7217
X3.6744Y-3.2106
X3.7133Y-5.2846
X3.7142Y-5.2591
X3.7224Y-3.187
X3.7469Y-5.3571
X3.7551Y-3.187
X3.7667Y-3.3593
X3.7878Y-3.187
X3.7955Y-3.3593
X3.8205Y-3.187
X3.8243Y-3.3593
X3.8531Y-3.3593
X3.8531Y-3.187
X3.8819Y-3.3593
X3.8858Y-3.187
X4.048Y-2.9031
X4.122Y-5.4882
X4.315Y-2.8799
X4.5031Y-4.1819
X4.5276Y-4.1704
X4.5502Y-4.1585
X4.6583Y-4.2665
X4.6748Y-4.4748
X4.7016Y-4.5193
X4.7016Y-4.6465
X4.7343Y-3.0098
X4.7539Y-3.0571
X4.7579Y-3.1053
X4.7734Y-2.6357
X4.7826Y-2.7626
X4.8071Y-2.7915
X4.8868Y-2.377
X4.8868Y-2.435
X4.9031Y-4.7961
X4.9146Y-2.1693
X4.9811Y-4.0409
X5.009Y-4.1121
T2
X3.5898Y-3.0547
X3.6291Y-3.0043
X3.6291Y-3.0547
X3.6291Y-3.1051
X3.6843Y-3.0043
X3.6843Y-3.0547
X3.6843Y-3.1051
X3.7394Y-3.0043
X3.7394Y-3.0547
X3.7394Y-3.1051
X3.7787Y-3.0547
T3
X3.6138Y-3.5398
X3.635Y-2.6484
X3.635Y-2.7272
X3.635Y-2.8039
X3.6358Y-2.6083
X3.6358Y-2.689
X3.6358Y-2.7657
X3.6488Y-5.2508
X3.685Y-2.6476
X3.685Y-2.7264
X3.685Y-2.8031
X3.6858Y-2.6075
X3.6858Y-2.6882
X3.6858Y-2.765
X3.7295Y-2.6484
X3.7295Y-2.7272
X3.7303Y-2.6083
X3.7303Y-2.689
X3.7622Y-4.9736
X3.7795Y-2.6476
X3.7795Y-2.7264
X3.7803Y-2.6075
X3.7803Y-2.6882
X3.7844Y-4.4232
X3.7945Y-5.2626
X3.8425Y-2.3701
X3.8425Y-2.4098
X3.8425Y-2.4555
X3.8425Y-2.4953
X3.8504Y-2.9094
X3.8602Y-4.4984
X3.8713Y-5.4193
X3.8756Y-4.7831
X3.878Y-2.9744
X3.878Y-3.0197
X3.878Y-3.0689
X3.8858Y-2.3701
X3.8858Y-2.4098
X3.8858Y-2.4555
X3.8858Y-2.4953
X3.8878Y-2.5492
X3.8878Y-2.589
X3.8878Y-2.6362
X3.8878Y-2.676
X3.8878Y-2.7217
X3.8878Y-2.7614
X3.8885Y-4.4747
X3.8898Y-2.8154
X3.8898Y-2.8551
X3.8958Y-5.2806
X3.8996Y-2.9075
X3.9047Y-4.8705
X3.9118Y-4.4232
X3.9122Y-4.6945
X3.9256Y-5.174
X3.9291Y-2.9744
X3.9291Y-3.0197
X3.9291Y-3.0689
X3.9357Y-3.9134
X3.9357Y-3.9921
X3.9357Y-4.0846
X3.937Y-2.3701
X3.937Y-2.4098
X3.937Y-2.4555
X3.937Y-2.4953
X3.937Y-3.8386
X3.9377Y-4.1693
X3.939Y-2.5492
X3.939Y-2.589
X3.939Y-2.6362
X3.939Y-2.676
X3.939Y-2.7217
X3.939Y-2.7614
X3.9409Y-2.8154
X3.9409Y-2.8551
X3.9508Y-2.9075
X3.9583Y-4.4144
X3.9673Y-4.8701
X3.9724Y-5.3602
X3.9803Y-2.3701
X3.9803Y-2.4098
X3.9803Y-2.4555
X3.9803Y-2.4953
X3.9803Y-2.9744
X3.9803Y-3.0197
X3.9803Y-3.0689
X3.9823Y-3.2333
X3.9823Y-3.2766
X4.0305Y-3.2333
X4.0305Y-3.2766
X4.0374Y-2.9764
X4.0374Y-3.0217
X4.0374Y-3.0709
X4.0443Y-3.3465
X4.0538Y-3.9134
X4.0538Y-3.9921
X4.0538Y-4.0846
X4.0551Y-3.8386
X4.0551Y-4.313
X4.0558Y-4.1693
X4.0558Y-4.2421
X4.0591Y-4.3661
X4.0591Y-4.4094
X4.0591Y-4.4528
X4.0591Y-4.4961
X4.0741Y-4.7795
X4.0741Y-4.8258
X4.0748Y-4.8701
X4.0748Y-4.9163
X4.0771Y-4.5719
X4.0771Y-4.6181
X4.0778Y-4.6624
X4.0778Y-4.7087
X4.0797Y-3.2333
X4.0797Y-3.2766
X4.0925Y-3.3465
X4.1083Y-4.3661
X4.1083Y-4.4094
X4.1083Y-4.4528
X4.1083Y-4.4961
X4.1165Y-2.9783
X4.1197Y-5.1366
X4.1201Y-3.0354
X4.125Y-3.2333
X4.125Y-3.2766
X4.1296Y-4.7795
X4.1296Y-4.8258
X4.1302Y-4.8701
X4.1302Y-4.9163
X4.1325Y-4.5719
X4.1325Y-4.6181
X4.1332Y-4.6624
X4.1332Y-4.7087
X4.1417Y-3.3465
X4.1551Y-5.2185
X4.1575Y-4.3661
X4.1575Y-4.4094
X4.1575Y-4.4528
X4.1575Y-4.4961
X4.1588Y-3.9134
X4.1588Y-3.9921
X4.1588Y-4.0846
X4.1601Y-3.8386
X4.1601Y-4.313
X4.1608Y-4.1693
X4.1608Y-4.2421
X4.1742Y-3.2333
X4.185Y-4.7795
X4.185Y-4.8258
X4.1857Y-4.8701
X4.1857Y-4.9163
X4.187Y-3.3465
X4.188Y-4.5719
X4.188Y-4.6181
X4.1886Y-4.6624
X4.1886Y-4.7087
X4.2067Y-4.3654
X4.2067Y-4.4087
X4.2067Y-4.452
X4.2067Y-4.4953
X4.2405Y-4.7795
X4.2405Y-4.8258
X4.2411Y-4.8701
X4.2411Y-4.9163
X4.2434Y-4.5719
X4.2434Y-4.6181
X4.2441Y-4.6624
X4.2441Y-4.7087
X4.2569Y-4.3652
X4.2569Y-4.4085
X4.2569Y-4.4518
X4.2569Y-4.4951
X4.2634Y-5.1645
X4.2638Y-3.9134
X4.2638Y-3.9921
X4.2638Y-4.0846
X4.2651Y-3.8386
X4.2651Y-4.313
X4.2657Y-4.1693
X4.2657Y-4.2421
X4.3658Y-4.4357
X4.3681Y-4.9209
X4.3688Y-3.9134
X4.3688Y-3.9921
X4.3688Y-4.0846
X4.3689Y-4.8701
X4.3701Y-3.8386
X4.3707Y-4.1693
X4.4035Y-3.3504
X4.4039Y-3.2677
X4.4055Y-3.4409
X4.4055Y-3.5059
X4.4055Y-3.5512
X4.4055Y-3.5984
X4.4085Y-3.1467
X4.4094Y-3.3917
X4.4101Y-4.4505
X4.4165Y-4.6953
X4.4165Y-4.7559
X4.4296Y-2.4114
X4.4409Y-2.8858
X4.448Y-4.4988
X4.4537Y-4.4567
X4.4559Y-5.1268
X4.4717Y-5.2224
X4.5413Y-4.4252
X4.5445Y-4.0752
X4.5449Y-3.8165
X4.5689Y-5.0398
X4.5972Y-4.885
X4.6098Y-3.9512
X4.7024Y-4.0752
X4.7313Y-2.1083
X4.7362Y-2.2411
X4.7866Y-4.4252
X4.8283Y-4.0339
X4.8398Y-3.9252
X4.858Y-3.3961
X4.8705Y-4.7335
X4.9055Y-4.0091
X4.9449Y-2.5961
X5.0098Y-4.2374
X5.0445Y-2.2083
X5.0665Y-4.237
X5.1114Y-2.2083
X5.2085Y-4.2812
T4
X3.0888Y-5.6626
X3.0928Y-2.01
X3.1147Y-5.6
X3.1147Y-5.7253
X3.1188Y-1.9474
X3.1188Y-2.0726
X3.1774Y-5.5741
X3.1774Y-5.7512
X3.1814Y-1.9214
X3.1814Y-2.0986
X3.24Y-5.6
X3.24Y-5.7253
X3.2441Y-1.9474
X3.2441Y-2.0726
X3.2659Y-5.6626
X3.27Y-2.01
X5.0388Y-2.0126
X5.0414Y-5.6586
X5.0647Y-1.95
X5.0647Y-2.0753
X5.0674Y-5.5959
X5.0674Y-5.7212
X5.1274Y-1.9241
X5.1274Y-2.1012
X5.13Y-5.57
X5.13Y-5.7472
X5.19Y-1.95
X5.19Y-2.0753
X5.1926Y-5.5959
X5.1926Y-5.7212
X5.2159Y-2.0126
X5.2186Y-5.6586
T5
X3.1764Y-2.4035
X3.1764Y-2.7933
X4.0197Y-5.5219
X4.5421Y-2.4236
X4.5882Y-2.7921
X4.6421Y-2.7933
X4.7029Y-2.7919
X4.8967Y-3.2539
X4.9528Y-3.253
T7
X4.3024Y-2.4089
X4.3874Y-2.1724
T8
X3.4254Y-1.98
X3.4254Y-2.18
X3.4411Y-2.08
X3.4411Y-2.28
X3.9044Y-2.01
X4.0044Y-2.01
X4.1044Y-2.01
X4.2044Y-2.01
X4.3044Y-2.01
X4.4044Y-2.01
T9
X3.5284Y-5.6544
X3.6284Y-5.6544
X3.7284Y-5.6544
X3.8284Y-5.6544
T10
X3.1774Y-5.6626
X3.1814Y-2.01
X3.335Y-3.7366
X3.335Y-5.3646
X4.963Y-3.7366
X4.963Y-5.3646
X5.1274Y-2.0126
X5.13Y-5.6586
T6
G00X3.1256Y-3.1079
M15
G01X3.1571Y-3.1079
M16
G05
G00X3.1256Y-3.448
M15
G01X3.1571Y-3.448
M16
G05
G00X3.2843Y-3.1079
M15
G01X3.3276Y-3.1079
M16
G05
G00X3.2843Y-3.448
M15
G01X3.3276Y-3.448
M16
G05
M30
