%TF.GenerationSoftware,KiCad,Pcbnew,8.0.7*%
%TF.CreationDate,2025-01-25T17:17:18-05:00*%
%TF.ProjectId,bitaxeGamma,62697461-7865-4476-916d-6d612e6b6963,rev?*%
%TF.SameCoordinates,Original*%
%TF.FileFunction,Copper,L1,Top*%
%TF.FilePolarity,Positive*%
%FSLAX46Y46*%
G04 Gerber Fmt 4.6, Leading zero omitted, Abs format (unit mm)*
G04 Created by KiCad (PCBNEW 8.0.7) date 2025-01-25 17:17:18*
%MOMM*%
%LPD*%
G01*
G04 APERTURE LIST*
G04 Aperture macros list*
%AMRoundRect*
0 Rectangle with rounded corners*
0 $1 Rounding radius*
0 $2 $3 $4 $5 $6 $7 $8 $9 X,Y pos of 4 corners*
0 Add a 4 corners polygon primitive as box body*
4,1,4,$2,$3,$4,$5,$6,$7,$8,$9,$2,$3,0*
0 Add four circle primitives for the rounded corners*
1,1,$1+$1,$2,$3*
1,1,$1+$1,$4,$5*
1,1,$1+$1,$6,$7*
1,1,$1+$1,$8,$9*
0 Add four rect primitives between the rounded corners*
20,1,$1+$1,$2,$3,$4,$5,0*
20,1,$1+$1,$4,$5,$6,$7,0*
20,1,$1+$1,$6,$7,$8,$9,0*
20,1,$1+$1,$8,$9,$2,$3,0*%
G04 Aperture macros list end*
%TA.AperFunction,EtchedComponent*%
%ADD10C,0.000100*%
%TD*%
%TA.AperFunction,SMDPad,CuDef*%
%ADD11RoundRect,0.250000X-0.325000X-0.650000X0.325000X-0.650000X0.325000X0.650000X-0.325000X0.650000X0*%
%TD*%
%TA.AperFunction,SMDPad,CuDef*%
%ADD12RoundRect,0.250000X-0.650000X0.325000X-0.650000X-0.325000X0.650000X-0.325000X0.650000X0.325000X0*%
%TD*%
%TA.AperFunction,SMDPad,CuDef*%
%ADD13C,1.500000*%
%TD*%
%TA.AperFunction,SMDPad,CuDef*%
%ADD14C,1.000000*%
%TD*%
%TA.AperFunction,SMDPad,CuDef*%
%ADD15R,0.250000X0.250000*%
%TD*%
%TA.AperFunction,SMDPad,CuDef*%
%ADD16RoundRect,0.140000X-0.170000X0.140000X-0.170000X-0.140000X0.170000X-0.140000X0.170000X0.140000X0*%
%TD*%
%TA.AperFunction,SMDPad,CuDef*%
%ADD17RoundRect,0.140000X0.170000X-0.140000X0.170000X0.140000X-0.170000X0.140000X-0.170000X-0.140000X0*%
%TD*%
%TA.AperFunction,SMDPad,CuDef*%
%ADD18RoundRect,0.135000X-0.185000X0.135000X-0.185000X-0.135000X0.185000X-0.135000X0.185000X0.135000X0*%
%TD*%
%TA.AperFunction,SMDPad,CuDef*%
%ADD19RoundRect,0.140000X0.140000X0.170000X-0.140000X0.170000X-0.140000X-0.170000X0.140000X-0.170000X0*%
%TD*%
%TA.AperFunction,ComponentPad*%
%ADD20C,6.000000*%
%TD*%
%TA.AperFunction,SMDPad,CuDef*%
%ADD21RoundRect,0.250000X0.312500X0.625000X-0.312500X0.625000X-0.312500X-0.625000X0.312500X-0.625000X0*%
%TD*%
%TA.AperFunction,SMDPad,CuDef*%
%ADD22RoundRect,0.150000X-0.512500X-0.150000X0.512500X-0.150000X0.512500X0.150000X-0.512500X0.150000X0*%
%TD*%
%TA.AperFunction,SMDPad,CuDef*%
%ADD23RoundRect,0.135000X-0.135000X-0.185000X0.135000X-0.185000X0.135000X0.185000X-0.135000X0.185000X0*%
%TD*%
%TA.AperFunction,SMDPad,CuDef*%
%ADD24RoundRect,0.135000X0.135000X0.185000X-0.135000X0.185000X-0.135000X-0.185000X0.135000X-0.185000X0*%
%TD*%
%TA.AperFunction,SMDPad,CuDef*%
%ADD25RoundRect,0.250000X-0.250000X-0.475000X0.250000X-0.475000X0.250000X0.475000X-0.250000X0.475000X0*%
%TD*%
%TA.AperFunction,SMDPad,CuDef*%
%ADD26C,2.500000*%
%TD*%
%TA.AperFunction,SMDPad,CuDef*%
%ADD27R,1.100000X1.300000*%
%TD*%
%TA.AperFunction,SMDPad,CuDef*%
%ADD28RoundRect,0.140000X-0.140000X-0.170000X0.140000X-0.170000X0.140000X0.170000X-0.140000X0.170000X0*%
%TD*%
%TA.AperFunction,ComponentPad*%
%ADD29C,0.800000*%
%TD*%
%TA.AperFunction,SMDPad,CuDef*%
%ADD30RoundRect,0.250000X0.650000X-0.325000X0.650000X0.325000X-0.650000X0.325000X-0.650000X-0.325000X0*%
%TD*%
%TA.AperFunction,SMDPad,CuDef*%
%ADD31RoundRect,0.135000X0.185000X-0.135000X0.185000X0.135000X-0.185000X0.135000X-0.185000X-0.135000X0*%
%TD*%
%TA.AperFunction,SMDPad,CuDef*%
%ADD32R,0.400000X1.100000*%
%TD*%
%TA.AperFunction,ComponentPad*%
%ADD33R,1.700000X1.700000*%
%TD*%
%TA.AperFunction,ComponentPad*%
%ADD34O,1.700000X1.700000*%
%TD*%
%TA.AperFunction,SMDPad,CuDef*%
%ADD35RoundRect,0.100000X-0.637500X-0.100000X0.637500X-0.100000X0.637500X0.100000X-0.637500X0.100000X0*%
%TD*%
%TA.AperFunction,SMDPad,CuDef*%
%ADD36R,4.000000X2.600000*%
%TD*%
%TA.AperFunction,SMDPad,CuDef*%
%ADD37RoundRect,0.062500X0.062500X-0.337500X0.062500X0.337500X-0.062500X0.337500X-0.062500X-0.337500X0*%
%TD*%
%TA.AperFunction,SMDPad,CuDef*%
%ADD38RoundRect,0.062500X0.337500X-0.062500X0.337500X0.062500X-0.337500X0.062500X-0.337500X-0.062500X0*%
%TD*%
%TA.AperFunction,ComponentPad*%
%ADD39C,0.400000*%
%TD*%
%TA.AperFunction,SMDPad,CuDef*%
%ADD40R,5.300000X3.300000*%
%TD*%
%TA.AperFunction,SMDPad,CuDef*%
%ADD41R,0.952500X0.558800*%
%TD*%
%TA.AperFunction,ComponentPad*%
%ADD42C,1.574800*%
%TD*%
%TA.AperFunction,ComponentPad*%
%ADD43C,1.700000*%
%TD*%
%TA.AperFunction,ComponentPad*%
%ADD44O,1.800000X1.000000*%
%TD*%
%TA.AperFunction,ComponentPad*%
%ADD45O,2.100000X1.000000*%
%TD*%
%TA.AperFunction,ViaPad*%
%ADD46C,0.800000*%
%TD*%
%TA.AperFunction,ViaPad*%
%ADD47C,1.000000*%
%TD*%
%TA.AperFunction,ViaPad*%
%ADD48C,0.500000*%
%TD*%
%TA.AperFunction,ViaPad*%
%ADD49C,1.200000*%
%TD*%
%TA.AperFunction,Conductor*%
%ADD50C,0.200000*%
%TD*%
%TA.AperFunction,Conductor*%
%ADD51C,0.508000*%
%TD*%
%TA.AperFunction,Conductor*%
%ADD52C,0.254000*%
%TD*%
%TA.AperFunction,Conductor*%
%ADD53C,1.000000*%
%TD*%
%TA.AperFunction,Conductor*%
%ADD54C,1.500000*%
%TD*%
%TA.AperFunction,Profile*%
%ADD55C,0.001000*%
%TD*%
G04 APERTURE END LIST*
%TO.C,T1*%
D10*
X90654500Y-77715000D02*
X90724500Y-77715000D01*
X90724500Y-77965000D01*
X90654500Y-77965000D01*
X90654500Y-77715000D01*
%TA.AperFunction,EtchedComponent*%
G36*
X90654500Y-77715000D02*
G01*
X90724500Y-77715000D01*
X90724500Y-77965000D01*
X90654500Y-77965000D01*
X90654500Y-77715000D01*
G37*
%TD.AperFunction*%
%TD*%
D11*
%TO.P,C20,1*%
%TO.N,/VDD*%
X107435000Y-81120000D03*
%TO.P,C20,2*%
%TO.N,GND*%
X110385000Y-81120000D03*
%TD*%
D12*
%TO.P,C51,1*%
%TO.N,/5V*%
X102800000Y-135125000D03*
%TO.P,C51,2*%
%TO.N,GND*%
X102800000Y-138075000D03*
%TD*%
D13*
%TO.P,TP19,1,1*%
%TO.N,/BM1370/1V2*%
X114860000Y-134280000D03*
%TD*%
D14*
%TO.P,FID2,*%
%TO.N,*%
X125270000Y-50310000D03*
%TD*%
%TO.P,FID4,*%
%TO.N,*%
X132260000Y-139060000D03*
%TD*%
%TO.P,FID3,*%
%TO.N,*%
X78850000Y-139070000D03*
%TD*%
D15*
%TO.P,T1,1*%
%TO.N,/Power/AGND*%
X90535000Y-77840000D03*
%TO.P,T1,2*%
%TO.N,GND*%
X90845000Y-77840000D03*
%TD*%
D16*
%TO.P,C41,1*%
%TO.N,/VDD*%
X100625000Y-107920000D03*
%TO.P,C41,2*%
%TO.N,/BM1370/VDD1_1*%
X100625000Y-108880000D03*
%TD*%
D13*
%TO.P,TP21,1,1*%
%TO.N,Net-(U8-INV_CLKO)*%
X122860000Y-121970000D03*
%TD*%
%TO.P,TP18,1,1*%
%TO.N,Net-(U8-LITE_PAD)*%
X120820000Y-119010000D03*
%TD*%
D17*
%TO.P,C42,1*%
%TO.N,Net-(U8-VDDIO_12_1)*%
X100655438Y-122810000D03*
%TO.P,C42,2*%
%TO.N,GND*%
X100655438Y-121850000D03*
%TD*%
D13*
%TO.P,TP8,1,1*%
%TO.N,/3V3*%
X124475000Y-87825000D03*
%TD*%
D18*
%TO.P,R23,1,1*%
%TO.N,/Fan/TEMP_P*%
X94520000Y-123850000D03*
%TO.P,R23,2,2*%
%TO.N,/Fan/TEMP_DP*%
X94520000Y-124870000D03*
%TD*%
D19*
%TO.P,C46,1*%
%TO.N,/BM1370/VDD2_1*%
X99230000Y-111350000D03*
%TO.P,C46,2*%
%TO.N,/BM1370/VDD3_1*%
X98270000Y-111350000D03*
%TD*%
D20*
%TO.P,H6,1,1*%
%TO.N,GND*%
X84710000Y-94910000D03*
%TD*%
D21*
%TO.P,R12,1*%
%TO.N,GND*%
X93012500Y-88210000D03*
%TO.P,R12,2*%
%TO.N,Net-(C11-Pad1)*%
X90087500Y-88210000D03*
%TD*%
D16*
%TO.P,C13,1*%
%TO.N,Net-(U2-VOSNS)*%
X87650000Y-76570000D03*
%TO.P,C13,2*%
%TO.N,Net-(U2-GOSNS)*%
X87650000Y-77530000D03*
%TD*%
D22*
%TO.P,U6,1,VIN*%
%TO.N,/5V*%
X101392500Y-129520000D03*
%TO.P,U6,2,GND*%
%TO.N,GND*%
X101392500Y-130470000D03*
%TO.P,U6,3,EN*%
%TO.N,/5V*%
X101392500Y-131420000D03*
%TO.P,U6,4,PG*%
%TO.N,unconnected-(U6-PG-Pad4)*%
X103667500Y-131420000D03*
%TO.P,U6,5,VOUT*%
%TO.N,/BM1370/0V8*%
X103667500Y-129520000D03*
%TD*%
D23*
%TO.P,R1,1*%
%TO.N,Net-(U2-BP1V5)*%
X85590000Y-75500000D03*
%TO.P,R1,2*%
%TO.N,Net-(U2-MSEL1)*%
X86610000Y-75500000D03*
%TD*%
D13*
%TO.P,TP13,1,1*%
%TO.N,/BM1370/RST_N*%
X117300000Y-95750000D03*
%TD*%
%TO.P,TP37,1,1*%
%TO.N,/Fan/FAN_TACH*%
X93610000Y-140380000D03*
%TD*%
%TO.P,TP35,1,1*%
%TO.N,/Fan/TEMP_P*%
X96280000Y-123890000D03*
%TD*%
D24*
%TO.P,R8,1*%
%TO.N,Net-(U2-EN{slash}UVLO)*%
X90260000Y-71300000D03*
%TO.P,R8,2*%
%TO.N,/Power/AGND*%
X89240000Y-71300000D03*
%TD*%
%TO.P,R11,1*%
%TO.N,/5V*%
X94390000Y-72930000D03*
%TO.P,R11,2*%
%TO.N,Net-(U2-AVIN)*%
X93370000Y-72930000D03*
%TD*%
D11*
%TO.P,C18,1*%
%TO.N,/VDD*%
X107435000Y-87660000D03*
%TO.P,C18,2*%
%TO.N,GND*%
X110385000Y-87660000D03*
%TD*%
D13*
%TO.P,TP38,1,1*%
%TO.N,/Fan/FAN_PWM*%
X90300000Y-140410000D03*
%TD*%
%TO.P,TP33,1,1*%
%TO.N,/BM1370/BO*%
X87080000Y-118492000D03*
%TD*%
%TO.P,TP3,1,1*%
%TO.N,/VDD*%
X101980000Y-91230000D03*
%TD*%
D25*
%TO.P,C24,1*%
%TO.N,/3V3*%
X124150000Y-84050000D03*
%TO.P,C24,2*%
%TO.N,GND*%
X126050000Y-84050000D03*
%TD*%
D26*
%TO.P,TP9,1,1*%
%TO.N,/ESP32/IO0*%
X122440000Y-55090000D03*
%TD*%
D20*
%TO.P,H5,1,1*%
%TO.N,GND*%
X126060000Y-136260000D03*
%TD*%
D17*
%TO.P,C45,1*%
%TO.N,Net-(U8-VDDIO_08_1)*%
X99525438Y-122820000D03*
%TO.P,C45,2*%
%TO.N,GND*%
X99525438Y-121860000D03*
%TD*%
D16*
%TO.P,C10,1*%
%TO.N,Net-(U2-VDD5)*%
X105250000Y-73520000D03*
%TO.P,C10,2*%
%TO.N,GND*%
X105250000Y-74480000D03*
%TD*%
D17*
%TO.P,C35,1*%
%TO.N,/BM1370/1V2*%
X112140000Y-122790000D03*
%TO.P,C35,2*%
%TO.N,GND*%
X112140000Y-121830000D03*
%TD*%
D11*
%TO.P,C4,1*%
%TO.N,/5V*%
X95775000Y-73400000D03*
%TO.P,C4,2*%
%TO.N,GND*%
X98725000Y-73400000D03*
%TD*%
D27*
%TO.P,U7,1,EN*%
%TO.N,/BM1370/1V2*%
X115680000Y-126370000D03*
%TO.P,U7,2,GND*%
%TO.N,GND*%
X115680000Y-124070000D03*
%TO.P,U7,3,OUT*%
%TO.N,/BM1370/CLKI*%
X113780000Y-124070000D03*
%TO.P,U7,4,VIN*%
%TO.N,/BM1370/1V2*%
X113780000Y-126370000D03*
%TD*%
D28*
%TO.P,C27,1*%
%TO.N,/5V*%
X101940000Y-132840000D03*
%TO.P,C27,2*%
%TO.N,GND*%
X102900000Y-132840000D03*
%TD*%
D29*
%TO.P,H1,1,1*%
%TO.N,GND*%
X127985010Y-51120990D03*
X128644020Y-49530000D03*
X128644020Y-52711980D03*
X130235010Y-48870990D03*
D20*
X130235010Y-51120990D03*
D29*
X130235010Y-53370990D03*
X131826000Y-49530000D03*
X131826000Y-52711980D03*
X132485010Y-51120990D03*
%TD*%
D13*
%TO.P,TP4,1,1*%
%TO.N,GND*%
X97220000Y-91210000D03*
%TD*%
D26*
%TO.P,TP11,1,1*%
%TO.N,/3V3*%
X118480000Y-58690000D03*
%TD*%
D19*
%TO.P,C29,1*%
%TO.N,GND*%
X115270000Y-128010000D03*
%TO.P,C29,2*%
%TO.N,/BM1370/1V2*%
X114310000Y-128010000D03*
%TD*%
D14*
%TO.P,FID1,*%
%TO.N,*%
X78750000Y-55900000D03*
%TD*%
D16*
%TO.P,C12,1*%
%TO.N,Net-(U2-BOOT)*%
X93100000Y-83280000D03*
%TO.P,C12,2*%
%TO.N,/Power/SW*%
X93100000Y-84240000D03*
%TD*%
D13*
%TO.P,TP14,1,1*%
%TO.N,/BM1370/CI*%
X119450000Y-105600000D03*
%TD*%
D24*
%TO.P,R19,1*%
%TO.N,GND*%
X123720000Y-118980000D03*
%TO.P,R19,2*%
%TO.N,Net-(U8-LITE_PAD)*%
X122700000Y-118980000D03*
%TD*%
D26*
%TO.P,TP5,1,1*%
%TO.N,/ESP32/EN*%
X118460000Y-62540000D03*
%TD*%
D13*
%TO.P,TP36,1,1*%
%TO.N,/Fan/TEMP_N*%
X91650000Y-123880000D03*
%TD*%
D12*
%TO.P,C43,1*%
%TO.N,/VDD*%
X104325000Y-107025000D03*
%TO.P,C43,2*%
%TO.N,GND*%
X104325000Y-109975000D03*
%TD*%
D13*
%TO.P,TP15,1,1*%
%TO.N,/BM1370/RO*%
X119550000Y-108280000D03*
%TD*%
D30*
%TO.P,C2,1*%
%TO.N,/VDD*%
X104650000Y-80050000D03*
%TO.P,C2,2*%
%TO.N,GND*%
X104650000Y-77100000D03*
%TD*%
D13*
%TO.P,TP22,1,1*%
%TO.N,/BM1370/CLKI*%
X118520000Y-122760000D03*
%TD*%
D31*
%TO.P,R25,1*%
%TO.N,/Fan/FAN_PWM*%
X100400000Y-138060000D03*
%TO.P,R25,2*%
%TO.N,/5V*%
X100400000Y-137040000D03*
%TD*%
D16*
%TO.P,C22,1*%
%TO.N,/ESP32/EN*%
X128670000Y-105770000D03*
%TO.P,C22,2*%
%TO.N,GND*%
X128670000Y-106730000D03*
%TD*%
D32*
%TO.P,U10,1,VDD*%
%TO.N,/3V3*%
X94870000Y-127840000D03*
%TO.P,U10,2,DP*%
%TO.N,/Fan/TEMP_DP*%
X94220000Y-127840000D03*
%TO.P,U10,3,DN*%
%TO.N,/Fan/TEMP_DN*%
X93570000Y-127840000D03*
%TO.P,U10,4,FAN*%
%TO.N,/Fan/FAN_PWM*%
X92920000Y-127840000D03*
%TO.P,U10,5,GND*%
%TO.N,GND*%
X92920000Y-132140000D03*
%TO.P,U10,6,ALERT/TACH*%
%TO.N,/Fan/FAN_TACH*%
X93570000Y-132140000D03*
%TO.P,U10,7,SMDATA*%
%TO.N,/SDA*%
X94220000Y-132140000D03*
%TO.P,U10,8,SMCLK*%
%TO.N,/SCL*%
X94870000Y-132140000D03*
%TD*%
D19*
%TO.P,C8,1*%
%TO.N,Net-(U2-EN{slash}UVLO)*%
X90230000Y-72350000D03*
%TO.P,C8,2*%
%TO.N,/Power/AGND*%
X89270000Y-72350000D03*
%TD*%
D23*
%TO.P,R5,1*%
%TO.N,/Power/AGND*%
X87540000Y-75500000D03*
%TO.P,R5,2*%
%TO.N,Net-(U2-MSEL1)*%
X88560000Y-75500000D03*
%TD*%
D24*
%TO.P,R6,1*%
%TO.N,Net-(U2-MSEL2)*%
X88560000Y-73300000D03*
%TO.P,R6,2*%
%TO.N,/Power/AGND*%
X87540000Y-73300000D03*
%TD*%
D13*
%TO.P,TP29,1,1*%
%TO.N,/BM1370/NRSTO*%
X87080000Y-112616000D03*
%TD*%
D22*
%TO.P,U5,1,VIN*%
%TO.N,/5V*%
X109843500Y-129279000D03*
%TO.P,U5,2,GND*%
%TO.N,GND*%
X109843500Y-130229000D03*
%TO.P,U5,3,EN*%
%TO.N,/5V*%
X109843500Y-131179000D03*
%TO.P,U5,4,PG*%
%TO.N,unconnected-(U5-PG-Pad4)*%
X112118500Y-131179000D03*
%TO.P,U5,5,VOUT*%
%TO.N,/BM1370/1V2*%
X112118500Y-129279000D03*
%TD*%
D29*
%TO.P,H3,1,1*%
%TO.N,GND*%
X128052000Y-143728000D03*
X128711010Y-142137010D03*
X128711010Y-145318990D03*
X130302000Y-141478000D03*
D20*
X130302000Y-143728000D03*
D29*
X130302000Y-145978000D03*
X131892990Y-142137010D03*
X131892990Y-145318990D03*
X132552000Y-143728000D03*
%TD*%
D16*
%TO.P,C49,1*%
%TO.N,/3V3*%
X122930000Y-100640000D03*
%TO.P,C49,2*%
%TO.N,GND*%
X122930000Y-101600000D03*
%TD*%
D13*
%TO.P,TP2,1,1*%
%TO.N,GND*%
X82310000Y-62100000D03*
%TD*%
D24*
%TO.P,R9,1*%
%TO.N,/5V*%
X94400000Y-73990000D03*
%TO.P,R9,2*%
%TO.N,Net-(U2-EN{slash}UVLO)*%
X93380000Y-73990000D03*
%TD*%
D19*
%TO.P,C23,1*%
%TO.N,/3V3*%
X114200000Y-60030000D03*
%TO.P,C23,2*%
%TO.N,GND*%
X113240000Y-60030000D03*
%TD*%
D26*
%TO.P,TP6,1,1*%
%TO.N,/ESP32/P_TX*%
X122430000Y-62540000D03*
%TD*%
D11*
%TO.P,C19,1*%
%TO.N,/VDD*%
X107435000Y-84400000D03*
%TO.P,C19,2*%
%TO.N,GND*%
X110385000Y-84400000D03*
%TD*%
D18*
%TO.P,R17,1*%
%TO.N,GND*%
X120380000Y-112750000D03*
%TO.P,R17,2*%
%TO.N,/BM1370/BI*%
X120380000Y-113770000D03*
%TD*%
D33*
%TO.P,J4,1,Pin_1*%
%TO.N,/5V*%
X99171505Y-51054000D03*
D34*
%TO.P,J4,2,Pin_2*%
%TO.N,GND*%
X101711505Y-51054000D03*
%TO.P,J4,3,Pin_3*%
%TO.N,Net-(J4-Pin_3)*%
X104251505Y-51054000D03*
%TO.P,J4,4,Pin_4*%
%TO.N,Net-(J4-Pin_4)*%
X106791505Y-51054000D03*
%TO.P,J4,5,Pin_5*%
%TO.N,Net-(J4-Pin_5)*%
X109331505Y-51054000D03*
%TO.P,J4,6,Pin_6*%
%TO.N,Net-(J4-Pin_6)*%
X111871505Y-51054000D03*
%TD*%
D13*
%TO.P,TP16,1,1*%
%TO.N,/BM1370/BI*%
X122860000Y-113980000D03*
%TD*%
%TO.P,TP34,1,1*%
%TO.N,/BM1370/PIN_MODE*%
X89860000Y-120480000D03*
%TD*%
D29*
%TO.P,H4,1,1*%
%TO.N,GND*%
X78455010Y-143830990D03*
X79114020Y-142240000D03*
X79114020Y-145421980D03*
X80705010Y-141580990D03*
D20*
X80705010Y-143830990D03*
D29*
X80705010Y-146080990D03*
X82296000Y-142240000D03*
X82296000Y-145421980D03*
X82955010Y-143830990D03*
%TD*%
D13*
%TO.P,TP1,1,1*%
%TO.N,/5V*%
X82390000Y-70940000D03*
%TD*%
D24*
%TO.P,R13,1*%
%TO.N,Net-(U2-GOSNS)*%
X86600000Y-77640000D03*
%TO.P,R13,2*%
%TO.N,GND*%
X85580000Y-77640000D03*
%TD*%
D16*
%TO.P,C53,1*%
%TO.N,/5V*%
X99300000Y-137070000D03*
%TO.P,C53,2*%
%TO.N,GND*%
X99300000Y-138030000D03*
%TD*%
D20*
%TO.P,H8,1,1*%
%TO.N,GND*%
X84710000Y-136260000D03*
%TD*%
D19*
%TO.P,C48,1*%
%TO.N,/BM1370/VDD3_1*%
X98255000Y-112350000D03*
%TO.P,C48,2*%
%TO.N,GND*%
X97295000Y-112350000D03*
%TD*%
%TO.P,C28,1*%
%TO.N,GND*%
X114155000Y-112350000D03*
%TO.P,C28,2*%
%TO.N,/BM1370/VDD3_0*%
X113195000Y-112350000D03*
%TD*%
D35*
%TO.P,U9,1,DIR1*%
%TO.N,GND*%
X115427500Y-97855000D03*
%TO.P,U9,2,DIR2*%
X115427500Y-98505000D03*
%TO.P,U9,3,A1*%
%TO.N,/BM1370/RST_N*%
X115427500Y-99155000D03*
%TO.P,U9,4,A2*%
%TO.N,/BM1370/CI*%
X115427500Y-99805000D03*
%TO.P,U9,5,A3*%
%TO.N,/BM1370/RO*%
X115427500Y-100455000D03*
%TO.P,U9,6,A4*%
%TO.N,GND*%
X115427500Y-101105000D03*
%TO.P,U9,7,DIR3*%
%TO.N,/BM1370/1V2*%
X115427500Y-101755000D03*
%TO.P,U9,8,DIR4*%
X115427500Y-102405000D03*
%TO.P,U9,9,OE*%
%TO.N,GND*%
X121152500Y-102405000D03*
%TO.P,U9,10,GND*%
X121152500Y-101755000D03*
%TO.P,U9,11,B4*%
%TO.N,unconnected-(U9-B4-Pad11)*%
X121152500Y-101105000D03*
%TO.P,U9,12,B3*%
%TO.N,/RX*%
X121152500Y-100455000D03*
%TO.P,U9,13,B2*%
%TO.N,/TX*%
X121152500Y-99805000D03*
%TO.P,U9,14,B1*%
%TO.N,/RST*%
X121152500Y-99155000D03*
%TO.P,U9,15,VCCB*%
%TO.N,/3V3*%
X121152500Y-98505000D03*
%TO.P,U9,16,VCCA*%
%TO.N,/BM1370/1V2*%
X121152500Y-97855000D03*
%TD*%
D23*
%TO.P,R24,1*%
%TO.N,/Fan/FAN_TACH*%
X95210000Y-135170000D03*
%TO.P,R24,2*%
%TO.N,/3V3*%
X96230000Y-135170000D03*
%TD*%
D28*
%TO.P,C5,1*%
%TO.N,/Power/AGND*%
X89220000Y-70300000D03*
%TO.P,C5,2*%
%TO.N,Net-(U2-AVIN)*%
X90180000Y-70300000D03*
%TD*%
D19*
%TO.P,C34,1*%
%TO.N,/BM1370/VDD2_0*%
X112030000Y-110375000D03*
%TO.P,C34,2*%
%TO.N,/BM1370/VDD1_0*%
X111070000Y-110375000D03*
%TD*%
D31*
%TO.P,R22,1,1*%
%TO.N,/Fan/TEMP_DN*%
X93380000Y-124870000D03*
%TO.P,R22,2,2*%
%TO.N,/Fan/TEMP_N*%
X93380000Y-123850000D03*
%TD*%
D36*
%TO.P,L1,1,1*%
%TO.N,/Power/SW*%
X96295000Y-85255000D03*
%TO.P,L1,2,2*%
%TO.N,/VDD*%
X104245000Y-85255000D03*
%TD*%
D11*
%TO.P,C17,1*%
%TO.N,/VDD*%
X107415000Y-90910000D03*
%TO.P,C17,2*%
%TO.N,GND*%
X110365000Y-90910000D03*
%TD*%
D28*
%TO.P,C26,1*%
%TO.N,/5V*%
X110481000Y-132739000D03*
%TO.P,C26,2*%
%TO.N,GND*%
X111441000Y-132739000D03*
%TD*%
D19*
%TO.P,C47,1*%
%TO.N,/BM1370/1V2*%
X124270000Y-103110000D03*
%TO.P,C47,2*%
%TO.N,GND*%
X123310000Y-103110000D03*
%TD*%
D17*
%TO.P,C33,1*%
%TO.N,/BM1370/0V8*%
X111000000Y-122790000D03*
%TO.P,C33,2*%
%TO.N,GND*%
X111000000Y-121830000D03*
%TD*%
D29*
%TO.P,H2,1,1*%
%TO.N,GND*%
X78558000Y-51054000D03*
X79217010Y-49463010D03*
X79217010Y-52644990D03*
X80808000Y-48804000D03*
D20*
X80808000Y-51054000D03*
D29*
X80808000Y-53304000D03*
X82398990Y-49463010D03*
X82398990Y-52644990D03*
X83058000Y-51054000D03*
%TD*%
D19*
%TO.P,C1,1*%
%TO.N,Net-(U2-DRTN)*%
X92650000Y-82220000D03*
%TO.P,C1,2*%
%TO.N,Net-(U2-BP1V5)*%
X91690000Y-82220000D03*
%TD*%
D24*
%TO.P,R18,1*%
%TO.N,GND*%
X123720000Y-116220000D03*
%TO.P,R18,2*%
%TO.N,Net-(U8-ROSC_SEL)*%
X122700000Y-116220000D03*
%TD*%
D17*
%TO.P,C36,1*%
%TO.N,/BM1370/VDD1_0*%
X110825000Y-108880000D03*
%TO.P,C36,2*%
%TO.N,/VDD*%
X110825000Y-107920000D03*
%TD*%
D13*
%TO.P,TP20,1,1*%
%TO.N,/BM1370/0V8*%
X106360000Y-134230000D03*
%TD*%
D20*
%TO.P,H7,1,1*%
%TO.N,GND*%
X126060000Y-94910000D03*
%TD*%
D13*
%TO.P,TP17,1,1*%
%TO.N,Net-(U8-ROSC_SEL)*%
X120900000Y-116060000D03*
%TD*%
%TO.P,TP30,1,1*%
%TO.N,/BM1370/CO*%
X89890000Y-114520000D03*
%TD*%
D23*
%TO.P,R15,1*%
%TO.N,/Power/PGOOD*%
X110480000Y-73250000D03*
%TO.P,R15,2*%
%TO.N,/3V3*%
X111500000Y-73250000D03*
%TD*%
D37*
%TO.P,U2,1,PGD*%
%TO.N,/Power/PGOOD*%
X90830000Y-80090000D03*
%TO.P,U2,2,PMB_DATA*%
%TO.N,/SDA*%
X91330000Y-80090000D03*
%TO.P,U2,3,PMB_CLK*%
%TO.N,/SCL*%
X91830000Y-80090000D03*
%TO.P,U2,4,BP1V5*%
%TO.N,Net-(U2-BP1V5)*%
X92330000Y-80090000D03*
%TO.P,U2,5,DRTN*%
%TO.N,Net-(U2-DRTN)*%
X92830000Y-80090000D03*
%TO.P,U2,6,SMB_ALRT*%
%TO.N,/Power/PMB_ALRT*%
X93330000Y-80090000D03*
%TO.P,U2,7,BOOT*%
%TO.N,Net-(U2-BOOT)*%
X93830000Y-80090000D03*
%TO.P,U2,8,SW*%
%TO.N,/Power/SW*%
X94330000Y-80090000D03*
%TO.P,U2,9,SW*%
X94830000Y-80090000D03*
%TO.P,U2,10,SW*%
X95330000Y-80090000D03*
%TO.P,U2,11,SW*%
X95830000Y-80090000D03*
%TO.P,U2,12,SW*%
X96330000Y-80090000D03*
D38*
%TO.P,U2,13,PGND*%
%TO.N,GND*%
X97080000Y-79340000D03*
%TO.P,U2,14,PGND*%
X97080000Y-78840000D03*
%TO.P,U2,15,PGND*%
X97080000Y-78340000D03*
%TO.P,U2,16,PGND*%
X97080000Y-77840000D03*
%TO.P,U2,17,PGND*%
X97080000Y-77340000D03*
%TO.P,U2,18,PGND*%
X97080000Y-76840000D03*
%TO.P,U2,19,PGND*%
X97080000Y-76340000D03*
%TO.P,U2,20,PGND*%
X97080000Y-75840000D03*
D37*
%TO.P,U2,21,PVIN*%
%TO.N,/5V*%
X96330000Y-75090000D03*
%TO.P,U2,22,PVIN*%
X95830000Y-75090000D03*
%TO.P,U2,23,PVIN*%
X95330000Y-75090000D03*
%TO.P,U2,24,PVIN*%
X94830000Y-75090000D03*
%TO.P,U2,25,PVIN*%
X94330000Y-75090000D03*
%TO.P,U2,26,AVIN*%
%TO.N,Net-(U2-AVIN)*%
X93830000Y-75090000D03*
%TO.P,U2,27,EN/UVLO*%
%TO.N,Net-(U2-EN{slash}UVLO)*%
X93330000Y-75090000D03*
%TO.P,U2,28,VDD5*%
%TO.N,Net-(U2-VDD5)*%
X92830000Y-75090000D03*
%TO.P,U2,29,MSEL2*%
%TO.N,Net-(U2-MSEL2)*%
X92330000Y-75090000D03*
%TO.P,U2,30,VSEL*%
%TO.N,Net-(U2-VSEL)*%
X91830000Y-75090000D03*
%TO.P,U2,31,ADRSEL*%
%TO.N,Net-(U2-ADRSEL)*%
X91330000Y-75090000D03*
%TO.P,U2,32,MSEL1*%
%TO.N,Net-(U2-MSEL1)*%
X90830000Y-75090000D03*
D38*
%TO.P,U2,33,VOSNS*%
%TO.N,Net-(U2-VOSNS)*%
X90080000Y-75840000D03*
%TO.P,U2,34,GOSNS*%
%TO.N,Net-(U2-GOSNS)*%
X90080000Y-76340000D03*
%TO.P,U2,35,VSHARE*%
%TO.N,unconnected-(U2-VSHARE-Pad35)*%
X90080000Y-76840000D03*
%TO.P,U2,36,NC*%
%TO.N,unconnected-(U2-NC-Pad36)*%
X90080000Y-77340000D03*
%TO.P,U2,37,AGND*%
%TO.N,/Power/AGND*%
X90080000Y-77840000D03*
%TO.P,U2,38,SYNC*%
%TO.N,unconnected-(U2-SYNC-Pad38)*%
X90080000Y-78340000D03*
%TO.P,U2,39,BCX_CLK*%
%TO.N,unconnected-(U2-BCX_CLK-Pad39)*%
X90080000Y-78840000D03*
%TO.P,U2,40,BCX_DAT*%
%TO.N,unconnected-(U2-BCX_DAT-Pad40)*%
X90080000Y-79340000D03*
D39*
%TO.P,U2,41,PAD*%
%TO.N,GND*%
X92180000Y-78870000D03*
X93580000Y-78870000D03*
X94980000Y-78870000D03*
X91180000Y-77590000D03*
X92180000Y-77590000D03*
X93580000Y-77590000D03*
D40*
X93580000Y-77590000D03*
D39*
X94980000Y-77590000D03*
X95980000Y-77590000D03*
X92180000Y-76310000D03*
X93580000Y-76310000D03*
X94980000Y-76310000D03*
%TD*%
D11*
%TO.P,C3,1*%
%TO.N,/5V*%
X95775000Y-70950000D03*
%TO.P,C3,2*%
%TO.N,GND*%
X98725000Y-70950000D03*
%TD*%
D19*
%TO.P,C50,1*%
%TO.N,/Fan/TEMP_DP*%
X94440000Y-125940000D03*
%TO.P,C50,2*%
%TO.N,/Fan/TEMP_DN*%
X93480000Y-125940000D03*
%TD*%
D24*
%TO.P,R10,1*%
%TO.N,Net-(U2-VSEL)*%
X88560000Y-74300000D03*
%TO.P,R10,2*%
%TO.N,/Power/AGND*%
X87540000Y-74300000D03*
%TD*%
D19*
%TO.P,C32,1*%
%TO.N,/BM1370/VDD3_0*%
X113005000Y-111425000D03*
%TO.P,C32,2*%
%TO.N,/BM1370/VDD2_0*%
X112045000Y-111425000D03*
%TD*%
D31*
%TO.P,R16,1*%
%TO.N,/3V3*%
X127240000Y-106770000D03*
%TO.P,R16,2*%
%TO.N,/ESP32/EN*%
X127240000Y-105750000D03*
%TD*%
D19*
%TO.P,C52,1*%
%TO.N,/5V*%
X100030000Y-135350000D03*
%TO.P,C52,2*%
%TO.N,GND*%
X99070000Y-135350000D03*
%TD*%
D25*
%TO.P,C11,1*%
%TO.N,Net-(C11-Pad1)*%
X91190000Y-85860000D03*
%TO.P,C11,2*%
%TO.N,/Power/SW*%
X93090000Y-85860000D03*
%TD*%
D28*
%TO.P,C21,1*%
%TO.N,/5V*%
X111140000Y-60030000D03*
%TO.P,C21,2*%
%TO.N,GND*%
X112100000Y-60030000D03*
%TD*%
D13*
%TO.P,TP31,1,1*%
%TO.N,/BM1370/RI*%
X87080000Y-115554000D03*
%TD*%
D26*
%TO.P,TP7,1,1*%
%TO.N,/ESP32/P_RX*%
X122420000Y-58830000D03*
%TD*%
D13*
%TO.P,TP32,1,1*%
%TO.N,/BM1370/CLKO*%
X89890000Y-117310000D03*
%TD*%
D23*
%TO.P,R14,1*%
%TO.N,/VDD*%
X85580000Y-76570000D03*
%TO.P,R14,2*%
%TO.N,Net-(U2-VOSNS)*%
X86600000Y-76570000D03*
%TD*%
D16*
%TO.P,C30,1*%
%TO.N,/BM1370/1V2*%
X114240000Y-129540000D03*
%TO.P,C30,2*%
%TO.N,GND*%
X114240000Y-130500000D03*
%TD*%
D12*
%TO.P,C54,1*%
%TO.N,/VDD*%
X106875000Y-107050000D03*
%TO.P,C54,2*%
%TO.N,GND*%
X106875000Y-110000000D03*
%TD*%
D19*
%TO.P,C44,1*%
%TO.N,/BM1370/VDD1_1*%
X100305000Y-110375000D03*
%TO.P,C44,2*%
%TO.N,/BM1370/VDD2_1*%
X99345000Y-110375000D03*
%TD*%
D41*
%TO.P,U3,1,VIN*%
%TO.N,/5V*%
X111185050Y-62440200D03*
%TO.P,U3,2,GND*%
%TO.N,GND*%
X111185050Y-63380000D03*
%TO.P,U3,3,EN*%
%TO.N,/5V*%
X111185050Y-64319800D03*
%TO.P,U3,4,NC*%
%TO.N,unconnected-(U3-NC-Pad4)*%
X113940950Y-64319800D03*
%TO.P,U3,5,VOUT*%
%TO.N,/3V3*%
X113940950Y-62440200D03*
%TD*%
D26*
%TO.P,TP10,1,1*%
%TO.N,GND*%
X118480000Y-55140000D03*
%TD*%
D16*
%TO.P,C31,1*%
%TO.N,/BM1370/0V8*%
X105750000Y-129990000D03*
%TO.P,C31,2*%
%TO.N,GND*%
X105750000Y-130950000D03*
%TD*%
D42*
%TO.P,J6,1,Pin_1*%
%TO.N,GND*%
X89621000Y-143622000D03*
%TO.P,J6,2,Pin_2*%
%TO.N,/5V*%
X92161000Y-143622000D03*
%TO.P,J6,3,Pin_3*%
%TO.N,/Fan/FAN_TACH*%
X94701000Y-143622000D03*
%TO.P,J6,4,Pin_4*%
%TO.N,/Fan/FAN_PWM*%
X97241000Y-143622000D03*
%TD*%
D43*
%TO.P,J3,1,Pin_1*%
%TO.N,GND*%
X87005000Y-50292000D03*
D34*
%TO.P,J3,2,Pin_2*%
%TO.N,/3V3*%
X87405000Y-52832000D03*
%TO.P,J3,3,Pin_3*%
%TO.N,/SCL*%
X87005000Y-55372000D03*
%TO.P,J3,4,Pin_4*%
%TO.N,/SDA*%
X87405000Y-57912000D03*
%TD*%
D44*
%TO.P,J5,S1,SHIELD*%
%TO.N,GND*%
X79790000Y-87580000D03*
D45*
X83970000Y-87580000D03*
D44*
X79790000Y-78940000D03*
D45*
X83970000Y-78940000D03*
%TD*%
D46*
%TO.N,GND*%
X105610000Y-116830000D03*
X112180000Y-119260000D03*
X98800000Y-61660000D03*
X113580000Y-132650000D03*
X99800000Y-75550000D03*
X98050000Y-114260000D03*
X98800000Y-65700000D03*
X103341667Y-123775000D03*
X104490000Y-118700000D03*
X100050000Y-65750000D03*
X112180000Y-120800000D03*
X106158333Y-123775000D03*
X107566667Y-124950000D03*
X101350000Y-62720000D03*
X106740000Y-119930000D03*
X104750000Y-124950000D03*
X100050000Y-61710000D03*
X111900000Y-87400000D03*
X98800000Y-63680000D03*
X106740000Y-118720000D03*
X104640000Y-130470000D03*
X105540000Y-132550000D03*
D47*
X116540000Y-70920000D03*
D46*
X103341667Y-124950000D03*
X125600000Y-65940000D03*
X116770000Y-124080000D03*
X106740000Y-117780000D03*
D48*
X95080000Y-91220000D03*
D46*
X104490000Y-117760000D03*
X102550000Y-76750000D03*
X103325000Y-121475000D03*
X105630000Y-118700000D03*
X100050000Y-62720000D03*
X98800000Y-60650000D03*
X107566667Y-123775000D03*
X115350000Y-112400000D03*
X123750000Y-117530000D03*
X111900000Y-89050000D03*
X101350000Y-60700000D03*
X97600000Y-64640000D03*
X99800000Y-76700000D03*
X107550000Y-121475000D03*
X101100000Y-77950000D03*
X106740000Y-116860000D03*
X98954400Y-134128017D03*
X116050000Y-128010000D03*
X98800000Y-62670000D03*
X104490000Y-119910000D03*
X120175000Y-53550000D03*
X128130000Y-56090000D03*
X112980000Y-114270000D03*
D47*
X80680000Y-61050000D03*
X102100000Y-140255600D03*
D46*
X101350000Y-63730000D03*
X104733333Y-121475000D03*
X91790000Y-89910000D03*
X112000000Y-86150000D03*
X117090000Y-100360000D03*
X121580000Y-112400000D03*
X101350000Y-61710000D03*
X111860000Y-83000000D03*
X106141666Y-122650000D03*
X111850000Y-85100000D03*
X122640000Y-102460000D03*
X98331421Y-137649999D03*
X100050000Y-60700000D03*
X113180000Y-130220000D03*
D47*
X117910000Y-70950000D03*
D46*
X119440000Y-103510000D03*
X99370000Y-119240000D03*
X111900000Y-90200000D03*
X100050000Y-64740000D03*
X123710000Y-120230000D03*
X111900000Y-91400000D03*
X96125000Y-112350000D03*
X104490000Y-115746000D03*
X101100000Y-75550000D03*
X98500000Y-77950000D03*
X98800000Y-64690000D03*
X106141666Y-121475000D03*
X103325000Y-122650000D03*
X97600000Y-62620000D03*
X98440000Y-121490000D03*
X92680000Y-133370000D03*
X100050000Y-63730000D03*
X128690000Y-107620000D03*
X104750000Y-123775000D03*
X97600000Y-60600000D03*
X112512000Y-61250000D03*
X104490000Y-116840000D03*
X98500000Y-76700000D03*
X104560000Y-75650000D03*
X97600000Y-63630000D03*
X99800000Y-77950000D03*
X101100000Y-76700000D03*
D47*
X119454234Y-70914234D03*
D46*
X97600000Y-61610000D03*
D47*
X125800000Y-82625000D03*
D46*
X101350000Y-64740000D03*
X106740000Y-115766000D03*
X97600000Y-65650000D03*
X102550000Y-78000000D03*
X115440000Y-96940000D03*
X106158333Y-124950000D03*
X104733333Y-122650000D03*
X107550000Y-122650000D03*
X102550000Y-75600000D03*
X101350000Y-65750000D03*
X132297000Y-108743000D03*
X98500000Y-75550000D03*
%TO.N,/VDD*%
X102475000Y-105550000D03*
X103725000Y-104350000D03*
X102375000Y-83225000D03*
D48*
X120850000Y-69510000D03*
D46*
X104975000Y-103250000D03*
X106225000Y-103250000D03*
X110000000Y-104325000D03*
X102475000Y-102150000D03*
X107475000Y-105550000D03*
X104775000Y-83225000D03*
D48*
X84500000Y-76160000D03*
D46*
X107475000Y-102150000D03*
X108725000Y-102130000D03*
X102475000Y-103250000D03*
X101425000Y-85250000D03*
X110000000Y-106625000D03*
X106225000Y-104350000D03*
X103725000Y-103250000D03*
X108725000Y-105530000D03*
X101250000Y-105550000D03*
X107475000Y-103250000D03*
X108725000Y-106630000D03*
X103900000Y-85250000D03*
X103725000Y-105550000D03*
X103725000Y-102150000D03*
X102475000Y-104350000D03*
X106225000Y-102150000D03*
X102650000Y-85250000D03*
X107475000Y-104350000D03*
X106225000Y-105550000D03*
X102375000Y-82125000D03*
X110000000Y-103225000D03*
X110000000Y-105525000D03*
X110000000Y-102125000D03*
X108725000Y-103230000D03*
X104975000Y-102150000D03*
X104975000Y-105550000D03*
X104775000Y-82125000D03*
X103625000Y-83225000D03*
X101250000Y-103250000D03*
X103625000Y-82125000D03*
X106025000Y-82125000D03*
X108725000Y-104330000D03*
X101250000Y-106650000D03*
X105050000Y-85250000D03*
X101150000Y-82125000D03*
X101250000Y-102150000D03*
X101250000Y-104350000D03*
X102475000Y-106650000D03*
X104975000Y-104350000D03*
X101150000Y-83225000D03*
D48*
%TO.N,/ESP32/EN*%
X122101300Y-70905000D03*
X127228000Y-104448000D03*
D46*
%TO.N,/5V*%
X93620000Y-68280000D03*
X94750000Y-68300000D03*
X92350000Y-66250000D03*
X93600000Y-69250000D03*
X93600000Y-71200000D03*
X92350000Y-68300000D03*
X96020000Y-66230000D03*
D49*
X109280000Y-61185155D03*
D46*
X108290000Y-131179000D03*
X93600000Y-67250000D03*
X92350000Y-70250000D03*
X99710000Y-131420000D03*
X96000000Y-67250000D03*
X94730000Y-67270000D03*
X94750000Y-66250000D03*
D47*
X80680000Y-70950000D03*
D46*
X93620000Y-70230000D03*
X92330000Y-71220000D03*
X96020000Y-68280000D03*
X92330000Y-69270000D03*
X100900000Y-136150000D03*
X93620000Y-66230000D03*
X92330000Y-67270000D03*
D48*
X104700000Y-139400000D03*
D46*
X96000000Y-69250000D03*
X94730000Y-69270000D03*
%TO.N,/3V3*%
X129830000Y-56090000D03*
D47*
X124375000Y-82650000D03*
D46*
X123394000Y-86260000D03*
X112800000Y-73300000D03*
X96380000Y-133670000D03*
D49*
X111440000Y-55180000D03*
D46*
X122930000Y-99700000D03*
X120300000Y-56925000D03*
X127250000Y-107630000D03*
D47*
X115370000Y-61560000D03*
D46*
X95560000Y-126330000D03*
D48*
%TO.N,/TX*%
X116380000Y-79250000D03*
%TO.N,/RX*%
X115580000Y-78420000D03*
%TO.N,/RST*%
X121476817Y-70170000D03*
%TO.N,/SCL*%
X94317599Y-134229617D03*
X88970000Y-81220000D03*
%TO.N,/Fan/FAN_PWM*%
X92755000Y-129945000D03*
%TO.N,/Power/SW*%
X94825000Y-85195000D03*
X96210000Y-80950000D03*
X97018750Y-85195000D03*
X97870000Y-80950000D03*
X98700000Y-80950000D03*
X95380000Y-80950000D03*
X96287500Y-85195000D03*
X97750000Y-85195000D03*
X94550000Y-80950000D03*
X97040000Y-80950000D03*
X95556250Y-85195000D03*
%TO.N,Net-(U2-BP1V5)*%
X91690000Y-82980000D03*
X83660000Y-76570000D03*
%TO.N,/ESP32/P_TX*%
X124125000Y-61850000D03*
%TO.N,/ESP32/P_RX*%
X124125000Y-60375000D03*
%TO.N,/ESP32/IO0*%
X121244400Y-66945600D03*
X124830000Y-55100000D03*
X126520000Y-102640000D03*
%TO.N,Net-(U2-VDD5)*%
X92570000Y-74110000D03*
X102820000Y-73740000D03*
%TO.N,/Power/PGOOD*%
X89020000Y-82280000D03*
X109600000Y-73150000D03*
%TO.N,/SDA*%
X82130000Y-73910000D03*
X94340000Y-133580000D03*
X88990000Y-80510000D03*
X82390000Y-75900000D03*
D46*
%TO.N,Net-(U8-VDDIO_12_1)*%
X100770000Y-123700000D03*
%TO.N,Net-(U8-VDDIO_08_1)*%
X99180000Y-123710000D03*
D48*
%TO.N,Net-(U8-ROSC_SEL)*%
X119430000Y-116250000D03*
%TO.N,Net-(U8-LITE_PAD)*%
X119420000Y-118020000D03*
%TO.N,Net-(U8-INV_CLKO)*%
X124540000Y-121820000D03*
%TO.N,/Fan/TEMP_N*%
X92180000Y-119960000D03*
%TO.N,/Fan/TEMP_P*%
X92940000Y-119930000D03*
%TO.N,/Power/AGND*%
X89170000Y-77830000D03*
X90050000Y-73300000D03*
X89550000Y-74800000D03*
%TO.N,/Power/PMB_ALRT*%
X93330000Y-81550000D03*
D46*
%TO.N,/BM1370/VDD3_0*%
X113125000Y-113200000D03*
%TO.N,/BM1370/1V2*%
X110950000Y-124990000D03*
X124600000Y-101830000D03*
X115430000Y-103510000D03*
%TO.N,/BM1370/0V8*%
X110970000Y-123700000D03*
%TO.N,/BM1370/VDD2_0*%
X112017500Y-113042500D03*
%TO.N,/BM1370/VDD1_0*%
X110892500Y-112667500D03*
%TO.N,/BM1370/VDD1_1*%
X100540000Y-112125000D03*
%TO.N,/BM1370/VDD2_1*%
X99360000Y-112350000D03*
%TO.N,/BM1370/VDD3_1*%
X98767500Y-113657500D03*
D48*
%TO.N,/BM1370/BI*%
X119420000Y-114790000D03*
%TO.N,/BM1370/RST_N*%
X114380000Y-106220000D03*
%TO.N,/BM1370/CI*%
X115000536Y-105929128D03*
%TO.N,/BM1370/RO*%
X115575000Y-105625000D03*
X118320000Y-108370000D03*
%TO.N,/BM1370/CLKI*%
X118740000Y-113660000D03*
%TO.N,/BM1370/NRSTO*%
X92480000Y-112210000D03*
%TO.N,/BM1370/CO*%
X92480000Y-113611428D03*
%TO.N,/BM1370/RI*%
X92480000Y-115012856D03*
%TO.N,/BM1370/CLKO*%
X92480000Y-116414284D03*
%TO.N,/BM1370/BO*%
X92480000Y-117815712D03*
%TO.N,/BM1370/PIN_MODE*%
X91400000Y-120430000D03*
%TO.N,/Fan/FAN_TACH*%
X95170000Y-136070000D03*
%TD*%
D50*
%TO.N,GND*%
X112640000Y-61122000D02*
X112512000Y-61250000D01*
D51*
X111185050Y-63380000D02*
X111189050Y-63376000D01*
D52*
X85580000Y-77640000D02*
X84680000Y-77640000D01*
X119775000Y-101755000D02*
X121152500Y-101755000D01*
X123310000Y-103110000D02*
X123290000Y-103110000D01*
D50*
X121152500Y-102405000D02*
X119445000Y-102405000D01*
D51*
X111189050Y-63376000D02*
X111824000Y-63376000D01*
D50*
X119445000Y-102405000D02*
X119440000Y-102410000D01*
D52*
X123720000Y-116220000D02*
X123720000Y-117500000D01*
X119440000Y-102090000D02*
X119775000Y-101755000D01*
D53*
X80680000Y-61050000D02*
X81260000Y-61050000D01*
D51*
X115690000Y-124080000D02*
X115680000Y-124070000D01*
D52*
X121230000Y-112750000D02*
X121580000Y-112400000D01*
X120070000Y-53550000D02*
X118480000Y-55140000D01*
D51*
X101392500Y-130470000D02*
X104640000Y-130470000D01*
X83850000Y-87700000D02*
X83970000Y-87580000D01*
D50*
X95090000Y-91210000D02*
X95080000Y-91220000D01*
D52*
X116050000Y-128010000D02*
X115440000Y-128010000D01*
X120380000Y-112750000D02*
X121230000Y-112750000D01*
D50*
X115440000Y-98492500D02*
X115427500Y-98505000D01*
D52*
X83970000Y-78350000D02*
X83970000Y-78940000D01*
X123720000Y-120220000D02*
X123710000Y-120230000D01*
X84680000Y-77640000D02*
X83970000Y-78350000D01*
D51*
X102100000Y-140255600D02*
X102800000Y-139555600D01*
D52*
X112650000Y-60030000D02*
X112650000Y-61112000D01*
X112100000Y-60030000D02*
X112650000Y-60030000D01*
X123290000Y-103110000D02*
X122640000Y-102460000D01*
D51*
X125800000Y-82625000D02*
X126050000Y-82875000D01*
D52*
X119440000Y-103510000D02*
X119440000Y-102410000D01*
X111441000Y-132739000D02*
X113491000Y-132739000D01*
D50*
X97220000Y-91210000D02*
X95090000Y-91210000D01*
D52*
X102900000Y-132840000D02*
X105250000Y-132840000D01*
D51*
X109852500Y-130220000D02*
X109843500Y-130229000D01*
D52*
X128670000Y-106730000D02*
X128670000Y-107600000D01*
X115427500Y-101105000D02*
X116345000Y-101105000D01*
X92920000Y-133130000D02*
X92680000Y-133370000D01*
X99070000Y-134243617D02*
X99070000Y-135350000D01*
X114240000Y-131990000D02*
X113580000Y-132650000D01*
X123720000Y-118980000D02*
X123720000Y-120220000D01*
X112650000Y-61112000D02*
X112512000Y-61250000D01*
X105250000Y-132840000D02*
X105540000Y-132550000D01*
X114240000Y-130500000D02*
X114240000Y-131990000D01*
X113491000Y-132739000D02*
X113580000Y-132650000D01*
X91790000Y-89910000D02*
X92112500Y-89910000D01*
X115422500Y-101110000D02*
X115427500Y-101105000D01*
X122930000Y-101600000D02*
X122930000Y-102170000D01*
X105750000Y-132340000D02*
X105540000Y-132550000D01*
D53*
X81260000Y-61050000D02*
X82310000Y-62100000D01*
D52*
X98331421Y-137649999D02*
X98711422Y-138030000D01*
X98954400Y-134128017D02*
X99070000Y-134243617D01*
D51*
X112512000Y-62688000D02*
X112512000Y-61250000D01*
D52*
X112650000Y-60030000D02*
X113240000Y-60030000D01*
X115440000Y-97842500D02*
X115427500Y-97855000D01*
X92112500Y-89910000D02*
X93182500Y-88840000D01*
X98711422Y-138030000D02*
X99300000Y-138030000D01*
X120175000Y-53550000D02*
X120070000Y-53550000D01*
D50*
X128670000Y-107600000D02*
X128690000Y-107620000D01*
X115440000Y-96940000D02*
X115440000Y-98492500D01*
D51*
X113180000Y-130220000D02*
X109852500Y-130220000D01*
X102800000Y-139555600D02*
X102800000Y-138075000D01*
X126050000Y-82875000D02*
X126050000Y-84050000D01*
D52*
X92920000Y-132140000D02*
X92920000Y-133130000D01*
X119440000Y-102410000D02*
X119440000Y-102090000D01*
X122930000Y-102170000D02*
X122640000Y-102460000D01*
X105750000Y-130950000D02*
X105750000Y-132340000D01*
D51*
X116770000Y-124080000D02*
X115690000Y-124080000D01*
D52*
X123720000Y-117500000D02*
X123750000Y-117530000D01*
X116345000Y-101105000D02*
X117090000Y-100360000D01*
D51*
X111824000Y-63376000D02*
X112512000Y-62688000D01*
D52*
%TO.N,/VDD*%
X120840000Y-69500000D02*
X115800000Y-69500000D01*
X114570000Y-70730000D02*
X114570000Y-92190000D01*
D50*
X84910000Y-76570000D02*
X84500000Y-76160000D01*
D52*
X114570000Y-92190000D02*
X113420000Y-93340000D01*
X115800000Y-69500000D02*
X114570000Y-70730000D01*
D50*
X85580000Y-76570000D02*
X84910000Y-76570000D01*
D52*
X113420000Y-93340000D02*
X107510000Y-93340000D01*
X120850000Y-69510000D02*
X120840000Y-69500000D01*
%TO.N,/ESP32/EN*%
X130320000Y-92750000D02*
X127110000Y-89540000D01*
X126588000Y-104448000D02*
X125670000Y-103530000D01*
X127110000Y-89540000D02*
X123820000Y-89540000D01*
X123820000Y-89540000D02*
X121520000Y-87240000D01*
X128670000Y-105770000D02*
X127260000Y-105770000D01*
X127228000Y-104448000D02*
X126588000Y-104448000D01*
X125670000Y-103530000D02*
X125670000Y-102100000D01*
X122101300Y-68911300D02*
X122101300Y-70905000D01*
X127260000Y-105770000D02*
X127240000Y-105750000D01*
X127228000Y-105738000D02*
X127240000Y-105750000D01*
X118460000Y-65270000D02*
X122101300Y-68911300D01*
X122101300Y-81288700D02*
X122101300Y-70905000D01*
X125670000Y-102100000D02*
X130320000Y-97450000D01*
X130320000Y-97450000D02*
X130320000Y-92750000D01*
X121520000Y-81870000D02*
X122101300Y-81288700D01*
X127228000Y-104448000D02*
X127228000Y-105738000D01*
X121520000Y-87240000D02*
X121520000Y-81870000D01*
X118460000Y-62540000D02*
X118460000Y-65270000D01*
%TO.N,/5V*%
X111051000Y-64453850D02*
X111185050Y-64319800D01*
X111140000Y-60030000D02*
X111140000Y-60850000D01*
D51*
X99710000Y-130060000D02*
X100250000Y-129520000D01*
X109280000Y-63317000D02*
X110282800Y-64319800D01*
D52*
X109843500Y-132443500D02*
X109843500Y-131179000D01*
D51*
X99710000Y-131420000D02*
X99710000Y-130060000D01*
X101775000Y-136150000D02*
X102800000Y-135125000D01*
D52*
X101690000Y-132840000D02*
X101392500Y-132542500D01*
D51*
X99710000Y-131420000D02*
X101392500Y-131420000D01*
D52*
X110481000Y-132739000D02*
X110139000Y-132739000D01*
D51*
X100250000Y-129520000D02*
X101392500Y-129520000D01*
D52*
X100400000Y-137050000D02*
X100400000Y-137040000D01*
X100380000Y-137070000D02*
X100400000Y-137050000D01*
X101392500Y-132542500D02*
X101392500Y-131420000D01*
D51*
X108290000Y-131179000D02*
X108290000Y-129730000D01*
D52*
X99300000Y-137070000D02*
X100380000Y-137070000D01*
X100400000Y-136650000D02*
X100400000Y-137040000D01*
X101940000Y-132840000D02*
X101690000Y-132840000D01*
D51*
X108290000Y-129730000D02*
X108741000Y-129279000D01*
D52*
X100900000Y-136150000D02*
X100100000Y-135350000D01*
X100100000Y-135350000D02*
X100030000Y-135350000D01*
D51*
X110282800Y-64319800D02*
X111185050Y-64319800D01*
D52*
X100900000Y-136150000D02*
X100400000Y-136650000D01*
X110139000Y-132739000D02*
X109843500Y-132443500D01*
D53*
X80690000Y-70940000D02*
X80680000Y-70950000D01*
D51*
X108290000Y-131179000D02*
X109843500Y-131179000D01*
D52*
X111140000Y-60850000D02*
X111150000Y-60860000D01*
D51*
X108741000Y-129279000D02*
X109843500Y-129279000D01*
D53*
X82390000Y-70940000D02*
X80690000Y-70940000D01*
D51*
X109280000Y-61185155D02*
X109280000Y-63317000D01*
X100900000Y-136150000D02*
X101775000Y-136150000D01*
D52*
%TO.N,/3V3*%
X94870000Y-127840000D02*
X94870000Y-127020000D01*
D54*
X91132000Y-52832000D02*
X93480000Y-55180000D01*
D52*
X122095000Y-98505000D02*
X122930000Y-99340000D01*
X123394000Y-86744000D02*
X123394000Y-86260000D01*
X124475000Y-87825000D02*
X123394000Y-86744000D01*
X121152500Y-98505000D02*
X122095000Y-98505000D01*
X112800000Y-73300000D02*
X111550000Y-73300000D01*
X111550000Y-73300000D02*
X111500000Y-73250000D01*
X120300000Y-56925000D02*
X120245000Y-56925000D01*
D51*
X124375000Y-82650000D02*
X124375000Y-83825000D01*
D52*
X96380000Y-133670000D02*
X96380000Y-133910000D01*
X127250000Y-106780000D02*
X127240000Y-106770000D01*
X120245000Y-56925000D02*
X118480000Y-58690000D01*
D51*
X124375000Y-82650000D02*
X124375000Y-82875000D01*
X124375000Y-83825000D02*
X124150000Y-84050000D01*
D54*
X93480000Y-55180000D02*
X111440000Y-55180000D01*
D50*
X96230000Y-135170000D02*
X96230000Y-133820000D01*
D52*
X94870000Y-127020000D02*
X95560000Y-126330000D01*
X114200000Y-60030000D02*
X114200000Y-60910000D01*
D54*
X91132000Y-52832000D02*
X87355000Y-52832000D01*
D52*
X122930000Y-99340000D02*
X122930000Y-99700000D01*
X122930000Y-100640000D02*
X122930000Y-99700000D01*
D50*
X96230000Y-133820000D02*
X96380000Y-133670000D01*
D52*
X127250000Y-107630000D02*
X127250000Y-106780000D01*
%TO.N,/TX*%
X119474200Y-82354200D02*
X119474200Y-99304200D01*
X119975000Y-99805000D02*
X121152500Y-99805000D01*
X116380000Y-79250000D02*
X116380000Y-79260000D01*
X119474200Y-99304200D02*
X119975000Y-99805000D01*
X116380000Y-79260000D02*
X119474200Y-82354200D01*
%TO.N,/RX*%
X119795000Y-100455000D02*
X121152500Y-100455000D01*
X115580000Y-78420000D02*
X115580000Y-79330000D01*
X118960000Y-99620000D02*
X119795000Y-100455000D01*
X115580000Y-79330000D02*
X118960000Y-82710000D01*
X118960000Y-82710000D02*
X118960000Y-99620000D01*
%TO.N,/RST*%
X120030000Y-82370000D02*
X120030000Y-99010000D01*
X121476817Y-70170000D02*
X121410000Y-70236817D01*
X121410000Y-80990000D02*
X120030000Y-82370000D01*
X121410000Y-70236817D02*
X121410000Y-80990000D01*
X120030000Y-99010000D02*
X120175000Y-99155000D01*
X120175000Y-99155000D02*
X121152500Y-99155000D01*
D50*
%TO.N,/SCL*%
X88970000Y-81220000D02*
X89070000Y-81320000D01*
X94397490Y-134229617D02*
X94317599Y-134229617D01*
X89070000Y-81320000D02*
X91310000Y-81320000D01*
X94870000Y-133757107D02*
X94397490Y-134229617D01*
X94870000Y-132140000D02*
X94870000Y-133757107D01*
X91310000Y-81320000D02*
X91830000Y-80800000D01*
X91830000Y-80800000D02*
X91830000Y-80090000D01*
D52*
%TO.N,/Fan/FAN_PWM*%
X90900000Y-144171600D02*
X90900000Y-144090000D01*
X90900000Y-144090000D02*
X90900000Y-139900000D01*
X96153000Y-144710000D02*
X97241000Y-143622000D01*
X91890000Y-130810000D02*
X92755000Y-129945000D01*
X90900000Y-139900000D02*
X91890000Y-138910000D01*
X89800000Y-140410000D02*
X89850000Y-140460000D01*
X92755000Y-129945000D02*
X92920000Y-129780000D01*
X100400000Y-138060000D02*
X100400000Y-140463000D01*
X92920000Y-129780000D02*
X92920000Y-127840000D01*
X90900000Y-144090000D02*
X90900000Y-144310000D01*
X91300000Y-144710000D02*
X96153000Y-144710000D01*
X100400000Y-140463000D02*
X97241000Y-143622000D01*
X90900000Y-144310000D02*
X91300000Y-144710000D01*
X91890000Y-138910000D02*
X91890000Y-130810000D01*
%TO.N,/Power/SW*%
X93110000Y-85840000D02*
X93090000Y-85860000D01*
X93110000Y-84350000D02*
X93110000Y-85840000D01*
D50*
X96280000Y-85270000D02*
X96295000Y-85255000D01*
X95990000Y-85560000D02*
X96295000Y-85255000D01*
D52*
X95825000Y-85255000D02*
X96295000Y-85255000D01*
X93090000Y-85860000D02*
X93695000Y-85255000D01*
X93695000Y-85255000D02*
X94850000Y-85255000D01*
X94850000Y-85255000D02*
X95825000Y-85255000D01*
D50*
X95800000Y-85750000D02*
X96295000Y-85255000D01*
D52*
X95950000Y-85600000D02*
X96295000Y-85255000D01*
D50*
%TO.N,Net-(U2-DRTN)*%
X92830000Y-82040000D02*
X92650000Y-82220000D01*
X92830000Y-80090000D02*
X92830000Y-82040000D01*
%TO.N,Net-(U2-BP1V5)*%
X83660000Y-75850000D02*
X83660000Y-76570000D01*
X84010000Y-75500000D02*
X83660000Y-75850000D01*
X91690000Y-82980000D02*
X91690000Y-82220000D01*
X92330000Y-80090000D02*
X92330000Y-81020000D01*
X92330000Y-81020000D02*
X91690000Y-81660000D01*
X91690000Y-81660000D02*
X91690000Y-82220000D01*
X85590000Y-75500000D02*
X84010000Y-75500000D01*
%TO.N,Net-(U2-AVIN)*%
X90930000Y-71730000D02*
X90930000Y-71050000D01*
X93370000Y-72930000D02*
X92130000Y-72930000D01*
X93830000Y-75090000D02*
X93851600Y-75068400D01*
X92130000Y-72930000D02*
X90930000Y-71730000D01*
X93851600Y-73411600D02*
X93370000Y-72930000D01*
X90930000Y-71050000D02*
X90180000Y-70300000D01*
X93851600Y-75068400D02*
X93851600Y-73411600D01*
%TO.N,Net-(U2-EN{slash}UVLO)*%
X90940000Y-72350000D02*
X90230000Y-72350000D01*
X90260000Y-71300000D02*
X90230000Y-71330000D01*
X93330000Y-75090000D02*
X93330000Y-74040000D01*
X93330000Y-74040000D02*
X93380000Y-73990000D01*
X93380000Y-73990000D02*
X92900000Y-73510000D01*
X90230000Y-71330000D02*
X90230000Y-72350000D01*
X92100000Y-73510000D02*
X90940000Y-72350000D01*
X92900000Y-73510000D02*
X92100000Y-73510000D01*
D52*
%TO.N,/ESP32/P_TX*%
X123120000Y-61850000D02*
X122430000Y-62540000D01*
X124125000Y-61850000D02*
X123120000Y-61850000D01*
%TO.N,/ESP32/P_RX*%
X124125000Y-60375000D02*
X123965000Y-60375000D01*
X123965000Y-60375000D02*
X122420000Y-58830000D01*
%TO.N,/ESP32/IO0*%
X120440000Y-66141200D02*
X120440000Y-58060000D01*
X124260000Y-55677000D02*
X124260000Y-55670000D01*
X130780000Y-97690000D02*
X130780000Y-92490000D01*
X122780700Y-68481900D02*
X121244400Y-66945600D01*
X130780000Y-92490000D02*
X127320000Y-89030000D01*
X124260000Y-55670000D02*
X124830000Y-55100000D01*
X122050000Y-82400000D02*
X122780700Y-81669300D01*
X124830000Y-55100000D02*
X122450000Y-55100000D01*
X122050000Y-87060000D02*
X122050000Y-82400000D01*
X126520000Y-102640000D02*
X126520000Y-101950000D01*
X122780700Y-81669300D02*
X122780700Y-68481900D01*
X126520000Y-101950000D02*
X130780000Y-97690000D01*
X122450000Y-55100000D02*
X122440000Y-55090000D01*
X127320000Y-89030000D02*
X124020000Y-89030000D01*
X121244400Y-66945600D02*
X120440000Y-66141200D01*
X124020000Y-89030000D02*
X122050000Y-87060000D01*
X123037000Y-56900000D02*
X124260000Y-55677000D01*
X121600000Y-56900000D02*
X123037000Y-56900000D01*
X120440000Y-58060000D02*
X121600000Y-56900000D01*
D50*
%TO.N,Net-(U2-VDD5)*%
X92830000Y-75090000D02*
X92830000Y-74370000D01*
X92830000Y-74370000D02*
X92570000Y-74110000D01*
X102820000Y-73740000D02*
X105030000Y-73740000D01*
X105030000Y-73740000D02*
X105250000Y-73520000D01*
%TO.N,/Power/PGOOD*%
X90830000Y-80090000D02*
X89870000Y-80090000D01*
X88470000Y-81730000D02*
X89020000Y-82280000D01*
X110380000Y-73150000D02*
X110480000Y-73250000D01*
X88470000Y-80300000D02*
X88470000Y-81730000D01*
X89700000Y-79920000D02*
X88850000Y-79920000D01*
X89870000Y-80090000D02*
X89700000Y-79920000D01*
X109600000Y-73150000D02*
X110380000Y-73150000D01*
X88850000Y-79920000D02*
X88470000Y-80300000D01*
%TO.N,/SDA*%
X89430000Y-80950000D02*
X91100000Y-80950000D01*
X94220000Y-133460000D02*
X94340000Y-133580000D01*
X91330000Y-80720000D02*
X91330000Y-80090000D01*
X88990000Y-80510000D02*
X89430000Y-80950000D01*
X94220000Y-132140000D02*
X94220000Y-133460000D01*
X82390000Y-75900000D02*
X82390000Y-74170000D01*
X91100000Y-80950000D02*
X91330000Y-80720000D01*
X82390000Y-74170000D02*
X82130000Y-73910000D01*
%TO.N,Net-(U2-BOOT)*%
X93830000Y-81757107D02*
X93550000Y-82037107D01*
X93550000Y-82950000D02*
X93110000Y-83390000D01*
X93550000Y-82037107D02*
X93550000Y-82950000D01*
X93830000Y-80090000D02*
X93830000Y-81757107D01*
%TO.N,Net-(U2-VOSNS)*%
X89480000Y-75840000D02*
X88750000Y-76570000D01*
X88750000Y-76570000D02*
X87650000Y-76570000D01*
X87650000Y-76570000D02*
X86600000Y-76570000D01*
X90080000Y-75840000D02*
X89480000Y-75840000D01*
%TO.N,Net-(U2-GOSNS)*%
X86860000Y-77640000D02*
X86600000Y-77640000D01*
X86970000Y-77530000D02*
X86860000Y-77640000D01*
X88410000Y-77530000D02*
X87650000Y-77530000D01*
X87650000Y-77530000D02*
X86970000Y-77530000D01*
X90080000Y-76340000D02*
X89600000Y-76340000D01*
X89600000Y-76340000D02*
X88410000Y-77530000D01*
D52*
%TO.N,Net-(U8-VDDIO_12_1)*%
X100770000Y-122924562D02*
X100655438Y-122810000D01*
X100770000Y-123700000D02*
X100770000Y-122924562D01*
%TO.N,Net-(U8-VDDIO_08_1)*%
X99525438Y-123364562D02*
X99525438Y-122820000D01*
X99180000Y-123710000D02*
X99525438Y-123364562D01*
D50*
%TO.N,Net-(U2-MSEL1)*%
X90820000Y-75080000D02*
X90010000Y-75080000D01*
X90010000Y-75080000D02*
X89580000Y-75510000D01*
X88560000Y-75970000D02*
X88508400Y-76021600D01*
X88560000Y-75500000D02*
X88560000Y-75970000D01*
X90830000Y-75090000D02*
X90820000Y-75080000D01*
X87131600Y-76021600D02*
X86610000Y-75500000D01*
X88570000Y-75510000D02*
X88560000Y-75500000D01*
X89580000Y-75510000D02*
X88570000Y-75510000D01*
X88508400Y-76021600D02*
X87131600Y-76021600D01*
%TO.N,Net-(U2-MSEL2)*%
X92330000Y-74577107D02*
X91652893Y-73900000D01*
X89160000Y-73900000D02*
X88560000Y-73300000D01*
X92330000Y-75090000D02*
X92330000Y-74577107D01*
X91652893Y-73900000D02*
X89160000Y-73900000D01*
%TO.N,Net-(U2-VSEL)*%
X91830000Y-75090000D02*
X91830000Y-74603474D01*
X91526526Y-74300000D02*
X88560000Y-74300000D01*
X91830000Y-74603474D02*
X91526526Y-74300000D01*
D52*
%TO.N,Net-(U8-ROSC_SEL)*%
X119430000Y-116250000D02*
X122670000Y-116250000D01*
X122670000Y-116250000D02*
X122700000Y-116220000D01*
%TO.N,Net-(U8-LITE_PAD)*%
X120100000Y-118020000D02*
X121060000Y-118980000D01*
X121060000Y-118980000D02*
X122700000Y-118980000D01*
X119420000Y-118020000D02*
X120100000Y-118020000D01*
%TO.N,Net-(U8-INV_CLKO)*%
X123010000Y-121820000D02*
X122860000Y-121970000D01*
X124540000Y-121820000D02*
X123010000Y-121820000D01*
D50*
%TO.N,/Fan/TEMP_N*%
X91650000Y-123880000D02*
X93350000Y-123880000D01*
X93350000Y-123880000D02*
X93380000Y-123850000D01*
X92180000Y-119960000D02*
X92180000Y-121400000D01*
X92180000Y-121400000D02*
X93380000Y-122600000D01*
X93380000Y-122600000D02*
X93380000Y-123850000D01*
%TO.N,/Fan/TEMP_P*%
X96280000Y-123890000D02*
X94560000Y-123890000D01*
X92940000Y-120830000D02*
X94520000Y-122410000D01*
X94560000Y-123890000D02*
X94520000Y-123850000D01*
X92940000Y-119930000D02*
X92940000Y-120830000D01*
X94520000Y-122410000D02*
X94520000Y-123850000D01*
%TO.N,/Power/AGND*%
X89550000Y-74800000D02*
X89371600Y-74978400D01*
X87540000Y-73300000D02*
X87540000Y-74300000D01*
X90070000Y-77830000D02*
X90080000Y-77840000D01*
X88061600Y-74978400D02*
X87995000Y-75045000D01*
X90050000Y-73300000D02*
X89270000Y-72520000D01*
X89240000Y-71300000D02*
X89240000Y-72320000D01*
X89170000Y-77830000D02*
X90070000Y-77830000D01*
X89220000Y-71280000D02*
X89240000Y-71300000D01*
X87540000Y-74590000D02*
X87995000Y-75045000D01*
X89220000Y-70300000D02*
X89220000Y-71280000D01*
X89270000Y-72520000D02*
X89270000Y-72350000D01*
X89240000Y-72320000D02*
X89270000Y-72350000D01*
X87540000Y-74300000D02*
X87540000Y-74590000D01*
X87995000Y-75045000D02*
X87540000Y-75500000D01*
X89371600Y-74978400D02*
X88061600Y-74978400D01*
%TO.N,/Power/PMB_ALRT*%
X93330000Y-80090000D02*
X93330000Y-81550000D01*
D52*
%TO.N,Net-(C11-Pad1)*%
X91190000Y-85860000D02*
X91190000Y-86240000D01*
X91190000Y-86240000D02*
X90087500Y-87342500D01*
X90087500Y-87342500D02*
X90087500Y-88210000D01*
D50*
%TO.N,/Fan/TEMP_DP*%
X94520000Y-125860000D02*
X94440000Y-125940000D01*
X94220000Y-126160000D02*
X94440000Y-125940000D01*
X94220000Y-127840000D02*
X94220000Y-126160000D01*
X94520000Y-124870000D02*
X94520000Y-125860000D01*
%TO.N,/Fan/TEMP_DN*%
X93380000Y-124870000D02*
X93380000Y-125840000D01*
X93380000Y-125840000D02*
X93480000Y-125940000D01*
X93570000Y-127840000D02*
X93570000Y-126030000D01*
X93570000Y-126030000D02*
X93480000Y-125940000D01*
D52*
%TO.N,/BM1370/VDD3_0*%
X113200000Y-113125000D02*
X113200000Y-112355000D01*
X113125000Y-113200000D02*
X113200000Y-113125000D01*
X113195000Y-111615000D02*
X113005000Y-111425000D01*
X113200000Y-112355000D02*
X113195000Y-112350000D01*
X113195000Y-112350000D02*
X113195000Y-111615000D01*
D51*
%TO.N,/BM1370/1V2*%
X112140000Y-124170000D02*
X112140000Y-122790000D01*
X112118500Y-126360000D02*
X112128500Y-126370000D01*
X114140000Y-128010000D02*
X113790000Y-127660000D01*
D52*
X114240000Y-129540000D02*
X114860000Y-130160000D01*
X110970000Y-124970000D02*
X111900000Y-124970000D01*
X115430000Y-103510000D02*
X115430000Y-101757500D01*
D51*
X112118500Y-124191500D02*
X112118500Y-126360000D01*
X112140000Y-124170000D02*
X112118500Y-124191500D01*
X124600000Y-101830000D02*
X124600000Y-100060000D01*
X124600000Y-100060000D02*
X122395000Y-97855000D01*
X122395000Y-97855000D02*
X121152500Y-97855000D01*
X113790000Y-127660000D02*
X113790000Y-126380000D01*
X124600000Y-112040000D02*
X124600000Y-101830000D01*
D52*
X114240000Y-129540000D02*
X113720000Y-129540000D01*
X114860000Y-130160000D02*
X114860000Y-134280000D01*
D51*
X113790000Y-126380000D02*
X113780000Y-126370000D01*
X112128500Y-126370000D02*
X113780000Y-126370000D01*
D52*
X113459000Y-129279000D02*
X112118500Y-129279000D01*
D51*
X125900000Y-113340000D02*
X124600000Y-112040000D01*
D52*
X111900000Y-124970000D02*
X112140000Y-124730000D01*
D51*
X125900000Y-123480000D02*
X125900000Y-113340000D01*
D52*
X115430000Y-101757500D02*
X115427500Y-101755000D01*
D51*
X122980000Y-126400000D02*
X125900000Y-123480000D01*
D52*
X110950000Y-124990000D02*
X110970000Y-124970000D01*
X113720000Y-129540000D02*
X113459000Y-129279000D01*
D51*
X112118500Y-126360000D02*
X112118500Y-129279000D01*
X114220000Y-126400000D02*
X122980000Y-126400000D01*
D52*
%TO.N,/BM1370/0V8*%
X103667500Y-128907500D02*
X103975000Y-128600000D01*
X106070000Y-128600000D02*
X110970000Y-123700000D01*
X110970000Y-123700000D02*
X110970000Y-123440000D01*
X105750000Y-129990000D02*
X106360000Y-130600000D01*
X105750000Y-129990000D02*
X105280000Y-129520000D01*
X106360000Y-130600000D02*
X106360000Y-134230000D01*
X103975000Y-128600000D02*
X106070000Y-128600000D01*
X111000000Y-123410000D02*
X111000000Y-122790000D01*
X103667500Y-129520000D02*
X103667500Y-128907500D01*
X110970000Y-123440000D02*
X111000000Y-123410000D01*
X105280000Y-129520000D02*
X103667500Y-129520000D01*
%TO.N,/BM1370/VDD2_0*%
X112017500Y-113042500D02*
X112017500Y-111452500D01*
X112017500Y-111452500D02*
X112045000Y-111425000D01*
X112045000Y-110390000D02*
X112030000Y-110375000D01*
X112045000Y-111425000D02*
X112045000Y-110390000D01*
%TO.N,/BM1370/VDD1_0*%
X110892500Y-112667500D02*
X110892500Y-110552500D01*
X111070000Y-110375000D02*
X111070000Y-109125000D01*
X111070000Y-109125000D02*
X110825000Y-108880000D01*
X110645000Y-109060000D02*
X110825000Y-108880000D01*
X110892500Y-110552500D02*
X111070000Y-110375000D01*
%TO.N,/BM1370/VDD1_1*%
X100305000Y-110375000D02*
X100305000Y-109200000D01*
X100540000Y-112125000D02*
X100611000Y-112054000D01*
X100305000Y-110375000D02*
X100305000Y-111890000D01*
X100305000Y-109200000D02*
X100625000Y-108880000D01*
X100305000Y-111890000D02*
X100540000Y-112125000D01*
%TO.N,/BM1370/VDD2_1*%
X99230000Y-112220000D02*
X99360000Y-112350000D01*
X99300000Y-110420000D02*
X99300000Y-111280000D01*
X99300000Y-111280000D02*
X99230000Y-111350000D01*
X99345000Y-110375000D02*
X99300000Y-110420000D01*
X99230000Y-111350000D02*
X99230000Y-112220000D01*
%TO.N,/BM1370/VDD3_1*%
X98255000Y-111365000D02*
X98270000Y-111350000D01*
X98255000Y-112350000D02*
X98255000Y-111365000D01*
X98767500Y-113657500D02*
X98255000Y-113145000D01*
X98255000Y-113145000D02*
X98255000Y-112350000D01*
%TO.N,/BM1370/BI*%
X119420000Y-114790000D02*
X120230000Y-113980000D01*
X120230000Y-113980000D02*
X122860000Y-113980000D01*
D50*
%TO.N,/BM1370/RST_N*%
X117300000Y-97799298D02*
X115944298Y-99155000D01*
X115944298Y-99155000D02*
X115427500Y-99155000D01*
X114910702Y-99155000D02*
X115427500Y-99155000D01*
X113831200Y-100234502D02*
X114910702Y-99155000D01*
X117300000Y-95750000D02*
X117300000Y-97799298D01*
X114380000Y-106220000D02*
X113831200Y-105671200D01*
X113831200Y-105671200D02*
X113831200Y-100234502D01*
%TO.N,/BM1370/CI*%
X114132800Y-100582902D02*
X114910702Y-99805000D01*
X118150000Y-106900000D02*
X119450000Y-105600000D01*
X114132800Y-104647510D02*
X114132800Y-100582902D01*
X115000536Y-106306571D02*
X115593965Y-106900000D01*
X115000536Y-105929128D02*
X115000536Y-106306571D01*
X115000536Y-105929128D02*
X115000536Y-105515246D01*
X115593965Y-106900000D02*
X118150000Y-106900000D01*
X115000536Y-105515246D02*
X114132800Y-104647510D01*
X114910702Y-99805000D02*
X115427500Y-99805000D01*
X115000536Y-105929128D02*
X115000536Y-105515247D01*
D52*
%TO.N,/BM1370/RO*%
X114872518Y-100455000D02*
X115427500Y-100455000D01*
X115575000Y-105275000D02*
X114461400Y-104161400D01*
X114461400Y-100866118D02*
X114872518Y-100455000D01*
D50*
X118410000Y-108280000D02*
X118320000Y-108370000D01*
D52*
X115575000Y-105625000D02*
X115575000Y-105275000D01*
X115383100Y-100499400D02*
X115427500Y-100455000D01*
X114461400Y-104161400D02*
X114461400Y-100866118D01*
D50*
X119550000Y-108280000D02*
X118410000Y-108280000D01*
D52*
%TO.N,/BM1370/CLKI*%
X118740000Y-113660000D02*
X118760000Y-113680000D01*
X113790000Y-123140000D02*
X113790000Y-124060000D01*
X114230000Y-122700000D02*
X113790000Y-123140000D01*
X118760000Y-113680000D02*
X118760000Y-121550000D01*
X117610000Y-122700000D02*
X114230000Y-122700000D01*
X118760000Y-121550000D02*
X117610000Y-122700000D01*
X113790000Y-124060000D02*
X113780000Y-124070000D01*
%TO.N,/BM1370/NRSTO*%
X92480000Y-112210000D02*
X92060000Y-112630000D01*
X92060000Y-112630000D02*
X87325600Y-112630000D01*
X87325600Y-112630000D02*
X87025800Y-112929800D01*
%TO.N,/BM1370/CO*%
X92480000Y-113611428D02*
X91571428Y-114520000D01*
X91571428Y-114520000D02*
X89900000Y-114520000D01*
%TO.N,/BM1370/RI*%
X87481400Y-115900000D02*
X87127400Y-115546000D01*
X91592856Y-115900000D02*
X87481400Y-115900000D01*
X92480000Y-115012856D02*
X91592856Y-115900000D01*
%TO.N,/BM1370/CLKO*%
X91684284Y-117210000D02*
X89860000Y-117210000D01*
X92480000Y-116414284D02*
X91684284Y-117210000D01*
%TO.N,/BM1370/BO*%
X87430000Y-118700000D02*
X87110000Y-118380000D01*
X92304288Y-117815712D02*
X91420000Y-118700000D01*
X92560000Y-117895712D02*
X92480000Y-117815712D01*
X92480000Y-117815712D02*
X92304288Y-117815712D01*
X91420000Y-118700000D02*
X87430000Y-118700000D01*
%TO.N,/BM1370/PIN_MODE*%
X91400000Y-120430000D02*
X89910000Y-120430000D01*
X89910000Y-120430000D02*
X89860000Y-120480000D01*
%TO.N,/Fan/FAN_TACH*%
X95210000Y-136030000D02*
X95170000Y-136070000D01*
X93570000Y-137670000D02*
X93570000Y-140270000D01*
X95210000Y-135170000D02*
X95210000Y-136030000D01*
X93570000Y-140270000D02*
X94701000Y-141401000D01*
X95170000Y-136070000D02*
X93570000Y-137670000D01*
X93570000Y-134470000D02*
X93570000Y-132140000D01*
X94701000Y-141401000D02*
X94701000Y-143622000D01*
X94270000Y-135170000D02*
X95210000Y-135170000D01*
X93570000Y-134470000D02*
X94270000Y-135170000D01*
%TD*%
%TA.AperFunction,Conductor*%
%TO.N,/3V3*%
G36*
X116122098Y-60569891D02*
G01*
X116168042Y-60622531D01*
X116179431Y-60675009D01*
X116170559Y-62627001D01*
X116150570Y-62693950D01*
X116097558Y-62739464D01*
X116047000Y-62750436D01*
X113476148Y-62759552D01*
X113409039Y-62740105D01*
X113363097Y-62687464D01*
X113351720Y-62633862D01*
X113378338Y-60681872D01*
X113398934Y-60615107D01*
X113452357Y-60570077D01*
X113501879Y-60559564D01*
X116054990Y-60550446D01*
X116122098Y-60569891D01*
G37*
%TD.AperFunction*%
%TD*%
%TA.AperFunction,Conductor*%
%TO.N,/5V*%
G36*
X96642275Y-65419973D02*
G01*
X96688293Y-65472547D01*
X96699758Y-65524862D01*
X96680653Y-75382225D01*
X96660838Y-75449227D01*
X96609059Y-75494367D01*
X96560199Y-75517151D01*
X96482150Y-75595200D01*
X96463729Y-75634705D01*
X96417556Y-75687144D01*
X96350363Y-75706296D01*
X96327156Y-75703917D01*
X96254677Y-75689500D01*
X96254674Y-75689500D01*
X94323436Y-75689500D01*
X94256397Y-75669815D01*
X94210642Y-75617011D01*
X94199437Y-75565940D01*
X94199274Y-75520042D01*
X94200334Y-75503415D01*
X94201526Y-75494367D01*
X94205500Y-75464179D01*
X94205499Y-74715822D01*
X94203160Y-74698050D01*
X94202100Y-74681871D01*
X94202100Y-73365457D01*
X94202099Y-73365453D01*
X94195675Y-73341478D01*
X94191450Y-73309827D01*
X94190000Y-72900000D01*
X93750000Y-72350000D01*
X92097043Y-72350000D01*
X92030004Y-72330315D01*
X92009362Y-72313681D01*
X91736319Y-72040637D01*
X91702834Y-71979314D01*
X91700000Y-71952956D01*
X91700000Y-65548381D01*
X91719685Y-65481342D01*
X91772489Y-65435587D01*
X91823379Y-65424383D01*
X96575139Y-65400624D01*
X96642275Y-65419973D01*
G37*
%TD.AperFunction*%
%TD*%
%TA.AperFunction,Conductor*%
%TO.N,GND*%
G36*
X101992453Y-59690007D02*
G01*
X102038504Y-59742554D01*
X102050000Y-59794697D01*
X102050000Y-73850000D01*
X102850000Y-74600000D01*
X112398638Y-74600000D01*
X112465677Y-74619685D01*
X112486319Y-74636319D01*
X114156181Y-76306181D01*
X114189666Y-76367504D01*
X114192500Y-76393862D01*
X114192500Y-91982272D01*
X114172815Y-92049311D01*
X114156181Y-92069953D01*
X113987453Y-92238681D01*
X113926130Y-92272166D01*
X113899772Y-92275000D01*
X112141993Y-92275000D01*
X112074954Y-92255315D01*
X112045570Y-92228965D01*
X111986637Y-92156080D01*
X111986632Y-92156074D01*
X111986623Y-92156063D01*
X111958288Y-92126279D01*
X111928166Y-92099334D01*
X111917646Y-92090423D01*
X111829196Y-92044435D01*
X111829193Y-92044434D01*
X111829191Y-92044433D01*
X111761034Y-92024603D01*
X111761021Y-92024600D01*
X111689024Y-92014431D01*
X111689016Y-92014431D01*
X110029278Y-92018556D01*
X109962190Y-91999038D01*
X109916304Y-91946348D01*
X109905988Y-91902917D01*
X109905592Y-91902964D01*
X109905200Y-91899599D01*
X109905049Y-91898966D01*
X109905016Y-91898023D01*
X109889069Y-91817852D01*
X109864258Y-91751332D01*
X109829406Y-91687506D01*
X109829399Y-91687497D01*
X109828664Y-91686352D01*
X109827433Y-91683892D01*
X109827283Y-91683618D01*
X109827292Y-91683612D01*
X109816795Y-91662640D01*
X109802817Y-91625160D01*
X109795000Y-91581830D01*
X109795000Y-90238162D01*
X109802816Y-90194835D01*
X109816656Y-90157726D01*
X109832268Y-90128526D01*
X109834740Y-90125098D01*
X109834745Y-90125091D01*
X109839875Y-90117702D01*
X109875149Y-90043972D01*
X109895151Y-89975851D01*
X109905500Y-89903869D01*
X109905500Y-88639413D01*
X109905337Y-88630299D01*
X109905016Y-88621306D01*
X109889066Y-88541122D01*
X109864253Y-88474604D01*
X109854797Y-88457289D01*
X109847444Y-88441188D01*
X109822818Y-88375161D01*
X109815000Y-88331829D01*
X109815000Y-86988164D01*
X109822817Y-86944833D01*
X109845876Y-86883007D01*
X109850187Y-86872856D01*
X109875149Y-86820688D01*
X109895151Y-86752567D01*
X109905500Y-86680585D01*
X109905500Y-85379413D01*
X109905337Y-85370299D01*
X109905016Y-85361306D01*
X109889066Y-85281122D01*
X109864253Y-85214604D01*
X109854794Y-85197282D01*
X109847443Y-85181186D01*
X109829247Y-85132399D01*
X109829245Y-85132396D01*
X109822815Y-85115158D01*
X109815000Y-85071831D01*
X109815000Y-83728164D01*
X109822817Y-83684833D01*
X109845876Y-83623007D01*
X109850187Y-83612856D01*
X109875149Y-83560688D01*
X109895151Y-83492567D01*
X109905500Y-83420585D01*
X109905500Y-82099413D01*
X109905337Y-82090299D01*
X109905016Y-82081306D01*
X109889066Y-82001122D01*
X109864253Y-81934604D01*
X109854797Y-81917289D01*
X109847444Y-81901188D01*
X109822818Y-81835161D01*
X109815000Y-81791829D01*
X109815000Y-80448164D01*
X109822817Y-80404833D01*
X109845876Y-80343007D01*
X109850187Y-80332856D01*
X109875149Y-80280688D01*
X109895151Y-80212567D01*
X109905500Y-80140585D01*
X109905500Y-79576000D01*
X109899661Y-79521691D01*
X109888275Y-79469349D01*
X109881039Y-79442972D01*
X109881039Y-79442971D01*
X109831708Y-79356341D01*
X109831705Y-79356337D01*
X109785225Y-79302695D01*
X109785221Y-79302692D01*
X109785215Y-79302685D01*
X109752439Y-79271059D01*
X109752437Y-79271057D01*
X109664105Y-79224852D01*
X109664098Y-79224849D01*
X109595990Y-79204851D01*
X109595974Y-79204847D01*
X109524000Y-79194500D01*
X100476000Y-79194500D01*
X100462757Y-79195923D01*
X100421691Y-79200338D01*
X100369362Y-79211722D01*
X100369355Y-79211723D01*
X100369349Y-79211725D01*
X100369343Y-79211726D01*
X100369317Y-79211733D01*
X100342975Y-79218959D01*
X100342971Y-79218960D01*
X100256341Y-79268291D01*
X100256337Y-79268294D01*
X100202695Y-79314774D01*
X100202692Y-79314778D01*
X100171058Y-79347561D01*
X100151831Y-79384317D01*
X100103314Y-79434595D01*
X100042296Y-79450839D01*
X96718891Y-79459921D01*
X96664048Y-79447300D01*
X96289495Y-79264008D01*
X96237932Y-79216859D01*
X96220000Y-79152629D01*
X96220000Y-76083210D01*
X96239685Y-76016171D01*
X96292489Y-75970416D01*
X96333131Y-75959687D01*
X96420399Y-75952010D01*
X96487592Y-75932858D01*
X96530104Y-75916520D01*
X96609315Y-75855989D01*
X96655488Y-75803550D01*
X96683975Y-75759986D01*
X96720139Y-75723911D01*
X96776956Y-75686957D01*
X96828735Y-75641817D01*
X96859469Y-75609931D01*
X96905848Y-75521686D01*
X96925663Y-75454684D01*
X96936153Y-75382720D01*
X96955258Y-65525357D01*
X96949335Y-65470166D01*
X96937870Y-65417851D01*
X96930311Y-65390649D01*
X96880548Y-65304266D01*
X96834530Y-65251692D01*
X96834516Y-65251677D01*
X96801599Y-65220233D01*
X96801594Y-65220229D01*
X96760347Y-65198915D01*
X96709826Y-65150652D01*
X96693272Y-65088601D01*
X96699846Y-59823151D01*
X96719614Y-59756137D01*
X96772475Y-59710448D01*
X96823148Y-59699309D01*
X101925305Y-59670699D01*
X101992453Y-59690007D01*
G37*
%TD.AperFunction*%
%TD*%
%TA.AperFunction,Conductor*%
%TO.N,GND*%
G36*
X117075581Y-108885463D02*
G01*
X117096367Y-108902211D01*
X118021366Y-109828572D01*
X118054806Y-109889920D01*
X118057619Y-109916465D01*
X118050640Y-113000500D01*
X118032379Y-121068695D01*
X118012542Y-121135689D01*
X117995926Y-121156229D01*
X117066336Y-122082983D01*
X117004962Y-122116374D01*
X116978691Y-122119168D01*
X112825776Y-122115883D01*
X112758752Y-122096145D01*
X112731584Y-122072415D01*
X112695358Y-122030000D01*
X110444643Y-122030000D01*
X110410112Y-122070430D01*
X110351604Y-122108623D01*
X110315724Y-122113898D01*
X101316358Y-122106781D01*
X101249334Y-122087043D01*
X101222165Y-122063312D01*
X101210796Y-122050000D01*
X100193558Y-122050000D01*
X100180434Y-122057166D01*
X100154076Y-122060000D01*
X98970080Y-122060000D01*
X98968899Y-122061383D01*
X98910391Y-122099575D01*
X98874512Y-122104850D01*
X94758540Y-122101595D01*
X94691516Y-122081857D01*
X94670957Y-122065276D01*
X94265681Y-121660000D01*
X98970080Y-121660000D01*
X99325438Y-121660000D01*
X99325438Y-121330000D01*
X99725438Y-121330000D01*
X99725438Y-121660000D01*
X99987318Y-121660000D01*
X100000442Y-121652834D01*
X100026800Y-121650000D01*
X100455438Y-121650000D01*
X100855438Y-121650000D01*
X101210795Y-121650000D01*
X101210794Y-121649999D01*
X101207627Y-121630000D01*
X110444642Y-121630000D01*
X110800000Y-121630000D01*
X111200000Y-121630000D01*
X111940000Y-121630000D01*
X112340000Y-121630000D01*
X112695357Y-121630000D01*
X112695356Y-121629999D01*
X112685534Y-121567982D01*
X112629447Y-121457906D01*
X112629444Y-121457901D01*
X112542098Y-121370555D01*
X112542093Y-121370551D01*
X112432015Y-121314463D01*
X112340691Y-121300000D01*
X112340000Y-121300000D01*
X112340000Y-121630000D01*
X111940000Y-121630000D01*
X111940000Y-121300000D01*
X111939310Y-121300001D01*
X111847982Y-121314465D01*
X111737906Y-121370552D01*
X111737901Y-121370555D01*
X111657681Y-121450776D01*
X111596358Y-121484261D01*
X111526666Y-121479277D01*
X111482319Y-121450776D01*
X111402098Y-121370555D01*
X111402093Y-121370551D01*
X111292015Y-121314463D01*
X111200691Y-121300000D01*
X111200000Y-121300000D01*
X111200000Y-121630000D01*
X110800000Y-121630000D01*
X110800000Y-121300000D01*
X110799310Y-121300001D01*
X110707982Y-121314465D01*
X110597906Y-121370552D01*
X110597901Y-121370555D01*
X110510555Y-121457901D01*
X110510551Y-121457906D01*
X110454463Y-121567983D01*
X110444642Y-121630000D01*
X101207627Y-121630000D01*
X101200972Y-121587982D01*
X101144885Y-121477906D01*
X101144882Y-121477901D01*
X101057536Y-121390555D01*
X101057531Y-121390551D01*
X100947453Y-121334463D01*
X100856129Y-121320000D01*
X100855438Y-121320000D01*
X100855438Y-121650000D01*
X100455438Y-121650000D01*
X100455438Y-121320000D01*
X100454748Y-121320001D01*
X100363420Y-121334465D01*
X100253344Y-121390552D01*
X100253339Y-121390555D01*
X100173119Y-121470776D01*
X100111796Y-121504261D01*
X100042104Y-121499277D01*
X99997757Y-121470776D01*
X99927536Y-121400555D01*
X99927531Y-121400551D01*
X99817453Y-121344463D01*
X99726129Y-121330000D01*
X99725438Y-121330000D01*
X99325438Y-121330000D01*
X99324748Y-121330001D01*
X99233420Y-121344465D01*
X99123344Y-121400552D01*
X99123339Y-121400555D01*
X99035993Y-121487901D01*
X99035989Y-121487906D01*
X98979901Y-121597983D01*
X98970080Y-121660000D01*
X94265681Y-121660000D01*
X94009971Y-121404290D01*
X93326819Y-120721137D01*
X93293334Y-120659814D01*
X93290500Y-120633456D01*
X93290500Y-120336035D01*
X93310185Y-120268996D01*
X93320782Y-120254837D01*
X93365377Y-120203373D01*
X93425165Y-120072457D01*
X93445647Y-119930000D01*
X93425165Y-119787543D01*
X93365377Y-119656627D01*
X93271128Y-119547857D01*
X93150053Y-119470047D01*
X93150051Y-119470046D01*
X93150049Y-119470045D01*
X93150050Y-119470045D01*
X93011963Y-119429500D01*
X93011961Y-119429500D01*
X92874574Y-119429500D01*
X92807535Y-119409815D01*
X92761780Y-119357011D01*
X92750575Y-119305031D01*
X92754371Y-118301568D01*
X92774309Y-118234606D01*
X92804860Y-118204172D01*
X92804422Y-118203666D01*
X92811125Y-118197857D01*
X92811125Y-118197856D01*
X92811128Y-118197855D01*
X92905377Y-118089085D01*
X92965165Y-117958169D01*
X92985647Y-117815712D01*
X92965165Y-117673255D01*
X92905377Y-117542339D01*
X92811128Y-117433569D01*
X92811125Y-117433567D01*
X92804423Y-117427759D01*
X92806117Y-117425803D01*
X92769249Y-117383259D01*
X92758042Y-117331278D01*
X92759687Y-116896723D01*
X92779624Y-116829762D01*
X92805737Y-116803754D01*
X92804423Y-116802237D01*
X92811120Y-116796431D01*
X92811128Y-116796427D01*
X92905377Y-116687657D01*
X92965165Y-116556741D01*
X92985647Y-116414284D01*
X92965165Y-116271827D01*
X92905377Y-116140911D01*
X92905375Y-116140909D01*
X92905374Y-116140906D01*
X92811133Y-116032146D01*
X92811130Y-116032143D01*
X92811128Y-116032141D01*
X92811125Y-116032139D01*
X92806128Y-116027809D01*
X92768353Y-115969031D01*
X92763330Y-115933631D01*
X92765005Y-115491120D01*
X92784942Y-115424160D01*
X92807806Y-115397876D01*
X92811118Y-115395005D01*
X92811128Y-115394999D01*
X92905377Y-115286229D01*
X92965165Y-115155313D01*
X92985647Y-115012856D01*
X92965165Y-114870399D01*
X92905377Y-114739483D01*
X92905375Y-114739481D01*
X92905374Y-114739478D01*
X92805321Y-114624010D01*
X92806364Y-114623105D01*
X92773637Y-114572179D01*
X92768615Y-114536782D01*
X92770324Y-114085083D01*
X92790262Y-114018122D01*
X92805587Y-114000505D01*
X92805320Y-114000273D01*
X92811126Y-113993572D01*
X92811128Y-113993571D01*
X92905377Y-113884801D01*
X92965165Y-113753885D01*
X92985647Y-113611428D01*
X92965165Y-113468971D01*
X92905377Y-113338055D01*
X92905375Y-113338053D01*
X92905374Y-113338050D01*
X92805321Y-113222582D01*
X92807871Y-113220372D01*
X92778927Y-113175352D01*
X92773900Y-113139940D01*
X92775645Y-112678869D01*
X92795582Y-112611909D01*
X92805930Y-112598140D01*
X92811124Y-112592145D01*
X92811128Y-112592143D01*
X92847048Y-112550689D01*
X96765001Y-112550689D01*
X96779465Y-112642017D01*
X96835552Y-112752093D01*
X96835555Y-112752098D01*
X96922901Y-112839444D01*
X96922906Y-112839447D01*
X97032982Y-112895534D01*
X97094999Y-112905356D01*
X97095000Y-112905356D01*
X97095000Y-112550000D01*
X96765001Y-112550000D01*
X96765001Y-112550689D01*
X92847048Y-112550689D01*
X92905377Y-112483373D01*
X92965165Y-112352457D01*
X92985647Y-112210000D01*
X92976921Y-112149308D01*
X96765000Y-112149308D01*
X96765000Y-112150000D01*
X97095000Y-112150000D01*
X97095000Y-111794641D01*
X97032983Y-111804463D01*
X96922906Y-111860551D01*
X96922901Y-111860555D01*
X96835555Y-111947901D01*
X96835551Y-111947906D01*
X96779463Y-112057984D01*
X96765000Y-112149308D01*
X92976921Y-112149308D01*
X92965165Y-112067543D01*
X92905377Y-111936627D01*
X92905375Y-111936625D01*
X92905374Y-111936622D01*
X92809467Y-111825939D01*
X92780442Y-111762383D01*
X92779181Y-111744268D01*
X92779568Y-111642172D01*
X92786022Y-109936187D01*
X92805960Y-109869224D01*
X92822471Y-109848846D01*
X92856920Y-109814500D01*
X93753745Y-108920355D01*
X93815117Y-108886962D01*
X93841191Y-108884168D01*
X99839317Y-108879421D01*
X99906369Y-108899052D01*
X99952166Y-108951819D01*
X99962164Y-109020970D01*
X99956213Y-109038192D01*
X99957451Y-109038524D01*
X99953225Y-109054294D01*
X99927500Y-109150301D01*
X99927500Y-109795887D01*
X99907815Y-109862926D01*
X99855011Y-109908681D01*
X99785853Y-109918625D01*
X99722297Y-109889600D01*
X99717926Y-109885530D01*
X99717394Y-109885144D01*
X99717391Y-109885141D01*
X99607175Y-109828983D01*
X99607174Y-109828982D01*
X99607171Y-109828981D01*
X99515735Y-109814500D01*
X99174260Y-109814500D01*
X99174260Y-109814501D01*
X99082829Y-109828981D01*
X99082828Y-109828981D01*
X98972607Y-109885142D01*
X98972603Y-109885145D01*
X98885145Y-109972603D01*
X98885142Y-109972608D01*
X98828981Y-110082827D01*
X98828981Y-110082828D01*
X98814500Y-110174264D01*
X98814500Y-110575739D01*
X98828981Y-110667170D01*
X98828982Y-110667173D01*
X98828983Y-110667175D01*
X98836632Y-110682187D01*
X98862878Y-110733699D01*
X98875774Y-110802369D01*
X98849497Y-110867109D01*
X98840093Y-110877656D01*
X98837700Y-110880050D01*
X98776383Y-110913548D01*
X98706691Y-110908578D01*
X98662319Y-110880068D01*
X98642396Y-110860145D01*
X98642393Y-110860143D01*
X98642391Y-110860141D01*
X98532175Y-110803983D01*
X98532174Y-110803982D01*
X98532171Y-110803981D01*
X98440735Y-110789500D01*
X98099260Y-110789500D01*
X98099260Y-110789501D01*
X98007829Y-110803981D01*
X98007828Y-110803981D01*
X97897607Y-110860142D01*
X97897603Y-110860145D01*
X97810145Y-110947603D01*
X97810142Y-110947608D01*
X97753981Y-111057827D01*
X97753981Y-111057828D01*
X97739500Y-111149264D01*
X97739500Y-111550739D01*
X97753981Y-111642170D01*
X97753982Y-111642172D01*
X97753982Y-111642173D01*
X97753983Y-111642175D01*
X97761479Y-111656886D01*
X97774374Y-111725555D01*
X97748096Y-111790295D01*
X97690989Y-111830551D01*
X97621184Y-111833543D01*
X97594698Y-111823664D01*
X97557015Y-111804463D01*
X97557016Y-111804463D01*
X97495000Y-111794641D01*
X97495000Y-112905356D01*
X97557017Y-112895534D01*
X97667093Y-112839447D01*
X97674992Y-112833710D01*
X97676035Y-112835146D01*
X97727131Y-112807240D01*
X97796823Y-112812218D01*
X97852761Y-112854085D01*
X97877183Y-112919547D01*
X97877500Y-112928404D01*
X97877500Y-113095301D01*
X97877500Y-113194699D01*
X97903226Y-113290710D01*
X97952925Y-113376790D01*
X98082675Y-113506541D01*
X98116160Y-113567863D01*
X98118090Y-113609166D01*
X98112222Y-113657499D01*
X98112222Y-113657500D01*
X98131262Y-113814318D01*
X98187280Y-113962023D01*
X98277017Y-114092030D01*
X98395260Y-114196783D01*
X98395262Y-114196784D01*
X98535134Y-114270196D01*
X98688514Y-114308000D01*
X98688515Y-114308000D01*
X98846485Y-114308000D01*
X98999865Y-114270196D01*
X99139740Y-114196783D01*
X99257983Y-114092030D01*
X99347720Y-113962023D01*
X99403737Y-113814318D01*
X99422778Y-113657500D01*
X99413585Y-113581784D01*
X99403737Y-113500681D01*
X99382492Y-113444664D01*
X99347720Y-113352977D01*
X99257983Y-113222970D01*
X99251601Y-113217316D01*
X99214474Y-113158128D01*
X99215240Y-113088263D01*
X99253657Y-113029902D01*
X99317527Y-113001576D01*
X99333827Y-113000500D01*
X99438985Y-113000500D01*
X99592365Y-112962696D01*
X99732240Y-112889283D01*
X99850483Y-112784530D01*
X99940220Y-112654523D01*
X99940220Y-112654520D01*
X99942872Y-112650680D01*
X99997154Y-112606690D01*
X100066603Y-112599030D01*
X100127148Y-112628304D01*
X100142627Y-112642017D01*
X100167759Y-112664282D01*
X100167761Y-112664284D01*
X100307634Y-112737696D01*
X100461014Y-112775500D01*
X100461015Y-112775500D01*
X100618985Y-112775500D01*
X100772365Y-112737696D01*
X100844222Y-112699982D01*
X100912240Y-112664283D01*
X101030483Y-112559530D01*
X101120220Y-112429523D01*
X101176237Y-112281818D01*
X101195278Y-112125000D01*
X101185128Y-112041402D01*
X101176237Y-111968181D01*
X101137648Y-111866431D01*
X101120220Y-111820477D01*
X101030483Y-111690470D01*
X100912240Y-111585717D01*
X100912238Y-111585716D01*
X100912237Y-111585715D01*
X100772365Y-111512303D01*
X100765350Y-111509643D01*
X100766256Y-111507251D01*
X100716439Y-111478241D01*
X100684654Y-111416019D01*
X100682500Y-111393006D01*
X100682500Y-110911112D01*
X100702185Y-110844073D01*
X100718820Y-110823430D01*
X100764855Y-110777395D01*
X100764859Y-110777391D01*
X100821017Y-110667175D01*
X100821017Y-110667173D01*
X100821018Y-110667172D01*
X100821018Y-110667171D01*
X100824901Y-110642650D01*
X100835500Y-110575735D01*
X100835499Y-110347844D01*
X103175000Y-110347844D01*
X103181401Y-110407372D01*
X103181403Y-110407379D01*
X103231645Y-110542086D01*
X103231649Y-110542093D01*
X103317809Y-110657187D01*
X103317812Y-110657190D01*
X103432906Y-110743350D01*
X103432913Y-110743354D01*
X103567620Y-110793596D01*
X103567627Y-110793598D01*
X103627155Y-110799999D01*
X103627172Y-110800000D01*
X104125000Y-110800000D01*
X104525000Y-110800000D01*
X105022828Y-110800000D01*
X105022844Y-110799999D01*
X105082372Y-110793598D01*
X105082379Y-110793596D01*
X105217086Y-110743354D01*
X105217093Y-110743350D01*
X105332187Y-110657190D01*
X105332190Y-110657187D01*
X105418350Y-110542093D01*
X105418354Y-110542086D01*
X105468596Y-110407379D01*
X105468598Y-110407372D01*
X105472311Y-110372844D01*
X105725000Y-110372844D01*
X105731401Y-110432372D01*
X105731403Y-110432379D01*
X105781645Y-110567086D01*
X105781649Y-110567093D01*
X105867809Y-110682187D01*
X105867812Y-110682190D01*
X105982906Y-110768350D01*
X105982913Y-110768354D01*
X106117620Y-110818596D01*
X106117627Y-110818598D01*
X106177155Y-110824999D01*
X106177172Y-110825000D01*
X106675000Y-110825000D01*
X107075000Y-110825000D01*
X107572828Y-110825000D01*
X107572844Y-110824999D01*
X107632372Y-110818598D01*
X107632379Y-110818596D01*
X107767086Y-110768354D01*
X107767093Y-110768350D01*
X107882187Y-110682190D01*
X107882190Y-110682187D01*
X107968350Y-110567093D01*
X107968354Y-110567086D01*
X108018596Y-110432379D01*
X108018598Y-110432372D01*
X108024999Y-110372844D01*
X108025000Y-110372827D01*
X108025000Y-110200000D01*
X107075000Y-110200000D01*
X107075000Y-110825000D01*
X106675000Y-110825000D01*
X106675000Y-110200000D01*
X105725000Y-110200000D01*
X105725000Y-110372844D01*
X105472311Y-110372844D01*
X105474999Y-110347844D01*
X105475000Y-110347827D01*
X105475000Y-110175000D01*
X104525000Y-110175000D01*
X104525000Y-110800000D01*
X104125000Y-110800000D01*
X104125000Y-110175000D01*
X103175000Y-110175000D01*
X103175000Y-110347844D01*
X100835499Y-110347844D01*
X100835499Y-110174266D01*
X100835499Y-110174264D01*
X100835499Y-110174260D01*
X100821018Y-110082829D01*
X100821018Y-110082828D01*
X100821017Y-110082826D01*
X100821017Y-110082825D01*
X100764859Y-109972609D01*
X100764857Y-109972607D01*
X100764854Y-109972603D01*
X100718819Y-109926568D01*
X100685334Y-109865245D01*
X100682500Y-109838887D01*
X100682500Y-109602155D01*
X103175000Y-109602155D01*
X103175000Y-109775000D01*
X104125000Y-109775000D01*
X104525000Y-109775000D01*
X105475000Y-109775000D01*
X105475000Y-109627155D01*
X105725000Y-109627155D01*
X105725000Y-109800000D01*
X106675000Y-109800000D01*
X107075000Y-109800000D01*
X108025000Y-109800000D01*
X108025000Y-109627172D01*
X108024999Y-109627155D01*
X108018598Y-109567627D01*
X108018596Y-109567620D01*
X107968354Y-109432913D01*
X107968350Y-109432906D01*
X107882190Y-109317812D01*
X107882187Y-109317809D01*
X107767093Y-109231649D01*
X107767086Y-109231645D01*
X107632379Y-109181403D01*
X107632372Y-109181401D01*
X107572844Y-109175000D01*
X107075000Y-109175000D01*
X107075000Y-109800000D01*
X106675000Y-109800000D01*
X106675000Y-109175000D01*
X106177155Y-109175000D01*
X106117627Y-109181401D01*
X106117620Y-109181403D01*
X105982913Y-109231645D01*
X105982906Y-109231649D01*
X105867812Y-109317809D01*
X105867809Y-109317812D01*
X105781649Y-109432906D01*
X105781645Y-109432913D01*
X105731403Y-109567620D01*
X105731401Y-109567627D01*
X105725000Y-109627155D01*
X105475000Y-109627155D01*
X105475000Y-109602172D01*
X105474999Y-109602155D01*
X105468598Y-109542627D01*
X105468596Y-109542620D01*
X105418354Y-109407913D01*
X105418350Y-109407906D01*
X105332190Y-109292812D01*
X105332187Y-109292809D01*
X105217093Y-109206649D01*
X105217086Y-109206645D01*
X105082379Y-109156403D01*
X105082372Y-109156401D01*
X105022844Y-109150000D01*
X104525000Y-109150000D01*
X104525000Y-109775000D01*
X104125000Y-109775000D01*
X104125000Y-109150000D01*
X103627155Y-109150000D01*
X103567627Y-109156401D01*
X103567620Y-109156403D01*
X103432913Y-109206645D01*
X103432906Y-109206649D01*
X103317812Y-109292809D01*
X103317809Y-109292812D01*
X103231649Y-109407906D01*
X103231645Y-109407913D01*
X103181403Y-109542620D01*
X103181401Y-109542627D01*
X103175000Y-109602155D01*
X100682500Y-109602155D01*
X100682500Y-109534499D01*
X100702185Y-109467460D01*
X100754989Y-109421705D01*
X100806500Y-109410499D01*
X100825739Y-109410499D01*
X100825739Y-109410498D01*
X100871454Y-109403258D01*
X100917170Y-109396018D01*
X100917171Y-109396018D01*
X100917172Y-109396017D01*
X100917175Y-109396017D01*
X101027391Y-109339859D01*
X101114859Y-109252391D01*
X101171017Y-109142175D01*
X101171017Y-109142173D01*
X101171018Y-109142172D01*
X101171018Y-109142171D01*
X101176161Y-109109698D01*
X101185500Y-109050735D01*
X101185499Y-109002255D01*
X101205182Y-108935218D01*
X101257985Y-108889463D01*
X101309394Y-108878257D01*
X105425000Y-108875000D01*
X110140404Y-108871267D01*
X110207457Y-108890899D01*
X110253254Y-108943666D01*
X110264500Y-108995265D01*
X110264500Y-109050732D01*
X110265974Y-109060034D01*
X110267500Y-109079431D01*
X110267500Y-109109699D01*
X110293226Y-109205710D01*
X110342925Y-109291790D01*
X110413210Y-109362075D01*
X110487754Y-109405114D01*
X110497081Y-109410499D01*
X110499290Y-109411774D01*
X110595301Y-109437500D01*
X110595305Y-109437500D01*
X110600593Y-109438917D01*
X110660253Y-109475282D01*
X110690783Y-109538128D01*
X110692500Y-109558692D01*
X110692500Y-109838887D01*
X110672815Y-109905926D01*
X110656181Y-109926568D01*
X110610145Y-109972603D01*
X110610142Y-109972608D01*
X110553981Y-110082827D01*
X110553981Y-110082828D01*
X110539500Y-110174264D01*
X110539500Y-110395041D01*
X110535274Y-110427137D01*
X110531907Y-110439698D01*
X110531908Y-110439699D01*
X110515000Y-110502801D01*
X110515000Y-112077068D01*
X110495315Y-112144107D01*
X110473227Y-112169883D01*
X110402018Y-112232968D01*
X110312281Y-112362975D01*
X110312280Y-112362976D01*
X110256262Y-112510681D01*
X110237222Y-112667499D01*
X110237222Y-112667500D01*
X110256262Y-112824318D01*
X110308743Y-112962696D01*
X110312280Y-112972023D01*
X110402017Y-113102030D01*
X110520260Y-113206783D01*
X110520262Y-113206784D01*
X110660134Y-113280196D01*
X110813514Y-113318000D01*
X110813515Y-113318000D01*
X110971485Y-113318000D01*
X111124865Y-113280196D01*
X111240346Y-113219585D01*
X111308854Y-113205860D01*
X111373907Y-113231352D01*
X111413913Y-113285410D01*
X111437280Y-113347023D01*
X111527017Y-113477030D01*
X111645260Y-113581783D01*
X111645262Y-113581784D01*
X111785134Y-113655196D01*
X111938514Y-113693000D01*
X111938515Y-113693000D01*
X112096485Y-113693000D01*
X112249865Y-113655196D01*
X112389737Y-113581785D01*
X112389738Y-113581783D01*
X112389740Y-113581783D01*
X112414275Y-113560047D01*
X112477503Y-113530327D01*
X112546767Y-113539509D01*
X112598550Y-113582423D01*
X112634517Y-113634530D01*
X112752760Y-113739283D01*
X112752762Y-113739284D01*
X112892634Y-113812696D01*
X113046014Y-113850500D01*
X113046015Y-113850500D01*
X113203985Y-113850500D01*
X113357365Y-113812696D01*
X113497240Y-113739283D01*
X113615483Y-113634530D01*
X113705220Y-113504523D01*
X113761237Y-113356818D01*
X113780278Y-113200000D01*
X113775360Y-113159500D01*
X113760333Y-113035736D01*
X113763333Y-113035371D01*
X113765773Y-112979433D01*
X113806072Y-112922356D01*
X113870832Y-112896128D01*
X113902511Y-112897044D01*
X113954999Y-112905356D01*
X113955000Y-112905356D01*
X114355000Y-112905356D01*
X114417017Y-112895534D01*
X114527093Y-112839447D01*
X114527098Y-112839444D01*
X114614444Y-112752098D01*
X114614448Y-112752093D01*
X114670536Y-112642015D01*
X114685000Y-112550691D01*
X114685000Y-112550000D01*
X114355000Y-112550000D01*
X114355000Y-112905356D01*
X113955000Y-112905356D01*
X113955000Y-112150000D01*
X114355000Y-112150000D01*
X114684999Y-112150000D01*
X114684999Y-112149310D01*
X114670534Y-112057982D01*
X114614447Y-111947906D01*
X114614444Y-111947901D01*
X114527098Y-111860555D01*
X114527093Y-111860551D01*
X114417015Y-111804463D01*
X114417016Y-111804463D01*
X114355000Y-111794641D01*
X114355000Y-112150000D01*
X113955000Y-112150000D01*
X113955000Y-111794641D01*
X113892983Y-111804463D01*
X113782906Y-111860551D01*
X113775008Y-111866290D01*
X113773965Y-111864854D01*
X113722858Y-111892761D01*
X113653166Y-111887777D01*
X113597233Y-111845905D01*
X113572816Y-111780441D01*
X113572500Y-111771595D01*
X113572500Y-111565303D01*
X113572499Y-111565299D01*
X113572117Y-111563874D01*
X113558352Y-111512500D01*
X113546774Y-111469290D01*
X113546771Y-111469284D01*
X113544936Y-111464852D01*
X113535499Y-111417404D01*
X113535499Y-111224260D01*
X113521018Y-111132829D01*
X113521018Y-111132828D01*
X113521017Y-111132826D01*
X113521017Y-111132825D01*
X113464859Y-111022609D01*
X113464857Y-111022607D01*
X113464854Y-111022603D01*
X113377396Y-110935145D01*
X113377393Y-110935143D01*
X113377391Y-110935141D01*
X113267175Y-110878983D01*
X113267174Y-110878982D01*
X113267171Y-110878981D01*
X113175735Y-110864500D01*
X112834260Y-110864500D01*
X112834260Y-110864501D01*
X112742829Y-110878981D01*
X112742825Y-110878982D01*
X112671277Y-110915438D01*
X112602608Y-110928334D01*
X112537867Y-110902057D01*
X112497611Y-110844950D01*
X112494619Y-110775145D01*
X112504496Y-110748662D01*
X112546017Y-110667175D01*
X112546017Y-110667173D01*
X112546018Y-110667171D01*
X112549901Y-110642650D01*
X112560500Y-110575735D01*
X112560499Y-110174266D01*
X112560499Y-110174264D01*
X112560499Y-110174260D01*
X112546018Y-110082829D01*
X112546018Y-110082828D01*
X112546017Y-110082826D01*
X112546017Y-110082825D01*
X112489859Y-109972609D01*
X112489857Y-109972607D01*
X112489854Y-109972603D01*
X112402396Y-109885145D01*
X112402393Y-109885143D01*
X112402391Y-109885141D01*
X112292175Y-109828983D01*
X112292174Y-109828982D01*
X112292171Y-109828981D01*
X112200735Y-109814500D01*
X111859260Y-109814500D01*
X111859260Y-109814501D01*
X111767829Y-109828981D01*
X111767828Y-109828981D01*
X111657607Y-109885142D01*
X111649710Y-109890880D01*
X111648596Y-109889347D01*
X111597858Y-109917053D01*
X111528166Y-109912069D01*
X111472233Y-109870197D01*
X111447816Y-109804733D01*
X111447500Y-109795887D01*
X111447500Y-109075303D01*
X111447500Y-109075301D01*
X111434354Y-109026240D01*
X111436017Y-108956392D01*
X111475179Y-108898529D01*
X111539408Y-108871025D01*
X111554015Y-108870148D01*
X117008528Y-108865831D01*
X117075581Y-108885463D01*
G37*
%TD.AperFunction*%
%TD*%
%TA.AperFunction,Conductor*%
%TO.N,/5V*%
G36*
X111669847Y-60559883D02*
G01*
X111715776Y-60612535D01*
X111727121Y-60667225D01*
X111682732Y-62629206D01*
X111661536Y-62695783D01*
X111607711Y-62740332D01*
X111559175Y-62750400D01*
X108787257Y-62759578D01*
X108720152Y-62740116D01*
X108674223Y-62687464D01*
X108662878Y-62632774D01*
X108707267Y-60670793D01*
X108728463Y-60604216D01*
X108782288Y-60559667D01*
X108830819Y-60549599D01*
X111602743Y-60540421D01*
X111669847Y-60559883D01*
G37*
%TD.AperFunction*%
%TD*%
%TA.AperFunction,Conductor*%
%TO.N,/VDD*%
G36*
X109592121Y-79470002D02*
G01*
X109638614Y-79523658D01*
X109650000Y-79576000D01*
X109650000Y-80140585D01*
X109629998Y-80208706D01*
X109624869Y-80216093D01*
X109616203Y-80227669D01*
X109565909Y-80362515D01*
X109559500Y-80422121D01*
X109559500Y-81817864D01*
X109559502Y-81817885D01*
X109565908Y-81877479D01*
X109616204Y-82012332D01*
X109620702Y-82018340D01*
X109624866Y-82023902D01*
X109649679Y-82090420D01*
X109650000Y-82099413D01*
X109650000Y-83420585D01*
X109629998Y-83488706D01*
X109624869Y-83496093D01*
X109616203Y-83507669D01*
X109565909Y-83642515D01*
X109559500Y-83702121D01*
X109559500Y-85097864D01*
X109559502Y-85097885D01*
X109565908Y-85157479D01*
X109565908Y-85157481D01*
X109565909Y-85157483D01*
X109594514Y-85234177D01*
X109616204Y-85292332D01*
X109620702Y-85298340D01*
X109624866Y-85303902D01*
X109649679Y-85370420D01*
X109650000Y-85379413D01*
X109650000Y-86680585D01*
X109629998Y-86748706D01*
X109624869Y-86756093D01*
X109616203Y-86767669D01*
X109565909Y-86902515D01*
X109559500Y-86962121D01*
X109559500Y-88357864D01*
X109559502Y-88357885D01*
X109565908Y-88417479D01*
X109616204Y-88552332D01*
X109620702Y-88558340D01*
X109624866Y-88563902D01*
X109649679Y-88630420D01*
X109650000Y-88639413D01*
X109650000Y-89903869D01*
X109629998Y-89971990D01*
X109624868Y-89979379D01*
X109596202Y-90017671D01*
X109545909Y-90152515D01*
X109539500Y-90212121D01*
X109539500Y-91607864D01*
X109539502Y-91607885D01*
X109545908Y-91667480D01*
X109545908Y-91667481D01*
X109596201Y-91802326D01*
X109596203Y-91802329D01*
X109624868Y-91840621D01*
X109649679Y-91907141D01*
X109650000Y-91916130D01*
X109650000Y-92275000D01*
X111689652Y-92269930D01*
X111757822Y-92289763D01*
X111787944Y-92316708D01*
X112272058Y-92915442D01*
X112299335Y-92980990D01*
X112300079Y-92994440D01*
X112324924Y-106957390D01*
X112305043Y-107025546D01*
X112299198Y-107033910D01*
X111487919Y-108100162D01*
X111430753Y-108142263D01*
X111387377Y-108149866D01*
X99758550Y-108125124D01*
X99690472Y-108104977D01*
X99662339Y-108080166D01*
X98679521Y-106910144D01*
X98651022Y-106845119D01*
X98650000Y-106829102D01*
X98650000Y-92269195D01*
X98655716Y-92231675D01*
X100350000Y-86800001D01*
X100350000Y-79576000D01*
X100370002Y-79507879D01*
X100423658Y-79461386D01*
X100476000Y-79450000D01*
X109524000Y-79450000D01*
X109592121Y-79470002D01*
G37*
%TD.AperFunction*%
%TD*%
%TA.AperFunction,Conductor*%
%TO.N,/Power/SW*%
G36*
X96196843Y-79503120D02*
G01*
X96551742Y-79676794D01*
X96606748Y-79696292D01*
X96643702Y-79704796D01*
X96650996Y-79707307D01*
X96651132Y-79706844D01*
X96660233Y-79709495D01*
X96660240Y-79709499D01*
X96705821Y-79715500D01*
X97454178Y-79715499D01*
X97462478Y-79714406D01*
X97478312Y-79713346D01*
X99970164Y-79706537D01*
X100037254Y-79726038D01*
X100083153Y-79778716D01*
X100094500Y-79830536D01*
X100094500Y-86673031D01*
X100074815Y-86740070D01*
X100022011Y-86785825D01*
X99969531Y-86797027D01*
X94073876Y-86750967D01*
X94006993Y-86730760D01*
X93961652Y-86677600D01*
X93950848Y-86626122D01*
X93981494Y-82151806D01*
X94001636Y-82084908D01*
X94017805Y-82064983D01*
X94110470Y-81972319D01*
X94156614Y-81892395D01*
X94180500Y-81803251D01*
X94180500Y-81710963D01*
X94180500Y-80577993D01*
X94192118Y-80525588D01*
X94199499Y-80509760D01*
X94205500Y-80464179D01*
X94205499Y-79715822D01*
X94205456Y-79715499D01*
X94200362Y-79676797D01*
X94199499Y-79670240D01*
X94197944Y-79666905D01*
X94197309Y-79662729D01*
X94196843Y-79661128D01*
X94197057Y-79661065D01*
X94187452Y-79597828D01*
X94215971Y-79534044D01*
X94274448Y-79495804D01*
X94310326Y-79490500D01*
X96142342Y-79490500D01*
X96196843Y-79503120D01*
G37*
%TD.AperFunction*%
%TD*%
D55*
X79729000Y-47522000D02*
X131192000Y-47522000D01*
X133732000Y-144744000D02*
G75*
G02*
X131192000Y-147284000I-2540000J0D01*
G01*
X131192000Y-47522000D02*
G75*
G02*
X133732000Y-50062000I0J-2540000D01*
G01*
X77189000Y-50062000D02*
G75*
G02*
X79729000Y-47522000I2540000J0D01*
G01*
X131192000Y-147284000D02*
X79729000Y-147284000D01*
X133732000Y-50062000D02*
X133732000Y-144744000D01*
X79729000Y-147284000D02*
G75*
G02*
X77189000Y-144744000I0J2540000D01*
G01*
X77189000Y-144744000D02*
X77189000Y-50062000D01*
M02*
