%TF.GenerationSoftware,KiCad,Pcbnew,8.0.7*%
%TF.CreationDate,2025-01-25T17:17:19-05:00*%
%TF.ProjectId,bitaxeGamma,62697461-7865-4476-916d-6d612e6b6963,rev?*%
%TF.SameCoordinates,Original*%
%TF.FileFunction,Soldermask,Top*%
%TF.FilePolarity,Negative*%
%FSLAX46Y46*%
G04 Gerber Fmt 4.6, Leading zero omitted, Abs format (unit mm)*
G04 Created by KiCad (PCBNEW 8.0.7) date 2025-01-25 17:17:19*
%MOMM*%
%LPD*%
G01*
G04 APERTURE LIST*
G04 Aperture macros list*
%AMRoundRect*
0 Rectangle with rounded corners*
0 $1 Rounding radius*
0 $2 $3 $4 $5 $6 $7 $8 $9 X,Y pos of 4 corners*
0 Add a 4 corners polygon primitive as box body*
4,1,4,$2,$3,$4,$5,$6,$7,$8,$9,$2,$3,0*
0 Add four circle primitives for the rounded corners*
1,1,$1+$1,$2,$3*
1,1,$1+$1,$4,$5*
1,1,$1+$1,$6,$7*
1,1,$1+$1,$8,$9*
0 Add four rect primitives between the rounded corners*
20,1,$1+$1,$2,$3,$4,$5,0*
20,1,$1+$1,$4,$5,$6,$7,0*
20,1,$1+$1,$6,$7,$8,$9,0*
20,1,$1+$1,$8,$9,$2,$3,0*%
G04 Aperture macros list end*
%ADD10RoundRect,0.250000X-0.325000X-0.650000X0.325000X-0.650000X0.325000X0.650000X-0.325000X0.650000X0*%
%ADD11RoundRect,0.250000X-0.650000X0.325000X-0.650000X-0.325000X0.650000X-0.325000X0.650000X0.325000X0*%
%ADD12C,1.500000*%
%ADD13C,2.000000*%
%ADD14RoundRect,0.140000X-0.170000X0.140000X-0.170000X-0.140000X0.170000X-0.140000X0.170000X0.140000X0*%
%ADD15RoundRect,0.140000X0.170000X-0.140000X0.170000X0.140000X-0.170000X0.140000X-0.170000X-0.140000X0*%
%ADD16RoundRect,0.135000X-0.185000X0.135000X-0.185000X-0.135000X0.185000X-0.135000X0.185000X0.135000X0*%
%ADD17RoundRect,0.140000X0.140000X0.170000X-0.140000X0.170000X-0.140000X-0.170000X0.140000X-0.170000X0*%
%ADD18C,6.000000*%
%ADD19RoundRect,0.250000X0.312500X0.625000X-0.312500X0.625000X-0.312500X-0.625000X0.312500X-0.625000X0*%
%ADD20RoundRect,0.150000X-0.512500X-0.150000X0.512500X-0.150000X0.512500X0.150000X-0.512500X0.150000X0*%
%ADD21RoundRect,0.135000X-0.135000X-0.185000X0.135000X-0.185000X0.135000X0.185000X-0.135000X0.185000X0*%
%ADD22RoundRect,0.135000X0.135000X0.185000X-0.135000X0.185000X-0.135000X-0.185000X0.135000X-0.185000X0*%
%ADD23RoundRect,0.250000X-0.250000X-0.475000X0.250000X-0.475000X0.250000X0.475000X-0.250000X0.475000X0*%
%ADD24C,2.500000*%
%ADD25R,1.100000X1.300000*%
%ADD26RoundRect,0.140000X-0.140000X-0.170000X0.140000X-0.170000X0.140000X0.170000X-0.140000X0.170000X0*%
%ADD27C,0.800000*%
%ADD28RoundRect,0.250000X0.650000X-0.325000X0.650000X0.325000X-0.650000X0.325000X-0.650000X-0.325000X0*%
%ADD29RoundRect,0.135000X0.185000X-0.135000X0.185000X0.135000X-0.185000X0.135000X-0.185000X-0.135000X0*%
%ADD30R,0.400000X1.100000*%
%ADD31R,1.700000X1.700000*%
%ADD32O,1.700000X1.700000*%
%ADD33RoundRect,0.100000X-0.637500X-0.100000X0.637500X-0.100000X0.637500X0.100000X-0.637500X0.100000X0*%
%ADD34R,4.000000X2.600000*%
%ADD35RoundRect,0.062500X0.062500X-0.337500X0.062500X0.337500X-0.062500X0.337500X-0.062500X-0.337500X0*%
%ADD36RoundRect,0.062500X0.337500X-0.062500X0.337500X0.062500X-0.337500X0.062500X-0.337500X-0.062500X0*%
%ADD37C,0.400000*%
%ADD38R,5.300000X3.300000*%
%ADD39R,0.952500X0.558800*%
%ADD40C,1.295400*%
%ADD41C,1.574800*%
%ADD42C,1.700000*%
%ADD43C,0.650000*%
%ADD44O,1.800000X1.000000*%
%ADD45O,2.100000X1.000000*%
%ADD46C,0.990600*%
%ADD47C,1.600000*%
%ADD48C,1.800000*%
%TA.AperFunction,Profile*%
%ADD49C,0.001000*%
%TD*%
G04 APERTURE END LIST*
D10*
%TO.C,C20*%
X107435000Y-81120000D03*
X110385000Y-81120000D03*
%TD*%
D11*
%TO.C,C51*%
X102800000Y-135125000D03*
X102800000Y-138075000D03*
%TD*%
D12*
%TO.C,TP19*%
X114860000Y-134280000D03*
%TD*%
D13*
%TO.C,FID2*%
X125270000Y-50310000D03*
%TD*%
%TO.C,FID4*%
X132260000Y-139060000D03*
%TD*%
%TO.C,FID3*%
X78850000Y-139070000D03*
%TD*%
D14*
%TO.C,C41*%
X100625000Y-107920000D03*
X100625000Y-108880000D03*
%TD*%
D12*
%TO.C,TP21*%
X122860000Y-121970000D03*
%TD*%
%TO.C,TP18*%
X120820000Y-119010000D03*
%TD*%
D15*
%TO.C,C42*%
X100655438Y-122810000D03*
X100655438Y-121850000D03*
%TD*%
D12*
%TO.C,TP8*%
X124475000Y-87825000D03*
%TD*%
D16*
%TO.C,R23*%
X94520000Y-123850000D03*
X94520000Y-124870000D03*
%TD*%
D17*
%TO.C,C46*%
X99230000Y-111350000D03*
X98270000Y-111350000D03*
%TD*%
D18*
%TO.C,H6*%
X84710000Y-94910000D03*
%TD*%
D19*
%TO.C,R12*%
X93012500Y-88210000D03*
X90087500Y-88210000D03*
%TD*%
D14*
%TO.C,C13*%
X87650000Y-76570000D03*
X87650000Y-77530000D03*
%TD*%
D20*
%TO.C,U6*%
X101392500Y-129520000D03*
X101392500Y-130470000D03*
X101392500Y-131420000D03*
X103667500Y-131420000D03*
X103667500Y-129520000D03*
%TD*%
D21*
%TO.C,R1*%
X85590000Y-75500000D03*
X86610000Y-75500000D03*
%TD*%
D12*
%TO.C,TP13*%
X117300000Y-95750000D03*
%TD*%
%TO.C,TP37*%
X93610000Y-140380000D03*
%TD*%
%TO.C,TP35*%
X96280000Y-123890000D03*
%TD*%
D22*
%TO.C,R8*%
X90260000Y-71300000D03*
X89240000Y-71300000D03*
%TD*%
%TO.C,R11*%
X94390000Y-72930000D03*
X93370000Y-72930000D03*
%TD*%
D10*
%TO.C,C18*%
X107435000Y-87660000D03*
X110385000Y-87660000D03*
%TD*%
D12*
%TO.C,TP38*%
X90300000Y-140410000D03*
%TD*%
%TO.C,TP33*%
X87080000Y-118492000D03*
%TD*%
%TO.C,TP3*%
X101980000Y-91230000D03*
%TD*%
D23*
%TO.C,C24*%
X124150000Y-84050000D03*
X126050000Y-84050000D03*
%TD*%
D24*
%TO.C,TP9*%
X122440000Y-55090000D03*
%TD*%
D18*
%TO.C,H5*%
X126060000Y-136260000D03*
%TD*%
D15*
%TO.C,C45*%
X99525438Y-122820000D03*
X99525438Y-121860000D03*
%TD*%
D14*
%TO.C,C10*%
X105250000Y-73520000D03*
X105250000Y-74480000D03*
%TD*%
D15*
%TO.C,C35*%
X112140000Y-122790000D03*
X112140000Y-121830000D03*
%TD*%
D10*
%TO.C,C4*%
X95775000Y-73400000D03*
X98725000Y-73400000D03*
%TD*%
D25*
%TO.C,U7*%
X115680000Y-126370000D03*
X115680000Y-124070000D03*
X113780000Y-124070000D03*
X113780000Y-126370000D03*
%TD*%
D26*
%TO.C,C27*%
X101940000Y-132840000D03*
X102900000Y-132840000D03*
%TD*%
D27*
%TO.C,H1*%
X127985010Y-51120990D03*
X128644020Y-49530000D03*
X128644020Y-52711980D03*
X130235010Y-48870990D03*
D18*
X130235010Y-51120990D03*
D27*
X130235010Y-53370990D03*
X131826000Y-49530000D03*
X131826000Y-52711980D03*
X132485010Y-51120990D03*
%TD*%
D12*
%TO.C,TP4*%
X97220000Y-91210000D03*
%TD*%
D24*
%TO.C,TP11*%
X118480000Y-58690000D03*
%TD*%
D17*
%TO.C,C29*%
X115270000Y-128010000D03*
X114310000Y-128010000D03*
%TD*%
D13*
%TO.C,FID1*%
X78750000Y-55900000D03*
%TD*%
D14*
%TO.C,C12*%
X93100000Y-83280000D03*
X93100000Y-84240000D03*
%TD*%
D12*
%TO.C,TP14*%
X119450000Y-105600000D03*
%TD*%
D22*
%TO.C,R19*%
X123720000Y-118980000D03*
X122700000Y-118980000D03*
%TD*%
D24*
%TO.C,TP5*%
X118460000Y-62540000D03*
%TD*%
D12*
%TO.C,TP36*%
X91650000Y-123880000D03*
%TD*%
D11*
%TO.C,C43*%
X104325000Y-107025000D03*
X104325000Y-109975000D03*
%TD*%
D12*
%TO.C,TP15*%
X119550000Y-108280000D03*
%TD*%
D28*
%TO.C,C2*%
X104650000Y-80050000D03*
X104650000Y-77100000D03*
%TD*%
D12*
%TO.C,TP22*%
X118520000Y-122760000D03*
%TD*%
D29*
%TO.C,R25*%
X100400000Y-138060000D03*
X100400000Y-137040000D03*
%TD*%
D14*
%TO.C,C22*%
X128670000Y-105770000D03*
X128670000Y-106730000D03*
%TD*%
D30*
%TO.C,U10*%
X94870000Y-127840000D03*
X94220000Y-127840000D03*
X93570000Y-127840000D03*
X92920000Y-127840000D03*
X92920000Y-132140000D03*
X93570000Y-132140000D03*
X94220000Y-132140000D03*
X94870000Y-132140000D03*
%TD*%
D17*
%TO.C,C8*%
X90230000Y-72350000D03*
X89270000Y-72350000D03*
%TD*%
D21*
%TO.C,R5*%
X87540000Y-75500000D03*
X88560000Y-75500000D03*
%TD*%
D22*
%TO.C,R6*%
X88560000Y-73300000D03*
X87540000Y-73300000D03*
%TD*%
D12*
%TO.C,TP29*%
X87080000Y-112616000D03*
%TD*%
D20*
%TO.C,U5*%
X109843500Y-129279000D03*
X109843500Y-130229000D03*
X109843500Y-131179000D03*
X112118500Y-131179000D03*
X112118500Y-129279000D03*
%TD*%
D27*
%TO.C,H3*%
X128052000Y-143728000D03*
X128711010Y-142137010D03*
X128711010Y-145318990D03*
X130302000Y-141478000D03*
D18*
X130302000Y-143728000D03*
D27*
X130302000Y-145978000D03*
X131892990Y-142137010D03*
X131892990Y-145318990D03*
X132552000Y-143728000D03*
%TD*%
D14*
%TO.C,C49*%
X122930000Y-100640000D03*
X122930000Y-101600000D03*
%TD*%
D12*
%TO.C,TP2*%
X82310000Y-62100000D03*
%TD*%
D22*
%TO.C,R9*%
X94400000Y-73990000D03*
X93380000Y-73990000D03*
%TD*%
D17*
%TO.C,C23*%
X114200000Y-60030000D03*
X113240000Y-60030000D03*
%TD*%
D24*
%TO.C,TP6*%
X122430000Y-62540000D03*
%TD*%
D10*
%TO.C,C19*%
X107435000Y-84400000D03*
X110385000Y-84400000D03*
%TD*%
D16*
%TO.C,R17*%
X120380000Y-112750000D03*
X120380000Y-113770000D03*
%TD*%
D31*
%TO.C,J4*%
X99171505Y-51054000D03*
D32*
X101711505Y-51054000D03*
X104251505Y-51054000D03*
X106791505Y-51054000D03*
X109331505Y-51054000D03*
X111871505Y-51054000D03*
%TD*%
D12*
%TO.C,TP16*%
X122860000Y-113980000D03*
%TD*%
%TO.C,TP34*%
X89860000Y-120480000D03*
%TD*%
D27*
%TO.C,H4*%
X78455010Y-143830990D03*
X79114020Y-142240000D03*
X79114020Y-145421980D03*
X80705010Y-141580990D03*
D18*
X80705010Y-143830990D03*
D27*
X80705010Y-146080990D03*
X82296000Y-142240000D03*
X82296000Y-145421980D03*
X82955010Y-143830990D03*
%TD*%
D12*
%TO.C,TP1*%
X82390000Y-70940000D03*
%TD*%
D22*
%TO.C,R13*%
X86600000Y-77640000D03*
X85580000Y-77640000D03*
%TD*%
D14*
%TO.C,C53*%
X99300000Y-137070000D03*
X99300000Y-138030000D03*
%TD*%
D18*
%TO.C,H8*%
X84710000Y-136260000D03*
%TD*%
D17*
%TO.C,C48*%
X98255000Y-112350000D03*
X97295000Y-112350000D03*
%TD*%
%TO.C,C28*%
X114155000Y-112350000D03*
X113195000Y-112350000D03*
%TD*%
D33*
%TO.C,U9*%
X115427500Y-97855000D03*
X115427500Y-98505000D03*
X115427500Y-99155000D03*
X115427500Y-99805000D03*
X115427500Y-100455000D03*
X115427500Y-101105000D03*
X115427500Y-101755000D03*
X115427500Y-102405000D03*
X121152500Y-102405000D03*
X121152500Y-101755000D03*
X121152500Y-101105000D03*
X121152500Y-100455000D03*
X121152500Y-99805000D03*
X121152500Y-99155000D03*
X121152500Y-98505000D03*
X121152500Y-97855000D03*
%TD*%
D21*
%TO.C,R24*%
X95210000Y-135170000D03*
X96230000Y-135170000D03*
%TD*%
D26*
%TO.C,C5*%
X89220000Y-70300000D03*
X90180000Y-70300000D03*
%TD*%
D17*
%TO.C,C34*%
X112030000Y-110375000D03*
X111070000Y-110375000D03*
%TD*%
D29*
%TO.C,R22*%
X93380000Y-124870000D03*
X93380000Y-123850000D03*
%TD*%
D34*
%TO.C,L1*%
X96295000Y-85255000D03*
X104245000Y-85255000D03*
%TD*%
D10*
%TO.C,C17*%
X107415000Y-90910000D03*
X110365000Y-90910000D03*
%TD*%
D26*
%TO.C,C26*%
X110481000Y-132739000D03*
X111441000Y-132739000D03*
%TD*%
D17*
%TO.C,C47*%
X124270000Y-103110000D03*
X123310000Y-103110000D03*
%TD*%
D15*
%TO.C,C33*%
X111000000Y-122790000D03*
X111000000Y-121830000D03*
%TD*%
D27*
%TO.C,H2*%
X78558000Y-51054000D03*
X79217010Y-49463010D03*
X79217010Y-52644990D03*
X80808000Y-48804000D03*
D18*
X80808000Y-51054000D03*
D27*
X80808000Y-53304000D03*
X82398990Y-49463010D03*
X82398990Y-52644990D03*
X83058000Y-51054000D03*
%TD*%
D17*
%TO.C,C1*%
X92650000Y-82220000D03*
X91690000Y-82220000D03*
%TD*%
D22*
%TO.C,R18*%
X123720000Y-116220000D03*
X122700000Y-116220000D03*
%TD*%
D15*
%TO.C,C36*%
X110825000Y-108880000D03*
X110825000Y-107920000D03*
%TD*%
D12*
%TO.C,TP20*%
X106360000Y-134230000D03*
%TD*%
D18*
%TO.C,H7*%
X126060000Y-94910000D03*
%TD*%
D12*
%TO.C,TP17*%
X120900000Y-116060000D03*
%TD*%
%TO.C,TP30*%
X89890000Y-114520000D03*
%TD*%
D21*
%TO.C,R15*%
X110480000Y-73250000D03*
X111500000Y-73250000D03*
%TD*%
D35*
%TO.C,U2*%
X90830000Y-80090000D03*
X91330000Y-80090000D03*
X91830000Y-80090000D03*
X92330000Y-80090000D03*
X92830000Y-80090000D03*
X93330000Y-80090000D03*
X93830000Y-80090000D03*
X94330000Y-80090000D03*
X94830000Y-80090000D03*
X95330000Y-80090000D03*
X95830000Y-80090000D03*
X96330000Y-80090000D03*
D36*
X97080000Y-79340000D03*
X97080000Y-78840000D03*
X97080000Y-78340000D03*
X97080000Y-77840000D03*
X97080000Y-77340000D03*
X97080000Y-76840000D03*
X97080000Y-76340000D03*
X97080000Y-75840000D03*
D35*
X96330000Y-75090000D03*
X95830000Y-75090000D03*
X95330000Y-75090000D03*
X94830000Y-75090000D03*
X94330000Y-75090000D03*
X93830000Y-75090000D03*
X93330000Y-75090000D03*
X92830000Y-75090000D03*
X92330000Y-75090000D03*
X91830000Y-75090000D03*
X91330000Y-75090000D03*
X90830000Y-75090000D03*
D36*
X90080000Y-75840000D03*
X90080000Y-76340000D03*
X90080000Y-76840000D03*
X90080000Y-77340000D03*
X90080000Y-77840000D03*
X90080000Y-78340000D03*
X90080000Y-78840000D03*
X90080000Y-79340000D03*
D37*
X92180000Y-78870000D03*
X93580000Y-78870000D03*
X94980000Y-78870000D03*
X91180000Y-77590000D03*
X92180000Y-77590000D03*
X93580000Y-77590000D03*
D38*
X93580000Y-77590000D03*
D37*
X94980000Y-77590000D03*
X95980000Y-77590000D03*
X92180000Y-76310000D03*
X93580000Y-76310000D03*
X94980000Y-76310000D03*
%TD*%
D10*
%TO.C,C3*%
X95775000Y-70950000D03*
X98725000Y-70950000D03*
%TD*%
D17*
%TO.C,C50*%
X94440000Y-125940000D03*
X93480000Y-125940000D03*
%TD*%
D22*
%TO.C,R10*%
X88560000Y-74300000D03*
X87540000Y-74300000D03*
%TD*%
D17*
%TO.C,C32*%
X113005000Y-111425000D03*
X112045000Y-111425000D03*
%TD*%
D29*
%TO.C,R16*%
X127240000Y-106770000D03*
X127240000Y-105750000D03*
%TD*%
D17*
%TO.C,C52*%
X100030000Y-135350000D03*
X99070000Y-135350000D03*
%TD*%
D23*
%TO.C,C11*%
X91190000Y-85860000D03*
X93090000Y-85860000D03*
%TD*%
D26*
%TO.C,C21*%
X111140000Y-60030000D03*
X112100000Y-60030000D03*
%TD*%
D12*
%TO.C,TP31*%
X87080000Y-115554000D03*
%TD*%
D24*
%TO.C,TP7*%
X122420000Y-58830000D03*
%TD*%
D12*
%TO.C,TP32*%
X89890000Y-117310000D03*
%TD*%
D21*
%TO.C,R14*%
X85580000Y-76570000D03*
X86600000Y-76570000D03*
%TD*%
D14*
%TO.C,C30*%
X114240000Y-129540000D03*
X114240000Y-130500000D03*
%TD*%
D11*
%TO.C,C54*%
X106875000Y-107050000D03*
X106875000Y-110000000D03*
%TD*%
D17*
%TO.C,C44*%
X100305000Y-110375000D03*
X99345000Y-110375000D03*
%TD*%
D39*
%TO.C,U3*%
X111185050Y-62440200D03*
X111185050Y-63380000D03*
X111185050Y-64319800D03*
X113940950Y-64319800D03*
X113940950Y-62440200D03*
%TD*%
D24*
%TO.C,TP10*%
X118480000Y-55140000D03*
%TD*%
D14*
%TO.C,C31*%
X105750000Y-129990000D03*
X105750000Y-130950000D03*
%TD*%
D40*
%TO.C,J6*%
X94701000Y-145782001D03*
D41*
X89621000Y-143622000D03*
X92161000Y-143622000D03*
X94701000Y-143622000D03*
X97241000Y-143622000D03*
%TD*%
D42*
%TO.C,J3*%
X87005000Y-50292000D03*
D32*
X87405000Y-52832000D03*
X87005000Y-55372000D03*
X87405000Y-57912000D03*
%TD*%
D43*
%TO.C,J5*%
X83470000Y-86150000D03*
X83470000Y-80370000D03*
D44*
X79790000Y-87580000D03*
D45*
X83970000Y-87580000D03*
D44*
X79790000Y-78940000D03*
D45*
X83970000Y-78940000D03*
%TD*%
D46*
%TO.C,J2*%
X130670000Y-57730000D03*
X125590000Y-58746000D03*
X125590000Y-56714000D03*
%TD*%
D47*
%TO.C,J1*%
X82330000Y-66620000D03*
D48*
X86830000Y-66620000D03*
%TD*%
D49*
X79729000Y-47522000D02*
X131192000Y-47522000D01*
X133732000Y-144744000D02*
G75*
G02*
X131192000Y-147284000I-2540000J0D01*
G01*
X131192000Y-47522000D02*
G75*
G02*
X133732000Y-50062000I0J-2540000D01*
G01*
X77189000Y-50062000D02*
G75*
G02*
X79729000Y-47522000I2540000J0D01*
G01*
X131192000Y-147284000D02*
X79729000Y-147284000D01*
X133732000Y-50062000D02*
X133732000Y-144744000D01*
X79729000Y-147284000D02*
G75*
G02*
X77189000Y-144744000I0J2540000D01*
G01*
X77189000Y-144744000D02*
X77189000Y-50062000D01*
M02*
