%TF.GenerationSoftware,KiCad,Pcbnew,10.0.3+dfsg-1*%
%TF.CreationDate,2026-09-06T21:22:59-03:00*%
%TF.ProjectId,bitaxeGamma,62697461-7865-4476-916d-6d612e6b6963,rev?*%
%TF.SameCoordinates,Original*%
%TF.FileFunction,Legend,Bot*%
%TF.FilePolarity,Positive*%
%FSLAX46Y46*%
G04 Gerber Fmt 4.6, Leading zero omitted, Abs format (unit mm)*
G04 Created by KiCad (PCBNEW 10.0.3+dfsg-1) date 2026-09-06 21:22:59*
%MOMM*%
%LPD*%
G01*
G04 APERTURE LIST*
%ADD10C,0.150000*%
%ADD11C,0.125000*%
%ADD12C,0.300000*%
%ADD13C,0.250000*%
%ADD14C,0.120000*%
%ADD15C,0.050000*%
%ADD16C,0.227485*%
%ADD17C,0.000000*%
%ADD18C,0.127000*%
%ADD19C,0.152400*%
%ADD20C,0.310000*%
G04 APERTURE END LIST*
D10*
X85450000Y-95700000D02*
X125430000Y-95700000D01*
X125430000Y-135690000D01*
X85450000Y-135690000D01*
X85450000Y-95700000D01*
D11*
X101748619Y-139119047D02*
X101724809Y-139071428D01*
X101724809Y-139071428D02*
X101724809Y-138999999D01*
X101724809Y-138999999D02*
X101748619Y-138928571D01*
X101748619Y-138928571D02*
X101796238Y-138880952D01*
X101796238Y-138880952D02*
X101843857Y-138857142D01*
X101843857Y-138857142D02*
X101939095Y-138833333D01*
X101939095Y-138833333D02*
X102010523Y-138833333D01*
X102010523Y-138833333D02*
X102105761Y-138857142D01*
X102105761Y-138857142D02*
X102153380Y-138880952D01*
X102153380Y-138880952D02*
X102201000Y-138928571D01*
X102201000Y-138928571D02*
X102224809Y-138999999D01*
X102224809Y-138999999D02*
X102224809Y-139047618D01*
X102224809Y-139047618D02*
X102201000Y-139119047D01*
X102201000Y-139119047D02*
X102177190Y-139142856D01*
X102177190Y-139142856D02*
X102010523Y-139142856D01*
X102010523Y-139142856D02*
X102010523Y-139047618D01*
X102224809Y-139357142D02*
X101724809Y-139357142D01*
X101724809Y-139357142D02*
X102224809Y-139642856D01*
X102224809Y-139642856D02*
X101724809Y-139642856D01*
X102224809Y-139880952D02*
X101724809Y-139880952D01*
X101724809Y-139880952D02*
X101724809Y-140000000D01*
X101724809Y-140000000D02*
X101748619Y-140071428D01*
X101748619Y-140071428D02*
X101796238Y-140119047D01*
X101796238Y-140119047D02*
X101843857Y-140142857D01*
X101843857Y-140142857D02*
X101939095Y-140166666D01*
X101939095Y-140166666D02*
X102010523Y-140166666D01*
X102010523Y-140166666D02*
X102105761Y-140142857D01*
X102105761Y-140142857D02*
X102153380Y-140119047D01*
X102153380Y-140119047D02*
X102201000Y-140071428D01*
X102201000Y-140071428D02*
X102224809Y-140000000D01*
X102224809Y-140000000D02*
X102224809Y-139880952D01*
X102624809Y-139604762D02*
X102624809Y-139366667D01*
X102624809Y-139366667D02*
X102862904Y-139342858D01*
X102862904Y-139342858D02*
X102839095Y-139366667D01*
X102839095Y-139366667D02*
X102815285Y-139414286D01*
X102815285Y-139414286D02*
X102815285Y-139533334D01*
X102815285Y-139533334D02*
X102839095Y-139580953D01*
X102839095Y-139580953D02*
X102862904Y-139604762D01*
X102862904Y-139604762D02*
X102910523Y-139628572D01*
X102910523Y-139628572D02*
X103029571Y-139628572D01*
X103029571Y-139628572D02*
X103077190Y-139604762D01*
X103077190Y-139604762D02*
X103101000Y-139580953D01*
X103101000Y-139580953D02*
X103124809Y-139533334D01*
X103124809Y-139533334D02*
X103124809Y-139414286D01*
X103124809Y-139414286D02*
X103101000Y-139366667D01*
X103101000Y-139366667D02*
X103077190Y-139342858D01*
X102624809Y-139771429D02*
X103124809Y-139938095D01*
X103124809Y-139938095D02*
X102624809Y-140104762D01*
X103724809Y-138992858D02*
X103724809Y-139278572D01*
X104224809Y-139135715D02*
X103724809Y-139135715D01*
X104081952Y-139421429D02*
X104081952Y-139659524D01*
X104224809Y-139373810D02*
X103724809Y-139540476D01*
X103724809Y-139540476D02*
X104224809Y-139707143D01*
X104177190Y-140159523D02*
X104201000Y-140135714D01*
X104201000Y-140135714D02*
X104224809Y-140064285D01*
X104224809Y-140064285D02*
X104224809Y-140016666D01*
X104224809Y-140016666D02*
X104201000Y-139945238D01*
X104201000Y-139945238D02*
X104153380Y-139897619D01*
X104153380Y-139897619D02*
X104105761Y-139873809D01*
X104105761Y-139873809D02*
X104010523Y-139850000D01*
X104010523Y-139850000D02*
X103939095Y-139850000D01*
X103939095Y-139850000D02*
X103843857Y-139873809D01*
X103843857Y-139873809D02*
X103796238Y-139897619D01*
X103796238Y-139897619D02*
X103748619Y-139945238D01*
X103748619Y-139945238D02*
X103724809Y-140016666D01*
X103724809Y-140016666D02*
X103724809Y-140064285D01*
X103724809Y-140064285D02*
X103748619Y-140135714D01*
X103748619Y-140135714D02*
X103772428Y-140159523D01*
X105224809Y-138797618D02*
X104724809Y-138797618D01*
X104724809Y-138797618D02*
X104724809Y-138988094D01*
X104724809Y-138988094D02*
X104748619Y-139035713D01*
X104748619Y-139035713D02*
X104772428Y-139059523D01*
X104772428Y-139059523D02*
X104820047Y-139083332D01*
X104820047Y-139083332D02*
X104891476Y-139083332D01*
X104891476Y-139083332D02*
X104939095Y-139059523D01*
X104939095Y-139059523D02*
X104962904Y-139035713D01*
X104962904Y-139035713D02*
X104986714Y-138988094D01*
X104986714Y-138988094D02*
X104986714Y-138797618D01*
X104724809Y-139249999D02*
X105224809Y-139369047D01*
X105224809Y-139369047D02*
X104867666Y-139464285D01*
X104867666Y-139464285D02*
X105224809Y-139559523D01*
X105224809Y-139559523D02*
X104724809Y-139678571D01*
X105224809Y-139869047D02*
X104724809Y-139869047D01*
X104724809Y-139869047D02*
X105081952Y-140035714D01*
X105081952Y-140035714D02*
X104724809Y-140202380D01*
X104724809Y-140202380D02*
X105224809Y-140202380D01*
D10*
X106006190Y-110747200D02*
X106863332Y-112032914D01*
X104958570Y-110890057D02*
X104910951Y-110842438D01*
X104910951Y-110842438D02*
X104815713Y-110794819D01*
X104815713Y-110794819D02*
X104577618Y-110794819D01*
X104577618Y-110794819D02*
X104482380Y-110842438D01*
X104482380Y-110842438D02*
X104434761Y-110890057D01*
X104434761Y-110890057D02*
X104387142Y-110985295D01*
X104387142Y-110985295D02*
X104387142Y-111080533D01*
X104387142Y-111080533D02*
X104434761Y-111223390D01*
X104434761Y-111223390D02*
X105006189Y-111794819D01*
X105006189Y-111794819D02*
X104387142Y-111794819D01*
X103434761Y-111794819D02*
X104006189Y-111794819D01*
X103720475Y-111794819D02*
X103720475Y-110794819D01*
X103720475Y-110794819D02*
X103815713Y-110937676D01*
X103815713Y-110937676D02*
X103910951Y-111032914D01*
X103910951Y-111032914D02*
X104006189Y-111080533D01*
X103006189Y-111794819D02*
X103006189Y-110794819D01*
X103006189Y-110794819D02*
X102672856Y-111509104D01*
X102672856Y-111509104D02*
X102339523Y-110794819D01*
X102339523Y-110794819D02*
X102339523Y-111794819D01*
X89169938Y-137720143D02*
X89122319Y-137624905D01*
X89122319Y-137624905D02*
X89122319Y-137482048D01*
X89122319Y-137482048D02*
X89169938Y-137339191D01*
X89169938Y-137339191D02*
X89265176Y-137243953D01*
X89265176Y-137243953D02*
X89360414Y-137196334D01*
X89360414Y-137196334D02*
X89550890Y-137148715D01*
X89550890Y-137148715D02*
X89693747Y-137148715D01*
X89693747Y-137148715D02*
X89884223Y-137196334D01*
X89884223Y-137196334D02*
X89979461Y-137243953D01*
X89979461Y-137243953D02*
X90074700Y-137339191D01*
X90074700Y-137339191D02*
X90122319Y-137482048D01*
X90122319Y-137482048D02*
X90122319Y-137577286D01*
X90122319Y-137577286D02*
X90074700Y-137720143D01*
X90074700Y-137720143D02*
X90027080Y-137767762D01*
X90027080Y-137767762D02*
X89693747Y-137767762D01*
X89693747Y-137767762D02*
X89693747Y-137577286D01*
X90122319Y-138196334D02*
X89122319Y-138196334D01*
X89122319Y-138196334D02*
X90122319Y-138767762D01*
X90122319Y-138767762D02*
X89122319Y-138767762D01*
X90122319Y-139243953D02*
X89122319Y-139243953D01*
X89122319Y-139243953D02*
X89122319Y-139482048D01*
X89122319Y-139482048D02*
X89169938Y-139624905D01*
X89169938Y-139624905D02*
X89265176Y-139720143D01*
X89265176Y-139720143D02*
X89360414Y-139767762D01*
X89360414Y-139767762D02*
X89550890Y-139815381D01*
X89550890Y-139815381D02*
X89693747Y-139815381D01*
X89693747Y-139815381D02*
X89884223Y-139767762D01*
X89884223Y-139767762D02*
X89979461Y-139720143D01*
X89979461Y-139720143D02*
X90074700Y-139624905D01*
X90074700Y-139624905D02*
X90122319Y-139482048D01*
X90122319Y-139482048D02*
X90122319Y-139243953D01*
X91663819Y-138827523D02*
X91663819Y-138351333D01*
X91663819Y-138351333D02*
X92140009Y-138303714D01*
X92140009Y-138303714D02*
X92092390Y-138351333D01*
X92092390Y-138351333D02*
X92044771Y-138446571D01*
X92044771Y-138446571D02*
X92044771Y-138684666D01*
X92044771Y-138684666D02*
X92092390Y-138779904D01*
X92092390Y-138779904D02*
X92140009Y-138827523D01*
X92140009Y-138827523D02*
X92235247Y-138875142D01*
X92235247Y-138875142D02*
X92473342Y-138875142D01*
X92473342Y-138875142D02*
X92568580Y-138827523D01*
X92568580Y-138827523D02*
X92616200Y-138779904D01*
X92616200Y-138779904D02*
X92663819Y-138684666D01*
X92663819Y-138684666D02*
X92663819Y-138446571D01*
X92663819Y-138446571D02*
X92616200Y-138351333D01*
X92616200Y-138351333D02*
X92568580Y-138303714D01*
X91663819Y-139160857D02*
X92663819Y-139494190D01*
X92663819Y-139494190D02*
X91663819Y-139827523D01*
X94187319Y-137482047D02*
X94187319Y-138053475D01*
X95187319Y-137767761D02*
X94187319Y-137767761D01*
X94901604Y-138339190D02*
X94901604Y-138815380D01*
X95187319Y-138243952D02*
X94187319Y-138577285D01*
X94187319Y-138577285D02*
X95187319Y-138910618D01*
X95092080Y-139815380D02*
X95139700Y-139767761D01*
X95139700Y-139767761D02*
X95187319Y-139624904D01*
X95187319Y-139624904D02*
X95187319Y-139529666D01*
X95187319Y-139529666D02*
X95139700Y-139386809D01*
X95139700Y-139386809D02*
X95044461Y-139291571D01*
X95044461Y-139291571D02*
X94949223Y-139243952D01*
X94949223Y-139243952D02*
X94758747Y-139196333D01*
X94758747Y-139196333D02*
X94615890Y-139196333D01*
X94615890Y-139196333D02*
X94425414Y-139243952D01*
X94425414Y-139243952D02*
X94330176Y-139291571D01*
X94330176Y-139291571D02*
X94234938Y-139386809D01*
X94234938Y-139386809D02*
X94187319Y-139529666D01*
X94187319Y-139529666D02*
X94187319Y-139624904D01*
X94187319Y-139624904D02*
X94234938Y-139767761D01*
X94234938Y-139767761D02*
X94282557Y-139815380D01*
X97719819Y-136958238D02*
X96719819Y-136958238D01*
X96719819Y-136958238D02*
X96719819Y-137339190D01*
X96719819Y-137339190D02*
X96767438Y-137434428D01*
X96767438Y-137434428D02*
X96815057Y-137482047D01*
X96815057Y-137482047D02*
X96910295Y-137529666D01*
X96910295Y-137529666D02*
X97053152Y-137529666D01*
X97053152Y-137529666D02*
X97148390Y-137482047D01*
X97148390Y-137482047D02*
X97196009Y-137434428D01*
X97196009Y-137434428D02*
X97243628Y-137339190D01*
X97243628Y-137339190D02*
X97243628Y-136958238D01*
X96719819Y-137863000D02*
X97719819Y-138101095D01*
X97719819Y-138101095D02*
X97005533Y-138291571D01*
X97005533Y-138291571D02*
X97719819Y-138482047D01*
X97719819Y-138482047D02*
X96719819Y-138720143D01*
X97719819Y-139101095D02*
X96719819Y-139101095D01*
X96719819Y-139101095D02*
X97434104Y-139434428D01*
X97434104Y-139434428D02*
X96719819Y-139767761D01*
X96719819Y-139767761D02*
X97719819Y-139767761D01*
D12*
X91911203Y-73930828D02*
X92625489Y-73930828D01*
X92625489Y-73930828D02*
X92696917Y-74645114D01*
X92696917Y-74645114D02*
X92625489Y-74573685D01*
X92625489Y-74573685D02*
X92482632Y-74502257D01*
X92482632Y-74502257D02*
X92125489Y-74502257D01*
X92125489Y-74502257D02*
X91982632Y-74573685D01*
X91982632Y-74573685D02*
X91911203Y-74645114D01*
X91911203Y-74645114D02*
X91839774Y-74787971D01*
X91839774Y-74787971D02*
X91839774Y-75145114D01*
X91839774Y-75145114D02*
X91911203Y-75287971D01*
X91911203Y-75287971D02*
X91982632Y-75359400D01*
X91982632Y-75359400D02*
X92125489Y-75430828D01*
X92125489Y-75430828D02*
X92482632Y-75430828D01*
X92482632Y-75430828D02*
X92625489Y-75359400D01*
X92625489Y-75359400D02*
X92696917Y-75287971D01*
X91411203Y-73930828D02*
X90911203Y-75430828D01*
X90911203Y-75430828D02*
X90411203Y-73930828D01*
X89911204Y-75430828D02*
X89911204Y-73930828D01*
X89911204Y-73930828D02*
X89554061Y-73930828D01*
X89554061Y-73930828D02*
X89339775Y-74002257D01*
X89339775Y-74002257D02*
X89196918Y-74145114D01*
X89196918Y-74145114D02*
X89125489Y-74287971D01*
X89125489Y-74287971D02*
X89054061Y-74573685D01*
X89054061Y-74573685D02*
X89054061Y-74787971D01*
X89054061Y-74787971D02*
X89125489Y-75073685D01*
X89125489Y-75073685D02*
X89196918Y-75216542D01*
X89196918Y-75216542D02*
X89339775Y-75359400D01*
X89339775Y-75359400D02*
X89554061Y-75430828D01*
X89554061Y-75430828D02*
X89911204Y-75430828D01*
X87554061Y-75287971D02*
X87625489Y-75359400D01*
X87625489Y-75359400D02*
X87839775Y-75430828D01*
X87839775Y-75430828D02*
X87982632Y-75430828D01*
X87982632Y-75430828D02*
X88196918Y-75359400D01*
X88196918Y-75359400D02*
X88339775Y-75216542D01*
X88339775Y-75216542D02*
X88411204Y-75073685D01*
X88411204Y-75073685D02*
X88482632Y-74787971D01*
X88482632Y-74787971D02*
X88482632Y-74573685D01*
X88482632Y-74573685D02*
X88411204Y-74287971D01*
X88411204Y-74287971D02*
X88339775Y-74145114D01*
X88339775Y-74145114D02*
X88196918Y-74002257D01*
X88196918Y-74002257D02*
X87982632Y-73930828D01*
X87982632Y-73930828D02*
X87839775Y-73930828D01*
X87839775Y-73930828D02*
X87625489Y-74002257D01*
X87625489Y-74002257D02*
X87554061Y-74073685D01*
D13*
X108259523Y-111149857D02*
X108069047Y-111054619D01*
X108069047Y-111054619D02*
X107878571Y-111149857D01*
X107878571Y-111149857D02*
X107783333Y-111340333D01*
X107783333Y-111340333D02*
X107878571Y-111530809D01*
X107878571Y-111530809D02*
X108069047Y-111626047D01*
X108069047Y-111626047D02*
X108259523Y-111530809D01*
X108259523Y-111530809D02*
X108640475Y-111149857D01*
X108640475Y-111149857D02*
X108830952Y-111054619D01*
X108830952Y-111054619D02*
X109021428Y-111149857D01*
X109021428Y-111149857D02*
X109116666Y-111340333D01*
X109116666Y-111340333D02*
X109021428Y-111530809D01*
X109021428Y-111530809D02*
X108830952Y-111626047D01*
X108830952Y-111626047D02*
X108640475Y-111530809D01*
X108640475Y-111530809D02*
X108259523Y-111149857D01*
D12*
X104299298Y-82679638D02*
X104680251Y-82679638D01*
X104680251Y-82679638D02*
X104870727Y-82774876D01*
X104870727Y-82774876D02*
X104965965Y-82870114D01*
X104965965Y-82870114D02*
X105156441Y-83155828D01*
X105156441Y-83155828D02*
X105251679Y-83536780D01*
X105251679Y-83536780D02*
X105251679Y-84298685D01*
X105251679Y-84298685D02*
X105156441Y-84489161D01*
X105156441Y-84489161D02*
X105061203Y-84584400D01*
X105061203Y-84584400D02*
X104870727Y-84679638D01*
X104870727Y-84679638D02*
X104489774Y-84679638D01*
X104489774Y-84679638D02*
X104299298Y-84584400D01*
X104299298Y-84584400D02*
X104204060Y-84489161D01*
X104204060Y-84489161D02*
X104108822Y-84298685D01*
X104108822Y-84298685D02*
X104108822Y-83822495D01*
X104108822Y-83822495D02*
X104204060Y-83632019D01*
X104204060Y-83632019D02*
X104299298Y-83536780D01*
X104299298Y-83536780D02*
X104489774Y-83441542D01*
X104489774Y-83441542D02*
X104870727Y-83441542D01*
X104870727Y-83441542D02*
X105061203Y-83536780D01*
X105061203Y-83536780D02*
X105156441Y-83632019D01*
X105156441Y-83632019D02*
X105251679Y-83822495D01*
X102870727Y-82679638D02*
X102680250Y-82679638D01*
X102680250Y-82679638D02*
X102489774Y-82774876D01*
X102489774Y-82774876D02*
X102394536Y-82870114D01*
X102394536Y-82870114D02*
X102299298Y-83060590D01*
X102299298Y-83060590D02*
X102204060Y-83441542D01*
X102204060Y-83441542D02*
X102204060Y-83917733D01*
X102204060Y-83917733D02*
X102299298Y-84298685D01*
X102299298Y-84298685D02*
X102394536Y-84489161D01*
X102394536Y-84489161D02*
X102489774Y-84584400D01*
X102489774Y-84584400D02*
X102680250Y-84679638D01*
X102680250Y-84679638D02*
X102870727Y-84679638D01*
X102870727Y-84679638D02*
X103061203Y-84584400D01*
X103061203Y-84584400D02*
X103156441Y-84489161D01*
X103156441Y-84489161D02*
X103251679Y-84298685D01*
X103251679Y-84298685D02*
X103346917Y-83917733D01*
X103346917Y-83917733D02*
X103346917Y-83441542D01*
X103346917Y-83441542D02*
X103251679Y-83060590D01*
X103251679Y-83060590D02*
X103156441Y-82870114D01*
X103156441Y-82870114D02*
X103061203Y-82774876D01*
X103061203Y-82774876D02*
X102870727Y-82679638D01*
X101537393Y-82679638D02*
X100299298Y-82679638D01*
X100299298Y-82679638D02*
X100965965Y-83441542D01*
X100965965Y-83441542D02*
X100680250Y-83441542D01*
X100680250Y-83441542D02*
X100489774Y-83536780D01*
X100489774Y-83536780D02*
X100394536Y-83632019D01*
X100394536Y-83632019D02*
X100299298Y-83822495D01*
X100299298Y-83822495D02*
X100299298Y-84298685D01*
X100299298Y-84298685D02*
X100394536Y-84489161D01*
X100394536Y-84489161D02*
X100489774Y-84584400D01*
X100489774Y-84584400D02*
X100680250Y-84679638D01*
X100680250Y-84679638D02*
X101251679Y-84679638D01*
X101251679Y-84679638D02*
X101442155Y-84584400D01*
X101442155Y-84584400D02*
X101537393Y-84489161D01*
D10*
X333333Y-2431009D02*
X666666Y-2431009D01*
X666666Y-2954819D02*
X666666Y-1954819D01*
X666666Y-1954819D02*
X190476Y-1954819D01*
X-714285Y-2954819D02*
X-142857Y-2954819D01*
X-428571Y-2954819D02*
X-428571Y-1954819D01*
X-428571Y-1954819D02*
X-333333Y-2097676D01*
X-333333Y-2097676D02*
X-238095Y-2192914D01*
X-238095Y-2192914D02*
X-142857Y-2240533D01*
X90013333Y-58134819D02*
X90013333Y-58849104D01*
X90013333Y-58849104D02*
X90060952Y-58991961D01*
X90060952Y-58991961D02*
X90156190Y-59087200D01*
X90156190Y-59087200D02*
X90299047Y-59134819D01*
X90299047Y-59134819D02*
X90394285Y-59134819D01*
X89632380Y-58134819D02*
X89013333Y-58134819D01*
X89013333Y-58134819D02*
X89346666Y-58515771D01*
X89346666Y-58515771D02*
X89203809Y-58515771D01*
X89203809Y-58515771D02*
X89108571Y-58563390D01*
X89108571Y-58563390D02*
X89060952Y-58611009D01*
X89060952Y-58611009D02*
X89013333Y-58706247D01*
X89013333Y-58706247D02*
X89013333Y-58944342D01*
X89013333Y-58944342D02*
X89060952Y-59039580D01*
X89060952Y-59039580D02*
X89108571Y-59087200D01*
X89108571Y-59087200D02*
X89203809Y-59134819D01*
X89203809Y-59134819D02*
X89489523Y-59134819D01*
X89489523Y-59134819D02*
X89584761Y-59087200D01*
X89584761Y-59087200D02*
X89632380Y-59039580D01*
X642857Y-1959580D02*
X690476Y-2007200D01*
X690476Y-2007200D02*
X833333Y-2054819D01*
X833333Y-2054819D02*
X928571Y-2054819D01*
X928571Y-2054819D02*
X1071428Y-2007200D01*
X1071428Y-2007200D02*
X1166666Y-1911961D01*
X1166666Y-1911961D02*
X1214285Y-1816723D01*
X1214285Y-1816723D02*
X1261904Y-1626247D01*
X1261904Y-1626247D02*
X1261904Y-1483390D01*
X1261904Y-1483390D02*
X1214285Y-1292914D01*
X1214285Y-1292914D02*
X1166666Y-1197676D01*
X1166666Y-1197676D02*
X1071428Y-1102438D01*
X1071428Y-1102438D02*
X928571Y-1054819D01*
X928571Y-1054819D02*
X833333Y-1054819D01*
X833333Y-1054819D02*
X690476Y-1102438D01*
X690476Y-1102438D02*
X642857Y-1150057D01*
X-214285Y-1054819D02*
X-23809Y-1054819D01*
X-23809Y-1054819D02*
X71428Y-1102438D01*
X71428Y-1102438D02*
X119047Y-1150057D01*
X119047Y-1150057D02*
X214285Y-1292914D01*
X214285Y-1292914D02*
X261904Y-1483390D01*
X261904Y-1483390D02*
X261904Y-1864342D01*
X261904Y-1864342D02*
X214285Y-1959580D01*
X214285Y-1959580D02*
X166666Y-2007200D01*
X166666Y-2007200D02*
X71428Y-2054819D01*
X71428Y-2054819D02*
X-119047Y-2054819D01*
X-119047Y-2054819D02*
X-214285Y-2007200D01*
X-214285Y-2007200D02*
X-261904Y-1959580D01*
X-261904Y-1959580D02*
X-309523Y-1864342D01*
X-309523Y-1864342D02*
X-309523Y-1626247D01*
X-309523Y-1626247D02*
X-261904Y-1531009D01*
X-261904Y-1531009D02*
X-214285Y-1483390D01*
X-214285Y-1483390D02*
X-119047Y-1435771D01*
X-119047Y-1435771D02*
X71428Y-1435771D01*
X71428Y-1435771D02*
X166666Y-1483390D01*
X166666Y-1483390D02*
X214285Y-1531009D01*
X214285Y-1531009D02*
X261904Y-1626247D01*
X-690476Y-1150057D02*
X-738095Y-1102438D01*
X-738095Y-1102438D02*
X-833333Y-1054819D01*
X-833333Y-1054819D02*
X-1071428Y-1054819D01*
X-1071428Y-1054819D02*
X-1166666Y-1102438D01*
X-1166666Y-1102438D02*
X-1214285Y-1150057D01*
X-1214285Y-1150057D02*
X-1261904Y-1245295D01*
X-1261904Y-1245295D02*
X-1261904Y-1340533D01*
X-1261904Y-1340533D02*
X-1214285Y-1483390D01*
X-1214285Y-1483390D02*
X-642857Y-2054819D01*
X-642857Y-2054819D02*
X-1261904Y-2054819D01*
X738094Y1345180D02*
X738094Y2345180D01*
X738094Y2345180D02*
X499999Y2345180D01*
X499999Y2345180D02*
X357142Y2297561D01*
X357142Y2297561D02*
X261904Y2202323D01*
X261904Y2202323D02*
X214285Y2107085D01*
X214285Y2107085D02*
X166666Y1916609D01*
X166666Y1916609D02*
X166666Y1773752D01*
X166666Y1773752D02*
X214285Y1583276D01*
X214285Y1583276D02*
X261904Y1488038D01*
X261904Y1488038D02*
X357142Y1392800D01*
X357142Y1392800D02*
X499999Y1345180D01*
X499999Y1345180D02*
X738094Y1345180D01*
X-214286Y2249942D02*
X-261905Y2297561D01*
X-261905Y2297561D02*
X-357143Y2345180D01*
X-357143Y2345180D02*
X-595238Y2345180D01*
X-595238Y2345180D02*
X-690476Y2297561D01*
X-690476Y2297561D02*
X-738095Y2249942D01*
X-738095Y2249942D02*
X-785714Y2154704D01*
X-785714Y2154704D02*
X-785714Y2059466D01*
X-785714Y2059466D02*
X-738095Y1916609D01*
X-738095Y1916609D02*
X-166667Y1345180D01*
X-166667Y1345180D02*
X-785714Y1345180D01*
X642857Y1245180D02*
X976190Y1721371D01*
X1214285Y1245180D02*
X1214285Y2245180D01*
X1214285Y2245180D02*
X833333Y2245180D01*
X833333Y2245180D02*
X738095Y2197561D01*
X738095Y2197561D02*
X690476Y2149942D01*
X690476Y2149942D02*
X642857Y2054704D01*
X642857Y2054704D02*
X642857Y1911847D01*
X642857Y1911847D02*
X690476Y1816609D01*
X690476Y1816609D02*
X738095Y1768990D01*
X738095Y1768990D02*
X833333Y1721371D01*
X833333Y1721371D02*
X1214285Y1721371D01*
X309523Y2245180D02*
X-309523Y2245180D01*
X-309523Y2245180D02*
X23809Y1864228D01*
X23809Y1864228D02*
X-119047Y1864228D01*
X-119047Y1864228D02*
X-214285Y1816609D01*
X-214285Y1816609D02*
X-261904Y1768990D01*
X-261904Y1768990D02*
X-309523Y1673752D01*
X-309523Y1673752D02*
X-309523Y1435657D01*
X-309523Y1435657D02*
X-261904Y1340419D01*
X-261904Y1340419D02*
X-214285Y1292800D01*
X-214285Y1292800D02*
X-119047Y1245180D01*
X-119047Y1245180D02*
X166666Y1245180D01*
X166666Y1245180D02*
X261904Y1292800D01*
X261904Y1292800D02*
X309523Y1340419D01*
X-690476Y2149942D02*
X-738095Y2197561D01*
X-738095Y2197561D02*
X-833333Y2245180D01*
X-833333Y2245180D02*
X-1071428Y2245180D01*
X-1071428Y2245180D02*
X-1166666Y2197561D01*
X-1166666Y2197561D02*
X-1214285Y2149942D01*
X-1214285Y2149942D02*
X-1261904Y2054704D01*
X-1261904Y2054704D02*
X-1261904Y1959466D01*
X-1261904Y1959466D02*
X-1214285Y1816609D01*
X-1214285Y1816609D02*
X-642857Y1245180D01*
X-642857Y1245180D02*
X-1261904Y1245180D01*
X23038094Y-168654819D02*
X23038094Y-167654819D01*
X23038094Y-167654819D02*
X22799999Y-167654819D01*
X22799999Y-167654819D02*
X22657142Y-167702438D01*
X22657142Y-167702438D02*
X22561904Y-167797676D01*
X22561904Y-167797676D02*
X22514285Y-167892914D01*
X22514285Y-167892914D02*
X22466666Y-168083390D01*
X22466666Y-168083390D02*
X22466666Y-168226247D01*
X22466666Y-168226247D02*
X22514285Y-168416723D01*
X22514285Y-168416723D02*
X22561904Y-168511961D01*
X22561904Y-168511961D02*
X22657142Y-168607200D01*
X22657142Y-168607200D02*
X22799999Y-168654819D01*
X22799999Y-168654819D02*
X23038094Y-168654819D01*
X21514285Y-168654819D02*
X22085713Y-168654819D01*
X21799999Y-168654819D02*
X21799999Y-167654819D01*
X21799999Y-167654819D02*
X21895237Y-167797676D01*
X21895237Y-167797676D02*
X21990475Y-167892914D01*
X21990475Y-167892914D02*
X22085713Y-167940533D01*
X208642857Y-147944819D02*
X208976190Y-147468628D01*
X209214285Y-147944819D02*
X209214285Y-146944819D01*
X209214285Y-146944819D02*
X208833333Y-146944819D01*
X208833333Y-146944819D02*
X208738095Y-146992438D01*
X208738095Y-146992438D02*
X208690476Y-147040057D01*
X208690476Y-147040057D02*
X208642857Y-147135295D01*
X208642857Y-147135295D02*
X208642857Y-147278152D01*
X208642857Y-147278152D02*
X208690476Y-147373390D01*
X208690476Y-147373390D02*
X208738095Y-147421009D01*
X208738095Y-147421009D02*
X208833333Y-147468628D01*
X208833333Y-147468628D02*
X209214285Y-147468628D01*
X208309523Y-146944819D02*
X207690476Y-146944819D01*
X207690476Y-146944819D02*
X208023809Y-147325771D01*
X208023809Y-147325771D02*
X207880952Y-147325771D01*
X207880952Y-147325771D02*
X207785714Y-147373390D01*
X207785714Y-147373390D02*
X207738095Y-147421009D01*
X207738095Y-147421009D02*
X207690476Y-147516247D01*
X207690476Y-147516247D02*
X207690476Y-147754342D01*
X207690476Y-147754342D02*
X207738095Y-147849580D01*
X207738095Y-147849580D02*
X207785714Y-147897200D01*
X207785714Y-147897200D02*
X207880952Y-147944819D01*
X207880952Y-147944819D02*
X208166666Y-147944819D01*
X208166666Y-147944819D02*
X208261904Y-147897200D01*
X208261904Y-147897200D02*
X208309523Y-147849580D01*
X206738095Y-147944819D02*
X207309523Y-147944819D01*
X207023809Y-147944819D02*
X207023809Y-146944819D01*
X207023809Y-146944819D02*
X207119047Y-147087676D01*
X207119047Y-147087676D02*
X207214285Y-147182914D01*
X207214285Y-147182914D02*
X207309523Y-147230533D01*
X738094Y-1854819D02*
X738094Y-854819D01*
X738094Y-854819D02*
X499999Y-854819D01*
X499999Y-854819D02*
X357142Y-902438D01*
X357142Y-902438D02*
X261904Y-997676D01*
X261904Y-997676D02*
X214285Y-1092914D01*
X214285Y-1092914D02*
X166666Y-1283390D01*
X166666Y-1283390D02*
X166666Y-1426247D01*
X166666Y-1426247D02*
X214285Y-1616723D01*
X214285Y-1616723D02*
X261904Y-1711961D01*
X261904Y-1711961D02*
X357142Y-1807200D01*
X357142Y-1807200D02*
X499999Y-1854819D01*
X499999Y-1854819D02*
X738094Y-1854819D01*
X-738095Y-854819D02*
X-261905Y-854819D01*
X-261905Y-854819D02*
X-214286Y-1331009D01*
X-214286Y-1331009D02*
X-261905Y-1283390D01*
X-261905Y-1283390D02*
X-357143Y-1235771D01*
X-357143Y-1235771D02*
X-595238Y-1235771D01*
X-595238Y-1235771D02*
X-690476Y-1283390D01*
X-690476Y-1283390D02*
X-738095Y-1331009D01*
X-738095Y-1331009D02*
X-785714Y-1426247D01*
X-785714Y-1426247D02*
X-785714Y-1664342D01*
X-785714Y-1664342D02*
X-738095Y-1759580D01*
X-738095Y-1759580D02*
X-690476Y-1807200D01*
X-690476Y-1807200D02*
X-595238Y-1854819D01*
X-595238Y-1854819D02*
X-357143Y-1854819D01*
X-357143Y-1854819D02*
X-261905Y-1807200D01*
X-261905Y-1807200D02*
X-214286Y-1759580D01*
X194642857Y-159254819D02*
X194976190Y-158778628D01*
X195214285Y-159254819D02*
X195214285Y-158254819D01*
X195214285Y-158254819D02*
X194833333Y-158254819D01*
X194833333Y-158254819D02*
X194738095Y-158302438D01*
X194738095Y-158302438D02*
X194690476Y-158350057D01*
X194690476Y-158350057D02*
X194642857Y-158445295D01*
X194642857Y-158445295D02*
X194642857Y-158588152D01*
X194642857Y-158588152D02*
X194690476Y-158683390D01*
X194690476Y-158683390D02*
X194738095Y-158731009D01*
X194738095Y-158731009D02*
X194833333Y-158778628D01*
X194833333Y-158778628D02*
X195214285Y-158778628D01*
X194309523Y-158254819D02*
X193690476Y-158254819D01*
X193690476Y-158254819D02*
X194023809Y-158635771D01*
X194023809Y-158635771D02*
X193880952Y-158635771D01*
X193880952Y-158635771D02*
X193785714Y-158683390D01*
X193785714Y-158683390D02*
X193738095Y-158731009D01*
X193738095Y-158731009D02*
X193690476Y-158826247D01*
X193690476Y-158826247D02*
X193690476Y-159064342D01*
X193690476Y-159064342D02*
X193738095Y-159159580D01*
X193738095Y-159159580D02*
X193785714Y-159207200D01*
X193785714Y-159207200D02*
X193880952Y-159254819D01*
X193880952Y-159254819D02*
X194166666Y-159254819D01*
X194166666Y-159254819D02*
X194261904Y-159207200D01*
X194261904Y-159207200D02*
X194309523Y-159159580D01*
X193071428Y-158254819D02*
X192976190Y-158254819D01*
X192976190Y-158254819D02*
X192880952Y-158302438D01*
X192880952Y-158302438D02*
X192833333Y-158350057D01*
X192833333Y-158350057D02*
X192785714Y-158445295D01*
X192785714Y-158445295D02*
X192738095Y-158635771D01*
X192738095Y-158635771D02*
X192738095Y-158873866D01*
X192738095Y-158873866D02*
X192785714Y-159064342D01*
X192785714Y-159064342D02*
X192833333Y-159159580D01*
X192833333Y-159159580D02*
X192880952Y-159207200D01*
X192880952Y-159207200D02*
X192976190Y-159254819D01*
X192976190Y-159254819D02*
X193071428Y-159254819D01*
X193071428Y-159254819D02*
X193166666Y-159207200D01*
X193166666Y-159207200D02*
X193214285Y-159159580D01*
X193214285Y-159159580D02*
X193261904Y-159064342D01*
X193261904Y-159064342D02*
X193309523Y-158873866D01*
X193309523Y-158873866D02*
X193309523Y-158635771D01*
X193309523Y-158635771D02*
X193261904Y-158445295D01*
X193261904Y-158445295D02*
X193214285Y-158350057D01*
X193214285Y-158350057D02*
X193166666Y-158302438D01*
X193166666Y-158302438D02*
X193071428Y-158254819D01*
X205738094Y-152854819D02*
X205738094Y-151854819D01*
X205738094Y-151854819D02*
X205499999Y-151854819D01*
X205499999Y-151854819D02*
X205357142Y-151902438D01*
X205357142Y-151902438D02*
X205261904Y-151997676D01*
X205261904Y-151997676D02*
X205214285Y-152092914D01*
X205214285Y-152092914D02*
X205166666Y-152283390D01*
X205166666Y-152283390D02*
X205166666Y-152426247D01*
X205166666Y-152426247D02*
X205214285Y-152616723D01*
X205214285Y-152616723D02*
X205261904Y-152711961D01*
X205261904Y-152711961D02*
X205357142Y-152807200D01*
X205357142Y-152807200D02*
X205499999Y-152854819D01*
X205499999Y-152854819D02*
X205738094Y-152854819D01*
X204309523Y-152188152D02*
X204309523Y-152854819D01*
X204547618Y-151807200D02*
X204785713Y-152521485D01*
X204785713Y-152521485D02*
X204166666Y-152521485D01*
X175642857Y-171264819D02*
X175976190Y-170788628D01*
X176214285Y-171264819D02*
X176214285Y-170264819D01*
X176214285Y-170264819D02*
X175833333Y-170264819D01*
X175833333Y-170264819D02*
X175738095Y-170312438D01*
X175738095Y-170312438D02*
X175690476Y-170360057D01*
X175690476Y-170360057D02*
X175642857Y-170455295D01*
X175642857Y-170455295D02*
X175642857Y-170598152D01*
X175642857Y-170598152D02*
X175690476Y-170693390D01*
X175690476Y-170693390D02*
X175738095Y-170741009D01*
X175738095Y-170741009D02*
X175833333Y-170788628D01*
X175833333Y-170788628D02*
X176214285Y-170788628D01*
X175309523Y-170264819D02*
X174690476Y-170264819D01*
X174690476Y-170264819D02*
X175023809Y-170645771D01*
X175023809Y-170645771D02*
X174880952Y-170645771D01*
X174880952Y-170645771D02*
X174785714Y-170693390D01*
X174785714Y-170693390D02*
X174738095Y-170741009D01*
X174738095Y-170741009D02*
X174690476Y-170836247D01*
X174690476Y-170836247D02*
X174690476Y-171074342D01*
X174690476Y-171074342D02*
X174738095Y-171169580D01*
X174738095Y-171169580D02*
X174785714Y-171217200D01*
X174785714Y-171217200D02*
X174880952Y-171264819D01*
X174880952Y-171264819D02*
X175166666Y-171264819D01*
X175166666Y-171264819D02*
X175261904Y-171217200D01*
X175261904Y-171217200D02*
X175309523Y-171169580D01*
X174357142Y-170264819D02*
X173738095Y-170264819D01*
X173738095Y-170264819D02*
X174071428Y-170645771D01*
X174071428Y-170645771D02*
X173928571Y-170645771D01*
X173928571Y-170645771D02*
X173833333Y-170693390D01*
X173833333Y-170693390D02*
X173785714Y-170741009D01*
X173785714Y-170741009D02*
X173738095Y-170836247D01*
X173738095Y-170836247D02*
X173738095Y-171074342D01*
X173738095Y-171074342D02*
X173785714Y-171169580D01*
X173785714Y-171169580D02*
X173833333Y-171217200D01*
X173833333Y-171217200D02*
X173928571Y-171264819D01*
X173928571Y-171264819D02*
X174214285Y-171264819D01*
X174214285Y-171264819D02*
X174309523Y-171217200D01*
X174309523Y-171217200D02*
X174357142Y-171169580D01*
X131608381Y-107530819D02*
X131941714Y-107054628D01*
X132179809Y-107530819D02*
X132179809Y-106530819D01*
X132179809Y-106530819D02*
X131798857Y-106530819D01*
X131798857Y-106530819D02*
X131703619Y-106578438D01*
X131703619Y-106578438D02*
X131656000Y-106626057D01*
X131656000Y-106626057D02*
X131608381Y-106721295D01*
X131608381Y-106721295D02*
X131608381Y-106864152D01*
X131608381Y-106864152D02*
X131656000Y-106959390D01*
X131656000Y-106959390D02*
X131703619Y-107007009D01*
X131703619Y-107007009D02*
X131798857Y-107054628D01*
X131798857Y-107054628D02*
X132179809Y-107054628D01*
X131179809Y-107007009D02*
X130846476Y-107007009D01*
X130703619Y-107530819D02*
X131179809Y-107530819D01*
X131179809Y-107530819D02*
X131179809Y-106530819D01*
X131179809Y-106530819D02*
X130703619Y-106530819D01*
X130322666Y-107483200D02*
X130179809Y-107530819D01*
X130179809Y-107530819D02*
X129941714Y-107530819D01*
X129941714Y-107530819D02*
X129846476Y-107483200D01*
X129846476Y-107483200D02*
X129798857Y-107435580D01*
X129798857Y-107435580D02*
X129751238Y-107340342D01*
X129751238Y-107340342D02*
X129751238Y-107245104D01*
X129751238Y-107245104D02*
X129798857Y-107149866D01*
X129798857Y-107149866D02*
X129846476Y-107102247D01*
X129846476Y-107102247D02*
X129941714Y-107054628D01*
X129941714Y-107054628D02*
X130132190Y-107007009D01*
X130132190Y-107007009D02*
X130227428Y-106959390D01*
X130227428Y-106959390D02*
X130275047Y-106911771D01*
X130275047Y-106911771D02*
X130322666Y-106816533D01*
X130322666Y-106816533D02*
X130322666Y-106721295D01*
X130322666Y-106721295D02*
X130275047Y-106626057D01*
X130275047Y-106626057D02*
X130227428Y-106578438D01*
X130227428Y-106578438D02*
X130132190Y-106530819D01*
X130132190Y-106530819D02*
X129894095Y-106530819D01*
X129894095Y-106530819D02*
X129751238Y-106578438D01*
X129322666Y-107007009D02*
X128989333Y-107007009D01*
X128846476Y-107530819D02*
X129322666Y-107530819D01*
X129322666Y-107530819D02*
X129322666Y-106530819D01*
X129322666Y-106530819D02*
X128846476Y-106530819D01*
X128560761Y-106530819D02*
X127989333Y-106530819D01*
X128275047Y-107530819D02*
X128275047Y-106530819D01*
X194338094Y-156854819D02*
X194338094Y-155854819D01*
X194338094Y-155854819D02*
X194099999Y-155854819D01*
X194099999Y-155854819D02*
X193957142Y-155902438D01*
X193957142Y-155902438D02*
X193861904Y-155997676D01*
X193861904Y-155997676D02*
X193814285Y-156092914D01*
X193814285Y-156092914D02*
X193766666Y-156283390D01*
X193766666Y-156283390D02*
X193766666Y-156426247D01*
X193766666Y-156426247D02*
X193814285Y-156616723D01*
X193814285Y-156616723D02*
X193861904Y-156711961D01*
X193861904Y-156711961D02*
X193957142Y-156807200D01*
X193957142Y-156807200D02*
X194099999Y-156854819D01*
X194099999Y-156854819D02*
X194338094Y-156854819D01*
X193433332Y-155854819D02*
X192814285Y-155854819D01*
X192814285Y-155854819D02*
X193147618Y-156235771D01*
X193147618Y-156235771D02*
X193004761Y-156235771D01*
X193004761Y-156235771D02*
X192909523Y-156283390D01*
X192909523Y-156283390D02*
X192861904Y-156331009D01*
X192861904Y-156331009D02*
X192814285Y-156426247D01*
X192814285Y-156426247D02*
X192814285Y-156664342D01*
X192814285Y-156664342D02*
X192861904Y-156759580D01*
X192861904Y-156759580D02*
X192909523Y-156807200D01*
X192909523Y-156807200D02*
X193004761Y-156854819D01*
X193004761Y-156854819D02*
X193290475Y-156854819D01*
X193290475Y-156854819D02*
X193385713Y-156807200D01*
X193385713Y-156807200D02*
X193433332Y-156759580D01*
D12*
X79364930Y-74636649D02*
X78412550Y-74636649D01*
X78888740Y-75112839D02*
X78888740Y-74160458D01*
X85874930Y-74626649D02*
X84922550Y-74626649D01*
D10*
X166542857Y5145180D02*
X166876190Y5621371D01*
X167114285Y5145180D02*
X167114285Y6145180D01*
X167114285Y6145180D02*
X166733333Y6145180D01*
X166733333Y6145180D02*
X166638095Y6097561D01*
X166638095Y6097561D02*
X166590476Y6049942D01*
X166590476Y6049942D02*
X166542857Y5954704D01*
X166542857Y5954704D02*
X166542857Y5811847D01*
X166542857Y5811847D02*
X166590476Y5716609D01*
X166590476Y5716609D02*
X166638095Y5668990D01*
X166638095Y5668990D02*
X166733333Y5621371D01*
X166733333Y5621371D02*
X167114285Y5621371D01*
X166209523Y6145180D02*
X165590476Y6145180D01*
X165590476Y6145180D02*
X165923809Y5764228D01*
X165923809Y5764228D02*
X165780952Y5764228D01*
X165780952Y5764228D02*
X165685714Y5716609D01*
X165685714Y5716609D02*
X165638095Y5668990D01*
X165638095Y5668990D02*
X165590476Y5573752D01*
X165590476Y5573752D02*
X165590476Y5335657D01*
X165590476Y5335657D02*
X165638095Y5240419D01*
X165638095Y5240419D02*
X165685714Y5192800D01*
X165685714Y5192800D02*
X165780952Y5145180D01*
X165780952Y5145180D02*
X166066666Y5145180D01*
X166066666Y5145180D02*
X166161904Y5192800D01*
X166161904Y5192800D02*
X166209523Y5240419D01*
X164733333Y5811847D02*
X164733333Y5145180D01*
X164971428Y6192800D02*
X165209523Y5478514D01*
X165209523Y5478514D02*
X164590476Y5478514D01*
X131514142Y-115659009D02*
X131371285Y-115706628D01*
X131371285Y-115706628D02*
X131323666Y-115754247D01*
X131323666Y-115754247D02*
X131276047Y-115849485D01*
X131276047Y-115849485D02*
X131276047Y-115992342D01*
X131276047Y-115992342D02*
X131323666Y-116087580D01*
X131323666Y-116087580D02*
X131371285Y-116135200D01*
X131371285Y-116135200D02*
X131466523Y-116182819D01*
X131466523Y-116182819D02*
X131847475Y-116182819D01*
X131847475Y-116182819D02*
X131847475Y-115182819D01*
X131847475Y-115182819D02*
X131514142Y-115182819D01*
X131514142Y-115182819D02*
X131418904Y-115230438D01*
X131418904Y-115230438D02*
X131371285Y-115278057D01*
X131371285Y-115278057D02*
X131323666Y-115373295D01*
X131323666Y-115373295D02*
X131323666Y-115468533D01*
X131323666Y-115468533D02*
X131371285Y-115563771D01*
X131371285Y-115563771D02*
X131418904Y-115611390D01*
X131418904Y-115611390D02*
X131514142Y-115659009D01*
X131514142Y-115659009D02*
X131847475Y-115659009D01*
X130656999Y-115182819D02*
X130466523Y-115182819D01*
X130466523Y-115182819D02*
X130371285Y-115230438D01*
X130371285Y-115230438D02*
X130276047Y-115325676D01*
X130276047Y-115325676D02*
X130228428Y-115516152D01*
X130228428Y-115516152D02*
X130228428Y-115849485D01*
X130228428Y-115849485D02*
X130276047Y-116039961D01*
X130276047Y-116039961D02*
X130371285Y-116135200D01*
X130371285Y-116135200D02*
X130466523Y-116182819D01*
X130466523Y-116182819D02*
X130656999Y-116182819D01*
X130656999Y-116182819D02*
X130752237Y-116135200D01*
X130752237Y-116135200D02*
X130847475Y-116039961D01*
X130847475Y-116039961D02*
X130895094Y-115849485D01*
X130895094Y-115849485D02*
X130895094Y-115516152D01*
X130895094Y-115516152D02*
X130847475Y-115325676D01*
X130847475Y-115325676D02*
X130752237Y-115230438D01*
X130752237Y-115230438D02*
X130656999Y-115182819D01*
X129609380Y-115182819D02*
X129418904Y-115182819D01*
X129418904Y-115182819D02*
X129323666Y-115230438D01*
X129323666Y-115230438D02*
X129228428Y-115325676D01*
X129228428Y-115325676D02*
X129180809Y-115516152D01*
X129180809Y-115516152D02*
X129180809Y-115849485D01*
X129180809Y-115849485D02*
X129228428Y-116039961D01*
X129228428Y-116039961D02*
X129323666Y-116135200D01*
X129323666Y-116135200D02*
X129418904Y-116182819D01*
X129418904Y-116182819D02*
X129609380Y-116182819D01*
X129609380Y-116182819D02*
X129704618Y-116135200D01*
X129704618Y-116135200D02*
X129799856Y-116039961D01*
X129799856Y-116039961D02*
X129847475Y-115849485D01*
X129847475Y-115849485D02*
X129847475Y-115516152D01*
X129847475Y-115516152D02*
X129799856Y-115325676D01*
X129799856Y-115325676D02*
X129704618Y-115230438D01*
X129704618Y-115230438D02*
X129609380Y-115182819D01*
X128895094Y-115182819D02*
X128323666Y-115182819D01*
X128609380Y-116182819D02*
X128609380Y-115182819D01*
X103833333Y-145754819D02*
X103833333Y-146469104D01*
X103833333Y-146469104D02*
X103880952Y-146611961D01*
X103880952Y-146611961D02*
X103976190Y-146707200D01*
X103976190Y-146707200D02*
X104119047Y-146754819D01*
X104119047Y-146754819D02*
X104214285Y-146754819D01*
X103452380Y-145754819D02*
X102785714Y-145754819D01*
X102785714Y-145754819D02*
X103214285Y-146754819D01*
%TO.C,F1*%
D14*
X96727064Y-68090000D02*
X95272936Y-68090000D01*
X96727064Y-69910000D02*
X95272936Y-69910000D01*
%TO.C,J6*%
X88198600Y-140193000D02*
X98663400Y-140193000D01*
X88198600Y-146289000D02*
X88198600Y-140193000D01*
X93861825Y-146289000D02*
X88198600Y-146289000D01*
X98663400Y-140193000D02*
X98663400Y-146289000D01*
X98663400Y-146289000D02*
X95540175Y-146289000D01*
%TO.C,J3*%
X85875000Y-51562000D02*
X85875000Y-59242000D01*
X88535000Y-48962000D02*
X87205000Y-48962000D01*
X88535000Y-50292000D02*
X88535000Y-48962000D01*
X88535000Y-51562000D02*
X85875000Y-51562000D01*
X88535000Y-51562000D02*
X88535000Y-59242000D01*
X88535000Y-59242000D02*
X85875000Y-59242000D01*
%TO.C,C62*%
X98453641Y-72620000D02*
X98146359Y-72620000D01*
X98453641Y-73380000D02*
X98146359Y-73380000D01*
%TO.C,D2*%
X101453641Y-79120000D02*
X101146359Y-79120000D01*
X101453641Y-79880000D02*
X101146359Y-79880000D01*
%TO.C,R32*%
X105653641Y-77220000D02*
X105346359Y-77220000D01*
X105653641Y-77980000D02*
X105346359Y-77980000D01*
%TO.C,D1*%
X93090000Y-73472936D02*
X93090000Y-74927064D01*
X94910000Y-73472936D02*
X94910000Y-74927064D01*
%TO.C,J5*%
X80965000Y-78590000D02*
X82665000Y-78590000D01*
X80965000Y-87930000D02*
X82665000Y-87930000D01*
%TO.C,U4*%
X107680000Y-63610000D02*
X107680000Y-64610000D01*
X107680000Y-81610000D02*
X107680000Y-80610000D01*
X108430000Y-63610000D02*
X107680000Y-63610000D01*
X108430000Y-81610000D02*
X107680000Y-81610000D01*
%TO.C,R31*%
X103846359Y-74110000D02*
X104153641Y-74110000D01*
X103846359Y-74870000D02*
X104153641Y-74870000D01*
%TO.C,J2*%
X129400000Y-59000000D02*
X130035000Y-59000000D01*
X130035000Y-59000000D02*
X130035000Y-58365000D01*
%TO.C,U8*%
D15*
X101610562Y-112546000D02*
X109610562Y-112546000D01*
X109610562Y-120546000D01*
X101610562Y-120546000D01*
X101610562Y-112546000D01*
D16*
X110484304Y-112676000D02*
G75*
G02*
X110256820Y-112676000I-113742J0D01*
G01*
X110256820Y-112676000D02*
G75*
G02*
X110484304Y-112676000I113742J0D01*
G01*
%TO.C,D5*%
D14*
X104653641Y-78920000D02*
X104346359Y-78920000D01*
X104653641Y-79680000D02*
X104346359Y-79680000D01*
%TO.C,R30*%
X96846359Y-79920000D02*
X97153641Y-79920000D01*
X96846359Y-80680000D02*
X97153641Y-80680000D01*
D17*
%TO.C,G\u002A\u002A\u002A*%
G36*
X118501554Y-95339509D02*
G01*
X118504814Y-95345777D01*
X118487663Y-95353401D01*
X118476632Y-95351897D01*
X118473772Y-95339509D01*
X118476826Y-95337016D01*
X118501554Y-95339509D01*
G37*
%TO.C,D4*%
D14*
X102346359Y-76620000D02*
X102653641Y-76620000D01*
X102346359Y-77380000D02*
X102653641Y-77380000D01*
%TO.C,R33*%
X87346359Y-84130000D02*
X87653641Y-84130000D01*
X87346359Y-84890000D02*
X87653641Y-84890000D01*
%TO.C,J1*%
D18*
X77330000Y-62120000D02*
X77330000Y-71120000D01*
X80830000Y-71120000D02*
X77330000Y-71120000D01*
X80830000Y-71120000D02*
X80830000Y-71720000D01*
X81010000Y-62120000D02*
X77330000Y-62120000D01*
X81010000Y-71720000D02*
X80830000Y-71720000D01*
X83650000Y-62120000D02*
X87210000Y-62120000D01*
X83650000Y-71470000D02*
X87210000Y-71470000D01*
X89850000Y-62220000D02*
X92030000Y-62220000D01*
X91530000Y-65070000D02*
X91530000Y-71470000D01*
X91530000Y-65070000D02*
X92030000Y-65070000D01*
X91530000Y-71470000D02*
X89850000Y-71470000D01*
X92030000Y-62220000D02*
X92030000Y-65070000D01*
%TO.C,SW1*%
D19*
X128154000Y-102924000D02*
X132218000Y-102924000D01*
X128154000Y-103353260D02*
X128154000Y-102924000D01*
X128154000Y-105972000D02*
X128154000Y-105542740D01*
X132218000Y-102924000D02*
X132218000Y-103353260D01*
X132218000Y-105542740D02*
X132218000Y-105972000D01*
X132218000Y-105972000D02*
X128154000Y-105972000D01*
%TO.C,D3*%
D14*
X96646359Y-78620000D02*
X96953641Y-78620000D01*
X96646359Y-79380000D02*
X96953641Y-79380000D01*
%TO.C,U1*%
D12*
X81994918Y-74631416D02*
X79965083Y-74631416D01*
X83014188Y-74631416D02*
X84454917Y-74631416D01*
X81289918Y-73916416D02*
G75*
G02*
X81335887Y-75408739I709999J-724999D01*
G01*
X79965083Y-74631416D02*
G75*
G02*
X77949917Y-74631416I-1007583J0D01*
G01*
X77949917Y-74631416D02*
G75*
G02*
X79965083Y-74631416I1007583J0D01*
G01*
D20*
X82154918Y-74641416D02*
G75*
G02*
X81844918Y-74641416I-155000J0D01*
G01*
X81844918Y-74641416D02*
G75*
G02*
X82154918Y-74641416I155000J0D01*
G01*
D12*
X86470083Y-74631416D02*
G75*
G02*
X84454917Y-74631416I-1007583J0D01*
G01*
X84454917Y-74631416D02*
G75*
G02*
X86470083Y-74631416I1007583J0D01*
G01*
%TO.C,R34*%
D14*
X86220000Y-81153641D02*
X86220000Y-80846359D01*
X86980000Y-81153641D02*
X86980000Y-80846359D01*
%TO.C,SW2*%
D19*
X128050000Y-111631000D02*
X132114000Y-111631000D01*
X128050000Y-112060260D02*
X128050000Y-111631000D01*
X128050000Y-114679000D02*
X128050000Y-114249740D01*
X132114000Y-111631000D02*
X132114000Y-112060260D01*
X132114000Y-114249740D02*
X132114000Y-114679000D01*
X132114000Y-114679000D02*
X128050000Y-114679000D01*
%TO.C,J7*%
D14*
X100390000Y-141890000D02*
X100390000Y-143040000D01*
X101440000Y-140900000D02*
X101440000Y-141890000D01*
X101440000Y-141890000D02*
X100390000Y-141890000D01*
X105440000Y-145010000D02*
X101560000Y-145010000D01*
X105560000Y-141890000D02*
X106610000Y-141890000D01*
X106610000Y-141890000D02*
X106610000Y-143040000D01*
%TD*%
M02*
