%TF.GenerationSoftware,KiCad,Pcbnew,10.0.3+dfsg-1*%
%TF.CreationDate,2026-09-06T21:22:59-03:00*%
%TF.ProjectId,bitaxeGamma,62697461-7865-4476-916d-6d612e6b6963,rev?*%
%TF.SameCoordinates,Original*%
%TF.FileFunction,Copper,L1,Top*%
%TF.FilePolarity,Positive*%
%FSLAX46Y46*%
G04 Gerber Fmt 4.6, Leading zero omitted, Abs format (unit mm)*
G04 Created by KiCad (PCBNEW 10.0.3+dfsg-1) date 2026-09-06 21:22:59*
%MOMM*%
%LPD*%
G01*
G04 APERTURE LIST*
G04 Aperture macros list*
%AMRoundRect*
0 Rectangle with rounded corners*
0 $1 Rounding radius*
0 $2 $3 $4 $5 $6 $7 $8 $9 X,Y pos of 4 corners*
0 Add a 4 corners polygon primitive as box body*
4,1,4,$2,$3,$4,$5,$6,$7,$8,$9,$2,$3,0*
0 Add four circle primitives for the rounded corners*
1,1,$1+$1,$2,$3*
1,1,$1+$1,$4,$5*
1,1,$1+$1,$6,$7*
1,1,$1+$1,$8,$9*
0 Add four rect primitives between the rounded corners*
20,1,$1+$1,$2,$3,$4,$5,0*
20,1,$1+$1,$4,$5,$6,$7,0*
20,1,$1+$1,$6,$7,$8,$9,0*
20,1,$1+$1,$8,$9,$2,$3,0*%
G04 Aperture macros list end*
%TA.AperFunction,EtchedComponent*%
%ADD10C,0.000100*%
%TD*%
%TA.AperFunction,SMDPad,CuDef*%
%ADD11RoundRect,0.250000X-0.325000X-0.650000X0.325000X-0.650000X0.325000X0.650000X-0.325000X0.650000X0*%
%TD*%
%TA.AperFunction,SMDPad,CuDef*%
%ADD12RoundRect,0.250000X0.475000X-0.250000X0.475000X0.250000X-0.475000X0.250000X-0.475000X-0.250000X0*%
%TD*%
%TA.AperFunction,SMDPad,CuDef*%
%ADD13RoundRect,0.250000X-1.100000X0.325000X-1.100000X-0.325000X1.100000X-0.325000X1.100000X0.325000X0*%
%TD*%
%TA.AperFunction,SMDPad,CuDef*%
%ADD14C,1.500000*%
%TD*%
%TA.AperFunction,SMDPad,CuDef*%
%ADD15RoundRect,0.140000X-0.140000X-0.170000X0.140000X-0.170000X0.140000X0.170000X-0.140000X0.170000X0*%
%TD*%
%TA.AperFunction,SMDPad,CuDef*%
%ADD16C,1.000000*%
%TD*%
%TA.AperFunction,SMDPad,CuDef*%
%ADD17R,0.250000X0.250000*%
%TD*%
%TA.AperFunction,SMDPad,CuDef*%
%ADD18RoundRect,0.140000X0.140000X0.170000X-0.140000X0.170000X-0.140000X-0.170000X0.140000X-0.170000X0*%
%TD*%
%TA.AperFunction,SMDPad,CuDef*%
%ADD19RoundRect,0.140000X0.170000X-0.140000X0.170000X0.140000X-0.170000X0.140000X-0.170000X-0.140000X0*%
%TD*%
%TA.AperFunction,SMDPad,CuDef*%
%ADD20RoundRect,0.140000X-0.170000X0.140000X-0.170000X-0.140000X0.170000X-0.140000X0.170000X0.140000X0*%
%TD*%
%TA.AperFunction,SMDPad,CuDef*%
%ADD21RoundRect,0.135000X-0.185000X0.135000X-0.185000X-0.135000X0.185000X-0.135000X0.185000X0.135000X0*%
%TD*%
%TA.AperFunction,SMDPad,CuDef*%
%ADD22RoundRect,0.250000X0.312500X0.625000X-0.312500X0.625000X-0.312500X-0.625000X0.312500X-0.625000X0*%
%TD*%
%TA.AperFunction,SMDPad,CuDef*%
%ADD23RoundRect,0.150000X-0.512500X-0.150000X0.512500X-0.150000X0.512500X0.150000X-0.512500X0.150000X0*%
%TD*%
%TA.AperFunction,SMDPad,CuDef*%
%ADD24RoundRect,0.135000X-0.135000X-0.185000X0.135000X-0.185000X0.135000X0.185000X-0.135000X0.185000X0*%
%TD*%
%TA.AperFunction,SMDPad,CuDef*%
%ADD25RoundRect,0.135000X0.135000X0.185000X-0.135000X0.185000X-0.135000X-0.185000X0.135000X-0.185000X0*%
%TD*%
%TA.AperFunction,SMDPad,CuDef*%
%ADD26RoundRect,0.250000X-0.250000X-0.475000X0.250000X-0.475000X0.250000X0.475000X-0.250000X0.475000X0*%
%TD*%
%TA.AperFunction,SMDPad,CuDef*%
%ADD27RoundRect,0.250000X-0.325000X-1.100000X0.325000X-1.100000X0.325000X1.100000X-0.325000X1.100000X0*%
%TD*%
%TA.AperFunction,SMDPad,CuDef*%
%ADD28R,1.100000X1.300000*%
%TD*%
%TA.AperFunction,ComponentPad*%
%ADD29C,0.800000*%
%TD*%
%TA.AperFunction,ComponentPad*%
%ADD30C,6.000000*%
%TD*%
%TA.AperFunction,SMDPad,CuDef*%
%ADD31RoundRect,0.250000X-0.650000X0.325000X-0.650000X-0.325000X0.650000X-0.325000X0.650000X0.325000X0*%
%TD*%
%TA.AperFunction,SMDPad,CuDef*%
%ADD32RoundRect,0.135000X0.185000X-0.135000X0.185000X0.135000X-0.185000X0.135000X-0.185000X-0.135000X0*%
%TD*%
%TA.AperFunction,SMDPad,CuDef*%
%ADD33R,0.400000X1.100000*%
%TD*%
%TA.AperFunction,ComponentPad*%
%ADD34R,1.700000X1.700000*%
%TD*%
%TA.AperFunction,ComponentPad*%
%ADD35O,1.700000X1.700000*%
%TD*%
%TA.AperFunction,SMDPad,CuDef*%
%ADD36RoundRect,0.100000X-0.637500X-0.100000X0.637500X-0.100000X0.637500X0.100000X-0.637500X0.100000X0*%
%TD*%
%TA.AperFunction,SMDPad,CuDef*%
%ADD37R,4.000000X2.600000*%
%TD*%
%TA.AperFunction,SMDPad,CuDef*%
%ADD38RoundRect,0.062500X0.062500X-0.337500X0.062500X0.337500X-0.062500X0.337500X-0.062500X-0.337500X0*%
%TD*%
%TA.AperFunction,SMDPad,CuDef*%
%ADD39RoundRect,0.062500X0.337500X-0.062500X0.337500X0.062500X-0.337500X0.062500X-0.337500X-0.062500X0*%
%TD*%
%TA.AperFunction,ComponentPad*%
%ADD40C,0.400000*%
%TD*%
%TA.AperFunction,SMDPad,CuDef*%
%ADD41R,5.300000X3.300000*%
%TD*%
%TA.AperFunction,SMDPad,CuDef*%
%ADD42R,0.952500X0.558800*%
%TD*%
%TA.AperFunction,ComponentPad*%
%ADD43C,1.574800*%
%TD*%
%TA.AperFunction,ComponentPad*%
%ADD44C,1.700000*%
%TD*%
%TA.AperFunction,ComponentPad*%
%ADD45O,1.800000X1.000000*%
%TD*%
%TA.AperFunction,ComponentPad*%
%ADD46O,2.100000X1.000000*%
%TD*%
%TA.AperFunction,ViaPad*%
%ADD47C,0.800000*%
%TD*%
%TA.AperFunction,ViaPad*%
%ADD48C,0.400000*%
%TD*%
%TA.AperFunction,ViaPad*%
%ADD49C,1.000000*%
%TD*%
%TA.AperFunction,ViaPad*%
%ADD50C,0.500000*%
%TD*%
%TA.AperFunction,ViaPad*%
%ADD51C,1.200000*%
%TD*%
%TA.AperFunction,Conductor*%
%ADD52C,0.200000*%
%TD*%
%TA.AperFunction,Conductor*%
%ADD53C,0.508000*%
%TD*%
%TA.AperFunction,Conductor*%
%ADD54C,0.254000*%
%TD*%
%TA.AperFunction,Conductor*%
%ADD55C,1.000000*%
%TD*%
%TA.AperFunction,Conductor*%
%ADD56C,0.300000*%
%TD*%
%TA.AperFunction,Conductor*%
%ADD57C,1.500000*%
%TD*%
G04 APERTURE END LIST*
%TO.C,T1*%
D10*
X90654500Y-77715000D02*
X90724500Y-77715000D01*
X90724500Y-77965000D01*
X90654500Y-77965000D01*
X90654500Y-77715000D01*
%TA.AperFunction,EtchedComponent*%
G36*
X90654500Y-77715000D02*
G01*
X90724500Y-77715000D01*
X90724500Y-77965000D01*
X90654500Y-77965000D01*
X90654500Y-77715000D01*
G37*
%TD.AperFunction*%
%TD*%
D11*
%TO.P,C20,1*%
%TO.N,/VDD*%
X107435000Y-81120000D03*
%TO.P,C20,2*%
%TO.N,GND*%
X110385000Y-81120000D03*
%TD*%
D12*
%TO.P,C15,1*%
%TO.N,/VDD*%
X100360000Y-79860000D03*
%TO.P,C15,2*%
%TO.N,GND*%
X100360000Y-77960000D03*
%TD*%
D13*
%TO.P,C51,1*%
%TO.N,/5V*%
X102045000Y-139815000D03*
%TO.P,C51,2*%
%TO.N,GND*%
X102045000Y-142765000D03*
%TD*%
D14*
%TO.P,TP19,1,1*%
%TO.N,/BM1370/1V2*%
X114860000Y-134280000D03*
%TD*%
D15*
%TO.P,C9,1*%
%TO.N,/5V*%
X96090000Y-72760000D03*
%TO.P,C9,2*%
%TO.N,GND*%
X97050000Y-72760000D03*
%TD*%
D16*
%TO.P,FID2,*%
%TO.N,*%
X125270000Y-50310000D03*
%TD*%
%TO.P,FID4,*%
%TO.N,*%
X132260000Y-139060000D03*
%TD*%
%TO.P,FID3,*%
%TO.N,*%
X78850000Y-139070000D03*
%TD*%
D17*
%TO.P,T1,1*%
%TO.N,/Power/AGND*%
X90535000Y-77840000D03*
%TO.P,T1,2*%
%TO.N,GND*%
X90845000Y-77840000D03*
%TD*%
D18*
%TO.P,C41,1*%
%TO.N,/VDD*%
X101570000Y-103154000D03*
%TO.P,C41,2*%
%TO.N,/BM1370/VDD1_1*%
X100610000Y-103154000D03*
%TD*%
D14*
%TO.P,TP21,1,1*%
%TO.N,Net-(U8-INV_CLKO)*%
X122860000Y-121970000D03*
%TD*%
%TO.P,TP18,1,1*%
%TO.N,Net-(U8-LITE_PAD)*%
X120820000Y-119010000D03*
%TD*%
D19*
%TO.P,C42,1*%
%TO.N,Net-(U8-VDDIO_12_1)*%
X100655438Y-122810000D03*
%TO.P,C42,2*%
%TO.N,GND*%
X100655438Y-121850000D03*
%TD*%
D14*
%TO.P,TP8,1,1*%
%TO.N,/3V3*%
X123610000Y-84120000D03*
%TD*%
D20*
%TO.P,C40,1*%
%TO.N,/VDD*%
X108072400Y-104360000D03*
%TO.P,C40,2*%
%TO.N,GND*%
X108072400Y-105320000D03*
%TD*%
D21*
%TO.P,R23,1,1*%
%TO.N,/Fan/TEMP_P*%
X94520000Y-123850000D03*
%TO.P,R23,2,2*%
%TO.N,/Fan/TEMP_DP*%
X94520000Y-124870000D03*
%TD*%
D18*
%TO.P,C46,1*%
%TO.N,/BM1370/VDD2_1*%
X99161000Y-108024000D03*
%TO.P,C46,2*%
%TO.N,/BM1370/VDD3_1*%
X98201000Y-108024000D03*
%TD*%
D20*
%TO.P,C39,1*%
%TO.N,/VDD*%
X102110000Y-104360000D03*
%TO.P,C39,2*%
%TO.N,GND*%
X102110000Y-105320000D03*
%TD*%
D22*
%TO.P,R12,1*%
%TO.N,GND*%
X93012500Y-88210000D03*
%TO.P,R12,2*%
%TO.N,Net-(C11-Pad1)*%
X90087500Y-88210000D03*
%TD*%
D20*
%TO.P,C13,1*%
%TO.N,Net-(U2-VOSNS)*%
X87630000Y-77010000D03*
%TO.P,C13,2*%
%TO.N,Net-(U2-GOSNS)*%
X87630000Y-77970000D03*
%TD*%
D12*
%TO.P,C14,1*%
%TO.N,/VDD*%
X104580000Y-79880000D03*
%TO.P,C14,2*%
%TO.N,GND*%
X104580000Y-77980000D03*
%TD*%
D23*
%TO.P,U6,1,VIN*%
%TO.N,/5V*%
X101392500Y-129520000D03*
%TO.P,U6,2,GND*%
%TO.N,GND*%
X101392500Y-130470000D03*
%TO.P,U6,3,EN*%
%TO.N,/5V*%
X101392500Y-131420000D03*
%TO.P,U6,4,PG*%
%TO.N,unconnected-(U6-PG-Pad4)*%
X103667500Y-131420000D03*
%TO.P,U6,5,VOUT*%
%TO.N,/BM1370/0V8*%
X103667500Y-129520000D03*
%TD*%
D24*
%TO.P,R1,1*%
%TO.N,Net-(U2-BP1V5)*%
X85590000Y-75500000D03*
%TO.P,R1,2*%
%TO.N,Net-(U2-MSEL1)*%
X86610000Y-75500000D03*
%TD*%
D14*
%TO.P,TP13,1,1*%
%TO.N,/BM1370/RST_N*%
X110990000Y-96640000D03*
%TD*%
%TO.P,TP37,1,1*%
%TO.N,/Fan/FAN_TACH*%
X93610000Y-140380000D03*
%TD*%
%TO.P,TP35,1,1*%
%TO.N,/Fan/TEMP_P*%
X96280000Y-123890000D03*
%TD*%
D25*
%TO.P,R8,1*%
%TO.N,Net-(U2-EN{slash}UVLO)*%
X90070000Y-70100000D03*
%TO.P,R8,2*%
%TO.N,/Power/AGND*%
X89050000Y-70100000D03*
%TD*%
%TO.P,R11,1*%
%TO.N,/5V*%
X94390000Y-72930000D03*
%TO.P,R11,2*%
%TO.N,Net-(U2-AVIN)*%
X93370000Y-72930000D03*
%TD*%
D11*
%TO.P,C18,1*%
%TO.N,/VDD*%
X107435000Y-87660000D03*
%TO.P,C18,2*%
%TO.N,GND*%
X110385000Y-87660000D03*
%TD*%
D14*
%TO.P,TP38,1,1*%
%TO.N,/Fan/FAN_PWM*%
X90300000Y-140410000D03*
%TD*%
%TO.P,TP33,1,1*%
%TO.N,/BM1370/BO*%
X87080000Y-118492000D03*
%TD*%
%TO.P,TP3,1,1*%
%TO.N,/VDD*%
X101980000Y-91230000D03*
%TD*%
D26*
%TO.P,C24,1*%
%TO.N,/3V3*%
X125440000Y-86180000D03*
%TO.P,C24,2*%
%TO.N,GND*%
X127340000Y-86180000D03*
%TD*%
D14*
%TO.P,TP9,1,1*%
%TO.N,/ESP32/IO0*%
X122440000Y-55090000D03*
%TD*%
D12*
%TO.P,C16,1*%
%TO.N,/VDD*%
X102480000Y-79860000D03*
%TO.P,C16,2*%
%TO.N,GND*%
X102480000Y-77960000D03*
%TD*%
D19*
%TO.P,C45,1*%
%TO.N,Net-(U8-VDDIO_08_1)*%
X99525438Y-122820000D03*
%TO.P,C45,2*%
%TO.N,GND*%
X99525438Y-121860000D03*
%TD*%
D20*
%TO.P,C10,1*%
%TO.N,Net-(U2-VDD5)*%
X102750000Y-74560000D03*
%TO.P,C10,2*%
%TO.N,GND*%
X102750000Y-75520000D03*
%TD*%
D24*
%TO.P,R2,1*%
%TO.N,Net-(U2-BP1V5)*%
X85110000Y-72100000D03*
%TO.P,R2,2*%
%TO.N,Net-(U2-MSEL2)*%
X86130000Y-72100000D03*
%TD*%
D19*
%TO.P,C35,1*%
%TO.N,/BM1370/1V2*%
X112140000Y-122790000D03*
%TO.P,C35,2*%
%TO.N,GND*%
X112140000Y-121830000D03*
%TD*%
D27*
%TO.P,C4,1*%
%TO.N,/5V*%
X95125000Y-66550000D03*
%TO.P,C4,2*%
%TO.N,GND*%
X98075000Y-66550000D03*
%TD*%
D15*
%TO.P,C6,1*%
%TO.N,/5V*%
X96090000Y-74000000D03*
%TO.P,C6,2*%
%TO.N,GND*%
X97050000Y-74000000D03*
%TD*%
%TO.P,C25,1*%
%TO.N,/3V3*%
X125910000Y-87790000D03*
%TO.P,C25,2*%
%TO.N,GND*%
X126870000Y-87790000D03*
%TD*%
D28*
%TO.P,U7,1,EN*%
%TO.N,/BM1370/1V2*%
X115680000Y-126370000D03*
%TO.P,U7,2,GND*%
%TO.N,GND*%
X115680000Y-124070000D03*
%TO.P,U7,3,OUT*%
%TO.N,/BM1370/CLKI*%
X113780000Y-124070000D03*
%TO.P,U7,4,VIN*%
%TO.N,/BM1370/1V2*%
X113780000Y-126370000D03*
%TD*%
D15*
%TO.P,C27,1*%
%TO.N,/5V*%
X101940000Y-132840000D03*
%TO.P,C27,2*%
%TO.N,GND*%
X102900000Y-132840000D03*
%TD*%
D29*
%TO.P,H1,1,1*%
%TO.N,GND*%
X127985010Y-51120990D03*
X128644020Y-49530000D03*
X128644020Y-52711980D03*
X130235010Y-48870990D03*
D30*
X130235010Y-51120990D03*
D29*
X130235010Y-53370990D03*
X131826000Y-49530000D03*
X131826000Y-52711980D03*
X132485010Y-51120990D03*
%TD*%
D14*
%TO.P,TP4,1,1*%
%TO.N,GND*%
X97220000Y-91210000D03*
%TD*%
D25*
%TO.P,R7,1*%
%TO.N,Net-(U2-ADRSEL)*%
X88520000Y-74320000D03*
%TO.P,R7,2*%
%TO.N,/Power/AGND*%
X87500000Y-74320000D03*
%TD*%
D14*
%TO.P,TP11,1,1*%
%TO.N,/3V3*%
X118480000Y-58690000D03*
%TD*%
D18*
%TO.P,C29,1*%
%TO.N,GND*%
X115270000Y-128010000D03*
%TO.P,C29,2*%
%TO.N,/BM1370/1V2*%
X114310000Y-128010000D03*
%TD*%
D16*
%TO.P,FID1,*%
%TO.N,*%
X78750000Y-55900000D03*
%TD*%
D20*
%TO.P,C12,1*%
%TO.N,Net-(U2-BOOT)*%
X93100000Y-83280000D03*
%TO.P,C12,2*%
%TO.N,/Power/SW*%
X93100000Y-84240000D03*
%TD*%
D14*
%TO.P,TP14,1,1*%
%TO.N,/BM1370/CI*%
X110990000Y-99610000D03*
%TD*%
D25*
%TO.P,R19,1*%
%TO.N,GND*%
X123720000Y-118980000D03*
%TO.P,R19,2*%
%TO.N,Net-(U8-LITE_PAD)*%
X122700000Y-118980000D03*
%TD*%
D14*
%TO.P,TP5,1,1*%
%TO.N,/ESP32/EN*%
X118460000Y-62540000D03*
%TD*%
%TO.P,TP36,1,1*%
%TO.N,/Fan/TEMP_N*%
X91650000Y-123880000D03*
%TD*%
D31*
%TO.P,C43,1*%
%TO.N,/VDD*%
X105670000Y-103375000D03*
%TO.P,C43,2*%
%TO.N,GND*%
X105670000Y-106325000D03*
%TD*%
D14*
%TO.P,TP15,1,1*%
%TO.N,/BM1370/RO*%
X119550000Y-108280000D03*
%TD*%
%TO.P,TP22,1,1*%
%TO.N,/BM1370/CLKI*%
X118520000Y-122760000D03*
%TD*%
D32*
%TO.P,R25,1*%
%TO.N,/Fan/FAN_PWM*%
X98640000Y-141260000D03*
%TO.P,R25,2*%
%TO.N,/5V*%
X98640000Y-140240000D03*
%TD*%
D20*
%TO.P,C22,1*%
%TO.N,/ESP32/EN*%
X128670000Y-105770000D03*
%TO.P,C22,2*%
%TO.N,GND*%
X128670000Y-106730000D03*
%TD*%
D33*
%TO.P,U10,1,VDD*%
%TO.N,/3V3*%
X94870000Y-127840000D03*
%TO.P,U10,2,DP*%
%TO.N,/Fan/TEMP_DP*%
X94220000Y-127840000D03*
%TO.P,U10,3,DN*%
%TO.N,/Fan/TEMP_DN*%
X93570000Y-127840000D03*
%TO.P,U10,4,FAN*%
%TO.N,/Fan/FAN_PWM*%
X92920000Y-127840000D03*
%TO.P,U10,5,GND*%
%TO.N,GND*%
X92920000Y-132140000D03*
%TO.P,U10,6,ALERT/TACH*%
%TO.N,/Fan/FAN_TACH*%
X93570000Y-132140000D03*
%TO.P,U10,7,SMDATA*%
%TO.N,/SDA*%
X94220000Y-132140000D03*
%TO.P,U10,8,SMCLK*%
%TO.N,/SCL*%
X94870000Y-132140000D03*
%TD*%
D18*
%TO.P,C8,1*%
%TO.N,Net-(U2-EN{slash}UVLO)*%
X90040000Y-71130000D03*
%TO.P,C8,2*%
%TO.N,/Power/AGND*%
X89080000Y-71130000D03*
%TD*%
D24*
%TO.P,R5,1*%
%TO.N,/Power/AGND*%
X87490000Y-75720000D03*
%TO.P,R5,2*%
%TO.N,Net-(U2-MSEL1)*%
X88510000Y-75720000D03*
%TD*%
D25*
%TO.P,R6,1*%
%TO.N,Net-(U2-MSEL2)*%
X88510000Y-72100000D03*
%TO.P,R6,2*%
%TO.N,/Power/AGND*%
X87490000Y-72100000D03*
%TD*%
D14*
%TO.P,TP29,1,1*%
%TO.N,/BM1370/NRSTO*%
X87080000Y-112616000D03*
%TD*%
D23*
%TO.P,U5,1,VIN*%
%TO.N,/5V*%
X109843500Y-129279000D03*
%TO.P,U5,2,GND*%
%TO.N,GND*%
X109843500Y-130229000D03*
%TO.P,U5,3,EN*%
%TO.N,/5V*%
X109843500Y-131179000D03*
%TO.P,U5,4,PG*%
%TO.N,unconnected-(U5-PG-Pad4)*%
X112118500Y-131179000D03*
%TO.P,U5,5,VOUT*%
%TO.N,/BM1370/1V2*%
X112118500Y-129279000D03*
%TD*%
D29*
%TO.P,H3,1,1*%
%TO.N,GND*%
X128052000Y-143728000D03*
X128711010Y-142137010D03*
X128711010Y-145318990D03*
X130302000Y-141478000D03*
D30*
X130302000Y-143728000D03*
D29*
X130302000Y-145978000D03*
X131892990Y-142137010D03*
X131892990Y-145318990D03*
X132552000Y-143728000D03*
%TD*%
D20*
%TO.P,C49,1*%
%TO.N,/3V3*%
X122930000Y-100640000D03*
%TO.P,C49,2*%
%TO.N,GND*%
X122930000Y-101600000D03*
%TD*%
D14*
%TO.P,TP2,1,1*%
%TO.N,GND*%
X82310000Y-62100000D03*
%TD*%
D25*
%TO.P,R9,1*%
%TO.N,/5V*%
X94400000Y-73990000D03*
%TO.P,R9,2*%
%TO.N,Net-(U2-EN{slash}UVLO)*%
X93380000Y-73990000D03*
%TD*%
D20*
%TO.P,C38,1*%
%TO.N,/VDD*%
X103240000Y-104360000D03*
%TO.P,C38,2*%
%TO.N,GND*%
X103240000Y-105320000D03*
%TD*%
D18*
%TO.P,C23,1*%
%TO.N,/3V3*%
X114200000Y-60030000D03*
%TO.P,C23,2*%
%TO.N,GND*%
X113240000Y-60030000D03*
%TD*%
D14*
%TO.P,TP6,1,1*%
%TO.N,/ESP32/P_TX*%
X122430000Y-62540000D03*
%TD*%
D11*
%TO.P,C19,1*%
%TO.N,/VDD*%
X107435000Y-84400000D03*
%TO.P,C19,2*%
%TO.N,GND*%
X110385000Y-84400000D03*
%TD*%
D24*
%TO.P,R4,1*%
%TO.N,Net-(U2-BP1V5)*%
X85590000Y-73360000D03*
%TO.P,R4,2*%
%TO.N,Net-(U2-VSEL)*%
X86610000Y-73360000D03*
%TD*%
D21*
%TO.P,R17,1*%
%TO.N,GND*%
X120380000Y-112750000D03*
%TO.P,R17,2*%
%TO.N,/BM1370/BI*%
X120380000Y-113770000D03*
%TD*%
D15*
%TO.P,C7,1*%
%TO.N,/5V*%
X96110000Y-71540000D03*
%TO.P,C7,2*%
%TO.N,GND*%
X97070000Y-71540000D03*
%TD*%
D34*
%TO.P,J4,1,Pin_1*%
%TO.N,/5V*%
X99171505Y-51054000D03*
D35*
%TO.P,J4,2,Pin_2*%
%TO.N,GND*%
X101711505Y-51054000D03*
%TO.P,J4,3,Pin_3*%
%TO.N,Net-(J4-Pin_3)*%
X104251505Y-51054000D03*
%TO.P,J4,4,Pin_4*%
%TO.N,Net-(J4-Pin_4)*%
X106791505Y-51054000D03*
%TO.P,J4,5,Pin_5*%
%TO.N,Net-(J4-Pin_5)*%
X109331505Y-51054000D03*
%TO.P,J4,6,Pin_6*%
%TO.N,Net-(J4-Pin_6)*%
X111871505Y-51054000D03*
%TD*%
D14*
%TO.P,TP16,1,1*%
%TO.N,/BM1370/BI*%
X122860000Y-113980000D03*
%TD*%
%TO.P,TP34,1,1*%
%TO.N,/BM1370/PIN_MODE*%
X89860000Y-120480000D03*
%TD*%
D29*
%TO.P,H4,1,1*%
%TO.N,GND*%
X78455010Y-143830990D03*
X79114020Y-142240000D03*
X79114020Y-145421980D03*
X80705010Y-141580990D03*
D30*
X80705010Y-143830990D03*
D29*
X80705010Y-146080990D03*
X82296000Y-142240000D03*
X82296000Y-145421980D03*
X82955010Y-143830990D03*
%TD*%
D14*
%TO.P,TP1,1,1*%
%TO.N,/5V*%
X82390000Y-70940000D03*
%TD*%
D25*
%TO.P,R13,1*%
%TO.N,Net-(U2-GOSNS)*%
X86600000Y-77640000D03*
%TO.P,R13,2*%
%TO.N,GND*%
X85580000Y-77640000D03*
%TD*%
D20*
%TO.P,C53,1*%
%TO.N,/5V*%
X97200000Y-140250000D03*
%TO.P,C53,2*%
%TO.N,GND*%
X97200000Y-141210000D03*
%TD*%
D18*
%TO.P,C48,1*%
%TO.N,/BM1370/VDD3_1*%
X98090000Y-109925000D03*
%TO.P,C48,2*%
%TO.N,GND*%
X97130000Y-109925000D03*
%TD*%
%TO.P,C28,1*%
%TO.N,GND*%
X114410000Y-109860000D03*
%TO.P,C28,2*%
%TO.N,/BM1370/VDD3_0*%
X113450000Y-109860000D03*
%TD*%
D36*
%TO.P,U9,1,DIR1*%
%TO.N,GND*%
X115427500Y-97855000D03*
%TO.P,U9,2,DIR2*%
X115427500Y-98505000D03*
%TO.P,U9,3,A1*%
%TO.N,/BM1370/RST_N*%
X115427500Y-99155000D03*
%TO.P,U9,4,A2*%
%TO.N,/BM1370/CI*%
X115427500Y-99805000D03*
%TO.P,U9,5,A3*%
%TO.N,/BM1370/RO*%
X115427500Y-100455000D03*
%TO.P,U9,6,A4*%
%TO.N,GND*%
X115427500Y-101105000D03*
%TO.P,U9,7,DIR3*%
%TO.N,/BM1370/1V2*%
X115427500Y-101755000D03*
%TO.P,U9,8,DIR4*%
X115427500Y-102405000D03*
%TO.P,U9,9,OE*%
%TO.N,GND*%
X121152500Y-102405000D03*
%TO.P,U9,10,GND*%
X121152500Y-101755000D03*
%TO.P,U9,11,B4*%
%TO.N,unconnected-(U9-B4-Pad11)*%
X121152500Y-101105000D03*
%TO.P,U9,12,B3*%
%TO.N,/RX*%
X121152500Y-100455000D03*
%TO.P,U9,13,B2*%
%TO.N,/TX*%
X121152500Y-99805000D03*
%TO.P,U9,14,B1*%
%TO.N,/RST*%
X121152500Y-99155000D03*
%TO.P,U9,15,VCCB*%
%TO.N,/3V3*%
X121152500Y-98505000D03*
%TO.P,U9,16,VCCA*%
%TO.N,/BM1370/1V2*%
X121152500Y-97855000D03*
%TD*%
D24*
%TO.P,R24,1*%
%TO.N,/Fan/FAN_TACH*%
X93560000Y-135710000D03*
%TO.P,R24,2*%
%TO.N,/3V3*%
X94580000Y-135710000D03*
%TD*%
D27*
%TO.P,C60,1*%
%TO.N,/5V*%
X88025000Y-63000000D03*
%TO.P,C60,2*%
%TO.N,GND*%
X90975000Y-63000000D03*
%TD*%
D15*
%TO.P,C5,1*%
%TO.N,/Power/AGND*%
X86310000Y-70110000D03*
%TO.P,C5,2*%
%TO.N,Net-(U2-AVIN)*%
X87270000Y-70110000D03*
%TD*%
D18*
%TO.P,C34,1*%
%TO.N,/BM1370/VDD2_0*%
X112010000Y-106266000D03*
%TO.P,C34,2*%
%TO.N,/BM1370/VDD1_0*%
X111050000Y-106266000D03*
%TD*%
D32*
%TO.P,R22,1,1*%
%TO.N,/Fan/TEMP_DN*%
X93380000Y-124870000D03*
%TO.P,R22,2,2*%
%TO.N,/Fan/TEMP_N*%
X93380000Y-123850000D03*
%TD*%
D37*
%TO.P,L1,1,1*%
%TO.N,/Power/SW*%
X96295000Y-85255000D03*
%TO.P,L1,2,2*%
%TO.N,/VDD*%
X104245000Y-85255000D03*
%TD*%
D11*
%TO.P,C17,1*%
%TO.N,/VDD*%
X107415000Y-90910000D03*
%TO.P,C17,2*%
%TO.N,GND*%
X110365000Y-90910000D03*
%TD*%
D15*
%TO.P,C26,1*%
%TO.N,/5V*%
X110481000Y-132739000D03*
%TO.P,C26,2*%
%TO.N,GND*%
X111441000Y-132739000D03*
%TD*%
D18*
%TO.P,C47,1*%
%TO.N,/BM1370/1V2*%
X124270000Y-103110000D03*
%TO.P,C47,2*%
%TO.N,GND*%
X123310000Y-103110000D03*
%TD*%
D19*
%TO.P,C33,1*%
%TO.N,/BM1370/0V8*%
X111000000Y-122790000D03*
%TO.P,C33,2*%
%TO.N,GND*%
X111000000Y-121830000D03*
%TD*%
D29*
%TO.P,H2,1,1*%
%TO.N,GND*%
X78558000Y-51054000D03*
X79217010Y-49463010D03*
X79217010Y-52644990D03*
X80808000Y-48804000D03*
D30*
X80808000Y-51054000D03*
D29*
X80808000Y-53304000D03*
X82398990Y-49463010D03*
X82398990Y-52644990D03*
X83058000Y-51054000D03*
%TD*%
D20*
%TO.P,C37,1*%
%TO.N,/VDD*%
X109190000Y-104360000D03*
%TO.P,C37,2*%
%TO.N,GND*%
X109190000Y-105320000D03*
%TD*%
D18*
%TO.P,C1,1*%
%TO.N,Net-(U2-DRTN)*%
X92650000Y-82220000D03*
%TO.P,C1,2*%
%TO.N,Net-(U2-BP1V5)*%
X91690000Y-82220000D03*
%TD*%
D25*
%TO.P,R18,1*%
%TO.N,GND*%
X123720000Y-116220000D03*
%TO.P,R18,2*%
%TO.N,Net-(U8-ROSC_SEL)*%
X122700000Y-116220000D03*
%TD*%
D18*
%TO.P,C36,1*%
%TO.N,/BM1370/VDD1_0*%
X110695000Y-103146000D03*
%TO.P,C36,2*%
%TO.N,/VDD*%
X109735000Y-103146000D03*
%TD*%
D14*
%TO.P,TP20,1,1*%
%TO.N,/BM1370/0V8*%
X106360000Y-134230000D03*
%TD*%
%TO.P,TP17,1,1*%
%TO.N,Net-(U8-ROSC_SEL)*%
X120900000Y-116060000D03*
%TD*%
%TO.P,TP30,1,1*%
%TO.N,/BM1370/CO*%
X89890000Y-114520000D03*
%TD*%
D24*
%TO.P,R15,1*%
%TO.N,/Power/PGOOD*%
X110480000Y-74510000D03*
%TO.P,R15,2*%
%TO.N,/3V3*%
X111500000Y-74510000D03*
%TD*%
D38*
%TO.P,U2,1,PGD*%
%TO.N,/Power/PGOOD*%
X90830000Y-80090000D03*
%TO.P,U2,2,PMB_DATA*%
%TO.N,/SDA*%
X91330000Y-80090000D03*
%TO.P,U2,3,PMB_CLK*%
%TO.N,/SCL*%
X91830000Y-80090000D03*
%TO.P,U2,4,BP1V5*%
%TO.N,Net-(U2-BP1V5)*%
X92330000Y-80090000D03*
%TO.P,U2,5,DRTN*%
%TO.N,Net-(U2-DRTN)*%
X92830000Y-80090000D03*
%TO.P,U2,6,SMB_ALRT*%
%TO.N,/Power/PMB_ALRT*%
X93330000Y-80090000D03*
%TO.P,U2,7,BOOT*%
%TO.N,Net-(U2-BOOT)*%
X93830000Y-80090000D03*
%TO.P,U2,8,SW*%
%TO.N,/Power/SW*%
X94330000Y-80090000D03*
%TO.P,U2,9,SW*%
X94830000Y-80090000D03*
%TO.P,U2,10,SW*%
X95330000Y-80090000D03*
%TO.P,U2,11,SW*%
X95830000Y-80090000D03*
%TO.P,U2,12,SW*%
X96330000Y-80090000D03*
D39*
%TO.P,U2,13,PGND*%
%TO.N,GND*%
X97080000Y-79340000D03*
%TO.P,U2,14,PGND*%
X97080000Y-78840000D03*
%TO.P,U2,15,PGND*%
X97080000Y-78340000D03*
%TO.P,U2,16,PGND*%
X97080000Y-77840000D03*
%TO.P,U2,17,PGND*%
X97080000Y-77340000D03*
%TO.P,U2,18,PGND*%
X97080000Y-76840000D03*
%TO.P,U2,19,PGND*%
X97080000Y-76340000D03*
%TO.P,U2,20,PGND*%
X97080000Y-75840000D03*
D38*
%TO.P,U2,21,PVIN*%
%TO.N,/5V*%
X96330000Y-75090000D03*
%TO.P,U2,22,PVIN*%
X95830000Y-75090000D03*
%TO.P,U2,23,PVIN*%
X95330000Y-75090000D03*
%TO.P,U2,24,PVIN*%
X94830000Y-75090000D03*
%TO.P,U2,25,PVIN*%
X94330000Y-75090000D03*
%TO.P,U2,26,AVIN*%
%TO.N,Net-(U2-AVIN)*%
X93830000Y-75090000D03*
%TO.P,U2,27,EN/UVLO*%
%TO.N,Net-(U2-EN{slash}UVLO)*%
X93330000Y-75090000D03*
%TO.P,U2,28,VDD5*%
%TO.N,Net-(U2-VDD5)*%
X92830000Y-75090000D03*
%TO.P,U2,29,MSEL2*%
%TO.N,Net-(U2-MSEL2)*%
X92330000Y-75090000D03*
%TO.P,U2,30,VSEL*%
%TO.N,Net-(U2-VSEL)*%
X91830000Y-75090000D03*
%TO.P,U2,31,ADRSEL*%
%TO.N,Net-(U2-ADRSEL)*%
X91330000Y-75090000D03*
%TO.P,U2,32,MSEL1*%
%TO.N,Net-(U2-MSEL1)*%
X90830000Y-75090000D03*
D39*
%TO.P,U2,33,VOSNS*%
%TO.N,Net-(U2-VOSNS)*%
X90080000Y-75840000D03*
%TO.P,U2,34,GOSNS*%
%TO.N,Net-(U2-GOSNS)*%
X90080000Y-76340000D03*
%TO.P,U2,35,VSHARE*%
%TO.N,unconnected-(U2-VSHARE-Pad35)*%
X90080000Y-76840000D03*
%TO.P,U2,36,NC*%
%TO.N,unconnected-(U2-NC-Pad36)*%
X90080000Y-77340000D03*
%TO.P,U2,37,AGND*%
%TO.N,/Power/AGND*%
X90080000Y-77840000D03*
%TO.P,U2,38,SYNC*%
X90080000Y-78340000D03*
%TO.P,U2,39,BCX_CLK*%
X90080000Y-78840000D03*
%TO.P,U2,40,BCX_DAT*%
X90080000Y-79340000D03*
D40*
%TO.P,U2,41,PAD*%
%TO.N,GND*%
X92180000Y-78870000D03*
X93580000Y-78870000D03*
X94980000Y-78870000D03*
X91180000Y-77590000D03*
X92180000Y-77590000D03*
X93580000Y-77590000D03*
D41*
X93580000Y-77590000D03*
D40*
X94980000Y-77590000D03*
X95980000Y-77590000D03*
X92180000Y-76310000D03*
X93580000Y-76310000D03*
X94980000Y-76310000D03*
%TD*%
D27*
%TO.P,C3,1*%
%TO.N,/5V*%
X95125000Y-63300000D03*
%TO.P,C3,2*%
%TO.N,GND*%
X98075000Y-63300000D03*
%TD*%
D24*
%TO.P,R3,1*%
%TO.N,Net-(U2-BP1V5)*%
X85590000Y-74330000D03*
%TO.P,R3,2*%
%TO.N,Net-(U2-ADRSEL)*%
X86610000Y-74330000D03*
%TD*%
D18*
%TO.P,C50,1*%
%TO.N,/Fan/TEMP_DP*%
X94440000Y-125940000D03*
%TO.P,C50,2*%
%TO.N,/Fan/TEMP_DN*%
X93480000Y-125940000D03*
%TD*%
D25*
%TO.P,R10,1*%
%TO.N,Net-(U2-VSEL)*%
X88520000Y-73170000D03*
%TO.P,R10,2*%
%TO.N,/Power/AGND*%
X87500000Y-73170000D03*
%TD*%
D18*
%TO.P,C32,1*%
%TO.N,/BM1370/VDD3_0*%
X113310000Y-108026000D03*
%TO.P,C32,2*%
%TO.N,/BM1370/VDD2_0*%
X112350000Y-108026000D03*
%TD*%
D32*
%TO.P,R16,1*%
%TO.N,/3V3*%
X127240000Y-106770000D03*
%TO.P,R16,2*%
%TO.N,/ESP32/EN*%
X127240000Y-105750000D03*
%TD*%
D18*
%TO.P,C52,1*%
%TO.N,/5V*%
X98040000Y-137640000D03*
%TO.P,C52,2*%
%TO.N,GND*%
X97080000Y-137640000D03*
%TD*%
D26*
%TO.P,C11,1*%
%TO.N,Net-(C11-Pad1)*%
X91190000Y-85860000D03*
%TO.P,C11,2*%
%TO.N,/Power/SW*%
X93090000Y-85860000D03*
%TD*%
D15*
%TO.P,C21,1*%
%TO.N,/5V*%
X111140000Y-60030000D03*
%TO.P,C21,2*%
%TO.N,GND*%
X112100000Y-60030000D03*
%TD*%
D14*
%TO.P,TP31,1,1*%
%TO.N,/BM1370/RI*%
X87080000Y-115554000D03*
%TD*%
%TO.P,TP7,1,1*%
%TO.N,/ESP32/P_RX*%
X122420000Y-58830000D03*
%TD*%
%TO.P,TP32,1,1*%
%TO.N,/BM1370/CLKO*%
X89890000Y-117310000D03*
%TD*%
D24*
%TO.P,R14,1*%
%TO.N,/VDD*%
X85580000Y-76570000D03*
%TO.P,R14,2*%
%TO.N,Net-(U2-VOSNS)*%
X86600000Y-76570000D03*
%TD*%
D20*
%TO.P,C30,1*%
%TO.N,/BM1370/1V2*%
X114240000Y-129540000D03*
%TO.P,C30,2*%
%TO.N,GND*%
X114240000Y-130500000D03*
%TD*%
D26*
%TO.P,C2,1*%
%TO.N,/5V*%
X95650000Y-69350000D03*
%TO.P,C2,2*%
%TO.N,GND*%
X97550000Y-69350000D03*
%TD*%
D18*
%TO.P,C44,1*%
%TO.N,/BM1370/VDD1_1*%
X100441000Y-106284000D03*
%TO.P,C44,2*%
%TO.N,/BM1370/VDD2_1*%
X99481000Y-106284000D03*
%TD*%
D42*
%TO.P,U3,1,VIN*%
%TO.N,/5V*%
X111185050Y-62440200D03*
%TO.P,U3,2,GND*%
%TO.N,GND*%
X111185050Y-63380000D03*
%TO.P,U3,3,EN*%
%TO.N,/5V*%
X111185050Y-64319800D03*
%TO.P,U3,4,NC*%
%TO.N,unconnected-(U3-NC-Pad4)*%
X113940950Y-64319800D03*
%TO.P,U3,5,VOUT*%
%TO.N,/3V3*%
X113940950Y-62440200D03*
%TD*%
D14*
%TO.P,TP10,1,1*%
%TO.N,GND*%
X118480000Y-55140000D03*
%TD*%
D20*
%TO.P,C31,1*%
%TO.N,/BM1370/0V8*%
X105750000Y-129990000D03*
%TO.P,C31,2*%
%TO.N,GND*%
X105750000Y-130950000D03*
%TD*%
D43*
%TO.P,J6,1,Pin_1*%
%TO.N,GND*%
X89621000Y-143622000D03*
%TO.P,J6,2,Pin_2*%
%TO.N,/5V*%
X92161000Y-143622000D03*
%TO.P,J6,3,Pin_3*%
%TO.N,/Fan/FAN_TACH*%
X94701000Y-143622000D03*
%TO.P,J6,4,Pin_4*%
%TO.N,/Fan/FAN_PWM*%
X97241000Y-143622000D03*
%TD*%
D44*
%TO.P,J3,1,Pin_1*%
%TO.N,GND*%
X87005000Y-50292000D03*
D35*
%TO.P,J3,2,Pin_2*%
%TO.N,/3V3*%
X87405000Y-52832000D03*
%TO.P,J3,3,Pin_3*%
%TO.N,/SCL*%
X87005000Y-55372000D03*
%TO.P,J3,4,Pin_4*%
%TO.N,/SDA*%
X87405000Y-57912000D03*
%TD*%
D45*
%TO.P,J5,S1,SHIELD*%
%TO.N,GND*%
X79790000Y-87580000D03*
D46*
X83970000Y-87580000D03*
D45*
X79790000Y-78940000D03*
D46*
X83970000Y-78940000D03*
%TD*%
D47*
%TO.N,GND*%
X105610000Y-116830000D03*
X112180000Y-119260000D03*
X113580000Y-132650000D03*
X98050000Y-114260000D03*
X104490000Y-118700000D03*
X100050000Y-61700000D03*
X112180000Y-120800000D03*
X101350000Y-62800000D03*
X106740000Y-119930000D03*
X97450000Y-60200000D03*
X111900000Y-87400000D03*
X106740000Y-118720000D03*
X104640000Y-130470000D03*
D48*
X103900000Y-78650000D03*
D47*
X105540000Y-132550000D03*
X100050000Y-65750000D03*
D49*
X116540000Y-70920000D03*
D47*
X125600000Y-65940000D03*
X116770000Y-124080000D03*
X106740000Y-117780000D03*
D50*
X95080000Y-91220000D03*
D47*
X104490000Y-117760000D03*
D50*
X98300000Y-72200000D03*
D47*
X105630000Y-118700000D03*
X115260000Y-109040000D03*
X123750000Y-117530000D03*
X111900000Y-89050000D03*
X101400000Y-60700000D03*
X100050000Y-63800000D03*
X100100000Y-60700000D03*
X106740000Y-116860000D03*
X98450000Y-78230000D03*
X96070000Y-137650000D03*
X116050000Y-128010000D03*
X104490000Y-119910000D03*
X119270000Y-54220000D03*
X128130000Y-56090000D03*
X112980000Y-114270000D03*
D49*
X80680000Y-61050000D03*
X104600000Y-143100000D03*
D47*
X99550000Y-67970000D03*
X101350000Y-63800000D03*
X91790000Y-89910000D03*
X112000000Y-86150000D03*
X117090000Y-100360000D03*
X121580000Y-112400000D03*
X101350000Y-61700000D03*
X111860000Y-83000000D03*
X111850000Y-85100000D03*
X98750000Y-61100000D03*
X122640000Y-102460000D03*
X96070000Y-141200000D03*
X113180000Y-130220000D03*
D49*
X117910000Y-70950000D03*
D47*
X119280000Y-102930000D03*
X99370000Y-119240000D03*
X111900000Y-90200000D03*
X97450000Y-61100000D03*
X123710000Y-120230000D03*
X111900000Y-91400000D03*
X100050000Y-64750000D03*
X96600000Y-108920000D03*
X104490000Y-115746000D03*
X100490000Y-76620000D03*
X100050000Y-62800000D03*
X98460000Y-76630000D03*
X99490000Y-70390000D03*
X98440000Y-121490000D03*
X92680000Y-133370000D03*
D50*
X102950000Y-76000000D03*
D47*
X128690000Y-107620000D03*
X112512000Y-61250000D03*
X104490000Y-116840000D03*
X104560000Y-76600000D03*
D50*
X94200000Y-61300000D03*
D49*
X119454234Y-70914234D03*
X128020000Y-84450000D03*
D47*
X101350000Y-64750000D03*
D50*
X95800000Y-76500000D03*
D47*
X106740000Y-115766000D03*
X116990000Y-98200000D03*
X98750000Y-60200000D03*
X102570000Y-76600000D03*
X101350000Y-65750000D03*
X132297000Y-108743000D03*
X117550000Y-103000000D03*
X98460000Y-74920000D03*
%TO.N,/VDD*%
X102500000Y-101300000D03*
X103750000Y-100100000D03*
D50*
X120850000Y-69510000D03*
D47*
X105000000Y-99000000D03*
X106250000Y-99000000D03*
X102500000Y-97900000D03*
X107500000Y-101300000D03*
X84500000Y-76160000D03*
X107500000Y-97900000D03*
X108750000Y-97880000D03*
X102500000Y-99000000D03*
X106250000Y-100100000D03*
X103750000Y-99000000D03*
X108750000Y-101280000D03*
X107500000Y-99000000D03*
X108750000Y-102380000D03*
X103750000Y-101300000D03*
X103750000Y-97900000D03*
X102500000Y-100100000D03*
X106250000Y-97900000D03*
D50*
X99780000Y-81020000D03*
D47*
X107500000Y-100100000D03*
X106250000Y-101300000D03*
X108750000Y-98980000D03*
X105000000Y-97900000D03*
X105000000Y-101300000D03*
X108750000Y-100080000D03*
X102500000Y-102400000D03*
X107500000Y-102400000D03*
X103750000Y-102400000D03*
X105000000Y-100100000D03*
D50*
%TO.N,/ESP32/EN*%
X122101300Y-70905000D03*
X127228000Y-104448000D03*
D47*
%TO.N,/5V*%
X93620000Y-68280000D03*
X92350000Y-66250000D03*
X93600000Y-69250000D03*
D50*
X92900000Y-61300000D03*
D47*
X93600000Y-71200000D03*
X92350000Y-68300000D03*
D51*
X109280000Y-61185155D03*
D47*
X108290000Y-131179000D03*
X93600000Y-67250000D03*
X92350000Y-70250000D03*
X99710000Y-131420000D03*
D50*
X97300000Y-75090000D03*
D47*
X93620000Y-70230000D03*
X92330000Y-71220000D03*
X92330000Y-69270000D03*
X98770000Y-138720000D03*
X93620000Y-66230000D03*
D50*
X82390000Y-70700000D03*
D47*
X92330000Y-67270000D03*
D50*
X104700000Y-139400000D03*
D47*
%TO.N,/3V3*%
X129830000Y-56090000D03*
D49*
X126000000Y-84500000D03*
D47*
X123394000Y-86260000D03*
X112160000Y-74520000D03*
X95550000Y-135970000D03*
D51*
X111440000Y-55180000D03*
D50*
X108500000Y-79595000D03*
D47*
X122930000Y-99700000D03*
X118711400Y-59800000D03*
X127250000Y-107630000D03*
D48*
X105500000Y-75000000D03*
D49*
X115370000Y-61560000D03*
D47*
X95560000Y-126330000D03*
D50*
%TO.N,/TX*%
X116380000Y-79250000D03*
%TO.N,/RX*%
X115580000Y-78420000D03*
%TO.N,/RST*%
X121476817Y-70170000D03*
%TO.N,/SCL*%
X94317599Y-134229617D03*
X88970000Y-81220000D03*
D48*
X91750000Y-80980000D03*
D50*
%TO.N,/Fan/FAN_PWM*%
X90900000Y-132800000D03*
D48*
%TO.N,/ESP32/USB_D+*%
X103430000Y-83400000D03*
X102700000Y-79050000D03*
%TO.N,/ESP32/USB_D-*%
X105650000Y-79800000D03*
X105650000Y-83450000D03*
D50*
%TO.N,Net-(U2-BP1V5)*%
X91690000Y-82980000D03*
X83660000Y-76570000D03*
%TO.N,/ESP32/P_TX*%
X123105000Y-61285000D03*
%TO.N,/ESP32/P_RX*%
X123040000Y-59730000D03*
%TO.N,/ESP32/IO0*%
X121244400Y-66945600D03*
X124830000Y-55100000D03*
X126520000Y-102640000D03*
%TO.N,Net-(U2-VDD5)*%
X92570000Y-74110000D03*
X102820000Y-73740000D03*
%TO.N,/Power/PGOOD*%
X89020000Y-82280000D03*
X109410000Y-74490000D03*
%TO.N,/SDA*%
X82130000Y-73910000D03*
D48*
X91270000Y-80450000D03*
D50*
X94340000Y-133580000D03*
X88990000Y-80510000D03*
X82390000Y-75900000D03*
D47*
%TO.N,Net-(U8-VDDIO_12_1)*%
X100770000Y-123700000D03*
%TO.N,Net-(U8-VDDIO_08_1)*%
X99180000Y-123710000D03*
D50*
%TO.N,Net-(U8-ROSC_SEL)*%
X119430000Y-116250000D03*
%TO.N,Net-(U8-LITE_PAD)*%
X119420000Y-118020000D03*
%TO.N,Net-(U8-INV_CLKO)*%
X124540000Y-121820000D03*
%TO.N,/Fan/TEMP_N*%
X92180000Y-119960000D03*
%TO.N,/Fan/TEMP_P*%
X92940000Y-119930000D03*
%TO.N,/Power/AGND*%
X89340000Y-73770000D03*
X89170000Y-77830000D03*
X90680000Y-72940000D03*
X89340000Y-74960000D03*
%TO.N,/Power/PMB_ALRT*%
X93330000Y-81550000D03*
D47*
%TO.N,/BM1370/VDD3_0*%
X113470000Y-111290000D03*
%TO.N,/BM1370/1V2*%
X110950000Y-124990000D03*
X124600000Y-101830000D03*
X117120000Y-101750000D03*
%TO.N,/BM1370/0V8*%
X110970000Y-123700000D03*
%TO.N,/BM1370/VDD2_0*%
X112390000Y-109350000D03*
%TO.N,/BM1370/VDD1_0*%
X111030000Y-107870000D03*
%TO.N,/BM1370/VDD1_1*%
X100553800Y-107457400D03*
%TO.N,/BM1370/VDD2_1*%
X99360000Y-109210000D03*
%TO.N,/BM1370/VDD3_1*%
X98140000Y-111060000D03*
D50*
%TO.N,/BM1370/BI*%
X119420000Y-114790000D03*
%TO.N,/BM1370/RST_N*%
X113800000Y-98950000D03*
%TO.N,/BM1370/CI*%
X113770000Y-99770000D03*
%TO.N,/BM1370/RO*%
X113830000Y-100500000D03*
X118320000Y-108370000D03*
%TO.N,/BM1370/CLKI*%
X118740000Y-113660000D03*
%TO.N,/BM1370/NRSTO*%
X92480000Y-112210000D03*
%TO.N,/BM1370/CO*%
X92480000Y-113611428D03*
%TO.N,/BM1370/RI*%
X92480000Y-115012856D03*
%TO.N,/BM1370/CLKO*%
X92480000Y-116414284D03*
%TO.N,/BM1370/BO*%
X92480000Y-117815712D03*
%TO.N,/BM1370/PIN_MODE*%
X91400000Y-120430000D03*
%TO.N,/Fan/FAN_TACH*%
X93570000Y-136700000D03*
%TD*%
%TO.N,GND*%
D52*
X116955000Y-102405000D02*
X121152500Y-102405000D01*
X112640000Y-61122000D02*
X112512000Y-61250000D01*
D53*
X111185050Y-63380000D02*
X111189050Y-63376000D01*
X104265000Y-142765000D02*
X102045000Y-142765000D01*
X127340000Y-85130000D02*
X127340000Y-86180000D01*
D54*
X85580000Y-77640000D02*
X84680000Y-77640000D01*
X119280000Y-102250000D02*
X119280000Y-102930000D01*
X97200000Y-141210000D02*
X96080000Y-141210000D01*
X118480000Y-55010000D02*
X119270000Y-54220000D01*
X123310000Y-103110000D02*
X123290000Y-103110000D01*
D53*
X111189050Y-63376000D02*
X111824000Y-63376000D01*
D54*
X123720000Y-116220000D02*
X123720000Y-117500000D01*
D55*
X80680000Y-61050000D02*
X81260000Y-61050000D01*
D53*
X115690000Y-124080000D02*
X115680000Y-124070000D01*
D52*
X121152500Y-102405000D02*
X121152500Y-101755000D01*
D54*
X121230000Y-112750000D02*
X121580000Y-112400000D01*
X119775000Y-101755000D02*
X119280000Y-102250000D01*
D53*
X101392500Y-130470000D02*
X104640000Y-130470000D01*
X83850000Y-87700000D02*
X83970000Y-87580000D01*
D56*
X94200000Y-63000000D02*
X94200000Y-61300000D01*
D52*
X95090000Y-91210000D02*
X95080000Y-91220000D01*
D54*
X116050000Y-128010000D02*
X115440000Y-128010000D01*
X120380000Y-112750000D02*
X121230000Y-112750000D01*
X116685000Y-98505000D02*
X116990000Y-98200000D01*
X83970000Y-78350000D02*
X83970000Y-78940000D01*
X121152500Y-101755000D02*
X119775000Y-101755000D01*
X123720000Y-120220000D02*
X123710000Y-120230000D01*
X84680000Y-77640000D02*
X83970000Y-78350000D01*
X118480000Y-55140000D02*
X118480000Y-55010000D01*
X112650000Y-60030000D02*
X112650000Y-61112000D01*
X126870000Y-87790000D02*
X127260000Y-87400000D01*
X112100000Y-60030000D02*
X112650000Y-60030000D01*
X123290000Y-103110000D02*
X122640000Y-102460000D01*
X115427500Y-98505000D02*
X116685000Y-98505000D01*
X111441000Y-132739000D02*
X113491000Y-132739000D01*
D53*
X128020000Y-84450000D02*
X127340000Y-85130000D01*
D52*
X97220000Y-91210000D02*
X95090000Y-91210000D01*
D54*
X102900000Y-132840000D02*
X105250000Y-132840000D01*
D53*
X109852500Y-130220000D02*
X109843500Y-130229000D01*
D54*
X128670000Y-106730000D02*
X128670000Y-107600000D01*
X96080000Y-141210000D02*
X96070000Y-141200000D01*
X115427500Y-97855000D02*
X116645000Y-97855000D01*
X115427500Y-101105000D02*
X116345000Y-101105000D01*
X92920000Y-133130000D02*
X92680000Y-133370000D01*
X114240000Y-131990000D02*
X113580000Y-132650000D01*
X123720000Y-118980000D02*
X123720000Y-120220000D01*
X112650000Y-61112000D02*
X112512000Y-61250000D01*
D56*
X91400000Y-63000000D02*
X94200000Y-63000000D01*
D54*
X105250000Y-132840000D02*
X105540000Y-132550000D01*
X114240000Y-130500000D02*
X114240000Y-131990000D01*
X113491000Y-132739000D02*
X113580000Y-132650000D01*
X91790000Y-89910000D02*
X92112500Y-89910000D01*
X115422500Y-101110000D02*
X115427500Y-101105000D01*
X122930000Y-101600000D02*
X122930000Y-102170000D01*
X105750000Y-132340000D02*
X105540000Y-132550000D01*
D55*
X81260000Y-61050000D02*
X82310000Y-62100000D01*
D54*
X127260000Y-87400000D02*
X127260000Y-86260000D01*
D53*
X112512000Y-62688000D02*
X112512000Y-61250000D01*
D52*
X109175000Y-105690000D02*
X109060000Y-105690000D01*
D54*
X112650000Y-60030000D02*
X113240000Y-60030000D01*
X92112500Y-89910000D02*
X93182500Y-88840000D01*
X127260000Y-86260000D02*
X127340000Y-86180000D01*
D52*
X128670000Y-107600000D02*
X128690000Y-107620000D01*
D54*
X97070000Y-137650000D02*
X97080000Y-137640000D01*
D53*
X113180000Y-130220000D02*
X109852500Y-130220000D01*
D54*
X116955000Y-102405000D02*
X117550000Y-103000000D01*
D53*
X104600000Y-143100000D02*
X104265000Y-142765000D01*
D54*
X116645000Y-97855000D02*
X116990000Y-98200000D01*
X92920000Y-132140000D02*
X92920000Y-133130000D01*
X122930000Y-102170000D02*
X122640000Y-102460000D01*
X105750000Y-130950000D02*
X105750000Y-132340000D01*
D53*
X116770000Y-124080000D02*
X115690000Y-124080000D01*
D54*
X123720000Y-117500000D02*
X123750000Y-117530000D01*
X96070000Y-137650000D02*
X97070000Y-137650000D01*
X116345000Y-101105000D02*
X117090000Y-100360000D01*
D53*
X111824000Y-63376000D02*
X112512000Y-62688000D01*
%TO.N,/VDD*%
D54*
X120840000Y-69500000D02*
X115800000Y-69500000D01*
X114570000Y-70730000D02*
X114570000Y-92190000D01*
D52*
X84910000Y-76570000D02*
X84500000Y-76160000D01*
D54*
X114570000Y-92190000D02*
X113420000Y-93340000D01*
X115800000Y-69500000D02*
X114570000Y-70730000D01*
D52*
X85580000Y-76570000D02*
X84910000Y-76570000D01*
D54*
X113420000Y-93340000D02*
X107510000Y-93340000D01*
X120850000Y-69510000D02*
X120840000Y-69500000D01*
%TO.N,/ESP32/EN*%
X128670000Y-105770000D02*
X127260000Y-105770000D01*
X122101300Y-68911300D02*
X122101300Y-70905000D01*
X127260000Y-105770000D02*
X127240000Y-105750000D01*
X127228000Y-105738000D02*
X127240000Y-105750000D01*
X118460000Y-65270000D02*
X122101300Y-68911300D01*
X120600000Y-82790000D02*
X122101300Y-81288700D01*
X120600000Y-95060000D02*
X120600000Y-82790000D01*
X125440000Y-102660000D02*
X125440000Y-99900000D01*
X127228000Y-104448000D02*
X125440000Y-102660000D01*
X125440000Y-99900000D02*
X120600000Y-95060000D01*
X122101300Y-81288700D02*
X122101300Y-70905000D01*
X127228000Y-104448000D02*
X127228000Y-105738000D01*
X118460000Y-62540000D02*
X118460000Y-65270000D01*
%TO.N,/5V*%
X98500000Y-137640000D02*
X98770000Y-137910000D01*
X111051000Y-64453850D02*
X111185050Y-64319800D01*
X111140000Y-60030000D02*
X111140000Y-60850000D01*
D53*
X99710000Y-130060000D02*
X100250000Y-129520000D01*
X109280000Y-63317000D02*
X110282800Y-64319800D01*
D54*
X98640000Y-140240000D02*
X98640000Y-138850000D01*
X109843500Y-132443500D02*
X109843500Y-131179000D01*
D53*
X99710000Y-131420000D02*
X99710000Y-130060000D01*
D54*
X98770000Y-137910000D02*
X98770000Y-138720000D01*
X101690000Y-132840000D02*
X101392500Y-132542500D01*
D53*
X99710000Y-131420000D02*
X101392500Y-131420000D01*
D54*
X97200000Y-140250000D02*
X98630000Y-140250000D01*
X110481000Y-132739000D02*
X110139000Y-132739000D01*
X98630000Y-140250000D02*
X98640000Y-140240000D01*
D53*
X100250000Y-129520000D02*
X101392500Y-129520000D01*
D56*
X88100000Y-63000000D02*
X88100000Y-61300000D01*
D54*
X101392500Y-132542500D02*
X101392500Y-131420000D01*
D53*
X108290000Y-131179000D02*
X108290000Y-129730000D01*
D56*
X88100000Y-61300000D02*
X92900000Y-61300000D01*
D54*
X98640000Y-138850000D02*
X98770000Y-138720000D01*
X101940000Y-132840000D02*
X101690000Y-132840000D01*
D53*
X108290000Y-129730000D02*
X108741000Y-129279000D01*
X110282800Y-64319800D02*
X111185050Y-64319800D01*
X102045000Y-139815000D02*
X100950000Y-138720000D01*
D54*
X110139000Y-132739000D02*
X109843500Y-132443500D01*
D53*
X100950000Y-138720000D02*
X98770000Y-138720000D01*
D56*
X97300000Y-75090000D02*
X96330000Y-75090000D01*
D53*
X108290000Y-131179000D02*
X109843500Y-131179000D01*
D54*
X111140000Y-60850000D02*
X111150000Y-60860000D01*
X98040000Y-137640000D02*
X98500000Y-137640000D01*
D53*
X108741000Y-129279000D02*
X109843500Y-129279000D01*
X109280000Y-61185155D02*
X109280000Y-63317000D01*
%TO.N,/3V3*%
X126000000Y-84500000D02*
X126060000Y-84560000D01*
D54*
X94870000Y-127840000D02*
X94870000Y-127020000D01*
D57*
X91132000Y-52832000D02*
X93480000Y-55180000D01*
D54*
X122095000Y-98505000D02*
X122930000Y-99340000D01*
X125910000Y-87790000D02*
X125580000Y-87460000D01*
X121152500Y-98505000D02*
X122095000Y-98505000D01*
X123610000Y-84120000D02*
X123610000Y-86044000D01*
D52*
X108500000Y-79350000D02*
X105900000Y-79350000D01*
D54*
X127250000Y-106780000D02*
X127240000Y-106770000D01*
D53*
X126000000Y-84500000D02*
X126000000Y-85620000D01*
D54*
X111500000Y-74510000D02*
X112150000Y-74510000D01*
X125580000Y-86320000D02*
X125440000Y-86180000D01*
X125580000Y-87460000D02*
X125580000Y-86320000D01*
X118480000Y-59568600D02*
X118711400Y-59800000D01*
D57*
X93480000Y-55180000D02*
X111440000Y-55180000D01*
D52*
X105900000Y-79350000D02*
X105900000Y-75000000D01*
D54*
X94870000Y-127020000D02*
X95560000Y-126330000D01*
D52*
X105900000Y-75000000D02*
X105500000Y-75000000D01*
D54*
X114200000Y-60030000D02*
X114200000Y-60910000D01*
X95550000Y-135970000D02*
X95290000Y-135710000D01*
X118480000Y-58690000D02*
X118480000Y-59568600D01*
D57*
X91132000Y-52832000D02*
X87355000Y-52832000D01*
D54*
X122930000Y-99340000D02*
X122930000Y-99700000D01*
D52*
X108500000Y-79595000D02*
X108500000Y-79350000D01*
D54*
X123610000Y-86044000D02*
X123394000Y-86260000D01*
X122930000Y-100640000D02*
X122930000Y-99700000D01*
X95290000Y-135710000D02*
X94580000Y-135710000D01*
X127250000Y-107630000D02*
X127250000Y-106780000D01*
X112150000Y-74510000D02*
X112160000Y-74520000D01*
D53*
X126000000Y-85620000D02*
X125440000Y-86180000D01*
%TO.N,/TX*%
D54*
X119474200Y-82354200D02*
X119474200Y-99304200D01*
X119975000Y-99805000D02*
X121152500Y-99805000D01*
X116380000Y-79250000D02*
X116380000Y-79260000D01*
X119474200Y-99304200D02*
X119975000Y-99805000D01*
X116380000Y-79260000D02*
X119474200Y-82354200D01*
%TO.N,/RX*%
X119795000Y-100455000D02*
X121152500Y-100455000D01*
X115580000Y-78420000D02*
X115580000Y-79330000D01*
X118960000Y-99620000D02*
X119795000Y-100455000D01*
X115580000Y-79330000D02*
X118960000Y-82710000D01*
X118960000Y-82710000D02*
X118960000Y-99620000D01*
%TO.N,/RST*%
X120030000Y-82370000D02*
X120030000Y-99010000D01*
X121476817Y-70170000D02*
X121410000Y-70236817D01*
X121410000Y-80990000D02*
X120030000Y-82370000D01*
X121410000Y-70236817D02*
X121410000Y-80990000D01*
X120030000Y-99010000D02*
X120175000Y-99155000D01*
X120175000Y-99155000D02*
X121152500Y-99155000D01*
%TO.N,/SCL*%
D52*
X88970000Y-81220000D02*
X89070000Y-81320000D01*
X91950000Y-80090000D02*
X91950000Y-80650000D01*
X94397490Y-134229617D02*
X94317599Y-134229617D01*
X91950000Y-80650000D02*
X91750000Y-80980000D01*
X89070000Y-81320000D02*
X91310000Y-81320000D01*
X94870000Y-133757107D02*
X94397490Y-134229617D01*
X94870000Y-132140000D02*
X94870000Y-133757107D01*
X91830000Y-80090000D02*
X91950000Y-80090000D01*
X91310000Y-81320000D02*
X91830000Y-80800000D01*
X91830000Y-80800000D02*
X91830000Y-80090000D01*
%TO.N,/Fan/FAN_PWM*%
D54*
X90900000Y-144090000D02*
X90900000Y-132800000D01*
X90900000Y-144171600D02*
X90900000Y-144090000D01*
X98640000Y-142223000D02*
X97241000Y-143622000D01*
X96153000Y-144710000D02*
X97241000Y-143622000D01*
X89800000Y-140410000D02*
X89850000Y-140460000D01*
X90900000Y-144090000D02*
X90900000Y-144310000D01*
X90900000Y-131800000D02*
X92920000Y-129780000D01*
X91300000Y-144710000D02*
X96153000Y-144710000D01*
X92920000Y-129780000D02*
X92920000Y-127840000D01*
X98640000Y-141260000D02*
X98640000Y-142223000D01*
X90900000Y-132800000D02*
X90900000Y-131800000D01*
X90900000Y-144310000D02*
X91300000Y-144710000D01*
%TO.N,/Power/SW*%
X93110000Y-85840000D02*
X93090000Y-85860000D01*
X93110000Y-84350000D02*
X93110000Y-85840000D01*
D52*
X96280000Y-85270000D02*
X96295000Y-85255000D01*
X95990000Y-85560000D02*
X96295000Y-85255000D01*
D54*
X93090000Y-85860000D02*
X93695000Y-85255000D01*
X93695000Y-85255000D02*
X96295000Y-85255000D01*
D52*
X95800000Y-85750000D02*
X96295000Y-85255000D01*
D54*
X95950000Y-85600000D02*
X96295000Y-85255000D01*
%TO.N,/ESP32/USB_D+*%
D52*
X102700000Y-79050000D02*
X103430000Y-79050000D01*
X103430000Y-79050000D02*
X103430000Y-83400000D01*
%TO.N,/ESP32/USB_D-*%
X105650000Y-79800000D02*
X105650000Y-83450000D01*
%TO.N,Net-(U2-DRTN)*%
X92830000Y-82040000D02*
X92650000Y-82220000D01*
X92830000Y-80090000D02*
X92830000Y-82040000D01*
%TO.N,Net-(U2-BP1V5)*%
X85590000Y-74330000D02*
X85590000Y-75500000D01*
X83660000Y-75850000D02*
X83660000Y-76570000D01*
X85590000Y-73360000D02*
X85590000Y-74330000D01*
X84010000Y-75500000D02*
X83660000Y-75850000D01*
X85110000Y-72100000D02*
X85110000Y-72880000D01*
X91690000Y-82980000D02*
X91690000Y-82220000D01*
X85110000Y-72880000D02*
X85590000Y-73360000D01*
X92330000Y-80090000D02*
X92330000Y-81020000D01*
X92330000Y-81020000D02*
X91690000Y-81660000D01*
X91690000Y-81660000D02*
X91690000Y-82220000D01*
X85590000Y-75500000D02*
X84010000Y-75500000D01*
%TO.N,Net-(U2-AVIN)*%
X93830000Y-75090000D02*
X93851600Y-75068400D01*
X90930000Y-69560000D02*
X90720000Y-69350000D01*
X93851600Y-73411600D02*
X93370000Y-72930000D01*
X90930000Y-71730000D02*
X90930000Y-69560000D01*
X93370000Y-72930000D02*
X92130000Y-72930000D01*
X92130000Y-72930000D02*
X90930000Y-71730000D01*
X88030000Y-69350000D02*
X87270000Y-70110000D01*
X93851600Y-75068400D02*
X93851600Y-73411600D01*
X90720000Y-69350000D02*
X88030000Y-69350000D01*
%TO.N,Net-(U2-EN{slash}UVLO)*%
X90070000Y-70100000D02*
X90070000Y-71100000D01*
X93330000Y-75090000D02*
X93330000Y-74040000D01*
X93330000Y-74040000D02*
X93380000Y-73990000D01*
X92100000Y-73510000D02*
X90040000Y-71450000D01*
X92900000Y-73510000D02*
X92100000Y-73510000D01*
X90040000Y-71450000D02*
X90040000Y-71130000D01*
X90070000Y-71100000D02*
X90040000Y-71130000D01*
X93380000Y-73990000D02*
X92900000Y-73510000D01*
%TO.N,/ESP32/P_TX*%
D54*
X123105000Y-61285000D02*
X123105000Y-61865000D01*
X123105000Y-61865000D02*
X122430000Y-62540000D01*
%TO.N,/ESP32/P_RX*%
X123040000Y-59730000D02*
X123040000Y-59450000D01*
X123040000Y-59450000D02*
X122420000Y-58830000D01*
%TO.N,/ESP32/IO0*%
X120440000Y-66141200D02*
X120440000Y-58060000D01*
X124260000Y-55677000D02*
X124260000Y-55670000D01*
X125960000Y-99600000D02*
X121160000Y-94800000D01*
X126520000Y-102640000D02*
X125960000Y-102080000D01*
X124260000Y-55670000D02*
X124830000Y-55100000D01*
X121160000Y-94800000D02*
X121160000Y-83290000D01*
X124830000Y-55100000D02*
X122450000Y-55100000D01*
X122780700Y-81669300D02*
X122780700Y-68481900D01*
X122780700Y-68481900D02*
X121244400Y-66945600D01*
X121160000Y-83290000D02*
X122780700Y-81669300D01*
X122450000Y-55100000D02*
X122440000Y-55090000D01*
X121244400Y-66945600D02*
X120440000Y-66141200D01*
X125960000Y-102080000D02*
X125960000Y-99600000D01*
X123037000Y-56900000D02*
X124260000Y-55677000D01*
X121600000Y-56900000D02*
X123037000Y-56900000D01*
X120440000Y-58060000D02*
X121600000Y-56900000D01*
%TO.N,Net-(U2-VDD5)*%
D52*
X92830000Y-75090000D02*
X92830000Y-74370000D01*
X92830000Y-74370000D02*
X92570000Y-74110000D01*
X102820000Y-73740000D02*
X102750000Y-73810000D01*
X102750000Y-73810000D02*
X102750000Y-74560000D01*
%TO.N,/Power/PGOOD*%
X90830000Y-80090000D02*
X89870000Y-80090000D01*
X88470000Y-81730000D02*
X89020000Y-82280000D01*
X88470000Y-80300000D02*
X88470000Y-81730000D01*
X89700000Y-79920000D02*
X88850000Y-79920000D01*
X109410000Y-74490000D02*
X110460000Y-74490000D01*
X89870000Y-80090000D02*
X89700000Y-79920000D01*
X110460000Y-74490000D02*
X110480000Y-74510000D01*
X88850000Y-79920000D02*
X88470000Y-80300000D01*
%TO.N,/SDA*%
X89430000Y-80950000D02*
X91100000Y-80950000D01*
X94220000Y-133460000D02*
X94340000Y-133580000D01*
X91330000Y-80090000D02*
X91330000Y-80450000D01*
X91330000Y-80720000D02*
X91330000Y-80090000D01*
X88990000Y-80510000D02*
X89430000Y-80950000D01*
X94220000Y-132140000D02*
X94220000Y-133460000D01*
X82390000Y-75900000D02*
X82390000Y-74170000D01*
X91100000Y-80950000D02*
X91330000Y-80720000D01*
X91330000Y-80450000D02*
X91270000Y-80450000D01*
X82390000Y-74170000D02*
X82130000Y-73910000D01*
%TO.N,Net-(U2-BOOT)*%
X93830000Y-80090000D02*
X93830000Y-82670000D01*
X93830000Y-82670000D02*
X93110000Y-83390000D01*
%TO.N,Net-(U2-VOSNS)*%
X90080000Y-75840000D02*
X89480000Y-75840000D01*
X87040000Y-77010000D02*
X86600000Y-76570000D01*
X89480000Y-75840000D02*
X88310000Y-77010000D01*
X88310000Y-77010000D02*
X87630000Y-77010000D01*
X87630000Y-77010000D02*
X87040000Y-77010000D01*
%TO.N,Net-(U2-GOSNS)*%
X87190000Y-77970000D02*
X86860000Y-77640000D01*
X87630000Y-77970000D02*
X87190000Y-77970000D01*
X86860000Y-77640000D02*
X86600000Y-77640000D01*
X89600000Y-76340000D02*
X87970000Y-77970000D01*
X90080000Y-76340000D02*
X89600000Y-76340000D01*
X87970000Y-77970000D02*
X87630000Y-77970000D01*
%TO.N,Net-(U8-VDDIO_12_1)*%
D54*
X100770000Y-122924562D02*
X100655438Y-122810000D01*
X100770000Y-123700000D02*
X100770000Y-122924562D01*
%TO.N,Net-(U8-VDDIO_08_1)*%
X99525438Y-123364562D02*
X99525438Y-122820000D01*
X99180000Y-123710000D02*
X99525438Y-123364562D01*
%TO.N,Net-(U2-MSEL1)*%
D52*
X88720000Y-75510000D02*
X88510000Y-75720000D01*
X88510000Y-75720000D02*
X88510000Y-76020000D01*
X90820000Y-75080000D02*
X90010000Y-75080000D01*
X88510000Y-76020000D02*
X88140000Y-76390000D01*
X87270000Y-76390000D02*
X86610000Y-75730000D01*
X89580000Y-75510000D02*
X88720000Y-75510000D01*
X88140000Y-76390000D02*
X87270000Y-76390000D01*
X90830000Y-75090000D02*
X90820000Y-75080000D01*
X90010000Y-75080000D02*
X89580000Y-75510000D01*
X86610000Y-75730000D02*
X86610000Y-75500000D01*
%TO.N,Net-(U2-MSEL2)*%
X86513200Y-71276800D02*
X86130000Y-71660000D01*
X92330000Y-74577107D02*
X91469693Y-73716800D01*
X91469693Y-73716800D02*
X90686800Y-73716800D01*
X88510000Y-72100000D02*
X88510000Y-71780001D01*
X86130000Y-71660000D02*
X86130000Y-72100000D01*
X89070000Y-72100000D02*
X88510000Y-72100000D01*
X88510000Y-71780001D02*
X88006799Y-71276800D01*
X88006799Y-71276800D02*
X86513200Y-71276800D01*
X92330000Y-75090000D02*
X92330000Y-74577107D01*
X90686800Y-73716800D02*
X89070000Y-72100000D01*
%TO.N,Net-(U2-ADRSEL)*%
X91330000Y-75090000D02*
X91330000Y-74530000D01*
X87710000Y-74940000D02*
X87000000Y-74940000D01*
X91120000Y-74320000D02*
X88520000Y-74320000D01*
X86610000Y-74550000D02*
X86610000Y-74330000D01*
X88330000Y-74320000D02*
X87710000Y-74940000D01*
X88520000Y-74320000D02*
X88330000Y-74320000D01*
X91330000Y-74530000D02*
X91120000Y-74320000D01*
X87000000Y-74940000D02*
X86610000Y-74550000D01*
%TO.N,Net-(U2-VSEL)*%
X87971600Y-71781834D02*
X87768166Y-71578400D01*
X91830000Y-75090000D02*
X91830000Y-74603474D01*
X87211834Y-71578400D02*
X86800000Y-71990234D01*
X86800000Y-73170000D02*
X86610000Y-73360000D01*
X88520000Y-73170000D02*
X87971600Y-72621600D01*
X87768166Y-71578400D02*
X87211834Y-71578400D01*
X90338400Y-74018400D02*
X89300000Y-72980000D01*
X86800000Y-71990234D02*
X86800000Y-73170000D01*
X87971600Y-72621600D02*
X87971600Y-71781834D01*
X91244926Y-74018400D02*
X90338400Y-74018400D01*
X89300000Y-72980000D02*
X88530000Y-72980000D01*
X91830000Y-74603474D02*
X91244926Y-74018400D01*
%TO.N,Net-(U8-ROSC_SEL)*%
D54*
X119430000Y-116250000D02*
X122670000Y-116250000D01*
X122670000Y-116250000D02*
X122700000Y-116220000D01*
%TO.N,Net-(U8-LITE_PAD)*%
X120100000Y-118020000D02*
X121060000Y-118980000D01*
X121060000Y-118980000D02*
X122700000Y-118980000D01*
X119420000Y-118020000D02*
X120100000Y-118020000D01*
%TO.N,Net-(U8-INV_CLKO)*%
X123010000Y-121820000D02*
X122860000Y-121970000D01*
X124540000Y-121820000D02*
X123010000Y-121820000D01*
%TO.N,/Fan/TEMP_N*%
D52*
X91650000Y-123880000D02*
X93350000Y-123880000D01*
X93350000Y-123880000D02*
X93380000Y-123850000D01*
X92180000Y-119960000D02*
X92180000Y-121400000D01*
X92180000Y-121400000D02*
X93380000Y-122600000D01*
X93380000Y-122600000D02*
X93380000Y-123850000D01*
%TO.N,/Fan/TEMP_P*%
X96280000Y-123890000D02*
X94560000Y-123890000D01*
X92940000Y-120830000D02*
X94520000Y-122410000D01*
X94560000Y-123890000D02*
X94520000Y-123850000D01*
X92940000Y-119930000D02*
X92940000Y-120830000D01*
X94520000Y-122410000D02*
X94520000Y-123850000D01*
%TO.N,/Power/AGND*%
X88216527Y-75050000D02*
X89250000Y-75050000D01*
X90080000Y-78840000D02*
X90080000Y-79340000D01*
X87500000Y-73750000D02*
X87500000Y-74320000D01*
X87500000Y-73750000D02*
X89320000Y-73750000D01*
X90070000Y-77830000D02*
X90080000Y-77840000D01*
X87500000Y-73170000D02*
X87500000Y-73750000D01*
X87490000Y-75720000D02*
X87546527Y-75720000D01*
X90080000Y-77840000D02*
X90080000Y-78340000D01*
X89250000Y-75050000D02*
X89340000Y-74960000D01*
X89050000Y-70100000D02*
X89050000Y-71100000D01*
X87490000Y-72100000D02*
X87490000Y-73160000D01*
X87546527Y-75720000D02*
X88216527Y-75050000D01*
X89170000Y-77830000D02*
X90070000Y-77830000D01*
X89080000Y-71340000D02*
X89080000Y-71130000D01*
X86310000Y-70780000D02*
X86310000Y-70110000D01*
X89050000Y-71100000D02*
X89080000Y-71130000D01*
X90680000Y-72940000D02*
X89080000Y-71340000D01*
X89320000Y-73750000D02*
X89340000Y-73770000D01*
X88925200Y-70975200D02*
X86505200Y-70975200D01*
X89080000Y-71130000D02*
X88925200Y-70975200D01*
X87490000Y-73160000D02*
X87500000Y-73170000D01*
X86505200Y-70975200D02*
X86310000Y-70780000D01*
X90080000Y-78340000D02*
X90080000Y-78840000D01*
%TO.N,/Power/PMB_ALRT*%
X93330000Y-80090000D02*
X93330000Y-81550000D01*
%TO.N,Net-(C11-Pad1)*%
D54*
X91190000Y-85860000D02*
X91190000Y-86240000D01*
X91190000Y-86240000D02*
X90087500Y-87342500D01*
X90087500Y-87342500D02*
X90087500Y-88210000D01*
%TO.N,/Fan/TEMP_DP*%
D52*
X94520000Y-125860000D02*
X94440000Y-125940000D01*
X94220000Y-126160000D02*
X94440000Y-125940000D01*
X94220000Y-127840000D02*
X94220000Y-126160000D01*
X94520000Y-124870000D02*
X94520000Y-125860000D01*
%TO.N,/Fan/TEMP_DN*%
X93380000Y-124870000D02*
X93380000Y-125840000D01*
X93380000Y-125840000D02*
X93480000Y-125940000D01*
X93570000Y-127840000D02*
X93570000Y-126030000D01*
X93570000Y-126030000D02*
X93480000Y-125940000D01*
%TO.N,/BM1370/VDD3_0*%
D54*
X113470000Y-109880000D02*
X113450000Y-109860000D01*
X113310000Y-108026000D02*
X113390000Y-108026000D01*
X113470000Y-111290000D02*
X113470000Y-109880000D01*
X113480000Y-109886000D02*
X113480000Y-108026000D01*
%TO.N,/BM1370/1V2*%
D53*
X112140000Y-124170000D02*
X112140000Y-122790000D01*
D54*
X115427500Y-101755000D02*
X117115000Y-101755000D01*
D53*
X112118500Y-126360000D02*
X112128500Y-126370000D01*
X114140000Y-128010000D02*
X113790000Y-127660000D01*
D54*
X114240000Y-129540000D02*
X114860000Y-130160000D01*
D52*
X115427500Y-102405000D02*
X115427500Y-101755000D01*
D54*
X110970000Y-124970000D02*
X111900000Y-124970000D01*
X117115000Y-101755000D02*
X117120000Y-101750000D01*
D53*
X112118500Y-124191500D02*
X112118500Y-126360000D01*
X112140000Y-124170000D02*
X112118500Y-124191500D01*
X124600000Y-101830000D02*
X124600000Y-100060000D01*
X124600000Y-100060000D02*
X122395000Y-97855000D01*
X122395000Y-97855000D02*
X121152500Y-97855000D01*
X113790000Y-127660000D02*
X113790000Y-126380000D01*
X124600000Y-112040000D02*
X124600000Y-101830000D01*
D54*
X114240000Y-129540000D02*
X113720000Y-129540000D01*
X114860000Y-130160000D02*
X114860000Y-134280000D01*
D53*
X113790000Y-126380000D02*
X113780000Y-126370000D01*
X112128500Y-126370000D02*
X113780000Y-126370000D01*
D54*
X113459000Y-129279000D02*
X112118500Y-129279000D01*
D53*
X125900000Y-113340000D02*
X124600000Y-112040000D01*
D54*
X111900000Y-124970000D02*
X112140000Y-124730000D01*
D53*
X125900000Y-123480000D02*
X125900000Y-113340000D01*
X122980000Y-126400000D02*
X125900000Y-123480000D01*
D54*
X110950000Y-124990000D02*
X110970000Y-124970000D01*
X113720000Y-129540000D02*
X113459000Y-129279000D01*
D53*
X112118500Y-126360000D02*
X112118500Y-129279000D01*
X114220000Y-126400000D02*
X122980000Y-126400000D01*
%TO.N,/BM1370/0V8*%
D54*
X103667500Y-129520000D02*
X103667500Y-127202500D01*
X110970000Y-123700000D02*
X110970000Y-123440000D01*
X103667500Y-127202500D02*
X107100000Y-123770000D01*
X105750000Y-129990000D02*
X106360000Y-130600000D01*
X105750000Y-129990000D02*
X105280000Y-129520000D01*
X106360000Y-130600000D02*
X106360000Y-134230000D01*
X107100000Y-123770000D02*
X110900000Y-123770000D01*
X111000000Y-123410000D02*
X111000000Y-122790000D01*
X110970000Y-123440000D02*
X111000000Y-123410000D01*
X110900000Y-123770000D02*
X110970000Y-123700000D01*
X105280000Y-129520000D02*
X103667500Y-129520000D01*
%TO.N,/BM1370/VDD2_0*%
X112390000Y-108236000D02*
X112180000Y-108026000D01*
X112180000Y-108026000D02*
X112180000Y-106266000D01*
X112390000Y-109350000D02*
X112390000Y-108236000D01*
X111990000Y-106246000D02*
X112010000Y-106266000D01*
%TO.N,/BM1370/VDD1_0*%
X111030000Y-106286000D02*
X111050000Y-106266000D01*
X110890000Y-103341000D02*
X110695000Y-103146000D01*
X111030000Y-107870000D02*
X111030000Y-106286000D01*
X110890000Y-106106000D02*
X110890000Y-103341000D01*
X111050000Y-106266000D02*
X110890000Y-106106000D01*
%TO.N,/BM1370/VDD1_1*%
X100611000Y-107400200D02*
X100611000Y-106284000D01*
X100553800Y-107457400D02*
X100611000Y-107400200D01*
X100600000Y-106125000D02*
X100441000Y-106284000D01*
X100600000Y-103164000D02*
X100600000Y-106125000D01*
X100610000Y-103154000D02*
X100600000Y-103164000D01*
%TO.N,/BM1370/VDD2_1*%
X99481000Y-107704000D02*
X99161000Y-108024000D01*
X99360000Y-109210000D02*
X99360000Y-108053000D01*
X99481000Y-106284000D02*
X99481000Y-107704000D01*
X99360000Y-108053000D02*
X99331000Y-108024000D01*
%TO.N,/BM1370/VDD3_1*%
X98081000Y-109974000D02*
X98031000Y-109924000D01*
X98140000Y-109975000D02*
X98125000Y-109960000D01*
X98031000Y-109924000D02*
X98031000Y-108024000D01*
X98140000Y-111060000D02*
X98140000Y-109975000D01*
%TO.N,/BM1370/BI*%
X119420000Y-114790000D02*
X120230000Y-113980000D01*
X120230000Y-113980000D02*
X122860000Y-113980000D01*
%TO.N,/BM1370/RST_N*%
D52*
X113800000Y-98950000D02*
X113300000Y-98950000D01*
D54*
X113800000Y-98950000D02*
X113670000Y-98950000D01*
D52*
X114005000Y-99155000D02*
X113800000Y-98950000D01*
X115427500Y-99155000D02*
X114005000Y-99155000D01*
X113300000Y-98950000D02*
X110990000Y-96640000D01*
%TO.N,/BM1370/CI*%
X113805000Y-99805000D02*
X113770000Y-99770000D01*
X113770000Y-99770000D02*
X113610000Y-99610000D01*
X115427500Y-99805000D02*
X113805000Y-99805000D01*
X113610000Y-99610000D02*
X110990000Y-99610000D01*
%TO.N,/BM1370/RO*%
D54*
X115427500Y-100455000D02*
X113875000Y-100455000D01*
D52*
X118410000Y-108280000D02*
X118320000Y-108370000D01*
D54*
X113875000Y-100455000D02*
X113830000Y-100500000D01*
X115383100Y-100499400D02*
X115427500Y-100455000D01*
D52*
X119550000Y-108280000D02*
X118410000Y-108280000D01*
%TO.N,/BM1370/CLKI*%
D54*
X118740000Y-113660000D02*
X118760000Y-113680000D01*
X113790000Y-123140000D02*
X113790000Y-124060000D01*
X114230000Y-122700000D02*
X113790000Y-123140000D01*
X118760000Y-113680000D02*
X118760000Y-121550000D01*
X117610000Y-122700000D02*
X114230000Y-122700000D01*
X118760000Y-121550000D02*
X117610000Y-122700000D01*
X113790000Y-124060000D02*
X113780000Y-124070000D01*
%TO.N,/BM1370/NRSTO*%
X92480000Y-112210000D02*
X92060000Y-112630000D01*
X92060000Y-112630000D02*
X87325600Y-112630000D01*
X87325600Y-112630000D02*
X87025800Y-112929800D01*
%TO.N,/BM1370/CO*%
X92480000Y-113611428D02*
X91571428Y-114520000D01*
X91571428Y-114520000D02*
X89900000Y-114520000D01*
%TO.N,/BM1370/RI*%
X87481400Y-115900000D02*
X87127400Y-115546000D01*
X91592856Y-115900000D02*
X87481400Y-115900000D01*
X92480000Y-115012856D02*
X91592856Y-115900000D01*
%TO.N,/BM1370/CLKO*%
X91684284Y-117210000D02*
X89860000Y-117210000D01*
X92480000Y-116414284D02*
X91684284Y-117210000D01*
%TO.N,/BM1370/BO*%
X87430000Y-118700000D02*
X87110000Y-118380000D01*
X92304288Y-117815712D02*
X91420000Y-118700000D01*
X92560000Y-117895712D02*
X92480000Y-117815712D01*
X92480000Y-117815712D02*
X92304288Y-117815712D01*
X91420000Y-118700000D02*
X87430000Y-118700000D01*
%TO.N,/BM1370/PIN_MODE*%
X91400000Y-120430000D02*
X89910000Y-120430000D01*
X89910000Y-120430000D02*
X89860000Y-120480000D01*
%TO.N,/Fan/FAN_TACH*%
X93570000Y-136700000D02*
X93570000Y-132140000D01*
X93570000Y-140270000D02*
X94701000Y-141401000D01*
X93570000Y-136700000D02*
X93570000Y-140270000D01*
X94701000Y-141401000D02*
X94701000Y-143622000D01*
%TD*%
%TA.AperFunction,Conductor*%
%TO.N,/3V3*%
G36*
X116122098Y-60569891D02*
G01*
X116168042Y-60622531D01*
X116179431Y-60675009D01*
X116170559Y-62627001D01*
X116150570Y-62693950D01*
X116097558Y-62739464D01*
X116047000Y-62750436D01*
X113476148Y-62759552D01*
X113409039Y-62740105D01*
X113363097Y-62687464D01*
X113351720Y-62633862D01*
X113378338Y-60681872D01*
X113398934Y-60615107D01*
X113452357Y-60570077D01*
X113501879Y-60559564D01*
X116054990Y-60550446D01*
X116122098Y-60569891D01*
G37*
%TD.AperFunction*%
%TD*%
%TA.AperFunction,Conductor*%
%TO.N,/5V*%
G36*
X96081130Y-61880842D02*
G01*
X96127911Y-61932739D01*
X96140148Y-61986307D01*
X96149999Y-70389998D01*
X96457398Y-70827809D01*
X96479811Y-70893986D01*
X96479915Y-70899330D01*
X96470265Y-75376808D01*
X96450436Y-75443805D01*
X96397533Y-75489446D01*
X96346809Y-75500540D01*
X94314544Y-75509453D01*
X94247419Y-75490062D01*
X94201433Y-75437460D01*
X94190000Y-75385454D01*
X94190000Y-72320000D01*
X94189999Y-72320000D01*
X91866925Y-72329255D01*
X91837217Y-72320660D01*
X91807004Y-72314088D01*
X91802283Y-72310554D01*
X91799808Y-72309838D01*
X91778750Y-72292937D01*
X91713954Y-72228141D01*
X91680469Y-72166818D01*
X91677645Y-72142019D01*
X91580168Y-64358856D01*
X91592758Y-64302846D01*
X91642128Y-64201858D01*
X91642127Y-64201858D01*
X91642129Y-64201856D01*
X91652100Y-64133419D01*
X91652100Y-63376100D01*
X91671785Y-63309061D01*
X91724589Y-63263306D01*
X91776100Y-63252100D01*
X94250145Y-63252100D01*
X94250146Y-63252100D01*
X94342803Y-63213720D01*
X94413720Y-63142803D01*
X94452100Y-63050146D01*
X94452100Y-62014688D01*
X94471785Y-61947649D01*
X94524589Y-61901894D01*
X94573667Y-61890712D01*
X96013717Y-61862476D01*
X96081130Y-61880842D01*
G37*
%TD.AperFunction*%
%TD*%
%TA.AperFunction,Conductor*%
%TO.N,/VDD*%
G36*
X108112234Y-92340224D02*
G01*
X108159154Y-92393507D01*
X108166182Y-92412388D01*
X108167434Y-92416803D01*
X108167440Y-92416822D01*
X109470669Y-97015308D01*
X109474206Y-97032055D01*
X109476580Y-97048875D01*
X109477816Y-97065946D01*
X109508449Y-104239453D01*
X109503498Y-104274968D01*
X109499088Y-104290230D01*
X109460962Y-104350120D01*
X109460095Y-104350878D01*
X109459467Y-104351427D01*
X109404076Y-104379493D01*
X109396577Y-104381170D01*
X109370004Y-104384204D01*
X101915387Y-104438932D01*
X101915382Y-104438931D01*
X101915381Y-104438932D01*
X101879849Y-104434087D01*
X101869501Y-104431131D01*
X101864576Y-104429724D01*
X101804585Y-104391792D01*
X101803591Y-104390662D01*
X101775142Y-104334520D01*
X101773326Y-104326264D01*
X101770385Y-104298862D01*
X101770499Y-104257571D01*
X101790000Y-97130000D01*
X99472267Y-92571473D01*
X99459224Y-92501686D01*
X99485981Y-92435924D01*
X99544044Y-92395068D01*
X99583568Y-92388372D01*
X105455174Y-92341453D01*
X108043956Y-92320767D01*
X108112234Y-92340224D01*
G37*
%TD.AperFunction*%
%TD*%
%TA.AperFunction,Conductor*%
%TO.N,/VDD*%
G36*
X105241115Y-79368079D02*
G01*
X105254460Y-79371883D01*
X105269553Y-79381412D01*
X105286722Y-79386312D01*
X105298484Y-79399679D01*
X105313538Y-79409184D01*
X105321084Y-79425362D01*
X105332878Y-79438766D01*
X105343049Y-79472457D01*
X105343072Y-79472505D01*
X105343079Y-79472554D01*
X105343283Y-79473900D01*
X105338029Y-79532555D01*
X105336260Y-79537735D01*
X105333890Y-79542951D01*
X105333866Y-79543132D01*
X105333743Y-79543275D01*
X105326301Y-79559661D01*
X105276795Y-79645407D01*
X105276792Y-79645413D01*
X105264747Y-79690369D01*
X105249500Y-79747273D01*
X105249500Y-79852727D01*
X105266315Y-79915480D01*
X105266315Y-79915481D01*
X105276792Y-79954583D01*
X105276792Y-79954585D01*
X105276795Y-79954590D01*
X105329518Y-80045910D01*
X105329519Y-80045911D01*
X105329520Y-80045913D01*
X105329523Y-80045916D01*
X105389603Y-80105996D01*
X105402051Y-80120532D01*
X105407740Y-80128319D01*
X105407740Y-80128320D01*
X105423522Y-80149926D01*
X105445546Y-80201754D01*
X105446055Y-80204673D01*
X105446955Y-80215069D01*
X105447172Y-80215670D01*
X105447052Y-80216188D01*
X105447900Y-80225975D01*
X105447900Y-83016920D01*
X105442876Y-83051857D01*
X105436357Y-83074057D01*
X105408646Y-83123065D01*
X105388656Y-83144798D01*
X105385073Y-83148534D01*
X105329520Y-83204087D01*
X105276792Y-83295412D01*
X105276792Y-83295413D01*
X105249500Y-83397273D01*
X105249500Y-83502727D01*
X105276793Y-83604587D01*
X105329520Y-83695913D01*
X105404087Y-83770480D01*
X105495413Y-83823207D01*
X105597273Y-83850500D01*
X105597275Y-83850500D01*
X105702725Y-83850500D01*
X105702727Y-83850500D01*
X105804587Y-83823207D01*
X105895913Y-83770480D01*
X105970480Y-83695913D01*
X106023207Y-83604587D01*
X106050500Y-83502727D01*
X106050500Y-83397273D01*
X106023207Y-83295413D01*
X105970480Y-83204087D01*
X105910337Y-83143944D01*
X105897856Y-83129362D01*
X105876439Y-83100016D01*
X105854435Y-83048159D01*
X105853931Y-83045267D01*
X105853033Y-83034857D01*
X105852819Y-83034260D01*
X105852937Y-83033744D01*
X105852100Y-83024035D01*
X105852100Y-80233077D01*
X105857122Y-80198146D01*
X105858996Y-80191762D01*
X105863637Y-80175956D01*
X105891366Y-80126927D01*
X105911535Y-80105008D01*
X105915055Y-80101337D01*
X105970480Y-80045913D01*
X106023207Y-79954587D01*
X106050500Y-79852727D01*
X106050500Y-79747273D01*
X106044642Y-79725410D01*
X106040452Y-79690369D01*
X106040782Y-79676494D01*
X106062055Y-79609945D01*
X106115930Y-79565459D01*
X106123756Y-79562109D01*
X106172562Y-79552100D01*
X107960901Y-79552100D01*
X107995834Y-79557122D01*
X108005447Y-79559945D01*
X108005450Y-79559945D01*
X108008990Y-79560985D01*
X108008663Y-79562096D01*
X108018503Y-79567369D01*
X108032687Y-79570049D01*
X108057213Y-79588111D01*
X108061512Y-79590415D01*
X108063729Y-79592513D01*
X108063999Y-79592825D01*
X108065495Y-79594185D01*
X108066373Y-79595016D01*
X108083349Y-79624173D01*
X108100907Y-79652976D01*
X108100908Y-79652981D01*
X108124014Y-79739219D01*
X108127172Y-79755076D01*
X108129276Y-79771008D01*
X108130343Y-79787147D01*
X108139905Y-92196891D01*
X108120272Y-92263946D01*
X108067503Y-92309742D01*
X108016896Y-92320983D01*
X99504798Y-92389002D01*
X99437603Y-92369854D01*
X99391428Y-92317417D01*
X99379807Y-92265199D01*
X99360216Y-79551021D01*
X99365185Y-79516086D01*
X99369567Y-79501078D01*
X99407226Y-79442268D01*
X99408761Y-79440933D01*
X99463191Y-79413467D01*
X99470390Y-79411865D01*
X99496323Y-79408911D01*
X102429085Y-79385503D01*
X102461679Y-79389595D01*
X102492616Y-79397752D01*
X102522999Y-79410266D01*
X102545410Y-79423206D01*
X102545412Y-79423206D01*
X102545413Y-79423207D01*
X102647273Y-79450500D01*
X102647275Y-79450500D01*
X102752725Y-79450500D01*
X102752727Y-79450500D01*
X102854587Y-79423207D01*
X102884546Y-79405909D01*
X102903161Y-79397135D01*
X102908476Y-79395150D01*
X102913579Y-79393761D01*
X102915420Y-79392556D01*
X102924131Y-79389304D01*
X102928036Y-79389023D01*
X102948922Y-79382870D01*
X102950744Y-79382593D01*
X102968326Y-79381198D01*
X103085085Y-79380266D01*
X103120061Y-79385011D01*
X103135092Y-79389295D01*
X103150158Y-79398805D01*
X103167276Y-79403678D01*
X103194140Y-79426569D01*
X103195163Y-79427730D01*
X103223185Y-79482854D01*
X103224958Y-79490854D01*
X103227900Y-79517700D01*
X103227900Y-82966920D01*
X103222876Y-83001857D01*
X103216357Y-83024057D01*
X103188646Y-83073065D01*
X103168656Y-83094798D01*
X103165073Y-83098534D01*
X103109520Y-83154087D01*
X103056792Y-83245412D01*
X103056792Y-83245413D01*
X103029500Y-83347273D01*
X103029500Y-83452727D01*
X103056793Y-83554587D01*
X103109520Y-83645913D01*
X103184087Y-83720480D01*
X103275413Y-83773207D01*
X103377273Y-83800500D01*
X103377275Y-83800500D01*
X103482725Y-83800500D01*
X103482727Y-83800500D01*
X103584587Y-83773207D01*
X103675913Y-83720480D01*
X103750480Y-83645913D01*
X103803207Y-83554587D01*
X103830500Y-83452727D01*
X103830500Y-83347273D01*
X103803207Y-83245413D01*
X103750480Y-83154087D01*
X103690337Y-83093944D01*
X103677856Y-83079362D01*
X103656439Y-83050016D01*
X103634435Y-82998159D01*
X103633931Y-82995267D01*
X103633033Y-82984857D01*
X103632819Y-82984260D01*
X103632937Y-82983744D01*
X103632100Y-82974035D01*
X103632100Y-79516744D01*
X103637123Y-79481808D01*
X103639841Y-79472554D01*
X103641527Y-79466809D01*
X103651163Y-79451813D01*
X103656181Y-79434719D01*
X103679290Y-79408043D01*
X103680858Y-79406684D01*
X103735221Y-79379329D01*
X103739893Y-79378292D01*
X103742332Y-79377751D01*
X103768186Y-79374814D01*
X105206148Y-79363337D01*
X105241115Y-79368079D01*
G37*
%TD.AperFunction*%
%TD*%
%TA.AperFunction,Conductor*%
%TO.N,/Power/SW*%
G36*
X96469883Y-79699911D02*
G01*
X96483206Y-79700689D01*
X96496457Y-79702184D01*
X96509633Y-79704394D01*
X98386148Y-80124510D01*
X98419137Y-80137043D01*
X98432813Y-80144619D01*
X98481916Y-80194324D01*
X98481916Y-80194325D01*
X98485689Y-80201336D01*
X98500496Y-80259535D01*
X98529357Y-86618463D01*
X98529356Y-86618465D01*
X98529357Y-86618466D01*
X98524492Y-86653417D01*
X98520157Y-86668438D01*
X98482668Y-86727368D01*
X98482648Y-86727384D01*
X98482648Y-86727386D01*
X98482646Y-86727386D01*
X98481246Y-86728612D01*
X98426651Y-86756297D01*
X98419227Y-86757957D01*
X98393030Y-86760940D01*
X94303383Y-86789015D01*
X94303382Y-86789014D01*
X94303382Y-86789015D01*
X94268413Y-86784232D01*
X94253385Y-86779931D01*
X94194366Y-86742579D01*
X94193442Y-86741527D01*
X94165432Y-86686101D01*
X94163630Y-86677840D01*
X94160784Y-86650718D01*
X94160866Y-86636289D01*
X94196852Y-80248846D01*
X94199201Y-79831656D01*
X94204421Y-79796760D01*
X94208910Y-79781785D01*
X94246978Y-79723257D01*
X94247016Y-79723224D01*
X94247018Y-79723222D01*
X94248387Y-79722049D01*
X94303346Y-79694890D01*
X94310845Y-79693298D01*
X94337127Y-79690598D01*
X96469883Y-79699911D01*
G37*
%TD.AperFunction*%
%TD*%
%TA.AperFunction,Conductor*%
%TO.N,GND*%
G36*
X113379777Y-75519017D02*
G01*
X113414673Y-75524284D01*
X113429642Y-75528793D01*
X113444562Y-75538526D01*
X113461596Y-75543650D01*
X113488116Y-75566938D01*
X113489573Y-75568642D01*
X113516507Y-75622928D01*
X113517991Y-75629764D01*
X113520809Y-75655317D01*
X113619155Y-92079009D01*
X113614341Y-92113975D01*
X113610027Y-92128999D01*
X113600486Y-92144046D01*
X113595580Y-92161156D01*
X113572636Y-92187974D01*
X113571108Y-92189315D01*
X113516803Y-92217032D01*
X113509633Y-92218662D01*
X113483726Y-92221737D01*
X109842485Y-92268181D01*
X109807491Y-92263604D01*
X109792438Y-92259392D01*
X109777301Y-92249935D01*
X109760114Y-92245120D01*
X109733214Y-92222391D01*
X109733182Y-92222371D01*
X109732071Y-92221121D01*
X109703874Y-92166342D01*
X109702085Y-92158501D01*
X109698981Y-92131836D01*
X109600000Y-78700000D01*
X109446450Y-78696300D01*
X107110008Y-78640000D01*
X107110006Y-78640000D01*
X107110005Y-78640000D01*
X107110001Y-78640000D01*
X107110000Y-78640000D01*
X107103205Y-78640091D01*
X107039063Y-78640952D01*
X107039064Y-78640953D01*
X106245595Y-78651622D01*
X106245595Y-78651623D01*
X106245594Y-78651622D01*
X106245594Y-78651623D01*
X106210596Y-78647070D01*
X106195539Y-78642868D01*
X106136258Y-78605888D01*
X106136256Y-78605886D01*
X106135347Y-78604865D01*
X106106974Y-78549578D01*
X106105113Y-78541290D01*
X106102100Y-78514123D01*
X106102100Y-75610735D01*
X106107123Y-75575799D01*
X106107210Y-75575505D01*
X106111527Y-75560800D01*
X106149278Y-75502044D01*
X106150474Y-75501007D01*
X106205748Y-75473447D01*
X106213709Y-75471744D01*
X106240503Y-75469004D01*
X113379777Y-75519017D01*
G37*
%TD.AperFunction*%
%TA.AperFunction,Conductor*%
G36*
X101968334Y-59669736D02*
G01*
X102003245Y-59674823D01*
X102018243Y-59679257D01*
X102076925Y-59717116D01*
X102078138Y-59718521D01*
X102105492Y-59773369D01*
X102107112Y-59780863D01*
X102109912Y-59807142D01*
X102100038Y-75378661D01*
X102100000Y-75440000D01*
X102099999Y-75440000D01*
X102137665Y-75440263D01*
X105556942Y-75464216D01*
X105591839Y-75469483D01*
X105606805Y-75473991D01*
X105621749Y-75483744D01*
X105638836Y-75488897D01*
X105665285Y-75512155D01*
X105665316Y-75512175D01*
X105665340Y-75512203D01*
X105666666Y-75513756D01*
X105693619Y-75568327D01*
X105695155Y-75575505D01*
X105697900Y-75601452D01*
X105697900Y-78518815D01*
X105692875Y-78553759D01*
X105688470Y-78568757D01*
X105678835Y-78583750D01*
X105673824Y-78600831D01*
X105650717Y-78627509D01*
X105649012Y-78628987D01*
X105594959Y-78656278D01*
X105588159Y-78657805D01*
X105562657Y-78660807D01*
X102940031Y-78696074D01*
X102907076Y-78692073D01*
X102899207Y-78690021D01*
X102873228Y-78683246D01*
X102857072Y-78677823D01*
X102854592Y-78676795D01*
X102854587Y-78676793D01*
X102752727Y-78649500D01*
X102752726Y-78649500D01*
X102647273Y-78649500D01*
X102545409Y-78676794D01*
X102545408Y-78676794D01*
X102545406Y-78676795D01*
X102545405Y-78676795D01*
X102543570Y-78677855D01*
X102514471Y-78690021D01*
X102484806Y-78698183D01*
X102453578Y-78702615D01*
X98930000Y-78749998D01*
X98218359Y-79405457D01*
X98218356Y-79405458D01*
X98218355Y-79405461D01*
X98189257Y-79425430D01*
X98179647Y-79430175D01*
X98164642Y-79437586D01*
X98110577Y-79450400D01*
X96733535Y-79459705D01*
X96705133Y-79456606D01*
X96677835Y-79450382D01*
X96650897Y-79440864D01*
X96305509Y-79271844D01*
X96276340Y-79251978D01*
X96264141Y-79240824D01*
X96228381Y-79182650D01*
X96224565Y-79168980D01*
X96220000Y-79135643D01*
X96220000Y-76035976D01*
X96225022Y-76001044D01*
X96229594Y-75985470D01*
X96239015Y-75970667D01*
X96243667Y-75954291D01*
X96266536Y-75927420D01*
X96277551Y-75917703D01*
X96306072Y-75898834D01*
X96680000Y-75720000D01*
X96680588Y-75483609D01*
X96682486Y-75462312D01*
X96684116Y-75453104D01*
X96685571Y-75450172D01*
X96685705Y-75448674D01*
X96686978Y-75444381D01*
X96687936Y-75444665D01*
X96692037Y-75428638D01*
X96691393Y-75428397D01*
X96692430Y-75425624D01*
X96693005Y-75424857D01*
X96693432Y-75423189D01*
X96694751Y-75420302D01*
X96695994Y-75420870D01*
X96704937Y-75408946D01*
X96707793Y-75399231D01*
X96713175Y-75394570D01*
X96715185Y-75390522D01*
X96721654Y-75386654D01*
X96730822Y-75374429D01*
X96729940Y-75373406D01*
X96731078Y-75372424D01*
X96732973Y-75371560D01*
X96734349Y-75369727D01*
X96734415Y-75369678D01*
X96736791Y-75367905D01*
X96737859Y-75369336D01*
X96747253Y-75365059D01*
X96760611Y-75353493D01*
X96794479Y-75343560D01*
X96795894Y-75343357D01*
X96813503Y-75342100D01*
X96916515Y-75342100D01*
X96951447Y-75347121D01*
X96976691Y-75354534D01*
X97029437Y-75385830D01*
X97054087Y-75410480D01*
X97145413Y-75463207D01*
X97247273Y-75490500D01*
X97247275Y-75490500D01*
X97352725Y-75490500D01*
X97352727Y-75490500D01*
X97454587Y-75463207D01*
X97545913Y-75410480D01*
X97620480Y-75335913D01*
X97673207Y-75244587D01*
X97700500Y-75142727D01*
X97700500Y-75037273D01*
X97673207Y-74935413D01*
X97620480Y-74844087D01*
X97545913Y-74769520D01*
X97545911Y-74769519D01*
X97545909Y-74769517D01*
X97475762Y-74729017D01*
X97475754Y-74729013D01*
X97466800Y-74723844D01*
X97454589Y-74716794D01*
X97454588Y-74716793D01*
X97454587Y-74716793D01*
X97430972Y-74710465D01*
X97430971Y-74710465D01*
X97392586Y-74700180D01*
X97352727Y-74689500D01*
X97352726Y-74689500D01*
X97247273Y-74689500D01*
X97145413Y-74716792D01*
X97145408Y-74716795D01*
X97054085Y-74769520D01*
X97054080Y-74769524D01*
X97034631Y-74788974D01*
X97008820Y-74808755D01*
X97007587Y-74809464D01*
X96995098Y-74816284D01*
X96989551Y-74819848D01*
X96986923Y-74821362D01*
X96955792Y-74828874D01*
X96925056Y-74837900D01*
X96824337Y-74837900D01*
X96789396Y-74832875D01*
X96774397Y-74828470D01*
X96715642Y-74790717D01*
X96714509Y-74789410D01*
X96687007Y-74734399D01*
X96685342Y-74726700D01*
X96682540Y-74700180D01*
X96701603Y-67046319D01*
X96719633Y-59807142D01*
X96719646Y-59801740D01*
X96724754Y-59766830D01*
X96729198Y-59751836D01*
X96767115Y-59693158D01*
X96768518Y-59691948D01*
X96823377Y-59664650D01*
X96830903Y-59663030D01*
X96857220Y-59660253D01*
X101968334Y-59669736D01*
G37*
%TD.AperFunction*%
%TD*%
%TA.AperFunction,Conductor*%
%TO.N,GND*%
G36*
X117025706Y-105210463D02*
G01*
X117046342Y-105227061D01*
X117490896Y-105670739D01*
X117974836Y-106153726D01*
X118008381Y-106215016D01*
X118011241Y-106241348D01*
X118013220Y-107917457D01*
X117993615Y-107984519D01*
X117976902Y-108005284D01*
X117919500Y-108062686D01*
X117853608Y-108176812D01*
X117835975Y-108242622D01*
X117819500Y-108304108D01*
X117819500Y-108435892D01*
X117826662Y-108462620D01*
X117853608Y-108563187D01*
X117876082Y-108602112D01*
X117919500Y-108677314D01*
X117919502Y-108677316D01*
X117977972Y-108735786D01*
X118011457Y-108797109D01*
X118014291Y-108823321D01*
X118028758Y-121068567D01*
X118009153Y-121135629D01*
X117992456Y-121156377D01*
X117066362Y-122082832D01*
X117005046Y-122116329D01*
X116978566Y-122119168D01*
X112825776Y-122115883D01*
X112758752Y-122096145D01*
X112731584Y-122072415D01*
X112695358Y-122030000D01*
X110444643Y-122030000D01*
X110410112Y-122070430D01*
X110351604Y-122108623D01*
X110315724Y-122113898D01*
X105385000Y-122110000D01*
X101316358Y-122106781D01*
X101249334Y-122087043D01*
X101222165Y-122063312D01*
X101210796Y-122050000D01*
X100193558Y-122050000D01*
X100180434Y-122057166D01*
X100167987Y-122056275D01*
X100154076Y-122060000D01*
X98970080Y-122060000D01*
X98968899Y-122061383D01*
X98910391Y-122099575D01*
X98874512Y-122104850D01*
X94758539Y-122101594D01*
X94691515Y-122081856D01*
X94670956Y-122065275D01*
X94390425Y-121784744D01*
X94265681Y-121660000D01*
X98970080Y-121660000D01*
X99325438Y-121660000D01*
X99325438Y-121330000D01*
X99725438Y-121330000D01*
X99725438Y-121660000D01*
X99987318Y-121660000D01*
X100000442Y-121652834D01*
X100026800Y-121650000D01*
X100455438Y-121650000D01*
X100855438Y-121650000D01*
X101210794Y-121650000D01*
X101207627Y-121630000D01*
X110444642Y-121630000D01*
X110800000Y-121630000D01*
X111200000Y-121630000D01*
X111940000Y-121630000D01*
X112340000Y-121630000D01*
X112695357Y-121630000D01*
X112695356Y-121629999D01*
X112685534Y-121567982D01*
X112629447Y-121457906D01*
X112629444Y-121457901D01*
X112542098Y-121370555D01*
X112542093Y-121370551D01*
X112432015Y-121314463D01*
X112340691Y-121300000D01*
X112340000Y-121300000D01*
X112340000Y-121630000D01*
X111940000Y-121630000D01*
X111940000Y-121300000D01*
X111939310Y-121300001D01*
X111847982Y-121314465D01*
X111737906Y-121370552D01*
X111737901Y-121370555D01*
X111657681Y-121450776D01*
X111596358Y-121484261D01*
X111526666Y-121479277D01*
X111482319Y-121450776D01*
X111402098Y-121370555D01*
X111402093Y-121370551D01*
X111292015Y-121314463D01*
X111200691Y-121300000D01*
X111200000Y-121300000D01*
X111200000Y-121630000D01*
X110800000Y-121630000D01*
X110800000Y-121300000D01*
X110799310Y-121300001D01*
X110707982Y-121314465D01*
X110597906Y-121370552D01*
X110597901Y-121370555D01*
X110510555Y-121457901D01*
X110510551Y-121457906D01*
X110454463Y-121567983D01*
X110444642Y-121630000D01*
X101207627Y-121630000D01*
X101200973Y-121587982D01*
X101144885Y-121477906D01*
X101144882Y-121477901D01*
X101057536Y-121390555D01*
X101057531Y-121390551D01*
X100947453Y-121334463D01*
X100856129Y-121320000D01*
X100855438Y-121320000D01*
X100855438Y-121650000D01*
X100455438Y-121650000D01*
X100455438Y-121320000D01*
X100454748Y-121320001D01*
X100363420Y-121334465D01*
X100253344Y-121390552D01*
X100253339Y-121390555D01*
X100173119Y-121470776D01*
X100111796Y-121504261D01*
X100042104Y-121499277D01*
X99997757Y-121470776D01*
X99927536Y-121400555D01*
X99927531Y-121400551D01*
X99817453Y-121344463D01*
X99726129Y-121330000D01*
X99725438Y-121330000D01*
X99325438Y-121330000D01*
X99324748Y-121330001D01*
X99233420Y-121344465D01*
X99123344Y-121400552D01*
X99123339Y-121400555D01*
X99035993Y-121487901D01*
X99035989Y-121487906D01*
X98979901Y-121597983D01*
X98970080Y-121660000D01*
X94265681Y-121660000D01*
X94006236Y-121400555D01*
X93326819Y-120721137D01*
X93293334Y-120659814D01*
X93290500Y-120633456D01*
X93290500Y-120338676D01*
X93310185Y-120271637D01*
X93326819Y-120250995D01*
X93340500Y-120237314D01*
X93406392Y-120123186D01*
X93440500Y-119995892D01*
X93440500Y-119864108D01*
X93406392Y-119736814D01*
X93340500Y-119622686D01*
X93247314Y-119529500D01*
X93185147Y-119493608D01*
X93133187Y-119463608D01*
X93069539Y-119446554D01*
X93005892Y-119429500D01*
X92874108Y-119429500D01*
X92865981Y-119429500D01*
X92865981Y-119426492D01*
X92811105Y-119417912D01*
X92758868Y-119371511D01*
X92740000Y-119305760D01*
X92740000Y-118313667D01*
X92759685Y-118246628D01*
X92781990Y-118222382D01*
X92781567Y-118221959D01*
X92787314Y-118216212D01*
X92880500Y-118123026D01*
X92946392Y-118008898D01*
X92980500Y-117881604D01*
X92980500Y-117749820D01*
X92946392Y-117622526D01*
X92880500Y-117508398D01*
X92787314Y-117415212D01*
X92781567Y-117409465D01*
X92782766Y-117408265D01*
X92747305Y-117359689D01*
X92740000Y-117317756D01*
X92740000Y-116912239D01*
X92759685Y-116845200D01*
X92781990Y-116820954D01*
X92781567Y-116820531D01*
X92787314Y-116814784D01*
X92880500Y-116721598D01*
X92946392Y-116607470D01*
X92980500Y-116480176D01*
X92980500Y-116348392D01*
X92946392Y-116221098D01*
X92880500Y-116106970D01*
X92787314Y-116013784D01*
X92781567Y-116008037D01*
X92782766Y-116006837D01*
X92747305Y-115958261D01*
X92740000Y-115916328D01*
X92740000Y-115510811D01*
X92759685Y-115443772D01*
X92781990Y-115419526D01*
X92781567Y-115419103D01*
X92787314Y-115413356D01*
X92880500Y-115320170D01*
X92946392Y-115206042D01*
X92980500Y-115078748D01*
X92980500Y-114946964D01*
X92946392Y-114819670D01*
X92880500Y-114705542D01*
X92787314Y-114612356D01*
X92781567Y-114606609D01*
X92782766Y-114605409D01*
X92747305Y-114556833D01*
X92740000Y-114514900D01*
X92740000Y-114109383D01*
X92759685Y-114042344D01*
X92781990Y-114018098D01*
X92781567Y-114017675D01*
X92828928Y-113970314D01*
X92880500Y-113918742D01*
X92946392Y-113804614D01*
X92980500Y-113677320D01*
X92980500Y-113545536D01*
X92946392Y-113418242D01*
X92880500Y-113304114D01*
X92787314Y-113210928D01*
X92781567Y-113205181D01*
X92782766Y-113203981D01*
X92747305Y-113155405D01*
X92740000Y-113113472D01*
X92740000Y-112707955D01*
X92759685Y-112640916D01*
X92781990Y-112616670D01*
X92781567Y-112616247D01*
X92817513Y-112580301D01*
X92880500Y-112517314D01*
X92946392Y-112403186D01*
X92980500Y-112275892D01*
X92980500Y-112144108D01*
X92946392Y-112016814D01*
X92880500Y-111902686D01*
X92787314Y-111809500D01*
X92781567Y-111803753D01*
X92782766Y-111802553D01*
X92747305Y-111753977D01*
X92740000Y-111712044D01*
X92740000Y-110125689D01*
X96600001Y-110125689D01*
X96614465Y-110217017D01*
X96670552Y-110327093D01*
X96670555Y-110327098D01*
X96757901Y-110414444D01*
X96757906Y-110414447D01*
X96867982Y-110470534D01*
X96929999Y-110480356D01*
X96930000Y-110480356D01*
X96930000Y-110125000D01*
X96600001Y-110125000D01*
X96600001Y-110125689D01*
X92740000Y-110125689D01*
X92740000Y-109724308D01*
X96600000Y-109724308D01*
X96600000Y-109725000D01*
X96930000Y-109725000D01*
X96930000Y-109369641D01*
X96867983Y-109379463D01*
X96757906Y-109435551D01*
X96757901Y-109435555D01*
X96670555Y-109522901D01*
X96670551Y-109522906D01*
X96614463Y-109632984D01*
X96600000Y-109724308D01*
X92740000Y-109724308D01*
X92740000Y-106261334D01*
X92759685Y-106194295D01*
X92776284Y-106173687D01*
X92794257Y-106155700D01*
X93703717Y-105245520D01*
X93765026Y-105212012D01*
X93791330Y-105209168D01*
X100098406Y-105204176D01*
X100165457Y-105223807D01*
X100211254Y-105276574D01*
X100222500Y-105328175D01*
X100222500Y-105639742D01*
X100219793Y-105648959D01*
X100221076Y-105658482D01*
X100210108Y-105681941D01*
X100202815Y-105706781D01*
X100194767Y-105714757D01*
X100191486Y-105721776D01*
X100174030Y-105735311D01*
X100164608Y-105744650D01*
X100159824Y-105747664D01*
X100068609Y-105794141D01*
X100038861Y-105823888D01*
X100027108Y-105831295D01*
X100006322Y-105837197D01*
X99987358Y-105847553D01*
X99973377Y-105846553D01*
X99959895Y-105850382D01*
X99939219Y-105844110D01*
X99917666Y-105842569D01*
X99902942Y-105833106D01*
X99893034Y-105830101D01*
X99886717Y-105822679D01*
X99873319Y-105814068D01*
X99853396Y-105794145D01*
X99853393Y-105794143D01*
X99853391Y-105794141D01*
X99743175Y-105737983D01*
X99743174Y-105737982D01*
X99743171Y-105737981D01*
X99651735Y-105723500D01*
X99310260Y-105723500D01*
X99310260Y-105723501D01*
X99218829Y-105737981D01*
X99218828Y-105737981D01*
X99108607Y-105794142D01*
X99108603Y-105794145D01*
X99021145Y-105881603D01*
X99021142Y-105881608D01*
X98964981Y-105991827D01*
X98964981Y-105991828D01*
X98950500Y-106083264D01*
X98950500Y-106484739D01*
X98964981Y-106576170D01*
X98964981Y-106576171D01*
X98964982Y-106576174D01*
X98964983Y-106576175D01*
X98991828Y-106628862D01*
X99021142Y-106686392D01*
X99021144Y-106686395D01*
X99067180Y-106732430D01*
X99100666Y-106793753D01*
X99103500Y-106820112D01*
X99103500Y-107339964D01*
X99083815Y-107407003D01*
X99031011Y-107452758D01*
X98994976Y-107462095D01*
X98995078Y-107462738D01*
X98898829Y-107477981D01*
X98898828Y-107477981D01*
X98788607Y-107534142D01*
X98788603Y-107534145D01*
X98768681Y-107554068D01*
X98707358Y-107587553D01*
X98637666Y-107582569D01*
X98593319Y-107554068D01*
X98573396Y-107534145D01*
X98573393Y-107534143D01*
X98573391Y-107534141D01*
X98463175Y-107477983D01*
X98463174Y-107477982D01*
X98463171Y-107477981D01*
X98371735Y-107463500D01*
X98030260Y-107463500D01*
X98030260Y-107463501D01*
X97938829Y-107477981D01*
X97938828Y-107477981D01*
X97828607Y-107534142D01*
X97828603Y-107534145D01*
X97741145Y-107621603D01*
X97741142Y-107621608D01*
X97684981Y-107731827D01*
X97684981Y-107731828D01*
X97670500Y-107823264D01*
X97670500Y-107894530D01*
X97666275Y-107926622D01*
X97653500Y-107974299D01*
X97653500Y-109310347D01*
X97633815Y-109377386D01*
X97581011Y-109423141D01*
X97511853Y-109433085D01*
X97473205Y-109420832D01*
X97392016Y-109379463D01*
X97330000Y-109369641D01*
X97330000Y-110480356D01*
X97392017Y-110470534D01*
X97502093Y-110414447D01*
X97521963Y-110394578D01*
X97529913Y-110390236D01*
X97535343Y-110382985D01*
X97560097Y-110373754D01*
X97583286Y-110361092D01*
X97592322Y-110361738D01*
X97600810Y-110358573D01*
X97626624Y-110364190D01*
X97652977Y-110366075D01*
X97662034Y-110371896D01*
X97669081Y-110373430D01*
X97697334Y-110394584D01*
X97703727Y-110400978D01*
X97737207Y-110462303D01*
X97732217Y-110531995D01*
X97703721Y-110576333D01*
X97634723Y-110645331D01*
X97563538Y-110751866D01*
X97563533Y-110751875D01*
X97514499Y-110870255D01*
X97514497Y-110870261D01*
X97489500Y-110995928D01*
X97489500Y-110995931D01*
X97489500Y-111124069D01*
X97489500Y-111124071D01*
X97489499Y-111124071D01*
X97514497Y-111249738D01*
X97514499Y-111249744D01*
X97563533Y-111368124D01*
X97563538Y-111368133D01*
X97634723Y-111474668D01*
X97634726Y-111474672D01*
X97725327Y-111565273D01*
X97725331Y-111565276D01*
X97831866Y-111636461D01*
X97831872Y-111636464D01*
X97831873Y-111636465D01*
X97950256Y-111685501D01*
X97950260Y-111685501D01*
X97950261Y-111685502D01*
X98075928Y-111710500D01*
X98075931Y-111710500D01*
X98204071Y-111710500D01*
X98288615Y-111693682D01*
X98329744Y-111685501D01*
X98448127Y-111636465D01*
X98554669Y-111565276D01*
X98645276Y-111474669D01*
X98716465Y-111368127D01*
X98765501Y-111249744D01*
X98790500Y-111124069D01*
X98790500Y-110995931D01*
X98790500Y-110995928D01*
X98765502Y-110870261D01*
X98765501Y-110870260D01*
X98765501Y-110870256D01*
X98716465Y-110751873D01*
X98716464Y-110751872D01*
X98716461Y-110751866D01*
X98645276Y-110645331D01*
X98645273Y-110645327D01*
X98553819Y-110553873D01*
X98539115Y-110526945D01*
X98522523Y-110501127D01*
X98521631Y-110494926D01*
X98520334Y-110492550D01*
X98517500Y-110466192D01*
X98517500Y-110411112D01*
X98537185Y-110344073D01*
X98544210Y-110335355D01*
X98544120Y-110335290D01*
X98549851Y-110327398D01*
X98549859Y-110327391D01*
X98606017Y-110217175D01*
X98606017Y-110217173D01*
X98606018Y-110217172D01*
X98606018Y-110217171D01*
X98616312Y-110152175D01*
X98620500Y-110125735D01*
X98620499Y-109724266D01*
X98620499Y-109724265D01*
X98620499Y-109724261D01*
X98615465Y-109692479D01*
X98624419Y-109623186D01*
X98669415Y-109569734D01*
X98736167Y-109549094D01*
X98803481Y-109567819D01*
X98841040Y-109604190D01*
X98854723Y-109624668D01*
X98854726Y-109624672D01*
X98945327Y-109715273D01*
X98945331Y-109715276D01*
X99051866Y-109786461D01*
X99051872Y-109786464D01*
X99051873Y-109786465D01*
X99170256Y-109835501D01*
X99170260Y-109835501D01*
X99170261Y-109835502D01*
X99295928Y-109860500D01*
X99295931Y-109860500D01*
X99424071Y-109860500D01*
X99508615Y-109843682D01*
X99549744Y-109835501D01*
X99668127Y-109786465D01*
X99774669Y-109715276D01*
X99865276Y-109624669D01*
X99936465Y-109518127D01*
X99985501Y-109399744D01*
X100005318Y-109300121D01*
X100010500Y-109274071D01*
X100010500Y-109145928D01*
X99985502Y-109020261D01*
X99985501Y-109020260D01*
X99985501Y-109020256D01*
X99936465Y-108901873D01*
X99936464Y-108901872D01*
X99936461Y-108901866D01*
X99865276Y-108795331D01*
X99865273Y-108795327D01*
X99773819Y-108703873D01*
X99740334Y-108642550D01*
X99737500Y-108616192D01*
X99737500Y-108032728D01*
X99757185Y-107965689D01*
X99758315Y-107963962D01*
X99765130Y-107953735D01*
X99783075Y-107935791D01*
X99819864Y-107872069D01*
X99826156Y-107861170D01*
X99876724Y-107812959D01*
X99945332Y-107799739D01*
X100010195Y-107825710D01*
X100036640Y-107854285D01*
X100048521Y-107872066D01*
X100048526Y-107872072D01*
X100139127Y-107962673D01*
X100139131Y-107962676D01*
X100245666Y-108033861D01*
X100245672Y-108033864D01*
X100245673Y-108033865D01*
X100364056Y-108082901D01*
X100364060Y-108082901D01*
X100364061Y-108082902D01*
X100489728Y-108107900D01*
X100489731Y-108107900D01*
X100617871Y-108107900D01*
X100702415Y-108091082D01*
X100743544Y-108082901D01*
X100861927Y-108033865D01*
X100968469Y-107962676D01*
X101059076Y-107872069D01*
X101130265Y-107765527D01*
X101179301Y-107647144D01*
X101196263Y-107561873D01*
X101204300Y-107521471D01*
X101204300Y-107393328D01*
X101179302Y-107267661D01*
X101179301Y-107267660D01*
X101179301Y-107267656D01*
X101130265Y-107149273D01*
X101130264Y-107149272D01*
X101130261Y-107149266D01*
X101059076Y-107042731D01*
X101059073Y-107042727D01*
X101024819Y-107008473D01*
X100991334Y-106947150D01*
X100988500Y-106920792D01*
X100988500Y-106697844D01*
X104520000Y-106697844D01*
X104526401Y-106757372D01*
X104526403Y-106757379D01*
X104576645Y-106892086D01*
X104576649Y-106892093D01*
X104662809Y-107007187D01*
X104662812Y-107007190D01*
X104777906Y-107093350D01*
X104777913Y-107093354D01*
X104912620Y-107143596D01*
X104912627Y-107143598D01*
X104972155Y-107149999D01*
X104972172Y-107150000D01*
X105470000Y-107150000D01*
X105870000Y-107150000D01*
X106367828Y-107150000D01*
X106367844Y-107149999D01*
X106427372Y-107143598D01*
X106427379Y-107143596D01*
X106562086Y-107093354D01*
X106562093Y-107093350D01*
X106677187Y-107007190D01*
X106677190Y-107007187D01*
X106763350Y-106892093D01*
X106763354Y-106892086D01*
X106813596Y-106757379D01*
X106813598Y-106757372D01*
X106819999Y-106697844D01*
X106820000Y-106697827D01*
X106820000Y-106525000D01*
X105870000Y-106525000D01*
X105870000Y-107150000D01*
X105470000Y-107150000D01*
X105470000Y-106525000D01*
X104520000Y-106525000D01*
X104520000Y-106697844D01*
X100988500Y-106697844D01*
X100988500Y-106234303D01*
X100988500Y-106234301D01*
X100981724Y-106209015D01*
X100977500Y-106176925D01*
X100977500Y-105952155D01*
X104520000Y-105952155D01*
X104520000Y-106125000D01*
X105470000Y-106125000D01*
X105870000Y-106125000D01*
X106820000Y-106125000D01*
X106820000Y-105952172D01*
X106819999Y-105952155D01*
X106813598Y-105892627D01*
X106813596Y-105892620D01*
X106763354Y-105757913D01*
X106763350Y-105757906D01*
X106677190Y-105642812D01*
X106677187Y-105642809D01*
X106596227Y-105582202D01*
X106562093Y-105556649D01*
X106562086Y-105556645D01*
X106463835Y-105520000D01*
X107517043Y-105520000D01*
X107526865Y-105582017D01*
X107582952Y-105692093D01*
X107582955Y-105692098D01*
X107670301Y-105779444D01*
X107670306Y-105779448D01*
X107780384Y-105835536D01*
X107871703Y-105849999D01*
X108272400Y-105849999D01*
X108273089Y-105849999D01*
X108364417Y-105835534D01*
X108474493Y-105779447D01*
X108474498Y-105779444D01*
X108543519Y-105710424D01*
X108604842Y-105676939D01*
X108674534Y-105681923D01*
X108718881Y-105710424D01*
X108787901Y-105779444D01*
X108787906Y-105779448D01*
X108897984Y-105835536D01*
X108989303Y-105849999D01*
X109390000Y-105849999D01*
X109390689Y-105849999D01*
X109482017Y-105835534D01*
X109592093Y-105779447D01*
X109592098Y-105779444D01*
X109679444Y-105692098D01*
X109679448Y-105692093D01*
X109735536Y-105582016D01*
X109745358Y-105520000D01*
X109390000Y-105520000D01*
X109390000Y-105849999D01*
X108989303Y-105849999D01*
X108989999Y-105849998D01*
X108990000Y-105849998D01*
X108990000Y-105520000D01*
X108272400Y-105520000D01*
X108272400Y-105849999D01*
X107871703Y-105849999D01*
X107872399Y-105849998D01*
X107872400Y-105849998D01*
X107872400Y-105520000D01*
X107517043Y-105520000D01*
X106463835Y-105520000D01*
X106427379Y-105506403D01*
X106427372Y-105506401D01*
X106367844Y-105500000D01*
X105870000Y-105500000D01*
X105870000Y-106125000D01*
X105470000Y-106125000D01*
X105470000Y-105500000D01*
X104972155Y-105500000D01*
X104912627Y-105506401D01*
X104912620Y-105506403D01*
X104777913Y-105556645D01*
X104777906Y-105556649D01*
X104662812Y-105642809D01*
X104662809Y-105642812D01*
X104576649Y-105757906D01*
X104576645Y-105757913D01*
X104526403Y-105892620D01*
X104526401Y-105892627D01*
X104520000Y-105952155D01*
X100977500Y-105952155D01*
X100977500Y-105520000D01*
X101554643Y-105520000D01*
X101564465Y-105582017D01*
X101620552Y-105692093D01*
X101620555Y-105692098D01*
X101707901Y-105779444D01*
X101707906Y-105779448D01*
X101817984Y-105835536D01*
X101909303Y-105849999D01*
X102310000Y-105849999D01*
X102310689Y-105849999D01*
X102402017Y-105835534D01*
X102512093Y-105779447D01*
X102512098Y-105779444D01*
X102587319Y-105704224D01*
X102648642Y-105670739D01*
X102718334Y-105675723D01*
X102762681Y-105704224D01*
X102837901Y-105779444D01*
X102837906Y-105779448D01*
X102947984Y-105835536D01*
X103039303Y-105849999D01*
X103440000Y-105849999D01*
X103440689Y-105849999D01*
X103532017Y-105835534D01*
X103642093Y-105779447D01*
X103642098Y-105779444D01*
X103729444Y-105692098D01*
X103729448Y-105692093D01*
X103785536Y-105582016D01*
X103795358Y-105520000D01*
X103440000Y-105520000D01*
X103440000Y-105849999D01*
X103039303Y-105849999D01*
X103039999Y-105849998D01*
X103040000Y-105849998D01*
X103040000Y-105520000D01*
X102310000Y-105520000D01*
X102310000Y-105849999D01*
X101909303Y-105849999D01*
X101909999Y-105849998D01*
X101910000Y-105849998D01*
X101910000Y-105520000D01*
X101554643Y-105520000D01*
X100977500Y-105520000D01*
X100977500Y-105327381D01*
X100997185Y-105260342D01*
X101049989Y-105214587D01*
X101101395Y-105203382D01*
X105375000Y-105200000D01*
X110388405Y-105196031D01*
X110455457Y-105215662D01*
X110501253Y-105268430D01*
X110512500Y-105320031D01*
X110512500Y-106155700D01*
X110515275Y-106166056D01*
X110519500Y-106198148D01*
X110519500Y-106466739D01*
X110533981Y-106558170D01*
X110533981Y-106558171D01*
X110533982Y-106558174D01*
X110533983Y-106558175D01*
X110590141Y-106668391D01*
X110616181Y-106694431D01*
X110649666Y-106755752D01*
X110652500Y-106782112D01*
X110652500Y-107276192D01*
X110632815Y-107343231D01*
X110616181Y-107363873D01*
X110524726Y-107455327D01*
X110524723Y-107455331D01*
X110453538Y-107561866D01*
X110453533Y-107561875D01*
X110404499Y-107680255D01*
X110404497Y-107680261D01*
X110379500Y-107805928D01*
X110379500Y-107934068D01*
X110379499Y-107934071D01*
X110404497Y-108059738D01*
X110404499Y-108059744D01*
X110453533Y-108178124D01*
X110453538Y-108178133D01*
X110524723Y-108284668D01*
X110524726Y-108284672D01*
X110615327Y-108375273D01*
X110615331Y-108375276D01*
X110721866Y-108446461D01*
X110721872Y-108446464D01*
X110721873Y-108446465D01*
X110840256Y-108495501D01*
X110840260Y-108495501D01*
X110840261Y-108495502D01*
X110965928Y-108520500D01*
X110965931Y-108520500D01*
X111094071Y-108520500D01*
X111178615Y-108503682D01*
X111219744Y-108495501D01*
X111338127Y-108446465D01*
X111444669Y-108375276D01*
X111535276Y-108284669D01*
X111573987Y-108226734D01*
X111596441Y-108193130D01*
X111650053Y-108148324D01*
X111719378Y-108139617D01*
X111782405Y-108169771D01*
X111819125Y-108229214D01*
X111822016Y-108242622D01*
X111833981Y-108318171D01*
X111833982Y-108318174D01*
X111833983Y-108318175D01*
X111890141Y-108428391D01*
X111976182Y-108514432D01*
X111990888Y-108541363D01*
X112007477Y-108567177D01*
X112008368Y-108573376D01*
X112009666Y-108575753D01*
X112012500Y-108602112D01*
X112012500Y-108756192D01*
X111992815Y-108823231D01*
X111976181Y-108843873D01*
X111884726Y-108935327D01*
X111884723Y-108935331D01*
X111813538Y-109041866D01*
X111813533Y-109041875D01*
X111764499Y-109160255D01*
X111764497Y-109160261D01*
X111739500Y-109285928D01*
X111739500Y-109285931D01*
X111739500Y-109414069D01*
X111739500Y-109414071D01*
X111739499Y-109414071D01*
X111764497Y-109539738D01*
X111764499Y-109539744D01*
X111813533Y-109658124D01*
X111813538Y-109658133D01*
X111884723Y-109764668D01*
X111884726Y-109764672D01*
X111975327Y-109855273D01*
X111975331Y-109855276D01*
X112081866Y-109926461D01*
X112081872Y-109926464D01*
X112081873Y-109926465D01*
X112200256Y-109975501D01*
X112200260Y-109975501D01*
X112200261Y-109975502D01*
X112325928Y-110000500D01*
X112325931Y-110000500D01*
X112454071Y-110000500D01*
X112538615Y-109983682D01*
X112579744Y-109975501D01*
X112698127Y-109926465D01*
X112726608Y-109907434D01*
X112793283Y-109886555D01*
X112860663Y-109905037D01*
X112907355Y-109957015D01*
X112919500Y-110010533D01*
X112919500Y-110060738D01*
X112919501Y-110060739D01*
X112933981Y-110152170D01*
X112933981Y-110152171D01*
X112933982Y-110152174D01*
X112933983Y-110152175D01*
X112990141Y-110262391D01*
X113056182Y-110328432D01*
X113089666Y-110389753D01*
X113092500Y-110416112D01*
X113092500Y-110696192D01*
X113072815Y-110763231D01*
X113056181Y-110783873D01*
X112964726Y-110875327D01*
X112964723Y-110875331D01*
X112893538Y-110981866D01*
X112893533Y-110981875D01*
X112844499Y-111100255D01*
X112844497Y-111100261D01*
X112819500Y-111225928D01*
X112819500Y-111225931D01*
X112819500Y-111354069D01*
X112819500Y-111354071D01*
X112819499Y-111354071D01*
X112844497Y-111479738D01*
X112844499Y-111479744D01*
X112893533Y-111598124D01*
X112893538Y-111598133D01*
X112964723Y-111704668D01*
X112964726Y-111704672D01*
X113055327Y-111795273D01*
X113055331Y-111795276D01*
X113161866Y-111866461D01*
X113161872Y-111866464D01*
X113161873Y-111866465D01*
X113280256Y-111915501D01*
X113280260Y-111915501D01*
X113280261Y-111915502D01*
X113405928Y-111940500D01*
X113405931Y-111940500D01*
X113534071Y-111940500D01*
X113618615Y-111923682D01*
X113659744Y-111915501D01*
X113778127Y-111866465D01*
X113884669Y-111795276D01*
X113975276Y-111704669D01*
X114046465Y-111598127D01*
X114095501Y-111479744D01*
X114103682Y-111438615D01*
X114120500Y-111354071D01*
X114120500Y-111225928D01*
X114095502Y-111100261D01*
X114095501Y-111100260D01*
X114095501Y-111100256D01*
X114046465Y-110981873D01*
X114046464Y-110981872D01*
X114046461Y-110981866D01*
X113975276Y-110875331D01*
X113975273Y-110875327D01*
X113883819Y-110783873D01*
X113869111Y-110756938D01*
X113852523Y-110731127D01*
X113851631Y-110724926D01*
X113850334Y-110722550D01*
X113847500Y-110696192D01*
X113847500Y-110454473D01*
X113867185Y-110387434D01*
X113919989Y-110341679D01*
X113989147Y-110331735D01*
X114027952Y-110347490D01*
X114029212Y-110345018D01*
X114147982Y-110405534D01*
X114209999Y-110415356D01*
X114210000Y-110415356D01*
X114610000Y-110415356D01*
X114672017Y-110405534D01*
X114782093Y-110349447D01*
X114782098Y-110349444D01*
X114869444Y-110262098D01*
X114869448Y-110262093D01*
X114925536Y-110152015D01*
X114940000Y-110060691D01*
X114940000Y-110060000D01*
X114610000Y-110060000D01*
X114610000Y-110415356D01*
X114210000Y-110415356D01*
X114210000Y-109660000D01*
X114610000Y-109660000D01*
X114939999Y-109660000D01*
X114939999Y-109659310D01*
X114925534Y-109567982D01*
X114869447Y-109457906D01*
X114869444Y-109457901D01*
X114782098Y-109370555D01*
X114782093Y-109370551D01*
X114672015Y-109314463D01*
X114672016Y-109314463D01*
X114610000Y-109304641D01*
X114610000Y-109660000D01*
X114210000Y-109660000D01*
X114210000Y-109304641D01*
X114147983Y-109314463D01*
X114037795Y-109370608D01*
X113969126Y-109383504D01*
X113904385Y-109357228D01*
X113864128Y-109300121D01*
X113857500Y-109260123D01*
X113857500Y-107976303D01*
X113857500Y-107976301D01*
X113844724Y-107928620D01*
X113840499Y-107896527D01*
X113840499Y-107825260D01*
X113826018Y-107733829D01*
X113826018Y-107733828D01*
X113826017Y-107733826D01*
X113826017Y-107733825D01*
X113769859Y-107623609D01*
X113769857Y-107623607D01*
X113769854Y-107623603D01*
X113682396Y-107536145D01*
X113682393Y-107536143D01*
X113682391Y-107536141D01*
X113572175Y-107479983D01*
X113572174Y-107479982D01*
X113572171Y-107479981D01*
X113480735Y-107465500D01*
X113139260Y-107465500D01*
X113139260Y-107465501D01*
X113047829Y-107479981D01*
X113047828Y-107479981D01*
X112937607Y-107536142D01*
X112937603Y-107536145D01*
X112917681Y-107556068D01*
X112856358Y-107589553D01*
X112786666Y-107584569D01*
X112764567Y-107573718D01*
X112752425Y-107566175D01*
X112722391Y-107536141D01*
X112620526Y-107484238D01*
X112616067Y-107481468D01*
X112596142Y-107459173D01*
X112574409Y-107438647D01*
X112572938Y-107433209D01*
X112569508Y-107429371D01*
X112566073Y-107407832D01*
X112557500Y-107376137D01*
X112557500Y-106216303D01*
X112557500Y-106216301D01*
X112544724Y-106168620D01*
X112540499Y-106136527D01*
X112540499Y-106065260D01*
X112526018Y-105973829D01*
X112526018Y-105973828D01*
X112526017Y-105973826D01*
X112526017Y-105973825D01*
X112469859Y-105863609D01*
X112469857Y-105863607D01*
X112469854Y-105863603D01*
X112382396Y-105776145D01*
X112382393Y-105776143D01*
X112382391Y-105776141D01*
X112272175Y-105719983D01*
X112272174Y-105719982D01*
X112272171Y-105719981D01*
X112180735Y-105705500D01*
X111839260Y-105705500D01*
X111839260Y-105705501D01*
X111747829Y-105719981D01*
X111747828Y-105719981D01*
X111637607Y-105776142D01*
X111637603Y-105776145D01*
X111617681Y-105796068D01*
X111556358Y-105829553D01*
X111486666Y-105824569D01*
X111463958Y-105813337D01*
X111452167Y-105805917D01*
X111422391Y-105776141D01*
X111330209Y-105729172D01*
X111325458Y-105726182D01*
X111305891Y-105704030D01*
X111284409Y-105683741D01*
X111282837Y-105677931D01*
X111279202Y-105673816D01*
X111275892Y-105652256D01*
X111267500Y-105621232D01*
X111267500Y-105319236D01*
X111287185Y-105252197D01*
X111339989Y-105206442D01*
X111391392Y-105195238D01*
X116958653Y-105190831D01*
X117025706Y-105210463D01*
G37*
%TD.AperFunction*%
%TD*%
%TA.AperFunction,Conductor*%
%TO.N,/5V*%
G36*
X111669847Y-60559883D02*
G01*
X111715776Y-60612535D01*
X111727121Y-60667225D01*
X111682732Y-62629206D01*
X111661536Y-62695783D01*
X111607711Y-62740332D01*
X111559175Y-62750400D01*
X108787257Y-62759578D01*
X108720152Y-62740116D01*
X108674223Y-62687464D01*
X108662878Y-62632774D01*
X108707267Y-60670793D01*
X108728463Y-60604216D01*
X108782288Y-60559667D01*
X108830819Y-60549599D01*
X111602743Y-60540421D01*
X111669847Y-60559883D01*
G37*
%TD.AperFunction*%
%TD*%
M02*
