%TF.GenerationSoftware,KiCad,Pcbnew,10.0.3+dfsg-1*%
%TF.CreationDate,2026-09-06T21:22:59-03:00*%
%TF.ProjectId,bitaxeGamma,62697461-7865-4476-916d-6d612e6b6963,rev?*%
%TF.SameCoordinates,Original*%
%TF.FileFunction,Copper,L3,Inr*%
%TF.FilePolarity,Positive*%
%FSLAX46Y46*%
G04 Gerber Fmt 4.6, Leading zero omitted, Abs format (unit mm)*
G04 Created by KiCad (PCBNEW 10.0.3+dfsg-1) date 2026-09-06 21:22:59*
%MOMM*%
%LPD*%
G01*
G04 APERTURE LIST*
%TA.AperFunction,ComponentPad*%
%ADD10C,0.800000*%
%TD*%
%TA.AperFunction,ComponentPad*%
%ADD11C,6.000000*%
%TD*%
%TA.AperFunction,ComponentPad*%
%ADD12R,1.700000X1.700000*%
%TD*%
%TA.AperFunction,ComponentPad*%
%ADD13O,1.700000X1.700000*%
%TD*%
%TA.AperFunction,ComponentPad*%
%ADD14C,0.400000*%
%TD*%
%TA.AperFunction,ComponentPad*%
%ADD15C,1.574800*%
%TD*%
%TA.AperFunction,ComponentPad*%
%ADD16C,1.700000*%
%TD*%
%TA.AperFunction,ComponentPad*%
%ADD17O,1.800000X1.000000*%
%TD*%
%TA.AperFunction,ComponentPad*%
%ADD18O,2.100000X1.000000*%
%TD*%
%TA.AperFunction,ViaPad*%
%ADD19C,0.800000*%
%TD*%
%TA.AperFunction,ViaPad*%
%ADD20C,0.400000*%
%TD*%
%TA.AperFunction,ViaPad*%
%ADD21C,1.000000*%
%TD*%
%TA.AperFunction,ViaPad*%
%ADD22C,0.500000*%
%TD*%
%TA.AperFunction,ViaPad*%
%ADD23C,1.200000*%
%TD*%
%TA.AperFunction,Conductor*%
%ADD24C,1.500000*%
%TD*%
%TA.AperFunction,Conductor*%
%ADD25C,0.508000*%
%TD*%
G04 APERTURE END LIST*
D10*
%TO.N,GND*%
%TO.C,H1*%
X127985010Y-51120990D03*
X128644020Y-49530000D03*
X128644020Y-52711980D03*
X130235010Y-48870990D03*
D11*
X130235010Y-51120990D03*
D10*
X130235010Y-53370990D03*
X131826000Y-49530000D03*
X131826000Y-52711980D03*
X132485010Y-51120990D03*
%TD*%
%TO.N,GND*%
%TO.C,H3*%
X128052000Y-143728000D03*
X128711010Y-142137010D03*
X128711010Y-145318990D03*
X130302000Y-141478000D03*
D11*
X130302000Y-143728000D03*
D10*
X130302000Y-145978000D03*
X131892990Y-142137010D03*
X131892990Y-145318990D03*
X132552000Y-143728000D03*
%TD*%
D12*
%TO.N,/5V*%
%TO.C,J4*%
X99171505Y-51054000D03*
D13*
%TO.N,GND*%
X101711505Y-51054000D03*
%TO.N,Net-(J4-Pin_3)*%
X104251505Y-51054000D03*
%TO.N,Net-(J4-Pin_4)*%
X106791505Y-51054000D03*
%TO.N,Net-(J4-Pin_5)*%
X109331505Y-51054000D03*
%TO.N,Net-(J4-Pin_6)*%
X111871505Y-51054000D03*
%TD*%
D10*
%TO.N,GND*%
%TO.C,H4*%
X78455010Y-143830990D03*
X79114020Y-142240000D03*
X79114020Y-145421980D03*
X80705010Y-141580990D03*
D11*
X80705010Y-143830990D03*
D10*
X80705010Y-146080990D03*
X82296000Y-142240000D03*
X82296000Y-145421980D03*
X82955010Y-143830990D03*
%TD*%
%TO.N,GND*%
%TO.C,H2*%
X78558000Y-51054000D03*
X79217010Y-49463010D03*
X79217010Y-52644990D03*
X80808000Y-48804000D03*
D11*
X80808000Y-51054000D03*
D10*
X80808000Y-53304000D03*
X82398990Y-49463010D03*
X82398990Y-52644990D03*
X83058000Y-51054000D03*
%TD*%
D14*
%TO.N,GND*%
%TO.C,U2*%
X92180000Y-78870000D03*
X93580000Y-78870000D03*
X94980000Y-78870000D03*
X91180000Y-77590000D03*
X92180000Y-77590000D03*
X93580000Y-77590000D03*
X94980000Y-77590000D03*
X95980000Y-77590000D03*
X92180000Y-76310000D03*
X93580000Y-76310000D03*
X94980000Y-76310000D03*
%TD*%
D15*
%TO.N,GND*%
%TO.C,J6*%
X89621000Y-143622000D03*
%TO.N,/5V*%
X92161000Y-143622000D03*
%TO.N,/Fan/FAN_TACH*%
X94701000Y-143622000D03*
%TO.N,/Fan/FAN_PWM*%
X97241000Y-143622000D03*
%TD*%
D16*
%TO.N,GND*%
%TO.C,J3*%
X87005000Y-50292000D03*
D13*
%TO.N,/3V3*%
X87405000Y-52832000D03*
%TO.N,/SCL*%
X87005000Y-55372000D03*
%TO.N,/SDA*%
X87405000Y-57912000D03*
%TD*%
D17*
%TO.N,GND*%
%TO.C,J5*%
X79790000Y-87580000D03*
D18*
X83970000Y-87580000D03*
D17*
X79790000Y-78940000D03*
D18*
X83970000Y-78940000D03*
%TD*%
D19*
%TO.N,GND*%
X105610000Y-116830000D03*
X112180000Y-119260000D03*
X113580000Y-132650000D03*
X98050000Y-114260000D03*
X104490000Y-118700000D03*
X100050000Y-61700000D03*
X112180000Y-120800000D03*
X101350000Y-62800000D03*
X106740000Y-119930000D03*
X97450000Y-60200000D03*
X111900000Y-87400000D03*
X106740000Y-118720000D03*
X104640000Y-130470000D03*
D20*
X103900000Y-78650000D03*
D19*
X105540000Y-132550000D03*
X100050000Y-65750000D03*
D21*
X116540000Y-70920000D03*
D19*
X125600000Y-65940000D03*
X116770000Y-124080000D03*
X106740000Y-117780000D03*
D22*
X95080000Y-91220000D03*
D19*
X104490000Y-117760000D03*
D22*
X98300000Y-72200000D03*
D19*
X105630000Y-118700000D03*
X115260000Y-109040000D03*
X123750000Y-117530000D03*
X111900000Y-89050000D03*
X101400000Y-60700000D03*
X100050000Y-63800000D03*
X100100000Y-60700000D03*
X106740000Y-116860000D03*
X98450000Y-78230000D03*
X96070000Y-137650000D03*
X116050000Y-128010000D03*
X104490000Y-119910000D03*
X119270000Y-54220000D03*
X128130000Y-56090000D03*
X112980000Y-114270000D03*
D21*
X80680000Y-61050000D03*
X104600000Y-143100000D03*
D19*
X99550000Y-67970000D03*
X101350000Y-63800000D03*
X91790000Y-89910000D03*
X112000000Y-86150000D03*
X117090000Y-100360000D03*
X121580000Y-112400000D03*
X101350000Y-61700000D03*
X111860000Y-83000000D03*
X111850000Y-85100000D03*
X98750000Y-61100000D03*
X122640000Y-102460000D03*
X96070000Y-141200000D03*
X113180000Y-130220000D03*
D21*
X117910000Y-70950000D03*
D19*
X119280000Y-102930000D03*
X99370000Y-119240000D03*
X111900000Y-90200000D03*
X97450000Y-61100000D03*
X123710000Y-120230000D03*
X111900000Y-91400000D03*
X100050000Y-64750000D03*
X96600000Y-108920000D03*
X104490000Y-115746000D03*
X100490000Y-76620000D03*
X100050000Y-62800000D03*
X98460000Y-76630000D03*
X99490000Y-70390000D03*
X98440000Y-121490000D03*
X92680000Y-133370000D03*
D22*
X102950000Y-76000000D03*
D19*
X128690000Y-107620000D03*
X112512000Y-61250000D03*
X104490000Y-116840000D03*
X104560000Y-76600000D03*
D22*
X94200000Y-61300000D03*
D21*
X119454234Y-70914234D03*
X128020000Y-84450000D03*
D19*
X101350000Y-64750000D03*
D22*
X95800000Y-76500000D03*
D19*
X106740000Y-115766000D03*
X116990000Y-98200000D03*
X98750000Y-60200000D03*
X102570000Y-76600000D03*
X101350000Y-65750000D03*
X132297000Y-108743000D03*
X117550000Y-103000000D03*
X98460000Y-74920000D03*
%TO.N,/VDD*%
X102500000Y-101300000D03*
X103750000Y-100100000D03*
D22*
X120850000Y-69510000D03*
D19*
X105000000Y-99000000D03*
X106250000Y-99000000D03*
X102500000Y-97900000D03*
X107500000Y-101300000D03*
X84500000Y-76160000D03*
X107500000Y-97900000D03*
X108750000Y-97880000D03*
X102500000Y-99000000D03*
X106250000Y-100100000D03*
X103750000Y-99000000D03*
X108750000Y-101280000D03*
X107500000Y-99000000D03*
X108750000Y-102380000D03*
X103750000Y-101300000D03*
X103750000Y-97900000D03*
X102500000Y-100100000D03*
X106250000Y-97900000D03*
D22*
X99780000Y-81020000D03*
D19*
X107500000Y-100100000D03*
X106250000Y-101300000D03*
X108750000Y-98980000D03*
X105000000Y-97900000D03*
X105000000Y-101300000D03*
X108750000Y-100080000D03*
X102500000Y-102400000D03*
X107500000Y-102400000D03*
X103750000Y-102400000D03*
X105000000Y-100100000D03*
D22*
%TO.N,/ESP32/EN*%
X122101300Y-70905000D03*
X127228000Y-104448000D03*
D19*
%TO.N,/5V*%
X93620000Y-68280000D03*
X92350000Y-66250000D03*
X93600000Y-69250000D03*
D22*
X92900000Y-61300000D03*
D19*
X93600000Y-71200000D03*
X92350000Y-68300000D03*
D23*
X109280000Y-61185155D03*
D19*
X108290000Y-131179000D03*
X93600000Y-67250000D03*
X92350000Y-70250000D03*
X99710000Y-131420000D03*
D22*
X97300000Y-75090000D03*
D19*
X93620000Y-70230000D03*
X92330000Y-71220000D03*
X92330000Y-69270000D03*
X98770000Y-138720000D03*
X93620000Y-66230000D03*
D22*
X82390000Y-70700000D03*
D19*
X92330000Y-67270000D03*
D22*
X104700000Y-139400000D03*
D19*
%TO.N,/3V3*%
X129830000Y-56090000D03*
D21*
X126000000Y-84500000D03*
D19*
X123394000Y-86260000D03*
X112160000Y-74520000D03*
X95550000Y-135970000D03*
D23*
X111440000Y-55180000D03*
D22*
X108500000Y-79595000D03*
D19*
X122930000Y-99700000D03*
X118711400Y-59800000D03*
X127250000Y-107630000D03*
D20*
X105500000Y-75000000D03*
D21*
X115370000Y-61560000D03*
D19*
X95560000Y-126330000D03*
D22*
%TO.N,/TX*%
X116380000Y-79250000D03*
%TO.N,/RX*%
X115580000Y-78420000D03*
%TO.N,/RST*%
X121476817Y-70170000D03*
%TO.N,/SCL*%
X94317599Y-134229617D03*
X88970000Y-81220000D03*
D20*
X91750000Y-80980000D03*
D22*
%TO.N,/Fan/FAN_PWM*%
X90900000Y-132800000D03*
D20*
%TO.N,/ESP32/USB_D+*%
X103430000Y-83400000D03*
X102700000Y-79050000D03*
%TO.N,/ESP32/USB_D-*%
X105650000Y-79800000D03*
X105650000Y-83450000D03*
D22*
%TO.N,Net-(U2-BP1V5)*%
X91690000Y-82980000D03*
X83660000Y-76570000D03*
%TO.N,/ESP32/P_TX*%
X123105000Y-61285000D03*
%TO.N,/ESP32/P_RX*%
X123040000Y-59730000D03*
%TO.N,/ESP32/IO0*%
X121244400Y-66945600D03*
X124830000Y-55100000D03*
X126520000Y-102640000D03*
%TO.N,Net-(U2-VDD5)*%
X92570000Y-74110000D03*
X102820000Y-73740000D03*
%TO.N,/Power/PGOOD*%
X89020000Y-82280000D03*
X109410000Y-74490000D03*
%TO.N,/SDA*%
X82130000Y-73910000D03*
D20*
X91270000Y-80450000D03*
D22*
X94340000Y-133580000D03*
X88990000Y-80510000D03*
X82390000Y-75900000D03*
D19*
%TO.N,Net-(U8-VDDIO_12_1)*%
X100770000Y-123700000D03*
%TO.N,Net-(U8-VDDIO_08_1)*%
X99180000Y-123710000D03*
D22*
%TO.N,Net-(U8-ROSC_SEL)*%
X119430000Y-116250000D03*
%TO.N,Net-(U8-LITE_PAD)*%
X119420000Y-118020000D03*
%TO.N,Net-(U8-INV_CLKO)*%
X124540000Y-121820000D03*
%TO.N,/Fan/TEMP_N*%
X92180000Y-119960000D03*
%TO.N,/Fan/TEMP_P*%
X92940000Y-119930000D03*
%TO.N,/Power/AGND*%
X89340000Y-73770000D03*
X89170000Y-77830000D03*
X90680000Y-72940000D03*
X89340000Y-74960000D03*
%TO.N,/Power/PMB_ALRT*%
X93330000Y-81550000D03*
D19*
%TO.N,/BM1370/VDD3_0*%
X113470000Y-111290000D03*
%TO.N,/BM1370/1V2*%
X110950000Y-124990000D03*
X124600000Y-101830000D03*
X117120000Y-101750000D03*
%TO.N,/BM1370/0V8*%
X110970000Y-123700000D03*
%TO.N,/BM1370/VDD2_0*%
X112390000Y-109350000D03*
%TO.N,/BM1370/VDD1_0*%
X111030000Y-107870000D03*
%TO.N,/BM1370/VDD1_1*%
X100553800Y-107457400D03*
%TO.N,/BM1370/VDD2_1*%
X99360000Y-109210000D03*
%TO.N,/BM1370/VDD3_1*%
X98140000Y-111060000D03*
D22*
%TO.N,/BM1370/BI*%
X119420000Y-114790000D03*
%TO.N,/BM1370/RST_N*%
X113800000Y-98950000D03*
%TO.N,/BM1370/CI*%
X113770000Y-99770000D03*
%TO.N,/BM1370/RO*%
X113830000Y-100500000D03*
X118320000Y-108370000D03*
%TO.N,/BM1370/CLKI*%
X118740000Y-113660000D03*
%TO.N,/BM1370/NRSTO*%
X92480000Y-112210000D03*
%TO.N,/BM1370/CO*%
X92480000Y-113611428D03*
%TO.N,/BM1370/RI*%
X92480000Y-115012856D03*
%TO.N,/BM1370/CLKO*%
X92480000Y-116414284D03*
%TO.N,/BM1370/BO*%
X92480000Y-117815712D03*
%TO.N,/BM1370/PIN_MODE*%
X91400000Y-120430000D03*
%TO.N,/Fan/FAN_TACH*%
X93570000Y-136700000D03*
%TD*%
%TO.N,/5V*%
D24*
X92322400Y-63814606D02*
X92322400Y-67442400D01*
D25*
X104700000Y-139400000D02*
X98800000Y-139400000D01*
D24*
X92207000Y-143576000D02*
X92161000Y-143622000D01*
X79950000Y-92140000D02*
X81900000Y-90190000D01*
D25*
X98800000Y-139400000D02*
X93060000Y-139400000D01*
D24*
X92161000Y-143622000D02*
X92161000Y-138501000D01*
D25*
X98800000Y-138750000D02*
X98770000Y-138720000D01*
D24*
X87190000Y-72574800D02*
X92322400Y-67442400D01*
D25*
X93060000Y-139400000D02*
X92161000Y-138501000D01*
D24*
X88465000Y-134805000D02*
X79950000Y-126290000D01*
X79950000Y-126290000D02*
X79950000Y-92140000D01*
X81900000Y-90190000D02*
X85540000Y-90190000D01*
D25*
X108290000Y-133378216D02*
X108290000Y-131179000D01*
D24*
X92322400Y-55317600D02*
X96586000Y-51054000D01*
D25*
X106784599Y-134883617D02*
X108290000Y-133378216D01*
D24*
X106895155Y-61185155D02*
X99171505Y-53461505D01*
X85540000Y-90190000D02*
X87190000Y-88540000D01*
X109280000Y-61185155D02*
X106895155Y-61185155D01*
D25*
X88543617Y-134883617D02*
X106784599Y-134883617D01*
X88465000Y-134805000D02*
X88543617Y-134883617D01*
D24*
X92322400Y-58570000D02*
X92322400Y-55317600D01*
X99171505Y-53461505D02*
X99171505Y-51054000D01*
X92322400Y-63814606D02*
X92322400Y-58570000D01*
X92161000Y-138501000D02*
X88465000Y-134805000D01*
D25*
X98800000Y-139400000D02*
X98800000Y-138750000D01*
D24*
X96586000Y-51054000D02*
X99171505Y-51054000D01*
D25*
X99710000Y-131420000D02*
X99710000Y-134883617D01*
D24*
X87190000Y-88540000D02*
X87190000Y-72574800D01*
%TD*%
%TA.AperFunction,Conductor*%
%TO.N,/3V3*%
G36*
X118498325Y-54060591D02*
G01*
X118507432Y-54059282D01*
X118531857Y-54070437D01*
X118557621Y-54078002D01*
X118563645Y-54084955D01*
X118572012Y-54088776D01*
X118586526Y-54111361D01*
X118604114Y-54131658D01*
X118606438Y-54142344D01*
X118610396Y-54148502D01*
X118615500Y-54184000D01*
X118615500Y-54284465D01*
X118620281Y-54308500D01*
X118640652Y-54410911D01*
X118689989Y-54530022D01*
X118733740Y-54595500D01*
X118761616Y-54637219D01*
X118761621Y-54637225D01*
X118852774Y-54728378D01*
X118852780Y-54728383D01*
X118959978Y-54800011D01*
X119079089Y-54849348D01*
X119205537Y-54874500D01*
X119205538Y-54874500D01*
X119334462Y-54874500D01*
X119334463Y-54874500D01*
X119460911Y-54849348D01*
X119580022Y-54800011D01*
X119687220Y-54728383D01*
X119778383Y-54637220D01*
X119850011Y-54530022D01*
X119899348Y-54410911D01*
X119924500Y-54284463D01*
X119924500Y-54184000D01*
X119944502Y-54115879D01*
X119998158Y-54069386D01*
X120050500Y-54058000D01*
X128796099Y-54058000D01*
X128844316Y-54067590D01*
X129137280Y-54188941D01*
X129443277Y-54281764D01*
X129443286Y-54281765D01*
X129443290Y-54281767D01*
X129570402Y-54307050D01*
X129756900Y-54344147D01*
X130075127Y-54375490D01*
X130075136Y-54375490D01*
X130394884Y-54375490D01*
X130394893Y-54375490D01*
X130713120Y-54344147D01*
X130961724Y-54294697D01*
X131026729Y-54281767D01*
X131026731Y-54281766D01*
X131026743Y-54281764D01*
X131332740Y-54188941D01*
X131625703Y-54067590D01*
X131673921Y-54058000D01*
X133605500Y-54058000D01*
X133673621Y-54078002D01*
X133720114Y-54131658D01*
X133731500Y-54184000D01*
X133731500Y-62672099D01*
X133711498Y-62740220D01*
X133657842Y-62786713D01*
X133606121Y-62798097D01*
X127129999Y-62829999D01*
X127239999Y-82460000D01*
X127240000Y-82460000D01*
X133604886Y-82428836D01*
X133673101Y-82448504D01*
X133719856Y-82501931D01*
X133731500Y-82554834D01*
X133731500Y-141760143D01*
X133711498Y-141828264D01*
X133706693Y-141835216D01*
X133403155Y-142244366D01*
X133346504Y-142287157D01*
X133275711Y-142292528D01*
X133213252Y-142258772D01*
X133190840Y-142228689D01*
X133096842Y-142052832D01*
X132964321Y-141854499D01*
X132919192Y-141786958D01*
X132919189Y-141786954D01*
X132919186Y-141786950D01*
X132716339Y-141539782D01*
X132716321Y-141539762D01*
X132490237Y-141313678D01*
X132490217Y-141313660D01*
X132243049Y-141110813D01*
X132243045Y-141110810D01*
X131977167Y-140933157D01*
X131695156Y-140782419D01*
X131399728Y-140660048D01*
X131399725Y-140660047D01*
X131124272Y-140576490D01*
X131093733Y-140567226D01*
X131093730Y-140567225D01*
X131093719Y-140567222D01*
X130780116Y-140504844D01*
X130780112Y-140504843D01*
X130780110Y-140504843D01*
X130780105Y-140504842D01*
X130780094Y-140504841D01*
X130461889Y-140473500D01*
X130461883Y-140473500D01*
X130142117Y-140473500D01*
X130142110Y-140473500D01*
X129823905Y-140504841D01*
X129823883Y-140504844D01*
X129510280Y-140567222D01*
X129204274Y-140660047D01*
X129204271Y-140660048D01*
X128908843Y-140782419D01*
X128626832Y-140933157D01*
X128360954Y-141110810D01*
X128360950Y-141110813D01*
X128113782Y-141313660D01*
X128113762Y-141313678D01*
X127887678Y-141539762D01*
X127887660Y-141539782D01*
X127684813Y-141786950D01*
X127684810Y-141786954D01*
X127507157Y-142052832D01*
X127356419Y-142334843D01*
X127234048Y-142630271D01*
X127234047Y-142630274D01*
X127141222Y-142936280D01*
X127078844Y-143249883D01*
X127078841Y-143249905D01*
X127047500Y-143568110D01*
X127047500Y-143887889D01*
X127078841Y-144206094D01*
X127078844Y-144206116D01*
X127141222Y-144519719D01*
X127141225Y-144519730D01*
X127141226Y-144519733D01*
X127148988Y-144545320D01*
X127234047Y-144825725D01*
X127234048Y-144825728D01*
X127356419Y-145121156D01*
X127507157Y-145403167D01*
X127684810Y-145669045D01*
X127684813Y-145669049D01*
X127887660Y-145916217D01*
X127887678Y-145916237D01*
X128113762Y-146142321D01*
X128113782Y-146142339D01*
X128360950Y-146345186D01*
X128360954Y-146345189D01*
X128360958Y-146345192D01*
X128626835Y-146522844D01*
X128908844Y-146673581D01*
X129204270Y-146795951D01*
X129510267Y-146888774D01*
X129510276Y-146888775D01*
X129510280Y-146888777D01*
X129561380Y-146898941D01*
X129704896Y-146927487D01*
X129705680Y-146927898D01*
X129706564Y-146927831D01*
X129737063Y-146944314D01*
X129767804Y-146960394D01*
X129768242Y-146961164D01*
X129769023Y-146961586D01*
X129785771Y-146991946D01*
X129802937Y-147022089D01*
X129802889Y-147022975D01*
X129803317Y-147023750D01*
X129800994Y-147058321D01*
X129799137Y-147092983D01*
X129798598Y-147093995D01*
X129798559Y-147094587D01*
X129781508Y-147126138D01*
X129702546Y-147232573D01*
X129645898Y-147275364D01*
X129601355Y-147283500D01*
X92284772Y-147283500D01*
X92216651Y-147263498D01*
X92170158Y-147209842D01*
X92158773Y-147157915D01*
X92150965Y-144789607D01*
X92170742Y-144721424D01*
X92224244Y-144674755D01*
X92257661Y-144665689D01*
X92257546Y-144665108D01*
X92291247Y-144658404D01*
X92464911Y-144623860D01*
X92654525Y-144545320D01*
X92825172Y-144431296D01*
X92970296Y-144286172D01*
X93084320Y-144115525D01*
X93162860Y-143925911D01*
X93202900Y-143724618D01*
X93202900Y-143724609D01*
X93203128Y-143722294D01*
X93203388Y-143715714D01*
X93211500Y-143674935D01*
X93211500Y-143519379D01*
X93659100Y-143519379D01*
X93659100Y-143724620D01*
X93679168Y-143825505D01*
X93699140Y-143925911D01*
X93777680Y-144115525D01*
X93838197Y-144206094D01*
X93891703Y-144286171D01*
X93891708Y-144286177D01*
X94036822Y-144431291D01*
X94036828Y-144431296D01*
X94207475Y-144545320D01*
X94397089Y-144623860D01*
X94524457Y-144649195D01*
X94536943Y-144651679D01*
X94599853Y-144684587D01*
X94634984Y-144746282D01*
X94631184Y-144817177D01*
X94589658Y-144874763D01*
X94536943Y-144898837D01*
X94439004Y-144918318D01*
X94438999Y-144918320D01*
X94275543Y-144986026D01*
X94128431Y-145084323D01*
X94128425Y-145084328D01*
X94003327Y-145209426D01*
X94003322Y-145209432D01*
X93905025Y-145356544D01*
X93837319Y-145520000D01*
X93837317Y-145520005D01*
X93802800Y-145693533D01*
X93802800Y-145870468D01*
X93811904Y-145916237D01*
X93837317Y-146043996D01*
X93905025Y-146207458D01*
X93970705Y-146305755D01*
X94003322Y-146354569D01*
X94003327Y-146354575D01*
X94128425Y-146479673D01*
X94128431Y-146479678D01*
X94275543Y-146577976D01*
X94439005Y-146645684D01*
X94612535Y-146680201D01*
X94612536Y-146680201D01*
X94789464Y-146680201D01*
X94789465Y-146680201D01*
X94962995Y-146645684D01*
X95126457Y-146577976D01*
X95273569Y-146479678D01*
X95398677Y-146354570D01*
X95496975Y-146207458D01*
X95564683Y-146043996D01*
X95599200Y-145870466D01*
X95599200Y-145693536D01*
X95564683Y-145520006D01*
X95496975Y-145356544D01*
X95398677Y-145209432D01*
X95398672Y-145209426D01*
X95273574Y-145084328D01*
X95273568Y-145084323D01*
X95224754Y-145051706D01*
X95126457Y-144986026D01*
X94962995Y-144918318D01*
X94865055Y-144898836D01*
X94802147Y-144865929D01*
X94767015Y-144804234D01*
X94770815Y-144733339D01*
X94812341Y-144675753D01*
X94865055Y-144651679D01*
X95004911Y-144623860D01*
X95194525Y-144545320D01*
X95365172Y-144431296D01*
X95510296Y-144286172D01*
X95624320Y-144115525D01*
X95702860Y-143925911D01*
X95742900Y-143724618D01*
X95742900Y-143519382D01*
X95742899Y-143519379D01*
X96199100Y-143519379D01*
X96199100Y-143724620D01*
X96219168Y-143825505D01*
X96239140Y-143925911D01*
X96317680Y-144115525D01*
X96378197Y-144206094D01*
X96431703Y-144286171D01*
X96431708Y-144286177D01*
X96576822Y-144431291D01*
X96576828Y-144431296D01*
X96747475Y-144545320D01*
X96937089Y-144623860D01*
X97138382Y-144663900D01*
X97138383Y-144663900D01*
X97343617Y-144663900D01*
X97343618Y-144663900D01*
X97544911Y-144623860D01*
X97734525Y-144545320D01*
X97905172Y-144431296D01*
X98050296Y-144286172D01*
X98164320Y-144115525D01*
X98242860Y-143925911D01*
X98282900Y-143724618D01*
X98282900Y-143519382D01*
X98242860Y-143318089D01*
X98164320Y-143128475D01*
X98095637Y-143025685D01*
X103845500Y-143025685D01*
X103845500Y-143025688D01*
X103845500Y-143174312D01*
X103874495Y-143320080D01*
X103931371Y-143457390D01*
X103972793Y-143519383D01*
X104013942Y-143580967D01*
X104013947Y-143580973D01*
X104119026Y-143686052D01*
X104119032Y-143686057D01*
X104119034Y-143686059D01*
X104242610Y-143768629D01*
X104379920Y-143825505D01*
X104525688Y-143854500D01*
X104525689Y-143854500D01*
X104674311Y-143854500D01*
X104674312Y-143854500D01*
X104820080Y-143825505D01*
X104957390Y-143768629D01*
X105080966Y-143686059D01*
X105186059Y-143580966D01*
X105268629Y-143457390D01*
X105325505Y-143320080D01*
X105354500Y-143174312D01*
X105354500Y-143025688D01*
X105325505Y-142879920D01*
X105268629Y-142742610D01*
X105186059Y-142619034D01*
X105186057Y-142619032D01*
X105186052Y-142619026D01*
X105080973Y-142513947D01*
X105080967Y-142513942D01*
X105080966Y-142513941D01*
X104957390Y-142431371D01*
X104820080Y-142374495D01*
X104674314Y-142345500D01*
X104674312Y-142345500D01*
X104525688Y-142345500D01*
X104525685Y-142345500D01*
X104379919Y-142374495D01*
X104379914Y-142374497D01*
X104242610Y-142431371D01*
X104119032Y-142513942D01*
X104119026Y-142513947D01*
X104013947Y-142619026D01*
X104013942Y-142619032D01*
X103931371Y-142742610D01*
X103874497Y-142879914D01*
X103874495Y-142879919D01*
X103845500Y-143025685D01*
X98095637Y-143025685D01*
X98050296Y-142957828D01*
X98050291Y-142957822D01*
X97905177Y-142812708D01*
X97905171Y-142812703D01*
X97800270Y-142742610D01*
X97734525Y-142698680D01*
X97544911Y-142620140D01*
X97539311Y-142619026D01*
X97343620Y-142580100D01*
X97343618Y-142580100D01*
X97138382Y-142580100D01*
X97138379Y-142580100D01*
X96937088Y-142620140D01*
X96937083Y-142620142D01*
X96747475Y-142698680D01*
X96576828Y-142812703D01*
X96576822Y-142812708D01*
X96431708Y-142957822D01*
X96431703Y-142957828D01*
X96317680Y-143128475D01*
X96239142Y-143318083D01*
X96239140Y-143318088D01*
X96199100Y-143519379D01*
X95742899Y-143519379D01*
X95702860Y-143318089D01*
X95624320Y-143128475D01*
X95510296Y-142957828D01*
X95510291Y-142957822D01*
X95365177Y-142812708D01*
X95365171Y-142812703D01*
X95260270Y-142742610D01*
X95194525Y-142698680D01*
X95004911Y-142620140D01*
X94999311Y-142619026D01*
X94803620Y-142580100D01*
X94803618Y-142580100D01*
X94598382Y-142580100D01*
X94598379Y-142580100D01*
X94397088Y-142620140D01*
X94397083Y-142620142D01*
X94207475Y-142698680D01*
X94036828Y-142812703D01*
X94036822Y-142812708D01*
X93891708Y-142957822D01*
X93891703Y-142957828D01*
X93777680Y-143128475D01*
X93699142Y-143318083D01*
X93699140Y-143318088D01*
X93659100Y-143519379D01*
X93211500Y-143519379D01*
X93211500Y-143477065D01*
X93172897Y-143282998D01*
X93172894Y-143282991D01*
X93171099Y-143277071D01*
X93172751Y-143276569D01*
X93165500Y-143240076D01*
X93165500Y-141135534D01*
X95415500Y-141135534D01*
X95415500Y-141135537D01*
X95415500Y-141264463D01*
X95440652Y-141390911D01*
X95489989Y-141510022D01*
X95537849Y-141581649D01*
X95561616Y-141617219D01*
X95561621Y-141617225D01*
X95652774Y-141708378D01*
X95652780Y-141708383D01*
X95759978Y-141780011D01*
X95879089Y-141829348D01*
X96005537Y-141854500D01*
X96005538Y-141854500D01*
X96134462Y-141854500D01*
X96134463Y-141854500D01*
X96260911Y-141829348D01*
X96380022Y-141780011D01*
X96487220Y-141708383D01*
X96578383Y-141617220D01*
X96650011Y-141510022D01*
X96699348Y-141390911D01*
X96724500Y-141264463D01*
X96724500Y-141135537D01*
X96699348Y-141009089D01*
X96650011Y-140889978D01*
X96578383Y-140782780D01*
X96578378Y-140782774D01*
X96487225Y-140691621D01*
X96487219Y-140691616D01*
X96451649Y-140667849D01*
X96380022Y-140619989D01*
X96260911Y-140570652D01*
X96134465Y-140545500D01*
X96134463Y-140545500D01*
X96005537Y-140545500D01*
X96005534Y-140545500D01*
X95879088Y-140570652D01*
X95879083Y-140570654D01*
X95759978Y-140619989D01*
X95652780Y-140691616D01*
X95652774Y-140691621D01*
X95561621Y-140782774D01*
X95561616Y-140782780D01*
X95489989Y-140889978D01*
X95440654Y-141009083D01*
X95440652Y-141009088D01*
X95415500Y-141135534D01*
X93165500Y-141135534D01*
X93165500Y-140034500D01*
X93185502Y-139966379D01*
X93239158Y-139919886D01*
X93291500Y-139908500D01*
X104766943Y-139908500D01*
X104766945Y-139908500D01*
X104896274Y-139873847D01*
X105012226Y-139806901D01*
X105106901Y-139712226D01*
X105173847Y-139596274D01*
X105208500Y-139466945D01*
X105208500Y-139333055D01*
X105173847Y-139203726D01*
X105106901Y-139087774D01*
X105106900Y-139087772D01*
X105012227Y-138993099D01*
X105012224Y-138993097D01*
X104896278Y-138926155D01*
X104896276Y-138926154D01*
X104896274Y-138926153D01*
X104766945Y-138891500D01*
X104766943Y-138891500D01*
X99550500Y-138891500D01*
X99482379Y-138871498D01*
X99435886Y-138817842D01*
X99424500Y-138765500D01*
X99424500Y-138655538D01*
X99424499Y-138655534D01*
X99399348Y-138529089D01*
X99350011Y-138409978D01*
X99278383Y-138302780D01*
X99278378Y-138302774D01*
X99187225Y-138211621D01*
X99187219Y-138211616D01*
X99107550Y-138158383D01*
X99080022Y-138139989D01*
X98960911Y-138090652D01*
X98834465Y-138065500D01*
X98834463Y-138065500D01*
X98705537Y-138065500D01*
X98705534Y-138065500D01*
X98579088Y-138090652D01*
X98579083Y-138090654D01*
X98459978Y-138139989D01*
X98352780Y-138211616D01*
X98352774Y-138211621D01*
X98261621Y-138302774D01*
X98261616Y-138302780D01*
X98189989Y-138409978D01*
X98140654Y-138529083D01*
X98140652Y-138529088D01*
X98115500Y-138655534D01*
X98115500Y-138765500D01*
X98095498Y-138833621D01*
X98041842Y-138880114D01*
X97989500Y-138891500D01*
X93322818Y-138891500D01*
X93292902Y-138882716D01*
X93262433Y-138876088D01*
X93257337Y-138872273D01*
X93254697Y-138871498D01*
X93233723Y-138854595D01*
X93202405Y-138823277D01*
X93168379Y-138760965D01*
X93165500Y-138734182D01*
X93165500Y-138402064D01*
X93165499Y-138402061D01*
X93150423Y-138326270D01*
X93126897Y-138207998D01*
X93051176Y-138025191D01*
X92941246Y-137860669D01*
X92801331Y-137720754D01*
X92666111Y-137585534D01*
X95415500Y-137585534D01*
X95415500Y-137714465D01*
X95440652Y-137840911D01*
X95489989Y-137960022D01*
X95524157Y-138011157D01*
X95561616Y-138067219D01*
X95561621Y-138067225D01*
X95652774Y-138158378D01*
X95652780Y-138158383D01*
X95759978Y-138230011D01*
X95879089Y-138279348D01*
X96005537Y-138304500D01*
X96005538Y-138304500D01*
X96134462Y-138304500D01*
X96134463Y-138304500D01*
X96260911Y-138279348D01*
X96380022Y-138230011D01*
X96487220Y-138158383D01*
X96578383Y-138067220D01*
X96650011Y-137960022D01*
X96699348Y-137840911D01*
X96724500Y-137714463D01*
X96724500Y-137585537D01*
X96699348Y-137459089D01*
X96650011Y-137339978D01*
X96578383Y-137232780D01*
X96578378Y-137232774D01*
X96487225Y-137141621D01*
X96487219Y-137141616D01*
X96451649Y-137117849D01*
X96380022Y-137069989D01*
X96260911Y-137020652D01*
X96206234Y-137009776D01*
X96134465Y-136995500D01*
X96134463Y-136995500D01*
X96005537Y-136995500D01*
X96005534Y-136995500D01*
X95879088Y-137020652D01*
X95879083Y-137020654D01*
X95759978Y-137069989D01*
X95652780Y-137141616D01*
X95652774Y-137141621D01*
X95561621Y-137232774D01*
X95561616Y-137232780D01*
X95489989Y-137339978D01*
X95440654Y-137459083D01*
X95440652Y-137459088D01*
X95415500Y-137585534D01*
X92666111Y-137585534D01*
X91846994Y-136766417D01*
X93065499Y-136766417D01*
X93099881Y-136894730D01*
X93166297Y-137009766D01*
X93166305Y-137009776D01*
X93260223Y-137103694D01*
X93260228Y-137103698D01*
X93260230Y-137103700D01*
X93375270Y-137170119D01*
X93503581Y-137204500D01*
X93503583Y-137204500D01*
X93636417Y-137204500D01*
X93636419Y-137204500D01*
X93764730Y-137170119D01*
X93879770Y-137103700D01*
X93973700Y-137009770D01*
X94040119Y-136894730D01*
X94074500Y-136766419D01*
X94074500Y-136633581D01*
X94040119Y-136505270D01*
X93973700Y-136390230D01*
X93973698Y-136390228D01*
X93973694Y-136390223D01*
X93879776Y-136296305D01*
X93879766Y-136296297D01*
X93774052Y-136235263D01*
X124379500Y-136235263D01*
X124379500Y-136464736D01*
X124409450Y-136692231D01*
X124409452Y-136692238D01*
X124468842Y-136913887D01*
X124556656Y-137125888D01*
X124556657Y-137125889D01*
X124556662Y-137125900D01*
X124671386Y-137324608D01*
X124671391Y-137324615D01*
X124811073Y-137506652D01*
X124811092Y-137506673D01*
X124973326Y-137668907D01*
X124973347Y-137668926D01*
X125155384Y-137808608D01*
X125155391Y-137808613D01*
X125354099Y-137923337D01*
X125354103Y-137923338D01*
X125354112Y-137923344D01*
X125566113Y-138011158D01*
X125787762Y-138070548D01*
X125787766Y-138070548D01*
X125787768Y-138070549D01*
X125846398Y-138078267D01*
X126015266Y-138100500D01*
X126015273Y-138100500D01*
X126244727Y-138100500D01*
X126244734Y-138100500D01*
X126450345Y-138073430D01*
X126472231Y-138070549D01*
X126472231Y-138070548D01*
X126472238Y-138070548D01*
X126693887Y-138011158D01*
X126905888Y-137923344D01*
X127104612Y-137808611D01*
X127286661Y-137668919D01*
X127448919Y-137506661D01*
X127588611Y-137324612D01*
X127703344Y-137125888D01*
X127791158Y-136913887D01*
X127850548Y-136692238D01*
X127880500Y-136464734D01*
X127880500Y-136235266D01*
X127850548Y-136007762D01*
X127791158Y-135786113D01*
X127703344Y-135574112D01*
X127703338Y-135574103D01*
X127703337Y-135574099D01*
X127588613Y-135375391D01*
X127588608Y-135375384D01*
X127448926Y-135193347D01*
X127448907Y-135193326D01*
X127286673Y-135031092D01*
X127286652Y-135031073D01*
X127104615Y-134891391D01*
X127104608Y-134891386D01*
X126905900Y-134776662D01*
X126905892Y-134776658D01*
X126905888Y-134776656D01*
X126693887Y-134688842D01*
X126472238Y-134629452D01*
X126472231Y-134629450D01*
X126244736Y-134599500D01*
X126244734Y-134599500D01*
X126015266Y-134599500D01*
X126015263Y-134599500D01*
X125787768Y-134629450D01*
X125566113Y-134688842D01*
X125354110Y-134776657D01*
X125354099Y-134776662D01*
X125155391Y-134891386D01*
X125155384Y-134891391D01*
X124973347Y-135031073D01*
X124973326Y-135031092D01*
X124811092Y-135193326D01*
X124811073Y-135193347D01*
X124671391Y-135375384D01*
X124671386Y-135375391D01*
X124556662Y-135574099D01*
X124556657Y-135574110D01*
X124556656Y-135574112D01*
X124498057Y-135715581D01*
X124468842Y-135786113D01*
X124409450Y-136007768D01*
X124379500Y-136235263D01*
X93774052Y-136235263D01*
X93764730Y-136229881D01*
X93760994Y-136228880D01*
X93636419Y-136195500D01*
X93503581Y-136195500D01*
X93418040Y-136218420D01*
X93375269Y-136229881D01*
X93260233Y-136296297D01*
X93260223Y-136296305D01*
X93166305Y-136390223D01*
X93166297Y-136390233D01*
X93099881Y-136505269D01*
X93065500Y-136633582D01*
X93065500Y-136766417D01*
X93065499Y-136766417D01*
X91846994Y-136766417D01*
X90687789Y-135607212D01*
X90653763Y-135544900D01*
X90658828Y-135474085D01*
X90701375Y-135417249D01*
X90767895Y-135392438D01*
X90776884Y-135392117D01*
X106851542Y-135392117D01*
X106851544Y-135392117D01*
X106980873Y-135357464D01*
X107096826Y-135290518D01*
X108696901Y-133690442D01*
X108702914Y-133680025D01*
X108702917Y-133680023D01*
X108730660Y-133631969D01*
X108763847Y-133574490D01*
X108798500Y-133445161D01*
X108798500Y-132585534D01*
X112925500Y-132585534D01*
X112925500Y-132714465D01*
X112940523Y-132789989D01*
X112950652Y-132840911D01*
X112999989Y-132960022D01*
X113047849Y-133031649D01*
X113071616Y-133067219D01*
X113071621Y-133067225D01*
X113162774Y-133158378D01*
X113162780Y-133158383D01*
X113269978Y-133230011D01*
X113389089Y-133279348D01*
X113515537Y-133304500D01*
X113515538Y-133304500D01*
X113644462Y-133304500D01*
X113644463Y-133304500D01*
X113770911Y-133279348D01*
X113890022Y-133230011D01*
X113997220Y-133158383D01*
X114088383Y-133067220D01*
X114160011Y-132960022D01*
X114209348Y-132840911D01*
X114234500Y-132714463D01*
X114234500Y-132585537D01*
X114209348Y-132459089D01*
X114160011Y-132339978D01*
X114088383Y-132232780D01*
X114088378Y-132232774D01*
X113997225Y-132141621D01*
X113997219Y-132141616D01*
X113961649Y-132117849D01*
X113890022Y-132069989D01*
X113770911Y-132020652D01*
X113644465Y-131995500D01*
X113644463Y-131995500D01*
X113515537Y-131995500D01*
X113515534Y-131995500D01*
X113389088Y-132020652D01*
X113389083Y-132020654D01*
X113269978Y-132069989D01*
X113162780Y-132141616D01*
X113162774Y-132141621D01*
X113071621Y-132232774D01*
X113071616Y-132232780D01*
X112999989Y-132339978D01*
X112950654Y-132459083D01*
X112950652Y-132459088D01*
X112925500Y-132585534D01*
X108798500Y-132585534D01*
X108798500Y-131634267D01*
X108818502Y-131566146D01*
X108819735Y-131564264D01*
X108870011Y-131489022D01*
X108919348Y-131369911D01*
X108944500Y-131243463D01*
X108944500Y-131114537D01*
X108919348Y-130988089D01*
X108870011Y-130868978D01*
X108798383Y-130761780D01*
X108798378Y-130761774D01*
X108707225Y-130670621D01*
X108707219Y-130670616D01*
X108657237Y-130637219D01*
X108600022Y-130598989D01*
X108480911Y-130549652D01*
X108354465Y-130524500D01*
X108354463Y-130524500D01*
X108225537Y-130524500D01*
X108225534Y-130524500D01*
X108099088Y-130549652D01*
X108099083Y-130549654D01*
X107979978Y-130598989D01*
X107872780Y-130670616D01*
X107872774Y-130670621D01*
X107781621Y-130761774D01*
X107781616Y-130761780D01*
X107709989Y-130868978D01*
X107660654Y-130988083D01*
X107660652Y-130988088D01*
X107635500Y-131114534D01*
X107635500Y-131114537D01*
X107635500Y-131243463D01*
X107660652Y-131369911D01*
X107709989Y-131489022D01*
X107760265Y-131564264D01*
X107781480Y-131632017D01*
X107781500Y-131634267D01*
X107781500Y-133115398D01*
X107761498Y-133183519D01*
X107744595Y-133204493D01*
X106610876Y-134338212D01*
X106548564Y-134372238D01*
X106521781Y-134375117D01*
X100344500Y-134375117D01*
X100276379Y-134355115D01*
X100229886Y-134301459D01*
X100218500Y-134249117D01*
X100218500Y-132485534D01*
X104885500Y-132485534D01*
X104885500Y-132614465D01*
X104905597Y-132715500D01*
X104910652Y-132740911D01*
X104959989Y-132860022D01*
X105007849Y-132931649D01*
X105031616Y-132967219D01*
X105031621Y-132967225D01*
X105122774Y-133058378D01*
X105122780Y-133058383D01*
X105229978Y-133130011D01*
X105349089Y-133179348D01*
X105475537Y-133204500D01*
X105475538Y-133204500D01*
X105604462Y-133204500D01*
X105604463Y-133204500D01*
X105730911Y-133179348D01*
X105850022Y-133130011D01*
X105957220Y-133058383D01*
X106048383Y-132967220D01*
X106120011Y-132860022D01*
X106169348Y-132740911D01*
X106194500Y-132614463D01*
X106194500Y-132485537D01*
X106169348Y-132359089D01*
X106120011Y-132239978D01*
X106048383Y-132132780D01*
X106048378Y-132132774D01*
X105957225Y-132041621D01*
X105957219Y-132041616D01*
X105921649Y-132017849D01*
X105850022Y-131969989D01*
X105730911Y-131920652D01*
X105604465Y-131895500D01*
X105604463Y-131895500D01*
X105475537Y-131895500D01*
X105475534Y-131895500D01*
X105349088Y-131920652D01*
X105349083Y-131920654D01*
X105229978Y-131969989D01*
X105122780Y-132041616D01*
X105122774Y-132041621D01*
X105031621Y-132132774D01*
X105031616Y-132132780D01*
X104959989Y-132239978D01*
X104910654Y-132359083D01*
X104910652Y-132359088D01*
X104885500Y-132485534D01*
X100218500Y-132485534D01*
X100218500Y-131875267D01*
X100238502Y-131807146D01*
X100239735Y-131805264D01*
X100290011Y-131730022D01*
X100339348Y-131610911D01*
X100364500Y-131484463D01*
X100364500Y-131355537D01*
X100339348Y-131229089D01*
X100290011Y-131109978D01*
X100218383Y-131002780D01*
X100218378Y-131002774D01*
X100127225Y-130911621D01*
X100127219Y-130911616D01*
X100071669Y-130874499D01*
X100020022Y-130839989D01*
X99900911Y-130790652D01*
X99774465Y-130765500D01*
X99774463Y-130765500D01*
X99645537Y-130765500D01*
X99645534Y-130765500D01*
X99519088Y-130790652D01*
X99519083Y-130790654D01*
X99399978Y-130839989D01*
X99292780Y-130911616D01*
X99292774Y-130911621D01*
X99201621Y-131002774D01*
X99201616Y-131002780D01*
X99129989Y-131109978D01*
X99080654Y-131229083D01*
X99080652Y-131229088D01*
X99055500Y-131355534D01*
X99055500Y-131484465D01*
X99071373Y-131564264D01*
X99080652Y-131610911D01*
X99129989Y-131730022D01*
X99180265Y-131805264D01*
X99201480Y-131873017D01*
X99201500Y-131875267D01*
X99201500Y-134249117D01*
X99181498Y-134317238D01*
X99127842Y-134363731D01*
X99075500Y-134375117D01*
X94948099Y-134375117D01*
X94879978Y-134355115D01*
X94833485Y-134301459D01*
X94822099Y-134249117D01*
X94822099Y-134163199D01*
X94822099Y-134163198D01*
X94787718Y-134034887D01*
X94760189Y-133987207D01*
X94743452Y-133918213D01*
X94760188Y-133861210D01*
X94810119Y-133774730D01*
X94844500Y-133646419D01*
X94844500Y-133513581D01*
X94810119Y-133385270D01*
X94763485Y-133304499D01*
X94743702Y-133270233D01*
X94743694Y-133270223D01*
X94649776Y-133176305D01*
X94649766Y-133176297D01*
X94534730Y-133109881D01*
X94534301Y-133109766D01*
X94406419Y-133075500D01*
X94273581Y-133075500D01*
X94188040Y-133098420D01*
X94145269Y-133109881D01*
X94030233Y-133176297D01*
X94030223Y-133176305D01*
X93936305Y-133270223D01*
X93936297Y-133270233D01*
X93869881Y-133385269D01*
X93835500Y-133513582D01*
X93835500Y-133646417D01*
X93835499Y-133646417D01*
X93869881Y-133774730D01*
X93897408Y-133822408D01*
X93914146Y-133891404D01*
X93897409Y-133948407D01*
X93847480Y-134034887D01*
X93813099Y-134163199D01*
X93813099Y-134249117D01*
X93793097Y-134317238D01*
X93739441Y-134363731D01*
X93687099Y-134375117D01*
X89507884Y-134375117D01*
X89439763Y-134355115D01*
X89418789Y-134338212D01*
X88386111Y-133305534D01*
X92025500Y-133305534D01*
X92025500Y-133434465D01*
X92041238Y-133513582D01*
X92050652Y-133560911D01*
X92099989Y-133680022D01*
X92147849Y-133751649D01*
X92171616Y-133787219D01*
X92171621Y-133787225D01*
X92262774Y-133878378D01*
X92262780Y-133878383D01*
X92369978Y-133950011D01*
X92489089Y-133999348D01*
X92615537Y-134024500D01*
X92615538Y-134024500D01*
X92744462Y-134024500D01*
X92744463Y-134024500D01*
X92870911Y-133999348D01*
X92990022Y-133950011D01*
X93097220Y-133878383D01*
X93188383Y-133787220D01*
X93260011Y-133680022D01*
X93309348Y-133560911D01*
X93334500Y-133434463D01*
X93334500Y-133305537D01*
X93309348Y-133179089D01*
X93260011Y-133059978D01*
X93188383Y-132952780D01*
X93188378Y-132952774D01*
X93097225Y-132861621D01*
X93097219Y-132861616D01*
X93061649Y-132837849D01*
X92990022Y-132789989D01*
X92888355Y-132747877D01*
X92870916Y-132740654D01*
X92870911Y-132740652D01*
X92744465Y-132715500D01*
X92744463Y-132715500D01*
X92615537Y-132715500D01*
X92615534Y-132715500D01*
X92489088Y-132740652D01*
X92489083Y-132740654D01*
X92369978Y-132789989D01*
X92262780Y-132861616D01*
X92262774Y-132861621D01*
X92171621Y-132952774D01*
X92171616Y-132952780D01*
X92099989Y-133059978D01*
X92050654Y-133179083D01*
X92050652Y-133179088D01*
X92025500Y-133305534D01*
X88386111Y-133305534D01*
X87946994Y-132866417D01*
X90395499Y-132866417D01*
X90429881Y-132994730D01*
X90496297Y-133109766D01*
X90496305Y-133109776D01*
X90590223Y-133203694D01*
X90590228Y-133203698D01*
X90590230Y-133203700D01*
X90590231Y-133203701D01*
X90590233Y-133203702D01*
X90634865Y-133229470D01*
X90705270Y-133270119D01*
X90833581Y-133304500D01*
X90833583Y-133304500D01*
X90966417Y-133304500D01*
X90966419Y-133304500D01*
X91094730Y-133270119D01*
X91209770Y-133203700D01*
X91303700Y-133109770D01*
X91370119Y-132994730D01*
X91404500Y-132866419D01*
X91404500Y-132733581D01*
X91370119Y-132605270D01*
X91303700Y-132490230D01*
X91303698Y-132490228D01*
X91303694Y-132490223D01*
X91209776Y-132396305D01*
X91209766Y-132396297D01*
X91094730Y-132329881D01*
X90966419Y-132295500D01*
X90833581Y-132295500D01*
X90748040Y-132318420D01*
X90705269Y-132329881D01*
X90590233Y-132396297D01*
X90590223Y-132396305D01*
X90496305Y-132490223D01*
X90496297Y-132490233D01*
X90429881Y-132605269D01*
X90395500Y-132733582D01*
X90395500Y-132866417D01*
X90395499Y-132866417D01*
X87946994Y-132866417D01*
X85486111Y-130405534D01*
X103985500Y-130405534D01*
X103985500Y-130534465D01*
X103998335Y-130598989D01*
X104010652Y-130660911D01*
X104059989Y-130780022D01*
X104100058Y-130839989D01*
X104131616Y-130887219D01*
X104131621Y-130887225D01*
X104222774Y-130978378D01*
X104222780Y-130978383D01*
X104329978Y-131050011D01*
X104449089Y-131099348D01*
X104575537Y-131124500D01*
X104575538Y-131124500D01*
X104704462Y-131124500D01*
X104704463Y-131124500D01*
X104830911Y-131099348D01*
X104950022Y-131050011D01*
X105057220Y-130978383D01*
X105148383Y-130887220D01*
X105220011Y-130780022D01*
X105269348Y-130660911D01*
X105294500Y-130534463D01*
X105294500Y-130405537D01*
X105269348Y-130279089D01*
X105220011Y-130159978D01*
X105217042Y-130155534D01*
X112525500Y-130155534D01*
X112525500Y-130155537D01*
X112525500Y-130284463D01*
X112550652Y-130410911D01*
X112599989Y-130530022D01*
X112613107Y-130549654D01*
X112671616Y-130637219D01*
X112671621Y-130637225D01*
X112762774Y-130728378D01*
X112762780Y-130728383D01*
X112869978Y-130800011D01*
X112989089Y-130849348D01*
X113115537Y-130874500D01*
X113115538Y-130874500D01*
X113244462Y-130874500D01*
X113244463Y-130874500D01*
X113370911Y-130849348D01*
X113490022Y-130800011D01*
X113597220Y-130728383D01*
X113688383Y-130637220D01*
X113760011Y-130530022D01*
X113809348Y-130410911D01*
X113834500Y-130284463D01*
X113834500Y-130155537D01*
X113809348Y-130029089D01*
X113760011Y-129909978D01*
X113688383Y-129802780D01*
X113688378Y-129802774D01*
X113597225Y-129711621D01*
X113597219Y-129711616D01*
X113561649Y-129687849D01*
X113490022Y-129639989D01*
X113370911Y-129590652D01*
X113244465Y-129565500D01*
X113244463Y-129565500D01*
X113115537Y-129565500D01*
X113115534Y-129565500D01*
X112989088Y-129590652D01*
X112989083Y-129590654D01*
X112869978Y-129639989D01*
X112762780Y-129711616D01*
X112762774Y-129711621D01*
X112671621Y-129802774D01*
X112671616Y-129802780D01*
X112599989Y-129909978D01*
X112550654Y-130029083D01*
X112550652Y-130029088D01*
X112525500Y-130155534D01*
X105217042Y-130155534D01*
X105148383Y-130052780D01*
X105148378Y-130052774D01*
X105057225Y-129961621D01*
X105057219Y-129961616D01*
X104979937Y-129909978D01*
X104950022Y-129889989D01*
X104830911Y-129840652D01*
X104704465Y-129815500D01*
X104704463Y-129815500D01*
X104575537Y-129815500D01*
X104575534Y-129815500D01*
X104449088Y-129840652D01*
X104449083Y-129840654D01*
X104329978Y-129889989D01*
X104222780Y-129961616D01*
X104222774Y-129961621D01*
X104131621Y-130052774D01*
X104131616Y-130052780D01*
X104059989Y-130159978D01*
X104010654Y-130279083D01*
X104010652Y-130279088D01*
X103985500Y-130405534D01*
X85486111Y-130405534D01*
X83026111Y-127945534D01*
X115395500Y-127945534D01*
X115395500Y-127945537D01*
X115395500Y-128074463D01*
X115420652Y-128200911D01*
X115469989Y-128320022D01*
X115517849Y-128391649D01*
X115541616Y-128427219D01*
X115541621Y-128427225D01*
X115632774Y-128518378D01*
X115632780Y-128518383D01*
X115739978Y-128590011D01*
X115859089Y-128639348D01*
X115985537Y-128664500D01*
X115985538Y-128664500D01*
X116114462Y-128664500D01*
X116114463Y-128664500D01*
X116240911Y-128639348D01*
X116360022Y-128590011D01*
X116467220Y-128518383D01*
X116558383Y-128427220D01*
X116630011Y-128320022D01*
X116679348Y-128200911D01*
X116704500Y-128074463D01*
X116704500Y-127945537D01*
X116679348Y-127819089D01*
X116630011Y-127699978D01*
X116558383Y-127592780D01*
X116558378Y-127592774D01*
X116467225Y-127501621D01*
X116467219Y-127501616D01*
X116431649Y-127477849D01*
X116360022Y-127429989D01*
X116240911Y-127380652D01*
X116114465Y-127355500D01*
X116114463Y-127355500D01*
X115985537Y-127355500D01*
X115985534Y-127355500D01*
X115859088Y-127380652D01*
X115859083Y-127380654D01*
X115739978Y-127429989D01*
X115632780Y-127501616D01*
X115632774Y-127501621D01*
X115541621Y-127592774D01*
X115541616Y-127592780D01*
X115469989Y-127699978D01*
X115420654Y-127819083D01*
X115420652Y-127819088D01*
X115395500Y-127945534D01*
X83026111Y-127945534D01*
X80991405Y-125910828D01*
X80957379Y-125848516D01*
X80954500Y-125821733D01*
X80954500Y-124925534D01*
X110295500Y-124925534D01*
X110295500Y-125054465D01*
X110311618Y-125135494D01*
X110320652Y-125180911D01*
X110369989Y-125300022D01*
X110417849Y-125371649D01*
X110441616Y-125407219D01*
X110441621Y-125407225D01*
X110532774Y-125498378D01*
X110532780Y-125498383D01*
X110639978Y-125570011D01*
X110759089Y-125619348D01*
X110885537Y-125644500D01*
X110885538Y-125644500D01*
X111014462Y-125644500D01*
X111014463Y-125644500D01*
X111140911Y-125619348D01*
X111260022Y-125570011D01*
X111367220Y-125498383D01*
X111458383Y-125407220D01*
X111530011Y-125300022D01*
X111579348Y-125180911D01*
X111604500Y-125054463D01*
X111604500Y-124925537D01*
X111579348Y-124799089D01*
X111530011Y-124679978D01*
X111458383Y-124572780D01*
X111458378Y-124572774D01*
X111367225Y-124481621D01*
X111367216Y-124481614D01*
X111329549Y-124456445D01*
X111284022Y-124401968D01*
X111275175Y-124331525D01*
X111305816Y-124267481D01*
X111329543Y-124246921D01*
X111387220Y-124208383D01*
X111478383Y-124117220D01*
X111546328Y-124015534D01*
X116115500Y-124015534D01*
X116115500Y-124144465D01*
X116133221Y-124233553D01*
X116140652Y-124270911D01*
X116189989Y-124390022D01*
X116203331Y-124409989D01*
X116261616Y-124497219D01*
X116261621Y-124497225D01*
X116352774Y-124588378D01*
X116352780Y-124588383D01*
X116459978Y-124660011D01*
X116579089Y-124709348D01*
X116705537Y-124734500D01*
X116705538Y-124734500D01*
X116834462Y-124734500D01*
X116834463Y-124734500D01*
X116960911Y-124709348D01*
X117080022Y-124660011D01*
X117187220Y-124588383D01*
X117278383Y-124497220D01*
X117350011Y-124390022D01*
X117399348Y-124270911D01*
X117424500Y-124144463D01*
X117424500Y-124015537D01*
X117399348Y-123889089D01*
X117350011Y-123769978D01*
X117278383Y-123662780D01*
X117278378Y-123662774D01*
X117187225Y-123571621D01*
X117187219Y-123571616D01*
X117151649Y-123547849D01*
X117080022Y-123499989D01*
X116960911Y-123450652D01*
X116834465Y-123425500D01*
X116834463Y-123425500D01*
X116705537Y-123425500D01*
X116705534Y-123425500D01*
X116579088Y-123450652D01*
X116579083Y-123450654D01*
X116459978Y-123499989D01*
X116352780Y-123571616D01*
X116352774Y-123571621D01*
X116261621Y-123662774D01*
X116261616Y-123662780D01*
X116189989Y-123769978D01*
X116140654Y-123889083D01*
X116140652Y-123889088D01*
X116115500Y-124015534D01*
X111546328Y-124015534D01*
X111550011Y-124010022D01*
X111599348Y-123890911D01*
X111624500Y-123764463D01*
X111624500Y-123635537D01*
X111599348Y-123509089D01*
X111550011Y-123389978D01*
X111478383Y-123282780D01*
X111478378Y-123282774D01*
X111387225Y-123191621D01*
X111387219Y-123191616D01*
X111351649Y-123167849D01*
X111280022Y-123119989D01*
X111160911Y-123070652D01*
X111034465Y-123045500D01*
X111034463Y-123045500D01*
X110905537Y-123045500D01*
X110905534Y-123045500D01*
X110779088Y-123070652D01*
X110779083Y-123070654D01*
X110659978Y-123119989D01*
X110552780Y-123191616D01*
X110552774Y-123191621D01*
X110461621Y-123282774D01*
X110461616Y-123282780D01*
X110389989Y-123389978D01*
X110340654Y-123509083D01*
X110340652Y-123509088D01*
X110315500Y-123635534D01*
X110315500Y-123764465D01*
X110340288Y-123889083D01*
X110340652Y-123890911D01*
X110389989Y-124010022D01*
X110396671Y-124020022D01*
X110461616Y-124117219D01*
X110461621Y-124117225D01*
X110552774Y-124208378D01*
X110552780Y-124208383D01*
X110590449Y-124233553D01*
X110635977Y-124288030D01*
X110644824Y-124358473D01*
X110614183Y-124422517D01*
X110590450Y-124443083D01*
X110532776Y-124481619D01*
X110441621Y-124572774D01*
X110441616Y-124572780D01*
X110369989Y-124679978D01*
X110320654Y-124799083D01*
X110320652Y-124799088D01*
X110295500Y-124925534D01*
X80954500Y-124925534D01*
X80954500Y-123645534D01*
X98525500Y-123645534D01*
X98525500Y-123645536D01*
X98525500Y-123645537D01*
X98525500Y-123774463D01*
X98550652Y-123900911D01*
X98599989Y-124020022D01*
X98647849Y-124091649D01*
X98671616Y-124127219D01*
X98671621Y-124127225D01*
X98762774Y-124218378D01*
X98762780Y-124218383D01*
X98869978Y-124290011D01*
X98989089Y-124339348D01*
X99115537Y-124364500D01*
X99115538Y-124364500D01*
X99244462Y-124364500D01*
X99244463Y-124364500D01*
X99370911Y-124339348D01*
X99490022Y-124290011D01*
X99597220Y-124218383D01*
X99688383Y-124127220D01*
X99760011Y-124020022D01*
X99809348Y-123900911D01*
X99834500Y-123774463D01*
X99834500Y-123645537D01*
X99834499Y-123645534D01*
X99832510Y-123635534D01*
X100115500Y-123635534D01*
X100115500Y-123764465D01*
X100140288Y-123889083D01*
X100140652Y-123890911D01*
X100189989Y-124010022D01*
X100196671Y-124020022D01*
X100261616Y-124117219D01*
X100261621Y-124117225D01*
X100352774Y-124208378D01*
X100352778Y-124208381D01*
X100352780Y-124208383D01*
X100459978Y-124280011D01*
X100579089Y-124329348D01*
X100705537Y-124354500D01*
X100705538Y-124354500D01*
X100834462Y-124354500D01*
X100834463Y-124354500D01*
X100960911Y-124329348D01*
X101080022Y-124280011D01*
X101187220Y-124208383D01*
X101278383Y-124117220D01*
X101350011Y-124010022D01*
X101399348Y-123890911D01*
X101424500Y-123764463D01*
X101424500Y-123635537D01*
X101399348Y-123509089D01*
X101350011Y-123389978D01*
X101278383Y-123282780D01*
X101278378Y-123282774D01*
X101187225Y-123191621D01*
X101187219Y-123191616D01*
X101151649Y-123167849D01*
X101080022Y-123119989D01*
X100960911Y-123070652D01*
X100834465Y-123045500D01*
X100834463Y-123045500D01*
X100705537Y-123045500D01*
X100705534Y-123045500D01*
X100579088Y-123070652D01*
X100579083Y-123070654D01*
X100459978Y-123119989D01*
X100352780Y-123191616D01*
X100352774Y-123191621D01*
X100261621Y-123282774D01*
X100261616Y-123282780D01*
X100189989Y-123389978D01*
X100140654Y-123509083D01*
X100140652Y-123509088D01*
X100115500Y-123635534D01*
X99832510Y-123635534D01*
X99819796Y-123571616D01*
X99809348Y-123519089D01*
X99760011Y-123399978D01*
X99688383Y-123292780D01*
X99688378Y-123292774D01*
X99597225Y-123201621D01*
X99597219Y-123201616D01*
X99561649Y-123177849D01*
X99490022Y-123129989D01*
X99370911Y-123080652D01*
X99320648Y-123070654D01*
X99244465Y-123055500D01*
X99244463Y-123055500D01*
X99115537Y-123055500D01*
X99115534Y-123055500D01*
X98989088Y-123080652D01*
X98989083Y-123080654D01*
X98869978Y-123129989D01*
X98762780Y-123201616D01*
X98762774Y-123201621D01*
X98671621Y-123292774D01*
X98671616Y-123292780D01*
X98599989Y-123399978D01*
X98550654Y-123519083D01*
X98550652Y-123519088D01*
X98525500Y-123645534D01*
X80954500Y-123645534D01*
X80954500Y-121425534D01*
X97785500Y-121425534D01*
X97785500Y-121425537D01*
X97785500Y-121554463D01*
X97810652Y-121680911D01*
X97859989Y-121800022D01*
X97907849Y-121871649D01*
X97931616Y-121907219D01*
X97931621Y-121907225D01*
X98022774Y-121998378D01*
X98022780Y-121998383D01*
X98129978Y-122070011D01*
X98249089Y-122119348D01*
X98375537Y-122144500D01*
X98375538Y-122144500D01*
X98504462Y-122144500D01*
X98504463Y-122144500D01*
X98630911Y-122119348D01*
X98750022Y-122070011D01*
X98857220Y-121998383D01*
X98948383Y-121907220D01*
X98962283Y-121886417D01*
X124035499Y-121886417D01*
X124069881Y-122014730D01*
X124136297Y-122129766D01*
X124136305Y-122129776D01*
X124230223Y-122223694D01*
X124230228Y-122223698D01*
X124230230Y-122223700D01*
X124345270Y-122290119D01*
X124473581Y-122324500D01*
X124473583Y-122324500D01*
X124606417Y-122324500D01*
X124606419Y-122324500D01*
X124734730Y-122290119D01*
X124849770Y-122223700D01*
X124943700Y-122129770D01*
X125010119Y-122014730D01*
X125044500Y-121886419D01*
X125044500Y-121753581D01*
X125010119Y-121625270D01*
X124943700Y-121510230D01*
X124943698Y-121510228D01*
X124943694Y-121510223D01*
X124849776Y-121416305D01*
X124849766Y-121416297D01*
X124734730Y-121349881D01*
X124606419Y-121315500D01*
X124473581Y-121315500D01*
X124388040Y-121338420D01*
X124345269Y-121349881D01*
X124230233Y-121416297D01*
X124230223Y-121416305D01*
X124136305Y-121510223D01*
X124136297Y-121510233D01*
X124069881Y-121625269D01*
X124035500Y-121753582D01*
X124035500Y-121886417D01*
X124035499Y-121886417D01*
X98962283Y-121886417D01*
X99020011Y-121800022D01*
X99069348Y-121680911D01*
X99094500Y-121554463D01*
X99094500Y-121425537D01*
X99069348Y-121299089D01*
X99020011Y-121179978D01*
X98948383Y-121072780D01*
X98948378Y-121072774D01*
X98857225Y-120981621D01*
X98857219Y-120981616D01*
X98786705Y-120934500D01*
X98750022Y-120909989D01*
X98648355Y-120867877D01*
X98630916Y-120860654D01*
X98630911Y-120860652D01*
X98504465Y-120835500D01*
X98504463Y-120835500D01*
X98375537Y-120835500D01*
X98375534Y-120835500D01*
X98249088Y-120860652D01*
X98249083Y-120860654D01*
X98129978Y-120909989D01*
X98022780Y-120981616D01*
X98022774Y-120981621D01*
X97931621Y-121072774D01*
X97931616Y-121072780D01*
X97859989Y-121179978D01*
X97810654Y-121299083D01*
X97810652Y-121299088D01*
X97785500Y-121425534D01*
X80954500Y-121425534D01*
X80954500Y-120496417D01*
X90895499Y-120496417D01*
X90929881Y-120624730D01*
X90996297Y-120739766D01*
X90996305Y-120739776D01*
X91090223Y-120833694D01*
X91090228Y-120833698D01*
X91090230Y-120833700D01*
X91090231Y-120833701D01*
X91090233Y-120833702D01*
X91134648Y-120859345D01*
X91205270Y-120900119D01*
X91333581Y-120934500D01*
X91333583Y-120934500D01*
X91466417Y-120934500D01*
X91466419Y-120934500D01*
X91594730Y-120900119D01*
X91709770Y-120833700D01*
X91803700Y-120739770D01*
X91870119Y-120624730D01*
X91893875Y-120536071D01*
X91930824Y-120475452D01*
X91994684Y-120444430D01*
X92048187Y-120446977D01*
X92113581Y-120464500D01*
X92113584Y-120464500D01*
X92246417Y-120464500D01*
X92246419Y-120464500D01*
X92374730Y-120430119D01*
X92489770Y-120363700D01*
X92491832Y-120361637D01*
X92493999Y-120360454D01*
X92496322Y-120358672D01*
X92496599Y-120359034D01*
X92554140Y-120327610D01*
X92624956Y-120332671D01*
X92643923Y-120341605D01*
X92745270Y-120400119D01*
X92873581Y-120434500D01*
X92873583Y-120434500D01*
X93006417Y-120434500D01*
X93006419Y-120434500D01*
X93134730Y-120400119D01*
X93249770Y-120333700D01*
X93343700Y-120239770D01*
X93410119Y-120124730D01*
X93444500Y-119996419D01*
X93444500Y-119863581D01*
X93410119Y-119735270D01*
X93343700Y-119620230D01*
X93343698Y-119620228D01*
X93343694Y-119620223D01*
X93249776Y-119526305D01*
X93249766Y-119526297D01*
X93134730Y-119459881D01*
X93101272Y-119450916D01*
X93006419Y-119425500D01*
X92873581Y-119425500D01*
X92788040Y-119448420D01*
X92745269Y-119459881D01*
X92630233Y-119526297D01*
X92630224Y-119526304D01*
X92628158Y-119528371D01*
X92625986Y-119529556D01*
X92623678Y-119531328D01*
X92623401Y-119530967D01*
X92565843Y-119562392D01*
X92495028Y-119557323D01*
X92476068Y-119548389D01*
X92374730Y-119489881D01*
X92246419Y-119455500D01*
X92113581Y-119455500D01*
X92028040Y-119478420D01*
X91985269Y-119489881D01*
X91870233Y-119556297D01*
X91870223Y-119556305D01*
X91776305Y-119650223D01*
X91776297Y-119650233D01*
X91709881Y-119765268D01*
X91697152Y-119812774D01*
X91688374Y-119845537D01*
X91686126Y-119853926D01*
X91649174Y-119914548D01*
X91585313Y-119945570D01*
X91531808Y-119943021D01*
X91518029Y-119939329D01*
X91466419Y-119925500D01*
X91333581Y-119925500D01*
X91258679Y-119945570D01*
X91205269Y-119959881D01*
X91090233Y-120026297D01*
X91090223Y-120026305D01*
X90996305Y-120120223D01*
X90996297Y-120120233D01*
X90929881Y-120235269D01*
X90914783Y-120291616D01*
X90896021Y-120361639D01*
X90895500Y-120363582D01*
X90895500Y-120496417D01*
X90895499Y-120496417D01*
X80954500Y-120496417D01*
X80954500Y-119175534D01*
X98715500Y-119175534D01*
X98715500Y-119304465D01*
X98724644Y-119350435D01*
X98740652Y-119430911D01*
X98789989Y-119550022D01*
X98836896Y-119620223D01*
X98861616Y-119657219D01*
X98861621Y-119657225D01*
X98952774Y-119748378D01*
X98952780Y-119748383D01*
X99059978Y-119820011D01*
X99179089Y-119869348D01*
X99305537Y-119894500D01*
X99305538Y-119894500D01*
X99434462Y-119894500D01*
X99434463Y-119894500D01*
X99560911Y-119869348D01*
X99680022Y-119820011D01*
X99787220Y-119748383D01*
X99878383Y-119657220D01*
X99950011Y-119550022D01*
X99999348Y-119430911D01*
X100024500Y-119304463D01*
X100024500Y-119175537D01*
X99999348Y-119049089D01*
X99950011Y-118929978D01*
X99878383Y-118822780D01*
X99878378Y-118822774D01*
X99787225Y-118731621D01*
X99787219Y-118731616D01*
X99751649Y-118707849D01*
X99680022Y-118659989D01*
X99560911Y-118610652D01*
X99535010Y-118605500D01*
X99434465Y-118585500D01*
X99434463Y-118585500D01*
X99305537Y-118585500D01*
X99305534Y-118585500D01*
X99179088Y-118610652D01*
X99179083Y-118610654D01*
X99059978Y-118659989D01*
X98952780Y-118731616D01*
X98952774Y-118731621D01*
X98861621Y-118822774D01*
X98861616Y-118822780D01*
X98789989Y-118929978D01*
X98740654Y-119049083D01*
X98740652Y-119049088D01*
X98715500Y-119175534D01*
X80954500Y-119175534D01*
X80954500Y-117882129D01*
X91975499Y-117882129D01*
X92009881Y-118010442D01*
X92076297Y-118125478D01*
X92076305Y-118125488D01*
X92170223Y-118219406D01*
X92170228Y-118219410D01*
X92170230Y-118219412D01*
X92285270Y-118285831D01*
X92413581Y-118320212D01*
X92413583Y-118320212D01*
X92546417Y-118320212D01*
X92546419Y-118320212D01*
X92674730Y-118285831D01*
X92789770Y-118219412D01*
X92883700Y-118125482D01*
X92950119Y-118010442D01*
X92984500Y-117882131D01*
X92984500Y-117749293D01*
X92950119Y-117620982D01*
X92889847Y-117516589D01*
X92883702Y-117505945D01*
X92883694Y-117505935D01*
X92789776Y-117412017D01*
X92789766Y-117412009D01*
X92674730Y-117345593D01*
X92664232Y-117342780D01*
X92546419Y-117311212D01*
X92413581Y-117311212D01*
X92328040Y-117334132D01*
X92285269Y-117345593D01*
X92170233Y-117412009D01*
X92170223Y-117412017D01*
X92076305Y-117505935D01*
X92076297Y-117505945D01*
X92009881Y-117620981D01*
X91975500Y-117749294D01*
X91975500Y-117882129D01*
X91975499Y-117882129D01*
X80954500Y-117882129D01*
X80954500Y-116480701D01*
X91975499Y-116480701D01*
X92009881Y-116609014D01*
X92076297Y-116724050D01*
X92076305Y-116724060D01*
X92170223Y-116817978D01*
X92170228Y-116817982D01*
X92170230Y-116817984D01*
X92285270Y-116884403D01*
X92413581Y-116918784D01*
X92413583Y-116918784D01*
X92546417Y-116918784D01*
X92546419Y-116918784D01*
X92674730Y-116884403D01*
X92789770Y-116817984D01*
X92883700Y-116724054D01*
X92950119Y-116609014D01*
X92984500Y-116480703D01*
X92984500Y-116347865D01*
X92950119Y-116219554D01*
X92883700Y-116104514D01*
X92883698Y-116104512D01*
X92883694Y-116104507D01*
X92789776Y-116010589D01*
X92789766Y-116010581D01*
X92674730Y-115944165D01*
X92546419Y-115909784D01*
X92413581Y-115909784D01*
X92328040Y-115932704D01*
X92285269Y-115944165D01*
X92170233Y-116010581D01*
X92170223Y-116010589D01*
X92076305Y-116104507D01*
X92076297Y-116104517D01*
X92009881Y-116219553D01*
X91998780Y-116260982D01*
X91982534Y-116321616D01*
X91975500Y-116347866D01*
X91975500Y-116480701D01*
X91975499Y-116480701D01*
X80954500Y-116480701D01*
X80954500Y-115681534D01*
X103835500Y-115681534D01*
X103835500Y-115810465D01*
X103842628Y-115846297D01*
X103860652Y-115936911D01*
X103909989Y-116056022D01*
X103942386Y-116104507D01*
X103981616Y-116163219D01*
X103981621Y-116163225D01*
X104022301Y-116203905D01*
X104056327Y-116266217D01*
X104051262Y-116337032D01*
X104022301Y-116382095D01*
X103981621Y-116422774D01*
X103981616Y-116422780D01*
X103909989Y-116529978D01*
X103860654Y-116649083D01*
X103860652Y-116649088D01*
X103835500Y-116775534D01*
X103835500Y-116904465D01*
X103860652Y-117030911D01*
X103860654Y-117030916D01*
X103909989Y-117150022D01*
X103963427Y-117229998D01*
X103984642Y-117297751D01*
X103965859Y-117366218D01*
X103963427Y-117370002D01*
X103909989Y-117449977D01*
X103860654Y-117569083D01*
X103860652Y-117569088D01*
X103835500Y-117695534D01*
X103835500Y-117824465D01*
X103860652Y-117950911D01*
X103860654Y-117950916D01*
X103909989Y-118070022D01*
X103970109Y-118159998D01*
X103991324Y-118227751D01*
X103972541Y-118296218D01*
X103970109Y-118300002D01*
X103909989Y-118389977D01*
X103860654Y-118509083D01*
X103860652Y-118509088D01*
X103835500Y-118635534D01*
X103835500Y-118764465D01*
X103847099Y-118822774D01*
X103860652Y-118890911D01*
X103909989Y-119010022D01*
X103936093Y-119049089D01*
X103981616Y-119117219D01*
X103981621Y-119117225D01*
X104077156Y-119212760D01*
X104076076Y-119213839D01*
X104111796Y-119266281D01*
X104113695Y-119337252D01*
X104076923Y-119397983D01*
X104073102Y-119401293D01*
X103981621Y-119492774D01*
X103981616Y-119492780D01*
X103909989Y-119599978D01*
X103860654Y-119719083D01*
X103860652Y-119719088D01*
X103835500Y-119845534D01*
X103835500Y-119974465D01*
X103848355Y-120039089D01*
X103860652Y-120100911D01*
X103909989Y-120220022D01*
X103923352Y-120240021D01*
X103981616Y-120327219D01*
X103981621Y-120327225D01*
X104072774Y-120418378D01*
X104072780Y-120418383D01*
X104179978Y-120490011D01*
X104299089Y-120539348D01*
X104425537Y-120564500D01*
X104425538Y-120564500D01*
X104554462Y-120564500D01*
X104554463Y-120564500D01*
X104680911Y-120539348D01*
X104800022Y-120490011D01*
X104907220Y-120418383D01*
X104998383Y-120327220D01*
X105070011Y-120220022D01*
X105119348Y-120100911D01*
X105144500Y-119974463D01*
X105144500Y-119845537D01*
X105119348Y-119719089D01*
X105070011Y-119599978D01*
X104998383Y-119492780D01*
X104998378Y-119492774D01*
X104902844Y-119397240D01*
X104903924Y-119396159D01*
X104899364Y-119389466D01*
X104886876Y-119380023D01*
X104879784Y-119360726D01*
X104868208Y-119343735D01*
X104867787Y-119328083D01*
X104862385Y-119313384D01*
X104866852Y-119293313D01*
X104866300Y-119272764D01*
X104874632Y-119258360D01*
X104877810Y-119244084D01*
X104894472Y-119224063D01*
X104899440Y-119215477D01*
X104905322Y-119209651D01*
X104907220Y-119208383D01*
X104971125Y-119144477D01*
X104971334Y-119144271D01*
X105002369Y-119127517D01*
X105033217Y-119110673D01*
X105033531Y-119110695D01*
X105033809Y-119110546D01*
X105068890Y-119113224D01*
X105104032Y-119115738D01*
X105104331Y-119115930D01*
X105104600Y-119115951D01*
X105105940Y-119116964D01*
X105149095Y-119144699D01*
X105212774Y-119208378D01*
X105212780Y-119208383D01*
X105319978Y-119280011D01*
X105439089Y-119329348D01*
X105565537Y-119354500D01*
X105565538Y-119354500D01*
X105694462Y-119354500D01*
X105694463Y-119354500D01*
X105820911Y-119329348D01*
X105940022Y-119280011D01*
X106047220Y-119208383D01*
X106085905Y-119169697D01*
X106093688Y-119165447D01*
X106098970Y-119158316D01*
X106124372Y-119148691D01*
X106148213Y-119135673D01*
X106157064Y-119136305D01*
X106165362Y-119133162D01*
X106191933Y-119138798D01*
X106219029Y-119140736D01*
X106227955Y-119146440D01*
X106234813Y-119147895D01*
X106262536Y-119168538D01*
X106263633Y-119169239D01*
X106263925Y-119169528D01*
X106322780Y-119228383D01*
X106324659Y-119229639D01*
X106330527Y-119235446D01*
X106344979Y-119261592D01*
X106361796Y-119286281D01*
X106361957Y-119292305D01*
X106364874Y-119297582D01*
X106362896Y-119327394D01*
X106363695Y-119357252D01*
X106360573Y-119362408D01*
X106360174Y-119368423D01*
X106342393Y-119392431D01*
X106326923Y-119417983D01*
X106323102Y-119421293D01*
X106231621Y-119512774D01*
X106231616Y-119512780D01*
X106159989Y-119619978D01*
X106110654Y-119739083D01*
X106110652Y-119739088D01*
X106085500Y-119865534D01*
X106085500Y-119994465D01*
X106098332Y-120058976D01*
X106110652Y-120120911D01*
X106159989Y-120240022D01*
X106194463Y-120291616D01*
X106231616Y-120347219D01*
X106231621Y-120347225D01*
X106322774Y-120438378D01*
X106322780Y-120438383D01*
X106429978Y-120510011D01*
X106549089Y-120559348D01*
X106675537Y-120584500D01*
X106675538Y-120584500D01*
X106804462Y-120584500D01*
X106804463Y-120584500D01*
X106930911Y-120559348D01*
X107050022Y-120510011D01*
X107157220Y-120438383D01*
X107248383Y-120347220D01*
X107320011Y-120240022D01*
X107369348Y-120120911D01*
X107394500Y-119994463D01*
X107394500Y-119865537D01*
X107369348Y-119739089D01*
X107320011Y-119619978D01*
X107248383Y-119512780D01*
X107248378Y-119512774D01*
X107152844Y-119417240D01*
X107153924Y-119416159D01*
X107150690Y-119411412D01*
X107139783Y-119403795D01*
X107131086Y-119382638D01*
X107118208Y-119363735D01*
X107117850Y-119350435D01*
X107112792Y-119338129D01*
X107116914Y-119315627D01*
X107116300Y-119292764D01*
X107123480Y-119279791D01*
X107125587Y-119268295D01*
X107139375Y-119251077D01*
X107146120Y-119238892D01*
X107153848Y-119230635D01*
X107157220Y-119228383D01*
X107190069Y-119195534D01*
X111525500Y-119195534D01*
X111525500Y-119324465D01*
X111539761Y-119396159D01*
X111550652Y-119450911D01*
X111599989Y-119570022D01*
X111620457Y-119600654D01*
X111671616Y-119677219D01*
X111671621Y-119677225D01*
X111762774Y-119768378D01*
X111762780Y-119768383D01*
X111869978Y-119840011D01*
X111989089Y-119889348D01*
X112074718Y-119906380D01*
X112074921Y-119906421D01*
X112137831Y-119939329D01*
X112172962Y-120001024D01*
X112169162Y-120071919D01*
X112127636Y-120129505D01*
X112074921Y-120153579D01*
X111989088Y-120170652D01*
X111989083Y-120170654D01*
X111869978Y-120219989D01*
X111762780Y-120291616D01*
X111762774Y-120291621D01*
X111671621Y-120382774D01*
X111671616Y-120382780D01*
X111599989Y-120489978D01*
X111550654Y-120609083D01*
X111550652Y-120609088D01*
X111525500Y-120735534D01*
X111525500Y-120864465D01*
X111539431Y-120934500D01*
X111550652Y-120990911D01*
X111599989Y-121110022D01*
X111647849Y-121181649D01*
X111671616Y-121217219D01*
X111671621Y-121217225D01*
X111762774Y-121308378D01*
X111762780Y-121308383D01*
X111869978Y-121380011D01*
X111989089Y-121429348D01*
X112115537Y-121454500D01*
X112115538Y-121454500D01*
X112244462Y-121454500D01*
X112244463Y-121454500D01*
X112370911Y-121429348D01*
X112490022Y-121380011D01*
X112597220Y-121308383D01*
X112688383Y-121217220D01*
X112760011Y-121110022D01*
X112809348Y-120990911D01*
X112834500Y-120864463D01*
X112834500Y-120735537D01*
X112809348Y-120609089D01*
X112760011Y-120489978D01*
X112688383Y-120382780D01*
X112688378Y-120382774D01*
X112597225Y-120291621D01*
X112597219Y-120291616D01*
X112556056Y-120264112D01*
X112520003Y-120240022D01*
X112490022Y-120219989D01*
X112370911Y-120170652D01*
X112345182Y-120165534D01*
X123055500Y-120165534D01*
X123055500Y-120294465D01*
X123076516Y-120400118D01*
X123080652Y-120420911D01*
X123129989Y-120540022D01*
X123176134Y-120609083D01*
X123201616Y-120647219D01*
X123201621Y-120647225D01*
X123292774Y-120738378D01*
X123292780Y-120738383D01*
X123399978Y-120810011D01*
X123519089Y-120859348D01*
X123645537Y-120884500D01*
X123645538Y-120884500D01*
X123774462Y-120884500D01*
X123774463Y-120884500D01*
X123900911Y-120859348D01*
X124020022Y-120810011D01*
X124127220Y-120738383D01*
X124218383Y-120647220D01*
X124290011Y-120540022D01*
X124339348Y-120420911D01*
X124364500Y-120294463D01*
X124364500Y-120165537D01*
X124339348Y-120039089D01*
X124290011Y-119919978D01*
X124218383Y-119812780D01*
X124218378Y-119812774D01*
X124127225Y-119721621D01*
X124127219Y-119721616D01*
X124060783Y-119677225D01*
X124020022Y-119649989D01*
X123900911Y-119600652D01*
X123897523Y-119599978D01*
X123774465Y-119575500D01*
X123774463Y-119575500D01*
X123645537Y-119575500D01*
X123645534Y-119575500D01*
X123519088Y-119600652D01*
X123519083Y-119600654D01*
X123399978Y-119649989D01*
X123292780Y-119721616D01*
X123292774Y-119721621D01*
X123201621Y-119812774D01*
X123201616Y-119812780D01*
X123129989Y-119919978D01*
X123080654Y-120039083D01*
X123080652Y-120039088D01*
X123055500Y-120165534D01*
X112345182Y-120165534D01*
X112285077Y-120153578D01*
X112222169Y-120120671D01*
X112187037Y-120058976D01*
X112190837Y-119988081D01*
X112232363Y-119930495D01*
X112285077Y-119906421D01*
X112370911Y-119889348D01*
X112490022Y-119840011D01*
X112597220Y-119768383D01*
X112688383Y-119677220D01*
X112760011Y-119570022D01*
X112809348Y-119450911D01*
X112834500Y-119324463D01*
X112834500Y-119195537D01*
X112809348Y-119069089D01*
X112760011Y-118949978D01*
X112688383Y-118842780D01*
X112688378Y-118842774D01*
X112597225Y-118751621D01*
X112597219Y-118751616D01*
X112561649Y-118727849D01*
X112490022Y-118679989D01*
X112370911Y-118630652D01*
X112244465Y-118605500D01*
X112244463Y-118605500D01*
X112115537Y-118605500D01*
X112115534Y-118605500D01*
X111989088Y-118630652D01*
X111989083Y-118630654D01*
X111869978Y-118679989D01*
X111762780Y-118751616D01*
X111762774Y-118751621D01*
X111671621Y-118842774D01*
X111671616Y-118842780D01*
X111599989Y-118949978D01*
X111550654Y-119069083D01*
X111550652Y-119069088D01*
X111525500Y-119195534D01*
X107190069Y-119195534D01*
X107248383Y-119137220D01*
X107320011Y-119030022D01*
X107369348Y-118910911D01*
X107394500Y-118784463D01*
X107394500Y-118655537D01*
X107369348Y-118529089D01*
X107320011Y-118409978D01*
X107259889Y-118320000D01*
X107238675Y-118252250D01*
X107257458Y-118183783D01*
X107259890Y-118179998D01*
X107320011Y-118090022D01*
X107321504Y-118086417D01*
X118915499Y-118086417D01*
X118949881Y-118214730D01*
X119016297Y-118329766D01*
X119016305Y-118329776D01*
X119110223Y-118423694D01*
X119110228Y-118423698D01*
X119110230Y-118423700D01*
X119225270Y-118490119D01*
X119353581Y-118524500D01*
X119353583Y-118524500D01*
X119486417Y-118524500D01*
X119486419Y-118524500D01*
X119614730Y-118490119D01*
X119729770Y-118423700D01*
X119823700Y-118329770D01*
X119890119Y-118214730D01*
X119924500Y-118086419D01*
X119924500Y-117953581D01*
X119890119Y-117825270D01*
X119826764Y-117715537D01*
X119823702Y-117710233D01*
X119823694Y-117710223D01*
X119729776Y-117616305D01*
X119729766Y-117616297D01*
X119646920Y-117568466D01*
X119614730Y-117549881D01*
X119611841Y-117549107D01*
X119486419Y-117515500D01*
X119353581Y-117515500D01*
X119268040Y-117538420D01*
X119225269Y-117549881D01*
X119110233Y-117616297D01*
X119110223Y-117616305D01*
X119016305Y-117710223D01*
X119016297Y-117710233D01*
X118949881Y-117825269D01*
X118949881Y-117825270D01*
X118916216Y-117950911D01*
X118915500Y-117953582D01*
X118915500Y-118086417D01*
X118915499Y-118086417D01*
X107321504Y-118086417D01*
X107369348Y-117970911D01*
X107394500Y-117844463D01*
X107394500Y-117715537D01*
X107369348Y-117589089D01*
X107320011Y-117469978D01*
X107317042Y-117465534D01*
X123095500Y-117465534D01*
X123095500Y-117594465D01*
X123100775Y-117620982D01*
X123120652Y-117720911D01*
X123169989Y-117840022D01*
X123198126Y-117882131D01*
X123241616Y-117947219D01*
X123241621Y-117947225D01*
X123332774Y-118038378D01*
X123332780Y-118038383D01*
X123439978Y-118110011D01*
X123559089Y-118159348D01*
X123685537Y-118184500D01*
X123685538Y-118184500D01*
X123814462Y-118184500D01*
X123814463Y-118184500D01*
X123940911Y-118159348D01*
X124060022Y-118110011D01*
X124167220Y-118038383D01*
X124258383Y-117947220D01*
X124330011Y-117840022D01*
X124379348Y-117720911D01*
X124404500Y-117594463D01*
X124404500Y-117465537D01*
X124379348Y-117339089D01*
X124330011Y-117219978D01*
X124258383Y-117112780D01*
X124258378Y-117112774D01*
X124167225Y-117021621D01*
X124167219Y-117021616D01*
X124131649Y-116997849D01*
X124060022Y-116949989D01*
X123958355Y-116907877D01*
X123940916Y-116900654D01*
X123940911Y-116900652D01*
X123814465Y-116875500D01*
X123814463Y-116875500D01*
X123685537Y-116875500D01*
X123685534Y-116875500D01*
X123559088Y-116900652D01*
X123559083Y-116900654D01*
X123439978Y-116949989D01*
X123332780Y-117021616D01*
X123332774Y-117021621D01*
X123241621Y-117112774D01*
X123241616Y-117112780D01*
X123169989Y-117219978D01*
X123120654Y-117339083D01*
X123120652Y-117339088D01*
X123095500Y-117465534D01*
X107317042Y-117465534D01*
X107266571Y-117390001D01*
X107245357Y-117322250D01*
X107264140Y-117253783D01*
X107266572Y-117249998D01*
X107320011Y-117170022D01*
X107369348Y-117050911D01*
X107394500Y-116924463D01*
X107394500Y-116795537D01*
X107369348Y-116669089D01*
X107320011Y-116549978D01*
X107248383Y-116442780D01*
X107248378Y-116442774D01*
X107207699Y-116402095D01*
X107206934Y-116400694D01*
X107205551Y-116399895D01*
X107189978Y-116369644D01*
X107173673Y-116339783D01*
X107173787Y-116338189D01*
X107173057Y-116336771D01*
X107175012Y-116316417D01*
X118925499Y-116316417D01*
X118959881Y-116444730D01*
X119026297Y-116559766D01*
X119026305Y-116559776D01*
X119120223Y-116653694D01*
X119120228Y-116653698D01*
X119120230Y-116653700D01*
X119120231Y-116653701D01*
X119120233Y-116653702D01*
X119146884Y-116669089D01*
X119235270Y-116720119D01*
X119363581Y-116754500D01*
X119363583Y-116754500D01*
X119496417Y-116754500D01*
X119496419Y-116754500D01*
X119624730Y-116720119D01*
X119739770Y-116653700D01*
X119833700Y-116559770D01*
X119900119Y-116444730D01*
X119934500Y-116316419D01*
X119934500Y-116183581D01*
X119900119Y-116055270D01*
X119833700Y-115940230D01*
X119833698Y-115940228D01*
X119833694Y-115940223D01*
X119739776Y-115846305D01*
X119739766Y-115846297D01*
X119624730Y-115779881D01*
X119496419Y-115745500D01*
X119363581Y-115745500D01*
X119278040Y-115768420D01*
X119235269Y-115779881D01*
X119120233Y-115846297D01*
X119120223Y-115846305D01*
X119026305Y-115940223D01*
X119026297Y-115940233D01*
X118959881Y-116055269D01*
X118954320Y-116076022D01*
X118927666Y-116175500D01*
X118925500Y-116183582D01*
X118925500Y-116316417D01*
X118925499Y-116316417D01*
X107175012Y-116316417D01*
X107176308Y-116302930D01*
X107178738Y-116268968D01*
X107179744Y-116267177D01*
X107179848Y-116266100D01*
X107183225Y-116260982D01*
X107197798Y-116235053D01*
X107202419Y-116229183D01*
X107248383Y-116183220D01*
X107320011Y-116076022D01*
X107369348Y-115956911D01*
X107394500Y-115830463D01*
X107394500Y-115701537D01*
X107369348Y-115575089D01*
X107320011Y-115455978D01*
X107248383Y-115348780D01*
X107248378Y-115348774D01*
X107157225Y-115257621D01*
X107157219Y-115257616D01*
X107121649Y-115233849D01*
X107050022Y-115185989D01*
X106930911Y-115136652D01*
X106804465Y-115111500D01*
X106804463Y-115111500D01*
X106675537Y-115111500D01*
X106675534Y-115111500D01*
X106549088Y-115136652D01*
X106549083Y-115136654D01*
X106429978Y-115185989D01*
X106322780Y-115257616D01*
X106322774Y-115257621D01*
X106231621Y-115348774D01*
X106231616Y-115348780D01*
X106159989Y-115455978D01*
X106110654Y-115575083D01*
X106110652Y-115575088D01*
X106085500Y-115701534D01*
X106085500Y-115830465D01*
X106110652Y-115956911D01*
X106110654Y-115956916D01*
X106159989Y-116076022D01*
X106212622Y-116154793D01*
X106233837Y-116222546D01*
X106215054Y-116291013D01*
X106162236Y-116338456D01*
X106092154Y-116349813D01*
X106032860Y-116324316D01*
X106032367Y-116325056D01*
X106028371Y-116322386D01*
X106027922Y-116322193D01*
X106027220Y-116321616D01*
X105945745Y-116267177D01*
X105920022Y-116249989D01*
X105818355Y-116207877D01*
X105800916Y-116200654D01*
X105800911Y-116200652D01*
X105674465Y-116175500D01*
X105674463Y-116175500D01*
X105545537Y-116175500D01*
X105545534Y-116175500D01*
X105419088Y-116200652D01*
X105419083Y-116200654D01*
X105299978Y-116249989D01*
X105192780Y-116321616D01*
X105192774Y-116321621D01*
X105192564Y-116321832D01*
X105192426Y-116321906D01*
X105187995Y-116325544D01*
X105187304Y-116324702D01*
X105130248Y-116355850D01*
X105059433Y-116350778D01*
X105002602Y-116308225D01*
X104977798Y-116241702D01*
X104992897Y-116172330D01*
X104998699Y-116162746D01*
X105070011Y-116056022D01*
X105119348Y-115936911D01*
X105144500Y-115810463D01*
X105144500Y-115681537D01*
X105119348Y-115555089D01*
X105070011Y-115435978D01*
X104998383Y-115328780D01*
X104998378Y-115328774D01*
X104907225Y-115237621D01*
X104907219Y-115237616D01*
X104841485Y-115193694D01*
X104800022Y-115165989D01*
X104680911Y-115116652D01*
X104655010Y-115111500D01*
X104554465Y-115091500D01*
X104554463Y-115091500D01*
X104425537Y-115091500D01*
X104425534Y-115091500D01*
X104299088Y-115116652D01*
X104299083Y-115116654D01*
X104179978Y-115165989D01*
X104072780Y-115237616D01*
X104072774Y-115237621D01*
X103981621Y-115328774D01*
X103981616Y-115328780D01*
X103909989Y-115435978D01*
X103860654Y-115555083D01*
X103860652Y-115555088D01*
X103835500Y-115681534D01*
X80954500Y-115681534D01*
X80954500Y-115079273D01*
X91975499Y-115079273D01*
X92009881Y-115207586D01*
X92076297Y-115322622D01*
X92076305Y-115322632D01*
X92170223Y-115416550D01*
X92170228Y-115416554D01*
X92170230Y-115416556D01*
X92170231Y-115416557D01*
X92170233Y-115416558D01*
X92214865Y-115442326D01*
X92285270Y-115482975D01*
X92413581Y-115517356D01*
X92413583Y-115517356D01*
X92546417Y-115517356D01*
X92546419Y-115517356D01*
X92674730Y-115482975D01*
X92789770Y-115416556D01*
X92883700Y-115322626D01*
X92950119Y-115207586D01*
X92984500Y-115079275D01*
X92984500Y-114946437D01*
X92950119Y-114818126D01*
X92909470Y-114747721D01*
X92883702Y-114703089D01*
X92883694Y-114703079D01*
X92789776Y-114609161D01*
X92789766Y-114609153D01*
X92674730Y-114542737D01*
X92546419Y-114508356D01*
X92413581Y-114508356D01*
X92328040Y-114531276D01*
X92285269Y-114542737D01*
X92170233Y-114609153D01*
X92170223Y-114609161D01*
X92076305Y-114703079D01*
X92076297Y-114703089D01*
X92009881Y-114818125D01*
X91975500Y-114946438D01*
X91975500Y-115079273D01*
X91975499Y-115079273D01*
X80954500Y-115079273D01*
X80954500Y-114195534D01*
X97395500Y-114195534D01*
X97395500Y-114324465D01*
X97407800Y-114386300D01*
X97420652Y-114450911D01*
X97469989Y-114570022D01*
X97496136Y-114609153D01*
X97541616Y-114677219D01*
X97541621Y-114677225D01*
X97632774Y-114768378D01*
X97632780Y-114768383D01*
X97739978Y-114840011D01*
X97859089Y-114889348D01*
X97985537Y-114914500D01*
X97985538Y-114914500D01*
X98114462Y-114914500D01*
X98114463Y-114914500D01*
X98240911Y-114889348D01*
X98360022Y-114840011D01*
X98467220Y-114768383D01*
X98558383Y-114677220D01*
X98630011Y-114570022D01*
X98679348Y-114450911D01*
X98704500Y-114324463D01*
X98704500Y-114205534D01*
X112325500Y-114205534D01*
X112325500Y-114205537D01*
X112325500Y-114334463D01*
X112350652Y-114460911D01*
X112399989Y-114580022D01*
X112443620Y-114645320D01*
X112471616Y-114687219D01*
X112471621Y-114687225D01*
X112562774Y-114778378D01*
X112562780Y-114778383D01*
X112669978Y-114850011D01*
X112789089Y-114899348D01*
X112915537Y-114924500D01*
X112915538Y-114924500D01*
X113044462Y-114924500D01*
X113044463Y-114924500D01*
X113170911Y-114899348D01*
X113274556Y-114856417D01*
X118915499Y-114856417D01*
X118949881Y-114984730D01*
X119016297Y-115099766D01*
X119016305Y-115099776D01*
X119110223Y-115193694D01*
X119110228Y-115193698D01*
X119110230Y-115193700D01*
X119225270Y-115260119D01*
X119353581Y-115294500D01*
X119353583Y-115294500D01*
X119486417Y-115294500D01*
X119486419Y-115294500D01*
X119614730Y-115260119D01*
X119729770Y-115193700D01*
X119823700Y-115099770D01*
X119890119Y-114984730D01*
X119924500Y-114856419D01*
X119924500Y-114723581D01*
X119890119Y-114595270D01*
X119823700Y-114480230D01*
X119823698Y-114480228D01*
X119823694Y-114480223D01*
X119729776Y-114386305D01*
X119729766Y-114386297D01*
X119614730Y-114319881D01*
X119486419Y-114285500D01*
X119353581Y-114285500D01*
X119268040Y-114308420D01*
X119225269Y-114319881D01*
X119110233Y-114386297D01*
X119110223Y-114386305D01*
X119016305Y-114480223D01*
X119016297Y-114480233D01*
X118949881Y-114595269D01*
X118949881Y-114595270D01*
X118927923Y-114677220D01*
X118915500Y-114723582D01*
X118915500Y-114856417D01*
X118915499Y-114856417D01*
X113274556Y-114856417D01*
X113290022Y-114850011D01*
X113397220Y-114778383D01*
X113488383Y-114687220D01*
X113560011Y-114580022D01*
X113609348Y-114460911D01*
X113634500Y-114334463D01*
X113634500Y-114205537D01*
X113609348Y-114079089D01*
X113560011Y-113959978D01*
X113488383Y-113852780D01*
X113488378Y-113852774D01*
X113397225Y-113761621D01*
X113397219Y-113761616D01*
X113344540Y-113726417D01*
X118235499Y-113726417D01*
X118269881Y-113854730D01*
X118336297Y-113969766D01*
X118336305Y-113969776D01*
X118430223Y-114063694D01*
X118430228Y-114063698D01*
X118430230Y-114063700D01*
X118430231Y-114063701D01*
X118430233Y-114063702D01*
X118474865Y-114089470D01*
X118545270Y-114130119D01*
X118673581Y-114164500D01*
X118673583Y-114164500D01*
X118806417Y-114164500D01*
X118806419Y-114164500D01*
X118934730Y-114130119D01*
X119049770Y-114063700D01*
X119143700Y-113969770D01*
X119210119Y-113854730D01*
X119244500Y-113726419D01*
X119244500Y-113593581D01*
X119210119Y-113465270D01*
X119143700Y-113350230D01*
X119143698Y-113350228D01*
X119143694Y-113350223D01*
X119049776Y-113256305D01*
X119049766Y-113256297D01*
X118934730Y-113189881D01*
X118806419Y-113155500D01*
X118673581Y-113155500D01*
X118588040Y-113178420D01*
X118545269Y-113189881D01*
X118430233Y-113256297D01*
X118430223Y-113256305D01*
X118336305Y-113350223D01*
X118336297Y-113350233D01*
X118269881Y-113465269D01*
X118235500Y-113593582D01*
X118235500Y-113726417D01*
X118235499Y-113726417D01*
X113344540Y-113726417D01*
X113290022Y-113689989D01*
X113170911Y-113640652D01*
X113120648Y-113630654D01*
X113044465Y-113615500D01*
X113044463Y-113615500D01*
X112915537Y-113615500D01*
X112915534Y-113615500D01*
X112789088Y-113640652D01*
X112789083Y-113640654D01*
X112669978Y-113689989D01*
X112562780Y-113761616D01*
X112562774Y-113761621D01*
X112471621Y-113852774D01*
X112471616Y-113852780D01*
X112399989Y-113959978D01*
X112350654Y-114079083D01*
X112350652Y-114079088D01*
X112325500Y-114205534D01*
X98704500Y-114205534D01*
X98704500Y-114195537D01*
X98679348Y-114069089D01*
X98630011Y-113949978D01*
X98558383Y-113842780D01*
X98558378Y-113842774D01*
X98467225Y-113751621D01*
X98467219Y-113751616D01*
X98429506Y-113726417D01*
X98360022Y-113679989D01*
X98240911Y-113630652D01*
X98114465Y-113605500D01*
X98114463Y-113605500D01*
X97985537Y-113605500D01*
X97985534Y-113605500D01*
X97859088Y-113630652D01*
X97859083Y-113630654D01*
X97739978Y-113679989D01*
X97632780Y-113751616D01*
X97632774Y-113751621D01*
X97541621Y-113842774D01*
X97541616Y-113842780D01*
X97469989Y-113949978D01*
X97420654Y-114069083D01*
X97420652Y-114069088D01*
X97395500Y-114195534D01*
X80954500Y-114195534D01*
X80954500Y-113677845D01*
X91975499Y-113677845D01*
X92009881Y-113806158D01*
X92076297Y-113921194D01*
X92076305Y-113921204D01*
X92170223Y-114015122D01*
X92170228Y-114015126D01*
X92170230Y-114015128D01*
X92285270Y-114081547D01*
X92413581Y-114115928D01*
X92413583Y-114115928D01*
X92546417Y-114115928D01*
X92546419Y-114115928D01*
X92674730Y-114081547D01*
X92789770Y-114015128D01*
X92883700Y-113921198D01*
X92950119Y-113806158D01*
X92984500Y-113677847D01*
X92984500Y-113545009D01*
X92950119Y-113416698D01*
X92883700Y-113301658D01*
X92883698Y-113301656D01*
X92883694Y-113301651D01*
X92789776Y-113207733D01*
X92789766Y-113207725D01*
X92674730Y-113141309D01*
X92546419Y-113106928D01*
X92413581Y-113106928D01*
X92328040Y-113129848D01*
X92285269Y-113141309D01*
X92170233Y-113207725D01*
X92170223Y-113207733D01*
X92076305Y-113301651D01*
X92076297Y-113301661D01*
X92009881Y-113416697D01*
X91975500Y-113545010D01*
X91975500Y-113677845D01*
X91975499Y-113677845D01*
X80954500Y-113677845D01*
X80954500Y-112276417D01*
X91975499Y-112276417D01*
X92009881Y-112404730D01*
X92076297Y-112519766D01*
X92076305Y-112519776D01*
X92170223Y-112613694D01*
X92170228Y-112613698D01*
X92170230Y-112613700D01*
X92285270Y-112680119D01*
X92413581Y-112714500D01*
X92413583Y-112714500D01*
X92546417Y-112714500D01*
X92546419Y-112714500D01*
X92674730Y-112680119D01*
X92789770Y-112613700D01*
X92883700Y-112519770D01*
X92950119Y-112404730D01*
X92968660Y-112335534D01*
X120925500Y-112335534D01*
X120925500Y-112335537D01*
X120925500Y-112464463D01*
X120950652Y-112590911D01*
X120999989Y-112710022D01*
X121047849Y-112781649D01*
X121071616Y-112817219D01*
X121071621Y-112817225D01*
X121162774Y-112908378D01*
X121162780Y-112908383D01*
X121269978Y-112980011D01*
X121389089Y-113029348D01*
X121515537Y-113054500D01*
X121515538Y-113054500D01*
X121644462Y-113054500D01*
X121644463Y-113054500D01*
X121770911Y-113029348D01*
X121890022Y-112980011D01*
X121997220Y-112908383D01*
X122088383Y-112817220D01*
X122160011Y-112710022D01*
X122209348Y-112590911D01*
X122234500Y-112464463D01*
X122234500Y-112335537D01*
X122209348Y-112209089D01*
X122160011Y-112089978D01*
X122088383Y-111982780D01*
X122088378Y-111982774D01*
X121997225Y-111891621D01*
X121997219Y-111891616D01*
X121961649Y-111867849D01*
X121890022Y-111819989D01*
X121770911Y-111770652D01*
X121644465Y-111745500D01*
X121644463Y-111745500D01*
X121515537Y-111745500D01*
X121515534Y-111745500D01*
X121389088Y-111770652D01*
X121389083Y-111770654D01*
X121269978Y-111819989D01*
X121162780Y-111891616D01*
X121162774Y-111891621D01*
X121071621Y-111982774D01*
X121071616Y-111982780D01*
X120999989Y-112089978D01*
X120950654Y-112209083D01*
X120950652Y-112209088D01*
X120925500Y-112335534D01*
X92968660Y-112335534D01*
X92984500Y-112276419D01*
X92984500Y-112143581D01*
X92950119Y-112015270D01*
X92883700Y-111900230D01*
X92883698Y-111900228D01*
X92883694Y-111900223D01*
X92789776Y-111806305D01*
X92789766Y-111806297D01*
X92674730Y-111739881D01*
X92546419Y-111705500D01*
X92413581Y-111705500D01*
X92328040Y-111728420D01*
X92285269Y-111739881D01*
X92170233Y-111806297D01*
X92170223Y-111806305D01*
X92076305Y-111900223D01*
X92076297Y-111900233D01*
X92009881Y-112015269D01*
X91975500Y-112143582D01*
X91975500Y-112276417D01*
X91975499Y-112276417D01*
X80954500Y-112276417D01*
X80954500Y-110995534D01*
X97485500Y-110995534D01*
X97485500Y-110995537D01*
X97485500Y-111124463D01*
X97510652Y-111250911D01*
X97559989Y-111370022D01*
X97607849Y-111441649D01*
X97631616Y-111477219D01*
X97631621Y-111477225D01*
X97722774Y-111568378D01*
X97722780Y-111568383D01*
X97829978Y-111640011D01*
X97949089Y-111689348D01*
X98075537Y-111714500D01*
X98075538Y-111714500D01*
X98204462Y-111714500D01*
X98204463Y-111714500D01*
X98330911Y-111689348D01*
X98450022Y-111640011D01*
X98557220Y-111568383D01*
X98648383Y-111477220D01*
X98720011Y-111370022D01*
X98769348Y-111250911D01*
X98774396Y-111225534D01*
X112815500Y-111225534D01*
X112815500Y-111354465D01*
X112818595Y-111370022D01*
X112840652Y-111480911D01*
X112889989Y-111600022D01*
X112916709Y-111640011D01*
X112961616Y-111707219D01*
X112961621Y-111707225D01*
X113052774Y-111798378D01*
X113052780Y-111798383D01*
X113159978Y-111870011D01*
X113279089Y-111919348D01*
X113405537Y-111944500D01*
X113405538Y-111944500D01*
X113534462Y-111944500D01*
X113534463Y-111944500D01*
X113660911Y-111919348D01*
X113780022Y-111870011D01*
X113887220Y-111798383D01*
X113978383Y-111707220D01*
X114050011Y-111600022D01*
X114099348Y-111480911D01*
X114124500Y-111354463D01*
X114124500Y-111225537D01*
X114099348Y-111099089D01*
X114050011Y-110979978D01*
X113978383Y-110872780D01*
X113978378Y-110872774D01*
X113887225Y-110781621D01*
X113887219Y-110781616D01*
X113839869Y-110749978D01*
X113780022Y-110709989D01*
X113660911Y-110660652D01*
X113534465Y-110635500D01*
X113534463Y-110635500D01*
X113405537Y-110635500D01*
X113405534Y-110635500D01*
X113279088Y-110660652D01*
X113279083Y-110660654D01*
X113159978Y-110709989D01*
X113052780Y-110781616D01*
X113052774Y-110781621D01*
X112961621Y-110872774D01*
X112961616Y-110872780D01*
X112889989Y-110979978D01*
X112840654Y-111099083D01*
X112840652Y-111099088D01*
X112815500Y-111225534D01*
X98774396Y-111225534D01*
X98794500Y-111124463D01*
X98794500Y-110995537D01*
X98769348Y-110869089D01*
X98720011Y-110749978D01*
X98648383Y-110642780D01*
X98648378Y-110642774D01*
X98557225Y-110551621D01*
X98557219Y-110551616D01*
X98521649Y-110527849D01*
X98450022Y-110479989D01*
X98330911Y-110430652D01*
X98204465Y-110405500D01*
X98204463Y-110405500D01*
X98075537Y-110405500D01*
X98075534Y-110405500D01*
X97949088Y-110430652D01*
X97949083Y-110430654D01*
X97829978Y-110479989D01*
X97722780Y-110551616D01*
X97722774Y-110551621D01*
X97631621Y-110642774D01*
X97631616Y-110642780D01*
X97559989Y-110749978D01*
X97510654Y-110869083D01*
X97510652Y-110869088D01*
X97485500Y-110995534D01*
X80954500Y-110995534D01*
X80954500Y-108855534D01*
X95945500Y-108855534D01*
X95945500Y-108984465D01*
X95956543Y-109039979D01*
X95970652Y-109110911D01*
X96019989Y-109230022D01*
X96049684Y-109274463D01*
X96091616Y-109337219D01*
X96091621Y-109337225D01*
X96182774Y-109428378D01*
X96182780Y-109428383D01*
X96289978Y-109500011D01*
X96409089Y-109549348D01*
X96535537Y-109574500D01*
X96535538Y-109574500D01*
X96664462Y-109574500D01*
X96664463Y-109574500D01*
X96790911Y-109549348D01*
X96910022Y-109500011D01*
X97017220Y-109428383D01*
X97108383Y-109337220D01*
X97180011Y-109230022D01*
X97215007Y-109145534D01*
X98705500Y-109145534D01*
X98705500Y-109274465D01*
X98724970Y-109372345D01*
X98730652Y-109400911D01*
X98779989Y-109520022D01*
X98816390Y-109574499D01*
X98851616Y-109627219D01*
X98851621Y-109627225D01*
X98942774Y-109718378D01*
X98942780Y-109718383D01*
X99049978Y-109790011D01*
X99169089Y-109839348D01*
X99295537Y-109864500D01*
X99295538Y-109864500D01*
X99424462Y-109864500D01*
X99424463Y-109864500D01*
X99550911Y-109839348D01*
X99670022Y-109790011D01*
X99777220Y-109718383D01*
X99868383Y-109627220D01*
X99940011Y-109520022D01*
X99989348Y-109400911D01*
X100012298Y-109285534D01*
X111735500Y-109285534D01*
X111735500Y-109414465D01*
X111756497Y-109520021D01*
X111760652Y-109540911D01*
X111809989Y-109660022D01*
X111833026Y-109694499D01*
X111881616Y-109767219D01*
X111881621Y-109767225D01*
X111972774Y-109858378D01*
X111972780Y-109858383D01*
X112079978Y-109930011D01*
X112199089Y-109979348D01*
X112325537Y-110004500D01*
X112325538Y-110004500D01*
X112454462Y-110004500D01*
X112454463Y-110004500D01*
X112580911Y-109979348D01*
X112700022Y-109930011D01*
X112807220Y-109858383D01*
X112898383Y-109767220D01*
X112970011Y-109660022D01*
X113019348Y-109540911D01*
X113044500Y-109414463D01*
X113044500Y-109285537D01*
X113019348Y-109159089D01*
X112970011Y-109039978D01*
X112926951Y-108975534D01*
X114605500Y-108975534D01*
X114605500Y-109104465D01*
X114630475Y-109230021D01*
X114630652Y-109230911D01*
X114679989Y-109350022D01*
X114723049Y-109414465D01*
X114751616Y-109457219D01*
X114751621Y-109457225D01*
X114842774Y-109548378D01*
X114842780Y-109548383D01*
X114949978Y-109620011D01*
X115069089Y-109669348D01*
X115195537Y-109694500D01*
X115195538Y-109694500D01*
X115324462Y-109694500D01*
X115324463Y-109694500D01*
X115450911Y-109669348D01*
X115570022Y-109620011D01*
X115677220Y-109548383D01*
X115768383Y-109457220D01*
X115840011Y-109350022D01*
X115889348Y-109230911D01*
X115914500Y-109104463D01*
X115914500Y-108975537D01*
X115889348Y-108849089D01*
X115840011Y-108729978D01*
X115768383Y-108622780D01*
X115768378Y-108622774D01*
X115677225Y-108531621D01*
X115677219Y-108531616D01*
X115628922Y-108499345D01*
X115570022Y-108459989D01*
X115513114Y-108436417D01*
X117815499Y-108436417D01*
X117849881Y-108564730D01*
X117916297Y-108679766D01*
X117916305Y-108679776D01*
X118010223Y-108773694D01*
X118010228Y-108773698D01*
X118010230Y-108773700D01*
X118125270Y-108840119D01*
X118253581Y-108874500D01*
X118253583Y-108874500D01*
X118386417Y-108874500D01*
X118386419Y-108874500D01*
X118514730Y-108840119D01*
X118629770Y-108773700D01*
X118723700Y-108679770D01*
X118724414Y-108678534D01*
X131642500Y-108678534D01*
X131642500Y-108807465D01*
X131655834Y-108874500D01*
X131667652Y-108933911D01*
X131716989Y-109053022D01*
X131755668Y-109110909D01*
X131788616Y-109160219D01*
X131788621Y-109160225D01*
X131879774Y-109251378D01*
X131879780Y-109251383D01*
X131986978Y-109323011D01*
X132106089Y-109372348D01*
X132232537Y-109397500D01*
X132232538Y-109397500D01*
X132361462Y-109397500D01*
X132361463Y-109397500D01*
X132487911Y-109372348D01*
X132607022Y-109323011D01*
X132714220Y-109251383D01*
X132805383Y-109160220D01*
X132877011Y-109053022D01*
X132926348Y-108933911D01*
X132951500Y-108807463D01*
X132951500Y-108678537D01*
X132926348Y-108552089D01*
X132877011Y-108432978D01*
X132805383Y-108325780D01*
X132805378Y-108325774D01*
X132714225Y-108234621D01*
X132714219Y-108234616D01*
X132632513Y-108180022D01*
X132607022Y-108162989D01*
X132487911Y-108113652D01*
X132479098Y-108111899D01*
X132361465Y-108088500D01*
X132361463Y-108088500D01*
X132232537Y-108088500D01*
X132232534Y-108088500D01*
X132106088Y-108113652D01*
X132106083Y-108113654D01*
X131986978Y-108162989D01*
X131879780Y-108234616D01*
X131879774Y-108234621D01*
X131788621Y-108325774D01*
X131788616Y-108325780D01*
X131716989Y-108432978D01*
X131667654Y-108552083D01*
X131667652Y-108552088D01*
X131642500Y-108678534D01*
X118724414Y-108678534D01*
X118790119Y-108564730D01*
X118824500Y-108436419D01*
X118824500Y-108303581D01*
X118790119Y-108175270D01*
X118723700Y-108060230D01*
X118723698Y-108060228D01*
X118723694Y-108060223D01*
X118629776Y-107966305D01*
X118629766Y-107966297D01*
X118514730Y-107899881D01*
X118386419Y-107865500D01*
X118253581Y-107865500D01*
X118168040Y-107888420D01*
X118125269Y-107899881D01*
X118010233Y-107966297D01*
X118010223Y-107966305D01*
X117916305Y-108060223D01*
X117916297Y-108060233D01*
X117849881Y-108175269D01*
X117833979Y-108234616D01*
X117818965Y-108290652D01*
X117815500Y-108303582D01*
X117815500Y-108436417D01*
X117815499Y-108436417D01*
X115513114Y-108436417D01*
X115453516Y-108411731D01*
X115453514Y-108411729D01*
X115450921Y-108410655D01*
X115450911Y-108410652D01*
X115324465Y-108385500D01*
X115324463Y-108385500D01*
X115195537Y-108385500D01*
X115195534Y-108385500D01*
X115069088Y-108410652D01*
X115069083Y-108410654D01*
X114949978Y-108459989D01*
X114842780Y-108531616D01*
X114842774Y-108531621D01*
X114751621Y-108622774D01*
X114751616Y-108622780D01*
X114679989Y-108729978D01*
X114630654Y-108849083D01*
X114630652Y-108849088D01*
X114605500Y-108975534D01*
X112926951Y-108975534D01*
X112898383Y-108932780D01*
X112898378Y-108932774D01*
X112807225Y-108841621D01*
X112807219Y-108841616D01*
X112756102Y-108807461D01*
X112700022Y-108769989D01*
X112580911Y-108720652D01*
X112454465Y-108695500D01*
X112454463Y-108695500D01*
X112325537Y-108695500D01*
X112325534Y-108695500D01*
X112199088Y-108720652D01*
X112199083Y-108720654D01*
X112079978Y-108769989D01*
X111972780Y-108841616D01*
X111972774Y-108841621D01*
X111881621Y-108932774D01*
X111881616Y-108932780D01*
X111809989Y-109039978D01*
X111760654Y-109159083D01*
X111760652Y-109159088D01*
X111735500Y-109285534D01*
X100012298Y-109285534D01*
X100014500Y-109274463D01*
X100014500Y-109145537D01*
X99989348Y-109019089D01*
X99940011Y-108899978D01*
X99868383Y-108792780D01*
X99868378Y-108792774D01*
X99777225Y-108701621D01*
X99777219Y-108701616D01*
X99741649Y-108677849D01*
X99670022Y-108629989D01*
X99550911Y-108580652D01*
X99424465Y-108555500D01*
X99424463Y-108555500D01*
X99295537Y-108555500D01*
X99295534Y-108555500D01*
X99169088Y-108580652D01*
X99169083Y-108580654D01*
X99049978Y-108629989D01*
X98942780Y-108701616D01*
X98942774Y-108701621D01*
X98851621Y-108792774D01*
X98851616Y-108792780D01*
X98779989Y-108899978D01*
X98730654Y-109019083D01*
X98730652Y-109019088D01*
X98705500Y-109145534D01*
X97215007Y-109145534D01*
X97229348Y-109110911D01*
X97254500Y-108984463D01*
X97254500Y-108855537D01*
X97229348Y-108729089D01*
X97180011Y-108609978D01*
X97108383Y-108502780D01*
X97108378Y-108502774D01*
X97017225Y-108411621D01*
X97017219Y-108411616D01*
X96967475Y-108378378D01*
X96910022Y-108339989D01*
X96790911Y-108290652D01*
X96664465Y-108265500D01*
X96664463Y-108265500D01*
X96535537Y-108265500D01*
X96535534Y-108265500D01*
X96409088Y-108290652D01*
X96409083Y-108290654D01*
X96289978Y-108339989D01*
X96182780Y-108411616D01*
X96182774Y-108411621D01*
X96091621Y-108502774D01*
X96091616Y-108502780D01*
X96019989Y-108609978D01*
X95970654Y-108729083D01*
X95970652Y-108729088D01*
X95945500Y-108855534D01*
X80954500Y-108855534D01*
X80954500Y-107392934D01*
X99899300Y-107392934D01*
X99899300Y-107521865D01*
X99914358Y-107597565D01*
X99924452Y-107648311D01*
X99973789Y-107767422D01*
X99999255Y-107805534D01*
X100045416Y-107874619D01*
X100045421Y-107874625D01*
X100136574Y-107965778D01*
X100136580Y-107965783D01*
X100243778Y-108037411D01*
X100362889Y-108086748D01*
X100489337Y-108111900D01*
X100489338Y-108111900D01*
X100618262Y-108111900D01*
X100618263Y-108111900D01*
X100744711Y-108086748D01*
X100863822Y-108037411D01*
X100971020Y-107965783D01*
X101062183Y-107874620D01*
X101108345Y-107805534D01*
X110375500Y-107805534D01*
X110375500Y-107934465D01*
X110400515Y-108060223D01*
X110400652Y-108060911D01*
X110449989Y-108180022D01*
X110486468Y-108234616D01*
X110521616Y-108287219D01*
X110521621Y-108287225D01*
X110612774Y-108378378D01*
X110612780Y-108378383D01*
X110719978Y-108450011D01*
X110839089Y-108499348D01*
X110965537Y-108524500D01*
X110965538Y-108524500D01*
X111094462Y-108524500D01*
X111094463Y-108524500D01*
X111220911Y-108499348D01*
X111340022Y-108450011D01*
X111447220Y-108378383D01*
X111538383Y-108287220D01*
X111610011Y-108180022D01*
X111659348Y-108060911D01*
X111684500Y-107934463D01*
X111684500Y-107805537D01*
X111659348Y-107679089D01*
X111610011Y-107559978D01*
X111607042Y-107555534D01*
X128035500Y-107555534D01*
X128035500Y-107684465D01*
X128059582Y-107805534D01*
X128060652Y-107810911D01*
X128109989Y-107930022D01*
X128134233Y-107966305D01*
X128181616Y-108037219D01*
X128181621Y-108037225D01*
X128272774Y-108128378D01*
X128272780Y-108128383D01*
X128379978Y-108200011D01*
X128499089Y-108249348D01*
X128625537Y-108274500D01*
X128625538Y-108274500D01*
X128754462Y-108274500D01*
X128754463Y-108274500D01*
X128880911Y-108249348D01*
X129000022Y-108200011D01*
X129107220Y-108128383D01*
X129198383Y-108037220D01*
X129270011Y-107930022D01*
X129319348Y-107810911D01*
X129344500Y-107684463D01*
X129344500Y-107555537D01*
X129319348Y-107429089D01*
X129270011Y-107309978D01*
X129198383Y-107202780D01*
X129198378Y-107202774D01*
X129107225Y-107111621D01*
X129107219Y-107111616D01*
X129071649Y-107087849D01*
X129000022Y-107039989D01*
X128880911Y-106990652D01*
X128754465Y-106965500D01*
X128754463Y-106965500D01*
X128625537Y-106965500D01*
X128625534Y-106965500D01*
X128499088Y-106990652D01*
X128499083Y-106990654D01*
X128379978Y-107039989D01*
X128272780Y-107111616D01*
X128272774Y-107111621D01*
X128181621Y-107202774D01*
X128181616Y-107202780D01*
X128109989Y-107309978D01*
X128060654Y-107429083D01*
X128060652Y-107429088D01*
X128035500Y-107555534D01*
X111607042Y-107555534D01*
X111538383Y-107452780D01*
X111538378Y-107452774D01*
X111447225Y-107361621D01*
X111447219Y-107361616D01*
X111369937Y-107309978D01*
X111340022Y-107289989D01*
X111220911Y-107240652D01*
X111094465Y-107215500D01*
X111094463Y-107215500D01*
X110965537Y-107215500D01*
X110965534Y-107215500D01*
X110839088Y-107240652D01*
X110839083Y-107240654D01*
X110719978Y-107289989D01*
X110612780Y-107361616D01*
X110612774Y-107361621D01*
X110521621Y-107452774D01*
X110521616Y-107452780D01*
X110449989Y-107559978D01*
X110400654Y-107679083D01*
X110400652Y-107679088D01*
X110375500Y-107805534D01*
X101108345Y-107805534D01*
X101133811Y-107767422D01*
X101183148Y-107648311D01*
X101208300Y-107521863D01*
X101208300Y-107392937D01*
X101183148Y-107266489D01*
X101133811Y-107147378D01*
X101062183Y-107040180D01*
X101062178Y-107040174D01*
X100971025Y-106949021D01*
X100971019Y-106949016D01*
X100935449Y-106925249D01*
X100863822Y-106877389D01*
X100744711Y-106828052D01*
X100618265Y-106802900D01*
X100618263Y-106802900D01*
X100489337Y-106802900D01*
X100489334Y-106802900D01*
X100362888Y-106828052D01*
X100362883Y-106828054D01*
X100243778Y-106877389D01*
X100136580Y-106949016D01*
X100136574Y-106949021D01*
X100045421Y-107040174D01*
X100045416Y-107040180D01*
X99973789Y-107147378D01*
X99924454Y-107266483D01*
X99924452Y-107266488D01*
X99899300Y-107392934D01*
X80954500Y-107392934D01*
X80954500Y-104514417D01*
X126723499Y-104514417D01*
X126757881Y-104642730D01*
X126824297Y-104757766D01*
X126824305Y-104757776D01*
X126918223Y-104851694D01*
X126918228Y-104851698D01*
X126918230Y-104851700D01*
X127033270Y-104918119D01*
X127161581Y-104952500D01*
X127161583Y-104952500D01*
X127294417Y-104952500D01*
X127294419Y-104952500D01*
X127422730Y-104918119D01*
X127537770Y-104851700D01*
X127631700Y-104757770D01*
X127698119Y-104642730D01*
X127732500Y-104514419D01*
X127732500Y-104381581D01*
X127698119Y-104253270D01*
X127631700Y-104138230D01*
X127631698Y-104138228D01*
X127631694Y-104138223D01*
X127537776Y-104044305D01*
X127537766Y-104044297D01*
X127422730Y-103977881D01*
X127294419Y-103943500D01*
X127161581Y-103943500D01*
X127076040Y-103966420D01*
X127033269Y-103977881D01*
X126918233Y-104044297D01*
X126918223Y-104044305D01*
X126824305Y-104138223D01*
X126824297Y-104138233D01*
X126757881Y-104253269D01*
X126723500Y-104381582D01*
X126723500Y-104514417D01*
X126723499Y-104514417D01*
X80954500Y-104514417D01*
X80954500Y-97110185D01*
X80974502Y-97042064D01*
X81028158Y-96995571D01*
X81080650Y-96984186D01*
X102337447Y-97010574D01*
X102405542Y-97030661D01*
X102451969Y-97084374D01*
X102461985Y-97154660D01*
X102432412Y-97219205D01*
X102372638Y-97257514D01*
X102361875Y-97260152D01*
X102351882Y-97262140D01*
X102309088Y-97270652D01*
X102309083Y-97270654D01*
X102189978Y-97319989D01*
X102082780Y-97391616D01*
X102082774Y-97391621D01*
X101991621Y-97482774D01*
X101991616Y-97482780D01*
X101919989Y-97589978D01*
X101870654Y-97709083D01*
X101870652Y-97709088D01*
X101845500Y-97835534D01*
X101845500Y-97964465D01*
X101866674Y-98070911D01*
X101870652Y-98090911D01*
X101919989Y-98210022D01*
X101956364Y-98264461D01*
X101991616Y-98317219D01*
X101991621Y-98317225D01*
X102035301Y-98360905D01*
X102069327Y-98423217D01*
X102064262Y-98494032D01*
X102035301Y-98539095D01*
X101991621Y-98582774D01*
X101991616Y-98582780D01*
X101919989Y-98689978D01*
X101870654Y-98809083D01*
X101870652Y-98809088D01*
X101845500Y-98935534D01*
X101845500Y-98935537D01*
X101845500Y-99064463D01*
X101870652Y-99190911D01*
X101919989Y-99310022D01*
X101947174Y-99350707D01*
X101991616Y-99417219D01*
X101991621Y-99417225D01*
X102035301Y-99460905D01*
X102069327Y-99523217D01*
X102064262Y-99594032D01*
X102035301Y-99639095D01*
X101991621Y-99682774D01*
X101991616Y-99682780D01*
X101919989Y-99789978D01*
X101870654Y-99909083D01*
X101870652Y-99909088D01*
X101845500Y-100035534D01*
X101845500Y-100164465D01*
X101870652Y-100290911D01*
X101870654Y-100290916D01*
X101875000Y-100301408D01*
X101919989Y-100410022D01*
X101956800Y-100465113D01*
X101991616Y-100517219D01*
X101991621Y-100517225D01*
X102085301Y-100610905D01*
X102119327Y-100673217D01*
X102114262Y-100744032D01*
X102085301Y-100789095D01*
X101991621Y-100882774D01*
X101991616Y-100882780D01*
X101919989Y-100989978D01*
X101870654Y-101109083D01*
X101870652Y-101109088D01*
X101845500Y-101235534D01*
X101845500Y-101364465D01*
X101855111Y-101412780D01*
X101870652Y-101490911D01*
X101919989Y-101610022D01*
X101954041Y-101660984D01*
X101991616Y-101717219D01*
X101991621Y-101717225D01*
X102035301Y-101760905D01*
X102069327Y-101823217D01*
X102064262Y-101894032D01*
X102035301Y-101939095D01*
X101991621Y-101982774D01*
X101991616Y-101982780D01*
X101919989Y-102089978D01*
X101870654Y-102209083D01*
X101870652Y-102209088D01*
X101845500Y-102335534D01*
X101845500Y-102464465D01*
X101869033Y-102582774D01*
X101870652Y-102590911D01*
X101919989Y-102710022D01*
X101957223Y-102765746D01*
X101991616Y-102817219D01*
X101991621Y-102817225D01*
X102082774Y-102908378D01*
X102082780Y-102908383D01*
X102189978Y-102980011D01*
X102309089Y-103029348D01*
X102435537Y-103054500D01*
X102435538Y-103054500D01*
X102564462Y-103054500D01*
X102564463Y-103054500D01*
X102690911Y-103029348D01*
X102810022Y-102980011D01*
X102917220Y-102908383D01*
X103008383Y-102817220D01*
X103020235Y-102799481D01*
X103074711Y-102753955D01*
X103145154Y-102745106D01*
X103209198Y-102775747D01*
X103229763Y-102799480D01*
X103241617Y-102817220D01*
X103241618Y-102817221D01*
X103241621Y-102817225D01*
X103332774Y-102908378D01*
X103332780Y-102908383D01*
X103439978Y-102980011D01*
X103559089Y-103029348D01*
X103685537Y-103054500D01*
X103685538Y-103054500D01*
X103814462Y-103054500D01*
X103814463Y-103054500D01*
X103940911Y-103029348D01*
X104060022Y-102980011D01*
X104167220Y-102908383D01*
X104258383Y-102817220D01*
X104330011Y-102710022D01*
X104379348Y-102590911D01*
X104404500Y-102464463D01*
X104404500Y-102335537D01*
X104379348Y-102209089D01*
X104330011Y-102089978D01*
X104258383Y-101982780D01*
X104258378Y-101982774D01*
X104214699Y-101939095D01*
X104212163Y-101934451D01*
X104207740Y-101931545D01*
X104195324Y-101903615D01*
X104180673Y-101876783D01*
X104181050Y-101871502D01*
X104178902Y-101866669D01*
X104183556Y-101836467D01*
X104185738Y-101805968D01*
X104189127Y-101800321D01*
X104189716Y-101796501D01*
X104201480Y-101779738D01*
X104209409Y-101766529D01*
X104211971Y-101763631D01*
X104258383Y-101717220D01*
X104274969Y-101692396D01*
X104280615Y-101686013D01*
X104303747Y-101671475D01*
X104324711Y-101653955D01*
X104333351Y-101652869D01*
X104340726Y-101648235D01*
X104368045Y-101648511D01*
X104395154Y-101645106D01*
X104403010Y-101648864D01*
X104411719Y-101648953D01*
X104434552Y-101663955D01*
X104459198Y-101675747D01*
X104468055Y-101685968D01*
X104471054Y-101687939D01*
X104472414Y-101690998D01*
X104479763Y-101699480D01*
X104491617Y-101717220D01*
X104491618Y-101717221D01*
X104491621Y-101717225D01*
X104582774Y-101808378D01*
X104582780Y-101808383D01*
X104689978Y-101880011D01*
X104809089Y-101929348D01*
X104935537Y-101954500D01*
X104935538Y-101954500D01*
X105064462Y-101954500D01*
X105064463Y-101954500D01*
X105190911Y-101929348D01*
X105310022Y-101880011D01*
X105417220Y-101808383D01*
X105508383Y-101717220D01*
X105520235Y-101699481D01*
X105574711Y-101653955D01*
X105645154Y-101645106D01*
X105709198Y-101675747D01*
X105729763Y-101699480D01*
X105741617Y-101717220D01*
X105741618Y-101717221D01*
X105741621Y-101717225D01*
X105832774Y-101808378D01*
X105832780Y-101808383D01*
X105939978Y-101880011D01*
X106059089Y-101929348D01*
X106185537Y-101954500D01*
X106185538Y-101954500D01*
X106314462Y-101954500D01*
X106314463Y-101954500D01*
X106440911Y-101929348D01*
X106560022Y-101880011D01*
X106667220Y-101808383D01*
X106758383Y-101717220D01*
X106770235Y-101699481D01*
X106789533Y-101683353D01*
X106805811Y-101664180D01*
X106816299Y-101660984D01*
X106824711Y-101653955D01*
X106849663Y-101650820D01*
X106873726Y-101643490D01*
X106884276Y-101646472D01*
X106895154Y-101645106D01*
X106917840Y-101655959D01*
X106942045Y-101662802D01*
X106951636Y-101672129D01*
X106959198Y-101675747D01*
X106969385Y-101686013D01*
X106975030Y-101692396D01*
X106991617Y-101717220D01*
X107038028Y-101763631D01*
X107040591Y-101766529D01*
X107054090Y-101795314D01*
X107069327Y-101823217D01*
X107069042Y-101827196D01*
X107070736Y-101830808D01*
X107066530Y-101862315D01*
X107064262Y-101894032D01*
X107061782Y-101897890D01*
X107061343Y-101901180D01*
X107054449Y-101909300D01*
X107035301Y-101939095D01*
X106991621Y-101982774D01*
X106991616Y-101982780D01*
X106919989Y-102089978D01*
X106870654Y-102209083D01*
X106870652Y-102209088D01*
X106845500Y-102335534D01*
X106845500Y-102464465D01*
X106869033Y-102582774D01*
X106870652Y-102590911D01*
X106919989Y-102710022D01*
X106957223Y-102765746D01*
X106991616Y-102817219D01*
X106991621Y-102817225D01*
X107082774Y-102908378D01*
X107082780Y-102908383D01*
X107189978Y-102980011D01*
X107309089Y-103029348D01*
X107435537Y-103054500D01*
X107435538Y-103054500D01*
X107564462Y-103054500D01*
X107564463Y-103054500D01*
X107690911Y-103029348D01*
X107810022Y-102980011D01*
X107917220Y-102908383D01*
X108008383Y-102817220D01*
X108026917Y-102789480D01*
X108081390Y-102743955D01*
X108151833Y-102735106D01*
X108215878Y-102765746D01*
X108236444Y-102789479D01*
X108241575Y-102797157D01*
X108241616Y-102797219D01*
X108241621Y-102797225D01*
X108332774Y-102888378D01*
X108332780Y-102888383D01*
X108439978Y-102960011D01*
X108559089Y-103009348D01*
X108685537Y-103034500D01*
X108685538Y-103034500D01*
X108814462Y-103034500D01*
X108814463Y-103034500D01*
X108940911Y-103009348D01*
X109060022Y-102960011D01*
X109167220Y-102888383D01*
X109258383Y-102797220D01*
X109330011Y-102690022D01*
X109379348Y-102570911D01*
X109404500Y-102444463D01*
X109404500Y-102315537D01*
X109379348Y-102189089D01*
X109330011Y-102069978D01*
X109258383Y-101962780D01*
X109258378Y-101962774D01*
X109214699Y-101919095D01*
X109180673Y-101856783D01*
X109185738Y-101785968D01*
X109214699Y-101740905D01*
X109258378Y-101697225D01*
X109258383Y-101697220D01*
X109330011Y-101590022D01*
X109379348Y-101470911D01*
X109404500Y-101344463D01*
X109404500Y-101215537D01*
X109379348Y-101089089D01*
X109330011Y-100969978D01*
X109258383Y-100862780D01*
X109258378Y-100862774D01*
X109164699Y-100769095D01*
X109130673Y-100706783D01*
X109135738Y-100635968D01*
X109164699Y-100590905D01*
X109258378Y-100497225D01*
X109258383Y-100497220D01*
X109330011Y-100390022D01*
X109379348Y-100270911D01*
X109404500Y-100144463D01*
X109404500Y-100015537D01*
X109379348Y-99889089D01*
X109357531Y-99836417D01*
X113265499Y-99836417D01*
X113299881Y-99964730D01*
X113366297Y-100079766D01*
X113366305Y-100079776D01*
X113376403Y-100089874D01*
X113410429Y-100152186D01*
X113405364Y-100223001D01*
X113396428Y-100241968D01*
X113359881Y-100305270D01*
X113325500Y-100433582D01*
X113325500Y-100566417D01*
X113325499Y-100566417D01*
X113359881Y-100694730D01*
X113426297Y-100809766D01*
X113426305Y-100809776D01*
X113520223Y-100903694D01*
X113520228Y-100903698D01*
X113520230Y-100903700D01*
X113635270Y-100970119D01*
X113763581Y-101004500D01*
X113763583Y-101004500D01*
X113896417Y-101004500D01*
X113896419Y-101004500D01*
X114024730Y-100970119D01*
X114139770Y-100903700D01*
X114233700Y-100809770D01*
X114300119Y-100694730D01*
X114334500Y-100566419D01*
X114334500Y-100433581D01*
X114300119Y-100305270D01*
X114294498Y-100295534D01*
X116435500Y-100295534D01*
X116435500Y-100424465D01*
X116449972Y-100497219D01*
X116460652Y-100550911D01*
X116509989Y-100670022D01*
X116543376Y-100719989D01*
X116581616Y-100777219D01*
X116581621Y-100777225D01*
X116672774Y-100868378D01*
X116672780Y-100868383D01*
X116779978Y-100940011D01*
X116793181Y-100945479D01*
X116848462Y-100990026D01*
X116870885Y-101057388D01*
X116853328Y-101126180D01*
X116814968Y-101166653D01*
X116702783Y-101241614D01*
X116702774Y-101241621D01*
X116611621Y-101332774D01*
X116611616Y-101332780D01*
X116539989Y-101439978D01*
X116490654Y-101559083D01*
X116490652Y-101559088D01*
X116465500Y-101685534D01*
X116465500Y-101814465D01*
X116488351Y-101929345D01*
X116490652Y-101940911D01*
X116539989Y-102060022D01*
X116587849Y-102131649D01*
X116611616Y-102167219D01*
X116611621Y-102167225D01*
X116702774Y-102258378D01*
X116702780Y-102258383D01*
X116809978Y-102330011D01*
X116929089Y-102379348D01*
X116963449Y-102386182D01*
X117026358Y-102419089D01*
X117061490Y-102480784D01*
X117057690Y-102551679D01*
X117043632Y-102579763D01*
X116969989Y-102689977D01*
X116920654Y-102809083D01*
X116920652Y-102809088D01*
X116895500Y-102935534D01*
X116895500Y-103064465D01*
X116905453Y-103114499D01*
X116920652Y-103190911D01*
X116969989Y-103310022D01*
X117017849Y-103381649D01*
X117041616Y-103417219D01*
X117041621Y-103417225D01*
X117132774Y-103508378D01*
X117132780Y-103508383D01*
X117239978Y-103580011D01*
X117359089Y-103629348D01*
X117485537Y-103654500D01*
X117485538Y-103654500D01*
X117614462Y-103654500D01*
X117614463Y-103654500D01*
X117740911Y-103629348D01*
X117860022Y-103580011D01*
X117967220Y-103508383D01*
X118058383Y-103417220D01*
X118130011Y-103310022D01*
X118179348Y-103190911D01*
X118204500Y-103064463D01*
X118204500Y-102935537D01*
X118190576Y-102865534D01*
X118625500Y-102865534D01*
X118625500Y-102994465D01*
X118644374Y-103089348D01*
X118650652Y-103120911D01*
X118699989Y-103240022D01*
X118746761Y-103310021D01*
X118771616Y-103347219D01*
X118771621Y-103347225D01*
X118862774Y-103438378D01*
X118862780Y-103438383D01*
X118969978Y-103510011D01*
X119089089Y-103559348D01*
X119215537Y-103584500D01*
X119215538Y-103584500D01*
X119344462Y-103584500D01*
X119344463Y-103584500D01*
X119470911Y-103559348D01*
X119590022Y-103510011D01*
X119697220Y-103438383D01*
X119788383Y-103347220D01*
X119860011Y-103240022D01*
X119909348Y-103120911D01*
X119934500Y-102994463D01*
X119934500Y-102865537D01*
X119909348Y-102739089D01*
X119860011Y-102619978D01*
X119788383Y-102512780D01*
X119788378Y-102512774D01*
X119697225Y-102421621D01*
X119697219Y-102421616D01*
X119658184Y-102395534D01*
X121985500Y-102395534D01*
X121985500Y-102524465D01*
X121994739Y-102570911D01*
X122010652Y-102650911D01*
X122059989Y-102770022D01*
X122103226Y-102834730D01*
X122131616Y-102877219D01*
X122131621Y-102877225D01*
X122222774Y-102968378D01*
X122222780Y-102968383D01*
X122329978Y-103040011D01*
X122449089Y-103089348D01*
X122575537Y-103114500D01*
X122575538Y-103114500D01*
X122704462Y-103114500D01*
X122704463Y-103114500D01*
X122830911Y-103089348D01*
X122950022Y-103040011D01*
X123057220Y-102968383D01*
X123148383Y-102877220D01*
X123220011Y-102770022D01*
X123246357Y-102706417D01*
X126015499Y-102706417D01*
X126049881Y-102834730D01*
X126116297Y-102949766D01*
X126116305Y-102949776D01*
X126210223Y-103043694D01*
X126210228Y-103043698D01*
X126210230Y-103043700D01*
X126325270Y-103110119D01*
X126453581Y-103144500D01*
X126453583Y-103144500D01*
X126586417Y-103144500D01*
X126586419Y-103144500D01*
X126714730Y-103110119D01*
X126829770Y-103043700D01*
X126923700Y-102949770D01*
X126990119Y-102834730D01*
X127024500Y-102706419D01*
X127024500Y-102573581D01*
X126990119Y-102445270D01*
X126928407Y-102338383D01*
X126923702Y-102330233D01*
X126923694Y-102330223D01*
X126829776Y-102236305D01*
X126829766Y-102236297D01*
X126714730Y-102169881D01*
X126704795Y-102167219D01*
X126586419Y-102135500D01*
X126453581Y-102135500D01*
X126399549Y-102149978D01*
X126325269Y-102169881D01*
X126210233Y-102236297D01*
X126210223Y-102236305D01*
X126116305Y-102330223D01*
X126116297Y-102330233D01*
X126049881Y-102445269D01*
X126037462Y-102491617D01*
X126016216Y-102570911D01*
X126015500Y-102573582D01*
X126015500Y-102706417D01*
X126015499Y-102706417D01*
X123246357Y-102706417D01*
X123269348Y-102650911D01*
X123294500Y-102524463D01*
X123294500Y-102395537D01*
X123269348Y-102269089D01*
X123220011Y-102149978D01*
X123148383Y-102042780D01*
X123148378Y-102042774D01*
X123057225Y-101951621D01*
X123057219Y-101951616D01*
X122950021Y-101879988D01*
X122950019Y-101879987D01*
X122939803Y-101875756D01*
X122830911Y-101830652D01*
X122827633Y-101830000D01*
X122704465Y-101805500D01*
X122704463Y-101805500D01*
X122575537Y-101805500D01*
X122575534Y-101805500D01*
X122449088Y-101830652D01*
X122449083Y-101830654D01*
X122329978Y-101879989D01*
X122222780Y-101951616D01*
X122222774Y-101951621D01*
X122131621Y-102042774D01*
X122131616Y-102042780D01*
X122059989Y-102149978D01*
X122010654Y-102269083D01*
X122010652Y-102269088D01*
X121985500Y-102395534D01*
X119658184Y-102395534D01*
X119610715Y-102363816D01*
X119590022Y-102349989D01*
X119470911Y-102300652D01*
X119344465Y-102275500D01*
X119344463Y-102275500D01*
X119215537Y-102275500D01*
X119215534Y-102275500D01*
X119089088Y-102300652D01*
X119089083Y-102300654D01*
X118969978Y-102349989D01*
X118862780Y-102421616D01*
X118862774Y-102421621D01*
X118771621Y-102512774D01*
X118771616Y-102512780D01*
X118699989Y-102619978D01*
X118650654Y-102739083D01*
X118650652Y-102739088D01*
X118625500Y-102865534D01*
X118190576Y-102865534D01*
X118179348Y-102809089D01*
X118130011Y-102689978D01*
X118058383Y-102582780D01*
X118058378Y-102582774D01*
X117967225Y-102491621D01*
X117967219Y-102491616D01*
X117926581Y-102464463D01*
X117860022Y-102419989D01*
X117740911Y-102370652D01*
X117740908Y-102370651D01*
X117740904Y-102370650D01*
X117706548Y-102363816D01*
X117643639Y-102330908D01*
X117608509Y-102269212D01*
X117612310Y-102198318D01*
X117626367Y-102170235D01*
X117628378Y-102167224D01*
X117628383Y-102167220D01*
X117700011Y-102060022D01*
X117749348Y-101940911D01*
X117774500Y-101814463D01*
X117774500Y-101765534D01*
X123945500Y-101765534D01*
X123945500Y-101894465D01*
X123956869Y-101951621D01*
X123970652Y-102020911D01*
X124019989Y-102140022D01*
X124059124Y-102198591D01*
X124091616Y-102247219D01*
X124091621Y-102247225D01*
X124182774Y-102338378D01*
X124182780Y-102338383D01*
X124289978Y-102410011D01*
X124409089Y-102459348D01*
X124535537Y-102484500D01*
X124535538Y-102484500D01*
X124664462Y-102484500D01*
X124664463Y-102484500D01*
X124790911Y-102459348D01*
X124910022Y-102410011D01*
X125017220Y-102338383D01*
X125108383Y-102247220D01*
X125180011Y-102140022D01*
X125229348Y-102020911D01*
X125254500Y-101894463D01*
X125254500Y-101765537D01*
X125229348Y-101639089D01*
X125180011Y-101519978D01*
X125108383Y-101412780D01*
X125108378Y-101412774D01*
X125017225Y-101321621D01*
X125017219Y-101321616D01*
X124981649Y-101297849D01*
X124910022Y-101249989D01*
X124790911Y-101200652D01*
X124664465Y-101175500D01*
X124664463Y-101175500D01*
X124535537Y-101175500D01*
X124535534Y-101175500D01*
X124409088Y-101200652D01*
X124409083Y-101200654D01*
X124289978Y-101249989D01*
X124182780Y-101321616D01*
X124182774Y-101321621D01*
X124091621Y-101412774D01*
X124091616Y-101412780D01*
X124019989Y-101519978D01*
X123970654Y-101639083D01*
X123970652Y-101639088D01*
X123945500Y-101765534D01*
X117774500Y-101765534D01*
X117774500Y-101685537D01*
X117749348Y-101559089D01*
X117700011Y-101439978D01*
X117628383Y-101332780D01*
X117628378Y-101332774D01*
X117537225Y-101241621D01*
X117537219Y-101241616D01*
X117475912Y-101200652D01*
X117430022Y-101169989D01*
X117416815Y-101164518D01*
X117361535Y-101119971D01*
X117339114Y-101052607D01*
X117356672Y-100983816D01*
X117395032Y-100943345D01*
X117405957Y-100936045D01*
X117507220Y-100868383D01*
X117598383Y-100777220D01*
X117670011Y-100670022D01*
X117719348Y-100550911D01*
X117744500Y-100424463D01*
X117744500Y-100295537D01*
X117719348Y-100169089D01*
X117670011Y-100049978D01*
X117598383Y-99942780D01*
X117598378Y-99942774D01*
X117507225Y-99851621D01*
X117507219Y-99851616D01*
X117414971Y-99789978D01*
X117400022Y-99779989D01*
X117280911Y-99730652D01*
X117154465Y-99705500D01*
X117154463Y-99705500D01*
X117025537Y-99705500D01*
X117025534Y-99705500D01*
X116899088Y-99730652D01*
X116899083Y-99730654D01*
X116779978Y-99779989D01*
X116672780Y-99851616D01*
X116672774Y-99851621D01*
X116581621Y-99942774D01*
X116581616Y-99942780D01*
X116509989Y-100049978D01*
X116460654Y-100169083D01*
X116460652Y-100169088D01*
X116435500Y-100295534D01*
X114294498Y-100295534D01*
X114233700Y-100190230D01*
X114211711Y-100168241D01*
X114203359Y-100153661D01*
X114198855Y-100134816D01*
X114189570Y-100117813D01*
X114190772Y-100100999D01*
X114186855Y-100084609D01*
X114193252Y-100066323D01*
X114194635Y-100046998D01*
X114203567Y-100028038D01*
X114240119Y-99964730D01*
X114274500Y-99836419D01*
X114274500Y-99703581D01*
X114240119Y-99575270D01*
X114173700Y-99460230D01*
X114173697Y-99460227D01*
X114168672Y-99453678D01*
X114170934Y-99451942D01*
X114143546Y-99401814D01*
X114148593Y-99330997D01*
X114177564Y-99285905D01*
X114203700Y-99259770D01*
X114270119Y-99144730D01*
X114304500Y-99016419D01*
X114304500Y-98883581D01*
X114270119Y-98755270D01*
X114203700Y-98640230D01*
X114203698Y-98640228D01*
X114203694Y-98640223D01*
X114109776Y-98546305D01*
X114109766Y-98546297D01*
X113994730Y-98479881D01*
X113963888Y-98471617D01*
X113866419Y-98445500D01*
X113733581Y-98445500D01*
X113648040Y-98468420D01*
X113605269Y-98479881D01*
X113490233Y-98546297D01*
X113490223Y-98546305D01*
X113396305Y-98640223D01*
X113396297Y-98640233D01*
X113329881Y-98755269D01*
X113295500Y-98883582D01*
X113295500Y-99016417D01*
X113295499Y-99016417D01*
X113329881Y-99144730D01*
X113396297Y-99259766D01*
X113401328Y-99266322D01*
X113399065Y-99268058D01*
X113426453Y-99318185D01*
X113421406Y-99389002D01*
X113392436Y-99434093D01*
X113366302Y-99460227D01*
X113366297Y-99460233D01*
X113299881Y-99575269D01*
X113265500Y-99703582D01*
X113265500Y-99836417D01*
X113265499Y-99836417D01*
X109357531Y-99836417D01*
X109330011Y-99769978D01*
X109258383Y-99662780D01*
X109209031Y-99613428D01*
X109204128Y-99607089D01*
X109193999Y-99581188D01*
X109180673Y-99556783D01*
X109181257Y-99548604D01*
X109178272Y-99540968D01*
X109183753Y-99513708D01*
X109185738Y-99485968D01*
X109190969Y-99477828D01*
X109192269Y-99471365D01*
X109200744Y-99462618D01*
X109214699Y-99440905D01*
X109258378Y-99397225D01*
X109258383Y-99397220D01*
X109330011Y-99290022D01*
X109379348Y-99170911D01*
X109404500Y-99044463D01*
X109404500Y-98915537D01*
X109379348Y-98789089D01*
X109330011Y-98669978D01*
X109258383Y-98562780D01*
X109258378Y-98562774D01*
X109214699Y-98519095D01*
X109180673Y-98456783D01*
X109185738Y-98385968D01*
X109214699Y-98340905D01*
X109258378Y-98297225D01*
X109258383Y-98297220D01*
X109330011Y-98190022D01*
X109352580Y-98135534D01*
X116335500Y-98135534D01*
X116335500Y-98264465D01*
X116345994Y-98317219D01*
X116360652Y-98390911D01*
X116409989Y-98510022D01*
X116434233Y-98546305D01*
X116481616Y-98617219D01*
X116481621Y-98617225D01*
X116572774Y-98708378D01*
X116572780Y-98708383D01*
X116679978Y-98780011D01*
X116799089Y-98829348D01*
X116925537Y-98854500D01*
X116925538Y-98854500D01*
X117054462Y-98854500D01*
X117054463Y-98854500D01*
X117180911Y-98829348D01*
X117300022Y-98780011D01*
X117407220Y-98708383D01*
X117498383Y-98617220D01*
X117570011Y-98510022D01*
X117619348Y-98390911D01*
X117644500Y-98264463D01*
X117644500Y-98135537D01*
X117619348Y-98009089D01*
X117570011Y-97889978D01*
X117498383Y-97782780D01*
X117498378Y-97782774D01*
X117407225Y-97691621D01*
X117407219Y-97691616D01*
X117371649Y-97667849D01*
X117300022Y-97619989D01*
X117180911Y-97570652D01*
X117177523Y-97569978D01*
X117054465Y-97545500D01*
X117054463Y-97545500D01*
X116925537Y-97545500D01*
X116925534Y-97545500D01*
X116799088Y-97570652D01*
X116799083Y-97570654D01*
X116679978Y-97619989D01*
X116572780Y-97691616D01*
X116572774Y-97691621D01*
X116481621Y-97782774D01*
X116481616Y-97782780D01*
X116409989Y-97889978D01*
X116360654Y-98009083D01*
X116360652Y-98009088D01*
X116335500Y-98135534D01*
X109352580Y-98135534D01*
X109379348Y-98070911D01*
X109404500Y-97944463D01*
X109404500Y-97815537D01*
X109379348Y-97689089D01*
X109330011Y-97569978D01*
X109258383Y-97462780D01*
X109258378Y-97462774D01*
X109167225Y-97371621D01*
X109167219Y-97371616D01*
X109131649Y-97347849D01*
X109060022Y-97299989D01*
X109009454Y-97279043D01*
X108966551Y-97261272D01*
X108911270Y-97216724D01*
X108888849Y-97149360D01*
X108906407Y-97080569D01*
X108958369Y-97032191D01*
X109014920Y-97018864D01*
X109930000Y-97020000D01*
X109945858Y-94778887D01*
X109945858Y-94778878D01*
X124059500Y-94778878D01*
X124059500Y-95041121D01*
X124093728Y-95301108D01*
X124093729Y-95301114D01*
X124093730Y-95301116D01*
X124161602Y-95554419D01*
X124261957Y-95796697D01*
X124261958Y-95796698D01*
X124261963Y-95796709D01*
X124393073Y-96023799D01*
X124393077Y-96023805D01*
X124552710Y-96231842D01*
X124552729Y-96231863D01*
X124738136Y-96417270D01*
X124738157Y-96417289D01*
X124946194Y-96576922D01*
X124946200Y-96576926D01*
X125173290Y-96708036D01*
X125173294Y-96708037D01*
X125173303Y-96708043D01*
X125415581Y-96808398D01*
X125668884Y-96876270D01*
X125668890Y-96876270D01*
X125668891Y-96876271D01*
X125693900Y-96879563D01*
X125928880Y-96910500D01*
X125928887Y-96910500D01*
X126191113Y-96910500D01*
X126191120Y-96910500D01*
X126451116Y-96876270D01*
X126704419Y-96808398D01*
X126946697Y-96708043D01*
X127173803Y-96576924D01*
X127381851Y-96417282D01*
X127567282Y-96231851D01*
X127726924Y-96023803D01*
X127858043Y-95796697D01*
X127958398Y-95554419D01*
X128026270Y-95301116D01*
X128060500Y-95041120D01*
X128060500Y-94778880D01*
X128026270Y-94518884D01*
X127958398Y-94265581D01*
X127858043Y-94023303D01*
X127858037Y-94023294D01*
X127858036Y-94023290D01*
X127726926Y-93796200D01*
X127726922Y-93796194D01*
X127567289Y-93588157D01*
X127567270Y-93588136D01*
X127381863Y-93402729D01*
X127381842Y-93402710D01*
X127173805Y-93243077D01*
X127173799Y-93243073D01*
X126946709Y-93111963D01*
X126946701Y-93111959D01*
X126946697Y-93111957D01*
X126704419Y-93011602D01*
X126451116Y-92943730D01*
X126451114Y-92943729D01*
X126451108Y-92943728D01*
X126191121Y-92909500D01*
X126191120Y-92909500D01*
X125928880Y-92909500D01*
X125928878Y-92909500D01*
X125668891Y-92943728D01*
X125415581Y-93011602D01*
X125173301Y-93111958D01*
X125173290Y-93111963D01*
X124946200Y-93243073D01*
X124946194Y-93243077D01*
X124738157Y-93402710D01*
X124738136Y-93402729D01*
X124552729Y-93588136D01*
X124552710Y-93588157D01*
X124393077Y-93796194D01*
X124393073Y-93796200D01*
X124261963Y-94023290D01*
X124261958Y-94023301D01*
X124261957Y-94023303D01*
X124161602Y-94265581D01*
X124093728Y-94518891D01*
X124059500Y-94778878D01*
X109945858Y-94778878D01*
X109945894Y-94773863D01*
X109982958Y-89535905D01*
X109986852Y-88985534D01*
X111245500Y-88985534D01*
X111245500Y-88985537D01*
X111245500Y-89114463D01*
X111270652Y-89240911D01*
X111319989Y-89360022D01*
X111347782Y-89401617D01*
X111391616Y-89467219D01*
X111391621Y-89467225D01*
X111460301Y-89535905D01*
X111494327Y-89598217D01*
X111489262Y-89669032D01*
X111460301Y-89714095D01*
X111391621Y-89782774D01*
X111391616Y-89782780D01*
X111319989Y-89889978D01*
X111270654Y-90009083D01*
X111270652Y-90009088D01*
X111245500Y-90135534D01*
X111245500Y-90135537D01*
X111245500Y-90264463D01*
X111270652Y-90390911D01*
X111319989Y-90510022D01*
X111356390Y-90564500D01*
X111391616Y-90617219D01*
X111391621Y-90617225D01*
X111485301Y-90710905D01*
X111519327Y-90773217D01*
X111514262Y-90844032D01*
X111485301Y-90889095D01*
X111391621Y-90982774D01*
X111391616Y-90982780D01*
X111319989Y-91089978D01*
X111270654Y-91209083D01*
X111270652Y-91209088D01*
X111245500Y-91335534D01*
X111245500Y-91335537D01*
X111245500Y-91464463D01*
X111270652Y-91590911D01*
X111319989Y-91710022D01*
X111367849Y-91781649D01*
X111391616Y-91817219D01*
X111391621Y-91817225D01*
X111482774Y-91908378D01*
X111482780Y-91908383D01*
X111589978Y-91980011D01*
X111709089Y-92029348D01*
X111835537Y-92054500D01*
X111835538Y-92054500D01*
X111964462Y-92054500D01*
X111964463Y-92054500D01*
X112090911Y-92029348D01*
X112210022Y-91980011D01*
X112317220Y-91908383D01*
X112408383Y-91817220D01*
X112480011Y-91710022D01*
X112529348Y-91590911D01*
X112554500Y-91464463D01*
X112554500Y-91335537D01*
X112529348Y-91209089D01*
X112480011Y-91089978D01*
X112408383Y-90982780D01*
X112408378Y-90982774D01*
X112314699Y-90889095D01*
X112280673Y-90826783D01*
X112285738Y-90755968D01*
X112314699Y-90710905D01*
X112408378Y-90617225D01*
X112408383Y-90617220D01*
X112480011Y-90510022D01*
X112529348Y-90390911D01*
X112554500Y-90264463D01*
X112554500Y-90135537D01*
X112529348Y-90009089D01*
X112480011Y-89889978D01*
X112408383Y-89782780D01*
X112408378Y-89782774D01*
X112339699Y-89714095D01*
X112305673Y-89651783D01*
X112310738Y-89580968D01*
X112339699Y-89535905D01*
X112408378Y-89467225D01*
X112408383Y-89467220D01*
X112480011Y-89360022D01*
X112529348Y-89240911D01*
X112554500Y-89114463D01*
X112554500Y-88985537D01*
X112529348Y-88859089D01*
X112480011Y-88739978D01*
X112408383Y-88632780D01*
X112408378Y-88632774D01*
X112317225Y-88541621D01*
X112317219Y-88541616D01*
X112281649Y-88517849D01*
X112210022Y-88469989D01*
X112090911Y-88420652D01*
X111964465Y-88395500D01*
X111964463Y-88395500D01*
X111835537Y-88395500D01*
X111835534Y-88395500D01*
X111709088Y-88420652D01*
X111709083Y-88420654D01*
X111589978Y-88469989D01*
X111482780Y-88541616D01*
X111482774Y-88541621D01*
X111391621Y-88632774D01*
X111391616Y-88632780D01*
X111319989Y-88739978D01*
X111270654Y-88859083D01*
X111270652Y-88859088D01*
X111245500Y-88985534D01*
X109986852Y-88985534D01*
X110014803Y-85035534D01*
X111195500Y-85035534D01*
X111195500Y-85164465D01*
X111203464Y-85204500D01*
X111220652Y-85290911D01*
X111269989Y-85410022D01*
X111269990Y-85410023D01*
X111341616Y-85517219D01*
X111341621Y-85517225D01*
X111432773Y-85608377D01*
X111436187Y-85611179D01*
X111476154Y-85669858D01*
X111478052Y-85740829D01*
X111461015Y-85778578D01*
X111419989Y-85839977D01*
X111370654Y-85959083D01*
X111370652Y-85959088D01*
X111345500Y-86085534D01*
X111345500Y-86085537D01*
X111345500Y-86214463D01*
X111370652Y-86340911D01*
X111419989Y-86460022D01*
X111448950Y-86503365D01*
X111491616Y-86567219D01*
X111491621Y-86567225D01*
X111573975Y-86649579D01*
X111608001Y-86711891D01*
X111602936Y-86782706D01*
X111560389Y-86839542D01*
X111554883Y-86843439D01*
X111482776Y-86891619D01*
X111391621Y-86982774D01*
X111391616Y-86982780D01*
X111319989Y-87089978D01*
X111270654Y-87209083D01*
X111270652Y-87209088D01*
X111245500Y-87335534D01*
X111245500Y-87335537D01*
X111245500Y-87464463D01*
X111270652Y-87590911D01*
X111319989Y-87710022D01*
X111367849Y-87781649D01*
X111391616Y-87817219D01*
X111391621Y-87817225D01*
X111482774Y-87908378D01*
X111482780Y-87908383D01*
X111589978Y-87980011D01*
X111709089Y-88029348D01*
X111835537Y-88054500D01*
X111835538Y-88054500D01*
X111964462Y-88054500D01*
X111964463Y-88054500D01*
X112090911Y-88029348D01*
X112210022Y-87980011D01*
X112317220Y-87908383D01*
X112408383Y-87817220D01*
X112480011Y-87710022D01*
X112529348Y-87590911D01*
X112554500Y-87464463D01*
X112554500Y-87335537D01*
X112529348Y-87209089D01*
X112480011Y-87089978D01*
X112408383Y-86982780D01*
X112408378Y-86982774D01*
X112326024Y-86900420D01*
X112291998Y-86838108D01*
X112297063Y-86767293D01*
X112339610Y-86710457D01*
X112345082Y-86706584D01*
X112417220Y-86658383D01*
X112508383Y-86567220D01*
X112580011Y-86460022D01*
X112629348Y-86340911D01*
X112654500Y-86214463D01*
X112654500Y-86085537D01*
X112629348Y-85959089D01*
X112580011Y-85839978D01*
X112508383Y-85732780D01*
X112508378Y-85732774D01*
X112417225Y-85641621D01*
X112413811Y-85638819D01*
X112373845Y-85580140D01*
X112371947Y-85509168D01*
X112388983Y-85471423D01*
X112430011Y-85410022D01*
X112479348Y-85290911D01*
X112504500Y-85164463D01*
X112504500Y-85035537D01*
X112479348Y-84909089D01*
X112430011Y-84789978D01*
X112358383Y-84682780D01*
X112358378Y-84682774D01*
X112267225Y-84591621D01*
X112267219Y-84591616D01*
X112231649Y-84567849D01*
X112160022Y-84519989D01*
X112040911Y-84470652D01*
X111914465Y-84445500D01*
X111914463Y-84445500D01*
X111785537Y-84445500D01*
X111785534Y-84445500D01*
X111659088Y-84470652D01*
X111659083Y-84470654D01*
X111539978Y-84519989D01*
X111432780Y-84591616D01*
X111432774Y-84591621D01*
X111341621Y-84682774D01*
X111341616Y-84682780D01*
X111269989Y-84789978D01*
X111220654Y-84909083D01*
X111220652Y-84909088D01*
X111195500Y-85035534D01*
X110014803Y-85035534D01*
X110019472Y-84375685D01*
X127265500Y-84375685D01*
X127265500Y-84524314D01*
X127294495Y-84670080D01*
X127351371Y-84807390D01*
X127433941Y-84930966D01*
X127433942Y-84930967D01*
X127433947Y-84930973D01*
X127539026Y-85036052D01*
X127539032Y-85036057D01*
X127539034Y-85036059D01*
X127662610Y-85118629D01*
X127799920Y-85175505D01*
X127945688Y-85204500D01*
X127945689Y-85204500D01*
X128094311Y-85204500D01*
X128094312Y-85204500D01*
X128240080Y-85175505D01*
X128377390Y-85118629D01*
X128500966Y-85036059D01*
X128606059Y-84930966D01*
X128688629Y-84807390D01*
X128745505Y-84670080D01*
X128774500Y-84524312D01*
X128774500Y-84375688D01*
X128745505Y-84229920D01*
X128688629Y-84092610D01*
X128606059Y-83969034D01*
X128606057Y-83969032D01*
X128606052Y-83969026D01*
X128500973Y-83863947D01*
X128500967Y-83863942D01*
X128486836Y-83854500D01*
X128377390Y-83781371D01*
X128240080Y-83724495D01*
X128094314Y-83695500D01*
X128094312Y-83695500D01*
X127945688Y-83695500D01*
X127945685Y-83695500D01*
X127799919Y-83724495D01*
X127799914Y-83724497D01*
X127662610Y-83781371D01*
X127539032Y-83863942D01*
X127539026Y-83863947D01*
X127433947Y-83969026D01*
X127433942Y-83969032D01*
X127351371Y-84092610D01*
X127294497Y-84229914D01*
X127294495Y-84229919D01*
X127265500Y-84375685D01*
X110019472Y-84375685D01*
X110029663Y-82935534D01*
X111205500Y-82935534D01*
X111205500Y-83064465D01*
X111227433Y-83174730D01*
X111230652Y-83190911D01*
X111279989Y-83310022D01*
X111327849Y-83381649D01*
X111351616Y-83417219D01*
X111351621Y-83417225D01*
X111442774Y-83508378D01*
X111442780Y-83508383D01*
X111549978Y-83580011D01*
X111669089Y-83629348D01*
X111795537Y-83654500D01*
X111795538Y-83654500D01*
X111924462Y-83654500D01*
X111924463Y-83654500D01*
X112050911Y-83629348D01*
X112170022Y-83580011D01*
X112277220Y-83508383D01*
X112368383Y-83417220D01*
X112440011Y-83310022D01*
X112489348Y-83190911D01*
X112514500Y-83064463D01*
X112514500Y-82935537D01*
X112489348Y-82809089D01*
X112440011Y-82689978D01*
X112368383Y-82582780D01*
X112368378Y-82582774D01*
X112277225Y-82491621D01*
X112277219Y-82491616D01*
X112183262Y-82428836D01*
X112170022Y-82419989D01*
X112050911Y-82370652D01*
X111924465Y-82345500D01*
X111924463Y-82345500D01*
X111795537Y-82345500D01*
X111795534Y-82345500D01*
X111669088Y-82370652D01*
X111669083Y-82370654D01*
X111549978Y-82419989D01*
X111442780Y-82491616D01*
X111442774Y-82491621D01*
X111351621Y-82582774D01*
X111351616Y-82582780D01*
X111279989Y-82689978D01*
X111230654Y-82809083D01*
X111230652Y-82809088D01*
X111205500Y-82935534D01*
X110029663Y-82935534D01*
X110061145Y-78486417D01*
X115075499Y-78486417D01*
X115109881Y-78614730D01*
X115176297Y-78729766D01*
X115176305Y-78729776D01*
X115270223Y-78823694D01*
X115270228Y-78823698D01*
X115270230Y-78823700D01*
X115385270Y-78890119D01*
X115513581Y-78924500D01*
X115513583Y-78924500D01*
X115646418Y-78924500D01*
X115646419Y-78924500D01*
X115757208Y-78894814D01*
X115828184Y-78896503D01*
X115886980Y-78936296D01*
X115914928Y-79001561D01*
X115911526Y-79049131D01*
X115875500Y-79183582D01*
X115875500Y-79316417D01*
X115875499Y-79316417D01*
X115909881Y-79444730D01*
X115976297Y-79559766D01*
X115976305Y-79559776D01*
X116070223Y-79653694D01*
X116070228Y-79653698D01*
X116070230Y-79653700D01*
X116070231Y-79653701D01*
X116070233Y-79653702D01*
X116114865Y-79679470D01*
X116185270Y-79720119D01*
X116313581Y-79754500D01*
X116313583Y-79754500D01*
X116446417Y-79754500D01*
X116446419Y-79754500D01*
X116574730Y-79720119D01*
X116689770Y-79653700D01*
X116783700Y-79559770D01*
X116850119Y-79444730D01*
X116884500Y-79316419D01*
X116884500Y-79183581D01*
X116850119Y-79055270D01*
X116783700Y-78940230D01*
X116783698Y-78940228D01*
X116783694Y-78940223D01*
X116689776Y-78846305D01*
X116689766Y-78846297D01*
X116574730Y-78779881D01*
X116550901Y-78773496D01*
X116446419Y-78745500D01*
X116313581Y-78745500D01*
X116255002Y-78761196D01*
X116202791Y-78775186D01*
X116131814Y-78773496D01*
X116073019Y-78733702D01*
X116045071Y-78668437D01*
X116048474Y-78620867D01*
X116050117Y-78614731D01*
X116050119Y-78614730D01*
X116084500Y-78486419D01*
X116084500Y-78353581D01*
X116050119Y-78225270D01*
X115983700Y-78110230D01*
X115983698Y-78110228D01*
X115983694Y-78110223D01*
X115889776Y-78016305D01*
X115889766Y-78016297D01*
X115774730Y-77949881D01*
X115646419Y-77915500D01*
X115513581Y-77915500D01*
X115428040Y-77938420D01*
X115385269Y-77949881D01*
X115270233Y-78016297D01*
X115270223Y-78016305D01*
X115176305Y-78110223D01*
X115176297Y-78110233D01*
X115109881Y-78225269D01*
X115075500Y-78353582D01*
X115075500Y-78486417D01*
X115075499Y-78486417D01*
X110061145Y-78486417D01*
X110115210Y-70845685D01*
X115785500Y-70845685D01*
X115785500Y-70994314D01*
X115813348Y-71134314D01*
X115814495Y-71140080D01*
X115871371Y-71277390D01*
X115950089Y-71395201D01*
X115953942Y-71400967D01*
X115953947Y-71400973D01*
X116059026Y-71506052D01*
X116059031Y-71506056D01*
X116059034Y-71506059D01*
X116182610Y-71588629D01*
X116319920Y-71645505D01*
X116465688Y-71674500D01*
X116465689Y-71674500D01*
X116614311Y-71674500D01*
X116614312Y-71674500D01*
X116760080Y-71645505D01*
X116897390Y-71588629D01*
X117020966Y-71506059D01*
X117124103Y-71402921D01*
X117186413Y-71368898D01*
X117257229Y-71373962D01*
X117314065Y-71416509D01*
X117317943Y-71421990D01*
X117323941Y-71430966D01*
X117323942Y-71430967D01*
X117323943Y-71430968D01*
X117323947Y-71430973D01*
X117429026Y-71536052D01*
X117429032Y-71536057D01*
X117429034Y-71536059D01*
X117552610Y-71618629D01*
X117689920Y-71675505D01*
X117835688Y-71704500D01*
X117835689Y-71704500D01*
X117984311Y-71704500D01*
X117984312Y-71704500D01*
X118130080Y-71675505D01*
X118267390Y-71618629D01*
X118390966Y-71536059D01*
X118496059Y-71430966D01*
X118578629Y-71307390D01*
X118578630Y-71307385D01*
X118581548Y-71301929D01*
X118583827Y-71303147D01*
X118621237Y-71256651D01*
X118688582Y-71234177D01*
X118757388Y-71251681D01*
X118797944Y-71290091D01*
X118865309Y-71390911D01*
X118868176Y-71395201D01*
X118868181Y-71395207D01*
X118973260Y-71500286D01*
X118973266Y-71500291D01*
X118973268Y-71500293D01*
X119096844Y-71582863D01*
X119234154Y-71639739D01*
X119379922Y-71668734D01*
X119379923Y-71668734D01*
X119528545Y-71668734D01*
X119528546Y-71668734D01*
X119674314Y-71639739D01*
X119811624Y-71582863D01*
X119935200Y-71500293D01*
X120040293Y-71395200D01*
X120122863Y-71271624D01*
X120179739Y-71134314D01*
X120208734Y-70988546D01*
X120208734Y-70839922D01*
X120179739Y-70694154D01*
X120122863Y-70556844D01*
X120040293Y-70433268D01*
X120040291Y-70433266D01*
X120040286Y-70433260D01*
X119935207Y-70328181D01*
X119935201Y-70328176D01*
X119935200Y-70328175D01*
X119811624Y-70245605D01*
X119674314Y-70188729D01*
X119658267Y-70185537D01*
X119528548Y-70159734D01*
X119528546Y-70159734D01*
X119379922Y-70159734D01*
X119379919Y-70159734D01*
X119234153Y-70188729D01*
X119234148Y-70188731D01*
X119096844Y-70245605D01*
X118973266Y-70328176D01*
X118973260Y-70328181D01*
X118868181Y-70433260D01*
X118868176Y-70433266D01*
X118785604Y-70556844D01*
X118782686Y-70562305D01*
X118780426Y-70561097D01*
X118742895Y-70607653D01*
X118675527Y-70630061D01*
X118606739Y-70612490D01*
X118566289Y-70574142D01*
X118557573Y-70561097D01*
X118496059Y-70469034D01*
X118496057Y-70469032D01*
X118496052Y-70469026D01*
X118390973Y-70363947D01*
X118390967Y-70363942D01*
X118346076Y-70333947D01*
X118267390Y-70281371D01*
X118130080Y-70224495D01*
X117984314Y-70195500D01*
X117984312Y-70195500D01*
X117835688Y-70195500D01*
X117835685Y-70195500D01*
X117689919Y-70224495D01*
X117689914Y-70224497D01*
X117552610Y-70281371D01*
X117429032Y-70363942D01*
X117325897Y-70467077D01*
X117263585Y-70501102D01*
X117192769Y-70496036D01*
X117135933Y-70453490D01*
X117132071Y-70448032D01*
X117126059Y-70439034D01*
X117126054Y-70439029D01*
X117126052Y-70439026D01*
X117020973Y-70333947D01*
X117020967Y-70333942D01*
X117012345Y-70328181D01*
X116897390Y-70251371D01*
X116760080Y-70194495D01*
X116614314Y-70165500D01*
X116614312Y-70165500D01*
X116465688Y-70165500D01*
X116465685Y-70165500D01*
X116319919Y-70194495D01*
X116319914Y-70194497D01*
X116182610Y-70251371D01*
X116059032Y-70333942D01*
X116059026Y-70333947D01*
X115953947Y-70439026D01*
X115953942Y-70439032D01*
X115871371Y-70562610D01*
X115814497Y-70699914D01*
X115814495Y-70699919D01*
X115785500Y-70845685D01*
X110115210Y-70845685D01*
X110124191Y-69576417D01*
X120345499Y-69576417D01*
X120379881Y-69704730D01*
X120446297Y-69819766D01*
X120446305Y-69819776D01*
X120540223Y-69913694D01*
X120540228Y-69913698D01*
X120540230Y-69913700D01*
X120540231Y-69913701D01*
X120540233Y-69913702D01*
X120584865Y-69939470D01*
X120655270Y-69980119D01*
X120783581Y-70014500D01*
X120783583Y-70014500D01*
X120846317Y-70014500D01*
X120914438Y-70034502D01*
X120960931Y-70088158D01*
X120972317Y-70140500D01*
X120972317Y-70236417D01*
X120972316Y-70236417D01*
X121006698Y-70364730D01*
X121073114Y-70479766D01*
X121073122Y-70479776D01*
X121167040Y-70573694D01*
X121167045Y-70573698D01*
X121167047Y-70573700D01*
X121167048Y-70573701D01*
X121167050Y-70573702D01*
X121199800Y-70592610D01*
X121282087Y-70640119D01*
X121410398Y-70674500D01*
X121410400Y-70674500D01*
X121476559Y-70674500D01*
X121544680Y-70694502D01*
X121591173Y-70748158D01*
X121601277Y-70818432D01*
X121598266Y-70833110D01*
X121596800Y-70838580D01*
X121596800Y-70971417D01*
X121596799Y-70971417D01*
X121631181Y-71099730D01*
X121697597Y-71214766D01*
X121697605Y-71214776D01*
X121791523Y-71308694D01*
X121791528Y-71308698D01*
X121791530Y-71308700D01*
X121906570Y-71375119D01*
X122034881Y-71409500D01*
X122034883Y-71409500D01*
X122167717Y-71409500D01*
X122167719Y-71409500D01*
X122296030Y-71375119D01*
X122411070Y-71308700D01*
X122505000Y-71214770D01*
X122571419Y-71099730D01*
X122605800Y-70971419D01*
X122605800Y-70838581D01*
X122571419Y-70710270D01*
X122514965Y-70612490D01*
X122505002Y-70595233D01*
X122504994Y-70595223D01*
X122411076Y-70501305D01*
X122411066Y-70501297D01*
X122296030Y-70434881D01*
X122289980Y-70433260D01*
X122167719Y-70400500D01*
X122101558Y-70400500D01*
X122033437Y-70380498D01*
X121986944Y-70326842D01*
X121976840Y-70256568D01*
X121979851Y-70241890D01*
X121981317Y-70236419D01*
X121981317Y-70103581D01*
X121946936Y-69975270D01*
X121880517Y-69860230D01*
X121880515Y-69860228D01*
X121880511Y-69860223D01*
X121786593Y-69766305D01*
X121786583Y-69766297D01*
X121671547Y-69699881D01*
X121543236Y-69665500D01*
X121480500Y-69665500D01*
X121412379Y-69645498D01*
X121365886Y-69591842D01*
X121354500Y-69539500D01*
X121354500Y-69443582D01*
X121354500Y-69443581D01*
X121320119Y-69315270D01*
X121253700Y-69200230D01*
X121253698Y-69200228D01*
X121253694Y-69200223D01*
X121159776Y-69106305D01*
X121159766Y-69106297D01*
X121044730Y-69039881D01*
X120916419Y-69005500D01*
X120783581Y-69005500D01*
X120698040Y-69028420D01*
X120655269Y-69039881D01*
X120540233Y-69106297D01*
X120540223Y-69106305D01*
X120446305Y-69200223D01*
X120446297Y-69200233D01*
X120379881Y-69315269D01*
X120379881Y-69315270D01*
X120346216Y-69440911D01*
X120345500Y-69443582D01*
X120345500Y-69576417D01*
X120345499Y-69576417D01*
X110124191Y-69576417D01*
X110142337Y-67012017D01*
X120739899Y-67012017D01*
X120774281Y-67140330D01*
X120840697Y-67255366D01*
X120840705Y-67255376D01*
X120934623Y-67349294D01*
X120934628Y-67349298D01*
X120934630Y-67349300D01*
X121049670Y-67415719D01*
X121177981Y-67450100D01*
X121177983Y-67450100D01*
X121310817Y-67450100D01*
X121310819Y-67450100D01*
X121439130Y-67415719D01*
X121554170Y-67349300D01*
X121648100Y-67255370D01*
X121714519Y-67140330D01*
X121748900Y-67012019D01*
X121748900Y-66879181D01*
X121714519Y-66750870D01*
X121648100Y-66635830D01*
X121648098Y-66635828D01*
X121648094Y-66635823D01*
X121554176Y-66541905D01*
X121554166Y-66541897D01*
X121439130Y-66475481D01*
X121310819Y-66441100D01*
X121177981Y-66441100D01*
X121092440Y-66464020D01*
X121049669Y-66475481D01*
X120934633Y-66541897D01*
X120934623Y-66541905D01*
X120840705Y-66635823D01*
X120840697Y-66635833D01*
X120774281Y-66750869D01*
X120739900Y-66879182D01*
X120739900Y-67012017D01*
X120739899Y-67012017D01*
X110142337Y-67012017D01*
X110150379Y-65875534D01*
X124945500Y-65875534D01*
X124945500Y-66004465D01*
X124956551Y-66060022D01*
X124970652Y-66130911D01*
X125019989Y-66250022D01*
X125067849Y-66321649D01*
X125091616Y-66357219D01*
X125091621Y-66357225D01*
X125182774Y-66448378D01*
X125182780Y-66448383D01*
X125289978Y-66520011D01*
X125409089Y-66569348D01*
X125535537Y-66594500D01*
X125535538Y-66594500D01*
X125664462Y-66594500D01*
X125664463Y-66594500D01*
X125790911Y-66569348D01*
X125910022Y-66520011D01*
X126017220Y-66448383D01*
X126108383Y-66357220D01*
X126180011Y-66250022D01*
X126229348Y-66130911D01*
X126254500Y-66004463D01*
X126254500Y-65875537D01*
X126229348Y-65749089D01*
X126180011Y-65629978D01*
X126108383Y-65522780D01*
X126108378Y-65522774D01*
X126017225Y-65431621D01*
X126017219Y-65431616D01*
X125981649Y-65407849D01*
X125910022Y-65359989D01*
X125790911Y-65310652D01*
X125664465Y-65285500D01*
X125664463Y-65285500D01*
X125535537Y-65285500D01*
X125535534Y-65285500D01*
X125409088Y-65310652D01*
X125409083Y-65310654D01*
X125289978Y-65359989D01*
X125182780Y-65431616D01*
X125182774Y-65431621D01*
X125091621Y-65522774D01*
X125091616Y-65522780D01*
X125019989Y-65629978D01*
X124970654Y-65749083D01*
X124970652Y-65749088D01*
X124945500Y-65875534D01*
X110150379Y-65875534D01*
X110180201Y-61660931D01*
X110189788Y-61613615D01*
X110233085Y-61509089D01*
X110245893Y-61478168D01*
X110245894Y-61478163D01*
X110245897Y-61478157D01*
X110284500Y-61284090D01*
X110284500Y-61185534D01*
X111857500Y-61185534D01*
X111857500Y-61314465D01*
X111872521Y-61389978D01*
X111882652Y-61440911D01*
X111931989Y-61560022D01*
X111955207Y-61594770D01*
X112003616Y-61667219D01*
X112003621Y-61667225D01*
X112094774Y-61758378D01*
X112094780Y-61758383D01*
X112201978Y-61830011D01*
X112321089Y-61879348D01*
X112447537Y-61904500D01*
X112447538Y-61904500D01*
X112576462Y-61904500D01*
X112576463Y-61904500D01*
X112702911Y-61879348D01*
X112822022Y-61830011D01*
X112929220Y-61758383D01*
X113020383Y-61667220D01*
X113092011Y-61560022D01*
X113141348Y-61440911D01*
X113159149Y-61351417D01*
X122600499Y-61351417D01*
X122634881Y-61479730D01*
X122701297Y-61594766D01*
X122701305Y-61594776D01*
X122795223Y-61688694D01*
X122795228Y-61688698D01*
X122795230Y-61688700D01*
X122795231Y-61688701D01*
X122795233Y-61688702D01*
X122839865Y-61714470D01*
X122910270Y-61755119D01*
X123038581Y-61789500D01*
X123038583Y-61789500D01*
X123171417Y-61789500D01*
X123171419Y-61789500D01*
X123299730Y-61755119D01*
X123414770Y-61688700D01*
X123508700Y-61594770D01*
X123575119Y-61479730D01*
X123609500Y-61351419D01*
X123609500Y-61218581D01*
X123575119Y-61090270D01*
X123534470Y-61019865D01*
X123508702Y-60975233D01*
X123508694Y-60975223D01*
X123414776Y-60881305D01*
X123414766Y-60881297D01*
X123299730Y-60814881D01*
X123171419Y-60780500D01*
X123038581Y-60780500D01*
X122982601Y-60795500D01*
X122910269Y-60814881D01*
X122795233Y-60881297D01*
X122795223Y-60881305D01*
X122701305Y-60975223D01*
X122701297Y-60975233D01*
X122634881Y-61090269D01*
X122600500Y-61218582D01*
X122600500Y-61351417D01*
X122600499Y-61351417D01*
X113159149Y-61351417D01*
X113166500Y-61314463D01*
X113166500Y-61185537D01*
X113141348Y-61059089D01*
X113092011Y-60939978D01*
X113020383Y-60832780D01*
X113020378Y-60832774D01*
X112929225Y-60741621D01*
X112929219Y-60741616D01*
X112855876Y-60692610D01*
X112822022Y-60669989D01*
X112702911Y-60620652D01*
X112685657Y-60617220D01*
X112576465Y-60595500D01*
X112576463Y-60595500D01*
X112447537Y-60595500D01*
X112447534Y-60595500D01*
X112321088Y-60620652D01*
X112321083Y-60620654D01*
X112201978Y-60669989D01*
X112094780Y-60741616D01*
X112094774Y-60741621D01*
X112003621Y-60832774D01*
X112003616Y-60832780D01*
X111931989Y-60939978D01*
X111882654Y-61059083D01*
X111882652Y-61059088D01*
X111857500Y-61185534D01*
X110284500Y-61185534D01*
X110284500Y-61086220D01*
X110245897Y-60892153D01*
X110245895Y-60892149D01*
X110245893Y-60892141D01*
X110196422Y-60772710D01*
X110186834Y-60723604D01*
X110193395Y-59796417D01*
X122535499Y-59796417D01*
X122569881Y-59924730D01*
X122636297Y-60039766D01*
X122636305Y-60039776D01*
X122730223Y-60133694D01*
X122730228Y-60133698D01*
X122730230Y-60133700D01*
X122730231Y-60133701D01*
X122730233Y-60133702D01*
X122774865Y-60159470D01*
X122845270Y-60200119D01*
X122973581Y-60234500D01*
X122973583Y-60234500D01*
X123106417Y-60234500D01*
X123106419Y-60234500D01*
X123234730Y-60200119D01*
X123349770Y-60133700D01*
X123443700Y-60039770D01*
X123510119Y-59924730D01*
X123544500Y-59796419D01*
X123544500Y-59663581D01*
X123510119Y-59535270D01*
X123443700Y-59420230D01*
X123443698Y-59420228D01*
X123443694Y-59420223D01*
X123349776Y-59326305D01*
X123349766Y-59326297D01*
X123234730Y-59259881D01*
X123106419Y-59225500D01*
X122973581Y-59225500D01*
X122888040Y-59248420D01*
X122845269Y-59259881D01*
X122730233Y-59326297D01*
X122730223Y-59326305D01*
X122636305Y-59420223D01*
X122636297Y-59420233D01*
X122569881Y-59535269D01*
X122569881Y-59535270D01*
X122547181Y-59619989D01*
X122535500Y-59663582D01*
X122535500Y-59796417D01*
X122535499Y-59796417D01*
X110193395Y-59796417D01*
X110201348Y-58672539D01*
X124844200Y-58672539D01*
X124844200Y-58819460D01*
X124864671Y-58922374D01*
X124872860Y-58963542D01*
X124929080Y-59099269D01*
X124983615Y-59180887D01*
X125010698Y-59221419D01*
X125010703Y-59221425D01*
X125114574Y-59325296D01*
X125114580Y-59325301D01*
X125236731Y-59406920D01*
X125372458Y-59463140D01*
X125496521Y-59487817D01*
X125516539Y-59491799D01*
X125516542Y-59491799D01*
X125516545Y-59491800D01*
X125516546Y-59491800D01*
X125663454Y-59491800D01*
X125663455Y-59491800D01*
X125807542Y-59463140D01*
X125943269Y-59406920D01*
X126065420Y-59325301D01*
X126169301Y-59221420D01*
X126250920Y-59099269D01*
X126307140Y-58963542D01*
X126335800Y-58819455D01*
X126335800Y-58672545D01*
X126307140Y-58528458D01*
X126250920Y-58392731D01*
X126169301Y-58270580D01*
X126169296Y-58270574D01*
X126065425Y-58166703D01*
X126065419Y-58166698D01*
X126024887Y-58139615D01*
X125943269Y-58085080D01*
X125807542Y-58028860D01*
X125766374Y-58020671D01*
X125663460Y-58000200D01*
X125663455Y-58000200D01*
X125516545Y-58000200D01*
X125516539Y-58000200D01*
X125393041Y-58024765D01*
X125372458Y-58028860D01*
X125372455Y-58028860D01*
X125372452Y-58028862D01*
X125236731Y-58085080D01*
X125114580Y-58166698D01*
X125114574Y-58166703D01*
X125010703Y-58270574D01*
X125010698Y-58270580D01*
X124929080Y-58392731D01*
X124872862Y-58528452D01*
X124872860Y-58528459D01*
X124844200Y-58672539D01*
X110201348Y-58672539D01*
X110206105Y-58000200D01*
X110208537Y-57656539D01*
X129924200Y-57656539D01*
X129924200Y-57803460D01*
X129944671Y-57906374D01*
X129952860Y-57947542D01*
X130009080Y-58083269D01*
X130063615Y-58164887D01*
X130090698Y-58205419D01*
X130090703Y-58205425D01*
X130194574Y-58309296D01*
X130194580Y-58309301D01*
X130316731Y-58390920D01*
X130452458Y-58447140D01*
X130572740Y-58471065D01*
X130596539Y-58475799D01*
X130596542Y-58475799D01*
X130596545Y-58475800D01*
X130596546Y-58475800D01*
X130743454Y-58475800D01*
X130743455Y-58475800D01*
X130887542Y-58447140D01*
X131023269Y-58390920D01*
X131145420Y-58309301D01*
X131249301Y-58205420D01*
X131330920Y-58083269D01*
X131387140Y-57947542D01*
X131415800Y-57803455D01*
X131415800Y-57656545D01*
X131387140Y-57512458D01*
X131330920Y-57376731D01*
X131249301Y-57254580D01*
X131249296Y-57254574D01*
X131145425Y-57150703D01*
X131145419Y-57150698D01*
X131104887Y-57123615D01*
X131023269Y-57069080D01*
X130887542Y-57012860D01*
X130846374Y-57004671D01*
X130743460Y-56984200D01*
X130743455Y-56984200D01*
X130596545Y-56984200D01*
X130596539Y-56984200D01*
X130473041Y-57008765D01*
X130452458Y-57012860D01*
X130452455Y-57012860D01*
X130452452Y-57012862D01*
X130316731Y-57069080D01*
X130194580Y-57150698D01*
X130194574Y-57150703D01*
X130090703Y-57254574D01*
X130090698Y-57254580D01*
X130009080Y-57376731D01*
X129952862Y-57512452D01*
X129952860Y-57512459D01*
X129924200Y-57656539D01*
X110208537Y-57656539D01*
X110208587Y-57649463D01*
X110215726Y-56640539D01*
X124844200Y-56640539D01*
X124844200Y-56787460D01*
X124864283Y-56888420D01*
X124872860Y-56931542D01*
X124929080Y-57067269D01*
X124983615Y-57148887D01*
X125010698Y-57189419D01*
X125010703Y-57189425D01*
X125114574Y-57293296D01*
X125114580Y-57293301D01*
X125236731Y-57374920D01*
X125372458Y-57431140D01*
X125496521Y-57455817D01*
X125516539Y-57459799D01*
X125516542Y-57459799D01*
X125516545Y-57459800D01*
X125516546Y-57459800D01*
X125663454Y-57459800D01*
X125663455Y-57459800D01*
X125807542Y-57431140D01*
X125943269Y-57374920D01*
X126065420Y-57293301D01*
X126169301Y-57189420D01*
X126250920Y-57067269D01*
X126307140Y-56931542D01*
X126335800Y-56787455D01*
X126335800Y-56640545D01*
X126307140Y-56496458D01*
X126250920Y-56360731D01*
X126169301Y-56238580D01*
X126169296Y-56238574D01*
X126065423Y-56134701D01*
X126049575Y-56124112D01*
X126049573Y-56124110D01*
X126000818Y-56091533D01*
X125943269Y-56053080D01*
X125876767Y-56025534D01*
X127475500Y-56025534D01*
X127475500Y-56025537D01*
X127475500Y-56154463D01*
X127500652Y-56280911D01*
X127549989Y-56400022D01*
X127582918Y-56449303D01*
X127621616Y-56507219D01*
X127621621Y-56507225D01*
X127712774Y-56598378D01*
X127712780Y-56598383D01*
X127819978Y-56670011D01*
X127939089Y-56719348D01*
X128065537Y-56744500D01*
X128065538Y-56744500D01*
X128194462Y-56744500D01*
X128194463Y-56744500D01*
X128320911Y-56719348D01*
X128440022Y-56670011D01*
X128547220Y-56598383D01*
X128638383Y-56507220D01*
X128710011Y-56400022D01*
X128759348Y-56280911D01*
X128784500Y-56154463D01*
X128784500Y-56025537D01*
X128759348Y-55899089D01*
X128710011Y-55779978D01*
X128638383Y-55672780D01*
X128638378Y-55672774D01*
X128547225Y-55581621D01*
X128547219Y-55581616D01*
X128511649Y-55557849D01*
X128440022Y-55509989D01*
X128320911Y-55460652D01*
X128312234Y-55458926D01*
X128194465Y-55435500D01*
X128194463Y-55435500D01*
X128065537Y-55435500D01*
X128065534Y-55435500D01*
X127939088Y-55460652D01*
X127939083Y-55460654D01*
X127819978Y-55509989D01*
X127712780Y-55581616D01*
X127712774Y-55581621D01*
X127621621Y-55672774D01*
X127621616Y-55672780D01*
X127549989Y-55779978D01*
X127500654Y-55899083D01*
X127500652Y-55899088D01*
X127475500Y-56025534D01*
X125876767Y-56025534D01*
X125807542Y-55996860D01*
X125766374Y-55988671D01*
X125663460Y-55968200D01*
X125663455Y-55968200D01*
X125516545Y-55968200D01*
X125516539Y-55968200D01*
X125393041Y-55992765D01*
X125372458Y-55996860D01*
X125372455Y-55996860D01*
X125372452Y-55996862D01*
X125236731Y-56053080D01*
X125114580Y-56134698D01*
X125114574Y-56134703D01*
X125010703Y-56238574D01*
X125010698Y-56238580D01*
X124929080Y-56360731D01*
X124872862Y-56496452D01*
X124872860Y-56496459D01*
X124844200Y-56640539D01*
X110215726Y-56640539D01*
X110215776Y-56633463D01*
X110226157Y-55166417D01*
X124325499Y-55166417D01*
X124359881Y-55294730D01*
X124426297Y-55409766D01*
X124426305Y-55409776D01*
X124520223Y-55503694D01*
X124520228Y-55503698D01*
X124520230Y-55503700D01*
X124520231Y-55503701D01*
X124520233Y-55503702D01*
X124564865Y-55529470D01*
X124635270Y-55570119D01*
X124763581Y-55604500D01*
X124763583Y-55604500D01*
X124896417Y-55604500D01*
X124896419Y-55604500D01*
X125024730Y-55570119D01*
X125139770Y-55503700D01*
X125233700Y-55409770D01*
X125300119Y-55294730D01*
X125334500Y-55166419D01*
X125334500Y-55033581D01*
X125300119Y-54905270D01*
X125233700Y-54790230D01*
X125233698Y-54790228D01*
X125233694Y-54790223D01*
X125139776Y-54696305D01*
X125139766Y-54696297D01*
X125024730Y-54629881D01*
X124896419Y-54595500D01*
X124763581Y-54595500D01*
X124678040Y-54618420D01*
X124635269Y-54629881D01*
X124520233Y-54696297D01*
X124520223Y-54696305D01*
X124426305Y-54790223D01*
X124426297Y-54790233D01*
X124359881Y-54905269D01*
X124325500Y-55033582D01*
X124325500Y-55166417D01*
X124325499Y-55166417D01*
X110226157Y-55166417D01*
X110227162Y-55024430D01*
X110233115Y-54183108D01*
X110253599Y-54115131D01*
X110307582Y-54069019D01*
X110359112Y-54058000D01*
X118489500Y-54058000D01*
X118498325Y-54060591D01*
G37*
%TD.AperFunction*%
%TD*%
M02*
